<?xml version="1.0" encoding="UTF-8" standalone="no"?>
<!-- Created with Inkscape (http://www.inkscape.org/) -->

<svg
   xmlns:dc="http://purl.org/dc/elements/1.1/"
   xmlns:cc="http://creativecommons.org/ns#"
   xmlns:rdf="http://www.w3.org/1999/02/22-rdf-syntax-ns#"
   xmlns:svg="http://www.w3.org/2000/svg"
   xmlns="http://www.w3.org/2000/svg"
   xmlns:sodipodi="http://sodipodi.sourceforge.net/DTD/sodipodi-0.dtd"
   xmlns:inkscape="http://www.inkscape.org/namespaces/inkscape"
   version="1.1"
   id="svg2"
   width="500"
   height="47"
   viewBox="0 0 500 46.999998"
   sodipodi:docname="smith college textlogo.svg"
   inkscape:version="0.48.1 ">
  <metadata
     id="metadata3025">
    <rdf:RDF>
      <cc:Work
         rdf:about="">
        <dc:format>image/svg+xml</dc:format>
        <dc:type
           rdf:resource="http://purl.org/dc/dcmitype/StillImage" />
      </cc:Work>
    </rdf:RDF>
  </metadata>
  <defs
     id="defs6" />
  <sodipodi:namedview
     id="namedview4"
     pagecolor="#ffffff"
     bordercolor="#000000"
     borderopacity="0.25"
     inkscape:showpageshadow="2"
     inkscape:pageopacity="0.0"
     inkscape:pagecheckerboard="0"
     inkscape:deskcolor="#d1d1d1"
     showgrid="false"
     inkscape:zoom="2.0441969"
     inkscape:cx="252.91106"
     inkscape:cy="45.494639"
     inkscape:window-width="1366"
     inkscape:window-height="705"
     inkscape:window-x="-8"
     inkscape:window-y="-8"
     inkscape:window-maximized="1"
     inkscape:current-layer="g8" />
  <g
     id="g8"
     inkscape:groupmode="layer"
     inkscape:label="ink_ext_XXXXXX"
     transform="matrix(1.3333333,0,0,-1.3333333,0,47.00001)">
    <g
       id="g3041"
       transform="matrix(0.74158133,0,0,0.74158133,-90.719804,-20.762541)">
      <path
         d="m 125.72,31.9441 c -0.953,0.3789 -1.132,0.65 -1.132,1.8414 0,2.9786 0.239,6.2274 0.298,7.0942 0.06,0.8121 0.239,1.4078 0.715,1.4078 0.536,0 0.596,-0.4875 0.596,-0.9207 0,-0.7039 0.238,-1.841 0.535,-2.7617 1.311,-4.0071 4.825,-5.4696 8.517,-5.4696 5.36,0 7.98,3.3032 7.98,6.1735 0,2.6535 -0.893,5.1984 -5.836,8.6644 l -2.74,1.9496 c -6.551,4.6575 -8.814,8.4477 -8.814,12.8344 0,5.9571 5.479,10.2352 13.758,10.2352 3.87,0 6.372,-0.5418 7.92,-0.9207 0.536,-0.1082 0.834,-0.2707 0.834,-0.6496 0,-0.7043 -0.238,-2.2746 -0.238,-6.4989 0,-1.1914 -0.179,-1.6246 -0.655,-1.6246 -0.417,0 -0.596,0.325 -0.596,0.9746 0,0.4879 -0.298,2.1664 -1.549,3.5746 -0.893,1.0286 -2.62,2.6532 -6.491,2.6532 -4.407,0 -7.087,-2.3285 -7.087,-5.5778 0,-2.491 1.37,-4.3859 6.313,-7.7976 l 1.667,-1.1379 c 7.147,-5.0359 9.767,-8.6641 9.767,-13.8086 0,-3.141 -1.31,-6.8777 -5.598,-9.4227 -2.977,-1.7332 -6.312,-2.2203 -9.469,-2.2203 -3.454,0 -6.134,0.3789 -8.695,1.4078"
         style="fill:#114781;fill-opacity:1;fill-rule:nonzero;stroke:none"
         id="path16"
         inkscape:connector-curvature="0" />
      <path
         d="m 167.833,66.6004 c 0.154,0.7976 0.464,1.2203 0.877,1.2203 0.413,0 0.723,-0.2352 1.394,-1.4547 l 14.092,-26.4633 14.041,26.7914 c 0.361,0.7508 0.671,1.1266 1.136,1.1266 0.464,0 0.773,-0.4695 0.928,-1.4547 l 4.698,-28.9972 c 0.464,-2.9559 0.981,-4.3168 2.529,-4.7391 1.497,-0.4219 2.53,-0.4692 3.201,-0.4692 0.464,0 0.826,-0.0468 0.826,-0.3285 0,-0.3754 -0.619,-0.516 -1.342,-0.516 -1.291,0 -8.415,0.1406 -10.479,0.2813 -1.188,0.0937 -1.497,0.2347 -1.497,0.5164 0,0.2347 0.206,0.3754 0.568,0.516 0.309,0.0937 0.464,0.7039 0.258,2.0176 l -3.098,20.6453 h -0.206 L 184.506,33.9902 c -1.188,-2.2047 -1.446,-2.6273 -1.91,-2.6273 -0.465,0 -0.981,0.9387 -1.807,2.3457 -1.239,2.159 -5.317,9.3375 -5.936,10.6516 -0.465,0.9851 -3.562,6.8972 -5.369,10.4164 h -0.207 L 166.593,36.102 c -0.103,-0.8446 -0.155,-1.4547 -0.155,-2.2051 0,-0.8918 0.671,-1.3141 1.549,-1.5016 0.93,-0.1875 1.652,-0.2348 2.168,-0.2348 0.413,0 0.775,-0.0937 0.775,-0.3285 0,-0.4222 -0.465,-0.516 -1.24,-0.516 -2.168,0 -4.49,0.1406 -5.419,0.1406 -0.981,0 -3.459,-0.1406 -5.111,-0.1406 -0.516,0 -0.929,0.0938 -0.929,0.516 0,0.2348 0.31,0.3285 0.826,0.3285 0.413,0 0.774,0 1.548,0.1411 1.446,0.2812 1.859,2.1113 2.117,3.7066 l 5.111,30.5922"
         style="fill:#114781;fill-opacity:1;fill-rule:nonzero;stroke:none"
         id="path18"
         inkscape:connector-curvature="0" />
      <path
         d="m 222.861,53.1809 c 0,7.1324 0,8.4457 -0.104,9.9472 -0.103,1.5953 -0.619,2.393 -1.755,2.6282 -0.567,0.1406 -1.238,0.1875 -1.858,0.1875 -0.516,0 -0.826,0.0937 -0.826,0.4691 0,0.2812 0.413,0.375 1.239,0.375 1.962,0 5.214,-0.1406 6.711,-0.1406 1.29,0 4.336,0.1406 6.297,0.1406 0.671,0 1.084,-0.0938 1.084,-0.375 0,-0.3754 -0.31,-0.4691 -0.826,-0.4691 -0.516,0 -0.929,-0.0469 -1.548,-0.1411 -1.394,-0.2347 -1.807,-1.0324 -1.91,-2.6746 -0.103,-1.5015 -0.103,-2.8148 -0.103,-9.9472 V 44.923 c 0,-4.5511 0,-8.2582 0.206,-10.2757 0.155,-1.2668 0.516,-2.1114 2.065,-2.2989 0.722,-0.0937 1.858,-0.1879 2.633,-0.1879 0.567,0 0.826,-0.141 0.826,-0.375 0,-0.3289 -0.413,-0.4695 -0.981,-0.4695 -3.407,0 -6.659,0.1406 -8.053,0.1406 -1.187,0 -4.439,-0.1406 -6.504,-0.1406 -0.671,0 -1.033,0.1406 -1.033,0.4695 0,0.234 0.207,0.375 0.826,0.375 0.774,0 1.394,0.0942 1.858,0.1879 1.033,0.1875 1.343,0.9852 1.498,2.3457 0.258,1.9707 0.258,5.6778 0.258,10.2289 v 8.2579"
         style="fill:#114781;fill-opacity:1;fill-rule:nonzero;stroke:none"
         id="path20"
         inkscape:connector-curvature="0" />
      <path
         d="M 256.152,64.1605 248.46,63.973 c -2.993,-0.0937 -4.232,-0.3289 -5.006,-1.3609 -0.516,-0.7035 -0.775,-1.2668 -0.878,-1.6422 -0.103,-0.3754 -0.258,-0.5629 -0.568,-0.5629 -0.362,0 -0.465,0.2344 -0.465,0.7504 0,0.7512 0.981,5.0211 1.084,5.3961 0.155,0.6098 0.311,0.8914 0.62,0.8914 0.413,0 0.929,-0.4691 2.22,-0.5629 1.496,-0.141 3.458,-0.2347 5.162,-0.2347 h 20.441 c 3.304,0 4.543,0.4691 4.956,0.4691 0.361,0 0.413,-0.2812 0.413,-0.9851 0,-0.9856 -0.155,-4.2227 -0.155,-5.443 -0.052,-0.4692 -0.155,-0.7504 -0.465,-0.7504 -0.412,0 -0.516,0.2344 -0.568,0.9383 l -0.051,0.516 c -0.103,1.2199 -1.497,2.534 -6.091,2.6273 l -6.505,0.141 V 44.923 c 0,-4.3167 0,-8.0234 0.259,-10.041 0.155,-1.314 0.464,-2.3461 2.013,-2.5336 0.723,-0.0937 1.858,-0.1879 2.633,-0.1879 0.567,0 0.825,-0.141 0.825,-0.375 0,-0.3289 -0.413,-0.4695 -0.98,-0.4695 -3.407,0 -6.659,0.1406 -8.104,0.1406 -1.188,0 -4.44,-0.1406 -6.505,-0.1406 -0.671,0 -1.032,0.1406 -1.032,0.4695 0,0.234 0.206,0.375 0.826,0.375 0.774,0 1.393,0.0942 1.858,0.1879 1.032,0.1875 1.342,1.2196 1.497,2.5805 0.258,1.9707 0.258,5.6774 0.258,9.9941 v 19.2375"
         style="fill:#114781;fill-opacity:1;fill-rule:nonzero;stroke:none"
         id="path22"
         inkscape:connector-curvature="0" />
      <path
         d="m 315.515,51.8676 c 0.155,0 0.31,0.0933 0.31,0.3285 v 0.9848 c 0,7.1324 0,8.4457 -0.104,9.9472 -0.102,1.5953 -0.515,2.3461 -2.219,2.6746 -0.413,0.0942 -1.291,0.1411 -2.013,0.1411 -0.568,0 -0.878,0.0937 -0.878,0.4222 0,0.3281 0.362,0.4219 1.084,0.4219 2.788,0 6.04,-0.1406 7.433,-0.1406 1.24,0 4.492,0.1406 6.504,0.1406 0.724,0 1.085,-0.0938 1.085,-0.4219 0,-0.3285 -0.31,-0.4222 -0.929,-0.4222 -0.413,0 -0.877,-0.0469 -1.497,-0.1411 -1.394,-0.2347 -1.806,-1.0324 -1.91,-2.6746 -0.103,-1.5015 -0.103,-2.8148 -0.103,-9.9472 V 44.923 c 0,-4.3167 0,-8.0234 0.258,-10.041 0.155,-1.314 0.464,-2.3461 2.012,-2.5336 0.724,-0.0937 1.859,-0.1879 2.634,-0.1879 0.568,0 0.825,-0.141 0.825,-0.375 0,-0.3289 -0.413,-0.4695 -1.032,-0.4695 -3.355,0 -6.607,0.1406 -8.053,0.1406 -1.187,0 -4.439,-0.1406 -6.452,-0.1406 -0.723,0 -1.084,0.1406 -1.084,0.4695 0,0.234 0.206,0.375 0.825,0.375 0.775,0 1.394,0.0942 1.859,0.1879 1.033,0.1875 1.291,1.2196 1.497,2.5805 0.258,1.9707 0.258,5.6774 0.258,9.9941 v 4.129 c 0,0.1878 -0.155,0.2816 -0.31,0.2816 h -19.719 c -0.154,0 -0.309,-0.0469 -0.309,-0.2816 v -4.129 c 0,-4.3167 0,-8.0234 0.258,-10.041 0.154,-1.314 0.464,-2.3461 2.013,-2.5336 0.722,-0.0937 1.858,-0.1879 2.633,-0.1879 0.567,0 0.825,-0.141 0.825,-0.375 0,-0.3289 -0.412,-0.4695 -1.032,-0.4695 -3.355,0 -6.607,0.1406 -8.053,0.1406 -1.187,0 -4.439,-0.1406 -6.504,-0.1406 -0.671,0 -1.032,0.1406 -1.032,0.4695 0,0.234 0.206,0.375 0.826,0.375 0.774,0 1.393,0.0942 1.858,0.1879 1.033,0.1875 1.29,1.2196 1.497,2.5805 0.258,1.9707 0.258,5.6774 0.258,9.9941 v 8.2579 c 0,7.1324 0,8.4457 -0.103,9.9472 -0.103,1.5953 -0.516,2.3461 -2.22,2.6746 -0.413,0.0942 -1.29,0.1411 -2.013,0.1411 -0.568,0 -0.878,0.0937 -0.878,0.4222 0,0.3281 0.362,0.4219 1.084,0.4219 2.788,0 6.04,-0.1406 7.434,-0.1406 1.239,0 4.491,0.1406 6.504,0.1406 0.722,0 1.084,-0.0938 1.084,-0.4219 0,-0.3285 -0.31,-0.4222 -0.929,-0.4222 -0.413,0 -0.878,-0.0469 -1.497,-0.1411 -1.394,-0.2347 -1.807,-1.0324 -1.91,-2.6746 -0.103,-1.5015 -0.103,-2.8148 -0.103,-9.9472 v -0.9848 c 0,-0.2352 0.155,-0.3285 0.309,-0.3285 h 19.719"
         style="fill:#114781;fill-opacity:1;fill-rule:nonzero;stroke:none"
         id="path24"
         inkscape:connector-curvature="0" />
      <path
         d="m 355.574,36.4387 c -5.837,4.6574 -7.386,10.7226 -7.386,15.9758 0,3.682 1.252,10.0718 6.969,14.8378 4.288,3.5743 9.946,5.7403 18.819,5.7403 3.692,0 5.896,-0.2164 8.635,-0.5418 2.264,-0.2703 4.169,-0.7582 5.956,-0.9203 0.655,-0.0543 0.893,-0.325 0.893,-0.65 0,-0.4328 -0.178,-1.0828 -0.297,-2.9785 -0.12,-1.7872 -0.06,-4.7657 -0.179,-5.8485 -0.06,-0.8125 -0.179,-1.2457 -0.715,-1.2457 -0.476,0 -0.596,0.4332 -0.596,1.1914 -0.059,1.6785 -0.833,3.5742 -2.322,4.9821 -1.965,1.8953 -6.61,3.3578 -12.09,3.3578 -5.18,0 -8.575,-1.1914 -11.196,-3.3578 -4.348,-3.6282 -5.479,-8.7727 -5.479,-14.0254 0,-12.8887 10.78,-19.2789 18.759,-19.2789 5.301,0 8.517,0.5414 10.9,3.0328 1.012,1.0289 1.786,2.5992 2.024,3.5742 0.179,0.866 0.298,1.0828 0.774,1.0828 0.417,0 0.537,-0.3789 0.537,-0.8125 0,-0.6496 -0.715,-5.3605 -1.311,-7.202 -0.298,-0.921 -0.536,-1.1914 -1.549,-1.5707 -2.382,-0.8664 -6.908,-1.2453 -10.72,-1.2453 -8.159,0 -15.007,1.6246 -20.426,5.9024"
         style="fill:#114781;fill-opacity:1;fill-rule:nonzero;stroke:none"
         id="path26"
         inkscape:connector-curvature="0" />
      <path
         d="m 433.914,48.1605 c 0,10.5102 -6.66,17.0321 -15.125,17.0321 -5.936,0 -12.699,-3.0028 -12.699,-14.686 0,-9.7593 5.937,-17.5015 15.847,-17.5015 3.614,0 11.977,1.5953 11.977,15.1554 z m -34.948,0.8915 c 0,8.0234 5.833,18.3929 21.32,18.3929 12.853,0 20.854,-6.8035 20.854,-17.548 0,-10.7453 -8.259,-19.2379 -21.37,-19.2379 -14.815,0 -20.804,10.0883 -20.804,18.393"
         style="fill:#114781;fill-opacity:1;fill-rule:nonzero;stroke:none"
         id="path28"
         inkscape:connector-curvature="0" />
      <path
         d="m 460.481,44.923 c 0,-6.0058 0,-9.2437 1.084,-10.0878 0.878,-0.7039 2.219,-1.0325 6.246,-1.0325 2.736,0 4.749,0.0473 6.039,1.3137 0.619,0.6106 1.239,1.9238 1.343,2.8156 0.052,0.4223 0.154,0.7035 0.567,0.7035 0.362,0 0.413,-0.2343 0.413,-0.7972 0,-0.5164 -0.361,-4.0356 -0.774,-5.3961 -0.31,-1.0324 -0.568,-1.2668 -3.252,-1.2668 -7.434,0 -10.84,0.2812 -15.022,0.2812 -1.187,0 -4.439,-0.1406 -6.504,-0.1406 -0.671,0 -1.033,0.1406 -1.033,0.4695 0,0.234 0.207,0.375 0.827,0.375 0.774,0 1.393,0.0942 1.858,0.1879 1.032,0.1875 1.29,1.2196 1.497,2.5805 0.258,1.9707 0.258,5.6774 0.258,9.9941 v 8.2579 c 0,7.1324 0,8.4457 -0.104,9.9472 -0.102,1.5953 -0.515,2.3461 -2.218,2.6746 -0.414,0.0942 -1.033,0.1411 -1.704,0.1411 -0.568,0 -0.878,0.0937 -0.878,0.4222 0,0.3281 0.362,0.4219 1.136,0.4219 2.426,0 5.678,-0.1406 7.073,-0.1406 1.238,0 5.005,0.1406 7.019,0.1406 0.723,0 1.084,-0.0938 1.084,-0.4219 0,-0.3285 -0.31,-0.4222 -0.929,-0.4222 -0.567,0 -1.393,-0.0469 -2.013,-0.1411 -1.394,-0.2347 -1.807,-1.0324 -1.911,-2.6746 -0.102,-1.5015 -0.102,-2.8148 -0.102,-9.9472 V 44.923"
         style="fill:#114781;fill-opacity:1;fill-rule:nonzero;stroke:none"
         id="path30"
         inkscape:connector-curvature="0" />
      <path
         d="m 494.809,44.923 c 0,-6.0058 0,-9.2437 1.084,-10.0878 0.877,-0.7039 2.22,-1.0325 6.246,-1.0325 2.736,0 4.749,0.0473 6.039,1.3137 0.619,0.6106 1.239,1.9238 1.342,2.8156 0.053,0.4223 0.156,0.7035 0.568,0.7035 0.362,0 0.413,-0.2343 0.413,-0.7972 0,-0.5164 -0.361,-4.0356 -0.774,-5.3961 -0.31,-1.0324 -0.568,-1.2668 -3.252,-1.2668 -7.433,0 -10.84,0.2812 -15.021,0.2812 -1.188,0 -4.44,-0.1406 -6.505,-0.1406 -0.671,0 -1.032,0.1406 -1.032,0.4695 0,0.234 0.207,0.375 0.826,0.375 0.774,0 1.393,0.0942 1.858,0.1879 1.032,0.1875 1.29,1.2196 1.497,2.5805 0.259,1.9707 0.259,5.6774 0.259,9.9941 v 8.2579 c 0,7.1324 0,8.4457 -0.104,9.9472 -0.103,1.5953 -0.516,2.3461 -2.22,2.6746 -0.412,0.0942 -1.033,0.1411 -1.702,0.1411 -0.569,0 -0.878,0.0937 -0.878,0.4222 0,0.3281 0.36,0.4219 1.134,0.4219 2.427,0 5.679,-0.1406 7.074,-0.1406 1.238,0 5.006,0.1406 7.019,0.1406 0.723,0 1.084,-0.0938 1.084,-0.4219 0,-0.3285 -0.309,-0.4222 -0.929,-0.4222 -0.567,0 -1.393,-0.0469 -2.012,-0.1411 -1.395,-0.2347 -1.808,-1.0324 -1.911,-2.6746 -0.103,-1.5015 -0.103,-2.8148 -0.103,-9.9472 V 44.923"
         style="fill:#114781;fill-opacity:1;fill-rule:nonzero;stroke:none"
         id="path32"
         inkscape:connector-curvature="0" />
      <path
         d="m 522.684,53.1809 c 0,7.1324 0,8.4457 -0.103,9.9472 -0.103,1.5953 -0.516,2.3461 -2.22,2.6746 -0.412,0.0942 -1.29,0.1411 -2.013,0.1411 -0.568,0 -0.878,0.0937 -0.878,0.4222 0,0.3281 0.363,0.4219 1.137,0.4219 2.735,0 5.987,-0.1406 7.433,-0.1406 1.652,0 11.923,0 12.905,0.0468 0.981,0.0938 1.806,0.1879 2.22,0.2817 0.257,0.0469 0.568,0.1875 0.826,0.1875 0.258,0 0.309,-0.1875 0.309,-0.4223 0,-0.3281 -0.258,-0.891 -0.413,-3.05 -0.052,-0.4687 -0.154,-2.5336 -0.259,-3.0965 -0.05,-0.2343 -0.154,-0.5164 -0.515,-0.5164 -0.362,0 -0.464,0.2352 -0.464,0.6574 0,0.3282 -0.053,1.1258 -0.311,1.6891 -0.361,0.8445 -0.877,1.4074 -3.459,1.6891 -0.877,0.0941 -6.296,0.1879 -7.33,0.1879 -0.257,0 -0.361,-0.1411 -0.361,-0.4696 V 51.9609 c 0,-0.3285 0.053,-0.516 0.361,-0.516 1.137,0 7.073,0 8.26,0.0938 1.239,0.0937 2.014,0.2347 2.478,0.7043 0.362,0.375 0.568,0.6097 0.826,0.6097 0.207,0 0.361,-0.0941 0.361,-0.3754 0,-0.2812 -0.258,-1.0324 -0.413,-3.4253 -0.103,-0.9383 -0.206,-2.8149 -0.206,-3.1434 0,-0.3758 0,-0.8918 -0.465,-0.8918 -0.361,0 -0.464,0.1879 -0.464,0.4223 -0.052,0.4695 -0.052,1.0793 -0.207,1.689 -0.258,0.9387 -0.98,1.6426 -2.89,1.8301 -0.981,0.0938 -6.092,0.1406 -7.33,0.1406 -0.258,0 -0.311,-0.1875 -0.311,-0.4691 V 44.923 c 0,-1.5953 -0.051,-5.9121 0,-7.273 0.104,-3.2371 0.93,-3.9414 6.195,-3.9414 1.342,0 3.51,0 4.853,0.5637 1.342,0.5629 1.961,1.5484 2.322,3.4722 0.104,0.516 0.206,0.7035 0.567,0.7035 0.415,0 0.415,-0.3753 0.415,-0.8449 0,-1.0789 -0.415,-4.2695 -0.672,-5.2078 -0.362,-1.2199 -0.826,-1.2199 -2.787,-1.2199 -7.795,0 -11.254,0.2812 -14.299,0.2812 -1.188,0 -4.44,-0.1406 -6.504,-0.1406 -0.671,0 -1.033,0.1406 -1.033,0.4695 0,0.234 0.207,0.375 0.826,0.375 0.774,0 1.394,0.0942 1.858,0.1879 1.032,0.1875 1.29,1.2196 1.497,2.5805 0.258,1.9707 0.258,5.6774 0.258,9.9941 v 8.2579"
         style="fill:#114781;fill-opacity:1;fill-rule:nonzero;stroke:none"
         id="path34"
         inkscape:connector-curvature="0" />
      <path
         d="m 589.733,34.4598 c 0,-1.2668 -0.052,-1.361 -0.672,-1.6891 -3.355,-1.5953 -8.414,-2.1117 -12.439,-2.1117 -12.648,0 -23.85,5.443 -23.85,18.393 0,7.5074 4.285,12.7628 8.982,15.3433 4.955,2.7211 9.55,3.0496 13.886,3.0496 3.562,0 8.105,-0.5629 9.137,-0.7508 1.084,-0.1875 2.89,-0.4687 4.078,-0.5156 0.619,-0.0472 0.723,-0.2347 0.723,-0.5637 0,-0.516 -0.362,-1.8293 -0.362,-7.6949 0,-0.7504 -0.155,-0.9851 -0.567,-0.9851 -0.362,0 -0.465,0.2347 -0.517,0.6097 -0.155,1.0793 -0.413,2.5809 -1.755,3.8946 -1.548,1.5015 -5.678,3.6597 -11.511,3.6597 -2.839,0 -6.608,-0.1875 -10.221,-2.909 -2.891,-2.205 -4.749,-5.7242 -4.749,-11.4957 0,-10.0878 7.071,-17.6421 17.964,-17.6421 1.342,0 3.148,0 4.388,0.516 0.774,0.3289 0.98,0.9386 0.98,1.7363 v 4.4102 c 0,2.3464 0,4.1296 -0.052,5.5371 -0.051,1.5953 -0.515,2.3457 -2.218,2.6746 -0.415,0.0933 -1.291,0.1406 -2.014,0.1406 -0.465,0 -0.775,0.0937 -0.775,0.3754 0,0.3754 0.362,0.4691 1.084,0.4691 2.685,0 5.937,-0.1406 7.486,-0.1406 1.599,0 4.336,0.1406 6.039,0.1406 0.671,0 1.033,-0.0937 1.033,-0.4691 0,-0.2817 -0.311,-0.3754 -0.672,-0.3754 -0.412,0 -0.773,-0.0473 -1.393,-0.1406 -1.394,-0.2352 -1.91,-1.0324 -1.962,-2.6746 -0.051,-1.4075 -0.051,-3.2844 -0.051,-5.6309 v -5.1609"
         style="fill:#114781;fill-opacity:1;fill-rule:nonzero;stroke:none"
         id="path36"
         inkscape:connector-curvature="0" />
      <path
         d="m 604.901,53.1809 c 0,7.1324 0,8.4457 -0.104,9.9472 -0.103,1.5953 -0.516,2.3461 -2.219,2.6746 -0.413,0.0942 -1.291,0.1411 -2.013,0.1411 -0.568,0 -0.879,0.0937 -0.879,0.4222 0,0.3281 0.362,0.4219 1.137,0.4219 2.735,0 5.988,-0.1406 7.433,-0.1406 1.652,0 11.924,0 12.905,0.0468 0.98,0.0938 1.806,0.1879 2.219,0.2817 0.259,0.0469 0.568,0.1875 0.827,0.1875 0.257,0 0.309,-0.1875 0.309,-0.4223 0,-0.3281 -0.258,-0.891 -0.413,-3.05 -0.052,-0.4687 -0.155,-2.5336 -0.258,-3.0965 -0.052,-0.2343 -0.154,-0.5164 -0.516,-0.5164 -0.362,0 -0.465,0.2352 -0.465,0.6574 0,0.3282 -0.052,1.1258 -0.309,1.6891 -0.361,0.8445 -0.878,1.4074 -3.459,1.6891 -0.878,0.0941 -6.298,0.1879 -7.33,0.1879 -0.259,0 -0.361,-0.1411 -0.361,-0.4696 V 51.9609 c 0,-0.3285 0.051,-0.516 0.361,-0.516 1.136,0 7.072,0 8.259,0.0938 1.239,0.0937 2.014,0.2347 2.478,0.7043 0.361,0.375 0.568,0.6097 0.826,0.6097 0.207,0 0.362,-0.0941 0.362,-0.3754 0,-0.2812 -0.259,-1.0324 -0.413,-3.4253 -0.104,-0.9383 -0.207,-2.8149 -0.207,-3.1434 0,-0.3758 0,-0.8918 -0.465,-0.8918 -0.361,0 -0.465,0.1879 -0.465,0.4223 -0.051,0.4695 -0.051,1.0793 -0.206,1.689 -0.258,0.9387 -0.98,1.6426 -2.891,1.8301 -0.981,0.0938 -6.091,0.1406 -7.33,0.1406 -0.258,0 -0.309,-0.1875 -0.309,-0.4691 V 44.923 c 0,-1.5953 -0.052,-5.9121 0,-7.273 0.102,-3.2371 0.929,-3.9414 6.194,-3.9414 1.342,0 3.511,0 4.853,0.5637 1.341,0.5629 1.961,1.5484 2.322,3.4722 0.103,0.516 0.207,0.7035 0.568,0.7035 0.412,0 0.412,-0.3753 0.412,-0.8449 0,-1.0789 -0.412,-4.2695 -0.67,-5.2078 -0.361,-1.2199 -0.826,-1.2199 -2.788,-1.2199 -7.794,0 -11.253,0.2812 -14.298,0.2812 -1.187,0 -4.44,-0.1406 -6.504,-0.1406 -0.671,0 -1.033,0.1406 -1.033,0.4695 0,0.234 0.206,0.375 0.826,0.375 0.774,0 1.393,0.0942 1.858,0.1879 1.033,0.1875 1.291,1.2196 1.497,2.5805 0.259,1.9707 0.259,5.6774 0.259,9.9941 v 8.2579"
         style="fill:#114781;fill-opacity:1;fill-rule:nonzero;stroke:none"
         id="path38"
         inkscape:connector-curvature="0" />
    </g>
  </g>
</svg>
