<?xml version="1.0" encoding="UTF-8"?>
<svg width="320" height="69" fill="none" version="1.1" viewBox="0 0 320 69" xmlns="http://www.w3.org/2000/svg">
 <g fill="#575756">
  <path d="m299.28 44.392c-0.213 0.7238-0.326 1.4901-0.326 2.2849v0.3264h0.128v-0.3264c0-0.7522 0.113-1.4902 0.311-2.1856" clip-path="url(#clipPath404)"/>
  <path d="m314.33 44.491c0.198 0.6954 0.312 1.4192 0.312 2.1855v0.3123h0.127v-0.3123c0-0.7663-0.113-1.5043-0.311-2.2139" clip-path="url(#clipPath403)"/>
  <path d="m306.45 34.377-12.563 12.584 0.05 0.0502 12.563-12.584z" clip-path="url(#clipPath402)"/>
  <path d="m308.29 35.31-0.05 0.0501 11.559 11.582 0.05-0.0502z" clip-path="url(#clipPath401)"/>
  <path d="m319.9 34.018-12.354-0.0142v-0.0709l12.354 0.0142z" clip-path="url(#clipPath400)"/>
  <path d="m306.92 38.885h-0.07v8.1176h0.07z" clip-path="url(#clipPath399)"/>
  <path d="m320 47.088h-26.169v-26.212h26.169zm-25.942-0.227h25.715v-25.758h-25.715z" clip-path="url(#clipPath398)"/>
  <path d="m306.89 46.96c-2.692 0-5.271-0.8231-7.467-2.3842-2.833-2.001-4.703-4.9813-5.299-8.4015-0.58-3.4202 0.185-6.8546 2.197-9.6929 2.422-3.4344 6.389-5.4922 10.597-5.4922 2.692 0 5.271 0.8231 7.467 2.3842 2.833 2.0011 4.704 4.9813 5.299 8.4015 0.581 3.4202-0.199 6.8546-2.196 9.6929-2.423 3.4344-6.39 5.4922-10.598 5.4922zm0.028-25.744c-4.137 0-8.033 2.0152-10.413 5.3928-1.97 2.7816-2.721 6.1592-2.154 9.5227 0.581 3.3634 2.423 6.2869 5.2 8.2595 2.168 1.5327 4.704 2.3417 7.339 2.3417 4.137 0 8.033-2.0153 10.413-5.3929 1.97-2.7816 2.721-6.1592 2.154-9.5226-0.581-3.3634-2.423-6.2869-5.2-8.2596-2.167-1.5327-4.703-2.3416-7.339-2.3416z" clip-path="url(#clipPath397)"/>
  <path d="m313.33 27.645c1.97 0 3.741 0.9083 4.903 2.3417h0.17c-1.176-1.5044-3.018-2.4694-5.058-2.4694-1.502 0-2.891 0.5251-3.982 1.3908l0.043 0.1277c1.077-0.8657 2.451-1.3908 3.939-1.3908" clip-path="url(#clipPath396)"/>
  <path d="m313.1 40.432h0.241c3.556 0 6.446-2.8951 6.446-6.4572 0-1.3766-0.425-2.6397-1.162-3.6898l-0.113 0.0709c0.708 1.0218 1.133 2.2707 1.133 3.6047 0 3.4912-2.833 6.3295-6.319 6.3295h-0.283" clip-path="url(#clipPath395)"/>
  <path d="m309.68 29.987-0.297-0.9508c-1.446 1.1637-2.367 2.9376-2.367 4.9387 0 3.3918 2.678 6.1733 6.036 6.3153l-1.587-4.7826 7.056-5.1374c-0.085-0.1278-0.184-0.2555-0.283-0.3832h-8.544z" clip-path="url(#clipPath394)"/>
  <path d="m319.04 29.987h-0.638c0.071 0.0993 0.156 0.1986 0.227 0.298z" clip-path="url(#clipPath393)"/>
  <path d="m318.51 30.37 0.113-0.0709c-0.071-0.0994-0.141-0.1987-0.226-0.2981h-0.17c0.099 0.1278 0.198 0.2555 0.283 0.3832" clip-path="url(#clipPath392)"/>
 </g>
 <path d="m313.1 40.418s-0.028-0.071-0.042-0.1136z" clip-path="url(#clipPath391)" fill="#fff"/>
 <g fill="#575756">
  <path d="m314.15 43.583-1.048-3.1505c-0.638-0.0284-1.261-0.142-1.842-0.3406 1.275 0.8515 2.281 2.0577 2.89 3.4911z" clip-path="url(#clipPath390)"/>
  <path d="m306.87 38.758c0.963 0 1.898 0.1704 2.748 0.4968-1.643-1.1638-2.734-3.0938-2.734-5.2652 0-2.0578 0.963-3.8885 2.465-5.0664l-2.451-7.7912-2.834 8.8698h-9.251l7.48 5.478-2.692 8.0892c1.205-2.8241 4.01-4.7968 7.269-4.7968" clip-path="url(#clipPath389)"/>
  <path d="m314.39 44.307-0.085 0.0709c-0.977-3.1789-3.938-5.478-7.438-5.478-3.499 0-6.418 2.2849-7.41 5.4355l-0.085-0.071-0.057 0.1845 7.595-5.549 7.551 5.6058-0.057-0.1845z" clip-path="url(#clipPath388)"/>
  <path d="m299.34 44.236h0.028l0.227-0.6812c-0.099 0.2271-0.184 0.44-0.255 0.6812z" clip-path="url(#clipPath387)"/>
  <path d="m314.4 44.292c-0.071-0.2412-0.17-0.4825-0.269-0.7095l0.241 0.7237h0.028z" clip-path="url(#clipPath386)"/>
  <path d="m319.91 20.911-12.062 12.082 0.05 0.0501 12.062-12.082z" clip-path="url(#clipPath385)"/>
  <path d="m249.24 28.525c0 4.442-3.131 7.6493-8.147 7.6493h-5.95v10.928h-3.018v-26.155h8.968c5.016 0 8.147 3.1648 8.147 7.5642m-14.097-4.7968v9.6645h5.865c3.358 0 5.101-2.0152 5.101-4.8393 0-2.8242-1.743-4.8394-5.101-4.8394h-5.865z" clip-path="url(#clipPath384)"/>
  <path d="m267.98 24.949-2.196 1.7031c-1.346-2.1004-3.514-3.2925-5.837-3.2925-2.324 0-4.52 1.2347-4.52 3.8034 0 2.3842 1.771 3.2498 4.095 4.3994l2.819 1.3908c3.712 1.8165 5.951 3.7608 5.951 7.2945 0 4.3994-3.514 7.2945-8.232 7.2945-4.052 0-7.41-2.1855-9.379-5.6199l2.238-1.703c1.545 2.4126 3.826 4.4704 7.113 4.4704 3.018 0 5.143-1.703 5.143-4.3569 0-2.4125-1.743-3.3634-4.251-4.5981l-2.862-1.3908c-2.975-1.4617-5.752-3.335-5.752-7.0106 0-4.1582 3.556-6.8121 7.693-6.8121 3.472 0 6.419 1.8592 7.991 4.442" clip-path="url(#clipPath383)"/>
  <path d="m277.08 44.335h12.099v2.7674h-15.103v-26.155h3.004z" clip-path="url(#clipPath382)"/>
  <path d="m77.811 24.992c0-1.7172-0.0283-2.9093-0.1275-4.2575 0.9068 0.0142 1.8277 0.0709 2.7344 0.0709 1.5018 0 2.7911-0.0283 3.202-0.0709-0.0283 0.1845-0.0567 0.369-0.0567 0.6386 0 0.3264 0.0284 0.4683 0.0567 0.6954-1.1618-0.071-3.0036-0.1845-3.4712-0.1845-0.0708 1.1211-0.0708 2.2281-0.0708 3.3492 1.3318-0.0283 2.3094-0.0567 3.4853-0.1277-0.0566 0.3548-0.0708 0.4967-0.0708 0.6954 0 0.1703 0.0283 0.3122 0.0708 0.6244-1.1617-0.0851-2.3094-0.1419-3.4853-0.1419 0 0.6387-0.0142 1.3057-0.0142 1.9585s0.0142 1.3056 0.0425 1.9159c1.1476 0 2.3236-0.0568 3.5137-0.1987-0.0283 0.2129-0.0567 0.369-0.0567 0.6954s0.0284 0.4825 0.0567 0.6528c-0.5525 0-1.2751-0.071-2.6778-0.071-2.4935 0-2.9186 0.0426-3.2444 0.071 0.085-1.3482 0.1275-2.5261 0.1275-4.2575v-2.0862zm1.7427-4.8678c2.2952-2.7815 2.4511-2.8809 2.9186-2.8809 0.4959 0 0.7226 0.3548 0.7226 0.6954 0 0.4116-0.1417 0.5961-2.7911 2.1997h-0.8501z" clip-path="url(#clipPath381)"/>
  <path d="m90.648 26.013c-0.1558-0.8941-0.6092-1.5327-1.5443-1.5327-1.1901 0-1.8418 1.1779-1.8418 3.1648 0 1.8591 0.7934 2.8809 2.281 2.8809 0.6234 0 1.3035-0.3548 1.5868-0.7238l0.1842 0.1561c-0.1417 0.298-0.2408 0.5961-0.34 0.9083-0.4392 0.3406-1.1334 0.667-2.0685 0.667-2.9895 0-3.9813-2.0294-3.9813-3.9027 0-2.2565 1.5869-3.9311 4.0521-3.9311 1.1334 0 1.8985 0.298 2.6353 0.7237-0.2409 0.3974-0.4818 1.0644-0.5809 1.5895h-0.3684z" clip-path="url(#clipPath380)"/>
  <path d="m96.172 23.7c2.3661 0 3.7545 1.4617 3.7545 3.7608 0 2.4977-1.5443 4.073-3.7545 4.073-1.8277 0-3.7545-1.0076-3.7545-3.7324s1.8276-4.1014 3.7545-4.1014zm0.0283 0.6954c-0.9351 0-1.5159 1.1069-1.5159 3.4202 0 1.7172 0.3683 3.0228 1.5018 3.0228 0.9492 0 1.4734-1.2347 1.4734-3.6047 0-1.774-0.4392-2.8383-1.4593-2.8383z" clip-path="url(#clipPath379)"/>
  <path d="m101.54 25.02c0-2.0152-0.043-3.5763-0.128-5.3077 0.255 0.0426 0.708 0.0709 1.148 0.0709 0.439 0 0.892-0.0283 1.147-0.0709-0.071 1.7314-0.127 3.3066-0.127 5.3077v0.9934c0 2.0152 0.042 3.5763 0.127 5.3077-0.255-0.0426-0.708-0.071-1.147-0.071-0.44 0-0.893 0.0284-1.148 0.071 0.071-1.7314 0.128-3.3067 0.128-5.3077z" clip-path="url(#clipPath378)"/>
  <path d="m107.48 27.617c0 1.6604 0.637 2.9235 2.054 2.9235 0.709 0 1.332-0.2271 1.885-0.6954l0.184 0.1419-0.34 0.8657c-0.51 0.3832-1.176 0.6954-2.324 0.6954-1.998 0-3.726-1.1921-3.726-3.8886 0-2.6964 1.502-3.9452 3.556-3.9452s3.131 1.2772 3.131 3.406c0 0.2554 0 0.3973-0.014 0.5109h-4.406zm2.366-0.6954c-0.028-1.5327-0.34-2.5261-1.134-2.5261-0.906 0-1.19 1.334-1.232 2.5261z" clip-path="url(#clipPath377)"/>
  <path d="m117.85 24.992c0-1.7172-0.028-2.9093-0.127-4.2575 0.34 0.0284 0.751 0.071 1.261 0.071 0.708 0 1.501-0.071 2.238-0.071 1.445 0 2.196 0.2271 2.664 0.6244 0.637 0.5393 0.949 1.1638 0.949 2.072 0 2.3559-1.658 3.2925-3.939 3.2925h-0.779c0 1.5327 0.014 3.0654 0.128 4.6123-0.34-0.0284-0.751-0.071-1.261-0.071s-0.921 0.0426-1.261 0.071c0.085-1.3482 0.127-2.5261 0.127-4.2575zm2.947-3.3776c-0.241 0-0.467 0-0.637 0.0142-0.015 1.4475-0.029 2.8809-0.029 4.3143 1.035 0 2.295-0.2697 2.295-2.2565 0-1.5611-0.75-2.072-1.629-2.072z" clip-path="url(#clipPath376)"/>
  <path d="m128.14 25.772 0.029 0.0284c0.538-1.405 1.289-2.0578 2.309-2.0578h0.241c-0.057 0.3122-0.085 0.6244-0.085 1.1069v1.0076l-0.142 0.1278c-0.198-0.1278-0.453-0.2129-0.779-0.2129-0.921 0-1.488 0.7096-1.488 1.5185v0.6102c0 1.2489 0.029 2.3275 0.128 3.406-0.255-0.0283-0.68-0.0709-1.148-0.0709-0.467 0-0.878 0.0426-1.147 0.0709 0.085-1.0785 0.127-2.1713 0.127-3.406v-0.6102c0-1.2489-0.028-2.3274-0.127-3.406 0.354 0.0284 0.708 0.071 1.062 0.071 0.355 0 0.709-0.0426 1.063-0.071l-0.043 1.8733z" clip-path="url(#clipPath375)"/>
  <path d="m131.54 24.779c0.822-0.6954 1.899-1.0785 2.862-1.0785 1.63 0 2.806 0.6954 2.806 2.4977 0 1.3056-0.043 2.3842-0.043 3.4912 0 0.965 0.269 1.0643 0.907 1.0643v0.369c-0.581 0.3122-0.935 0.4116-1.417 0.4116-0.751 0-1.204-0.4258-1.459-1.1212-0.468 0.6387-1.063 1.1212-1.998 1.1212-1.544 0-2.196-1.0218-2.196-2.0152 0-1.3341 0.893-1.9017 2.267-2.2423 1.714-0.4116 1.87-0.5393 1.87-1.0928 0-0.7379-0.552-1.334-1.473-1.334-0.709 0-1.531 0.4116-1.842 0.8515h-0.114l-0.198-0.9225zm3.656 2.5687c-0.879 0.4967-2.026 0.4116-2.026 1.9585 0 0.7521 0.34 1.1637 0.878 1.1637 0.68 0 1.134-0.5251 1.134-1.5185 0-0.8941 0.014-1.2631 0.014-1.6179" clip-path="url(#clipPath374)"/>
  <path d="m143.15 23.97c-0.028 0.1562-0.042 0.2839-0.042 0.4116s0.014 0.2555 0.042 0.3832l-1.346-0.0284c-0.056 0.9225-0.113 2.5971-0.113 3.4202 0 2.1287 0.156 2.4835 0.864 2.4835 0.383 0 0.525-0.0425 0.709-0.1561v0.6245c-0.397 0.2412-1.091 0.3973-1.672 0.3973-1.275 0-1.941-0.8231-1.941-2.3842 0-1.1779 0.113-3.108 0.113-4.3852h-1.077c0.029-0.1135 0.043-0.2413 0.043-0.369 0-0.1419-0.014-0.2554-0.043-0.4115l1.077 0.0425c0-0.6386-0.014-1.1069-0.056-1.8875 0.708-0.298 1.402-0.6102 2.096-0.9508l0.156 0.1135c-0.071 0.6528-0.141 1.7882-0.141 2.7106l1.346-0.0283z" clip-path="url(#clipPath373)"/>
  <path d="m145.55 19.783c0.68 0 1.218 0.5393 1.218 1.2063s-0.538 1.2063-1.218 1.2063-1.204-0.5393-1.204-1.2063 0.538-1.2063 1.204-1.2063zm-1.02 7.5216c0-1.2489-0.028-2.3274-0.128-3.406 0.27 0.0284 0.68 0.071 1.148 0.071s0.893-0.0426 1.148-0.071c-0.085 1.0786-0.128 2.1713-0.128 3.406v0.6102c0 1.2489 0.028 2.3275 0.128 3.406-0.255-0.0283-0.68-0.0709-1.148-0.0709s-0.878 0.0426-1.148 0.0709c0.085-1.0785 0.128-2.1713 0.128-3.406z" clip-path="url(#clipPath372)"/>
  <path d="m155.31 30.214c0 2.0152 0.042 3.5763 0.127 5.1515-0.255-0.0425-0.708-0.0709-1.147-0.0709-0.44 0-0.893 0.0284-1.148 0.0709 0.071-1.5752 0.127-3.1505 0.127-4.9812h-0.028c-0.354 0.6528-1.148 1.1353-2.068 1.1353-1.672 0-2.976-1.6462-2.976-3.8318 0-2.1855 0.865-3.9878 2.947-3.9878 1.205 0 1.842 0.596 2.225 1.4901l0.028-0.0284c0-0.1419-0.071-1.1211-0.128-1.263 0.199 0.0425 0.61 0.0709 1.021 0.0709 0.439 0 0.892-0.0284 1.147-0.0709-0.071 1.7313-0.127 3.3066-0.127 5.3076v0.9935zm-3.514-5.5632c-0.723 0-1.346 0.7238-1.346 2.81 0 2.3558 0.751 3.0086 1.431 3.0086 0.85 0 1.417-0.8231 1.417-2.739 0-2.2139-0.609-3.0796-1.488-3.0796" clip-path="url(#clipPath371)"/>
  <path d="m161.77 30.186h-0.029c-0.566 0.8231-1.346 1.3482-2.309 1.3482-1.53 0-2.394-0.8657-2.394-2.8241 0-1.0502 0.056-1.7882 0.056-2.5829 0-0.6386-0.042-1.4476-0.071-2.2281 0.255 0.0426 0.709 0.071 1.148 0.071s0.893-0.0284 1.148-0.071c-0.142 1.107-0.17 2.5829-0.17 4.4136 0 1.2773 0.467 1.8733 1.261 1.8733 0.921 0 1.331-0.8515 1.331-2.2565v-0.6102c0-1.2489-0.028-2.3416-0.127-3.406 0.255 0.0284 0.68 0.071 1.147 0.071 0.468 0 0.879-0.0426 1.148-0.071-0.085 1.0786-0.127 2.1713-0.127 3.406v0.6102c0 1.2489 0.028 2.3275 0.127 3.406-0.368-0.0283-0.722-0.0709-1.091-0.0709-0.368 0-0.722 0.0426-1.119 0.0709l0.057-1.1495z" clip-path="url(#clipPath370)"/>
  <path d="m167.51 27.617c0 1.6604 0.638 2.9235 2.054 2.9235 0.709 0 1.332-0.2271 1.885-0.6954l0.184 0.1419-0.34 0.8657c-0.51 0.3832-1.176 0.6954-2.324 0.6954-1.997 0-3.726-1.1921-3.726-3.8886 0-2.6964 1.502-3.9452 3.556-3.9452 2.055 0 3.132 1.2772 3.132 3.406 0 0.2554 0 0.3973-0.015 0.5109h-4.406zm2.366-0.6954c-0.028-1.5327-0.34-2.5261-1.133-2.5261-0.907 0-1.19 1.334-1.233 2.5261z" clip-path="url(#clipPath369)"/>
  <path d="m84.767 44.974c0 2.0152 0.0425 3.5763 0.1275 5.3077-0.255-0.0426-0.7084-0.071-1.1476-0.071-0.4108 0-0.8217 0.0284-1.0201 0.071 0.0425-0.142 0.1275-1.1212 0.1275-1.2631l-0.0283-0.0284c-0.3825 0.8941-1.0059 1.4901-2.196 1.4901-2.0686 0-2.9328-1.8165-2.9328-3.9878s1.3034-3.8318 2.9611-3.8318c0.8926 0 1.686 0.4967 2.0402 1.1354h0.0283c0-1.8308-0.0425-3.3919-0.1275-5.1232 0.255 0.0425 0.7084 0.0709 1.1476 0.0709s0.8926-0.0284 1.1476-0.0709c-0.0708 1.7313-0.1275 3.3066-0.1275 5.3077zm-3.4995 4.5555c0.8218 0 1.4452-0.8799 1.4452-3.0938 0-1.9017-0.5668-2.739-1.3602-2.739-0.6375 0-1.3884 0.667-1.3884 3.0087 0 2.0861 0.6233 2.8099 1.3176 2.8099" clip-path="url(#clipPath368)"/>
  <path d="m88.48 46.577c0 1.6604 0.6375 2.9234 2.0544 2.9234 0.7084 0 1.3318-0.227 1.8843-0.6954l0.1842 0.142-0.34 0.8657c-0.5101 0.3831-1.176 0.6954-2.3236 0.6954-1.9977 0-3.7262-1.1922-3.7262-3.8886s1.5018-3.9453 3.5562-3.9453c2.0543 0 3.1311 1.2773 3.1311 3.406 0 0.2555 0 0.3974-0.0141 0.5109h-4.4063zm2.3661-0.6954c-0.0284-1.5327-0.3401-2.5262-1.1335-2.5262-0.9068 0-1.1901 1.3341-1.2326 2.5262z" clip-path="url(#clipPath367)"/>
  <path d="m94.43 48.351c0.2409 0.6387 0.7368 1.2631 1.8136 1.2631 0.7084 0 1.1192-0.4399 1.1192-0.8799 0-1.3908-3.5278-0.9366-3.5278-3.6047 0-1.7314 1.4026-2.4693 2.6777-2.4693 0.8501 0 1.4735 0.2412 2.1678 0.7238-0.1842 0.3973-0.3117 0.9082-0.3684 1.3482h-0.4251c-0.1133-0.4967-0.5525-1.2915-1.5159-1.2915-0.6093 0-1.091 0.3548-1.091 0.8941 0 1.4901 3.6129 0.8515 3.6129 3.5621 0 1.7598-1.4452 2.5971-2.9611 2.5971-0.9068 0-1.686-0.369-2.1111-0.667 0.1275-0.4967 0.1984-0.9792 0.2267-1.476z" clip-path="url(#clipPath366)"/>
  <path d="m111.88 45.158c-0.779-0.0142-1.544-0.0567-2.323-0.0567-0.78 0-1.545 0.0283-2.324 0.0567v0.8799c0 1.7172 0.028 2.8951 0.128 4.2575-0.34-0.0284-0.751-0.071-1.261-0.071s-0.921 0.0426-1.261 0.071c0.099-1.3482 0.127-2.5261 0.127-4.2575v-2.0862c0-1.7172-0.028-2.9093-0.127-4.2575 0.34 0.0284 0.751 0.071 1.261 0.071s0.921-0.0426 1.261-0.071c-0.1 1.334-0.128 2.5261-0.128 4.2291 0.524 0 1.261 0.0284 2.352 0.0284s1.729-0.0142 2.309-0.0284c0-1.703-0.028-2.8809-0.127-4.2291 0.34 0.0284 0.751 0.071 1.261 0.071s0.921-0.0426 1.261-0.071c-0.085 1.3482-0.128 2.5261-0.128 4.2575v2.0862c0 1.7172 0.029 2.8951 0.128 4.2575-0.34-0.0284-0.751-0.071-1.261-0.071s-0.921 0.0426-1.261 0.071c0.099-1.3482 0.127-2.5261 0.127-4.2575v-0.8799z" clip-path="url(#clipPath365)"/>
  <path d="m116.4 43.739c0.821-0.6953 1.898-1.0785 2.862-1.0785 1.629 0 2.805 0.6954 2.805 2.4977 0 1.3057-0.043 2.3842-0.043 3.4912 0 0.965 0.27 1.0643 0.907 1.0643v0.369c-0.581 0.3123-0.935 0.4116-1.417 0.4116-0.751 0-1.204-0.4258-1.459-1.1211-0.468 0.6386-1.063 1.1211-1.998 1.1211-1.544 0-2.196-1.0218-2.196-2.0152 0-1.334 0.893-1.9017 2.267-2.2423 1.714-0.4116 1.87-0.5393 1.87-1.0928 0-0.7379-0.552-1.334-1.473-1.334-0.709 0-1.53 0.4116-1.842 0.8515h-0.113l-0.199-0.9225zm3.655 2.5687c-0.878 0.4968-2.026 0.4116-2.026 1.9585 0 0.7522 0.34 1.1637 0.878 1.1637 0.68 0 1.134-0.5251 1.134-1.5185 0-0.8941 0.014-1.2631 0.014-1.6178" clip-path="url(#clipPath364)"/>
  <path d="m128.74 49.146h-0.028c-0.567 0.8231-1.346 1.3482-2.309 1.3482-1.531 0-2.395-0.8657-2.395-2.8241 0-1.0502 0.057-1.7882 0.057-2.5829 0-0.6386-0.043-1.4476-0.071-2.2281 0.255 0.0426 0.708 0.0709 1.148 0.0709 0.439 0 0.892-0.0283 1.147-0.0709-0.141 1.1069-0.17 2.5829-0.17 4.4136 0 1.2773 0.468 1.8733 1.261 1.8733 0.921 0 1.332-0.8515 1.332-2.2565v-0.6102c0-1.2489-0.028-2.3416-0.127-3.406 0.255 0.0284 0.68 0.0709 1.147 0.0709 0.468 0 0.879-0.0425 1.148-0.0709-0.085 1.0785-0.128 2.1713-0.128 3.406v0.6102c0 1.2489 0.029 2.3275 0.128 3.406-0.369-0.0284-0.723-0.0709-1.091-0.0709-0.369 0-0.723 0.0425-1.119 0.0709l0.056-1.1495z" clip-path="url(#clipPath363)"/>
  <path d="m136.55 42.93c-0.029 0.1561-0.043 0.2839-0.043 0.4116s0.014 0.2554 0.043 0.3832l-1.346-0.0284c-0.057 0.9224-0.113 2.5971-0.113 3.4202 0 2.1287 0.155 2.4835 0.864 2.4835 0.382 0 0.524-0.0426 0.708-0.1561v0.6244c-0.397 0.2413-1.091 0.3974-1.672 0.3974-1.275 0-1.941-0.8231-1.941-2.3842 0-1.1779 0.114-3.108 0.114-4.3852h-1.077c0.028-0.1136 0.042-0.2413 0.042-0.369 0-0.1419-0.014-0.2555-0.042-0.4116l1.077 0.0426c0-0.6386-0.015-1.1069-0.057-1.8875 0.708-0.298 1.403-0.6102 2.097-0.9508l0.156 0.1135c-0.071 0.6528-0.142 1.7882-0.142 2.7106l1.346-0.0284z" clip-path="url(#clipPath362)"/>
  <path d="m139.58 46.577c0 1.6604 0.638 2.9234 2.055 2.9234 0.708 0 1.331-0.227 1.884-0.6954l0.184 0.142-0.34 0.8657c-0.51 0.3831-1.176 0.6954-2.323 0.6954-1.998 0-3.727-1.1922-3.727-3.8886s1.502-3.9453 3.557-3.9453c2.054 0 3.131 1.2773 3.131 3.406 0 0.2555 0 0.3974-0.014 0.5109h-4.407zm2.366-0.6954c-0.028-1.5327-0.34-2.5262-1.133-2.5262-0.907 0-1.19 1.3341-1.233 2.5262z" clip-path="url(#clipPath361)"/>
  <path d="m145.54 48.351c0.241 0.6387 0.737 1.2631 1.814 1.2631 0.708 0 1.119-0.4399 1.119-0.8799 0-1.3908-3.528-0.9366-3.528-3.6047 0-1.7314 1.403-2.4693 2.678-2.4693 0.85 0 1.473 0.2412 2.167 0.7238-0.184 0.3973-0.311 0.9082-0.368 1.3482h-0.425c-0.113-0.4967-0.553-1.2915-1.516-1.2915-0.609 0-1.091 0.3548-1.091 0.8941 0 1.4901 3.613 0.8515 3.613 3.5621 0 1.7598-1.445 2.5971-2.961 2.5971-0.907 0-1.686-0.369-2.111-0.667 0.127-0.4967 0.198-0.9792 0.226-1.476z" clip-path="url(#clipPath360)"/>
  <path d="m155.93 43.952c0-1.7172-0.028-2.9093-0.127-4.2575 0.906 0.0141 1.827 0.0709 2.734 0.0709 1.502 0 2.791-0.0284 3.202-0.0709-0.028 0.1844-0.057 0.3689-0.057 0.6386 0 0.3264 0.029 0.4683 0.057 0.6954-1.162-0.071-3.004-0.1845-3.471-0.1845-0.071 1.1211-0.071 2.2281-0.071 3.3492 1.332-0.0284 2.309-0.0567 3.485-0.1277-0.056 0.3548-0.07 0.4967-0.07 0.6954 0 0.1703 0.028 0.3122 0.07 0.6244-1.161-0.0851-2.309-0.1419-3.485-0.1419 0 0.6386-0.014 1.3056-0.014 1.9585 0 0.6528 0.014 1.3056 0.042 1.9158 1.148 0 2.324-0.0567 3.514-0.1986-0.028 0.2128-0.057 0.3689-0.057 0.6953 0 0.3265 0.029 0.4826 0.057 0.6529-0.552 0-1.275-0.071-2.678-0.071-2.493 0-2.918 0.0426-3.244 0.071 0.099-1.3482 0.127-2.5262 0.127-4.2575v-2.0862zm1.743-4.8678c2.295-2.7816 2.451-2.8809 2.918-2.8809 0.496 0 0.723 0.3548 0.723 0.6954 0 0.4116-0.142 0.596-2.791 2.1997h-0.85z" clip-path="url(#clipPath359)"/>
  <path d="m167.21 42.93c-0.028 0.1561-0.043 0.2839-0.043 0.4116s0.015 0.2554 0.043 0.3832l-1.346-0.0284c-0.057 0.9224-0.113 2.5971-0.113 3.4202 0 2.1287 0.156 2.4835 0.864 2.4835 0.382 0 0.524-0.0426 0.708-0.1561v0.6244c-0.396 0.2413-1.091 0.3974-1.672 0.3974-1.275 0-1.941-0.8231-1.941-2.3842 0-1.1779 0.114-3.108 0.114-4.3852h-1.077c0.028-0.1136 0.043-0.2413 0.043-0.369 0-0.1419-0.015-0.2555-0.043-0.4116l1.077 0.0426c0-0.6386-0.014-1.1069-0.057-1.8875 0.709-0.298 1.417-0.6102 2.097-0.9508l0.156 0.1135c-0.071 0.6528-0.142 1.7882-0.142 2.7106l1.346-0.0284z" clip-path="url(#clipPath358)"/>
  <path d="m173.03 49.146h-0.028c-0.567 0.8231-1.346 1.3482-2.309 1.3482-1.53 0-2.395-0.8657-2.395-2.8241 0-1.0502 0.057-1.7882 0.057-2.5829 0-0.6386-0.043-1.4476-0.071-2.2281 0.255 0.0426 0.709 0.0709 1.148 0.0709s0.892-0.0283 1.147-0.0709c-0.141 1.1069-0.17 2.5829-0.17 4.4136 0 1.2773 0.468 1.8733 1.261 1.8733 0.921 0 1.332-0.8515 1.332-2.2565v-0.6102c0-1.2489-0.028-2.3416-0.127-3.406 0.255 0.0284 0.68 0.0709 1.147 0.0709 0.468 0 0.879-0.0425 1.148-0.0709-0.085 1.0785-0.128 2.1713-0.128 3.406v0.6102c0 1.2489 0.029 2.3275 0.128 3.406-0.369-0.0284-0.723-0.0709-1.091-0.0709-0.369 0-0.723 0.0425-1.119 0.0709l0.056-1.1495z" clip-path="url(#clipPath357)"/>
  <path d="m183.59 44.974c0 2.0152 0.043 3.5763 0.128 5.3077-0.255-0.0426-0.708-0.071-1.148-0.071-0.411 0-0.821 0.0284-1.02 0.071 0.043-0.142 0.128-1.1212 0.128-1.2631l-0.029-0.0284c-0.382 0.8941-1.006 1.4901-2.196 1.4901-2.068 0-2.932-1.8165-2.932-3.9878s1.303-3.8318 2.961-3.8318c0.892 0 1.686 0.4967 2.04 1.1354h0.028c0-1.8308-0.042-3.3919-0.127-5.1232 0.255 0.0425 0.708 0.0709 1.147 0.0709 0.44 0 0.893-0.0284 1.148-0.0709-0.071 1.7313-0.128 3.3066-0.128 5.3077zm-3.499 4.5555c0.822 0 1.445-0.8799 1.445-3.0938 0-1.9017-0.567-2.739-1.36-2.739-0.638 0-1.389 0.667-1.389 3.0087 0 2.0861 0.624 2.8099 1.318 2.8099" clip-path="url(#clipPath356)"/>
  <path d="m187.29 46.577c0 1.6604 0.638 2.9234 2.055 2.9234 0.708 0 1.332-0.227 1.884-0.6954l0.184 0.142-0.34 0.8657c-0.51 0.3831-1.176 0.6954-2.323 0.6954-1.998 0-3.727-1.1922-3.727-3.8886s1.502-3.9453 3.557-3.9453c2.054 0 3.131 1.2773 3.131 3.406 0 0.2555 0 0.3974-0.014 0.5109h-4.407zm2.366-0.6954c-0.028-1.5327-0.34-2.5262-1.133-2.5262-0.907 0-1.19 1.3341-1.233 2.5262z" clip-path="url(#clipPath355)"/>
  <path d="m193.24 48.351c0.241 0.6387 0.737 1.2631 1.814 1.2631 0.708 0 1.119-0.4399 1.119-0.8799 0-1.3908-3.528-0.9366-3.528-3.6047 0-1.7314 1.403-2.4693 2.678-2.4693 0.85 0 1.473 0.2412 2.168 0.7238-0.185 0.3973-0.312 0.9082-0.369 1.3482h-0.425c-0.113-0.4967-0.552-1.2915-1.516-1.2915-0.609 0-1.091 0.3548-1.091 0.8941 0 1.4901 3.613 0.8515 3.613 3.5621 0 1.7598-1.445 2.5971-2.961 2.5971-0.907 0-1.686-0.369-2.111-0.667 0.127-0.4967 0.198-0.9792 0.227-1.476z" clip-path="url(#clipPath354)"/>
 </g>
 <g clip-path="url(#clipPath353)" opacity=".75">
  <mask id="mask0_2198_12356" x="26" y="0" width="15" height="15" maskUnits="userSpaceOnUse">
   <path d="m40.861 0.38318h-14.551v14.575h14.551z" fill="#fff"/>
  </mask>
  <g mask="url(#mask0_2198_12356)">
   <mask id="mask1_2198_12356" x="26" y="0" width="15" height="15" maskUnits="userSpaceOnUse">
    <path d="m40.861 0.38318h-14.551v14.575h14.551z" fill="#fff"/>
   </mask>
   <g mask="url(#mask1_2198_12356)">
    <path d="m33.574 0.75922-6.8927 6.9041 6.8927 6.9041 6.8926-6.9041z" fill="#010000"/>
    <path d="m33.574 0.75922-6.8927 6.9041 6.8927 6.9041 6.8926-6.9041z" stroke="#010000" stroke-width=".39"/>
   </g>
  </g>
 </g>
 <path d="m33.209 0.39033-6.8926 6.9041 6.8926 6.9041 6.8926-6.9041z" clip-path="url(#clipPath352)" fill="#c3162d"/>
 <path d="m33.209 0.39033-6.8926 6.9041 6.8926 6.9041 6.8926-6.9041z" clip-path="url(#clipPath351)" stroke="#fff" stroke-width=".39"/>
 <g clip-path="url(#clipPath350)" opacity=".75">
  <mask id="mask2_2198_12356" x="34" y="8" width="18" height="18" maskUnits="userSpaceOnUse">
   <path d="m51.487 8.4582h-17.129v17.158h17.129z" fill="#fff"/>
  </mask>
  <g mask="url(#mask2_2198_12356)">
   <mask id="mask3_2198_12356" x="34" y="8" width="18" height="18" maskUnits="userSpaceOnUse">
    <path d="m51.487 8.4441h-17.129v17.158h17.129z" fill="#fff"/>
   </mask>
   <g mask="url(#mask3_2198_12356)">
    <path d="m42.929 8.9016-8.1148 8.1284 8.1148 8.1284 8.1149-8.1284z" fill="#010000"/>
    <path d="m42.929 8.9016-8.1148 8.1284 8.1148 8.1284 8.1149-8.1284z" stroke="#010000" stroke-width=".45"/>
   </g>
  </g>
 </g>
 <path d="m42.482 8.4717-8.1148 8.1284 8.1148 8.1284 8.1149-8.1284z" clip-path="url(#clipPath349)" fill="#c3162d"/>
 <path d="m42.482 8.4717-8.1148 8.1284 8.1148 8.1284 8.1149-8.1284z" clip-path="url(#clipPath348)" stroke="#fff" stroke-width=".45"/>
 <g clip-path="url(#clipPath347)" opacity=".75">
  <mask id="mask4_2198_12356" x="45" y="18" width="15" height="14" maskUnits="userSpaceOnUse">
   <path d="m59.052 18.023h-13.46v13.482h13.46z" fill="#fff"/>
  </mask>
  <g mask="url(#mask4_2198_12356)">
   <mask id="mask5_2198_12356" x="45" y="18" width="15" height="14" maskUnits="userSpaceOnUse">
    <path d="m59.052 18.023h-13.46v13.482h13.46z" fill="#fff"/>
   </mask>
   <g mask="url(#mask5_2198_12356)">
    <path d="m52.325 18.39-6.3717 6.3823 6.3717 6.3822 6.3717-6.3822z" fill="#010000"/>
    <path d="m52.325 18.39-6.3717 6.3823 6.3717 6.3822 6.3717-6.3822z" stroke="#010000" stroke-width=".36"/>
   </g>
  </g>
 </g>
 <path d="m51.977 18.025-6.3716 6.3823 6.3716 6.3823 6.3717-6.3823z" clip-path="url(#clipPath346)" fill="#c3162d"/>
 <path d="m51.977 18.025-6.3716 6.3823 6.3716 6.3823 6.3717-6.3823z" clip-path="url(#clipPath345)" stroke="#fff" stroke-width=".36"/>
 <g clip-path="url(#clipPath344)" opacity=".75">
  <mask id="mask6_2198_12356" x="50" y="26" width="19" height="19" maskUnits="userSpaceOnUse">
   <path d="m68.347 26.624h-18.277v18.307h18.277z" fill="#fff"/>
  </mask>
  <g mask="url(#mask6_2198_12356)">
   <mask id="mask7_2198_12356" x="50" y="26" width="19" height="19" maskUnits="userSpaceOnUse">
    <path d="m68.347 26.624h-18.277v18.307h18.277z" fill="#fff"/>
   </mask>
   <g mask="url(#mask7_2198_12356)">
    <path d="m59.224 27.116-8.6558 8.6703 8.6558 8.6703 8.6558-8.6703z" fill="#010000"/>
    <path d="m59.224 27.116-8.6558 8.6703 8.6558 8.6703 8.6558-8.6703z" stroke="#010000" stroke-width=".48"/>
   </g>
  </g>
 </g>
 <path d="m58.74 26.647-8.6558 8.6702 8.6558 8.6703 8.6559-8.6703z" clip-path="url(#clipPath343)" fill="#c3162d"/>
 <path d="m58.74 26.647-8.6558 8.6702 8.6558 8.6703 8.6559-8.6703z" clip-path="url(#clipPath342)" stroke="#fff" stroke-width=".48"/>
 <g clip-path="url(#clipPath341)" opacity=".75">
  <mask id="mask8_2198_12356" x="18" y="10" width="15" height="15" maskUnits="userSpaceOnUse">
   <path d="m32.629 10.289h-14.551v14.575h14.551z" fill="#fff"/>
  </mask>
  <g mask="url(#mask8_2198_12356)">
   <mask id="mask9_2198_12356" x="18" y="10" width="15" height="15" maskUnits="userSpaceOnUse">
    <path d="m32.629 10.289h-14.551v14.575h14.551z" fill="#fff"/>
   </mask>
   <g mask="url(#mask9_2198_12356)">
    <path d="m25.358 10.671-6.8927 6.9041 6.8927 6.9041 6.8926-6.9041z" fill="#010000"/>
    <path d="m25.358 10.671-6.8927 6.9041 6.8927 6.9041 6.8926-6.9041z" stroke="#010000" stroke-width=".39"/>
   </g>
  </g>
 </g>
 <path d="m24.973 10.302-6.8926 6.9041 6.8926 6.9041 6.8926-6.9041z" clip-path="url(#clipPath340)" fill="#c3162d"/>
 <path d="m24.973 10.302-6.8926 6.9041 6.8926 6.9041 6.8926-6.9041z" clip-path="url(#clipPath339)" stroke="#fff" stroke-width=".39"/>
 <g clip-path="url(#clipPath338)" opacity=".75">
  <mask id="mask10_2198_12356" x="26" y="18" width="15" height="16" maskUnits="userSpaceOnUse">
   <path d="m40.592 18.889h-14.551v14.575h14.551z" fill="#fff"/>
  </mask>
  <g mask="url(#mask10_2198_12356)">
   <mask id="mask11_2198_12356" x="26" y="18" width="15" height="16" maskUnits="userSpaceOnUse">
    <path d="m40.592 18.889h-14.551v14.575h14.551z" fill="#fff"/>
   </mask>
   <g mask="url(#mask11_2198_12356)">
    <path d="m33.324 19.262-6.8927 6.9041 6.8927 6.9041 6.8926-6.9041z" fill="#010000"/>
    <path d="m33.324 19.262-6.8927 6.9041 6.8927 6.9041 6.8926-6.9041z" stroke="#010000" stroke-width=".39"/>
   </g>
  </g>
 </g>
 <path d="m32.947 18.903-6.8926 6.9041 6.8926 6.9041 6.8926-6.9041z" clip-path="url(#clipPath337)" fill="#c3162d"/>
 <path d="m32.947 18.903-6.8926 6.9041 6.8926 6.9041 6.8926-6.9041z" clip-path="url(#clipPath336)" stroke="#fff" stroke-width=".39"/>
 <g clip-path="url(#clipPath335)" opacity=".75">
  <mask id="mask12_2198_12356" x="35" y="27" width="17" height="16" maskUnits="userSpaceOnUse">
   <path d="m51.728 27.489h-16.265v15.185h16.265z" fill="#fff"/>
  </mask>
  <g mask="url(#mask12_2198_12356)">
   <mask id="mask13_2198_12356" x="35" y="27" width="17" height="16" maskUnits="userSpaceOnUse">
    <path d="m51.728 27.489h-16.265v15.185h16.265z" fill="#fff"/>
   </mask>
   <g mask="url(#mask13_2198_12356)">
    <path d="m42.745 27.858-6.8857 6.9113 8.5858 7.5216 6.8857-6.8971z" fill="#010000"/>
    <path d="m42.745 27.858-6.8857 6.9113 8.5858 7.5216 6.8857-6.8971z" stroke="#010000" stroke-width=".39"/>
   </g>
  </g>
 </g>
 <path d="m42.376 27.489-6.8998 6.8971 8.5858 7.5358 6.8857-6.8972z" clip-path="url(#clipPath334)" fill="#c3162d"/>
 <path d="m42.376 27.489-6.8998 6.8971 8.5858 7.5358 6.8857-6.8972z" clip-path="url(#clipPath333)" stroke="#fff" stroke-width=".39"/>
 <g clip-path="url(#clipPath332)" opacity=".75">
  <mask id="mask14_2198_12356" x="48" y="41" width="10" height="10" maskUnits="userSpaceOnUse">
   <path d="m57.989 41.028h-9.436v9.4517h9.436z" fill="#fff"/>
  </mask>
  <g mask="url(#mask14_2198_12356)">
   <mask id="mask15_2198_12356" x="48" y="41" width="11" height="10" maskUnits="userSpaceOnUse">
    <path d="m58.003 41.028h-9.4501v9.4517h9.4501z" fill="#fff"/>
   </mask>
   <g mask="url(#mask15_2198_12356)">
    <path d="m53.277 41.278-4.4682 4.4756 4.4682 4.4756 4.4682-4.4756z" fill="#010000"/>
    <path d="m53.277 41.278-4.4682 4.4756 4.4682 4.4756 4.4682-4.4756z" stroke="#010000" stroke-width=".25"/>
   </g>
  </g>
 </g>
 <path d="m53.027 41.027-4.4682 4.4757 4.4682 4.4756 4.4682-4.4756z" clip-path="url(#clipPath331)" fill="#c3162d"/>
 <path d="m53.027 41.027-4.4682 4.4757 4.4682 4.4756 4.4682-4.4756z" clip-path="url(#clipPath330)" stroke="#fff" stroke-width=".25"/>
 <g clip-path="url(#clipPath329)" opacity=".75">
  <mask id="mask16_2198_12356" x="11" y="18" width="11" height="11" maskUnits="userSpaceOnUse">
   <path d="m21.365 18.747h-9.9176v9.9342h9.9176z" fill="#fff"/>
  </mask>
  <g mask="url(#mask16_2198_12356)">
   <mask id="mask17_2198_12356" x="11" y="18" width="11" height="11" maskUnits="userSpaceOnUse">
    <path d="m21.365 18.747h-9.9176v9.9342h9.9176z" fill="#fff"/>
   </mask>
   <g mask="url(#mask17_2198_12356)">
    <path d="m16.421 19.004-4.6986 4.7064 4.6986 4.7064 4.6986-4.7064z" fill="#010000"/>
    <path d="m16.421 19.004-4.6986 4.7064 4.6986 4.7064 4.6986-4.7064z" stroke="#010000" stroke-width=".26"/>
   </g>
  </g>
 </g>
 <path d="m16.14 18.749-4.6986 4.7064 4.6986 4.7065 4.6986-4.7065z" clip-path="url(#clipPath328)" fill="#c3162d"/>
 <path d="m16.14 18.749-4.6986 4.7064 4.6986 4.7065 4.6986-4.7065z" clip-path="url(#clipPath327)" stroke="#fff" stroke-width=".26"/>
 <g clip-path="url(#clipPath326)" opacity=".75">
  <mask id="mask18_2198_12356" x="18" y="27" width="15" height="15" maskUnits="userSpaceOnUse">
   <path d="m32.742 27.333h-14.551v14.575h14.551z" fill="#fff"/>
  </mask>
  <g mask="url(#mask18_2198_12356)">
   <mask id="mask19_2198_12356" x="18" y="27" width="15" height="15" maskUnits="userSpaceOnUse">
    <path d="m32.742 27.333h-14.551v14.575h14.551z" fill="#fff"/>
   </mask>
   <g mask="url(#mask19_2198_12356)">
    <path d="m25.471 27.723-6.8926 6.9041 6.8926 6.9041 6.8927-6.9041z" fill="#010000"/>
    <path d="m25.471 27.723-6.8926 6.9041 6.8926 6.9041 6.8927-6.9041z" stroke="#010000" stroke-width=".39"/>
   </g>
  </g>
 </g>
 <path d="m25.084 27.34-6.8926 6.9041 6.8926 6.9041 6.8926-6.9041z" clip-path="url(#clipPath325)" fill="#c3162d"/>
 <path d="m25.084 27.34-6.8926 6.9041 6.8926 6.9041 6.8926-6.9041z" clip-path="url(#clipPath324)" stroke="#fff" stroke-width=".39"/>
 <g clip-path="url(#clipPath323)" opacity=".75">
  <mask id="mask20_2198_12356" x="27" y="36" width="15" height="15" maskUnits="userSpaceOnUse">
   <path d="m41.682 36.416h-14.551v14.575h14.551z" fill="#fff"/>
  </mask>
  <g mask="url(#mask20_2198_12356)">
   <mask id="mask21_2198_12356" x="27" y="36" width="15" height="15" maskUnits="userSpaceOnUse">
    <path d="m41.682 36.416h-14.551v14.575h14.551z" fill="#fff"/>
   </mask>
   <g mask="url(#mask21_2198_12356)">
    <path d="m34.42 36.797-6.8927 6.9041 6.8927 6.9041 6.8926-6.9041z" fill="#010000"/>
    <path d="m34.42 36.797-6.8927 6.9041 6.8927 6.9041 6.8926-6.9041z" stroke="#010000" stroke-width=".39"/>
   </g>
  </g>
 </g>
 <path d="m34.035 36.414-6.8926 6.9041 6.8926 6.9041 6.8926-6.9041z" clip-path="url(#clipPath322)" fill="#c3162d"/>
 <path d="m34.035 36.414-6.8926 6.9041 6.8926 6.9041 6.8926-6.9041z" clip-path="url(#clipPath321)" stroke="#fff" stroke-width=".39"/>
 <g clip-path="url(#clipPath320)" opacity=".75">
  <mask id="mask22_2198_12356" x="34" y="42" width="19" height="18" maskUnits="userSpaceOnUse">
   <path d="m52.052 42.206h-17.498v17.527h17.498z" fill="#fff"/>
  </mask>
  <g mask="url(#mask22_2198_12356)">
   <mask id="mask23_2198_12356" x="34" y="42" width="19" height="18" maskUnits="userSpaceOnUse">
    <path d="m52.052 42.206h-17.498v17.527h17.498z" fill="#fff"/>
   </mask>
   <g mask="url(#mask23_2198_12356)">
    <path d="m43.309 42.682-8.2852 8.2989 8.2852 8.299 8.2852-8.299z" fill="#010000"/>
    <path d="m43.309 42.682-8.2852 8.2989 8.2852 8.299 8.2852-8.299z" stroke="#010000" stroke-width=".46"/>
   </g>
  </g>
 </g>
 <path d="m42.852 42.228-8.2852 8.2989 8.2852 8.299 8.2851-8.299z" clip-path="url(#clipPath319)" fill="#c3162d"/>
 <path d="m42.852 42.228-8.2852 8.2989 8.2852 8.299 8.2851-8.299z" clip-path="url(#clipPath318)" stroke="#fff" stroke-width=".46"/>
 <g clip-path="url(#clipPath317)" opacity=".75">
  <mask id="mask24_2198_12356" x="0" y="24" width="20" height="20" maskUnits="userSpaceOnUse">
   <path d="m19.962 24.381h-19.453v19.485h19.453z" fill="#fff"/>
  </mask>
  <g mask="url(#mask24_2198_12356)">
   <mask id="mask25_2198_12356" x="0" y="24" width="20" height="20" maskUnits="userSpaceOnUse">
    <path d="m19.962 24.381h-19.453v19.485h19.453z" fill="#fff"/>
   </mask>
   <g mask="url(#mask25_2198_12356)">
    <path d="m10.24 24.89-9.2169 9.2322 9.2169 9.2323 9.2169-9.2323z" fill="#010000"/>
    <path d="m10.24 24.89-9.2169 9.2322 9.2169 9.2323 9.2169-9.2323z" stroke="#010000" stroke-width=".52"/>
   </g>
  </g>
 </g>
 <path d="m9.7325 24.393-9.2169 9.2322 9.2169 9.2323 9.2169-9.2323z" clip-path="url(#clipPath316)" fill="#c3162d"/>
 <path d="m9.7325 24.393-9.2169 9.2322 9.2169 9.2323 9.2169-9.2323z" clip-path="url(#clipPath315)" stroke="#fff" stroke-width=".52"/>
 <g clip-path="url(#clipPath314)" opacity=".75">
  <mask id="mask26_2198_12356" x="10" y="38" width="15" height="15" maskUnits="userSpaceOnUse">
   <path d="m24.495 38.715h-13.644v13.667h13.644z" fill="#fff"/>
  </mask>
  <g mask="url(#mask26_2198_12356)">
   <mask id="mask27_2198_12356" x="10" y="38" width="15" height="15" maskUnits="userSpaceOnUse">
    <path d="m24.495 38.715h-13.644v13.667h13.644z" fill="#fff"/>
   </mask>
   <g mask="url(#mask27_2198_12356)">
    <path d="m17.675 39.074-6.4618 6.4726 6.4618 6.4726 6.4618-6.4726z" fill="#010000"/>
    <path d="m17.675 39.074-6.4618 6.4726 6.4618 6.4726 6.4618-6.4726z" stroke="#010000" stroke-width=".36"/>
   </g>
  </g>
 </g>
 <path d="m17.331 38.719-6.4619 6.4726 6.4619 6.4726 6.4618-6.4726z" clip-path="url(#clipPath313)" fill="#c3162d"/>
 <path d="m17.331 38.719-6.4619 6.4726 6.4619 6.4726 6.4618-6.4726z" clip-path="url(#clipPath312)" stroke="#fff" stroke-width=".36"/>
 <g clip-path="url(#clipPath311)" opacity=".75">
  <mask id="mask28_2198_12356" x="18" y="47" width="14" height="14" maskUnits="userSpaceOnUse">
   <path d="m31.608 47.344h-12.964v12.985h12.964z" fill="#fff"/>
  </mask>
  <g mask="url(#mask28_2198_12356)">
   <mask id="mask29_2198_12356" x="18" y="47" width="14" height="14" maskUnits="userSpaceOnUse">
    <path d="m31.608 47.344h-12.964v12.985h12.964z" fill="#fff"/>
   </mask>
   <g mask="url(#mask29_2198_12356)">
    <path d="m25.138 47.677-6.1402 6.1525 6.1424 6.1504 6.1401-6.1525z" fill="#010000"/>
    <path d="m25.138 47.677-6.1402 6.1525 6.1424 6.1504 6.1401-6.1525z" stroke="#010000" stroke-width=".34"/>
   </g>
  </g>
 </g>
 <path d="m24.8 47.337-6.1401 6.1525 6.1423 6.1504 6.1401-6.1525z" clip-path="url(#clipPath310)" fill="#c3162d"/>
 <path d="m24.8 47.337-6.1401 6.1525 6.1423 6.1504 6.1401-6.1525z" clip-path="url(#clipPath309)" stroke="#fff" stroke-width=".34"/>
 <g clip-path="url(#clipPath308)" opacity=".75">
  <mask id="mask30_2198_12356" x="26" y="54" width="16" height="15" maskUnits="userSpaceOnUse">
   <path d="m41.271 54.425h-14.551v14.575h14.551z" fill="#fff"/>
  </mask>
  <g mask="url(#mask30_2198_12356)">
   <mask id="mask31_2198_12356" x="26" y="54" width="16" height="15" maskUnits="userSpaceOnUse">
    <path d="m41.271 54.425h-14.551v14.575h14.551z" fill="#fff"/>
   </mask>
   <g mask="url(#mask31_2198_12356)">
    <path d="m34.006 54.818-6.8926 6.9041 6.8926 6.9041 6.8926-6.9041z" fill="#010000"/>
    <path d="m34.006 54.818-6.8926 6.9041 6.8926 6.9041 6.8926-6.9041z" stroke="#010000" stroke-width=".39"/>
   </g>
  </g>
 </g>
 <path d="m33.621 54.434-6.8926 6.9041 6.8926 6.9041 6.8926-6.9041z" clip-path="url(#clipPath307)" fill="#c3162d"/>
 <path d="m33.621 54.434-6.8926 6.9041 6.8926 6.9041 6.8926-6.9041z" clip-path="url(#clipPath306)" stroke="#fff" stroke-width=".39"/>
 <g clip-path="url(#clipPath305)" opacity=".75">
  <mask id="mask32_2198_12356" x="24" y="8" width="21" height="20" maskUnits="userSpaceOnUse">
   <path d="m44.261 8.2595h-19.325v19.357h19.325z" fill="#fff"/>
  </mask>
  <g mask="url(#mask32_2198_12356)">
   <mask id="mask33_2198_12356" x="24" y="8" width="21" height="20" maskUnits="userSpaceOnUse">
    <path d="m44.261 8.2595h-19.325v19.357h19.325z" fill="#fff"/>
   </mask>
   <g mask="url(#mask33_2198_12356)">
    <path d="m34.582 8.7766-9.1468 9.162 9.1468 9.162 9.1467-9.162z" fill="#010000"/>
    <path d="m34.582 8.7766-9.1468 9.162 9.1468 9.162 9.1467-9.162z" stroke="#010000" stroke-width=".51"/>
   </g>
  </g>
 </g>
 <path d="m34.092 8.2659-9.1468 9.162 9.1468 9.1619 9.1467-9.1619z" clip-path="url(#clipPath304)" fill="#c3162d"/>
 <path d="m34.092 8.2659-9.1468 9.162 9.1468 9.1619 9.1467-9.1619z" clip-path="url(#clipPath303)" stroke="#fff" stroke-width=".51"/>
 <g clip-path="url(#clipPath302)" opacity=".75">
  <mask id="mask34_2198_12356" x="18" y="21" width="13" height="12" maskUnits="userSpaceOnUse">
   <path d="m30.22 21.018h-11.589v11.609h11.589z" fill="#fff"/>
  </mask>
  <g mask="url(#mask34_2198_12356)">
   <mask id="mask35_2198_12356" x="18" y="21" width="13" height="12" maskUnits="userSpaceOnUse">
    <path d="m30.22 21.004h-11.589v11.609h11.589z" fill="#fff"/>
   </mask>
   <g mask="url(#mask35_2198_12356)">
    <path d="m24.432 21.322-5.489 5.5002 5.491 5.4982 5.4891-5.5001z" fill="#010000"/>
    <path d="m24.432 21.322-5.489 5.5002 5.491 5.4982 5.4891-5.5001z" stroke="#010000" stroke-width=".31"/>
   </g>
  </g>
 </g>
 <path d="m24.114 21.014-5.4891 5.5002 5.491 5.4982 5.4891-5.5001z" clip-path="url(#clipPath301)" fill="#c3162d"/>
 <path d="m24.114 21.014-5.4891 5.5002 5.491 5.4982 5.4891-5.5001z" clip-path="url(#clipPath300)" stroke="#fff" stroke-width=".31"/>
 <g clip-path="url(#clipPath299)" opacity=".75">
  <mask id="mask36_2198_12356" x="9" y="27" width="15" height="16" maskUnits="userSpaceOnUse">
   <path d="m23.787 27.475h-14.551v14.575h14.551z" fill="#fff"/>
  </mask>
  <g mask="url(#mask36_2198_12356)">
   <mask id="mask37_2198_12356" x="9" y="27" width="15" height="16" maskUnits="userSpaceOnUse">
    <path d="m23.787 27.475h-14.551v14.575h14.551z" fill="#fff"/>
   </mask>
   <g mask="url(#mask37_2198_12356)">
    <path d="m16.508 27.86-6.8927 6.9041 6.8927 6.9041 6.8926-6.9041z" fill="#010000"/>
    <path d="m16.508 27.86-6.8927 6.9041 6.8927 6.9041 6.8926-6.9041z" stroke="#010000" stroke-width=".39"/>
   </g>
  </g>
 </g>
 <path d="m16.133 27.481-6.8927 6.9041 6.8927 6.9041 6.8926-6.9041z" clip-path="url(#clipPath298)" fill="#c3162d"/>
 <path d="m16.133 27.481-6.8927 6.9041 6.8927 6.9041 6.8926-6.9041z" clip-path="url(#clipPath297)" stroke="#fff" stroke-width=".39"/>
 <g clip-path="url(#clipPath296)" opacity=".75">
  <mask id="mask38_2198_12356" x="26" y="28" width="15" height="15" maskUnits="userSpaceOnUse">
   <path d="m40.818 28.412h-14.551v14.575h14.551z" fill="#fff"/>
  </mask>
  <g mask="url(#mask38_2198_12356)">
   <mask id="mask39_2198_12356" x="26" y="28" width="15" height="15" maskUnits="userSpaceOnUse">
    <path d="m40.818 28.412h-14.551v14.575h14.551z" fill="#fff"/>
   </mask>
   <g mask="url(#mask39_2198_12356)">
    <path d="m33.547 28.787-6.8926 6.9041 6.8926 6.9041 6.8926-6.9041z" fill="#010000"/>
    <path d="m33.547 28.787-6.8926 6.9041 6.8926 6.9041 6.8926-6.9041z" stroke="#010000" stroke-width=".39"/>
   </g>
  </g>
 </g>
 <path d="m33.172 28.414-6.8926 6.9041 6.8926 6.9041 6.8926-6.9041z" clip-path="url(#clipPath295)" fill="#c3162d"/>
 <path d="m33.172 28.414-6.8926 6.9041 6.8926 6.9041 6.8926-6.9041z" clip-path="url(#clipPath294)" stroke="#fff" stroke-width=".39"/>
 <g clip-path="url(#clipPath293)" opacity=".75">
  <mask id="mask40_2198_12356" x="15" y="37" width="19" height="19" maskUnits="userSpaceOnUse">
   <path d="m33.72 37.225h-17.767v17.796h17.767z" fill="#fff"/>
  </mask>
  <g mask="url(#mask40_2198_12356)">
   <mask id="mask41_2198_12356" x="15" y="37" width="19" height="19" maskUnits="userSpaceOnUse">
    <path d="m33.72 37.225h-17.767v17.796h17.767z" fill="#fff"/>
   </mask>
   <g mask="url(#mask41_2198_12356)">
    <path d="m24.831 37.701-8.4154 8.4294 8.4154 8.4295 8.4154-8.4295z" fill="#010000"/>
    <path d="m24.831 37.701-8.4154 8.4294 8.4154 8.4295 8.4154-8.4295z" stroke="#010000" stroke-width=".47"/>
   </g>
  </g>
 </g>
 <path d="m24.368 37.233-8.4154 8.4295 8.4154 8.4294 8.4154-8.4294z" clip-path="url(#clipPath292)" fill="#c3162d"/>
 <path d="m24.368 37.233-8.4154 8.4295 8.4154 8.4294 8.4154-8.4294z" clip-path="url(#clipPath291)" stroke="#fff" stroke-width=".47"/>
 <g clip-path="url(#clipPath290)" opacity=".75">
  <mask id="mask42_2198_12356" x="48" y="31" width="13" height="13" maskUnits="userSpaceOnUse">
   <path d="m60.483 31.293h-11.774v11.793h11.774z" fill="#fff"/>
  </mask>
  <g mask="url(#mask42_2198_12356)">
   <mask id="mask43_2198_12356" x="48" y="31" width="13" height="13" maskUnits="userSpaceOnUse">
    <path d="m60.483 31.293h-11.774v11.793h11.774z" fill="#fff"/>
   </mask>
   <g mask="url(#mask43_2198_12356)">
    <path d="m54.587 31.608-5.5692 5.5805 5.5711 5.5785 5.5693-5.5805z" fill="#010000"/>
    <path d="m54.587 31.608-5.5692 5.5805 5.5711 5.5785 5.5693-5.5805z" stroke="#010000" stroke-width=".31"/>
   </g>
  </g>
 </g>
 <path d="m54.294 31.295-5.5692 5.5805 5.5712 5.5785 5.5692-5.5805z" clip-path="url(#clipPath289)" fill="#c3162d"/>
 <path d="m54.294 31.295-5.5692 5.5805 5.5712 5.5785 5.5692-5.5805z" clip-path="url(#clipPath288)" stroke="#fff" stroke-width=".31"/>
 <g clip-path="url(#clipPath287)" opacity=".75">
  <mask id="mask44_2198_12356" x="35" y="37" width="15" height="15" maskUnits="userSpaceOnUse">
   <path d="m49.758 37.367h-14.551v14.575h14.551z" fill="#fff"/>
  </mask>
  <g mask="url(#mask44_2198_12356)">
   <mask id="mask45_2198_12356" x="35" y="37" width="15" height="15" maskUnits="userSpaceOnUse">
    <path d="m49.758 37.367h-14.551v14.575h14.551z" fill="#fff"/>
   </mask>
   <g mask="url(#mask45_2198_12356)">
    <path d="m42.492 37.742-6.8926 6.9041 6.8926 6.9041 6.8926-6.9041z" fill="#010000"/>
    <path d="m42.492 37.742-6.8926 6.9041 6.8926 6.9041 6.8926-6.9041z" stroke="#010000" stroke-width=".39"/>
   </g>
  </g>
 </g>
 <path d="m42.117 37.369-6.8926 6.9041 6.8926 6.9041 6.8926-6.9041z" clip-path="url(#clipPath286)" fill="#c3162d"/>
 <path d="m42.117 37.369-6.8926 6.9041 6.8926 6.9041 6.8926-6.9041z" clip-path="url(#clipPath285)" stroke="#fff" stroke-width=".39"/>
 <g clip-path="url(#clipPath284)" opacity=".75">
  <mask id="mask46_2198_12356" x="27" y="47" width="16" height="15" maskUnits="userSpaceOnUse">
   <path d="m42.433 47.344h-14.551v14.575h14.551z" fill="#fff"/>
  </mask>
  <g mask="url(#mask46_2198_12356)">
   <mask id="mask47_2198_12356" x="27" y="47" width="16" height="15" maskUnits="userSpaceOnUse">
    <path d="m42.433 47.344h-14.551v14.575h14.551z" fill="#fff"/>
   </mask>
   <g mask="url(#mask47_2198_12356)">
    <path d="m35.17 47.724-6.8927 6.9041 6.8927 6.9041 6.8926-6.9041z" fill="#010000"/>
    <path d="m35.17 47.724-6.8927 6.9041 6.8927 6.9041 6.8926-6.9041z" stroke="#010000" stroke-width=".39"/>
   </g>
  </g>
 </g>
 <path d="m34.785 47.355-6.8926 6.9041 6.8926 6.9041 6.8926-6.9041z" clip-path="url(#clipPath283)" fill="#c3162d"/>
 <path d="m34.785 47.355-6.8926 6.9041 6.8926 6.9041 6.8926-6.9041z" clip-path="url(#clipPath282)" stroke="#fff" stroke-width=".39"/>
 <g clip-path="url(#clipPath281)" opacity=".75">
  <mask id="mask48_2198_12356" x="28" y="19" width="13" height="13" maskUnits="userSpaceOnUse">
   <path d="m40.606 19.059h-12.383v12.404h12.383z" fill="#fff"/>
  </mask>
  <g mask="url(#mask48_2198_12356)">
   <mask id="mask49_2198_12356" x="28" y="19" width="13" height="13" maskUnits="userSpaceOnUse">
    <path d="m40.606 19.059h-12.383v12.404h12.383z" fill="#fff"/>
   </mask>
   <g mask="url(#mask49_2198_12356)">
    <path d="m34.405 19.385-5.8597 5.8715 5.8618 5.8695 5.8597-5.8715z" fill="#010000"/>
    <path d="m34.405 19.385-5.8597 5.8715 5.8618 5.8695 5.8597-5.8715z" stroke="#010000" stroke-width=".33"/>
   </g>
  </g>
 </g>
 <path d="m34.082 19.068-5.8597 5.8715 5.8617 5.8695 5.8597-5.8715z" clip-path="url(#clipPath280)" fill="#c3162d"/>
 <path d="m34.082 19.068-5.8597 5.8715 5.8617 5.8695 5.8597-5.8715z" clip-path="url(#clipPath279)" stroke="#fff" stroke-width=".33"/>
 <g clip-path="url(#clipPath278)" opacity=".75">
  <mask id="mask50_2198_12356" x="41" y="28" width="15" height="15" maskUnits="userSpaceOnUse">
   <path d="m55.85 28.696h-14.126v14.149h14.126z" fill="#fff"/>
  </mask>
  <g mask="url(#mask50_2198_12356)">
   <mask id="mask51_2198_12356" x="41" y="28" width="15" height="15" maskUnits="userSpaceOnUse">
    <path d="m55.85 28.696h-14.126v14.149h14.126z" fill="#fff"/>
   </mask>
   <g mask="url(#mask51_2198_12356)">
    <path d="m48.782 29.074-6.6923 6.7034 6.6923 6.7034 6.6922-6.7034z" fill="#010000"/>
    <path d="m48.782 29.074-6.6923 6.7034 6.6923 6.7034 6.6922-6.7034z" stroke="#010000" stroke-width=".37"/>
   </g>
  </g>
 </g>
 <path d="m48.419 28.706-6.6922 6.7034 6.6922 6.7034 6.6923-6.7034z" clip-path="url(#clipPath277)" fill="#c3162d"/>
 <path d="m48.419 28.706-6.6922 6.7034 6.6922 6.7034 6.6923-6.7034z" clip-path="url(#clipPath276)" stroke="#fff" stroke-width=".37"/>
 <g clip-path="url(#clipPath275)" opacity=".75">
  <mask id="mask52_2198_12356" x="17" y="26" width="18" height="18" maskUnits="userSpaceOnUse">
   <path d="m34.06 26.78h-16.704v16.732h16.704z" fill="#fff"/>
  </mask>
  <g mask="url(#mask52_2198_12356)">
   <mask id="mask53_2198_12356" x="17" y="26" width="18" height="18" maskUnits="userSpaceOnUse">
    <path d="m34.06 26.78h-16.704v16.732h16.704z" fill="#fff"/>
   </mask>
   <g mask="url(#mask53_2198_12356)">
    <path d="m25.704 27.229-7.9031 7.919 7.9058 7.9163 7.9031-7.9191z" fill="#010000"/>
    <path d="m25.704 27.229-7.9031 7.919 7.9058 7.9163 7.9031-7.9191z" stroke="#010000" stroke-width=".44"/>
   </g>
  </g>
 </g>
 <path d="m25.286 26.789-7.9031 7.9191 7.9059 7.9162 7.903-7.919z" clip-path="url(#clipPath274)" fill="#c3162d"/>
 <path d="m25.286 26.789-7.9031 7.9191 7.9059 7.9162 7.903-7.919z" clip-path="url(#clipPath273)" stroke="#fff" stroke-width=".44"/>
 <g clip-path="url(#clipPath272)" opacity=".75">
  <mask id="mask54_2198_12356" x="27" y="37" width="16" height="16" maskUnits="userSpaceOnUse">
   <path d="m42.25 37.92h-14.551v14.575h14.551z" fill="#fff"/>
  </mask>
  <g mask="url(#mask54_2198_12356)">
   <mask id="mask55_2198_12356" x="27" y="37" width="16" height="16" maskUnits="userSpaceOnUse">
    <path d="m42.25 37.92h-14.551v14.575h14.551z" fill="#fff"/>
   </mask>
   <g mask="url(#mask55_2198_12356)">
    <path d="m34.971 38.296-6.8926 6.9041 6.8926 6.9041 6.8927-6.9041z" fill="#010000"/>
    <path d="m34.971 38.296-6.8926 6.9041 6.8926 6.9041 6.8927-6.9041z" stroke="#010000" stroke-width=".39"/>
   </g>
  </g>
 </g>
 <path d="m34.606 37.927-6.8926 6.9041 6.8926 6.9042 6.8926-6.9042z" clip-path="url(#clipPath271)" fill="#c3162d"/>
 <path d="m34.606 37.927-6.8926 6.9041 6.8926 6.9042 6.8926-6.9042z" clip-path="url(#clipPath270)" stroke="#fff" stroke-width=".39"/>
 <g clip-path="url(#clipPath269)" opacity=".75">
  <mask id="mask56_2198_12356" x="29" y="25" width="19" height="19" maskUnits="userSpaceOnUse">
   <path d="m47.789 25.673h-18.135v18.18h18.135z" fill="#fff"/>
  </mask>
  <g mask="url(#mask56_2198_12356)">
   <mask id="mask57_2198_12356" x="29" y="25" width="19" height="19" maskUnits="userSpaceOnUse">
    <path d="m47.789 25.673h-18.135v18.165h18.135z" fill="#fff"/>
   </mask>
   <g mask="url(#mask57_2198_12356)">
    <path d="m38.734 26.158-8.5858 8.6 8.5858 8.6001 8.5857-8.6001z" fill="#010000"/>
    <path d="m38.734 26.158-8.5858 8.6 8.5858 8.6001 8.5857-8.6001z" stroke="#010000" stroke-width=".48"/>
   </g>
  </g>
 </g>
 <path d="m38.238 25.69-8.5858 8.6001 8.5858 8.6 8.5857-8.6z" clip-path="url(#clipPath268)" fill="#c3162d"/>
 <path d="m38.238 25.69-8.5858 8.6001 8.5858 8.6 8.5857-8.6z" clip-path="url(#clipPath267)" stroke="#fff" stroke-width=".48"/>
 <g clip-path="url(#clipPath266)" opacity=".75">
  <mask id="mask58_2198_12356" x="34" y="19" width="16" height="16" maskUnits="userSpaceOnUse">
   <path d="m49.517 19.698h-14.551v14.575h14.551z" fill="#fff"/>
  </mask>
  <g mask="url(#mask58_2198_12356)">
   <mask id="mask59_2198_12356" x="34" y="19" width="16" height="16" maskUnits="userSpaceOnUse">
    <path d="m49.517 19.698h-14.551v14.575h14.551z" fill="#fff"/>
   </mask>
   <g mask="url(#mask59_2198_12356)">
    <path d="m42.232 20.089-6.8927 6.9041 6.8927 6.9041 6.8926-6.9041z" fill="#010000"/>
    <path d="m42.232 20.089-6.8927 6.9041 6.8927 6.9041 6.8926-6.9041z" stroke="#010000" stroke-width=".39"/>
   </g>
  </g>
 </g>
 <path d="m41.871 19.696-6.8926 6.9042 6.8926 6.9041 6.8926-6.9041z" clip-path="url(#clipPath265)" fill="#c3162d"/>
 <path d="m41.871 19.696-6.8926 6.9042 6.8926 6.9041 6.8926-6.9041z" clip-path="url(#clipPath264)" stroke="#fff" stroke-width=".39"/>
 <path d="m214.56 17.541v32.783" clip-path="url(#clipPath263)" stroke="#575756" stroke-miterlimit="10" stroke-width=".7"/>
 <defs>
  <clipPath id="clipPath263">
   <rect width="320" height="69" fill="#fff"/>
  </clipPath>
  <clipPath id="clipPath264">
   <rect width="320" height="69" fill="#fff"/>
  </clipPath>
  <clipPath id="clipPath265">
   <rect width="320" height="69" fill="#fff"/>
  </clipPath>
  <clipPath id="clipPath266">
   <rect width="320" height="69" fill="#fff"/>
  </clipPath>
  <clipPath id="clipPath267">
   <rect width="320" height="69" fill="#fff"/>
  </clipPath>
  <clipPath id="clipPath268">
   <rect width="320" height="69" fill="#fff"/>
  </clipPath>
  <clipPath id="clipPath269">
   <rect width="320" height="69" fill="#fff"/>
  </clipPath>
  <clipPath id="clipPath270">
   <rect width="320" height="69" fill="#fff"/>
  </clipPath>
  <clipPath id="clipPath271">
   <rect width="320" height="69" fill="#fff"/>
  </clipPath>
  <clipPath id="clipPath272">
   <rect width="320" height="69" fill="#fff"/>
  </clipPath>
  <clipPath id="clipPath273">
   <rect width="320" height="69" fill="#fff"/>
  </clipPath>
  <clipPath id="clipPath274">
   <rect width="320" height="69" fill="#fff"/>
  </clipPath>
  <clipPath id="clipPath275">
   <rect width="320" height="69" fill="#fff"/>
  </clipPath>
  <clipPath id="clipPath276">
   <rect width="320" height="69" fill="#fff"/>
  </clipPath>
  <clipPath id="clipPath277">
   <rect width="320" height="69" fill="#fff"/>
  </clipPath>
  <clipPath id="clipPath278">
   <rect width="320" height="69" fill="#fff"/>
  </clipPath>
  <clipPath id="clipPath279">
   <rect width="320" height="69" fill="#fff"/>
  </clipPath>
  <clipPath id="clipPath280">
   <rect width="320" height="69" fill="#fff"/>
  </clipPath>
  <clipPath id="clipPath281">
   <rect width="320" height="69" fill="#fff"/>
  </clipPath>
  <clipPath id="clipPath282">
   <rect width="320" height="69" fill="#fff"/>
  </clipPath>
  <clipPath id="clipPath283">
   <rect width="320" height="69" fill="#fff"/>
  </clipPath>
  <clipPath id="clipPath284">
   <rect width="320" height="69" fill="#fff"/>
  </clipPath>
  <clipPath id="clipPath285">
   <rect width="320" height="69" fill="#fff"/>
  </clipPath>
  <clipPath id="clipPath286">
   <rect width="320" height="69" fill="#fff"/>
  </clipPath>
  <clipPath id="clipPath287">
   <rect width="320" height="69" fill="#fff"/>
  </clipPath>
  <clipPath id="clipPath288">
   <rect width="320" height="69" fill="#fff"/>
  </clipPath>
  <clipPath id="clipPath289">
   <rect width="320" height="69" fill="#fff"/>
  </clipPath>
  <clipPath id="clipPath290">
   <rect width="320" height="69" fill="#fff"/>
  </clipPath>
  <clipPath id="clipPath291">
   <rect width="320" height="69" fill="#fff"/>
  </clipPath>
  <clipPath id="clipPath292">
   <rect width="320" height="69" fill="#fff"/>
  </clipPath>
  <clipPath id="clipPath293">
   <rect width="320" height="69" fill="#fff"/>
  </clipPath>
  <clipPath id="clipPath294">
   <rect width="320" height="69" fill="#fff"/>
  </clipPath>
  <clipPath id="clipPath295">
   <rect width="320" height="69" fill="#fff"/>
  </clipPath>
  <clipPath id="clipPath296">
   <rect width="320" height="69" fill="#fff"/>
  </clipPath>
  <clipPath id="clipPath297">
   <rect width="320" height="69" fill="#fff"/>
  </clipPath>
  <clipPath id="clipPath298">
   <rect width="320" height="69" fill="#fff"/>
  </clipPath>
  <clipPath id="clipPath299">
   <rect width="320" height="69" fill="#fff"/>
  </clipPath>
  <clipPath id="clipPath300">
   <rect width="320" height="69" fill="#fff"/>
  </clipPath>
  <clipPath id="clipPath301">
   <rect width="320" height="69" fill="#fff"/>
  </clipPath>
  <clipPath id="clipPath302">
   <rect width="320" height="69" fill="#fff"/>
  </clipPath>
  <clipPath id="clipPath303">
   <rect width="320" height="69" fill="#fff"/>
  </clipPath>
  <clipPath id="clipPath304">
   <rect width="320" height="69" fill="#fff"/>
  </clipPath>
  <clipPath id="clipPath305">
   <rect width="320" height="69" fill="#fff"/>
  </clipPath>
  <clipPath id="clipPath306">
   <rect width="320" height="69" fill="#fff"/>
  </clipPath>
  <clipPath id="clipPath307">
   <rect width="320" height="69" fill="#fff"/>
  </clipPath>
  <clipPath id="clipPath308">
   <rect width="320" height="69" fill="#fff"/>
  </clipPath>
  <clipPath id="clipPath309">
   <rect width="320" height="69" fill="#fff"/>
  </clipPath>
  <clipPath id="clipPath310">
   <rect width="320" height="69" fill="#fff"/>
  </clipPath>
  <clipPath id="clipPath311">
   <rect width="320" height="69" fill="#fff"/>
  </clipPath>
  <clipPath id="clipPath312">
   <rect width="320" height="69" fill="#fff"/>
  </clipPath>
  <clipPath id="clipPath313">
   <rect width="320" height="69" fill="#fff"/>
  </clipPath>
  <clipPath id="clipPath314">
   <rect width="320" height="69" fill="#fff"/>
  </clipPath>
  <clipPath id="clipPath315">
   <rect width="320" height="69" fill="#fff"/>
  </clipPath>
  <clipPath id="clipPath316">
   <rect width="320" height="69" fill="#fff"/>
  </clipPath>
  <clipPath id="clipPath317">
   <rect width="320" height="69" fill="#fff"/>
  </clipPath>
  <clipPath id="clipPath318">
   <rect width="320" height="69" fill="#fff"/>
  </clipPath>
  <clipPath id="clipPath319">
   <rect width="320" height="69" fill="#fff"/>
  </clipPath>
  <clipPath id="clipPath320">
   <rect width="320" height="69" fill="#fff"/>
  </clipPath>
  <clipPath id="clipPath321">
   <rect width="320" height="69" fill="#fff"/>
  </clipPath>
  <clipPath id="clipPath322">
   <rect width="320" height="69" fill="#fff"/>
  </clipPath>
  <clipPath id="clipPath323">
   <rect width="320" height="69" fill="#fff"/>
  </clipPath>
  <clipPath id="clipPath324">
   <rect width="320" height="69" fill="#fff"/>
  </clipPath>
  <clipPath id="clipPath325">
   <rect width="320" height="69" fill="#fff"/>
  </clipPath>
  <clipPath id="clipPath326">
   <rect width="320" height="69" fill="#fff"/>
  </clipPath>
  <clipPath id="clipPath327">
   <rect width="320" height="69" fill="#fff"/>
  </clipPath>
  <clipPath id="clipPath328">
   <rect width="320" height="69" fill="#fff"/>
  </clipPath>
  <clipPath id="clipPath329">
   <rect width="320" height="69" fill="#fff"/>
  </clipPath>
  <clipPath id="clipPath330">
   <rect width="320" height="69" fill="#fff"/>
  </clipPath>
  <clipPath id="clipPath331">
   <rect width="320" height="69" fill="#fff"/>
  </clipPath>
  <clipPath id="clipPath332">
   <rect width="320" height="69" fill="#fff"/>
  </clipPath>
  <clipPath id="clipPath333">
   <rect width="320" height="69" fill="#fff"/>
  </clipPath>
  <clipPath id="clipPath334">
   <rect width="320" height="69" fill="#fff"/>
  </clipPath>
  <clipPath id="clipPath335">
   <rect width="320" height="69" fill="#fff"/>
  </clipPath>
  <clipPath id="clipPath336">
   <rect width="320" height="69" fill="#fff"/>
  </clipPath>
  <clipPath id="clipPath337">
   <rect width="320" height="69" fill="#fff"/>
  </clipPath>
  <clipPath id="clipPath338">
   <rect width="320" height="69" fill="#fff"/>
  </clipPath>
  <clipPath id="clipPath339">
   <rect width="320" height="69" fill="#fff"/>
  </clipPath>
  <clipPath id="clipPath340">
   <rect width="320" height="69" fill="#fff"/>
  </clipPath>
  <clipPath id="clipPath341">
   <rect width="320" height="69" fill="#fff"/>
  </clipPath>
  <clipPath id="clipPath342">
   <rect width="320" height="69" fill="#fff"/>
  </clipPath>
  <clipPath id="clipPath343">
   <rect width="320" height="69" fill="#fff"/>
  </clipPath>
  <clipPath id="clipPath344">
   <rect width="320" height="69" fill="#fff"/>
  </clipPath>
  <clipPath id="clipPath345">
   <rect width="320" height="69" fill="#fff"/>
  </clipPath>
  <clipPath id="clipPath346">
   <rect width="320" height="69" fill="#fff"/>
  </clipPath>
  <clipPath id="clipPath347">
   <rect width="320" height="69" fill="#fff"/>
  </clipPath>
  <clipPath id="clipPath348">
   <rect width="320" height="69" fill="#fff"/>
  </clipPath>
  <clipPath id="clipPath349">
   <rect width="320" height="69" fill="#fff"/>
  </clipPath>
  <clipPath id="clipPath350">
   <rect width="320" height="69" fill="#fff"/>
  </clipPath>
  <clipPath id="clipPath351">
   <rect width="320" height="69" fill="#fff"/>
  </clipPath>
  <clipPath id="clipPath352">
   <rect width="320" height="69" fill="#fff"/>
  </clipPath>
  <clipPath id="clipPath353">
   <rect width="320" height="69" fill="#fff"/>
  </clipPath>
  <clipPath id="clipPath354">
   <rect width="320" height="69" fill="#fff"/>
  </clipPath>
  <clipPath id="clipPath355">
   <rect width="320" height="69" fill="#fff"/>
  </clipPath>
  <clipPath id="clipPath356">
   <rect width="320" height="69" fill="#fff"/>
  </clipPath>
  <clipPath id="clipPath357">
   <rect width="320" height="69" fill="#fff"/>
  </clipPath>
  <clipPath id="clipPath358">
   <rect width="320" height="69" fill="#fff"/>
  </clipPath>
  <clipPath id="clipPath359">
   <rect width="320" height="69" fill="#fff"/>
  </clipPath>
  <clipPath id="clipPath360">
   <rect width="320" height="69" fill="#fff"/>
  </clipPath>
  <clipPath id="clipPath361">
   <rect width="320" height="69" fill="#fff"/>
  </clipPath>
  <clipPath id="clipPath362">
   <rect width="320" height="69" fill="#fff"/>
  </clipPath>
  <clipPath id="clipPath363">
   <rect width="320" height="69" fill="#fff"/>
  </clipPath>
  <clipPath id="clipPath364">
   <rect width="320" height="69" fill="#fff"/>
  </clipPath>
  <clipPath id="clipPath365">
   <rect width="320" height="69" fill="#fff"/>
  </clipPath>
  <clipPath id="clipPath366">
   <rect width="320" height="69" fill="#fff"/>
  </clipPath>
  <clipPath id="clipPath367">
   <rect width="320" height="69" fill="#fff"/>
  </clipPath>
  <clipPath id="clipPath368">
   <rect width="320" height="69" fill="#fff"/>
  </clipPath>
  <clipPath id="clipPath369">
   <rect width="320" height="69" fill="#fff"/>
  </clipPath>
  <clipPath id="clipPath370">
   <rect width="320" height="69" fill="#fff"/>
  </clipPath>
  <clipPath id="clipPath371">
   <rect width="320" height="69" fill="#fff"/>
  </clipPath>
  <clipPath id="clipPath372">
   <rect width="320" height="69" fill="#fff"/>
  </clipPath>
  <clipPath id="clipPath373">
   <rect width="320" height="69" fill="#fff"/>
  </clipPath>
  <clipPath id="clipPath374">
   <rect width="320" height="69" fill="#fff"/>
  </clipPath>
  <clipPath id="clipPath375">
   <rect width="320" height="69" fill="#fff"/>
  </clipPath>
  <clipPath id="clipPath376">
   <rect width="320" height="69" fill="#fff"/>
  </clipPath>
  <clipPath id="clipPath377">
   <rect width="320" height="69" fill="#fff"/>
  </clipPath>
  <clipPath id="clipPath378">
   <rect width="320" height="69" fill="#fff"/>
  </clipPath>
  <clipPath id="clipPath379">
   <rect width="320" height="69" fill="#fff"/>
  </clipPath>
  <clipPath id="clipPath380">
   <rect width="320" height="69" fill="#fff"/>
  </clipPath>
  <clipPath id="clipPath381">
   <rect width="320" height="69" fill="#fff"/>
  </clipPath>
  <clipPath id="clipPath382">
   <rect width="320" height="69" fill="#fff"/>
  </clipPath>
  <clipPath id="clipPath383">
   <rect width="320" height="69" fill="#fff"/>
  </clipPath>
  <clipPath id="clipPath384">
   <rect width="320" height="69" fill="#fff"/>
  </clipPath>
  <clipPath id="clipPath385">
   <rect width="320" height="69" fill="#fff"/>
  </clipPath>
  <clipPath id="clipPath386">
   <rect width="320" height="69" fill="#fff"/>
  </clipPath>
  <clipPath id="clipPath387">
   <rect width="320" height="69" fill="#fff"/>
  </clipPath>
  <clipPath id="clipPath388">
   <rect width="320" height="69" fill="#fff"/>
  </clipPath>
  <clipPath id="clipPath389">
   <rect width="320" height="69" fill="#fff"/>
  </clipPath>
  <clipPath id="clipPath390">
   <rect width="320" height="69" fill="#fff"/>
  </clipPath>
  <clipPath id="clipPath391">
   <rect width="320" height="69" fill="#fff"/>
  </clipPath>
  <clipPath id="clipPath392">
   <rect width="320" height="69" fill="#fff"/>
  </clipPath>
  <clipPath id="clipPath393">
   <rect width="320" height="69" fill="#fff"/>
  </clipPath>
  <clipPath id="clipPath394">
   <rect width="320" height="69" fill="#fff"/>
  </clipPath>
  <clipPath id="clipPath395">
   <rect width="320" height="69" fill="#fff"/>
  </clipPath>
  <clipPath id="clipPath396">
   <rect width="320" height="69" fill="#fff"/>
  </clipPath>
  <clipPath id="clipPath397">
   <rect width="320" height="69" fill="#fff"/>
  </clipPath>
  <clipPath id="clipPath398">
   <rect width="320" height="69" fill="#fff"/>
  </clipPath>
  <clipPath id="clipPath399">
   <rect width="320" height="69" fill="#fff"/>
  </clipPath>
  <clipPath id="clipPath400">
   <rect width="320" height="69" fill="#fff"/>
  </clipPath>
  <clipPath id="clipPath401">
   <rect width="320" height="69" fill="#fff"/>
  </clipPath>
  <clipPath id="clipPath402">
   <rect width="320" height="69" fill="#fff"/>
  </clipPath>
  <clipPath id="clipPath403">
   <rect width="320" height="69" fill="#fff"/>
  </clipPath>
  <clipPath id="clipPath404">
   <rect width="320" height="69" fill="#fff"/>
  </clipPath>
 </defs>
</svg>
