<?xml version="1.0" encoding="utf-8"?>
<!-- Generator: Adobe Illustrator 13.0.0, SVG Export Plug-In . SVG Version: 6.00 Build 14948)  -->
<!DOCTYPE svg PUBLIC "-//W3C//DTD SVG 1.1//EN" "http://www.w3.org/Graphics/SVG/1.1/DTD/svg11.dtd">
<svg version="1.1" id="Layer_1" xmlns="http://www.w3.org/2000/svg" xmlns:xlink="http://www.w3.org/1999/xlink" x="0px" y="0px"
	 width="224.561px" height="57.198px" viewBox="0 0 224.561 57.198" enable-background="new 0 0 224.561 57.198"
	 xml:space="preserve">
<g>
	<g>
		<g>
			<path fill="#005BAB" d="M3.999,45.901c2.128,0,3.75,1.032,3.75,2.865c0,1.885-1.748,3.081-3.599,3.081
				c-0.411,0-0.816-0.049-1.196-0.233c1.406-0.075,2.934-0.947,2.934-2.519c0-1.438-1.017-2.015-2.325-2.015
				c-0.399,0-0.771,0.032-1.146,0.101v7.383c0,0.917-0.016,1.567,0.85,2.06v0.053H0.009v-0.053c0.833-0.298,0.735-1.507,0.735-2.238
				v-6.172c0-0.737,0.098-1.931-0.717-2.258v-0.055H3.999z"/>
			<path fill="#005BAB" d="M16.106,55.593c-0.72,0.947-2.062,1.34-3.209,1.34c-1.083,0-2.225-0.34-2.961-1.143
				c-0.869-0.946-0.835-2.04-0.835-3.22v-4.375c0-0.736,0.116-1.934-0.721-2.239v-0.055h3.107v0.055
				c-0.815,0.306-0.719,1.503-0.719,2.239v4.375c0,2.17,0.915,3.188,2.605,3.188c0.915,0,1.844-0.376,2.386-1.146
				c0.362-0.494,0.346-0.901,0.346-1.493v-4.924c0-0.736,0.1-1.934-0.72-2.239v-0.055h3.106l0.014,0.055
				c-0.828,0.306-0.737,1.503-0.737,2.258v6.172c0,0.731-0.091,1.927,0.737,2.238v0.053h-2.4V55.593z"/>
			<path fill="#005BAB" d="M26.716,47.852c-0.635-0.653-1.653-1.023-2.567-1.023c-0.935,0-2.118,0.354-2.118,1.484
				c0,2.241,5.631,2.208,5.631,5.236c0,1.747-1.831,3.384-4.384,3.384c-0.993,0-1.994-0.145-2.929-0.486l-0.475-2.049
				c0.964,0.835,2.31,1.361,3.582,1.361c0.938,0,2.348-0.554,2.348-1.706c0-2.55-5.634-2.094-5.634-5.562
				c0-2.057,2.114-2.846,4.109-2.846c0.819,0,1.657,0.109,2.437,0.359V47.852z"/>
			<path fill="#005BAB" d="M34.658,51.417h-3.221l1.617-4.122L34.658,51.417z M35.135,52.633l0.881,2.306
				c0.449,1.141,0.576,1.332-0.225,1.686v0.053h3.352v-0.053c-0.929-0.476-1.226-1.392-1.601-2.326l-3.406-8.396h-2.589v0.055
				c0.791,0.241,0.479,0.938,0.249,1.521l-2.734,6.821c-0.356,0.935-0.634,1.851-1.588,2.326v0.053h3.019v-0.053
				c-0.794-0.298-0.677-0.772-0.326-1.686l0.846-2.306H35.135z"/>
			<path fill="#005BAB" d="M41.411,54.542c0,0.923-0.023,1.574,0.848,2.082v0.053h-2.896v-0.053
				c0.868-0.508,0.868-1.159,0.868-2.082v-6.531c0-0.913,0-1.567-0.852-2.055v-0.055h2.391v0.019
				c0.069,0.197,0.129,0.277,0.244,0.404l0.228,0.335l5.995,7.555v-6.203c0-0.913,0.013-1.567-0.856-2.055v-0.055h2.877v0.055
				c-0.847,0.487-0.847,1.142-0.847,2.055v9.188c-1.161-0.396-1.664-0.928-2.389-1.867l-5.611-7.117V54.542z"/>
			<path fill="#005BAB" d="M58.087,54.542c0,0.923-0.02,1.574,0.845,2.082v0.053h-2.895v-0.053c0.868-0.508,0.868-1.159,0.868-2.082
				v-6.531c0-0.913,0-1.567-0.854-2.055v-0.055h2.395v0.019c0.067,0.197,0.129,0.277,0.247,0.404l0.229,0.335l5.985,7.555v-6.203
				c0-0.913,0.015-1.567-0.847-2.055v-0.055h2.874v0.055c-0.846,0.487-0.846,1.142-0.846,2.055v9.188
				c-1.167-0.396-1.675-0.928-2.393-1.867l-5.609-7.117V54.542z"/>
			<path fill="#005BAB" d="M73.995,51.417H70.77l1.617-4.122L73.995,51.417z M74.467,52.633l0.881,2.306
				c0.443,1.141,0.572,1.332-0.227,1.686v0.053h3.354v-0.053c-0.934-0.476-1.229-1.392-1.604-2.326l-3.406-8.396h-2.58v0.055
				c0.777,0.241,0.477,0.938,0.244,1.521l-2.737,6.821c-0.363,0.935-0.636,1.851-1.588,2.326v0.053h3.014v-0.053
				c-0.784-0.298-0.67-0.772-0.326-1.686l0.846-2.306H74.467z"/>
			<path fill="#005BAB" d="M82.129,54.542c0,0.939-0.014,1.574,0.85,2.082v0.053h-3.234v-0.053c0.813-0.312,0.719-1.507,0.719-2.238
				v-7.305h-1.439c-0.707,0-1.443,0.184-1.951,0.661h-0.055l0.578-1.955h0.051c0.189,0.084,0.408,0.084,0.627,0.114h0.4h6.109
				c0.279,0,0.541-0.013,0.75-0.114h0.055l-0.525,1.955h-0.051c-0.207-0.572-0.867-0.661-1.412-0.661h-1.471V54.542z"/>
			<path fill="#005BAB" d="M87.477,48.214c0-0.755,0.115-1.952-0.713-2.258v-0.055h3.1v0.055c-0.813,0.306-0.717,1.521-0.717,2.258
				v6.172c0,0.731-0.096,1.927,0.717,2.238v0.053h-3.1v-0.053c0.803-0.298,0.713-1.507,0.713-2.238V48.214z"/>
			<path fill="#005BAB" d="M96.717,46.807c2.59,0,4.115,2.304,4.115,4.696c0,2.439-1.59,4.256-4.076,4.256
				c-2.568,0-4.186-2.361-4.186-4.643C92.571,48.642,94.188,46.807,96.717,46.807z M96.833,45.627
				c-3.434-0.08-6.123,2.521-6.123,5.629c0,3.356,2.723,5.677,5.955,5.677c3.268,0,6.033-2.421,6.033-5.76
				C102.698,48.229,100.27,45.613,96.833,45.627z"/>
			<path fill="#005BAB" d="M105.254,54.542c0,0.923-0.021,1.574,0.85,2.082v0.053h-2.889v-0.053
				c0.863-0.508,0.863-1.159,0.863-2.082v-6.531c0-0.913,0-1.567-0.848-2.055v-0.055h2.383v0.019
				c0.064,0.197,0.131,0.277,0.242,0.404l0.23,0.335l5.99,7.555v-6.203c0-0.913,0.02-1.567-0.852-2.055v-0.055h2.883v0.055
				c-0.846,0.487-0.846,1.142-0.846,2.055v9.188c-1.166-0.396-1.666-0.928-2.393-1.867l-5.615-7.117V54.542z"/>
			<path fill="#005BAB" d="M121.092,51.417h-3.225l1.621-4.122L121.092,51.417z M121.571,52.633l0.883,2.306
				c0.445,1.141,0.57,1.332-0.223,1.686v0.053h3.346v-0.053c-0.928-0.476-1.221-1.392-1.602-2.326l-3.408-8.396h-2.586v0.055
				c0.791,0.241,0.48,0.938,0.252,1.521l-2.73,6.821c-0.361,0.935-0.641,1.851-1.58,2.326v0.053h3.004v-0.053
				c-0.785-0.298-0.674-0.772-0.336-1.686l0.859-2.306H121.571z"/>
			<path fill="#005BAB" d="M130.795,55.497c1.111,0.063,2.082-0.311,2.896-1h0.049l-0.844,2.18h-6.732v-0.053
				c0.834-0.298,0.736-1.507,0.736-2.238v-6.172c0-0.755,0.098-1.952-0.736-2.258v-0.055h3.127v0.055
				c-0.846,0.306-0.717,1.521-0.717,2.258v7.136L130.795,55.497z"/>
			<path fill="#005BAB" d="M145.969,55.593c-0.723,0.947-2.061,1.34-3.207,1.34c-1.088,0-2.221-0.34-2.961-1.143
				c-0.873-0.946-0.84-2.04-0.84-3.22v-4.375c0-0.736,0.119-1.934-0.719-2.239v-0.055h3.107v0.055
				c-0.809,0.306-0.717,1.503-0.717,2.239v4.375c0,2.17,0.912,3.188,2.604,3.188c0.912,0,1.846-0.376,2.395-1.146
				c0.35-0.494,0.338-0.901,0.338-1.493v-4.924c0-0.736,0.098-1.934-0.723-2.239v-0.055h3.105l0.023,0.055
				c-0.84,0.306-0.736,1.503-0.736,2.258v6.172c0,0.731-0.104,1.927,0.736,2.238v0.053h-2.406V55.593z"/>
			<path fill="#005BAB" d="M151.893,54.542c0,0.923-0.029,1.574,0.844,2.082v0.053h-2.898v-0.053
				c0.873-0.508,0.873-1.159,0.873-2.082v-6.531c0-0.913,0-1.567-0.854-2.055v-0.055h2.391v0.019
				c0.061,0.197,0.127,0.277,0.24,0.404l0.238,0.335l5.979,7.555v-6.203c0-0.913,0.023-1.567-0.844-2.055v-0.055h2.877v0.055
				c-0.848,0.487-0.848,1.142-0.848,2.055v9.188c-1.162-0.396-1.666-0.928-2.389-1.867l-5.609-7.117V54.542z"/>
			<path fill="#005BAB" d="M163.133,48.214c0-0.755,0.119-1.952-0.727-2.258v-0.055h3.123v0.055
				c-0.822,0.306-0.721,1.521-0.721,2.258v6.172c0,0.731-0.102,1.927,0.721,2.238v0.053h-3.123v-0.053
				c0.836-0.298,0.727-1.507,0.727-2.238V48.214z"/>
			<path fill="#005BAB" d="M173.77,48.866c0.441-1.162,0.994-2.504-0.016-2.91v-0.055h2.438l-4.324,11.267
				c-1.137-0.759-1.518-0.887-1.994-2.181l-2.475-6.693c-0.313-0.835-0.557-1.783-1.275-2.338v-0.055h2.395l-0.018,0.201
				c0,0.357,0.307,1.162,0.445,1.524l2.594,7.113L173.77,48.866z"/>
			<path fill="#005BAB" d="M179.358,55.296l2.08,0.201c1.07,0.096,2.203-0.249,3.02-0.972h0.051l-0.74,2.151h-6.82v-0.053
				c0.84-0.298,0.74-1.507,0.74-2.238v-6.172c0-0.755,0.1-1.952-0.74-2.258v-0.055h5.236c0.275,0,0.563,0.037,0.771-0.079h0.053
				v1.92h-0.053c-0.514-0.6-1.182-0.661-1.932-0.661c-0.578,0-1.148,0.017-1.666,0.117v3.046h1.941c0.266,0,0.518,0,0.719-0.102
				h0.045v1.739h-0.045c-0.26-0.474-0.949-0.465-1.453-0.465h-1.207V55.296z"/>
			<path fill="#005BAB" d="M189.157,45.901c2.186,0,3.385,1.147,3.385,2.64c0,1.439-1.258,2.575-2.598,2.876l2.359,2.969
				c0.682,0.847,1.715,1.693,2.648,2.291h-1.508c-0.875,0-1.404-0.221-1.9-0.825l-1.996-2.471l-1.506-2.305
				c1.309-0.199,2.832-0.799,2.832-2.344c0-1.178-1.018-1.858-2.105-1.811c-0.383,0.012-0.744,0.063-1.115,0.127v7.337
				c0,0.746-0.104,1.94,0.732,2.238v0.053h-3.123v-0.053c0.836-0.298,0.709-1.507,0.709-2.238v-6.172
				c0-0.755,0.127-1.952-0.709-2.258v-0.055H189.157z"/>
			<path fill="#005BAB" d="M200.997,47.852c-0.646-0.653-1.654-1.023-2.582-1.023c-0.926,0-2.105,0.354-2.105,1.484
				c0,2.241,5.639,2.208,5.639,5.236c0,1.747-1.842,3.384-4.391,3.384c-1.006,0-2-0.145-2.936-0.486l-0.479-2.049
				c0.973,0.835,2.309,1.361,3.588,1.361c0.936,0,2.348-0.554,2.348-1.706c0-2.55-5.639-2.094-5.639-5.562
				c0-2.057,2.111-2.846,4.107-2.846c0.828,0,1.662,0.109,2.449,0.359V47.852z"/>
			<path fill="#005BAB" d="M203.877,48.214c0-0.755,0.123-1.952-0.717-2.258v-0.055h3.104v0.055
				c-0.814,0.306-0.711,1.521-0.711,2.258v6.172c0,0.731-0.104,1.927,0.711,2.238v0.053h-3.104v-0.053
				c0.816-0.298,0.717-1.507,0.717-2.238V48.214z"/>
			<path fill="#005BAB" d="M212.102,54.542c0,0.939-0.01,1.574,0.857,2.082v0.053h-3.246v-0.053c0.82-0.312,0.719-1.507,0.719-2.238
				v-7.305h-1.438c-0.705,0-1.436,0.184-1.945,0.661h-0.053l0.574-1.955h0.053c0.191,0.084,0.412,0.084,0.617,0.114h0.412h6.105
				c0.283,0,0.543-0.013,0.758-0.114h0.043l-0.518,1.955h-0.051c-0.213-0.572-0.879-0.661-1.406-0.661h-1.482V54.542z"/>
			<path fill="#005BAB" d="M220.54,54.542c0,0.992,0,1.476,0.836,2.082v0.053h-3.191v-0.053c0.801-0.408,0.68-1.467,0.68-2.238
				v-2.427l-2.713-4.367c-0.443-0.718-0.77-1.268-1.559-1.69h1.492c0.521,0,1.01,0.12,1.225,0.461l2.617,4.271l2.029-3.041
				c0.283-0.41,0.662-1.191-0.256-1.636v-0.055h2.861l-4.021,6.058V54.542z"/>
		</g>
	</g>
	<g>
		<g>
			<g>
				<path fill="#005BAB" d="M123.504,9.185h-3.439V0.822h-4.139v21.675c-1.42,1.523-3.805,1.432-3.805,1.432h-11.629
					c-0.168,0-0.303-0.143-0.303-0.313l-0.002-16.934h12.457V3.331l-16.6-0.001l0.004,20.284c0,2.009,1.635,3.617,3.65,3.617h12.322
					c0,0,2.031,0.188,3.904-0.88v11.665h4.139V12.527h3.439v25.489h4.135V0.822h-4.135V9.185z"/>
			</g>
		</g>
		<g>
			<polygon fill="#005BAB" points="0,25.536 15.697,25.536 15.697,38.006 19.837,38.006 19.837,25.536 35.479,25.536 35.479,22.195 
				0,22.195 			"/>
			<path fill="#005BAB" d="M7.858,18.786h19.754c2.018,0,3.65-1.633,3.65-3.649l0.005-13.994h-4.136l-0.005,5.662H8.347V1.143h-4.14
				l0.007,13.994C4.214,17.153,5.847,18.786,7.858,18.786z M27.127,10.145l-0.003,4.995c0,0.173-0.138,0.309-0.307,0.309H8.657
				c-0.169,0-0.306-0.136-0.306-0.309l-0.005-4.995H27.127z"/>
		</g>
		<g>
			<polygon fill="#005BAB" points="78.317,0.81 74.176,0.81 74.176,27.805 78.317,27.805 78.317,12.52 83.805,12.52 83.805,9.178 
				78.317,9.178 			"/>
			<path fill="#005BAB" d="M56.967,33.86l-0.003-10.022H52.83L52.824,33.86c0,2.006,1.636,3.641,3.648,3.641h21.852v-3.333H57.277
				C57.104,34.168,56.967,34.03,56.967,33.86z"/>
			<g>
				<path fill="#005BAB" d="M59.808,5.253V1.647h-4.135v3.605c0,10.685-10.23,12.88-10.933,13.019l2.785,2.79
					c2.468-0.767,7.753-2.897,10.215-7.568c2.455,4.656,7.718,6.787,10.188,7.561l2.788-2.785
					C69.856,18.094,59.808,15.846,59.808,5.253z"/>
			</g>
		</g>
		<g>
			<g>
				<polygon fill="#005BAB" points="210.202,16.668 206.118,16.668 206.118,31.122 201.127,31.122 201.127,16.668 197.049,16.668 
					197.049,31.122 188.34,31.122 188.34,34.426 222.926,34.426 222.926,31.122 210.202,31.122 				"/>
				<path fill="#005BAB" d="M215.227,17.187c0,5.866-1.455,9.267-1.455,9.267h4.137c0,0,1.426-3.4,1.426-9.267V2.531h-0.01V2.527
					h-27.344v3.298h23.246V17.187z"/>
			</g>
		</g>
		<g>
			<polygon fill="#005BAB" points="172.961,9.178 172.961,0.822 168.813,0.822 168.813,22.736 172.961,22.736 172.961,12.531 
				178.465,12.531 178.465,9.178 			"/>
			<polygon fill="#005BAB" points="172.958,24.382 146.75,24.382 146.75,27.732 168.813,27.732 168.813,38.008 172.961,38.008 
				172.961,24.396 172.958,24.396 			"/>
			<path fill="#005BAB" d="M162.475,12.75c0-1.97-0.744-3.775-1.984-5.213h5.105v-3.37h-10.482V0h-4.154v4.167h-10.475v3.37h5.104
				c-1.24,1.438-1.994,3.243-1.994,5.213c0,4.698,4.23,8.508,9.443,8.508S162.475,17.448,162.475,12.75z M147.774,12.718
				c0-2.859,2.354-5.175,5.264-5.175c2.904,0,5.266,2.315,5.266,5.175c0,2.853-2.361,5.173-5.266,5.173
				C150.127,17.891,147.774,15.57,147.774,12.718z"/>
		</g>
	</g>
</g>
</svg>
