<svg xmlns="http://www.w3.org/2000/svg" width="247.2" height="98" viewBox="0 0 247.2033 98"><defs><style>.cls-1{fill:#0f86e4;stroke:#0f86e4;stroke-miterlimit:10;stroke-width:0.25px;}</style></defs><title>logo-svg-gras</title><path class="cls-1" d="M98.1277,70.5446a.49.49,0,0,1,.4891-.4921h.6054V64.4382h-.6054a.4879.4879,0,1,1,0-.9757h2.1893a.4879.4879,0,1,1,0,.9757h-.6053v5.6143h.6053a.4892.4892,0,1,1,0,.9783H98.6168A.4886.4886,0,0,1,98.1277,70.5446Z"/><path class="cls-1" d="M103.9,65.1226l.0255-.0055a6.6741,6.6741,0,0,1,2.3135-.4837h.0029a2.0479,2.0479,0,0,1,1.5781.5966,2.7335,2.7335,0,0,1,.5573,1.864v3.4506a.4879.4879,0,0,1-.9758,0v-3.448c-.0168-1.0038-.232-1.4846-1.16-1.4846h-.0029a6.0082,6.0082,0,0,0-1.8469.3733l-.0423.0139v4.5454a.4879.4879,0,0,1-.9757,0v-4.596l-.597-.3366a.4911.4911,0,0,1,.2433-.9166.5145.5145,0,0,1,.24.0651Z"/><path class="cls-1" d="M112.3964,67.2044l1.1513.4523c1.0267.3905,1.4678,1.0126,1.4678,1.6914,0,1.0861-.9219,1.8157-2.1977,1.8157a3.5547,3.5547,0,0,1-2.1834-.8115.49.49,0,0,1,.3026-.8741.4782.4782,0,0,1,.3.1045,2.5879,2.5879,0,0,0,1.581.6027c.7525,0,1.2219-.3368,1.2219-.8373,0-.1584-.0651-.4865-.8427-.7805l-1.16-.4582a1.96,1.96,0,0,1-1.4678-1.7962,1.8765,1.8765,0,0,1,2.0334-1.7337,3.2217,3.2217,0,0,1,1.6124.444.496.496,0,0,1,.243.4214.49.49,0,0,1-.4892.4924c-.2743,0-.5969-.382-1.3662-.382-.5572,0-1.0548.3026-1.0548.7579C111.5481,66.7346,111.8111,66.9753,112.3964,67.2044Z"/><path class="cls-1" d="M117.3941,64.7322V63.0749a.4879.4879,0,1,1,.9758,0v1.6573h.6534a.488.488,0,1,1,0,.976H118.37v2.9782c0,1.0012.181,1.3661,1.2135,1.3661a.4892.4892,0,1,1,0,.9783c-1.9092,0-2.1893-1.1709-2.1893-2.3444V65.7082h-.52a.488.488,0,1,1,0-.976Z"/><path class="cls-1" d="M122.3834,62.45a.7622.7622,0,1,1-.7637.7635A.7638.7638,0,0,1,122.3834,62.45Zm.0452,8.5951a.4864.4864,0,0,1-.4865-.4862V65.19a.4879.4879,0,0,1,.9757,0v5.3685A.487.487,0,0,1,122.4286,71.045Z"/><path class="cls-1" d="M125.8085,64.7322V63.0749a.4879.4879,0,1,1,.9757,0v1.6573h.6534a.488.488,0,1,1,0,.976h-.6534v2.9782c.0029,1.0012.1811,1.3661,1.2133,1.3661a.4892.4892,0,1,1,0,.9783c-1.9089,0-2.189-1.1709-2.189-2.3444V65.7082h-.52a.488.488,0,1,1,0-.976Z"/><path class="cls-1" d="M134.4659,70.6462l-.0281.0113a5.9148,5.9148,0,0,1-2.2316.5063c-1.81,0-2.0308-1.4226-2.0421-2.4774V65.2245a.4879.4879,0,1,1,.9758,0v3.4561c.017,1.106.212,1.5048,1.0663,1.5048a4.9965,4.9965,0,0,0,1.7592-.3849l.0368-.0168V65.2245a.4893.4893,0,1,1,.9786,0v4.5873l.594.34a.49.49,0,0,1-.2406.9163.4586.4586,0,0,1-.24-.0678Z"/><path class="cls-1" d="M137.9787,64.7322V63.0749a.4893.4893,0,1,1,.9786,0v1.6573h.65a.488.488,0,1,1,0,.976h-.65v2.9782c0,1.0012.1781,1.3661,1.2106,1.3661a.4892.4892,0,1,1,0,.9783c-1.9092,0-2.1892-1.1709-2.1892-2.3444V65.7082h-.52a.488.488,0,0,1,0-.976Z"/><path class="cls-1" d="M147.233,65.1226l.0283-.0055a6.6608,6.6608,0,0,1,2.3135-.4837h.0029a2.0519,2.0519,0,0,1,1.5782.5966,2.7468,2.7468,0,0,1,.5572,1.864v3.4506a.4893.4893,0,0,1-.9786,0v-3.448c-.0168-1.0038-.232-1.4846-1.1568-1.4846h-.0029a6.01,6.01,0,0,0-1.8469.3733l-.0423.0139v4.5454a.4879.4879,0,0,1-.9757,0v-4.596l-.5969-.3366a.4833.4833,0,0,1-.2459-.4243.4937.4937,0,0,1,.4892-.4923.5241.5241,0,0,1,.24.0651Z"/><path class="cls-1" d="M156.0829,64.5795c1.4878,0,2.2741,1.0464,2.2741,2.6642v2.5768l.5966.3394a.483.483,0,0,1,.2462.424.483.483,0,0,1-.73.4217l-.6024-.3394-.031.0142a4.3254,4.3254,0,0,1-1.8244.4834,1.9872,1.9872,0,0,1-2.22-2.0193,2.0112,2.0112,0,0,1,2.0447-2.0479,2.5948,2.5948,0,0,1,1.4455.4582l.0988.0623v-.3734c0-1.2332-.5089-1.6884-1.2981-1.6884-.9954,0-1.0435.3478-1.38.3478a.487.487,0,0,1-.2659-.8964A2.9382,2.9382,0,0,1,156.0829,64.5795Zm1.2616,5.2552.0365-.0142v-.9957l-.0139-.0142a1.9751,1.9751,0,0,0-1.53-.738,1.038,1.038,0,0,0-1.069,1.0719c0,.3846.1388,1.0409,1.2445,1.0409A3.5891,3.5891,0,0,0,157.3445,69.8347Z"/><path class="cls-1" d="M161.1739,64.7322V63.0749a.4879.4879,0,1,1,.9757,0v1.6573h.6534a.488.488,0,1,1,0,.976H162.15v2.9782c.0029,1.0012.181,1.3661,1.2135,1.3661a.4892.4892,0,1,1,0,.9783c-1.9092,0-2.1892-1.1709-2.1892-2.3444V65.7082h-.52a.488.488,0,1,1,0-.976Z"/><path class="cls-1" d="M166.1632,62.45a.7622.7622,0,1,1-.7638.7635A.7638.7638,0,0,1,166.1632,62.45Zm.0481,8.5951a.4871.4871,0,0,1-.4895-.4862V65.19a.4879.4879,0,0,1,.9757,0v5.3685A.4864.4864,0,0,1,166.2113,71.045Z"/><path class="cls-1" d="M171.61,71.1638c-.8315,0-2.6952-.5089-2.6952-3.295,0-2.78,1.8637-3.2893,2.6952-3.2893.8289,0,2.6955.5092,2.6955,3.2893C174.3059,70.6549,172.4393,71.1638,171.61,71.1638Zm1.7169-3.295c0-2.2484-1.4594-2.3135-1.7169-2.3135s-1.72.0651-1.72,2.3135c0,2.257,1.4623,2.3166,1.72,2.3166S173.3273,70.1258,173.3273,67.8688Z"/><path class="cls-1" d="M177.2305,65.1226l.0255-.0055a6.6565,6.6565,0,0,1,2.3135-.4837h.0029a2.0479,2.0479,0,0,1,1.5781.5966,2.735,2.735,0,0,1,.5572,1.864v3.4506a.488.488,0,0,1-.976,0v-3.448c-.0168-1.0038-.2317-1.4846-1.1593-1.4846H179.57a6.0056,6.0056,0,0,0-1.847.3733l-.0425.0139v4.5454a.4879.4879,0,0,1-.9758,0v-4.596l-.5966-.3366a.491.491,0,0,1,.2433-.9166.5237.5237,0,0,1,.24.0651Z"/><path class="cls-1" d="M186.0775,64.5795c1.4875,0,2.2739,1.0464,2.2739,2.6642v2.5768l.5969.3394a.4835.4835,0,0,1,.2459.424.4828.4828,0,0,1-.73.4217l-.6024-.3394-.0313.0142a4.3238,4.3238,0,0,1-1.8243.4834,1.9872,1.9872,0,0,1-2.22-2.0193,2.0115,2.0115,0,0,1,2.0451-2.0479,2.5867,2.5867,0,0,1,1.4452.4582l.099.0623v-.3734c0-1.2332-.5091-1.6884-1.2981-1.6884-.9957,0-1.0438.3478-1.38.3478a.4869.4869,0,0,1-.2659-.8964A2.937,2.937,0,0,1,186.0775,64.5795Zm1.2613,5.2552.0368-.0142v-.9957l-.0142-.0142a1.9747,1.9747,0,0,0-1.53-.738,1.04,1.04,0,0,0-1.0693,1.0719c0,.3846.1387,1.0409,1.2445,1.0409A3.5733,3.5733,0,0,0,187.3388,69.8347Z"/><path class="cls-1" d="M191.44,62.5829a.4875.4875,0,0,1,.4865.492v5.6115a3.6,3.6,0,0,0,.0762.7863c.0878.39.2265.58.7553.58a.4892.4892,0,0,1-.0029.9783c-1.0831,0-1.8043-.5769-1.8043-2.3444V63.0749A.4881.4881,0,0,1,191.44,62.5829Z"/><path class="cls-1" d="M102.9924,83.8179l-.0312.0142a4.4092,4.4092,0,0,1-1.8273.4837c-1.3009,0-2.7574-.6366-2.7574-3.3292,0-1.8469.9334-3.25,2.336-3.25a3.7825,3.7825,0,0,1,1.7085.4892l.0933.0539v-2.048a.4879.4879,0,0,1,.9757,0v6.743l.5969.3394a.4826.4826,0,0,1,.2459.424.4824.4824,0,0,1-.73.4214Zm-.5149-.84.0368-.0139V79.3574l-.0284-.02a3.5685,3.5685,0,0,0-1.7734-.6279c-.8144,0-1.36,1.007-1.36,2.2767,0,1.8356.7128,2.3531,1.7817,2.3531A3.5934,3.5934,0,0,0,102.4775,82.9777Z"/><path class="cls-1" d="M110.6457,83.4814a.48.48,0,0,1-.2885.4411,4.075,4.075,0,0,1-1.64.3988c-1.352,0-2.8255-.8344-2.8255-3.2867,0-1.4365.543-3.2947,2.7238-3.2947,1.8976,0,2.3729,1.7847,2.3729,3.0289a2.6788,2.6788,0,0,1-.0113.3026.485.485,0,0,1-.4866.4469h-3.5889l.0084.071a1.7278,1.7278,0,0,0,1.79,1.7591,5.7707,5.7707,0,0,0,1.4565-.3591A.4915.4915,0,0,1,110.6457,83.4814Zm-2.0306-4.7631c-1.0241,0-1.5671.6759-1.7055,1.7565l-.0084.0678h3.0969l-.0058-.0649C109.8764,78.9954,109.1666,78.7183,108.6151,78.7183Z"/><path class="cls-1" d="M114.7241,80.3616l1.1513.4555c1.0267.3931,1.4678,1.0126,1.4678,1.6885,0,1.0861-.9219,1.8157-2.2,1.8157a3.5539,3.5539,0,0,1-2.1808-.8118.4815.4815,0,0,1-.1865-.3818.4892.4892,0,0,1,.4891-.4891.48.48,0,0,1,.3.1074,2.588,2.588,0,0,0,1.5784.6024c.7551,0,1.2216-.3365,1.2216-.8428,0-.1558-.0619-.481-.84-.775l-1.16-.4582a1.9683,1.9683,0,0,1-1.4678-1.7959,1.8747,1.8747,0,0,1,2.0334-1.7366,3.2262,3.2262,0,0,1,1.6123.4466.4867.4867,0,0,1-.2461.908c-.2714,0-.5969-.3762-1.3662-.3762-.5572,0-1.0548.3-1.0548.7582C113.8758,79.8979,114.1388,80.1325,114.7241,80.3616Z"/><path class="cls-1" d="M124.0152,75.7459a.4889.4889,0,0,1,.4894.4862v5.6115a3.7343,3.7343,0,0,0,.0736.7863c.09.3959.2262.58.755.5856a.4879.4879,0,1,1-.0029.9757c-1.08,0-1.8043-.5743-1.8043-2.3476V76.2321A.4889.4889,0,0,1,124.0152,75.7459Z"/><path class="cls-1" d="M129.6153,77.74c1.4878,0,2.277,1.0493,2.277,2.6668v2.5739l.5937.3365a.5014.5014,0,0,1,.2491.4272.489.489,0,0,1-.4895.4866.5.5,0,0,1-.24-.0623l-.6024-.3394-.031.0142a4.3722,4.3722,0,0,1-1.8243.4779,1.99,1.99,0,0,1-2.2231-2.02,2.0117,2.0117,0,0,1,2.045-2.0418,2.6383,2.6383,0,0,1,1.4481.4524l.0962.0681v-.3737c0-1.2387-.5063-1.6884-1.2984-1.6884-.9925,0-1.0435.3481-1.38.3481a.4908.4908,0,0,1-.2629-.9025A2.9734,2.9734,0,0,1,129.6153,77.74Zm1.2645,5.2578.0339-.02v-.99l-.0113-.0139a1.9838,1.9838,0,0,0-1.533-.7412,1.0407,1.0407,0,0,0-1.0693,1.069c0,.3876.1387,1.0467,1.2474,1.0467A3.6026,3.6026,0,0,0,130.88,82.9977Z"/><path class="cls-1" d="M135.2522,78.283l.0255-.0087a6.9513,6.9513,0,0,1,2.3135-.4808h.0029a2.0576,2.0576,0,0,1,1.5781.5969,2.7239,2.7239,0,0,1,.5572,1.8608v3.4506a.4879.4879,0,1,1-.9757,0V80.2541c-.0171-1.0041-.232-1.4791-1.16-1.4791h-.0029a6.2188,6.2188,0,0,0-1.8469.3675l-.0423.02v4.5393a.4879.4879,0,1,1-.9758,0v-4.59l-.5969-.3424a.4856.4856,0,0,1,.2433-.9079.4759.4759,0,0,1,.24.06Z"/><path class="cls-1" d="M146.0988,83.7782l-.0933.0539a3.8194,3.8194,0,0,1-1.711.4892c-1.4,0-2.3335-1.403-2.3335-3.25,0-2.6923,1.4568-3.3315,2.7578-3.3315a4.27,4.27,0,0,1,1.8327.5089l.031.02.6053-.3479a.4757.4757,0,0,1,.24-.06.4845.4845,0,0,1,.24.9079l-.5937.3424v5.4839c-.0116.6647-.4075,1.8924-2.2515,1.8924a6.0017,6.0017,0,0,1-1.5952-.2291.4895.4895,0,0,1,.1358-.9589,7.7087,7.7087,0,0,0,1.4594.2094c.956,0,1.2642-.3507,1.2755-.9164Zm-.0281-1.0577.0281-.02v-3.586L146.062,79.1a3.44,3.44,0,0,0-1.3432-.382c-1.0693,0-1.7821.5178-1.7821,2.3531,0,1.27.5431,2.277,1.3578,2.277A3.5435,3.5435,0,0,0,146.0707,82.7205Z"/><path class="cls-1" d="M154.14,83.81l-.0283.0113a5.9124,5.9124,0,0,1-2.2342.5c-1.81,0-2.0279-1.4169-2.0421-2.4777V78.3817a.4893.4893,0,0,1,.9786,0v3.4619c.0142,1.1031.2091,1.5048,1.0635,1.5048a4.9942,4.9942,0,0,0,1.7592-.39l.04-.0171V78.3817a.4879.4879,0,0,1,.9757,0v4.5934l.5966.3394a.4829.4829,0,0,1,.2462.424.4827.4827,0,0,1-.73.4214Z"/><path class="cls-1" d="M161.8018,83.4814a.48.48,0,0,1-.2885.4411,4.0739,4.0739,0,0,1-1.6375.3988c-1.3549,0-2.8285-.8344-2.8285-3.2867,0-1.4365.5431-3.2947,2.7236-3.2947,1.8979,0,2.3732,1.7847,2.3732,3.0289,0,.181-.0087.2942-.0087.3026a.4888.4888,0,0,1-.4863.4469H158.057l.0087.071a1.7277,1.7277,0,0,0,1.79,1.7591,5.77,5.77,0,0,0,1.4568-.3591A.4915.4915,0,0,1,161.8018,83.4814Zm-2.0309-4.7631c-1.0209,0-1.5639.6759-1.7052,1.7565l-.0087.0678h3.0972l-.0058-.0649C161.0354,78.9954,160.3227,78.7183,159.7709,78.7183Z"/><path class="cls-1" d="M165.88,80.3616l1.1513.4555c1.0267.3931,1.4678,1.0126,1.4678,1.6885,0,1.0861-.9219,1.8157-2.1977,1.8157a3.5552,3.5552,0,0,1-2.1834-.8118.4816.4816,0,0,1-.1866-.3818.4893.4893,0,0,1,.4892-.4891.4808.4808,0,0,1,.3.1074,2.5892,2.5892,0,0,0,1.581.6024c.7525,0,1.219-.3365,1.219-.8428,0-.1558-.0622-.481-.84-.775l-1.16-.4582a1.9683,1.9683,0,0,1-1.4678-1.7959,1.8747,1.8747,0,0,1,2.0334-1.7366,3.2249,3.2249,0,0,1,1.6121.4466.4866.4866,0,0,1-.2459.908c-.2743,0-.5969-.3762-1.3662-.3762-.5572,0-1.0551.3-1.0551.7582C165.0316,79.8979,165.2949,80.1325,165.88,80.3616Z"/><path class="cls-1" d="M103.128,97.1335a.4882.4882,0,0,1-.2914.4443,4.0952,4.0952,0,0,1-1.6375.3988c-1.352,0-2.8255-.8318-2.8255-3.2924,0-1.4339.54-3.2921,2.7238-3.2921,1.8976,0,2.3729,1.7846,2.3729,3.0291,0,.1781-.0113.2972-.0113.3085a.4842.4842,0,0,1-.4865.4411h-3.589l.0084.0706a1.7236,1.7236,0,0,0,1.7875,1.7592,5.8044,5.8044,0,0,0,1.4594-.3591A.4935.4935,0,0,1,103.128,97.1335Zm-2.0306-4.7657c-1.0241,0-1.5671.676-1.7055,1.76l-.0084.0706h3.094l-.0055-.0706C102.3588,92.645,101.646,92.3678,101.0974,92.3678Z"/><path class="cls-1" d="M105.99,91.5476v-1.66a.4879.4879,0,1,1,.9757,0v1.66h.6534a.4879.4879,0,1,1,0,.9757h-.6534v2.9756c0,1.0041.1811,1.3688,1.2136,1.3688a.488.488,0,0,1,0,.976c-1.9092,0-2.1893-1.171-2.1893-2.3448V92.5233h-.52a.4879.4879,0,1,1,0-.9757Z"/><path class="cls-1" d="M117.1057,97.0006c.7353,0,.9108-.3053,1.1851-.3053a.485.485,0,0,1,.4892.4863c0,.6366-1.29.795-1.6743.795-1.1258,0-2.8172-.614-2.8172-3.295,0-2.7039,1.7114-3.29,2.8172-3.29.3846,0,1.6743.1584,1.6743.7947a.4894.4894,0,0,1-.4892.4895c-.2743,0-.45-.3085-1.1851-.3085s-1.8385.3253-1.8385,2.3138C115.2672,96.6386,116.3732,97.0006,117.1057,97.0006Z"/><path class="cls-1" d="M121.3454,89.2651a.7638.7638,0,1,1-.7637.7608A.7615.7615,0,0,1,121.3454,89.2651Zm.0481,8.5983a.4915.4915,0,0,1-.4894-.4895V92.0032a.4879.4879,0,0,1,.9757,0v5.3707A.4908.4908,0,0,1,121.3935,97.8634Z"/><path class="cls-1" d="M125.4294,95.21a5.0048,5.0048,0,0,0,.9957,1.383l.0452.0539.0452-.0539a5.0048,5.0048,0,0,0,.9957-1.383,22.8291,22.8291,0,0,0,.5656-3.2469.4877.4877,0,0,1,.9729.051,24.0084,24.0084,0,0,1-.6192,3.5241,7.3921,7.3921,0,0,1-1.6292,2.158.4745.4745,0,0,1-.6646-.0058,6.7619,6.7619,0,0,1-1.6266-2.1522c-.2346-.6621-.6192-3.5241-.6192-3.5241a.484.484,0,0,1,.4892-.4895.4936.4936,0,0,1,.4837.4385A22.7868,22.7868,0,0,0,125.4294,95.21Z"/><path class="cls-1" d="M131.5416,89.2651a.7638.7638,0,1,1-.7609.7608A.76.76,0,0,1,131.5416,89.2651Zm.048,8.5983a.4934.4934,0,0,1-.4894-.4895V92.0032a.4893.4893,0,0,1,.9786,0v5.3707A.4933.4933,0,0,1,131.59,97.8634Z"/><path class="cls-1" d="M135.0318,89.398a.4877.4877,0,0,1,.4892.49v5.6114a3.5191,3.5191,0,0,0,.0764.7863c.0875.39.2233.58.7522.5825a.488.488,0,0,1,0,.976c-1.0832,0-1.8044-.5772-1.8044-2.3448V89.8875A.4872.4872,0,0,1,135.0318,89.398Z"/><path class="cls-1" d="M139.1441,89.2651a.7638.7638,0,1,1-.7637.7608A.7615.7615,0,0,1,139.1441,89.2651Zm.0452,8.5983a.4909.4909,0,0,1-.4866-.4895V92.0032a.4879.4879,0,0,1,.9758,0v5.3707A.4914.4914,0,0,1,139.1893,97.8634Z"/><path class="cls-1" d="M143.7175,94.0169l1.1539.4524c1.0267.3933,1.4652,1.0125,1.4652,1.6885,0,1.0861-.9222,1.8188-2.1977,1.8188a3.5515,3.5515,0,0,1-2.1834-.8089.4905.4905,0,1,1,.6053-.7721,2.5642,2.5642,0,0,0,1.5781.605c.7522,0,1.2219-.3391,1.2219-.8428,0-.1555-.0651-.4779-.843-.775l-1.1568-.4582a1.9565,1.9565,0,0,1-1.4678-1.7986,1.874,1.874,0,0,1,2.0308-1.7339,3.2691,3.2691,0,0,1,1.615.444.4913.4913,0,0,1-.2462.9137c-.2743,0-.6-.382-1.3688-.382-.5572,0-1.0551.3085-1.0551.7582C142.8689,93.5474,143.1348,93.7878,143.7175,94.0169Z"/><path class="cls-1" d="M150.4347,91.3921c1.4878,0,2.2741,1.0493,2.2741,2.6671V96.636l.5966.3394a.4783.4783,0,0,1,.2462.4214.4883.4883,0,0,1-.4865.4863.4689.4689,0,0,1-.24-.0623l-.6024-.3391-.031.0139a4.3769,4.3769,0,0,1-1.8244.481,1.99,1.99,0,0,1-2.2231-2.02,2.0128,2.0128,0,0,1,2.0447-2.0476,2.5814,2.5814,0,0,1,1.4455.4581l.0991.062v-.37c0-1.2358-.5065-1.6914-1.2984-1.6914-.9928,0-1.0435.3478-1.38.3478a.4863.4863,0,0,1-.4863-.4862.4949.4949,0,0,1,.2233-.413A2.9447,2.9447,0,0,1,150.4347,91.3921Zm1.2616,5.2578.0368-.02v-.99l-.0142-.0168a1.9814,1.9814,0,0,0-1.53-.7356,1.0377,1.0377,0,0,0-1.069,1.0693c0,.3846.1388,1.0435,1.2474,1.0435A3.5735,3.5735,0,0,0,151.6963,96.65Z"/><path class="cls-1" d="M155.5257,91.5476v-1.66a.4893.4893,0,1,1,.9786,0v1.66h.6534a.4879.4879,0,0,1,0,.9757h-.6534v2.9756c0,1.0041.181,1.3688,1.2106,1.3688a.488.488,0,1,1,0,.976c-1.9063,0-2.1863-1.171-2.1863-2.3448l-.0029-2.9756h-.52a.4879.4879,0,0,1,0-.9757Z"/><path class="cls-1" d="M160.515,89.2651a.7638.7638,0,1,1-.7609.7608A.76.76,0,0,1,160.515,89.2651Zm.0481,8.5983a.4934.4934,0,0,1-.4895-.4895V92.0032a.4893.4893,0,0,1,.9786,0v5.3707A.4931.4931,0,0,1,160.5631,97.8634Z"/><path class="cls-1" d="M165.9622,97.9766c-.8286,0-2.6952-.5091-2.6952-3.2924,0-2.78,1.8666-3.2921,2.6952-3.2921.8315,0,2.6955.512,2.6955,3.2921C168.6577,97.4675,166.7937,97.9766,165.9622,97.9766Zm1.72-3.2924c0-2.2512-1.4623-2.3164-1.72-2.3164s-1.7195.0652-1.7195,2.3164c0,2.2544,1.4623,2.3164,1.7195,2.3164S167.682,96.9386,167.682,94.6842Z"/><path class="cls-1" d="M171.5823,91.9409l.0281-.0113a6.7159,6.7159,0,0,1,2.3109-.481h.0029a2.0392,2.0392,0,0,1,1.5781.6,2.6917,2.6917,0,0,1,.5572,1.8553v3.4505a.4879.4879,0,1,1-.9757,0V93.91c-.0171-1.0013-.232-1.4823-1.16-1.4823h-.0029a6.0846,6.0846,0,0,0-1.8441.3707l-.0425.0142v4.5421a.4894.4894,0,1,1-.9787,0l.0029-4.59-.5969-.3368a.4924.4924,0,0,1-.2459-.43.4865.4865,0,0,1,.4866-.4866.4706.4706,0,0,1,.24.0623Z"/><path class="cls-1" d="M180.0786,94.0169l1.1539.4524c1.0267.3933,1.4652,1.0125,1.4652,1.6885,0,1.0861-.9222,1.8188-2.1977,1.8188a3.5513,3.5513,0,0,1-2.1834-.8089.49.49,0,1,1,.605-.7721,2.5653,2.5653,0,0,0,1.5784.605c.7522,0,1.2216-.3391,1.2216-.8428,0-.1555-.0648-.4779-.8428-.775l-1.1567-.4582a1.9561,1.9561,0,0,1-1.4678-1.7986,1.874,1.874,0,0,1,2.0308-1.7339,3.2684,3.2684,0,0,1,1.6149.444.4913.4913,0,0,1-.2461.9137c-.2743,0-.6-.382-1.3688-.382-.5572,0-1.0551.3085-1.0551.7582C179.23,93.5474,179.4959,93.7878,180.0786,94.0169Z"/><path class="cls-1" d="M191.3353,97.9766c-.8315,0-2.6955-.5091-2.6955-3.2924,0-2.78,1.864-3.2921,2.6955-3.2921.8286,0,2.6952.512,2.6952,3.2921C194.0305,97.4675,192.1639,97.9766,191.3353,97.9766Zm1.7169-3.2924c0-2.2512-1.46-2.3164-1.7169-2.3164s-1.72.0652-1.72,2.3164c0,2.2544,1.4622,2.3164,1.72,2.3164S193.0522,96.9386,193.0522,94.6842Z"/><path class="cls-1" d="M197.4359,97.3487a.4893.4893,0,1,1-.9786,0V92.7724l-.6418-.3394a.4973.4973,0,0,1-.2633-.4356.4875.4875,0,0,1,.4895-.4892.4637.4637,0,0,1,.2178.0507l.6788.362.031-.0139a4.278,4.278,0,0,1,1.8469-.5178c.8032,0,1.6095.5062,1.6095.925a.477.477,0,0,1-.4753.4695c-.3252,0-.5375-.4185-1.1342-.4185a3.5675,3.5675,0,0,0-1.3464.3788l-.0339.02Z"/><path class="cls-1" d="M202.7788,89.2651a.7638.7638,0,1,1-.7608.7608A.7615.7615,0,0,1,202.7788,89.2651Zm.0481,8.5983a.4915.4915,0,0,1-.4894-.4895V92.0032a.4879.4879,0,0,1,.9757,0v5.3707A.4908.4908,0,0,1,202.8269,97.8634Z"/><path class="cls-1" d="M210.28,97.1335a.4882.4882,0,0,1-.2914.4443,4.0979,4.0979,0,0,1-1.6375.3988c-1.352,0-2.8256-.8318-2.8256-3.2924,0-1.4339.54-3.2921,2.7236-3.2921,1.8979,0,2.3732,1.7846,2.3732,3.0291,0,.1781-.0113.2972-.0113.3085a.4844.4844,0,0,1-.4866.4411h-3.5893l.0087.0706a1.725,1.725,0,0,0,1.7873,1.7592,5.8053,5.8053,0,0,0,1.46-.3591A.4935.4935,0,0,1,210.28,97.1335Zm-2.0309-4.7657c-1.0238,0-1.5668.676-1.7053,1.76l-.0087.0706h3.0944l-.0029-.0706C209.51,92.645,208.8,92.3678,208.2486,92.3678Z"/><path class="cls-1" d="M213.5319,91.9409l.0284-.0113a6.7317,6.7317,0,0,1,2.3109-.481h.0055a2.0431,2.0431,0,0,1,1.5781.6,2.7018,2.7018,0,0,1,.5544,1.8553v3.4505a.4879.4879,0,1,1-.9758,0V93.91c-.0168-1.0013-.232-1.4823-1.1567-1.4823h-.0055a6.0876,6.0876,0,0,0-1.8443.3707l-.0423.0142v4.5421a.4879.4879,0,1,1-.9758,0v-4.59l-.5969-.3368a.491.491,0,0,1,.24-.9164.4861.4861,0,0,1,.2433.0623Z"/><path class="cls-1" d="M220.7357,91.5476v-1.66a.4893.4893,0,1,1,.9786,0v1.66h.6534a.4879.4879,0,0,1,0,.9757h-.6534v2.9756c0,1.0041.1784,1.3688,1.2106,1.3688a.488.488,0,1,1,0,.976c-1.9063,0-2.1863-1.171-2.1892-2.3448V92.5233h-.52a.4879.4879,0,0,1,0-.9757Z"/><path class="cls-1" d="M227.2182,91.3921c1.4878,0,2.2741,1.0493,2.2741,2.6671V96.636l.5941.3394a.4809.4809,0,0,1,.2487.4214.4888.4888,0,0,1-.4891.4863.4772.4772,0,0,1-.2407-.0623l-.6024-.3391-.031.0139a4.3638,4.3638,0,0,1-1.8243.481,1.9872,1.9872,0,0,1-2.22-2.02A2.0106,2.0106,0,0,1,226.97,93.91a2.5976,2.5976,0,0,1,1.4481.4581l.0961.062v-.37c0-1.2358-.5062-1.6914-1.2955-1.6914-.9954,0-1.0463.3478-1.38.3478a.487.487,0,0,1-.4895-.4862.4952.4952,0,0,1,.2236-.413A2.9584,2.9584,0,0,1,227.2182,91.3921ZM228.48,96.65l.0339-.02v-.99l-.0113-.0168a1.9824,1.9824,0,0,0-1.5329-.7356,1.0352,1.0352,0,0,0-1.0664,1.0693c0,.3846.1387,1.0435,1.2445,1.0435A3.6021,3.6021,0,0,0,228.48,96.65Z"/><path class="cls-1" d="M232.5809,89.398a.4871.4871,0,0,1,.4865.49v5.6114a3.5394,3.5394,0,0,0,.0762.7863c.0878.39.2236.58.7525.5825a.488.488,0,1,1,0,.976c-1.0832,0-1.8047-.5772-1.8047-2.3448V89.8875A.4878.4878,0,0,1,232.5809,89.398Z"/><path class="cls-1" d="M240.5058,97.1335a.49.49,0,0,1-.2885.4443,4.11,4.11,0,0,1-1.6375.3988c-1.3549,0-2.8256-.8318-2.8256-3.2924,0-1.4339.54-3.2921,2.7237-3.2921,1.8978,0,2.3731,1.7846,2.3731,3.0291,0,.1781-.0113.2972-.0113.3085a.4844.4844,0,0,1-.4866.4411h-3.5892l.0087.0706a1.7235,1.7235,0,0,0,1.7872,1.7592,5.8411,5.8411,0,0,0,1.46-.3591A.4911.4911,0,0,1,240.5058,97.1335Zm-2.0279-4.7657c-1.0239,0-1.5669.676-1.7053,1.76l-.0113.0706h3.0969l-.0058-.0706C239.7394,92.645,239.0267,92.3678,238.4779,92.3678Z"/><path class="cls-1" d="M244.5842,94.0169l1.1542.4524c1.0238.3933,1.4649,1.0125,1.4649,1.6885,0,1.0861-.9219,1.8188-2.1977,1.8188a3.5526,3.5526,0,0,1-2.1834-.8089.4905.4905,0,1,1,.6053-.7721,2.5646,2.5646,0,0,0,1.5781.605c.7525,0,1.2219-.3391,1.2219-.8428,0-.1555-.0651-.4779-.8428-.775l-1.1567-.4582A1.9564,1.9564,0,0,1,242.76,93.126a1.8741,1.8741,0,0,1,2.0308-1.7339,3.2667,3.2667,0,0,1,1.6149.444.4963.4963,0,0,1,.24.4243.4877.4877,0,0,1-.4891.4894c-.2717,0-.5969-.382-1.3662-.382-.5572,0-1.0548.3085-1.0548.7582C243.7359,93.5474,244.0018,93.7878,244.5842,94.0169Z"/><path class="cls-1" d="M185.803,39.8528c0,8.1372-5.1758,8.4934-6.3016,8.4934-1.1313,0-6.31-.3562-6.31-8.4934,0-8.14,5.1787-8.49,6.31-8.49,1.1258,0,6.3016.3507,6.3016,8.4905M179.5014,51.91c3.527,0,9.8709-2.2654,9.8709-12.0572s-6.3439-12.0572-9.8709-12.0572c-3.5325,0-9.8793,2.2654-9.8793,12.0572S175.9689,51.91,179.5014,51.91M145.5361,31.3623a6.7906,6.7906,0,0,1,3.4363.8683,1.7824,1.7824,0,1,0,1.8188-3.066,10.3447,10.3447,0,0,0-5.2551-1.369c-4.13,0-10.3149,2.206-10.3149,12.0375,0,9.7209,6.0638,12.0769,10.3149,12.0769a10.3473,10.3473,0,0,0,5.2551-1.369,1.7835,1.7835,0,1,0-1.8188-3.0685,6.7371,6.7371,0,0,1-3.4363.8737c-3.4874,0-6.7485-2.0673-6.7485-8.5131,0-6.2677,3.0123-8.4708,6.7485-8.4708M109.7745,42.8339a14.6537,14.6537,0,0,0,.4811,4.1323,5.5763,5.5763,0,0,0,5.1616,4.4179c.2488.0226.97.0423.97.0423a1.7819,1.7819,0,0,0,0-3.5638c-.2152,0-.6279-.0281-.6279-.0281-1.188-.1188-1.7507-.5517-2.096-1.915a11.9525,11.9525,0,0,1-.3223-3.0856V22.2577a1.7834,1.7834,0,0,0-3.5667,0ZM84.4271,47.003a13.0063,13.0063,0,0,1-5.0232,1.3432c-2.8791,0-4.5676-1.23-4.5676-3.8267a3.8167,3.8167,0,0,1,3.9229-3.9284,7.1654,7.1654,0,0,1,5.6679,2.6955ZM79.6614,27.7956a10.8139,10.8139,0,0,0-6.0244,1.5555,1.7813,1.7813,0,0,0,1.9289,2.9953,7.4032,7.4032,0,0,1,4.0955-.9841c2.9217,0,4.7657,1.6772,4.7657,6.2v1.352a9.7851,9.7851,0,0,0-5.6679-1.8895A7.3725,7.3725,0,0,0,71.2667,44.52c0,4.5282,3.1905,7.39,8.1372,7.39a16.1112,16.1112,0,0,0,6.8079-1.8185l2.2089,1.2558A1.7834,1.7834,0,0,0,90.18,48.2446l-2.1864-1.239V37.5619c0-5.9225-2.8762-9.7663-8.3321-9.7663M51.4149,37.0018c-.07-2.602-.3762-4.9948-2.0493-6.83a7.5167,7.5167,0,0,0-5.7783-2.1748,25.4891,25.4891,0,0,0-8.5826,1.7959l-2.34-1.3264a1.78,1.78,0,1,0-1.7606,3.094l2.1878,1.2474V49.6446a1.7826,1.7826,0,0,0,3.5652,0v-16.67A22.6307,22.6307,0,0,1,43.5873,31.56c3.4,0,4.1706,1.68,4.2624,5.4417V49.6446a1.7826,1.7826,0,0,0,3.5652,0Zm-43.7035-5.75V49.6727a1.7819,1.7819,0,1,0,3.5638,0V31.2519a1.7819,1.7819,0,1,0-3.5638,0"/><path class="cls-1" d="M9.4691,19.6755A2.622,2.622,0,1,0,12.0939,22.3a2.6221,2.6221,0,0,0-2.6248-2.6248"/><polygon class="cls-1" points="150.285 17.977 149.64 17.378 154.406 12.281 135.334 12.281 135.334 11.365 161.038 11.365 161.038 12.281 155.611 12.281 150.285 17.977"/><polygon class="cls-1" points="117.674 17.977 117.031 17.378 121.796 12.281 102.637 12.281 102.637 11.365 128.343 11.365 128.343 12.281 123 12.281 117.674 17.977"/><polygon class="cls-1" points="84.922 17.977 84.28 17.378 89.044 12.281 32.862 12.281 32.862 11.365 95.684 11.365 95.684 12.281 90.248 12.281 84.922 17.977"/><polygon class="cls-1" points="15.262 17.977 14.618 17.378 19.383 12.281 0.083 12.281 0.083 11.365 25.787 11.365 25.787 12.281 20.584 12.281 15.262 17.977"/><polygon class="cls-1" points="182.771 17.977 182.132 17.378 186.895 12.281 167.82 12.281 167.82 11.365 193.524 11.365 193.524 12.281 188.097 12.281 182.771 17.977"/><path class="cls-1" d="M143.03,2.6405l-.4556-.4243c-.2969-.2589-.495-.4228-.5882-.4906l.5459-.4046c.0339.0255.0652.0438.09.0623a6.3323,6.3323,0,0,1,1.0579.8683l-.5233.3889h3.2582v.676H145.307a6.5722,6.5722,0,0,1-1.6462,2.8354l.2264.15a8.6939,8.6939,0,0,0,2.5368,1.13l-.3788.7383a11.3375,11.3375,0,0,1-2.97-1.5089,9.3276,9.3276,0,0,1-3.032,1.5089l-.3762-.7383A7.0488,7.0488,0,0,0,142.524,6.16a7.3573,7.3573,0,0,1-1.6291-2.8438H139.704v-.676Zm-1.372.676A5.6347,5.6347,0,0,0,143.09,5.6978a6.2,6.2,0,0,0,1.431-2.3813Z"/><path class="cls-1" d="M148.1241,4.4179A12.3435,12.3435,0,0,0,149.6,1.74c.0481-.1158.11-.2546.1781-.4185l.6563.2772-.2913.7226a6.6527,6.6527,0,0,1-.2772.6479V8.17h-.7183V4.15c-.0313.0622-.0567.1089-.0706.1413a4.4226,4.4226,0,0,1-.5773.9233Zm3.1195-3.0531h.7325V4.0264a7.5876,7.5876,0,0,0,2.3873-1.8032l.4695.618A8.501,8.501,0,0,1,151.9761,4.83V6.9127c0,.2714.1442.41.43.41h1.2868a.4965.4965,0,0,0,.2968-.0721.9527.9527,0,0,0,.1529-.4949c.04-.283.0765-.6972.11-1.25l.7353.24A5.3527,5.3527,0,0,1,154.6206,7.7a1.0012,1.0012,0,0,1-.8683.3128h-1.4281a1.2877,1.2877,0,0,1-.8431-.2065,1.1567,1.1567,0,0,1-.2375-.8584Z"/><path class="cls-1" d="M119.8886,7.9875l-.6617-5.1688.84-.3125.2968,3.1012a1.2455,1.2455,0,0,0,1.0041-.6067,3.3972,3.3972,0,0,0,.3053-1.6434V2.6194h.857v.6644a3.6515,3.6515,0,0,1-.4834,2.0945,2.3521,2.3521,0,0,1-1.6.8866l.1133.8289q3.6,0,3.5988-3.8821V2.6194h.8544v.5089a4.7839,4.7839,0,0,1-1.0649,3.3037,4.2185,4.2185,0,0,1-1.5712,1.1269,7.097,7.097,0,0,1-2.2753.4185Z"/><path class="cls-1" d="M116.5288,7.0938V5.1379a1.5676,1.5676,0,0,0-.1669-.901,1.9089,1.9089,0,0,0-.901-.4112l-1.12-.3085-.1017.3085a1.3,1.3,0,0,0-.0765.386c0,.3818.2178.5741.6618.5741h.0692l-.2615.7663q-1.239-.1187-1.24-1.0464a4.4431,4.4431,0,0,1,.3238-1.28l.2615-.72,1.9926.5161a2.23,2.23,0,0,1,1.09.5233,1.5913,1.5913,0,0,1,.2685,1.0366V7.0938l-.3053.8937h-4.0318l.3055-.8937Z"/><path class="cls-1" d="M106.86,7.9875h-.799V4.855h.799Zm-1.4849-4.4746.3056-.8935h3.1734a2.4347,2.4347,0,0,1,1.6812.3959A2.8139,2.8139,0,0,1,110.9115,4.8V7.9875h-.8V4.9668a2.4788,2.4788,0,0,0-.1784-1.25c-.1173-.1344-.4793-.2039-1.0788-.2039Z"/><path class="cls-1" d="M93.09,7.8572V2.6078h-.864V4.7745H89.5607V2.6078h-.8628V7.8572h.8628V5.5084h2.6656V7.8572ZM84.768,7.1488a1.6629,1.6629,0,0,1-.6224-.3169,1.4848,1.4848,0,0,1-.4156-.5711,2.0824,2.0824,0,0,1-.1544-.85h3.653c.0041-.113.0055-.1825.0055-.2149V5.0841A3.8226,3.8226,0,0,0,87.07,3.892a2.3218,2.3218,0,0,0-.4469-.8144,1.6909,1.6909,0,0,0-.67-.4582,2.31,2.31,0,0,0-.8287-.1486,2.3947,2.3947,0,0,0-.905.1767,2.1576,2.1576,0,0,0-.7678.5317,2.618,2.618,0,0,0-.5317.88,3.4875,3.4875,0,0,0-.2008,1.246,3.3352,3.3352,0,0,0,.2063,1.2445,2.1625,2.1625,0,0,0,.57.8384,2.2317,2.2317,0,0,0,.8643.4625,3.7458,3.7458,0,0,0,1.0646.1457,5.0209,5.0209,0,0,0,.8981-.08,2.935,2.935,0,0,0,.7-.2178V6.9849a5.1293,5.1293,0,0,1-.7043.1963,4.2671,4.2671,0,0,1-.7834.07,2.8827,2.8827,0,0,1-.7664-.1019m.8483-3.8282a1.1039,1.1039,0,0,1,.389.3084,1.4475,1.4475,0,0,1,.24.4695,1.99,1.99,0,0,1,.0793.5784H83.6211a1.7975,1.7975,0,0,1,.1457-.5741,1.5731,1.5731,0,0,1,.31-.4654,1.4539,1.4539,0,0,1,.45-.3168,1.349,1.349,0,0,1,.5543-.1159,1.193,1.193,0,0,1,.5358.1159m-7.2191-.7128c-.0877.6916-.181,1.28-.276,1.7664-.0988.488-.1949.8952-.2925,1.226a4.3407,4.3407,0,0,1-.307.7877,1.6933,1.6933,0,0,1-.3111.4327.88.88,0,0,1-.33.1967,1.1749,1.1749,0,0,1-.3817.0481.9608.9608,0,0,1-.1329-.0113v.8908a1.4523,1.4523,0,0,0,.2276.0171,2.4282,2.4282,0,0,0,.4385-.0425,1.4426,1.4426,0,0,0,.4666-.1938,1.8207,1.8207,0,0,0,.468-.4469,4.3339,4.3339,0,0,0,.4669-.81,8.82,8.82,0,0,0,.4524-1.2757,15.1764,15.1764,0,0,0,.3748-1.851h1.23V7.8572h.8627V2.6078Zm-3.8963,3.995c-.0408.04-.1045.0991-.1908.1712a2.3924,2.3924,0,0,1-.3166.2221,2.2445,2.2445,0,0,1-.4228.188,1.5563,1.5563,0,0,1-.515.0808,1.28,1.28,0,0,1-.3959-.0582.8744.8744,0,0,1-.3223-.1752.8563.8563,0,0,1-.2149-.3012,1.138,1.138,0,0,1-.075-.4258.8318.8318,0,0,1,.3081-.7113,1.3958,1.3958,0,0,1,.86-.2334,4.4089,4.4089,0,0,1,.72.0652c.2178.0411.4075.0834.5656.1271Zm.14,1.2544h.7226V4.3531a2.7953,2.7953,0,0,0-.0368-.4655A1.4882,1.4882,0,0,0,75.21,3.499a1.6784,1.6784,0,0,0-.7328-.7455,2.6779,2.6779,0,0,0-1.3123-.2827c-.1471,0-.2968.007-.4454.0212-.1471.0185-.2885.0367-.4214.0651a3.6484,3.6484,0,0,0-.3817.0988,2.3944,2.3944,0,0,0-.314.1231v.72a4.9065,4.9065,0,0,1,.7027-.208,3.5667,3.5667,0,0,1,.7538-.0764,1.791,1.791,0,0,1,.8585.1755,1.1114,1.1114,0,0,1,.461.44.89.89,0,0,1,.0947.2943,2.3064,2.3064,0,0,1,.0281.3776v.3676h-.0225a4.0117,4.0117,0,0,0-.6236-.1669,4.5318,4.5318,0,0,0-.7608-.0735,2.61,2.61,0,0,0-.7948.1173,1.814,1.814,0,0,0-.6137.331,1.4927,1.4927,0,0,0-.3988.526,1.6461,1.6461,0,0,0-.1413.7014,1.89,1.89,0,0,0,.1271.7128,1.4621,1.4621,0,0,0,.3592.53,1.53,1.53,0,0,0,.5517.3351,2.1729,2.1729,0,0,0,.7026.1132,2.3079,2.3079,0,0,0,.5347-.0622,2.2343,2.2343,0,0,0,.4639-.164,2.0927,2.0927,0,0,0,.3719-.232,1.5263,1.5263,0,0,0,.2673-.2615h.0226Zm-4.86,0V2.6078h-.8642V4.7745H66.2508V2.6078h-.864V7.8572h.864V5.5084h2.6657V7.8572Zm-5.93-3.7518a2.5343,2.5343,0,0,0-.495-.8723,2.1329,2.1329,0,0,0-.7918-.563,2.67,2.67,0,0,0-1.0522-.1993,2.6372,2.6372,0,0,0-1.038.1993,2.2119,2.2119,0,0,0-.7907.563,2.5987,2.5987,0,0,0-.5033.8723A3.4474,3.4474,0,0,0,59.0019,5.24a3.5191,3.5191,0,0,0,.1726,1.1272,2.41,2.41,0,0,0,.499.8683,2.201,2.201,0,0,0,.7907.56,2.6771,2.6771,0,0,0,1.0548.2007,2.6075,2.6075,0,0,0,1.0351-.2007,2.2349,2.2349,0,0,0,.7892-.56,2.5727,2.5727,0,0,0,.5033-.8683,3.44,3.44,0,0,0,.177-1.1272,3.52,3.52,0,0,0-.1726-1.1342M63.0024,6.098a1.8839,1.8839,0,0,1-.3336.6363,1.4405,1.4405,0,0,1-.5078.3962,1.5016,1.5016,0,0,1-.642.1344,1.531,1.531,0,0,1-.6462-.1344,1.4605,1.4605,0,0,1-.5135-.3962,1.865,1.865,0,0,1-.3351-.6363,2.8188,2.8188,0,0,1-.12-.8584,2.8343,2.8343,0,0,1,.12-.8654,1.9749,1.9749,0,0,1,.3337-.6435,1.4319,1.4319,0,0,1,.5091-.3959,1.6212,1.6212,0,0,1,1.2926,0,1.4526,1.4526,0,0,1,.5092.3959,1.9981,1.9981,0,0,1,.3336.6435,2.8251,2.8251,0,0,1,.12.8654,2.81,2.81,0,0,1-.12.8584M56.7816,3.841h.0212c-.0183.3522-.027,4.0162-.027,4.0162h.8614V2.6078h-.7551s-2.8539,3.8468-2.9559,4.0179h-.024c.0185-.2447.0269-4.0179.0269-4.0179h-.861V7.8572h.7565S56.6782,4.0107,56.7816,3.841ZM50.8479,7.8572V9.7325h.861V7.0909h-.861V2.6078h-.8643V7.0909H47.5667V2.6078h-.8639V7.8572ZM44.1715,6.6028c-.0426.04-.1034.0991-.1908.1712a2.5011,2.5011,0,0,1-.3169.2221,2.28,2.28,0,0,1-.4228.188,1.5646,1.5646,0,0,1-.5161.0808,1.2867,1.2867,0,0,1-.3962-.0582.8919.8919,0,0,1-.3224-.1752.8219.8219,0,0,1-.212-.3012,1.0824,1.0824,0,0,1-.0779-.4258.8289.8289,0,0,1,.31-.7113,1.3946,1.3946,0,0,1,.86-.2334,4.4411,4.4411,0,0,1,.72.0652c.2178.0411.4072.0834.5656.1271Zm.14,1.2544h.7226V4.3531a2.9727,2.9727,0,0,0-.0353-.4655,1.6,1.6,0,0,0-.12-.3886,1.6756,1.6756,0,0,0-.7325-.7455,2.6733,2.6733,0,0,0-1.3108-.2827c-.1486,0-.2986.007-.4457.0212-.1483.0185-.2885.0367-.4229.0651a3.6679,3.6679,0,0,0-.3817.0988,2.4974,2.4974,0,0,0-.3139.1231v.72a5.0215,5.0215,0,0,1,.7029-.208,3.59,3.59,0,0,1,.7565-.0764,1.7776,1.7776,0,0,1,.8555.1755,1.1273,1.1273,0,0,1,.464.44,1.0449,1.0449,0,0,1,.0947.2943,2.4589,2.4589,0,0,1,.0269.3776v.3676h-.0226a4.0813,4.0813,0,0,0-.6224-.1669,4.56,4.56,0,0,0-.7634-.0735,2.6022,2.6022,0,0,0-.7936.1173,1.8618,1.8618,0,0,0-.6151.331,1.4915,1.4915,0,0,0-.3988.526,1.6674,1.6674,0,0,0-.1414.7014,1.9173,1.9173,0,0,0,.1272.7128,1.4576,1.4576,0,0,0,.3594.53,1.58,1.58,0,0,0,.5514.3351,2.1851,2.1851,0,0,0,.7058.1132,2.3026,2.3026,0,0,0,.5329-.0622,2.1881,2.1881,0,0,0,.4626-.164,1.9472,1.9472,0,0,0,.3718-.232,1.52,1.52,0,0,0,.2674-.2615h.024Zm-4.86,0V2.6078h-.8628V4.7745H35.9211V2.6078h-.8625V7.8572h.8625V5.5084h2.6671V7.8572Z"/><path class="cls-1" d="M171.1015,1.0268l-.413.7892-.8825-.4582.4017-.7892Zm1.2555-.495-.4269.7863L171.0476.853l.41-.782Z"/><path class="cls-1" d="M175.2874,9.475l-.4159.7921-.8825-.4581.4046-.7922Zm1.2529-.4906-.4243.7849L175.2306,9.3l.413-.7779Z"/><path class="cls-1" d="M189.8333,2.6956l-.413.7921-.885-.4582.4043-.7921Zm.184-1.4609-.4243.7947-.8712-.468.4046-.7962Zm1.0718.97-.4269.7849-.8824-.468.41-.7794Z"/><rect class="cls-1" x="177.1395" y="1.001" width="0.8873" height="1.0007" transform="translate(95.2358 158.8448) rotate(-62.8586)"/><polygon class="cls-1" points="179.487 0.845 178.588 0.379 178.181 1.161 179.063 1.631 179.487 0.845"/><path class="cls-1" d="M171.7943,5.8831l.0058.0907c.0226,1.3377.6844,1.7493.8937,1.8539a1.154,1.154,0,0,0,.4808.0764h6.9747V5.7487a4.5882,4.5882,0,0,0-.5008-2.0942c-.3026-.5926-.6363-.8683-1.0464-.8683-.3139,0-.5856.2728-.84.84a3.44,3.44,0,0,0-.39,1.407.9314.9314,0,0,0,.2885.6974.9944.9944,0,0,0,.7127.28,1.3953,1.3953,0,0,0,1.0606-.57l.0339-.0623.0313.0579a5.0209,5.0209,0,0,1,.11,1.3775H176.642V6.7784a6.3542,6.3542,0,0,0-.15-1.5414,2.4442,2.4442,0,0,0-.5062-.9051l-.4072,1.2132a4.4025,4.4025,0,0,1,.37.4794,2.3426,2.3426,0,0,1,.1978.7455l.0087.0437h-3.1424a.3839.3839,0,0,1-.362-.1344,3.3837,3.3837,0,0,1-.3337-1.2063l-.5091-3.2906a.8615.8615,0,0,0-.4356.854c0,.0481.0932.6476.0932.6476l-.3081.1854c-.2546.1457-.4527.2688-.5882.3635a3.0571,3.0571,0,0,0-.4811.3747,5.24,5.24,0,0,0-.543.96,3.6881,3.6881,0,0,0-.3734.9123.1008.1008,0,0,0,.0765.1017,4.5811,4.5811,0,0,0,.5147.1231l.6675.1315a1.3347,1.3347,0,0,0,.2546.0324.8147.8147,0,0,0,.4753-.2685,6.4655,6.4655,0,0,0,.574-.6435Zm-.9306-.1526a2.428,2.428,0,0,1-.4665-.044c-.2008-.0423-.2349-.1159-.2291-.1668.0142-.1159.2574-.32.5175-.5231a6.3764,6.3764,0,0,1,.5488-.35c.0649-.0324.32-.1526.32-.1526l.1187.72-.0141.0142A1.5562,1.5562,0,0,1,170.8637,5.7305Zm7.6791-.8034A.4207.4207,0,0,1,178.09,4.52a.519.519,0,0,1,.0568-.3238.3272.3272,0,0,1,.2516-.1741.6489.6489,0,0,1,.5.2149,1.42,1.42,0,0,1,.3055.3707l.0142.0255-.02.0212a1.4414,1.4414,0,0,1-.26.1711A1.66,1.66,0,0,1,178.5428,4.9271Z"/><path class="cls-1" d="M180.2964,9.0241a13.8122,13.8122,0,0,0,1.4594.912,2.33,2.33,0,0,0,1.0151.2688,1.6622,1.6622,0,0,0,.9477-.44,4.2774,4.2774,0,0,0,.888-.9444c.2519-.3566.3733-.5376.3733-.7525V7.9041h.4385a1.5751,1.5751,0,0,0,.7411-.1628,1.8334,1.8334,0,0,0,.6534-.6406l.0394-.0608.0255.068a1.619,1.619,0,0,0,.3762.6178.7965.7965,0,0,0,.5514.1784h.8883a2.85,2.85,0,0,0,.7324-.068,1.8447,1.8447,0,0,0,.5573-.2885l.0142-.0142.0226.0113a4.24,4.24,0,0,0,.8937.2757,4.707,4.707,0,0,0,.9674.0837V6.094A3.4023,3.4023,0,0,0,191.819,5.4a3.4681,3.4681,0,0,0-.181-.5558l-.4272.5743c-.0962.1271-.11.157-.1159.16a.5527.5527,0,0,0-.0312.2036,1.0226,1.0226,0,0,0,.13.3861,1.5488,1.5488,0,0,1,.1413.6435s-.5149-.0692-.6844-.1173a2.9644,2.9644,0,0,1-.4894-.1854l.0113-.13a5.0172,5.0172,0,0,0,.0877-.7933c0-.0353,0-.1118-.0058-.2291-.0026-.0834-.0055-.1529-.0112-.2108l-.1527.12a1.5021,1.5021,0,0,0-.1952.1755.314.314,0,0,0-.0735.21,1.17,1.17,0,0,1-.3621.97,1.84,1.84,0,0,1-.9673.1923h-.5685a.6477.6477,0,0,1-.4608-.1967.9183.9183,0,0,1-.1981-.5951c0-.1825.0029-.35.0084-.4979.0058-.1344.0113-.2546.02-.3635l-.3905-.0437a1.5853,1.5853,0,0,1-.5091,1.2613,1.5639,1.5639,0,0,1-.9757.4356H184.98V6.7161a3.4966,3.4966,0,0,0-.1978-1.2176,2.5506,2.5506,0,0,0-.5176-.8147l-.283,1.3818a4.3172,4.3172,0,0,1,.65,1.0423c0,.3053-.3026.6152-.9192,1.1681a6.5005,6.5005,0,0,1-1.0322.7918,1.5391,1.5391,0,0,1-.7722.2178A1.8074,1.8074,0,0,1,181.25,9.17a4.3082,4.3082,0,0,1-.77-.4258Z"/><path class="cls-1" d="M21.4232,4.4365c.2786-.0212.4356-.1457.4709-.37V2.9713a.61.61,0,0,0-.4709-.2644.5954.5954,0,0,0-.488.2461V4.1888a.4113.4113,0,0,0,.488.2477m-3.657,1.1454c.2928-.0226.44-.2079.4523-.5459V3.43a.607.607,0,0,0-.4523-.2827c-.2914.13-.4469.2688-.4695.4243V5.1237c0,.3676.157.5162.47.4582m-.3818,2.93a1.1887,1.1887,0,0,1-.2745-.0182.6823.6823,0,0,1-.1781-.0878.564.564,0,0,1-.28-.53,3.1543,3.1543,0,0,1,1.376-1.9233,3.69,3.69,0,0,1-.6079.0622,1.3751,1.3751,0,0,1-.5248-.0877.7124.7124,0,0,1-.338-.3166.9835.9835,0,0,1-.13-.4866V3.5711c.0127-.4243.3182-.7044.9233-.8472L22.416,2.23a1.53,1.53,0,0,1,.3832,1.1623,2.897,2.897,0,0,1-.0353.5135,1.0648,1.0648,0,0,1-.9575.8471L21.04,4.84c-.6038,0-.9349-.2137-.9928-.6508V2.953a.9126.9126,0,0,0-.9575.0878v2.49l-.1723.4214c-.8245.8005-1.2332,1.4426-1.2205,1.9233,0,.2433.2714.4284.5216.53a5.0219,5.0219,0,0,1-.8341.106M12.8985,5.5932h.4709c.3959-.0156.6053-.12.6265-.3209V4.7971c-.0481-.389-.3082-.5926-.7835-.6181h-.3139Zm-1.4084,0h.4709V4.179h-.314c-.4752.0255-.7368.2291-.7834.6181v.4752c.0212.2007.2306.3053.6265.3209m2.4351,2.9443a1.4266,1.4266,0,0,1-.2714-.0156.6829.6829,0,0,1-.181-.09.5632.5632,0,0,1-.2772-.5274V7.0909H11.7148c-.1031.4057-.4808.6574-1.13.7043h-.1923l.1741-.174a1.0622,1.0622,0,0,0,.3125-.778,1.0329,1.0329,0,0,0-.0255-.2473H11.961V6.0867h-.9757c-.7085-.0509-1.0974-.3194-1.1666-.8144v-.44a1.2887,1.2887,0,0,1,1.2529-1.144h.8894V2.7862c0-.2433-.27-.4286-.5234-.53a4.13,4.13,0,0,1,.7313-.1063,1.2035,1.2035,0,0,1,.2743.0186.6356.6356,0,0,1,.1781.0877.5644.5644,0,0,1,.2772.53v.9022h.89a1.2891,1.2891,0,0,1,1.2529,1.144v.44c-.0707.495-.4567.7635-1.1669.8144h-.9757v.5092h.9051c.2928,0,.437.1384.437.4072v.901c0,.24.2688.4255.5219.5274a4.7388,4.7388,0,0,1-.8373.106M6.0229,8.512a.3528.3528,0,0,1-.1683-.0182.7041.7041,0,0,1-.1781-.0878.5629.5629,0,0,1-.2786-.53V4.4H4.4221a1.1533,1.1533,0,0,1-.3394.5572,1.3744,1.3744,0,0,1-.8274.3082H3.0644l.1344-.1385a1.407,1.407,0,0,0,.4144-.9731,1.0725,1.0725,0,0,0-.0269-.2473H5.3979V2.7607c0-.2433-.2717-.4286-.5234-.53a4.6264,4.6264,0,0,1,.8359-.106.3684.3684,0,0,1,.17.0183.5662.5662,0,0,1,.1781.0877.5644.5644,0,0,1,.2772.53V3.9062h1.813a1.0107,1.0107,0,0,0-.0284.2473,1.4067,1.4067,0,0,0,.4145.9731l.1344.1385H8.478a1.37,1.37,0,0,1-.826-.3082A1.1256,1.1256,0,0,1,7.3111,4.4H6.3354v3.476c0,.2433.2717.4284.5233.53a5.0571,5.0571,0,0,1-.8358.106"/></svg>