<?xml version="1.0" encoding="UTF-8" standalone="no"?>
<svg
   xmlns:dc="http://purl.org/dc/elements/1.1/"
   xmlns:cc="http://creativecommons.org/ns#"
   xmlns:rdf="http://www.w3.org/1999/02/22-rdf-syntax-ns#"
   xmlns:svg="http://www.w3.org/2000/svg"
   xmlns="http://www.w3.org/2000/svg"
   xmlns:sodipodi="http://sodipodi.sourceforge.net/DTD/sodipodi-0.dtd"
   xmlns:inkscape="http://www.inkscape.org/namespaces/inkscape"
   inkscape:version="1.0 (4035a4f, 2020-05-01)"
   sodipodi:docname="Wesleyan University logo.svg"
   viewBox="0 0 3364.9868 702.35999"
   height="702.35999"
   width="3364.9868"
   xml:space="preserve"
   id="svg10"
   version="1.1"><metadata
     id="metadata16"><rdf:RDF><cc:Work
         rdf:about=""><dc:format>image/svg+xml</dc:format><dc:type
           rdf:resource="http://purl.org/dc/dcmitype/StillImage" /><dc:title></dc:title></cc:Work></rdf:RDF></metadata><defs
     id="defs14" /><sodipodi:namedview
     inkscape:current-layer="g18"
     inkscape:window-maximized="0"
     inkscape:window-y="23"
     inkscape:window-x="0"
     inkscape:cy="351.17999"
     inkscape:cx="1682.4934"
     inkscape:zoom="0.32600425"
     showgrid="false"
     id="namedview12"
     inkscape:window-height="480"
     inkscape:window-width="746"
     inkscape:pageshadow="2"
     inkscape:pageopacity="0"
     guidetolerance="10"
     gridtolerance="10"
     objecttolerance="10"
     borderopacity="1"
     bordercolor="#666666"
     pagecolor="#ffffff" /><g
     transform="matrix(1.3333333,0,0,-1.3333333,0,702.36)"
     inkscape:label="ink_ext_XXXXXX"
     inkscape:groupmode="layer"
     id="g18"><g
       transform="scale(0.1)"
       id="g20"><path
         id="path22"
         style="fill:#ea1a2d;fill-opacity:1;fill-rule:nonzero;stroke:none"
         d="M 748.34,2296.5 6.08984,3038.76 c -3.76953,3.78 -5.886715,8.88 -5.886715,14.22 L 0,4236.64 c -0.00390625,11.11 9.00391,20.11 20.1133,20.12 l 259.9767,0.04 c 11.109,0.01 20.117,-9 20.121,-20.1 l 0.176,-1059.34 c 0.004,-5.34 2.125,-10.45 5.894,-14.23 l 654.34,-654.34 c 7.856,-7.86 7.856,-20.6 0,-28.45 L 776.793,2296.5 c -7.855,-7.85 -20.594,-7.85 -28.453,0" /><path
         id="path24"
         style="fill:#ea1a2d;fill-opacity:1;fill-rule:nonzero;stroke:none"
         d="m 3157.58,3536.67 h -259.97 c -11.11,0 -20.12,9 -20.12,20.11 v 1390.59 c 0,11.1 -9,20.12 -20.12,20.12 h -959.45 c -11.1,0 -20.12,9 -20.12,20.12 v 259.98 c 0,11.1 9.02,20.11 20.12,20.11 h 1259.66 c 11.11,0 20.13,-9.01 20.13,-20.11 V 3556.78 c 0,-11.11 -9.02,-20.11 -20.13,-20.11" /><path
         id="path26"
         style="fill:#171a1e;fill-opacity:1;fill-rule:nonzero;stroke:none"
         d="m 4243.11,1874.76 c 15.05,47.31 25.8,81.7 25.8,109.65 0,73.11 -40.85,96.76 -197.8,103.2 v 122.55 h 548.25 v -122.55 c -68.8,-10.75 -120.4,-19.34 -146.2,-88.14 L 3922.76,518.141 h -133.3 L 3404.62,1515.72 3013.33,518.141 h -133.3 L 2286.64,1999.47 c -25.8,66.64 -77.4,77.39 -144.04,88.14 v 122.55 h 739.58 v -122.55 c -156.94,-6.44 -197.79,-30.09 -197.79,-103.2 0,-27.95 10.75,-58.05 30.09,-107.49 l 324.65,-870.74 281.64,726.69 -103.19,266.6 c -25.8,66.64 -77.4,77.39 -144.05,88.14 v 122.55 h 718.08 v -122.55 c -156.94,-6.44 -197.79,-30.09 -197.79,-103.2 0,-27.95 10.75,-58.05 32.25,-120.39 l 311.74,-851.39 305.3,862.13" /><path
         id="path28"
         style="fill:#171a1e;fill-opacity:1;fill-rule:nonzero;stroke:none"
         d="m 4763.43,1296.42 h 481.59 c -2.15,159.1 -77.39,275.2 -232.2,275.2 -146.19,0 -230.04,-116.1 -249.39,-275.2 z m 786.88,-47.29 v -70.95 h -791.18 c 0,-260.149 131.14,-419.25 382.7,-419.25 152.64,0 257.99,68.8 331.09,156.961 l 77.39,-38.711 c -55.89,-180.59 -210.69,-365.489 -520.28,-365.489 -341.85,0 -567.6,225.75 -567.6,563.289 0,384.84 262.3,640.69 597.7,640.69 322.49,0 490.18,-204.25 490.18,-466.54" /><path
         id="path30"
         style="fill:#171a1e;fill-opacity:1;fill-rule:nonzero;stroke:none"
         d="m 5743.82,625.641 -12.9,281.64 h 144.04 c 36.55,-174.14 133.3,-266.59 307.45,-266.59 129,0 217.14,53.75 217.14,159.09 0,92.449 -66.64,124.699 -178.45,152.649 l -159.09,38.699 c -191.34,45.161 -320.34,146.201 -320.34,363.351 0,230.04 171.99,361.19 440.74,361.19 154.8,0 285.94,-32.25 384.85,-94.6 V 1369.53 H 6436.1 c -36.55,148.35 -126.84,214.99 -270.89,214.99 -98.9,0 -169.85,-47.3 -169.85,-137.6 0,-81.7 47.3,-111.8 144.06,-137.6 l 163.38,-40.85 c 215,-51.59 344,-152.64 344,-378.388 0,-245.09 -193.5,-378.391 -470.84,-378.391 -187.04,0 -335.39,49.45 -432.14,113.95" /><path
         id="path32"
         style="fill:#171a1e;fill-opacity:1;fill-rule:nonzero;stroke:none"
         d="m 7291.79,767.539 c 0,-98.898 53.75,-109.648 152.64,-122.547 V 533.191 H 6823.1 v 111.801 c 98.89,12.899 150.49,23.649 150.49,122.547 V 2023.11 l -139.75,90.3 v 64.51 l 389.15,96.74 h 79.54 l -10.74,-187.05 V 767.539" /><path
         id="path34"
         style="fill:#171a1e;fill-opacity:1;fill-rule:nonzero;stroke:none"
         d="m 7891.62,1296.42 h 481.59 c -2.14,159.1 -77.39,275.2 -232.19,275.2 -146.19,0 -230.04,-116.1 -249.4,-275.2 z m 786.89,-47.29 v -70.95 h -791.18 c 0,-260.149 131.14,-419.25 382.69,-419.25 152.65,0 257.99,68.8 331.09,156.961 l 77.4,-38.711 c -55.9,-180.59 -210.7,-365.489 -520.29,-365.489 -341.84,0 -567.59,225.75 -567.59,563.289 0,384.84 262.29,640.69 597.69,640.69 322.49,0 490.19,-204.25 490.19,-466.54" /><path
         id="path36"
         style="fill:#171a1e;fill-opacity:1;fill-rule:nonzero;stroke:none"
         d="m 8867.73,1494.22 c -21.5,47.3 -38.71,55.9 -126.85,86 v 113.95 h 640.69 v -113.95 c -113.95,-15.05 -152.64,-25.8 -152.64,-77.4 0,-17.2 2.15,-30.1 15.05,-58.05 l 245.08,-574.028 230.05,574.028 c 10.75,27.95 15.05,40.85 15.05,58.05 0,51.6 -38.7,62.35 -152.65,77.4 v 113.95 h 457.99 v -113.95 c -86.04,-30.1 -105.39,-38.7 -126.89,-86 L 9392.32,303.141 C 9289.12,66.6523 9185.92,0 9046.17,0 c -94.6,0 -163.4,38.6992 -189.19,77.3984 V 245.09 h 146.2 c 146.2,0 219.29,21.512 283.79,176.301 l 45.15,107.5 -464.39,965.329" /><path
         id="path38"
         style="fill:#171a1e;fill-opacity:1;fill-rule:nonzero;stroke:none"
         d="m 10792,797.629 v 322.501 l -268.8,-90.3 c -73.1,-27.95 -105.3,-68.799 -105.3,-148.35 0,-103.191 62.3,-167.691 156.9,-167.691 81.7,0 146.2,32.242 217.2,83.84 z m 318.2,51.601 c 0,-94.589 19.3,-146.199 83.8,-146.199 19.4,0 62.4,4.309 94.6,12.899 l 21.5,-88.141 c -75.2,-73.098 -180.6,-116.098 -279.5,-116.098 -126.8,0 -193.5,75.25 -232.2,191.34 -79.5,-88.14 -210.7,-187.039 -384.8,-187.039 -202.1,0 -320.4,120.387 -320.4,298.84 0,195.648 135.5,247.248 301,296.698 l 397.8,122.55 v 81.7 c 0,174.15 -71,273.04 -206.4,273.04 -94.6,0 -144.1,-51.6 -144.1,-144.05 0,-34.39 6.5,-77.39 15.1,-126.84 l -227.9,-30.1 c -47.3,25.8 -73.1,70.95 -73.1,131.14 0,193.5 204.2,296.7 470.8,296.7 296.7,0 483.8,-101.04 483.8,-442.89 V 849.23" /><path
         id="path40"
         style="fill:#171a1e;fill-opacity:1;fill-rule:nonzero;stroke:none"
         d="m 12361.4,1322.22 c 0,126.86 -60.2,174.15 -182.7,174.15 -101.1,0 -212.8,-40.85 -288.1,-88.14 V 767.539 c 0,-98.898 53.7,-109.648 152.6,-122.547 V 533.191 h -621.3 v 111.801 c 98.9,12.899 150.5,23.649 150.5,122.547 v 675.081 l -139.7,101.05 v 64.5 l 389.1,111.8 h 79.5 l -10.7,-214.99 c 94.6,103.19 249.4,210.69 427.8,210.69 212.9,0 361.2,-107.5 361.2,-352.6 V 767.539 c 0,-98.898 53.8,-109.648 152.7,-122.547 V 533.191 h -621.4 v 111.801 c 98.9,12.899 150.5,23.649 150.5,122.547 v 554.681" /><path
         id="path42"
         style="fill:#171a1e;fill-opacity:1;fill-rule:nonzero;stroke:none"
         d="m 13971.8,1139.48 c 0,-275.199 133.3,-436.449 395.6,-436.449 270.8,0 451.4,111.801 451.4,455.789 v 761.1 c 0,135.45 -68.7,161.25 -230,167.69 v 122.55 h 632.1 v -122.55 c -161.3,-6.44 -219.3,-32.24 -219.3,-167.69 v -810.54 c 0,-408.489 -311.8,-597.689 -664.3,-597.689 -442.9,0 -709.5,197.801 -709.5,599.839 v 808.39 c 0,135.45 -55.9,161.25 -217.2,167.69 v 122.55 h 778.3 v -122.55 c -161.2,-6.44 -217.1,-32.24 -217.1,-167.69 v -780.44" /><g
         transform="scale(1.02098)"
         id="g44"><path
           id="path46"
           style="fill:#171a1e;fill-opacity:1;fill-rule:nonzero;stroke:none"
           d="m 15838.9,1295.05 c 0,124.25 -59,170.57 -179.1,170.57 -98.9,0 -208.4,-40.01 -282.1,-86.33 V 751.766 c 0,-96.866 52.6,-107.395 149.5,-120.029 V 522.234 h -608.6 v 109.503 c 96.9,12.634 147.4,23.163 147.4,120.029 v 661.204 l -136.8,98.98 v 63.17 l 381.1,109.5 h 77.9 l -10.5,-210.57 c 92.6,101.07 244.2,206.36 419.1,206.36 208.4,0 353.7,-105.29 353.7,-345.35 V 751.766 c 0,-96.866 52.6,-107.395 149.5,-120.029 V 522.234 h -608.5 v 109.503 c 96.8,12.634 147.4,23.163 147.4,120.029 v 543.284" /></g><g
         transform="scale(1.06887)"
         id="g48"><path
           id="path50"
           style="fill:#171a1e;fill-opacity:1;fill-rule:nonzero;stroke:none"
           d="m 16006.3,2095.93 c 114.6,0 189.1,-78.45 189.1,-181.04 0,-98.56 -74.5,-177.01 -189.1,-177.01 -112.6,0 -185,78.45 -185,177.01 0,102.59 72.4,181.04 185,181.04 z m 150.8,-1377.842 c 0,-92.527 50.4,-102.584 142.9,-114.652 V 498.839 h -581.4 v 104.597 c 92.6,12.068 140.8,22.125 140.8,114.652 v 631.592 l -130.7,94.54 v 60.34 l 364.1,104.59 h 74.4 l -10.1,-201.13 V 718.088" /></g><g
         transform="scale(1.15262)"
         id="g52"><path
           id="path54"
           style="fill:#171a1e;fill-opacity:1;fill-rule:nonzero;stroke:none"
           d="m 16300,1370.98 c -76.4,-26.11 -91.4,-33.57 -110,-74.61 l -395.5,-846.837 h -78.3 l -432.8,846.837 c -20.5,41.04 -33.5,48.5 -110,74.61 v 98.86 h 554 v -98.86 c -98.9,-13.05 -132.5,-22.38 -132.5,-67.15 0,-14.92 1.9,-26.12 13.1,-50.36 l 212.7,-462.592 201.4,462.592 c 9.3,24.24 13,35.44 13,50.36 0,44.77 -33.6,54.1 -132.4,67.15 v 98.86 h 397.3 v -98.86" /></g><g
         transform="scale(1.22226)"
         id="g56"><path
           id="path58"
           style="fill:#171a1e;fill-opacity:1;fill-rule:nonzero;stroke:none"
           d="m 15656.2,1060.67 h 394 c -1.7,130.17 -63.3,225.16 -190,225.16 -119.6,0 -188.1,-94.99 -204,-225.16 z m 643.8,-38.69 v -58.048 h -647.3 c 0,-212.841 107.3,-343.011 313.1,-343.011 124.9,0 211.1,56.29 270.9,128.418 l 63.3,-31.671 c -45.7,-147.75 -172.4,-299.026 -425.7,-299.026 -279.6,0 -464.4,184.699 -464.4,460.857 0,314.861 214.6,524.181 489,524.181 263.9,0 401.1,-167.1 401.1,-381.7" /></g><g
         transform="scale(1.29125)"
         id="g60"><path
           id="path62"
           style="fill:#171a1e;fill-opacity:1;fill-rule:nonzero;stroke:none"
           d="m 15925.4,1057.29 c 86.6,181.49 163.2,271.41 293.1,271.41 39.9,0 64.8,-10 81.5,-23.32 v -209.79 h -54.9 c -106.6,0 -224.8,-18.32 -319.7,-111.556 V 597.742 c 0,-79.916 41.6,-84.92 151.5,-98.23 v -86.584 h -514.5 v 86.584 c 76.6,9.989 116.6,18.314 116.6,94.906 v 522.812 l -108.3,78.26 v 49.95 l 301.4,86.58 h 61.6 l -8.3,-274.73" /></g><g
         transform="scale(1.35601)"
         id="g64"><path
           id="path66"
           style="fill:#171a1e;fill-opacity:1;fill-rule:nonzero;stroke:none"
           d="m 15634.1,461.383 -9.5,207.697 h 106.2 c 26.9,-128.421 98.3,-196.598 226.7,-196.598 95.2,0 160.1,39.638 160.1,117.322 0,68.177 -49.1,91.96 -131.5,112.571 l -117.4,28.539 c -141.1,33.304 -236.2,107.819 -236.2,267.956 0,169.64 126.8,266.36 325,266.36 114.2,0 210.9,-23.78 283.8,-69.76 v -185.5 h -96.7 c -27,109.4 -93.6,158.54 -199.8,158.54 -72.9,0 -125.3,-34.88 -125.3,-101.47 0,-60.25 34.9,-82.446 106.3,-101.473 l 120.5,-30.127 c 158.6,-38.045 253.7,-112.562 253.7,-279.043 0,-180.743 -142.7,-279.047 -347.3,-279.047 -137.9,0 -247.3,36.467 -318.6,84.033" /></g><g
         transform="scale(1.40626)"
         id="g68"><path
           id="path70"
           style="fill:#171a1e;fill-opacity:1;fill-rule:nonzero;stroke:none"
           d="m 16076.8,1593.06 c 87.2,0 143.7,-59.63 143.7,-137.6 0,-74.92 -56.5,-134.54 -143.7,-134.54 -85.6,0 -140.7,59.62 -140.7,134.54 0,77.97 55.1,137.6 140.7,137.6 z M 16191.5,545.8 c 0,-70.327 38.2,-77.971 108.5,-87.143 v -79.502 h -441.8 v 79.502 c 70.3,9.172 107,16.816 107,87.143 v 480.05 l -99.4,71.86 v 45.87 l 276.8,79.5 h 56.5 l -7.6,-152.88 V 545.8" /></g><g
         transform="scale(1.46574)"
         id="g72"><path
           id="path74"
           style="fill:#171a1e;fill-opacity:1;fill-rule:nonzero;stroke:none"
           d="m 16038.9,1155.85 h 220 v -95.34 h -220 V 614.599 c 0,-90.945 33.8,-126.155 110.1,-126.155 42.5,0 86.5,13.208 124.6,30.81 l 26.4,-58.679 c -54.2,-58.668 -137.9,-111.473 -253.7,-111.473 -117.4,0 -224.5,57.205 -224.5,224.418 v 486.99 h -112.9 v 66 c 90.9,39.61 181.9,112.95 259.6,205.35 h 70.4 v -176.01" /></g><g
         transform="scale(1.54828)"
         id="g76"><path
           id="path78"
           style="fill:#171a1e;fill-opacity:1;fill-rule:nonzero;stroke:none"
           d="m 15543.5,965.082 c -13.9,30.55 -25,36.108 -82,55.548 v 73.6 h 413.8 v -73.6 c -73.6,-9.72 -98.5,-16.66 -98.5,-49.993 0,-11.108 1.3,-19.442 9.7,-37.494 l 158.3,-370.751 148.5,370.751 c 7,18.052 9.8,26.386 9.8,37.494 0,33.333 -25,40.273 -98.7,49.993 v 73.6 h 295.9 v -73.6 c -55.6,-19.44 -68.1,-24.998 -82,-55.548 l -336.1,-769.29 C 15815.7,43.0492 15749,0 15658.7,0 c -61.1,0 -105.5,24.9949 -122.2,49.9899 V 158.298 h 94.4 c 94.5,0 141.7,13.894 183.3,113.869 l 29.2,69.431 -299.9,623.484" /></g></g></g></svg>
