<svg xmlns="http://www.w3.org/2000/svg" id="Calque_1" viewBox="0 0 3495.17 452.86" width="3495" height="453">
  <defs>
    <style>.cls-1{stroke-width:0px;}</style>
  </defs>
  <rect class="cls-1" x="2361.41" y="103.41" width="10.45" height="319.88"/>
  <path class="cls-1" d="M2588.54,153.5v102.9h62.63c35.84,0,54.38-21.48,54.38-51.47s-18.54-51.43-54.38-51.43h-62.63ZM2738.91,204.51c0,47.25-33.32,81.42-86.92,81.42h-63.45v116.44h-32.11V123.97h95.57c53.6,0,86.92,33.75,86.92,80.54"/>
  <path class="cls-1" d="M2944.82,166.58l-23.47,18.11c-14.43-22.33-37.5-34.99-62.24-34.99s-48.21,13.08-48.21,40.52c0,25.31,18.93,34.6,43.71,46.83l30.06,14.75c39.56,19.39,63.41,40.09,63.41,77.63,0,46.83-37.43,77.63-87.73,77.63-43.25,0-79.08-23.22-100.1-59.91l23.93-18.15c16.45,25.73,40.76,47.68,75.79,47.68,32.11,0,54.8-18.15,54.8-46.4,0-25.73-18.57-35.87-45.37-48.92l-30.48-14.75c-31.69-15.6-61.36-35.45-61.36-74.65,0-44.27,37.89-72.56,81.99-72.56,37.08-.07,68.41,19.74,85.28,47.18"/>
  <polygon class="cls-1" points="3005.18 123.97 3005.18 402.37 3166.25 402.37 3166.25 372.84 3037.3 372.84 3037.3 123.97 3005.18 123.97"/>
  <path class="cls-1" d="M3480.31,224.71c-.11-.14-.21-.28-.32-.43.14.14.25.28.32.43l-.67.5.67-.5Z"/>
  <path class="cls-1" d="M3216.13,123.97v279.07h279.04V123.97h-279.04ZM3487.97,127.55l-35.48,35.48c-17.94-17.23-40.44-29.74-65.54-35.48h101.02ZM3424.7,328.39c-.6,0-1.17-.07-1.74-.07l-3.79-3.79-14.85-44.52,20.24-14.71h66.36c-1.56,35.02-30.63,63.1-66.21,63.1ZM3488.89,289.83c-5.32,26.2-18.29,49.63-36.44,67.99l-25.95-25.95c27.97-.74,51.89-17.83,62.39-42.04ZM3399.03,221.48l25.17-25.17c20.84.18,39.38,10,51.43,25.17h-76.6ZM3429.45,261.72l49.77-36.19h0l.35-.25c7.12,10.42,11.31,22.93,11.45,36.44h-61.57ZM3480.03,224.28c.11.14.21.28.32.43l-.67.5.67-.5c-.11-.14-.21-.28-.32-.43ZM3482.44,223.19l-2.09,1.52c-.74-1.06-1.52-2.09-2.3-3.12l-.04-.04c.78,1.03,1.6,2.09,2.34,3.15l2.09-1.52,2.34-1.7h-4.75c-11.98-16.38-30.95-27.29-52.5-28.53l24.92-24.92c17.65,17.87,30.38,40.52,35.94,65.86-1.67-3.76-3.65-7.34-5.96-10.7ZM3449.97,165.51l-27.22,27.26c-15.67.18-30.09,5.6-41.69,14.46l-25.17-79.72c36.51.07,69.69,14.57,94.08,38ZM3355.86,127.55l-30.06,93.97h-9.61l-55.44-55.44c24.53-23.82,57.99-38.53,94.89-38.53.07,0,.14,0,.21,0ZM3226.51,221.48l55.76,40.2h-62.56c.32-36.16,14.96-68.98,38.53-93.12l52.89,52.92h-84.61ZM3307.01,279.55l-15.06,45.12-33.14,33.14c-23.68-23.93-38.46-56.54-39.1-92.55h67.46l19.85,14.29ZM3324.38,127.55c-25.38,5.81-48.1,18.5-66.14,36.01l-36.01-36.01h102.16ZM3219.67,130.03l36.05,36.05c-17.55,17.94-30.24,40.55-36.05,65.79v-101.84ZM3219.67,293.94c5.88,25.49,18.79,48.35,36.62,66.39l-36.62,36.62v-103.01ZM3222.22,399.46l36.65-36.65c19.28,18.54,43.92,31.58,71.32,36.65h-107.97ZM3277.17,373.3l77.49-56.61c-34.67.39-64.41,21.55-77.24,51.54l-1.42,4.25c-5.14-3.72-10.03-7.8-14.6-12.19l28.07-28.07-6.13,18.36c16.02-22.65,42.47-37.5,72.35-37.5,9,0,17.65,1.35,25.84,3.86-16.23-12.76-26.69-32.47-26.69-54.59s10-40.87,25.59-53.67l.43,1.35h0l.46,1.49c10.39-8.58,23.47-14.04,37.75-15.03l-24.99,24.99h-8.51l-3.12-9.96c-14.68,12.12-24.03,30.41-24.03,50.8,0,33.99,25.98,62,59.2,65.58l3.86,3.86c-4.93-.25-9.75-.96-14.36-2.16,8.01,5.71,15.03,12.69,20.74,20.7l-6.06-18.15-.04-.11,28.25,28.25c-4.61,4.43-9.54,8.51-14.71,12.26l-1.7-5.1c-12.94-29.46-42.25-50.16-76.42-50.72l76.74,56.79c-22.12,15.56-49.09,24.74-78.16,24.74s-56.4-9.29-78.59-24.95ZM3381.1,399.46c27.4-5.07,52.04-18.11,71.32-36.65l36.65,36.65h-107.97ZM3491.62,396.95l-36.62-36.65c17.83-18.04,30.77-40.87,36.62-66.39v103.04ZM3491.62,231.84c-5.88-25.49-18.79-48.31-36.58-66.32l36.58-36.58v102.9Z"/>
  <path class="cls-1" d="M827.52,60.54c-46.48,0-82.89,36.41-82.89,82.89s36.41,82.89,82.89,82.89,82.89-36.41,82.89-82.89-36.41-82.89-82.89-82.89ZM827.52,200.89c-32.36,0-56.76-24.7-56.76-57.45s24.4-57.45,56.76-57.45,56.76,24.7,56.76,57.45-24.4,57.45-56.76,57.45Z"/>
  <path class="cls-1" d="M1147.53,157.61l-2.78-.93c-5.54-1.86-10.78-3.61-16.1-5.04h0c-10.43-2.56-22.41-6.57-22.41-14.94,0-5.95,4.48-12.3,17.07-12.3,10.7,0,18.14,4.51,22.11,13.4l.16.35,22.35-12.52-.16-.3c-8.56-15.89-24.76-25-44.45-25-12.25,0-23.39,3.59-31.36,10.1-8.28,6.76-12.66,16.02-12.66,26.76,0,14.55,8.35,25.89,22.91,31.11,7.18,2.39,13.25,4.21,19.1,5.73,10.97,3.16,22.18,7.44,22.18,15.18,0,8.64-6.71,13.02-19.93,13.02s-22.18-5.7-26.16-16.95l-.14-.4-22.82,13.25.12.28c7.84,17.87,25.7,28.13,49,28.13,28.04,0,46.88-14.91,46.88-37.1,0-14.79-8.56-26.69-22.91-31.83Z"/>
  <path class="cls-1" d="M1384.53,103.27c-25.06,0-45.45,20.39-45.45,45.45v74.56h26.47v-74.56c0-10.47,8.52-18.98,18.98-18.98h17.77v-26.47h-17.77Z"/>
  <path class="cls-1" d="M1313.02,176.02c.88-4.23,1.34-8.57,1.34-12.97,0-34.67-28.21-62.87-62.87-62.87s-62.87,28.21-62.87,62.87,29.45,62.87,65.66,62.87c21.74,0,41.26-9.91,53.51-26.54l-22.26-13.01c-7.56,8.84-18.8,14.04-31.25,14.04-17.23,0-31.96-10.16-37.64-24.37,0,0,69.94-.02,69.94-.01h26.45ZM1251.48,125.69c16.54,0,30.24,10.23,35.28,24.84h-70.56c5.04-14.61,18.74-24.84,35.28-24.84Z"/>
  <polygon class="cls-1" points="1513.98 103.27 1481.06 193.29 1447.89 103.27 1418.98 103.27 1465.7 223.06 1465.78 223.29 1496.09 223.29 1542.89 103.27 1513.98 103.27"/>
  <path class="cls-1" d="M1754.16,198.01c-10.47,0-18.98-8.52-18.98-18.98v-50.24h29.59v-25.51h-29.59v-33.41h-26.47v33.41h-21.95v25.51h21.95v50.24c0,25.06,20.39,45.45,45.45,45.45h17.77v-26.47h-17.77Z"/>
  <path class="cls-1" d="M1851.72,100.17c-34.8,0-63.11,28.31-63.11,63.11s28.31,63.11,63.11,63.11,63.11-28.31,63.11-63.11-28.31-63.11-63.11-63.11ZM1878.2,189.76c-7.17,7.17-16.57,11.11-26.48,11.11s-19.31-3.95-26.48-11.11c-7.17-7.17-11.11-16.57-11.11-26.48s3.95-19.31,11.11-26.48c7.17-7.17,16.57-11.11,26.48-11.11s19.31,3.95,26.48,11.11c7.17,7.17,11.11,16.57,11.11,26.48s-3.95,19.31-11.11,26.48Z"/>
  <rect class="cls-1" x="1939.54" y="103.27" width="26.47" height="120.01"/>
  <path class="cls-1" d="M1952.77,80.1c8.96,0,16.81-7.86,16.81-16.81s-7.54-16.81-16.81-16.81-16.81,7.54-16.81,16.81,7.86,16.81,16.81,16.81Z"/>
  <path class="cls-1" d="M2039.94,103.27c-25.06,0-45.45,20.39-45.45,45.45v74.56h26.47v-74.56c0-10.47,8.52-18.98,18.98-18.98h17.77v-26.47h-17.77Z"/>
  <path class="cls-1" d="M2193.42,176.02c.88-4.23,1.34-8.57,1.34-12.97,0-34.67-28.21-62.87-62.87-62.87s-62.87,28.21-62.87,62.87,29.45,62.87,65.66,62.87c21.74,0,41.26-9.91,53.51-26.54l-22.26-13.01c-7.56,8.84-18.8,14.04-31.25,14.04-17.23,0-31.96-10.16-37.64-24.37,0,0,69.94-.02,69.94-.01h26.45ZM2131.89,125.69c16.54,0,30.24,10.23,35.28,24.84h-70.56c5.04-14.61,18.74-24.84,35.28-24.84Z"/>
  <path class="cls-1" d="M1362.89,348.72v74.56h26.47v-74.56c0-10.47,8.52-18.98,18.98-18.98h17.77v-26.47h-17.77c-25.06,0-45.45,20.39-45.45,45.45Z"/>
  <path class="cls-1" d="M1461.63,248.1c-9.27,0-16.81,7.54-16.81,16.81s7.86,16.81,16.81,16.81,16.81-7.86,16.81-16.81-7.54-16.81-16.81-16.81Z"/>
  <rect class="cls-1" x="1448.39" y="303.27" width="26.47" height="120.01"/>
  <path class="cls-1" d="M1570.96,357.46l-2.78-.93c-5.54-1.86-10.78-3.61-16.1-5.04h0c-10.43-2.56-22.41-6.57-22.41-14.94,0-5.95,4.48-12.3,17.07-12.3,10.7,0,18.14,4.51,22.11,13.4l.16.35,22.35-12.52-.16-.3c-8.56-15.89-24.76-25-44.45-25-12.25,0-23.39,3.59-31.36,10.1-8.28,6.76-12.66,16.02-12.66,26.76,0,14.55,8.35,25.89,22.91,31.11,7.18,2.39,13.25,4.21,19.1,5.73,10.97,3.16,22.18,7.44,22.18,15.18,0,8.64-6.71,13.02-19.93,13.02s-22.18-5.7-26.16-16.95l-.14-.4-22.82,13.25.12.28c7.84,17.87,25.7,28.13,49,28.13,28.04,0,46.88-14.91,46.88-37.1,0-14.79-8.56-26.69-22.91-31.83Z"/>
  <path class="cls-1" d="M1148.95,263.29h-60.7v39.99h0v120.01h26.47v-51.7h34.23c14.98,0,28.81-5.57,38.96-15.69,10.1-10.07,15.66-23.73,15.66-38.46,0-30.87-23.48-54.15-54.62-54.15ZM1168.64,336.57c-4.99,4.98-11.99,7.72-19.69,7.72h-33.4v-53.71h33.4c16.09,0,27.32,11.04,27.32,26.85,0,7.43-2.71,14.23-7.63,19.13Z"/>
  <path class="cls-1" d="M1017.56,376.02c.88-4.23,1.34-8.57,1.34-12.97,0-34.67-28.21-62.87-62.87-62.87s-62.87,28.21-62.87,62.87,29.45,62.87,65.66,62.87c21.74,0,41.26-9.91,53.51-26.54l-22.26-13.01c-7.56,8.84-18.8,14.04-31.25,14.04-17.23,0-31.96-10.16-37.64-24.37,0,0,69.94-.02,69.94-.01h26.45ZM956.02,325.69c16.54,0,30.24,10.23,35.28,24.84h-70.56c5.04-14.61,18.74-24.84,35.28-24.84Z"/>
  <path class="cls-1" d="M593.92,126.77c-20.9-29.48-51.46-56.21-86.06-75.26l-.17-.09C438.92,14.64,358.31-3.43,280.65.54,198.41,4.95,124.36,28.42,72.12,66.61,20.48,104.3-6.05,157.16,1.17,208.03l.03.21c7.34,47.21,43.59,90.62,99.46,119.1,44.32,22.29,104.1,34.81,160,33.51v90.53l15.16.85c7.51.42,15.15.64,22.69.64,33.76,0,67.71-4.25,100.9-12.62,38.77-9.79,74.89-24.71,107.35-44.35,34.42-20.55,62.19-45.67,82.54-74.65,20.39-29.02,32.27-60.34,35.33-93.09,3.37-33.23-7.25-68.28-30.71-101.38ZM592.66,224.95v.15c-2.53,27.12-12.5,53.24-29.64,77.64-17.74,25.26-42.23,47.32-72.8,65.58-28.41,17.19-60.14,30.48-94.31,39.51-34,8.98-68.7,13.29-103.13,12.81v-62.04c51.52-6.14,103.74-25.65,136.35-50.95l.15-.12c36.93-29.39,53.84-68.2,46.39-106.46l-.07-.32c-7.66-35.38-34.52-65.76-75.65-85.52l-.19-.09c-35.99-16.72-84.99-24.65-124.83-20.21l-14.28,1.59v232.16c-51.04,1.35-105.4-9.88-145.5-30.05-46.47-23.69-76.43-58.4-82.2-95.23-5.46-38.85,16.26-80.27,58.1-110.8,46.58-34.06,116.29-55.9,191.27-59.93,71.84-3.67,146.46,13.05,210.13,47.07,30.4,16.76,57.13,40.08,75.27,65.65,18.91,26.67,27.54,54.18,24.94,79.56ZM292.79,326.19V125.94c31.49-.8,67.25,6.22,93.37,18.32,31.87,15.34,52.48,37.76,58.03,63.13,5.07,26.37-7.29,52.97-34.8,74.89-27.42,21.24-72.07,38.05-116.59,43.91Z"/>
  <path class="cls-1" d="M276.17,167.79c-32.28,0-58.54,26.3-58.54,58.62s26.26,58.62,58.54,58.62,58.54-26.3,58.54-58.62-26.26-58.62-58.54-58.62Z"/>
  <path class="cls-1" d="M605.94,184.72c-22.96,0-41.63,18.7-41.63,41.69s18.68,41.69,41.63,41.69,41.64-18.7,41.64-41.69-18.68-41.69-41.64-41.69Z"/>
  <path class="cls-1" d="M276.17,167.79c-32.28,0-58.54,26.3-58.54,58.62s26.26,58.62,58.54,58.62,58.54-26.3,58.54-58.62-26.26-58.62-58.54-58.62Z"/>
  <path class="cls-1" d="M605.94,184.72c-22.96,0-41.63,18.7-41.63,41.69s18.68,41.69,41.63,41.69,41.64-18.7,41.64-41.69-18.68-41.69-41.64-41.69Z"/>
  <path class="cls-1" d="M1612.34,100.17c-34.8,0-63.11,28.31-63.11,63.11s28.27,63.07,63.04,63.11c14.1-.02,26.98-5.37,36.71-14.15v2.32h0v8.73h26.47v-60.01c0-34.8-28.31-63.11-63.11-63.11ZM1638.82,189.76c-7.17,7.17-16.57,11.11-26.48,11.11s-19.31-3.95-26.48-11.11c-7.17-7.17-11.11-16.57-11.11-26.48s3.95-19.31,11.11-26.48c7.17-7.17,16.57-11.11,26.48-11.11s19.31,3.95,26.48,11.11c7.17,7.17,11.11,16.57,11.11,26.48s-3.95,19.31-11.11,26.48Z"/>
  <path class="cls-1" d="M1274.99,300.17c-34.8,0-63.11,28.31-63.11,63.11s28.27,63.07,63.04,63.11c14.1-.02,26.98-5.37,36.71-14.15v2.32h0v8.73h26.47v-60.01c0-34.8-28.31-63.11-63.11-63.11ZM1301.47,389.76c-7.17,7.17-16.57,11.11-26.48,11.11s-19.31-3.95-26.48-11.11c-7.17-7.17-11.11-16.57-11.11-26.48s3.95-19.31,11.11-26.48c7.17-7.17,16.57-11.11,26.48-11.11s19.31,3.95,26.48,11.11c7.17,7.17,11.11,16.57,11.11,26.48s-3.95,19.31-11.11,26.48Z"/>
  <path class="cls-1" d="M995.82,100.17c-14.08,0-26.93,5.11-36.6,13.47l-.04-50.36h-26.47v99.99h0c0,36.51,27.11,63.11,63.11,63.11s63.11-28.31,63.11-63.11-28.31-63.11-63.11-63.11ZM1022.31,189.76c-7.17,7.17-16.57,11.11-26.48,11.11s-19.76-3.3-26.93-10.47c-7.17-7.17-10.66-17.22-10.66-27.12s3.95-19.31,11.11-26.48c7.17-7.17,16.57-11.11,26.48-11.11s19.31,3.95,26.48,11.11c7.17,7.17,11.11,16.57,11.11,26.48s-3.95,19.31-11.11,26.48Z"/>
  <path class="cls-1" d="M744.63,363.28c0,34.8,28.31,63.11,63.11,63.11,36,0,63.11-26.59,63.11-63.11h0v-99.99s-26.47,0-26.47,0l-.04,50.36c-9.67-8.37-22.52-13.47-36.6-13.47-34.8,0-63.11,28.31-63.11,63.11ZM770.14,363.28c0-9.91,3.95-19.31,11.11-26.48,7.17-7.17,16.57-11.11,26.48-11.11,9.91,0,19.31,3.95,26.48,11.11,7.17,7.17,11.11,16.57,11.11,26.48s-3.5,19.96-10.66,27.12c-7.17,7.17-17.02,10.47-26.93,10.47-9.91,0-19.31-3.95-26.48-11.11-7.17-7.17-11.11-16.57-11.11-26.48Z"/>
</svg>