<?xml version="1.0" encoding="UTF-8"?>
<svg width="832.78" height="71.321" version="1.1" viewBox="0 0 832.78 71.321" xml:space="preserve" xmlns="http://www.w3.org/2000/svg"><defs><clipPath id="clipPath919-5"><path d="m0 0h841.89v595.28h-841.89z"/></clipPath></defs><g transform="matrix(1.3333 0 0 -1.3333 -329 1104.4)"><g transform="matrix(1.9517 0 0 1.9517 -612.45 220.68)"><g clip-path="url(#clipPath919-5)"><g transform="translate(661.85 284.26)"><path d="m0 0h-7.142v0.109c0 0.109 0.845 2.481 0.845 4.552v10.305c0 2.071-0.845 4.443-0.845 4.552v0.109h7.142v-0.109c0-0.109-0.845-2.481-0.845-4.552v-10.305c0-2.071 0.845-4.443 0.845-4.552zm3.135 4.034-3.653 5.616c-0.081 0.136-0.109 0.191 0.054 0.327l2.345 2.154 2.563 2.371c2.29 2.099 1.308 4.798 1.308 4.962v0.163h6.46v-0.136c-1.144-0.763-2.371-1.881-3.898-3.271l-4.334-4.035 5.752-8.232c1.172-1.69 3.053-3.735 3.053-3.844v-0.109h-8.396c0 0.109-0.136 2.29-1.254 4.034" fill="#003450"/></g><g transform="translate(675.31 288.49)"><path d="m0 0c0 2.781 2.453 4.525 5.179 4.525 0.791 0 2.072-0.163 3.135-0.6v1.5c0 1.854 0 3.053-0.6 3.053-1.526 0-6.378-3.871-6.378-3.871h-0.137v4.307c2.754 0.627 5.343 0.927 6.843 0.927 4.061 0 5.397-2.181 5.397-4.825v-4.689c0-1.744 0.3-2.617 1.717-1.881l0.082-0.081c-0.109-1.581-1.281-2.863-3.353-2.863-1.69 0-2.862 0.845-3.326 2.372-0.572-1.063-1.908-2.372-4.143-2.372-2.944 0-4.416 2.372-4.416 4.498m7.36-1.745c0.381 0 0.709 0.11 1.036 0.355-0.054 0.3-0.082 0.6-0.082 0.954v3.435c-0.272 0.082-0.545 0.109-0.818 0.109-1.581 0-2.181-0.982-2.181-2.29 0-1.445 0.709-2.563 2.045-2.563" fill="#003450"/></g><g transform="translate(698.59 284.26)"><path d="m0 0h-6.815v0.109c0 0.109 0.845 2.481 0.845 4.552v4.58c0 2.072-0.845 4.443-0.845 4.552v0.109h5.97v-2.971c0.981 2.208 2.644 4.089 5.915 3.026l-0.818-5.397h-0.136c-1.117 1.308-2.917 2.671-4.961 1.662v-5.561c0-2.071 0.845-4.443 0.845-4.552z" fill="#003450"/></g><g transform="translate(711.64 284.26)"><path d="m0 0h-6.815v0.109c0 0.109 0.845 2.481 0.845 4.552v10.577c0 2.072-0.899 4.335-0.899 4.444l-0.028 0.109 0.845 0.109 5.207 0.545v-15.784c0-2.071 0.845-4.443 0.845-4.552z" fill="#003450"/></g><g transform="translate(713.2 291.24)"><path d="m0 0c0 5.016 3.571 7.088 7.551 7.088 3.953 0 7.578-2.099 7.578-7.088 0-5.016-3.625-7.306-7.578-7.306-3.98 0-7.551 2.29-7.551 7.306m9.405 0c0 2.699-0.245 5.861-1.854 5.861-1.635 0-1.826-3.189-1.826-5.861 0-2.699 0.191-6.052 1.826-6.052 1.609 0 1.854 3.353 1.854 6.052" fill="#003450"/></g><g transform="translate(728.54 298.08)"><path d="m0 0v0.082h8.097v-0.109c0-0.082-1.036-2.072-0.273-3.789l2.317-5.18 2.126 5.152c0.709 1.718-0.354 3.735-0.354 3.817v0.109h4.225v-0.109c0-0.109-1.499-2.345-2.29-4.253l-4.034-9.541h-3.135l-4.307 9.569c-0.845 1.908-2.372 4.143-2.372 4.252" fill="#003450"/></g><g transform="translate(745.01 288.49)"><path d="m0 0c0 2.781 2.453 4.525 5.18 4.525 0.79 0 2.071-0.163 3.134-0.6v1.5c0 1.854 0 3.053-0.6 3.053-1.526 0-6.378-3.871-6.378-3.871h-0.136v4.307c2.753 0.627 5.342 0.927 6.842 0.927 4.061 0 5.397-2.181 5.397-4.825v-4.689c0-1.744 0.3-2.617 1.718-1.881l0.081-0.081c-0.109-1.581-1.281-2.863-3.353-2.863-1.69 0-2.862 0.845-3.325 2.372-0.573-1.063-1.909-2.372-4.144-2.372-2.944 0-4.416 2.372-4.416 4.498m7.36-1.745c0.382 0 0.709 0.11 1.036 0.355-0.054 0.3-0.082 0.6-0.082 0.954v3.435c-0.272 0.082-0.545 0.109-0.817 0.109-1.581 0-2.182-0.982-2.182-2.29 0-1.445 0.709-2.563 2.045-2.563" fill="#003450"/></g><g transform="translate(528.95 284.26)"><path d="m0 0h-6.815v0.109c0 0.109 0.845 2.481 0.845 4.552v4.58c0 2.072-0.845 4.444-0.845 4.552v0.109h5.97v-2.316c0.709 1.226 2.154 2.48 4.361 2.48 2.536 0 4.526-1.636 4.526-4.525v-4.88c0-2.071 0.845-4.443 0.845-4.552v-0.109h-6.815v0.109c0 0.109 0.845 2.481 0.845 4.552v4.144c0 1.608-0.954 2.126-1.963 2.154-0.627 0.027-1.254-0.164-1.799-0.409v-5.889c0-2.071 0.845-4.443 0.845-4.552z" fill="#003450"/></g><g transform="translate(547.19 284.26)"><path d="m0 0h-6.815v0.109c0 0.109 0.845 2.481 0.845 4.552v4.58c0 2.072-0.845 4.444-0.845 4.552v0.109h5.97v-9.241c0-2.071 0.845-4.443 0.845-4.552zm-6.734 18.101c0 1.69 1.391 3.025 3.081 3.025s3.08-1.335 3.08-3.025c0-1.691-1.417-3.026-3.08-3.026-1.636 0-3.081 1.335-3.081 3.026" fill="#003450"/></g><g transform="translate(564.33 291.16)"><path d="m0 0c0 4.58 3.026 7.169 7.415 7.169 5.179 0 6.679-3.789 6.679-6.951h-8.396c0.327-2.453 1.39-4.143 3.952-4.143 1.336 0 2.454 0.327 4.008 1.199l0.108-0.082c-0.545-1.744-2.698-4.416-6.487-4.416-3.381 0-7.279 2.127-7.279 7.224m5.616 0.927 3.462 1.09c0 1.636-0.136 3.898-1.745 3.898-1.581 0-1.799-2.235-1.772-3.925 0-0.354 0.027-0.709 0.055-1.063" fill="#003450"/></g><g transform="translate(587.01 284.26)"><path d="m0 0h-6.815v0.109c0 0.109 0.845 2.481 0.845 4.552v4.58c0 2.072-0.845 4.444-0.845 4.552v0.109h5.97v-2.971c0.982 2.208 2.645 4.089 5.915 3.026l-0.817-5.397h-0.136c-1.118 1.308-2.917 2.671-4.962 1.662v-5.561c0-2.071 0.845-4.443 0.845-4.552z" fill="#003450"/></g><g transform="translate(600.52 296.88)"><path d="m0 0h-0.927c-2.48 0-5.316-3.789-5.452-3.789h-0.136v5.07h13.439l-6.924-12.621h0.736c2.481 0 5.316 3.816 5.452 3.816h0.137v-5.097h-13.249z" fill="#003450"/></g><g transform="translate(616.13 284.26)"><path d="m0 0h-6.815v0.109c0 0.109 0.845 2.481 0.845 4.552v4.58c0 2.072-0.845 4.444-0.845 4.552v0.109h5.97v-9.241c0-2.071 0.845-4.443 0.845-4.552zm-6.733 18.101c0 1.69 1.39 3.025 3.08 3.025s3.08-1.335 3.08-3.025c0-1.691-1.417-3.026-3.08-3.026-1.636 0-3.08 1.335-3.08 3.026" fill="#003450"/></g><g transform="translate(619.32 288.73)"><path d="m0 0v8.069h-1.99v1.363c3.08 1.608 5.206 3.271 7.088 5.179v-5.179h3.652v-1.363h-3.652l0.027-7.605c0-1.391 0.763-1.909 1.744-1.909 0.545 0 1.146 0.164 1.745 0.382-0.599-1.827-1.881-3.735-4.58-3.735-2.48 0-4.034 1.636-4.034 4.798" fill="#003450"/></g><g transform="translate(629.65 288.49)"><path d="m0 0c0 2.781 2.453 4.525 5.18 4.525 0.79 0 2.071-0.163 3.134-0.6v1.5c0 1.854 0 3.053-0.6 3.053-1.526 0-6.378-3.871-6.378-3.871h-0.137v4.307c2.754 0.627 5.343 0.927 6.843 0.927 4.061 0 5.397-2.181 5.397-4.825v-4.689c0-1.744 0.3-2.617 1.717-1.881l0.082-0.081c-0.109-1.581-1.281-2.863-3.353-2.863-1.69 0-2.862 0.845-3.325 2.372-0.573-1.063-1.909-2.372-4.144-2.372-2.944 0-4.416 2.372-4.416 4.498m7.36-1.745c0.382 0 0.709 0.11 1.036 0.355-0.054 0.3-0.082 0.599-0.082 0.954v3.435c-0.272 0.082-0.545 0.109-0.818 0.109-1.581 0-2.181-0.982-2.181-2.29 0-1.445 0.709-2.563 2.045-2.563" fill="#003450"/></g><g transform="translate(548.36 298.08)"><path d="m0 0v0.082h8.097v-0.109c0-0.082-1.036-2.072-0.273-3.789l2.317-5.18 2.126 5.152c0.709 1.718-0.354 3.735-0.354 3.817v0.109h4.225v-0.109c0-0.109-1.499-2.345-2.29-4.253l-4.034-9.541h-3.135l-4.307 9.569c-0.845 1.908-2.372 4.143-2.372 4.252" fill="#003450"/></g><g transform="translate(503.82 292.55)"><path d="m0 0v6.679c0 2.071-0.845 4.443-0.845 4.552v0.109h7.142v-0.109c0-0.109-0.845-2.481-0.845-4.552v-7.333c0-4.008 1.635-5.725 4.253-5.725 2.616 0 4.238 1.745 4.238 5.534v5.207c0 3.107-1.689 6.651-1.689 6.815v0.163h5.198v-0.163c0-0.164-1.69-3.708-1.69-6.815v-5.207c0-5.561-3.386-7.769-7.53-7.769-3.87 0-8.232 1.99-8.232 8.614" fill="#003450"/></g><g transform="translate(491.38 299.15)"><path d="m0 0c-0.496 0.279-1.032 0.419-1.566 0.44 0.756 1.977 0.779 4.098 0.155 6.02-1.966-0.469-3.765-1.593-5.058-3.268-0.296 0.444-0.695 0.828-1.191 1.107-1.69 0.948-3.834 0.336-4.79-1.366-0.955-1.703-0.36-3.852 1.33-4.8 0.873-0.49 1.867-0.559 2.757-0.281-1.561-1.683-3.785-2.74-6.261-2.74-3.891 0-7.16 2.604-8.194 6.16 0.638-0.67 1.532-1.09 2.526-1.09 1.938 0 3.508 1.583 3.508 3.535 0 1.953-1.57 3.535-3.508 3.535-0.569 0-1.105-0.139-1.581-0.382-0.308 2.094-1.326 3.954-2.811 5.325-1.485-1.371-2.503-3.231-2.811-5.325-0.476 0.243-1.011 0.382-1.581 0.382-1.937 0-3.508-1.582-3.508-3.535 0-1.952 1.571-3.535 3.508-3.535 0.994 0 1.888 0.42 2.527 1.09-1.035-3.556-4.304-6.16-8.194-6.16-2.477 0-4.701 1.057-6.261 2.74 0.889-0.278 1.883-0.209 2.757 0.281 1.689 0.948 2.284 3.097 1.329 4.8-0.956 1.702-3.1 2.314-4.79 1.366-0.496-0.279-0.895-0.663-1.191-1.107-1.293 1.675-3.092 2.799-5.058 3.268-0.624-1.922-0.601-4.043 0.155-6.02-0.533-0.021-1.069-0.161-1.566-0.44-1.689-0.948-2.284-3.097-1.329-4.8 0.955-1.702 3.1-2.314 4.789-1.366 0.617 0.346 1.083 0.855 1.385 1.441 0.975-1.846 1.529-3.949 1.529-6.182 0-0.825-0.076-1.632-0.22-2.415-0.027-0.147 0.067-0.285 0.214-0.307 5.259-0.783 11.552-1.238 18.316-1.238s13.057 0.455 18.316 1.238c0.147 0.022 0.241 0.16 0.214 0.307-0.144 0.783-0.219 1.59-0.219 2.415 0 2.233 0.553 4.336 1.529 6.182 0.302-0.586 0.767-1.095 1.384-1.441 1.689-0.948 3.834-0.336 4.789 1.366 0.956 1.703 0.361 3.852-1.329 4.8" fill="#d32e3f"/></g></g></g></g></svg>
