<?xml version="1.0" encoding="UTF-8" standalone="no"?>
<svg
   xmlns:dc="http://purl.org/dc/elements/1.1/"
   xmlns:cc="http://creativecommons.org/ns#"
   xmlns:rdf="http://www.w3.org/1999/02/22-rdf-syntax-ns#"
   xmlns:svg="http://www.w3.org/2000/svg"
   xmlns="http://www.w3.org/2000/svg"
   version="1.1"
   id="svg4417"
   viewBox="0 0 538.58267 133.72619"
   height="3.77405cm"
   width="15.2cm">
  <defs
     id="defs4419" />
  <metadata
     id="metadata4422">
    <rdf:RDF>
      <cc:Work
         rdf:about="">
        <dc:format>image/svg+xml</dc:format>
        <dc:type
           rdf:resource="http://purl.org/dc/dcmitype/StillImage" />
        <dc:title></dc:title>
      </cc:Work>
    </rdf:RDF>
  </metadata>
  <g
     transform="translate(-115.68029,-398.04603)"
     id="layer1">
    <g
       id="g4338"
       transform="matrix(4.0777663,0,0,-4.0777663,-2764.445,718.14835)">
      <g
         transform="translate(-17.348331,5.7735863)"
         id="g5026">
        <path
           d="m 775.133,57.547 0,12.1876 c 0,0.6959 0.168,0.898 1.275,0.898 l 0.34,0 0,0.8132 -5.967,0 0,-0.7908 0.673,2e-4 c 0.458,0.0015 0.762,9e-4 0.925,-0.1621 0.149,-0.1494 0.216,-0.4652 0.216,-1.0239 l 0,-5.1899 -7.659,0 0,5.1899 c 0,0.5587 0.067,0.8745 0.217,1.0239 0.163,0.163 0.466,0.163 0.926,0.1621 l 0.671,-2e-4 0,0.7908 -5.966,0 0,-0.8132 0.34,0 c 1.107,0 1.275,-0.2021 1.275,-0.898 l 0,-12.1876 c 0,-0.6049 -0.059,-0.9207 -1.319,-0.9207 l -0.318,0 0,-0.8127 5.988,0 0,0.7906 -0.689,-3e-4 c -0.45,-6e-4 -0.746,-0.0023 -0.907,0.1576 -0.15,0.1502 -0.218,0.474 -0.218,1.0508 l 0,5.5877 7.659,0 0,-5.5877 c 0,-0.5768 -0.067,-0.9006 -0.218,-1.0508 -0.16,-0.1599 -0.457,-0.1576 -0.906,-0.1576 l -0.69,3e-4 0,-0.7906 5.989,0 0,0.8127 -0.318,0 c -1.26,0 -1.319,0.3158 -1.319,0.9207"
           style="fill:#b31a1f;fill-opacity:1;fill-rule:nonzero;stroke:none"
           id="path4340" />
        <path
           d="m 782.656,62.4878 2.081,5.7404 2.244,-5.7404 -4.325,0 z m 3.371,9.3691 -0.382,0 -0.036,-0.0553 c -0.383,-0.593 -0.914,-1.1384 -1.624,-1.6665 l -0.103,-0.076 0.284,-0.4734 c 0.035,-0.0561 0.094,-0.1502 0.094,-0.2936 0,-0.0474 -0.041,-0.2767 -0.057,-0.3266 l -3.806,-10.131 c -0.036,-0.0995 -0.073,-0.2041 -0.111,-0.3113 -0.262,-0.7412 -0.589,-1.6639 -1.152,-1.7662 l -0.868,-0.1534 0,-0.79 4.396,0 0,0.7716 -0.592,0.0848 c -0.573,0.0822 -1.133,0.2072 -1.133,0.7446 0,0.2211 0.195,0.8782 0.3,1.1676 l 1.095,2.9821 5,0 1.317,-3.6052 c 0.135,-0.3361 0.145,-0.6205 0.145,-0.6995 0,-0.3734 -0.264,-0.4465 -0.961,-0.5457 l -0.808,-0.1046 0,-0.7957 6.076,0 0,0.8192 -0.147,-0.0065 c -0.892,-0.04 -1.185,0.3081 -1.499,1.1041 l -5.428,14.1265 z"
           style="fill:#b31a1f;fill-opacity:1;fill-rule:nonzero;stroke:none"
           id="path4342" />
        <path
           d="m 803.791,64.6951 c -0.779,-1.3637 -2.424,-1.5216 -3.593,-1.5216 -0.403,0 -0.77,0.0164 -1.009,0.0334 l 0,6.0852 c 0,0.7699 0.109,1.4071 1.451,1.4071 1.606,0 2.613,-0.5026 3.171,-1.5826 0.276,-0.534 0.448,-1.3737 0.448,-2.1915 0,-0.8838 -0.175,-1.7175 -0.468,-2.23 z m 0.597,6.1427 c -1.037,0.4357 -2.398,0.6301 -4.412,0.6301 -0.447,0 -0.866,-0.0099 -1.318,-0.0209 -0.888,-0.021 -1.896,-0.0448 -3.477,-0.0012 l -0.145,0.004 0,-0.8172 0.546,0 c 0.229,0.0022 0.51,8e-4 0.721,-0.1123 0.234,-0.1258 0.347,-0.3829 0.347,-0.7857 l 0,-11.723 c 0,-1.3853 -0.227,-1.3853 -1.318,-1.3853 l -0.296,0 0,-0.8127 6.099,0 0,0.8059 -0.156,-0.0159 c -0.74,-0.0771 -1.231,0.0046 -1.499,0.2461 -0.257,0.2321 -0.291,0.6171 -0.291,0.9626 l 0,4.5476 c 0.211,-0.0011 0.328,-0.0062 0.442,-0.0107 0.133,-0.0054 0.262,-0.0108 0.523,-0.0108 1.902,0 3.31,0.2214 4.305,0.6761 1.618,0.7338 2.404,2.0273 2.404,3.9549 0,1.9153 -0.786,3.1441 -2.475,3.8684"
           style="fill:#b31a1f;fill-opacity:1;fill-rule:nonzero;stroke:none"
           id="path4344" />
        <path
           d="m 818.702,70.655 0.141,0 c 1.036,0 1.562,-0.2724 1.562,-0.8102 0,-0.4068 -0.588,-1.313 -1.849,-2.8522 l -1.562,-1.912 -2.261,3.2749 c -0.9,1.2855 -1.058,1.6186 -1.058,1.8434 0,0.2888 0.385,0.3716 0.71,0.39 l 1.082,0.0754 0,0.7815 -6.896,0 0,-0.7951 0.146,0.0045 c 1.428,0.0375 1.893,-0.6224 2.268,-1.1559 l 4.299,-6.219 -3.831,-4.9852 C 810.895,57.5515 810.2,56.626 808.71,56.6042 l -0.139,-0.002 0,-0.7886 5.569,0 0,0.7793 -1.172,0.0997 c -0.478,0.0321 -0.775,0.1231 -0.775,0.4785 0,0.3056 0.668,1.3561 1.985,3.1227 l 1.651,2.2076 2.942,-4.3495 c 0.271,-0.3875 0.528,-0.7532 0.528,-1.0029 0,-0.5029 -0.875,-0.5448 -1.695,-0.5448 l -0.141,0 0,-0.7906 6.829,0 0,0.7951 -0.145,-0.0048 c -1.319,-0.0402 -1.774,0.5346 -2.533,1.6413 l -4.078,6.04 3.932,4.8274 c 0.589,0.7427 1.259,1.5752 2.679,1.5426 l 0.145,-0.0045 0,0.7951 -5.59,0 0,-0.7908 z"
           style="fill:#b31a1f;fill-opacity:1;fill-rule:nonzero;stroke:none"
           id="path4346" />
        <path
           d="m 833.503,56.361 c -3.444,0 -5.012,3.7221 -5.012,7.1801 0,5.1129 2.551,7.4016 5.078,7.4016 2.485,0 4.991,-2.2683 4.991,-7.3352 0,-5.0057 -2.54,-7.2465 -5.057,-7.2465 z m -0.022,15.3504 c -4.484,0 -7.617,-3.3054 -7.617,-8.0376 0,-4.7084 3.222,-8.1258 7.662,-8.1258 4.498,0 7.639,3.3052 7.639,8.0374 0,4.7846 -3.16,8.126 -7.684,8.126"
           style="fill:#b31a1f;fill-opacity:1;fill-rule:nonzero;stroke:none"
           id="path4348" />
        <path
           d="m 853.478,63.0975 c -0.641,0.5227 -1.487,0.8867 -2.394,1.0398 0.513,0.1372 1.013,0.3512 1.472,0.6329 1.193,0.7302 1.748,1.696 1.748,3.0399 0,1.1937 -0.449,2.1609 -1.336,2.8746 -0.858,0.6908 -1.979,1.0267 -3.428,1.0267 -1.181,0 -1.935,-0.1984 -2.702,-0.4952 -0.208,-0.0759 -0.396,-0.1743 -0.562,-0.2613 -0.222,-0.1165 -0.414,-0.2166 -0.562,-0.2166 -0.122,0 -0.414,0.2248 -0.527,0.3832 l -0.043,0.059 -0.522,0 0,-4.6174 0.702,0 0.02,0.1177 c 0.141,0.843 0.463,1.811 0.802,2.4083 0.844,1.4771 2.107,1.787 3.019,1.787 0.768,0 1.389,-0.2316 1.848,-0.6903 0.535,-0.5153 0.842,-1.341 0.842,-2.2654 0,-0.811 -0.25,-1.6722 -0.636,-2.1938 -0.502,-0.6763 -1.654,-1.3583 -3.094,-1.3583 l -1.402,0 0,-0.9241 1.424,0 c 1.172,0 2.084,-0.201 2.71,-0.5964 0.596,-0.3887 1.307,-1.171 1.307,-2.6907 0,-0.8506 -0.245,-1.7532 -0.64,-2.3564 -0.602,-0.9258 -1.53,-1.3955 -2.758,-1.3955 -0.615,0 -1.1,0.1318 -1.439,0.39 -0.325,0.2571 -0.563,0.6463 -0.727,1.1929 l -0.03,0.0963 c -0.172,0.5468 -0.431,1.3731 -1.431,1.3731 -0.767,0 -1.181,-0.6426 -1.181,-1.2469 0,-0.3526 0.143,-1.5537 1.976,-2.2127 0.799,-0.2733 1.92,-0.4499 2.854,-0.4499 1.392,0 2.712,0.2551 3.623,0.6999 2.128,1.0267 2.446,2.8346 2.446,3.8208 0,1.2472 -0.464,2.266 -1.379,3.0288"
           style="fill:#b31a1f;fill-opacity:1;fill-rule:nonzero;stroke:none"
           id="path4350" />
        <path
           d="m 762.077,41.5973 1.315,2.264 -2.63,4.3115 1.315,0 1.954,-3.2782 1.784,3.2782 1.288,0 -3.739,-6.5755 -1.287,0 z"
           style="fill:#b31a1f;fill-opacity:1;fill-rule:nonzero;stroke:none"
           id="path4352" />
        <path
           d="m 769.378,48.1728 1.155,0 0,-2.7334 3.138,0 0,2.7334 1.156,0 0,-6.5755 -1.156,0 0,2.7711 -3.138,0 0,-2.7711 -1.155,0 0,6.5755 z"
           style="fill:#b31a1f;fill-opacity:1;fill-rule:nonzero;stroke:none"
           id="path4354" />
        <path
           d="m 782.91,41.5973 0,4.7534 -3.57,-4.7534 -1.005,0 0,6.5755 1.155,0 0,-4.6309 3.467,4.6309 1.108,0 0,-6.5755 -1.155,0 z"
           style="fill:#b31a1f;fill-opacity:1;fill-rule:nonzero;stroke:none"
           id="path4356" />
        <path
           d="m 790.433,44.4249 -1.832,0 0,-1.8037 1.916,0 c 0.78,0 1.269,0.3101 1.269,0.9019 l 0,0.0188 c 0,0.5541 -0.442,0.883 -1.353,0.883 z m 0.986,1.8881 c 0,0.5168 -0.413,0.8359 -1.156,0.8359 l -1.662,0 0,-1.7469 1.578,0 c 0.742,0 1.24,0.2911 1.24,0.8923 l 0,0.0187 z m -3.955,1.8598 2.95,0 c 0.751,0 1.343,-0.2063 1.719,-0.5822 0.291,-0.2911 0.442,-0.6577 0.442,-1.0897 l 0,-0.0187 c 0,-0.7891 -0.451,-1.2118 -0.94,-1.4655 0.771,-0.263 1.306,-0.7044 1.306,-1.597 l 0,-0.0187 c 0,-1.1744 -0.968,-1.8037 -2.433,-1.8037 l -3.044,0 0,6.5755 z"
           style="fill:#b31a1f;fill-opacity:1;fill-rule:nonzero;stroke:none"
           id="path4358" />
        <path
           d="m 795.954,48.1728 4.876,0 0,-1.0329 -3.72,0 0,-1.7099 3.297,0 0,-1.0426 -3.297,0 0,-1.7569 3.767,0 0,-1.0332 -4.923,0 0,6.5755 z"
           style="fill:#b31a1f;fill-opacity:1;fill-rule:nonzero;stroke:none"
           id="path4360" />
        <path
           d="m 806.346,44.7537 c 0.874,0 1.418,0.4887 1.418,1.1741 l 0,0.0187 c 0,0.7704 -0.554,1.1744 -1.418,1.1744 l -1.344,0 0,-2.3672 1.344,0 z m -2.499,3.4191 2.592,0 c 1.541,0 2.5,-0.8733 2.5,-2.198 l 0,-0.0187 c 0,-1.4748 -1.184,-2.245 -2.631,-2.245 l -1.306,0 0,-2.1138 -1.155,0 0,6.5755 z"
           style="fill:#b31a1f;fill-opacity:1;fill-rule:nonzero;stroke:none"
           id="path4362" />
        <path
           d="m 810.992,44.8662 0,0.019 c 0,1.8694 1.4,3.4007 3.381,3.4007 1.222,0 1.954,-0.4229 2.584,-1.0241 l -0.742,-0.855 c -0.536,0.4887 -1.09,0.8082 -1.851,0.8082 -1.24,0 -2.16,-1.0242 -2.16,-2.3111 l 0,-0.0187 c 0,-1.2869 0.911,-2.3298 2.169,-2.3298 0.808,0 1.325,0.3195 1.889,0.8456 l 0.742,-0.7515 c -0.686,-0.714 -1.437,-1.165 -2.668,-1.165 -1.926,0 -3.344,1.4938 -3.344,3.3817"
           style="fill:#b31a1f;fill-opacity:1;fill-rule:nonzero;stroke:none"
           id="path4364" />
        <path
           d="m 824.399,41.5973 0,4.7534 -3.57,-4.7534 -1.005,0 0,6.5755 1.155,0 0,-4.6309 3.467,4.6309 1.108,0 0,-6.5755 -1.155,0 z"
           style="fill:#b31a1f;fill-opacity:1;fill-rule:nonzero;stroke:none"
           id="path4366" />
        <path
           d="m 830.45,47.1022 -2.095,0 0,1.0706 5.345,0 0,-1.0706 -2.095,0 0,-5.5049 -1.155,0 0,5.5049 z"
           style="fill:#b31a1f;fill-opacity:1;fill-rule:nonzero;stroke:none"
           id="path4368" />
        <path
           d="m 836.61,48.1728 4.876,0 0,-1.0329 -3.72,0 0,-1.7099 3.297,0 0,-1.0426 -3.297,0 0,-1.7569 3.767,0 0,-1.0332 -4.923,0 0,6.5755 z"
           style="fill:#b31a1f;fill-opacity:1;fill-rule:nonzero;stroke:none"
           id="path4370" />
        <path
           d="m 846.1,47.1022 -2.095,0 0,1.0706 5.345,0 0,-1.0706 -2.094,0 0,-5.5049 -1.156,0 0,5.5049 z"
           style="fill:#b31a1f;fill-opacity:1;fill-rule:nonzero;stroke:none"
           id="path4372" />
        <path
           d="m 755.206,56.8522 0,14.6378 -14.638,0 14.638,-14.6378 z"
           style="fill:#b31a1f;fill-opacity:1;fill-rule:nonzero;stroke:none"
           id="path4374" />
        <path
           d="m 755.206,40.8008 0,14.6378 -14.638,0 14.638,-14.6378 z"
           style="fill:#b31a1f;fill-opacity:1;fill-rule:nonzero;stroke:none"
           id="path4376" />
        <path
           d="m 739.155,56.8522 0,14.6378 -14.638,0 14.638,-14.6378 z"
           style="fill:#b31a1f;fill-opacity:1;fill-rule:nonzero;stroke:none"
           id="path4378" />
        <path
           d="m 739.155,40.8008 0,14.6378 -14.638,0 14.638,-14.6378 z"
           style="fill:#b31a1f;fill-opacity:1;fill-rule:nonzero;stroke:none"
           id="path4380" />
        <path
           d="m 760.762,51.5954 93.894,0 0,0.5496 -93.894,0 0,-0.5496 z"
           style="fill:#b31a1f;fill-opacity:1;fill-rule:nonzero;stroke:none"
           id="path4382" />
      </g>
    </g>
  </g>
</svg>
