<?xml version="1.0" encoding="UTF-8"?>
<svg width="934.03" height="148.87" version="1.1" viewBox="0 0 934.03 148.87" xmlns="http://www.w3.org/2000/svg">
 <g fill="#4f4f4f">
  <path d="m623.1 68.295h-2.4151v78.473h2.4151z"/>
  <path d="m855.23 67.911-0.14512 0.14699 36.948 37.245 0.14514-0.14736z"/>
  <path d="m855.18 107.57v0.20839l37.223-0.0417v-0.20802z"/>
  <path d="m871.44 139.36c-0.64006 2.1855-1.0122 4.5168-1.0122 6.9315v0.95747h0.39445v-0.95747c0-2.3105 0.32746-4.5377 0.92659-6.661"/>
  <path d="m916.93 139.63c0.59911 2.1025 0.92659 4.3505 0.92659 6.661 0 0.33305 0 0.64526-0.0186 0.97831h0.39073c0-0.33305 0.0224-0.64526 0.0224-0.97831 0-2.3314-0.3312-4.6002-0.93031-6.7235"/>
  <path d="m855.1 147.16 0.14513 0.14588 37.99-38.279-0.14513-0.14587z"/>
  <path d="m898.52 111.86 34.931 35.219 0.14141-0.16634-34.931-35.198z"/>
  <path d="m896.41 107.74 37.35 0.0417v-0.18755l-37.35-0.0622z"/>
  <path d="m894.54 122.58h-0.20838v24.666h0.20838z"/>
  <path d="m855.59 68.482h77.755v78.348h-77.755zm-0.68098 79.035h79.117v-79.722h-79.117z"/>
  <path d="m894.43 147.14c-8.116 0-15.923-2.5185-22.577-7.2438-8.5514-6.0779-14.234-15.153-16.009-25.561-1.775-10.387 0.57679-20.878 6.6312-29.474 7.3345-10.449 19.313-16.694 32.04-16.694 8.116 0 15.927 2.5185 22.577 7.2437 8.5328 6.0779 14.234 15.154 15.99 25.561 1.775 10.387-0.58051 20.857-6.6126 29.474-7.3308 10.449-19.313 16.694-32.04 16.694zm0.0633-78.286c-12.496 0-24.27 6.1404-31.482 16.402-5.9279 8.4718-8.2425 18.754-6.4861 28.954 1.7341 10.22 7.3122 19.129 15.7 25.124 6.5494 4.6627 14.211 7.1187 22.205 7.1187 12.5 0 24.274-6.1404 31.463-16.402 5.9502-8.4718 8.2611-18.755 6.5047-28.954-1.7527-10.22-7.3122-19.129-15.718-25.124-6.527-4.6623-14.211-7.1187-22.186-7.1187z"/>
  <path d="m913.89 88.423c5.9688 0 11.298 2.7686 14.81 7.0979h0.51724c-3.5761-4.5585-9.1096-7.4934-15.309-7.4934-4.5436 0-8.7151 1.5819-12.042 4.2255l0.14512 0.41641c3.2635-2.6436 7.3941-4.2255 11.897-4.2255"/>
  <path d="m913.19 127.28h0.70331c10.739 0 19.477-8.8048 19.477-19.629 0-4.1629-1.2801-8.0345-3.5091-11.219l-0.31258 0.22886c2.1509 3.1013 3.431 6.8899 3.431 10.969 0 10.595-8.5514 19.233-19.086 19.233-0.29026 0-0.55819 0-0.84845-0.0208"/>
  <path d="m931.14 95.521h-1.9425c0.22699 0.29137 0.45399 0.60396 0.68098 0.91617z"/>
  <path d="m929.54 96.687 0.31258-0.22923c-0.20839-0.31221-0.43539-0.62442-0.66238-0.91579h-0.51725c0.31258 0.37473 0.59912 0.74946 0.86705 1.1659"/>
  <path d="m913.17 127.26c-0.0409-0.12504-0.0855-0.24969-0.10412-0.35389z"/>
  <path d="m916.35 136.86-3.1816-9.5751c-1.9388-0.0834-3.7994-0.43724-5.5744-1.0408 3.8403 2.6019 6.8992 6.2863 8.7374 10.616"/>
  <path d="m902.88 95.521-0.88937-2.8724c-4.3799 3.5385-7.1894 8.9507-7.1894 15.008 0 10.325 8.1197 18.775 18.241 19.212l-4.8116-14.57 21.338-15.632c-0.26793-0.39557-0.55818-0.7703-0.86704-1.145z"/>
  <path d="m894.35 122.19c2.936 0 5.7232 0.52023 8.3058 1.4985-4.979-3.5594-8.2649-9.4084-8.2649-16.028 0-6.2446 2.9137-11.823 7.4387-15.424l-7.4164-23.687-8.5737 26.976h-27.946l22.618 16.652-8.1607 24.604c3.658-8.5968 12.128-14.612 21.981-14.612"/>
  <path d="m917.09 139.07-0.26793 0.18718c-2.9546-9.6581-11.9-16.673-22.454-16.673-10.557 0-19.399 6.9315-22.413 16.527l-0.24933-0.20839-0.18606 0.56227 22.953-16.881 22.845 17.048-0.20467-0.5619z"/>
  <path d="m871.58 138.86 0.0819 0.0622 0.67726-2.1021c-0.28652 0.6661-0.53213 1.353-0.75913 2.04z"/>
  <path d="m917.15 139.02c-0.22699-0.72862-0.49494-1.4569-0.78147-2.1646l0.72192 2.2063z"/>
  <path d="m897.3 104.64 0.14514 0.14587 36.461-36.739-0.14513-0.12504z"/>
  <path d="m719.69 90.9c0 13.53-9.4594 23.313-24.683 23.313h-18.033v33.325h-9.1096v-79.66h27.143c15.201 0 24.683 9.6581 24.683 23.042m-42.697-14.591v29.454h17.806c10.185 0 15.454-6.1612 15.454-14.737 0-8.5759-5.2693-14.716-15.454-14.716z"/>
  <path d="m778.19 80.055-6.6722 5.1829c-4.0896-6.4109-10.658-10.012-17.661-10.012s-13.694 3.7465-13.694 11.594c0 7.2437 5.3697 9.9082 12.414 13.405l8.5291 4.2255c11.238 5.5368 18.014 11.469 18.014 22.21 0 13.384-10.639 22.21-24.914 22.21-12.269 0-22.454-6.6402-28.423-17.152l6.795-5.1829c4.6701 7.3688 11.569 13.634 21.527 13.634 9.1282 0 15.573-5.1833 15.573-13.28 0-7.3684-5.2656-10.262-12.89-14.009l-8.6556-4.2255c-9.0054-4.4752-17.434-10.137-17.434-21.377 0-12.677 10.762-20.753 23.28-20.753 10.535 0 19.417 5.6827 24.233 13.53"/>
  <path d="m795.32 67.857v79.66h45.734v-8.4509h-36.602v-71.209z"/>
 </g>
 <g fill="#bd122a">
  <path d="m67.425 107.34v-1.5402c0-21.231 3.0574-33.97 13.406-38.591v40.132zm-16.753 6.3696c3.3052 22.001 19.913 34.345 39.063 34.345 23.177 0 32.225-20.066 32.225-25.478 0-1.7274-2.293-3.476-3.6356-3.476-0.76434 0-1.1569 0.39556-1.3426 1.353-2.293 10.428-10.391 22.189-26.668 22.189-13.985 0-21.318-12.156-22.475-28.954h-17.166zm38.195-20.649v-27.975c8.4278-1.9358 14.17 2.5185 14.17 7.1396 0 6.1821-2.4992 10.22-2.4992 10.803 0 1.5402 3.6356 3.0804 7.0852 3.0804 5.9287 0 9.9565-2.5185 9.9565-9.2625 0-10.429-15.513-20.649-28.734-18.151v-51.143h52.283v85.488h-52.283zm-88.867 14.279v-51.725h80.831v4.829c-14.935 4.4335-30.077 21.814-30.077 45.731v1.1655z"/>
  <path d="m284.74 133.63c2.107 7.1187 7.2713 13.676 16.443 13.676 4.0074 0 6.1147-0.7703 6.8787-1.5406 0.57865-0.58274 0.76435-2.123 0.76435-3.268 0-1.1446-0.57829-1.5402-0.95003-1.5402-0.57866 0-2.6856 0.77028-4.9783 0.77028-5.1643 0-5.9287-6.3488-5.9287-18.505 0 0 0.39223-11.948 0.39223-29.474 0-23.5-14.728-28.121-27.143-28.121-14.336 0-23.529 7.9098-23.529 16.194 0 6.7444 4.0074 9.4501 8.0356 9.4501s7.8496-2.123 7.8496-3.0804c0-1.5402-1.9209-3.8507-1.9209-9.4501 0-5.0166 3.4496-8.2846 9.1717-8.2846 8.6139 0 13.386 7.3271 13.386 18.505v7.9098c0 1.5406-2.107 4.621-9.9361 6.5568-8.0356 1.9358-17.207 2.7061-22.557 5.2038-7.0647 3.268-9.75 8.8673-9.75 14.446 0 14.258 9.1717 24.271 23.9 24.271 9.5643 0 17.207-7.3271 19.893-13.676zm-1.7144-30.453h0.1857v20.607c0 8.097-8.0356 17.922-15.307 17.922-9.936 0-12.229-9.6376-12.229-18.297 0-6.5568 2.107-9.4501 5.9283-11.553 2.6856-1.5402 6.1147-2.4977 10.329-3.6632 6.1144-1.5406 8.9856-3.268 11.093-5.0166z"/>
  <path d="m320.2 140.96c-0.9504 0-1.1569 0.18754-1.1569 1.7278 0 3.0804 0.39259 3.476 1.9213 3.476 6.8787 0 8.2213-0.39557 16.443-0.39557 8.2213 0 11.671 0.39557 18.55 0.39557 1.5287 0 1.9213-0.39557 1.9213-3.476 0-1.5402-0.18606-1.7278-0.95041-1.7278-1.7144 0-9.5643 0.18754-12.043 0.18754-0.57827 0-0.57827-34.095-0.57827-42.005 0-16.756 8.8-27.934 17.207-27.934 4.9783 0 6.8787 3.476 6.8787 6.744 0 5.7865-2.107 9.242-2.107 9.8248 0 1.1655 2.293 4.0383 7.064 4.0383 5.3511 0 9.7496-3.8507 9.7496-10.408 0-8.4718-6.8768-15.986-17.971-15.986-11.093 0-17.6 7.5143-21.215 16.569h-0.18606c0-14.259-0.18569-14.446-0.57829-14.446-1.1569 0-4.5857 0.39557-6.693 0.39557-7.2713 0-16.257-0.18755-19.314-0.18755-0.76434 0-0.95002 0.18755-0.95002 1.7278 0 3.0808 0.39259 3.268 1.7144 3.268 2.107 0 8.986-0.18718 10.515-0.18718 0.57827 0 1.3426 22.543 1.3426 30.244v7.7015c0 6.5568 0 30.64-0.3926 30.64-1.7144 0-7.4574-0.18754-9.1717-0.18754z"/>
  <path d="m407.38 48.27c-0.76658 0-3.0589 0.95747-6.8806 1.7278-2.4783 0.58274-7.6434 1.1655-7.6434 2.4977 0 4.8082 0.76658 72.458 0.76658 72.458 0 15.216 6.6908 23.5 18.922 23.5 14.729 0 20.448-14.071 20.448-18.505 0-1.5402-1.9201-4.0383-3.0551-4.0383-0.58051 0-1.1573 0.39557-1.3434 1.353-1.9202 8.8673-7.2713 15.424-13.571 15.424-2.6867 0-6.8806-2.3105-6.8806-11.948v-58.178c3.8217 0 16.072 0.18718 19.503 0.18718 1.3396 0 1.7118-0.18718 1.7118-3.268 0-1.5402-0.18607-1.7278-0.94892-1.7278-2.4783 0-16.835 0.18755-20.266 0.18755 0-21.585 0.5805-16.194 0.5805-18.879 0-0.39557-0.76656-0.7703-1.3434-0.7703z"/>
  <path d="m477.55 65.047c-19.127 0-37.101 14.633-37.101 43.15 0 20.815 12.995 40.069 37.287 40.069 21.029 0 30.22-16.964 30.22-19.275 0-1.353-1.3396-4.4338-2.4784-4.4338-0.57679 0-1.1573 0.18755-1.5294 0.95748-3.4496 8.6801-12.805 17.527-26.19 17.527-14.915 0-22-8.4718-22-38.737h48.748c1.1573 0 2.4784-1.9358 2.4784-11.177 0-15.029-13.199-28.121-29.454-28.121zm11.279 35.073h-33.071c0.94893-23.5 9.9357-30.244 21.215-30.244 14.148 0 15.101 10.99 15.101 19.65 0 7.3267-1.7155 10.595-3.2449 10.595z"/>
  <path d="m549.06 65.609c-15.305 0-23.321 10.595-23.321 21.773 0 11.178 5.9279 17.735 16.258 21.585l12.228 4.621c10.326 3.8507 12.622 10.012 12.622 16.194 0 7.5143-5.1651 14.071-14.152 14.071-7.2713 0-13.385-3.0804-17.021-8.2842-3.0588-4.2463-5.3511-11.178-6.5084-15.424-0.18606-0.95748-0.9489-1.1659-3.2412-1.1659-0.39445 0-0.76658 0.39557-0.76658 0.7703 0 0.95747 0.39445 6.9315 0.39445 12.135s-0.94891 12.322-0.94891 13.488c0 0.58275 1.7118 1.1655 2.683 1.1655 0.58051 0 2.4783-3.0808 4.7743-3.0808 4.004 0 10.907 4.8086 20.843 4.8086 13.757 0 25.427-11.365 25.427-25.041 0-12.53-6.3-18.296-19.313-23.126l-12.232-4.621c-6.3-2.3101-10.326-6.5564-10.326-13.092 0-5.3913 4.0078-12.531 12.622-12.531 9.5636 0 14.148 7.5143 15.678 15.029 0.18606 1.5402 0.76285 1.7278 3.4496 1.7278 0.57679 0 0.76285-0.18755 0.76285-0.95747 0-0.58312-0.18606-3.8511-0.18606-8.2846 0-4.0383 0.95262-8.2846 0.95262-8.6798 0-0.39557-1.7155-1.353-2.2923-1.353-0.76657 0-2.1099 2.123-3.8217 2.123-1.9239 0-6.3-3.8507-14.524-3.8507z"/>
  <path d="m170.63 10.095c0-0.39549-0.76435-0.77018-1.343-0.77018-0.76434 0-3.057 0.95751-6.8787 1.7277-2.4787 0.58286-7.643 1.1657-7.643 2.4978s0.37175 36.031 0.37175 36.031v57.804c0 6.5568 0 33.721-0.39259 33.721-2.4787 0-9.2543-0.18755-11.34-0.18755-0.76433 0-0.9504 0.18755-0.9504 1.7278 0 3.0808 0.39259 3.476 1.7147 3.476 6.8787 0 10.39-0.39519 18.612-0.39519 8.2217 0 10.742 0.39519 17.641 0.39519 1.5287 0 1.9209-0.39519 1.9209-3.476 0-1.5402-0.18569-1.7278-0.95002-1.7278-2.4787 0-8.4487 0.18755-11.134 0.18755-0.57829 0-0.39223-21.377-0.39223-29.1v-12.906c1.5283-16.194 11.279-28.891 22.95-28.891 10.143 0 15.307 8.4718 15.1 18.692l-0.39222 18.505c-0.18606 6.5568 0 33.721-0.3926 33.721-2.4787 0-8.0148-0.18754-10.7-0.18754-0.76434 0-0.95004 0.18754-0.95004 1.7278 0 3.0808 0.39223 3.476 1.9209 3.476 6.8787 0 9.5435-0.39557 17.765-0.39557 8.2213 0 10.7 0.39557 17.6 0.39557 1.3426 0 1.7144-0.39519 1.7144-3.476 0-1.5402-0.18608-1.7278-0.95004-1.7278-2.293 0-8.4077 0.18754-10.907 0.18754-0.39259 0-0.39259-15.612-0.39259-23.313 0 0 0.18569-3.476 0.18569-21.003 0-23.708-15.1-31.785-27.536-31.785-11.093 0-20.843 7.7015-24.85 17.734h-0.18606c0-18.879 0.78519-70.022 0.78519-72.645z"/>
 </g>
 <g>
  <path d="m226.71 17.568c0 0.64526-0.18606 5.2038-0.18606 6.5151 0 1.3114 0.18606 4.8291 0.18606 5.3287 0 0.31221-0.18606 0.45793-0.41306 0.45793-0.90909 0-0.9917-0.04165-1.0952-0.95751-0.0826-1.1864-0.90873-2.3313-1.3218-2.7892-0.76433-0.81179-1.6734-1.1865-2.8922-1.2281l-3.3465-0.08324v3.83c0 1.9566 0 10.637 0.22737 10.637h6.7961c3.3878 0 5.123-2.1025 5.8874-3.1432 0.90872-1.1865 1.1774-3.0598 1.4461-4.7042 0.0826-0.45793 0.227-0.58282 0.99134-0.58282 0.30998 0 0.49566 0 0.49566 0.31221 0 0.6453-0.22699 4.0173-0.22699 5.3287 0 1.4155 0.14438 3.7885 0.14438 4.059 0 0.22886-0.0414 0.31221-0.2683 0.31221-4.173 0-15.307-0.27053-17.93-0.27053-2.0452 0-4.2965 0.18718-6.073 0.18718-0.37213 0-0.45474-0.1455-0.45474-1.1033 0-0.41603 0.0414-0.45771 0.18608-0.45771 0.9504 0 2.8508 0.04168 3.8008 0.04168 0.0826 0 0.0826-2.5604 0.0826-8.4302v-12.031c0-1.686-0.0414-7.8473-0.14439-7.8473-0.68172 0-2.9334 0.0416-3.6565 0.0416-0.37176 0-0.41307-0.14569-0.41307-1.1032 0-0.41629 0.0414-0.45793 0.227-0.45793 1.756 0 4.3795 0.18733 6.4243 0.18733 0.95041 0 2.8095 0 5.0199-0.041603v-0.04164l1.9417-7.889c0.22701-0.91587 1.4461-1.6444 2.9952-1.6444 0.41306 0 0.59911 0.083261 0.59911 0.4163 0 0.18734-0.0414 0.41631-0.18605 0.6869-0.26867 0.49956-3.3465 6.9315-4.0695 8.4301 3.7183-0.083281 7.9738-0.18733 10.37-0.18733 0.22737 0 0.68174 0.41629 0.68174 0.64526 0 0.27061-0.14476 3.1847-0.14476 4.6001 0 1.3322 0.0826 2.6852 0.0826 3.1847 0 0.31225-0.18569 0.45794-0.41305 0.45794-1.0326 0-1.1361-0.04161-1.3222-0.95747-0.26831-1.4571-0.41307-2.2897-1.26-3.5594-0.72304-1.1032-2.1687-2.7892-5.5566-2.7892h-6.0734c-0.22699 0-0.22699 9.6166-0.22699 11.594v0.91587l3.1604-0.08328c1.2187-0.04161 2.8095-0.58282 3.4496-1.6027 0.64042-0.95751 0.9091-2.2272 0.9504-3.9133 0-0.45794 0.22737-0.58282 0.99134-0.58282 0.30998 0 0.49603 0 0.49603 0.31225z"/>
  <path d="m253.21 24.354c0 1.9983-1.26 2.6435-2.6648 2.6435-1.0948 0-2.1278-0.45794-2.1278-0.81179 0-0.31225 0.57864-1.1865 0.57864-2.7268 0-1.1032-0.41342-1.8317-1.6734-1.8317-2.8505 0-4.7926 2.4562-4.7926 9.804 0 5.6617 1.5495 8.3052 5.1643 8.3052 2.7061 0 5.0199-2.3727 5.5156-5.2869 0.0414-0.14572 0.0826-0.27061 0.30998-0.27061 0.49568 0 0.90873 0.64526 0.90873 0.91587 0 1.7277-2.1278 6.2027-7.4778 6.2027-5.3504 0-8.9652-4.8706-8.9652-9.8454 0-7.8057 5.2469-11.261 9.3782-11.261 4.1313 0 5.846 2.1023 5.846 4.2047z"/>
  <path d="m277.26 30.744c0 6.3902-4.8956 10.533-9.6469 10.533-5.7839 0-9.6469-4.746-9.6469-10.533 0-6.3486 4.9373-10.574 9.6469-10.574 6.0734 0 9.6469 4.6418 9.6469 10.574zm-4.5239-0.04165c0-6.4319-1.6731-9.0754-5.123-9.0754-3.4496 0-5.123 2.8309-5.123 9.0754 0 6.2446 1.3222 9.0337 5.123 9.0337s5.123-2.7891 5.123-9.0337z"/>
  <path d="m286.95 27.872c0 1.9566 0 11.407 0.22699 11.407 0.76435 0 2.3139-0.04167 2.8922-0.04167 0.18605 0 0.22737 0.04167 0.22737 0.45771 0 0.95747-0.0826 1.1033-0.45475 1.1033-1.7557 0-2.9331-0.18718-4.9783-0.18718-2.0452 0-3.7182 0.18718-5.4739 0.18718-0.37213 0-0.45474-0.14587-0.45474-1.1033 0-0.41603 0-0.45771 0.18606-0.45771 0.9504 0 2.4996 0.04167 3.4496 0.04167 0.18605 0 0.22735-6.7442 0.22735-8.4303v-21.773c-1.1361 0-2.4996 0.083243-3.5735 0.083243-0.37211 0-0.45472-0.14569-0.45472-1.1032 0-0.41629 0-0.45793 0.18606-0.45793 1.4461 0 4.7926 0.14572 6.2383 0.14572 0.57867 0 1.5908-0.22897 1.8178-0.22897 0.14475 0 0.37176 0.14569 0.37176 0.22897 0 1.686-0.41307 4.5585-0.41307 13.28v6.8482z"/>
  <path d="m309.17 27.643c0 0.77015-0.14475 2.2272-0.53698 2.2272h-11.63c0 6.3902 1.3218 9.8454 5.5152 9.8454 2.5822 0 4.6687-2.0604 5.7426-4.4127 0.18605-0.45794 0.26866-0.54118 0.45472-0.54118 0.37176 0 0.76435 0.99915 0.76435 1.3322 0 0.49958-2.0865 5.2036-7.4782 5.2036-6.0731 0-9.3161-5.2452-9.3161-10.262 0-6.5776 4.2139-10.845 8.9239-10.845 6.1557 0 7.5604 5.2038 7.5604 7.4726zm-5.2882 0.81179c0.80566 0 1.1361-1.3738 1.1361-2.4562 0-3.1014-1.0326-4.5169-3.3052-4.5169-3.1191 0-4.4413 3.1847-4.6683 6.9731z"/>
  <path d="m331.9 20.794c0.14475 0 0.37212 0.14569 0.37212 0.22897 0 0 0.18569 1.6028 0.22699 3.4137h0.0826c0.64043-2.3729 2.8922-4.2047 5.5156-4.2047 3.9452 0 6.8374 2.3313 6.8374 6.9315l-0.0414 12.094c0.9504 0 2.3961-0.04168 2.9952-0.04168 0.18605 0 0.22737 0.04168 0.22737 0.45771 0 0.95785-0.0826 1.1033-0.45437 1.1033-1.756 0-2.7682-0.18718-4.7926-0.18718s-2.3961 0.18718-4.1726 0.18718c-0.37176 0-0.45475-0.1455-0.45475-1.1033 0-0.31221 0.0414-0.45771 0.18606-0.45771 0.95041 0 1.1361 0.04168 2.0865 0.04168 0.1857 0 0.26831-6.7442 0.26831-8.4302v-5.3287c0-2.1856-1.4044-3.601-3.2222-3.601-2.5822 0-4.9373 2.8309-4.9373 6.9315 0 1.9566 0 10.449 0.22737 10.449 0.76433 0 1.5492-0.04167 2.1278-0.04167 0.18568 0 0.22699 0.04167 0.22699 0.45771 0 0.95747-0.0826 1.1033-0.45436 1.1033-1.7557 0-2.1691-0.18718-4.2139-0.18718-2.0452 0-3.0778 0.18718-4.8339 0.18718-0.37175 0-0.45436-0.14587-0.45436-1.1033 0-0.31221 0.0414-0.45771 0.18568-0.45771 0.41343 0 2.0452 0.04167 2.8095 0.04167 0.14438 0 0.22737-3.7469 0.22737-6.5153v-1.915c0-0.45793 0-4.9748-0.26867-8.4926-0.22737 0-2.1691 0.08328-2.8095 0.08328-0.37175 0-0.45436-0.14572-0.45436-1.1032 0-0.37465 0.0414-0.45794 0.18605-0.45794 1.3218 0 4.1105 0.14572 5.35 0.14572 0.68173 0 1.1361-0.22897 1.4461-0.22897z"/>
  <path d="m365.77 26.269c0 1.7277-0.14476 6.2029-0.14476 8.2012 0 2.6019 0.68174 5.0164 1.9834 5.0164 0.41305 0 0.72267-0.04168 1.0948-0.18718 0.26831-0.08335 0.41307-0.18755 0.49568-0.18755 0.14438 0 0.30996 0.14587 0.30996 0.58274 0 0.14587 0 0.49976-0.26866 0.72862-0.45437 0.4164-1.3635 0.64526-2.1691 0.64526-2.8918 0-4.4-1.9983-4.9783-3.6427-0.9504 2.1442-2.7061 3.6427-5.2469 3.6427-3.8835 0-5.7013-3.1013-5.7013-5.8282 0-1.8733 0.76433-3.4137 2.4374-4.1422 1.4048-0.64526 5.4743-1.3322 6.693-1.7693 1.0948-0.4163 1.4048-1.1032 1.4048-1.6444v-2.144c0-2.9558-1.1361-3.8716-3.0365-3.8716-1.4874 0-2.3552 0.77018-2.3552 1.9983 0 1.2281 0.45437 1.8317 0.45437 2.3729 0 0.37469-1.0948 0.91587-2.1687 0.91587-1.4048 0-2.3961-0.72851-2.3961-2.5186 0-2.144 2.1687-4.1422 6.4243-4.1422 3.8009 0 7.147 1.915 7.147 5.974zm-4.0282 7.8473c0-1.2281-0.0414-2.6852-0.0414-4.0173-0.30961 0.37465-0.86742 0.6869-1.4874 0.87423-1.1361 0.37469-1.9417 0.49958-3.0778 0.87423-1.0948 0.37469-1.8591 1.2281-1.8591 3.0182 0 3.3304 0.9917 4.4338 2.5408 4.4338 2.0865 0 3.9456-2.6853 3.9456-5.1623z"/>
  <path d="m377.73 14.362c0.14514 0 0.37213 0.08324 0.37213 0.22897 0 1.5611-0.0819 4.4753-0.0819 6.4319l4.6255-0.08328c0.18606 0 0.227 0.04165 0.227 0.45793 0 0.95751-0.0819 1.1032-0.45399 1.1032-0.86705 0-3.4905-0.14572-4.3985-0.14572v14.321c0 2.4562 0.76284 2.8309 1.4848 2.8309 0.72563 0 2.1285-0.87412 2.8504-3.2472 0.23073-0.72851 0.37213-0.77015 0.53959-0.77015 0.37212 0 0.90797 0.6869 0.90797 0.99911 0 1.4155-1.7155 4.7877-4.8339 4.7877-3.5724 0-5.0199-2.2897-5.0199-5.8284v-13.051c-0.22699 0-2.437 0.08324-3.0774 0.08324-0.37176 0-0.45437-0.14569-0.45437-1.1032 0-0.4163 0.0414-0.45794 0.22737-0.45794 0.86742 0 2.3146 0.14572 3.3044 0.14572 0-1.1448-0.26792-3.6843-0.26792-4.8708 0-0.41629 0.59912-0.58282 2.3146-1.1032 0.64004-0.18736 1.6299-0.72854 1.7564-0.72854z"/>
  <path d="m394.07 20.794c0.14513 0 0.37213 0.14569 0.37213 0.22897 0 1.6028-0.0819 3.3304-0.0819 5.4744v1.8317c0 1.9566 0 10.991 0.22699 10.991 0.72191 0 1.4848-0.08335 2.3109-0.08335 0.18607 0 0.23072 0.04167 0.23072 0.45771 0 0.95747-0.0855 1.1033-0.45772 1.1033-1.7527 0-2.3518-0.18718-4.3985-0.18718-2.0467 0-2.8914 0.18718-4.6701 0.18718-0.3684 0-0.45399-0.14587-0.45399-1.1033 0-0.41603 0.041-0.45771 0.22699-0.45771 0.76657 0 1.8606 0.08335 2.5825 0.08335 0.18607 0 0.22701-6.0574 0.22701-8.4927v-8.4926c-0.22701 0-2.1248 0.08324-2.7686 0.08324-0.36841 0-0.454-0.14569-0.454-1.1032 0-0.4163 0.041-0.45794 0.22699-0.45794 1.6336 0 3.658 0.14572 5.1651 0.14572 0.64006 0 1.321-0.22897 1.7155-0.22897zm0.80379-10.803c0 1.6028-1.321 2.6435-2.5788 2.6435-1.5518 0-2.5825-1.2281-2.5825-2.6435 0-1.5611 1.321-2.6435 2.5825-2.6435 1.589 0 2.5788 1.2697 2.5788 2.6435z"/>
  <path d="m419.96 30.744c0 6.3902-4.8971 10.533-9.6492 10.533-5.7828 0-9.6454-4.746-9.6454-10.533 0-6.3486 4.9344-10.574 9.6454-10.574 6.0731 0 9.6492 4.6418 9.6492 10.574zm-4.525-0.04165c0-6.4319-1.6746-9.0754-5.1241-9.0754-3.4496 0-5.1241 2.8309-5.1241 9.0754 0 6.2446 1.3248 9.0337 5.1241 9.0337 3.8031 0 5.1241-2.7891 5.1241-9.0337z"/>
  <path d="m429.6 20.794c0.14514 0 0.37213 0.14569 0.37213 0.22897 0 0 0.18606 1.6028 0.227 3.4137h0.0819c0.64005-2.3729 2.8914-4.2047 5.5149-4.2047 3.9482 0 6.8396 2.3313 6.8396 6.9315l-0.041 12.094c0.94892 0 2.3928-0.04168 2.9919-0.04168 0.18606 0 0.23071 0.04168 0.23071 0.45771 0 0.95785-0.0855 1.1033-0.4577 1.1033-1.7527 0-2.7649-0.18718-4.7892-0.18718s-2.3965 0.18718-4.1752 0.18718c-0.37213 0-0.45398-0.1455-0.45398-1.1033 0-0.31221 0.0409-0.45771 0.18605-0.45771 0.94891 0 1.135 0.04168 2.0876 0.04168 0.18607 0 0.26792-6.7442 0.26792-8.4302v-5.3287c0-2.1856-1.4066-3.601-3.2226-3.601-2.5825 0-4.9381 2.8309-4.9381 6.9315 0 1.9566 0 10.449 0.227 10.449 0.76656 0 1.5517-0.04167 2.1285-0.04167 0.18608 0 0.22701 0.04167 0.22701 0.45771 0 0.95747-0.0819 1.1033-0.454 1.1033-1.7564 0-2.1695-0.18718-4.2124-0.18718-2.0467 0-3.0812 0.18718-4.8339 0.18718-0.37212 0-0.45771-0.14587-0.45771-1.1033 0-0.31221 0.0446-0.45771 0.18606-0.45771 0.41307 0 2.0467 0.04167 2.8095 0.04167 0.14512 0 0.22699-3.7469 0.22699-6.5153v-1.915c0-0.45793 0-4.9748-0.26792-8.4926-0.227 0-2.1695 0.08328-2.8095 0.08328-0.37212 0-0.45399-0.14572-0.45399-1.1032 0-0.37465 0.041-0.45794 0.18606-0.45794 1.321 0 4.112 0.14572 5.3511 0.14572 0.68098 0 1.135-0.22897 1.4438-0.22897z"/>
  <path d="m463.48 26.269c0 1.7277-0.14512 6.2029-0.14512 8.2012 0 2.6019 0.68098 5.0164 1.9834 5.0164 0.41305 0 0.72191-0.04168 1.094-0.18718 0.26793-0.08335 0.41305-0.18755 0.49492-0.18755 0.14512 0 0.31258 0.14587 0.31258 0.58274 0 0.14587 0 0.49976-0.27165 0.72862-0.45398 0.4164-1.362 0.64526-2.1695 0.64526-2.8914 0-4.3985-1.9983-4.9753-3.6427-0.95262 2.1442-2.709 3.6427-5.2469 3.6427-3.885 0-5.7009-3.1013-5.7009-5.8282 0-1.8733 0.76286-3.4137 2.4374-4.1422 1.4029-0.64526 5.4739-1.3322 6.6908-1.7693 1.094-0.4163 1.4066-1.1032 1.4066-1.6444v-2.144c0-2.9558-1.1387-3.8716-3.0365-3.8716-1.4885 0-2.3556 0.77018-2.3556 1.9983 0 1.2281 0.454 1.8317 0.454 2.3729 0 0.37469-1.094 0.91587-2.1695 0.91587-1.4029 0-2.3965-0.72851-2.3965-2.5186 0-2.144 2.1695-4.1422 6.4266-4.1422 3.7994 0 7.1448 1.915 7.1448 5.974zm-4.0301 7.8473c0-1.2281-0.041-2.6852-0.041-4.0173-0.30886 0.37465-0.86704 0.6869-1.4885 0.87423-1.135 0.37469-1.9388 0.49958-3.0774 0.87423-1.094 0.37469-1.8569 1.2281-1.8569 3.0182 0 3.3304 0.98986 4.4338 2.5416 4.4338 2.0839 0 3.9445-2.6853 3.9445-5.1623z"/>
  <path d="m476.33 27.872c0 1.9566 0 11.407 0.22701 11.407 0.76285 0 2.3109-0.04167 2.8914-0.04167 0.18608 0 0.22701 0.04167 0.22701 0.45771 0 0.95747-0.0819 1.1033-0.454 1.1033-1.7564 0-2.936-0.18718-4.979-0.18718-2.0467 0-3.7175 0.18718-5.4739 0.18718-0.35352 0-0.45399-0.14587-0.45399-1.1033 0-0.41603 0-0.45771 0.18606-0.45771 0.94892 0 2.497 0.04167 3.4496 0.04167 0.18606 0 0.22699-6.7442 0.22699-8.4303v-21.773c-1.1387 0-2.5007 0.083243-3.5761 0.083243-0.3684 0-0.45398-0.14569-0.45398-1.1032 0-0.41629 0-0.45793 0.18606-0.45793 1.4476 0 4.7929 0.14572 6.2405 0.14572 0.59912 0 1.589-0.22897 1.816-0.22897 0.14512 0 0.35352 0.14569 0.35352 0.22897 0 1.686-0.41307 4.5585-0.41307 13.28z"/>
  <path d="m498.58 27.643c0 0.77015-0.14512 2.2272-0.53586 2.2272h-11.629c0 6.3902 1.321 9.8454 5.5149 9.8454 2.5825 0 4.6664-2.0604 5.7419-4.4127 0.18606-0.45794 0.26793-0.54118 0.45398-0.54118 0.37213 0 0.76285 0.99915 0.76285 1.3322 0 0.49958-2.0839 5.2036-7.476 5.2036-6.073 0-9.318-5.2452-9.318-10.262 0-6.5776 4.2162-10.845 8.9235-10.845 6.1586 0 7.5615 5.2038 7.5615 7.4726zm-5.2879 0.81179c0.80752 0 1.135-1.3738 1.135-2.4562 0-3.1014-1.0308-4.5169-3.3044-4.5169-3.1184 0-4.4394 3.1847-4.6664 6.9731z"/>
  <path d="m528.68 37.904c-1.0308 1.6444-2.8505 3.3722-5.7828 3.3722-5.3921 0-8.5514-4.7044-8.5514-10.574 0-6.4319 4.2534-10.449 8.6965-10.449 3.0775 0 4.6069 1.7693 5.433 3.7883h0.0409v-14.966c-0.22699 0-3.3491 0.083243-3.9892 0.083243-0.37213 0-0.454-0.14569-0.454-1.1032 0-0.41629 0.0409-0.45793 0.227-0.45793 1.6336 0 4.793 0.14572 6.5717 0.14572 0.76284 0 1.6299-0.22897 1.8569-0.22897 0.14513 0 0.37213 0.14569 0.37213 0.22897 0 1.686-0.41307 4.5585-0.41307 13.28v7.1188c0 1.9566 0 11.178 0.227 11.178 0.64005 0 2.1286-0.08335 2.8914-0.08335 0.18605 0 0.22699 0.04167 0.22699 0.45771 0 0.95747-0.0819 1.1033-0.45399 1.1033-1.7564 0-2.3555-0.14587-4.3985-0.14587-0.64005 0-1.4066 0.18755-1.7155 0.18755-0.26793 0-0.72191-1.9566-0.72191-2.9141h-0.041zm-5.0199 1.8733c2.5825 0 5.1241-1.9983 5.1241-8.659 0-6.6609-2.7686-9.346-5.3921-9.346-2.8914 0-4.525 2.2272-4.525 8.8881 0 6.661 1.4476 9.117 4.7929 9.117z"/>
  <path d="m554.62 27.643c0 0.77015-0.1414 2.2272-0.53585 2.2272h-11.629c0 6.3902 1.321 9.8454 5.5149 9.8454 2.5825 0 4.6664-2.0604 5.7419-4.4127 0.18606-0.45794 0.26793-0.54118 0.45399-0.54118 0.37211 0 0.76658 0.99915 0.76658 1.3322 0 0.49958-2.0876 5.2036-7.4797 5.2036-6.073 0-9.3142-5.2452-9.3142-10.262 0-6.5776 4.2124-10.845 8.9235-10.845 6.1549 0 7.5578 5.2038 7.5578 7.4726zm-5.2879 0.81179c0.80751 0 1.1387-1.3738 1.1387-2.4562 0-3.1014-1.0345-4.5169-3.3082-4.5169-3.1184 0-4.4394 3.1847-4.6664 6.9731z"/>
  <path d="m569.93 21.169c0.49492 0 0.76284-0.64526 0.98984-0.64526 0.14512 0 0.76658 0.27061 0.76658 0.45794 0 0.18733-0.14514 1.5611-0.14514 2.2272 0 1.0408 0.14514 2.144 0.14514 2.2897 0 0.18733-0.14514 0.41629-0.41307 0.41629-0.8075 0-0.95262-0.04165-1.0345-0.49957-0.26793-1.686-1.548-3.7884-3.7994-3.7884-2.2513 0-3.0812 1.4154-3.0812 2.8309 0 1.6444 0.95263 2.6019 2.3555 3.1431l3.163 1.1865c3.3454 1.2281 4.9753 2.7268 4.9753 6.0572 0 3.5176-3.0775 6.4321-6.527 6.4321-2.8914 0-3.7994-1.2284-5.2879-1.2284-0.86705 0-1.0308 0.87449-1.362 0.87449-0.45399 0-0.99358-0.18755-0.99358-0.4164 0-0.27053 0.18608-1.2697 0.22701-2.6852 0.0446-1.4154-0.0409-2.7892-0.0409-3.8716 0-0.18732 0.14513-0.31225 0.35352-0.31225 0.45398 0 0.90797 0.04165 0.9489 0.31225 0.22701 0.81179 0.86706 2.6852 1.7155 3.8716 0.76286 1.0408 2.497 1.9149 4.339 1.9149 2.1248 0 3.3044-1.4569 3.3044-3.0597 0-1.686-0.64004-3.1431-3.0775-4.0589-3.1221-1.1448-2.1285-0.77018-3.1221-1.1448-2.9956-1.1032-4.2943-3.0182-4.2943-5.6617 0-2.4146 1.8978-5.5576 6.3-5.5576 1.816 0 2.9956 0.91583 3.5724 0.91583z"/>
 </g>
</svg>
