<?xml version="1.0" encoding="UTF-8" standalone="no"?>
<svg
   xmlns:dc="http://purl.org/dc/elements/1.1/"
   xmlns:cc="http://creativecommons.org/ns#"
   xmlns:rdf="http://www.w3.org/1999/02/22-rdf-syntax-ns#"
   xmlns:svg="http://www.w3.org/2000/svg"
   xmlns="http://www.w3.org/2000/svg"
   xmlns:sodipodi="http://sodipodi.sourceforge.net/DTD/sodipodi-0.dtd"
   xmlns:inkscape="http://www.inkscape.org/namespaces/inkscape"
   width="250"
   height="59"
   viewBox="0 0 250 59"
   version="1.1"
   id="svg3027"
   inkscape:version="0.48.1 "
   sodipodi:docname="ave maria univ logo.svg">
  <metadata
     id="metadata3067">
    <rdf:RDF>
      <cc:Work
         rdf:about="">
        <dc:format>image/svg+xml</dc:format>
        <dc:type
           rdf:resource="http://purl.org/dc/dcmitype/StillImage" />
      </cc:Work>
    </rdf:RDF>
  </metadata>
  <defs
     id="defs3065" />
  <sodipodi:namedview
     pagecolor="#ffffff"
     bordercolor="#666666"
     borderopacity="1"
     objecttolerance="10"
     gridtolerance="10"
     guidetolerance="10"
     inkscape:pageopacity="0"
     inkscape:pageshadow="2"
     inkscape:window-width="1366"
     inkscape:window-height="705"
     id="namedview3063"
     showgrid="false"
     inkscape:zoom="4.2207205"
     inkscape:cx="122.70906"
     inkscape:cy="51.401741"
     inkscape:window-x="0"
     inkscape:window-y="0"
     inkscape:window-maximized="1"
     inkscape:current-layer="svg3027" />
  <title
     id="title3029">official-logo</title>
  <g
     id="Page-1"
     transform="matrix(0.22397326,0,0,0.22397326,1.262053,1.3913559)"
     style="fill:none;stroke:none">
    <g
       id="Asset-1">
      <g
         id="Group"
         transform="translate(1,0)"
         style="fill:#0a2240">
        <path
           d="m 46.49852,193.75209 c 6.942033,0.393 9.168722,1.57202 9.692649,4.97808 0.523927,2.75104 0.785891,6.4191 0.785891,14.54123 l 0,7.07411 c 0,15.45825 -5.108288,25.0214 -18.075481,25.0214 -11.133449,0 -17.813518,-7.46712 -17.813518,-22.40136 l 0,-20.04332 c 0,-7.99112 0.785891,-8.51513 8.513814,-8.90814 l 0,-3.01305 -26.7202766,0 0,3.01305 c 7.7279236,0.65501 8.6447956,1.04802 8.6447956,8.90814 l 0,22.00835 c 0,10.74218 2.881598,17.55428 8.513813,21.61535 4.45338,3.14405 10.216576,4.45407 16.110755,4.45407 6.418106,0 13.098175,-1.96503 17.682536,-6.2881 5.763197,-5.50209 7.465959,-13.36221 7.465959,-23.84238 l 0,-7.33612 c 0,-8.12213 0.261964,-11.79019 0.523927,-14.41023 0.523927,-3.40605 2.881599,-4.84707 8.513814,-5.10908 l 0,-3.01305 -24.231623,0 0,3.01305 0.392945,-0.262 z"
           id="Path"
           inkscape:connector-curvature="0" />
        <path
           d="m 174.20572,193.75209 c 6.81105,0.393 9.16872,1.57202 9.69265,5.37108 0.26196,2.48904 0.65491,6.68111 0.65491,15.06524 l 0,20.56733 -0.26196,0 -39.94944,-44.0167 -15.32486,0 0,3.01305 c 4.3224,0.393 6.68007,1.04801 8.64479,3.27505 1.70277,2.22703 1.96473,2.62004 1.96473,9.03914 l 0,19.51931 c 0,7.99113 -0.26196,12.3142 -0.65491,15.19625 -0.52392,4.19206 -3.01258,5.37108 -8.51381,5.76409 l 0,3.01305 23.96966,0 0,-3.01305 c -6.68007,-0.39301 -8.90676,-1.57203 -9.56167,-5.8951 -0.26196,-2.75104 -0.52393,-6.94311 -0.52393,-15.06524 l 0,-21.74634 0.26197,0 41.12827,46.50574 3.66748,0 0,-36.15658 c 0,-8.38413 0.26197,-12.4452 0.65491,-15.32724 0.39295,-3.66806 2.8816,-4.84708 8.25185,-5.10908 l 0,-3.01305 -23.96966,0 0,3.01305 -0.13098,0 z"
           id="path3035"
           inkscape:connector-curvature="0" />
        <path
           d="m 258.68895,193.75209 c 7.98989,0.52401 8.77578,1.04801 8.77578,8.64613 l 0,35.37057 c 0,7.72912 -0.78589,8.12213 -8.77578,8.64614 l 0,3.01304 26.85126,0 0,-3.01304 c -7.98989,-0.52401 -8.77578,-1.04802 -8.77578,-8.64614 l 0,-35.37057 c 0,-7.72912 0.78589,-8.12212 8.77578,-8.64613 l 0,-3.01305 -26.85126,0 0,3.01305 z"
           id="path3037"
           inkscape:connector-curvature="0" />
        <path
           d="m 387.57499,193.75209 c 7.98988,0.78601 8.51381,1.57202 6.54908,6.94311 -2.61963,7.72912 -9.2997,23.71138 -14.66995,36.41858 l -0.26196,0 c -5.89418,-13.75522 -13.09818,-31.4405 -15.71781,-38.12161 -1.57179,-3.93006 -1.30982,-4.58507 5.76319,-5.24008 l 0,-3.01305 -25.27947,0 0,3.01305 c 5.89417,0.52401 7.59694,1.31002 10.34755,7.72912 5.23927,11.92119 13.75309,32.35752 20.30217,48.73278 l 3.79848,0 c 7.46596,-18.6023 17.55155,-41.13466 20.17118,-46.89875 3.66749,-8.12213 5.10829,-9.03914 11.78836,-9.69415 l 0,-3.01305 -22.65984,0 0,3.01305 -0.13098,0.131 z"
           id="path3039"
           inkscape:connector-curvature="0" />
        <path
           d="m 510.69783,243.00887 c -2.22669,2.22704 -5.23927,2.88205 -11.91934,2.88205 -4.58436,0 -8.12087,0 -9.95461,-1.04802 -1.83375,-1.04802 -2.48866,-3.01305 -2.48866,-7.33612 l 0,-16.24425 8.6448,0 c 8.38283,0 9.16872,0.393 10.47854,6.94311 l 3.40552,0 0,-17.81629 -3.40552,0 c -1.30982,6.2881 -1.83375,6.81211 -10.47854,6.81211 l -8.6448,0 0,-19.78131 c 0,-2.75105 0.26197,-3.01305 3.40553,-3.01305 l 7.33498,0 c 6.54908,0 9.03774,0.65501 10.47854,2.48904 1.30981,1.96503 2.22669,4.06106 3.27454,7.72912 l 3.40553,-0.39301 c -0.39295,-5.10908 -0.91688,-11.39718 -0.91688,-13.36221 l -44.53379,0 0,3.01305 c 7.59694,0.52401 8.38283,0.91701 8.38283,8.77714 l 0,35.23956 c 0,7.33612 -0.78589,7.99113 -9.69265,8.64614 l 0,3.01305 48.20129,0 c 0.91687,-2.75105 2.88159,-11.52819 3.5365,-14.80324 l -3.5365,-0.39301 c -1.4408,3.93007 -3.27455,6.94312 -4.97731,8.64614"
           id="path3041"
           inkscape:connector-curvature="0" />
        <path
           d="m 612.33966,218.11848 c -2.48865,1.83402 -5.63221,2.48904 -10.47853,2.48904 l -4.45339,0 0,-21.74635 c 0,-2.22704 0.26197,-3.40606 1.04786,-3.79906 0.65491,-0.52401 2.22669,-1.04802 5.10829,-1.04802 7.07301,0 14.01504,3.40606 14.01504,13.10021 0,4.71608 -1.57178,8.25313 -5.23927,11.00418 m 11.5264,15.98225 c -2.8816,-4.06106 -6.81105,-10.08716 -8.51381,-12.96921 7.07301,-2.75104 12.31228,-7.46712 12.31228,-15.32724 0,-5.50209 -2.61964,-9.56315 -6.68007,-11.92119 -3.66749,-2.22704 -8.51381,-3.01305 -15.97977,-3.01305 l -25.1485,0 0,3.01305 c 7.59694,0.52401 8.38283,1.04802 8.38283,8.64614 l 0,35.37056 c 0,7.59812 -0.91687,8.12213 -8.90676,8.64614 l 0,3.01305 26.72028,0 0,-3.01305 c -7.8589,-0.52401 -8.77578,-1.04802 -8.77578,-8.64614 l 0,-13.62422 3.01258,0 c 4.84633,0 6.54909,1.04802 8.12087,3.53706 2.8816,4.45407 6.15614,9.95616 9.43069,14.27923 4.3224,5.89509 8.38283,7.86012 16.37272,8.38413 1.30981,0 2.48865,0 3.66749,0 l 0.52392,-2.88204 c -2.09571,-0.52401 -4.45338,-1.57203 -7.07301,-4.06107 -2.22669,-2.22703 -4.06044,-4.45407 -7.72792,-9.30115"
           id="Shape"
           inkscape:connector-curvature="0" />
        <path
           d="m 719.35175,215.10543 c -7.8589,-3.53706 -12.31228,-6.55011 -12.31228,-12.83821 0,-4.71607 3.40552,-9.56315 10.47854,-9.56315 8.51381,0 11.00246,6.4191 12.70523,12.05219 l 3.5365,-0.52401 c -0.78589,-6.02609 -1.30981,-9.69415 -1.70276,-12.8382 -3.53651,-1.04802 -8.12087,-2.22704 -12.70523,-2.22704 -12.96719,0 -20.69511,7.46712 -20.69511,16.50627 0,9.82515 9.16872,14.41023 16.37271,17.81628 7.33498,3.53706 12.57425,6.68111 12.57425,13.10021 0,6.4191 -4.19141,10.34916 -11.26443,10.34916 -9.82363,0 -14.40799,-9.30114 -15.97977,-14.80323 l -3.53651,0.78601 c 0.78589,4.97808 1.96473,12.1832 2.8816,14.41023 0.91687,0.39301 2.48865,1.04802 4.97731,1.96503 2.48865,0.78601 5.76319,1.31002 9.69265,1.31002 13.36013,0 22.26689,-7.59812 22.26689,-17.55428 0,-9.95616 -8.90676,-14.27922 -17.15861,-18.07828"
           id="path3044"
           inkscape:connector-curvature="0" />
        <path
           d="m 797.41687,193.75209 c 7.98989,0.52401 8.77578,1.04801 8.77578,8.64613 l 0,35.37057 c 0,7.72912 -0.78589,8.12213 -8.77578,8.64614 l 0,3.01304 26.85126,0 0,-3.01304 c -7.98989,-0.52401 -8.77578,-1.04802 -8.77578,-8.64614 l 0,-35.37057 c 0,-7.72912 0.78589,-8.12212 8.77578,-8.64613 l 0,-3.01305 -26.85126,0 0,3.01305 z"
           id="path3046"
           inkscape:connector-curvature="0" />
        <path
           d="m 940.18698,188.381 c -1.57179,1.70303 -2.35768,2.22704 -5.10829,2.22704 l -38.7706,0 c -2.75062,0 -3.92945,-0.13101 -5.37025,-2.22704 l -2.35767,0 c -0.13098,4.97808 -0.65491,11.00418 -1.17884,16.89927 l 3.53651,0 c 1.17883,-4.19207 2.09571,-6.94311 3.27454,-8.38413 1.30982,-1.96503 3.27455,-2.62004 10.87149,-2.62004 l 5.7632,0 0,43.62369 c 0,7.20512 -0.7859,7.99113 -9.69266,8.51514 l 0,3.01304 29.20893,0 0,-3.01304 c -9.2997,-0.52401 -10.08559,-1.31002 -10.08559,-8.51514 l 0,-43.62369 6.54909,0 c 6.81105,0 8.38283,0.65501 10.08559,2.48904 1.30982,1.57202 2.22669,3.93006 3.27455,8.38413 l 3.5365,-0.262 c -0.52392,-5.37109 -0.91687,-12.4452 -1.04785,-16.50627 l -2.35767,0 -0.13098,0 z"
           id="path3048"
           inkscape:connector-curvature="0" />
        <path
           d="m 1038.6853,193.75209 c 7.5969,0.78601 7.7279,1.57202 5.7632,5.76409 -2.7507,5.37109 -7.728,13.88622 -11.1335,19.65031 -4.1914,-6.6811 -8.7758,-13.62421 -12.5742,-20.43632 -1.8338,-3.01305 -2.2267,-4.19207 4.7153,-4.97808 l 0,-3.01305 -24.4936,0 0,3.01305 c 5.8942,0.52401 7.073,1.57202 10.8715,7.46712 5.2393,8.38413 8.7758,14.01722 12.3123,19.78131 1.5718,2.48904 1.9647,3.40606 1.9647,5.24008 l 0,11.52819 c 0,7.46712 -0.7859,8.12213 -9.5617,8.64614 l 0,3.01304 28.816,0 0,-3.01304 c -9.1687,-0.52401 -9.9546,-1.17902 -9.9546,-8.64614 l 0,-11.92119 c 0,-2.48904 0.262,-3.40606 1.7028,-5.76409 4.7153,-8.12213 7.7279,-12.83821 11.9193,-18.8643 3.9295,-5.7641 5.3703,-6.94311 12.0503,-7.46712 l 0,-3.01305 -22.3978,0 0,3.01305 0,0 z"
           id="path3050"
           inkscape:connector-curvature="0" />
        <path
           d="M 55.53626,83.841336 73.611741,39.038622 c 0.130982,-0.786012 0.523927,-1.703027 1.178836,-1.703027 0.654909,0 0.785891,0.917015 0.916872,1.703027 l 17.682536,44.933716 c 0,0 0,1.048017 -0.916872,1.048017 l -36.01998,0 c -0.785891,0 -0.916873,-0.524008 -0.785891,-1.310021 M 3.6674889,141.74426 c 10.2165761,0 20.9570791,-0.52401 23.1837691,-0.52401 6.02516,0 14.538974,0.52401 20.826098,0.52401 2.095708,0 3.274543,-0.39301 3.274543,-1.83403 0,-1.04802 -0.654908,-1.44102 -2.881598,-1.44102 l -2.881599,0 c -6.02516,0 -7.858904,-2.35804 -7.858904,-5.63309 0,-2.22704 0.916872,-6.55011 2.881598,-11.13518 L 50.820918,95.631524 c 0.392945,-1.048017 0.78589,-1.441023 1.702762,-1.441023 l 43.747904,0 c 0.916872,0 1.571781,0.393006 1.964726,1.310021 l 15.71781,38.645618 c 0.91687,2.22703 -0.39295,3.79906 -1.70276,4.19206 -1.96473,0.13101 -2.75062,0.52401 -2.75062,1.70303 0,1.31002 2.35767,1.31002 5.89418,1.44102 15.71781,0.39301 29.99482,0.39301 37.06783,0.39301 7.07302,0 9.03774,-0.39301 9.03774,-1.83403 0,-1.31002 -0.91687,-1.44102 -2.48865,-1.44102 -2.35767,0 -5.23927,-0.131 -8.25185,-0.78601 -4.06043,-0.91702 -9.82363,-3.40606 -17.28959,-19.91232 C 120.63419,90.129436 89.329551,15.851253 84.614208,5.7640919 82.649482,1.572025 81.470646,0 79.767884,0 77.803157,0 76.624322,1.9650313 74.26665,7.3361169 L 25.017514,121.70094 c -3.929453,9.17015 -7.596942,15.32724 -16.6346822,16.37526 -1.571781,0.131 -4.3223977,0.39301 -6.0251604,0.39301 C 0.78589048,138.46921 0,138.86221 0,139.91023 c 0,1.44102 1.1788357,1.83403 3.6674889,1.83403"
           id="path3052"
           inkscape:connector-curvature="0" />
        <path
           d="m 109.89369,7.3361169 c 1.57178,0 4.71534,0 7.59694,0.7860125 7.07301,1.8340293 10.34755,3.7990606 14.93192,13.8862216 l 49.38011,111.220769 c 3.66749,8.51514 4.84633,11.13518 7.46596,11.13518 2.75062,0 3.92946,-2.88205 9.03774,-13.49321 4.3224,-9.03915 13.49112,-28.95147 26.06537,-55.54489 10.60952,-22.401357 15.84879,-32.226513 23.57672,-49.387787 5.23927,-11.659185 8.25185,-14.803236 10.7405,-16.3752606 2.09571,-1.3100209 4.3224,-1.8340292 6.28712,-1.9650313 1.17884,0 2.22669,0.2620042 3.01258,0.3930062 6.41811,1.3100209 7.98989,4.1920667 8.38283,10.3491647 0.39295,5.764092 0.39295,10.873174 0.39295,38.645616 l 0,32.095512 c 0,16.76827 0,31.1785 -0.91687,38.77662 -0.78589,5.24008 -1.70277,9.30115 -5.63222,9.95616 -1.70276,0.393 -4.06043,0.78601 -7.07301,0.78601 -2.35767,0 -3.14356,0.52401 -3.14356,1.44102 0,1.31002 1.30981,1.83403 3.92945,1.83403 3.92945,0 9.03774,-0.39301 13.49112,-0.39301 4.71534,-0.131 9.03774,-0.131 11.13345,-0.131 5.89418,0 11.91934,0.131 20.43315,0.52401 8.38283,0.131 19.25432,0.52401 33.92427,0.52401 7.46596,0 9.16872,0 10.60952,-4.71608 0.91688,-3.66805 2.48866,-15.98225 2.48866,-20.17432 0,-1.83403 0,-3.27505 -1.57178,-3.27505 -1.30982,0 -1.70277,0.78601 -2.09571,2.75104 -1.30982,7.46712 -3.66749,11.26618 -8.77578,13.49322 -5.10829,2.22703 -13.36014,2.22703 -18.46843,2.22703 -20.0402,0 -23.18376,-2.75104 -23.57671,-15.32724 -0.26196,-5.24008 0,-22.00835 0,-28.165448 l 0,-14.41023 c 0,-1.048017 0.26196,-1.834029 1.17884,-1.834029 4.71534,0 24.10064,0.131002 27.76813,0.524008 7.20399,0.786013 9.95461,3.406054 11.00246,7.074113 0.52393,2.358038 0.52393,4.716075 0.78589,6.550104 0,0.917015 0.39295,1.703027 1.70277,1.703027 1.70276,0 1.70276,-1.965031 1.70276,-3.406054 0,-1.310021 0.52393,-8.515136 0.78589,-12.183194 0.78589,-9.301148 1.57178,-12.183194 1.57178,-13.362213 0,-1.179019 -0.52393,-1.441023 -1.30982,-1.441023 -0.91687,0 -1.70276,0.917015 -3.14356,2.358038 -1.70276,1.834029 -4.71534,2.358037 -9.43069,2.751043 -4.45337,0.393007 -26.98224,0.393007 -31.30463,0.393007 -1.17884,0 -1.30982,-0.786013 -1.30982,-1.965031 l 0,-46.505742 c 0,-1.31002 0.39295,-1.834029 1.30982,-1.834029 3.92945,0 24.49358,0.393006 27.76813,0.786013 9.82363,1.048016 11.78835,3.275052 13.09817,6.550104 0.91687,2.227035 1.17884,5.240083 1.17884,6.550104 0,1.703028 0.39294,2.48904 1.70276,2.48904 1.30982,0 1.70276,-1.048017 1.96473,-1.965031 0.39294,-2.227036 0.78589,-10.218163 0.91687,-12.052192 0.52393,-8.3841339 1.57178,-10.6111694 1.57178,-11.7901882 0,-0.9170146 -0.26196,-1.7030271 -1.17884,-1.7030271 -0.91687,0 -2.0957,0.5240083 -3.14356,0.7860125 -1.57178,0.3930063 -4.71534,0.7860125 -8.38283,1.0480167 -3.66749,0.1310021 -42.70005,0.1310021 -48.98717,0.1310021 -2.75062,0 -7.204,-0.1310021 -12.31229,-0.3930063 -2.48865,0 -5.23927,0 -7.98988,0 -0.52393,0 -1.17884,0 -1.83375,0 -0.78589,0 -1.57178,0 -2.48865,0 -1.17884,0 -2.48865,0 -3.66749,0 -1.17883,0 -2.09571,0 -2.75062,0.2620042 -3.92945,0.1310021 -7.72792,0.2620042 -9.56166,0.2620042 -2.48866,0 -10.74051,-0.5240084 -20.56414,-0.5240084 -3.66749,0 -5.50123,0.3930063 -5.50123,1.8340292 0,1.3100209 1.57178,1.441023 3.27454,1.441023 2.48866,0 5.50124,0.1310021 7.85891,0.9170146 1.70276,0.5240084 2.48865,1.9650315 2.48865,3.4060545 0,1.703027 -0.78589,4.323069 -1.83374,6.681106 -4.71535,12.052192 -30.12581,70.610125 -38.63962,90.653448 l -0.78589,0 -33.66231,-82.66232 c -2.75062,-6.550105 -4.45338,-11.659186 -4.45338,-14.017224 0,-1.703027 0.52393,-2.8820457 1.96473,-3.7990603 1.57178,-1.0480167 4.45338,-1.3100209 7.59694,-1.3100209 1.70276,0 2.8816,-0.3930062 2.8816,-1.7030271 0,-1.3100209 -2.09571,-1.7030272 -4.45338,-1.7030272 -9.82363,0 -19.25432,0.5240084 -24.10064,0.5240084 -6.81105,0 -18.07548,-0.5240084 -28.42304,-0.5240084 -2.8816,0 -5.10829,0.1310021 -5.10829,1.7030272 0,1.0480167 0.52393,1.7030271 2.35767,1.7030271"
           id="path3054"
           inkscape:connector-curvature="0" />
        <path
           d="m 629.49827,83.841336 18.07548,-44.802714 c 0.13099,-0.786012 0.52393,-1.703027 1.17884,-1.703027 0.65491,0 0.78589,0.917015 0.91687,1.703027 L 667.352,83.972338 c 0,0 0,1.048017 -0.91687,1.048017 l -36.01998,0 c -0.7859,0 -0.91688,-0.524008 -0.7859,-1.310021 M 763.23064,15.851253 c 0,-1.441023 0.39294,-2.227036 1.70276,-2.48904 1.96473,-0.524008 5.50123,-0.786013 10.34756,-0.786013 11.52639,0 29.99482,7.467119 29.99482,33.274531 0,14.934238 -5.63222,23.318371 -11.5264,27.379436 -3.5365,2.358038 -6.02516,3.14405 -13.88406,3.14405 -4.84633,0 -10.74051,-0.524008 -14.93192,-1.834029 -1.30982,-0.524008 -1.70276,-1.310021 -1.70276,-3.275052 l 0,-55.413883 0,0 z m 193.06709,67.990083 18.07548,-44.802714 c 0.13098,-0.786012 0.52393,-1.703027 1.17884,-1.703027 0.65491,0 0.78589,0.917015 0.91687,1.703027 l 17.68254,44.933716 c 0,0 0,1.048017 -0.91688,1.048017 l -36.01998,0 c -0.78589,0 -0.91687,-0.524008 -0.78589,-1.310021 M 406.1744,141.74426 c 6.28712,0 15.7178,-0.52401 19.38529,-0.52401 3.53651,0 12.31229,0.52401 20.56414,0.52401 2.8816,0 4.71534,-0.39301 4.71534,-1.96503 0,-0.91702 -1.30982,-1.31002 -2.8816,-1.31002 -1.96472,0 -4.71534,-0.13101 -8.25185,-0.91702 -3.27454,-0.78601 -5.89418,-2.35804 -5.89418,-5.76409 0,-2.88205 0.13099,-5.24008 0.52393,-8.51513 l 10.21658,-72.44416 0.78589,0 c 6.81105,13.624217 18.59941,36.549583 20.43315,40.479645 2.35767,5.109081 17.81352,33.012525 22.52886,41.396655 3.14356,5.50209 5.10829,9.17015 6.81105,9.17015 1.70276,0 2.75062,-1.70303 7.204,-10.21816 l 42.70005,-82.662319 0.78589,0 11.78835,80.173279 c 0.78589,5.10908 0.26197,7.46712 -0.91687,7.86012 -1.30981,0.52401 -2.09571,1.04802 -2.09571,1.96503 0,1.04802 1.17884,1.70303 5.63222,1.96504 2.8816,0.262 8.38283,0.393 14.40799,0.524 l 29.07795,0 c 5.63221,0 12.57425,0.52401 17.81352,0.52401 2.09571,0 3.27454,-0.393 3.27454,-1.83403 0,-1.04801 -0.65491,-1.44102 -2.8816,-1.44102 l -2.8816,0 c -6.02516,0 -7.8589,-2.35804 -7.8589,-5.63309 0,-2.22703 0.91687,-6.5501 2.8816,-11.13518 l 10.60952,-26.069412 c 0.39294,-1.048017 0.78589,-1.441023 1.70276,-1.441023 l 43.74791,0 c 0.91687,0 1.57178,0.393006 1.96472,1.310021 l 15.71781,38.645614 c 0.91687,2.22704 -0.39295,3.79906 -1.70276,4.19207 -1.96473,0.131 -2.75062,0.52401 -2.75062,1.70303 0,1.31002 2.35767,1.31002 5.89418,1.44102 15.71781,0.39301 29.99482,0.39301 37.06783,0.39301 l 0.91688,0 c 7.8589,0 20.17118,-0.52401 23.83867,-0.52401 2.8816,0 17.42058,0.52401 28.81599,0.52401 2.48865,0 3.92945,-0.52401 3.92945,-1.83403 0,-0.91702 -0.78589,-1.44103 -2.35767,-1.44103 -2.35767,0 -6.68007,-0.393 -9.56167,-0.78601 -5.89418,-0.78601 -7.07301,-4.71608 -7.59694,-9.95616 -0.91687,-7.59812 -0.91687,-22.00835 -0.91687,-39.03862 l 0,-2.48904 c 0,-1.048017 0.52392,-1.441023 1.57178,-1.441023 l 17.02763,0.393006 c 1.30981,0 2.48865,0.131002 3.5365,1.310021 2.48866,2.751044 11.5264,15.065236 19.3853,25.152396 11.00247,14.01723 18.46843,22.53236 26.85126,26.72443 5.10829,2.48904 9.95461,3.40606 20.95708,3.40606 l 18.59941,0 c 1.04785,0 1.83374,0 2.48865,-0.26201 4.3224,-0.131 8.25185,-0.262 10.34756,-0.262 3.53651,0 10.21657,0.262 18.20646,0.393 0.52393,0 1.17884,0.13101 1.96473,0.13101 1.57178,0 3.01258,0 4.58436,0 1.83374,0 3.79847,0 5.76319,0 0.7859,0 1.4408,0 1.96473,-0.26201 5.37025,-0.131 9.56167,-0.39301 10.74051,-0.39301 6.02516,0 14.53897,0.52401 20.82609,0.52401 2.09571,0 3.27455,-0.393 3.27455,-1.83403 0,-1.04801 -0.65491,-1.44102 -2.8816,-1.44102 l -2.8816,0 c -6.02516,0 -7.85891,-2.35804 -7.85891,-5.63309 0,-2.22703 0.91688,-6.5501 2.8816,-11.13518 l 10.60952,-26.069412 c 0.39295,-1.048017 0.78589,-1.441023 1.70277,-1.441023 l 43.7479,0 c 0.91687,0 1.57178,0.393006 1.96473,1.310021 l 15.71778,38.645614 c 0.9169,2.22704 -0.3929,3.79906 -1.7027,4.19207 -1.9648,0.131 -2.7506,0.52401 -2.7506,1.70303 0,1.31002 2.3576,1.31002 5.8941,1.44102 15.7178,0.39301 29.9949,0.39301 37.0679,0.39301 7.073,0 9.0377,-0.39301 9.0377,-1.83403 0,-1.31003 -0.9169,-1.44103 -2.4886,-1.44103 -2.3577,0 -5.2393,-0.131 -8.2519,-0.78601 -4.0604,-0.91701 -9.8236,-3.40605 -17.2896,-19.91232 C 1021.3957,90.522443 990.09102,16.113257 985.37568,6.1570981 c -1.96473,-4.1920668 -3.14356,-5.76409184 -4.84633,-5.76409184 -1.96472,0 -3.14356,1.96503134 -5.50123,7.33611694 L 925.77898,122.09395 c -3.92945,9.17014 -7.59694,15.32724 -16.63468,16.37526 l -0.26196,0 c -1.30982,0 -2.48866,-0.26201 -3.53651,-0.39301 -5.89418,-0.78601 -7.20399,-4.06106 -7.8589,-8.90814 -0.78589,-7.86013 -0.78589,-22.27036 -0.78589,-39.824636 l 0,-32.095512 c 0,-27.64144 0,-32.750522 0.39294,-38.645615 0.39295,-6.419103 1.96473,-9.4321509 7.204,-10.3491655 2.35767,-0.3930062 3.92945,-0.5240083 5.89418,-0.5240083 1.96472,0 3.14356,-0.3930063 3.14356,-1.8340293 0,-1.0480167 -1.57178,-1.4410229 -4.06044,-1.4410229 -7.46596,0 -18.99235,0.5240083 -23.83867,0.5240083 -5.63222,0 -18.07548,-0.5240083 -25.41046,-0.5240083 -3.14357,0 -4.71535,0.3930062 -4.71535,1.4410229 0,1.441023 1.17884,1.8340293 3.14357,1.8340293 2.35767,0 4.84632,0.1310021 7.07301,0.7860125 4.3224,0.9170146 6.28712,4.0610643 6.68007,10.2181623 0.39295,5.764092 0.39295,10.873174 0.39295,38.645616 l 0,32.095512 c 0,17.685284 0,32.095514 -0.91688,39.693634 -0.52393,5.24008 -1.70276,8.25313 -5.50123,9.03914 -3.66749,-0.78601 -11.00247,-2.75104 -20.69512,-12.18319 -11.52639,-11.26618 -25.14849,-27.51044 -42.56906,-47.946766 19.77824,-14.934238 25.93438,-27.379436 25.93438,-40.741649 0,-12.183194 -7.8589,-21.484342 -13.36014,-24.890397 -10.60952,-6.6811061 -23.70769,-7.8601249 -36.01998,-7.8601249 -6.02516,0 -20.95708,0.5240083 -27.63715,0.5240083 -4.06043,0 -16.5037,-0.5240083 -26.85125,-0.5240083 -2.8816,0 -4.3224,0.3930062 -4.3224,1.7030271 0,1.3100209 1.17884,1.7030271 3.27454,1.7030271 2.75062,0 6.02516,0.1310021 7.59694,0.5240084 6.41811,1.3100209 7.98989,4.1920663 8.38284,10.3491653 0.39294,5.764091 0.39294,10.873173 0.39294,38.645616 l 0,32.095511 c 0,16.768262 0,31.178492 -0.91687,38.776622 -0.78589,5.24008 -1.83375,9.30114 -5.63222,9.95615 -1.17883,0.26201 -2.61963,0.52401 -4.19141,0.65501 -1.57178,0 -3.14356,-0.262 -4.84633,-0.65501 -4.06043,-0.91701 -9.82363,-3.40605 -17.28959,-19.91231 C 694.85816,90.784447 663.55353,16.375261 658.83818,6.4191023 c -1.96472,-4.1920668 -3.14356,-5.76409186 -4.84632,-5.76409186 -1.96473,0 -3.14356,1.96503136 -5.50123,7.33611686 L 599.24149,122.35595 c -2.8816,6.68111 -5.63221,11.79019 -10.47854,14.41023 -4.84632,-2.09603 -6.68007,-7.33612 -8.25185,-17.94729 L 562.30464,5.6330898 C 561.78071,1.8340292 560.60187,0 558.76813,0 c -1.83374,0 -2.75062,1.441023 -4.3224,4.3230689 L 501.13616,108.33873 447.69561,5.6330898 C 445.20696,0.91701461 444.02812,0 442.45634,0 440.88456,0 439.70572,1.7030271 439.1818,4.7160752 L 419.7965,123.40397 c -0.91688,6.1571 -2.48866,13.23121 -7.98989,14.41023 -2.8816,0.524 -4.3224,0.524 -5.89418,0.524 -1.96472,0 -3.14356,0.39301 -3.14356,1.31002 0,1.70303 1.57178,1.96504 3.53651,1.96504"
           id="path3056"
           inkscape:connector-curvature="0" />
      </g>
      <rect
         id="Rectangle"
         x="0"
         y="160"
         width="1068"
         height="4"
         style="fill:#00833e" />
      <polygon
         id="polygon3059"
         points="1085.215,235.7931 1089.895,235.7931 1089.895,234 1079.105,234 1079.105,235.7931 1083.655,235.7931 1083.655,250 1085.215,250 "
         style="fill:#0a2240" />
      <polygon
         id="polygon3061"
         points="1092.065,234 1092.065,250 1093.625,250 1093.625,236.48276 1097.655,250 1099.345,250 1103.375,236.48276 1103.375,250 1104.935,250 1104.935,234 1102.335,234 1098.565,247.10345 1094.665,234 "
         style="fill:#0a2240" />
    </g>
  </g>
</svg>
