<?xml version="1.0" encoding="UTF-8" standalone="no"?>
<svg
   xmlns:dc="http://purl.org/dc/elements/1.1/"
   xmlns:cc="http://creativecommons.org/ns#"
   xmlns:rdf="http://www.w3.org/1999/02/22-rdf-syntax-ns#"
   xmlns:svg="http://www.w3.org/2000/svg"
   xmlns="http://www.w3.org/2000/svg"
   xmlns:sodipodi="http://sodipodi.sourceforge.net/DTD/sodipodi-0.dtd"
   xmlns:inkscape="http://www.inkscape.org/namespaces/inkscape"
   id="Layer_1"
   viewBox="0 0 300 58"
   version="1.1"
   inkscape:version="0.48.1 "
   width="100%"
   height="100%"
   sodipodi:docname="usc logo simple.svg">
  <metadata
     id="metadata3196">
    <rdf:RDF>
      <cc:Work
         rdf:about="">
        <dc:format>image/svg+xml</dc:format>
        <dc:type
           rdf:resource="http://purl.org/dc/dcmitype/StillImage" />
      </cc:Work>
    </rdf:RDF>
  </metadata>
  <sodipodi:namedview
     pagecolor="#ffffff"
     bordercolor="#666666"
     borderopacity="1"
     objecttolerance="10"
     gridtolerance="10"
     guidetolerance="10"
     inkscape:pageopacity="0"
     inkscape:pageshadow="2"
     inkscape:window-width="1366"
     inkscape:window-height="705"
     id="namedview3194"
     showgrid="false"
     inkscape:zoom="2.4445946"
     inkscape:cx="211.66667"
     inkscape:cy="35.833333"
     inkscape:window-x="0"
     inkscape:window-y="0"
     inkscape:window-maximized="1"
     inkscape:current-layer="Layer_1" />
  <defs
     id="defs3128">
    <style
       id="style3130">.cls-1{fill:#fff;}.cls-2{fill:#73000a;}</style>
  </defs>
  <g
     id="g3217"
     transform="matrix(0.5252175,0,0,0.5252175,-106.93534,-35.604353)">
    <g
       id="g3138">
      <path
         class="cls-2"
         d="m 217.23,164.07 c 2.78,3.23 7.35,5.82 12.37,5.82 6.99,0 11.29,-4.3 11.29,-10.57 0,-5.29 -3.41,-8.69 -8.78,-11.11 l -10.84,-5.02 c -6.9,-3.14 -12.01,-7.44 -12.01,-15.32 0,-9.14 7.88,-15.32 22.22,-18.37 6,0 12.63,1.97 17.29,5.2 v 12.9 h -5.29 l -2.6,-8.15 c -2.33,-2.51 -5.38,-4.57 -10.57,-4.57 -6.81,0 -10.75,3.67 -10.75,8.96 0,4.48 3.14,7.35 7.8,9.5 l 10.93,4.93 c 8.33,3.94 13.35,8.42 13.26,16.85 0,9.23 -6.81,16.58 -23.48,20.34 -7.8,0 -13.8,-2.42 -18.82,-6.09 l -1.97,-13.17 h 6.9 l 3.05,7.88 z"
         id="path3140"
         inkscape:connector-curvature="0"
         style="fill:#73000a" />
      <path
         class="cls-2"
         d="m 299.1,150.37 c 0,13.98 -9.23,22.39 -22.85,24.81 -11.74,0 -20.07,-10.29 -20.07,-22.75 0,-14.16 9.23,-22.39 22.85,-24.9 11.74,0 20.07,10.29 20.07,22.84 z m -20.34,20.06 c 6,0 9.32,-7.43 9.32,-17.28 0,-12.45 -5.02,-20.87 -11.65,-20.87 -6.09,0 -9.32,7.43 -9.32,17.28 0,11.65 4.84,20.87 11.65,20.87 z"
         id="path3142"
         inkscape:connector-curvature="0"
         style="fill:#73000a" />
      <path
         class="cls-2"
         d="m 343.22,162.01 c 0,3.67 0.45,5.11 1.16,6.54 h 4.12 l 0.36,3.58 -12.9,2.42 -2.6,-7.53 -12.81,8.15 c -11.38,0 -14.07,-3.76 -14.07,-14.25 v -26.05 l -5.73,0.45 -0.45,-3.94 11.2,-2.42 5.38,-0.36 v 32.15 c 0,4.3 1.79,6.27 5.91,6.27 2.42,0 5.47,-1.79 8.42,-3.76 l 1.7,-1.16 v -27.22 l -5.02,0.45 -0.45,-3.94 10.39,-2.42 5.38,-0.36 v 33.4 z"
         id="path3144"
         inkscape:connector-curvature="0"
         style="fill:#73000a" />
      <path
         class="cls-2"
         d="m 395.12,169.36 4.48,0.99 -0.45,3.58 -8.96,-0.27 -10.66,0.27 -0.45,-3.58 5.73,-0.99 v -51.95 l -5.82,0.18 -0.45,-3.58 11.65,-2.69 4.93,-0.36 v 25.09 l 13.35,-8.51 c 11.02,0 13.53,3.85 13.53,15.05 v 26.77 l 6.18,0.99 -0.45,3.58 -10.66,-0.27 -9.05,0.27 -0.45,-3.58 4.03,-0.99 v -27.67 c 0,-4.21 -1.97,-6.09 -5.29,-6.09 -2.6,0 -5.73,1.88 -8.78,3.76 l -2.42,1.52 v 28.47 z"
         id="path3146"
         inkscape:connector-curvature="0"
         style="fill:#73000a" />
      <g
         id="g3148">
        <path
           class="cls-2"
           d="m 504.22,154.39 -2.06,14.34 c -5.11,2.33 -12.64,5.47 -21.25,6.72 -13.62,0 -30.22,-11.11 -30.22,-31.9 0,-20.79 14.72,-31.48 32.46,-34.05 9.05,0 15.69,3.76 19.9,6.54 v 13.53 h -5.56 l -2.87,-8.51 c -2.33,-2.87 -5.74,-6.36 -13.09,-6.36 -12.28,0 -18.48,9.41 -18.48,26.43 0,14.87 5.84,28.94 20.18,28.94 5.56,0 8.16,-2.96 10.94,-5.47 l 4.66,-10.22 h 5.38 z"
           id="path3150"
           inkscape:connector-curvature="0"
           style="fill:#73000a" />
        <path
           class="cls-2"
           d="m 526.67,127.53 c 11.92,0 15.32,3.05 15.32,14.07 v 22.02 c 0,3.76 0.54,5.29 1.43,6.72 h 4.39 l 0.45,3.58 -13.26,1.25 -2.87,-7.71 -10.48,7.71 c -7.97,0 -13.62,-4.48 -13.62,-11.74 0,-3.49 1.34,-6.09 3.49,-8.6 l 20.07,-6.54 v -7.33 c 0,-5.38 -0.9,-7.88 -4.93,-7.88 -2.24,0 -4.75,0.72 -6.54,1.52 l -1.43,7.8 h -9.23 v -7.53 l 17.2,-7.35 z m 4.93,24.53 -11.38,4.66 c -1.34,1.43 -1.88,3.49 -1.88,5.47 0,4.48 2.51,6.09 4.84,6.09 2.33,0 4.12,-1.25 5.29,-2.06 l 3.14,-2.15 v -12.01 z"
           id="path3152"
           inkscape:connector-curvature="0"
           style="fill:#73000a" />
        <path
           class="cls-2"
           d="m 566.12,141.42 9.86,-13.44 h 8.95 l -2.49,10.48 h -6.46 c -2.15,0.63 -5.38,3.32 -7.8,6.09 l -1.52,1.79 v 22.83 l 9.5,0.9 -0.45,3.85 -13.98,-0.27 -10.57,0.27 -0.45,-3.58 5.82,-0.99 v -34.48 l -5.82,0.45 -0.45,-3.67 11.2,-2.69 4.12,-0.36 0.54,12.81 z"
           id="path3154"
           inkscape:connector-curvature="0"
           style="fill:#73000a" />
        <path
           class="cls-2"
           d="m 626.66,150.37 c 0,13.98 -9.23,22.39 -22.85,24.81 -11.74,0 -20.07,-10.29 -20.07,-22.75 0,-14.16 9.23,-22.39 22.85,-24.9 11.74,0 20.07,10.29 20.07,22.84 z m -20.34,20.06 c 6,0 9.32,-7.43 9.32,-17.28 0,-12.45 -5.02,-20.87 -11.65,-20.87 -6.09,0 -9.32,7.43 -9.32,17.28 0,11.65 4.84,20.87 11.65,20.87 z"
           id="path3156"
           inkscape:connector-curvature="0"
           style="fill:#73000a" />
        <path
           class="cls-2"
           d="m 638.24,173.66 -10.66,0.27 -0.45,-3.58 5.73,-0.99 v -51.95 l -5.82,0.18 -0.45,-3.67 11.65,-2.69 4.93,-0.36 v 58.49 l 6.18,0.99 -0.45,3.58 -10.66,-0.27 z"
           id="path3158"
           inkscape:connector-curvature="0"
           style="fill:#73000a" />
        <path
           class="cls-2"
           d="m 664.5,173.66 -10.66,0.27 -0.45,-3.58 5.82,-0.99 v -34.57 l -5.82,0.36 -0.45,-3.58 11.65,-2.6 4.93,-0.36 v 40.75 l 6.09,0.99 -0.45,3.58 -10.66,-0.27 z m -4.84,-61.83 7.35,-0.54 2.69,0.54 0.54,5.47 -1.08,4.66 -7.26,0.54 -2.69,-0.54 -0.54,-5.47 0.99,-4.66 z"
           id="path3160"
           inkscape:connector-curvature="0"
           style="fill:#73000a" />
        <path
           class="cls-2"
           d="m 690.99,173.66 -10.66,0.27 -0.45,-3.58 5.82,-0.99 v -34.48 l -5.91,0.45 -0.45,-3.67 11.65,-2.69 4.57,-0.27 0.27,7.44 13.44,-8.6 c 11.02,0 13.62,3.49 13.62,14.25 v 27.58 l 6.18,0.99 -0.45,3.58 -10.66,-0.27 -9.23,0.27 -0.45,-3.58 4.12,-0.99 V 141.7 c 0,-4.21 -1.88,-6.09 -5.38,-6.09 -2.96,0 -5.82,1.88 -8.69,3.76 l -2.33,1.61 v 28.38 l 4.39,0.99 -0.45,3.58 -8.96,-0.27 z"
           id="path3162"
           inkscape:connector-curvature="0"
           style="fill:#73000a" />
        <path
           class="cls-2"
           d="m 749.33,127.53 c 11.92,0 15.32,3.05 15.32,14.07 v 22.02 c 0,3.76 0.54,5.29 1.43,6.72 h 4.39 l 0.45,3.58 -13.26,1.25 -2.87,-7.71 -10.48,7.71 c -7.97,0 -13.62,-4.48 -13.62,-11.74 0,-3.49 1.34,-6.09 3.49,-8.6 l 20.07,-6.54 v -7.33 c 0,-5.38 -0.9,-7.88 -4.93,-7.88 -2.24,0 -4.75,0.72 -6.54,1.52 l -1.43,7.8 h -9.23 v -7.53 l 17.2,-7.35 z m 4.93,24.53 -11.38,4.66 c -1.34,1.43 -1.88,3.49 -1.88,5.47 0,4.48 2.51,6.09 4.84,6.09 2.33,0 4.12,-1.25 5.29,-2.06 l 3.14,-2.15 v -12.01 z"
           id="path3164"
           inkscape:connector-curvature="0"
           style="fill:#73000a" />
      </g>
      <path
         class="cls-2"
         d="m 376.19,166.37 c -1.89,0.88 -3.57,1.47 -5.66,1.47 -3.41,0 -4.66,-2.6 -4.66,-5.47 V 133 h 10.32 v -4.39 h -10.41 v -11.02 h -3.14 l -6.9,6.18 v 4.3 h -4.04 l -3.32,3.41 V 133 h 7.18 v 30.27 c 0,8.69 3.58,11.92 12.63,11.92 l 7.41,-4.05 0.59,-4.76 z"
         id="path3166"
         inkscape:connector-curvature="0"
         style="fill:#73000a" />
    </g>
    <g
       id="g3168">
      <path
         id="path3170"
         d="m 223.88,74.56 0.18,-1.41 4.51,0.11 4.08,-0.11 0.18,1.41 -2.92,0.46 V 89.1 c 0,4.61 -1.87,7.71 -8.87,9.36 -7.39,0 -10,-3.77 -10,-9.36 V 75.02 c 0,0 -2.99,-0.46 -2.99,-0.46 l 0.18,-1.41 4.82,0.11 5.17,-0.11 0.18,1.41 -2.78,0.46 v 14.4 c 0,4.29 1.83,6.79 5.74,6.79 3.63,0 5.6,-2.5 5.6,-6.9 V 75.02 c 0,0 -3.06,-0.46 -3.06,-0.46 z"
         class="cls-2"
         inkscape:connector-curvature="0"
         style="fill:#73000a" />
      <path
         id="path3172"
         d="m 243.86,95.99 2.82,0.46 -0.14,1.41 -3.8,-0.11 -4.15,0.11 -0.18,-1.41 2.99,-0.46 v -20.8 c 0,0 -2.89,-0.63 -2.89,-0.63 l 0.18,-1.41 3.1,0.11 3.13,-0.11 11.86,16.12 0.84,2.5 V 75.02 c 0,0 -2.82,-0.46 -2.82,-0.46 l 0.14,-1.41 3.8,0.11 4.15,-0.11 0.18,1.41 -2.99,0.46 V 97.9 c 0,0 -2.39,0 -2.39,0 l -13.13,-18.27 -0.7,-2.78 V 96 z"
         class="cls-2"
         inkscape:connector-curvature="0"
         style="fill:#73000a" />
      <path
         id="path3174"
         d="m 273.85,97.75 -5.03,0.11 -0.18,-1.44 2.99,-0.46 V 75.02 c 0,0 -2.99,-0.46 -2.99,-0.46 l 0.18,-1.41 5.03,0.11 5.03,-0.11 0.18,1.41 -2.99,0.46 v 20.94 c 0,0 2.99,0.46 2.99,0.46 l -0.18,1.44 -5.03,-0.11 z"
         class="cls-2"
         inkscape:connector-curvature="0"
         style="fill:#73000a" />
      <path
         id="path3176"
         d="m 295.95,98.39 -8.91,-23.41 -2.57,-0.42 0.18,-1.41 5.46,0.11 4.47,-0.11 0.18,1.41 -2.82,0.46 6.02,16.79 0.11,2.11 6.69,-18.9 -2.92,-0.46 0.18,-1.41 3.98,0.11 3.66,-0.11 0.18,1.41 -2.5,0.42 -8.59,22.56 -2.78,0.85 z"
         class="cls-2"
         inkscape:connector-curvature="0"
         style="fill:#73000a" />
      <path
         id="path3178"
         d="m 333.2,73.15 0.35,6.51 h -1.44 c 0,0 -2.04,-4.58 -2.04,-4.58 l -8.84,-0.11 v 9.08 c 0,0 4.54,-0.14 4.54,-0.14 l 1.41,-3.73 h 1.48 c 0,0 -0.35,4.58 -0.35,4.58 l 0.35,4.86 h -1.48 c 0,0 -1.41,-3.73 -1.41,-3.73 l -4.54,-0.14 v 10.28 c 0,0 9.22,-0.11 9.22,-0.11 l 2.36,-4.75 h 1.58 c 0,0 -1.2,6.69 -1.2,6.69 l -14.36,-0.11 -4.86,0.11 -0.18,-1.41 2.99,-0.46 V 75.01 c 0,0 -2.99,-0.46 -2.99,-0.46 l 0.18,-1.41 4.86,0.11 14.36,-0.11 z"
         class="cls-2"
         inkscape:connector-curvature="0"
         style="fill:#73000a" />
      <path
         id="path3180"
         d="m 347.1,86.56 v 9.43 c 0,0 2.85,0.46 2.85,0.46 l -0.18,1.41 -4.89,-0.11 -5.03,0.11 -0.18,-1.41 2.99,-0.46 V 75.01 c 0,0 -2.99,-0.46 -2.99,-0.46 l 0.18,-1.41 5.03,0.11 7.04,-0.11 c 4.43,-0.04 7.92,2.01 7.92,6.12 0,4.11 -3.63,5.88 -7.46,6.76 l 3.03,1.58 5.7,8.34 1.8,0.53 -0.14,1.37 -3.31,-0.11 -2.64,0.11 -7.18,-10.91 -0.42,-0.39 h -2.11 z m 0,-1.8 h 2.39 c 3.24,0 5.49,-2.11 5.49,-5.24 0,-3.17 -2.08,-4.75 -4.75,-4.79 l -3.13,0.25 v 9.79 z"
         class="cls-2"
         inkscape:connector-curvature="0"
         style="fill:#73000a" />
      <path
         id="path3182"
         d="m 370.48,93.99 c 1.09,1.27 2.89,2.29 4.86,2.29 2.75,0 4.43,-1.69 4.43,-4.15 0,-2.08 -1.34,-3.41 -3.45,-4.37 l -4.26,-1.97 c -2.71,-1.23 -4.72,-2.92 -4.72,-6.02 0,-3.59 3.1,-6.02 8.73,-7.22 2.36,0 4.96,0.77 6.79,2.04 v 5.07 c 0,0 -2.08,0 -2.08,0 l -1.02,-3.2 c -0.91,-0.99 -2.11,-1.8 -4.15,-1.8 -2.68,0 -4.22,1.44 -4.22,3.52 0,1.76 1.23,2.89 3.06,3.73 l 4.29,1.94 c 3.27,1.55 5.24,3.31 5.21,6.62 0,3.63 -2.68,6.51 -9.22,7.99 -3.06,0 -5.42,-0.95 -7.39,-2.39 l -0.77,-5.17 h 2.71 c 0,0 1.2,3.1 1.2,3.1 z"
         class="cls-2"
         inkscape:connector-curvature="0"
         style="fill:#73000a" />
      <path
         id="path3184"
         d="m 394.66,97.75 -5.03,0.11 -0.18,-1.44 2.99,-0.46 V 75.02 c 0,0 -2.99,-0.46 -2.99,-0.46 l 0.18,-1.41 5.03,0.11 5.03,-0.11 0.18,1.41 -2.99,0.46 v 20.94 c 0,0 2.99,0.46 2.99,0.46 l -0.18,1.44 -5.03,-0.11 z"
         class="cls-2"
         inkscape:connector-curvature="0"
         style="fill:#73000a" />
      <path
         id="path3186"
         d="m 421.72,97.86 -5.95,-0.11 -6.09,0.11 -0.18,-1.41 4.05,-0.46 V 75.01 c 0,0 -4.86,0.07 -4.86,0.07 L 407,79.76 h -1.55 v -6.62 c 0,0 10.38,0.11 10.38,0.11 l 10.24,-0.11 v 6.62 c 0,0 -1.58,0 -1.58,0 l -1.65,-4.68 -4.86,-0.07 v 20.98 c 0,0 3.91,0.46 3.91,0.46 l -0.18,1.41 z"
         class="cls-2"
         inkscape:connector-curvature="0"
         style="fill:#73000a" />
      <path
         id="path3188"
         d="m 446.03,88.21 0.03,7.78 3.94,0.46 -0.18,1.41 -5.98,-0.11 -6.12,0.11 -0.18,-1.41 4.08,-0.46 v -7.88 c 0,0 -7.78,-13.16 -7.78,-13.16 l -2.57,-0.42 0.18,-1.37 5,0.11 4.89,-0.11 0.18,1.37 -2.82,0.46 5.88,9.93 0.18,1.51 6.12,-11.44 -2.89,-0.46 0.18,-1.37 4.05,0.11 3.77,-0.11 0.18,1.37 -2.57,0.39 -7.57,13.31 z"
         class="cls-2"
         inkscape:connector-curvature="0"
         style="fill:#73000a" />
      <path
         id="path3190"
         d="m 498.54,84.94 c 0,7.78 -3.91,11.93 -13.02,13.52 -7.36,0 -12.25,-5.28 -12.25,-12.39 0,-7.78 3.91,-11.93 13.02,-13.52 7.36,0 12.25,5.28 12.25,12.39 z m -12.14,11.4 c 5.1,0 7.29,-4.47 7.29,-10.24 0,-5.17 -2.25,-11.44 -8.24,-11.44 -5.1,0 -7.32,4.44 -7.32,10.21 0,5.31 2.32,11.47 8.27,11.47 z"
         class="cls-2"
         inkscape:connector-curvature="0"
         style="fill:#73000a" />
      <path
         id="path3192"
         d="m 503.81,97.86 -0.18,-1.41 2.99,-0.46 V 75.01 c 0,0 -2.99,-0.46 -2.99,-0.46 l 0.18,-1.41 4.86,0.11 14.36,-0.11 0.35,6.62 h -1.44 c 0,0 -2.04,-4.68 -2.04,-4.68 l -8.84,-0.11 v 9.57 c 0,0 4.54,-0.14 4.54,-0.14 l 1.41,-3.7 h 1.48 c 0,0 -0.35,4.58 -0.35,4.58 l 0.35,4.86 h -1.48 c 0,0 -1.41,-3.73 -1.41,-3.73 l -4.54,-0.14 v 9.72 c 0,0 4.22,0.46 4.22,0.46 l -0.18,1.41 -6.44,-0.11 -4.86,0.11 z"
         class="cls-2"
         inkscape:connector-curvature="0"
         style="fill:#73000a" />
    </g>
  </g>
</svg>
