<?xml version="1.0" encoding="UTF-8" standalone="no"?>
<!-- Created with Inkscape (http://www.inkscape.org/) -->

<svg
   xmlns:dc="http://purl.org/dc/elements/1.1/"
   xmlns:cc="http://creativecommons.org/ns#"
   xmlns:rdf="http://www.w3.org/1999/02/22-rdf-syntax-ns#"
   xmlns:svg="http://www.w3.org/2000/svg"
   xmlns="http://www.w3.org/2000/svg"
   version="1.1"
   width="784.71411"
   height="192.61154"
   id="svg4276">
  <defs
     id="defs4278" />
  <g
     transform="translate(-36.21433,-433.19926)"
     id="layer1">
    <path
       d="m 136.25187,500.61587 c -14.68896,0 -25.57912,11.2101 -25.57912,26.36262 0,15.36616 10.66229,26.08609 25.94783,26.08609 8.98913,0 15.22998,-4.21311 20.64764,-10.96906 l -2.30442,-1.93572 c -4.52278,4.75658 -9.47594,8.84899 -16.45359,8.84899 -9.79532,0 -14.70223,-7.49588 -14.70223,-22.49118 0,-15.06787 4.50941,-23.09034 13.04304,-23.09034 3.0434,0 5.71341,0.96305 8.75681,3.18011 4.07937,3.05147 5.95903,5.74234 8.11158,11.75256 l 2.21225,0 0,-17.69798 -2.07399,0 c -0.97147,2.74915 -1.61728,3.41055 -3.31837,3.41055 -2.66851,0 -7.08404,-3.45664 -14.28743,-3.45664 z m 56.27405,0.96786 0,2.30443 c 6.68339,0 6.8211,1.60354 6.8211,8.8029 l 0,28.29833 c 0,7.34447 -0.8873,8.84899 -5.11582,8.84899 l -1.70528,0 0,2.30443 42.77012,0 3.59491,-15.85444 -2.30443,0 c -3.78107,8.83191 -9.33543,13.13522 -19.12672,13.13522 -5.12743,0 -6.0376,-0.93167 -6.0376,-6.49848 l 0,-15.02485 c 8.31595,0 10.12713,4.10107 10.87689,11.52212 l 2.30442,0 0,-25.67129 -2.30442,0 c -0.89086,7.19937 -2.85118,10.82396 -10.87689,10.96907 l 0,-17.05275 c 0,-2.66851 0.76976,-3.04184 6.26804,-3.04184 5.49425,0 8.0701,0.58159 10.73862,2.58096 3.05147,2.22913 3.70644,3.71727 4.51667,9.5864 l 2.35051,0 0,-15.2092 -42.77012,0 z m 80.10181,0 0,2.30443 0.96785,0 c 4.22046,0 5.11583,1.48086 5.11583,8.75681 l 0,23.87384 c 0,10.02105 7.8437,16.54577 19.86414,16.54577 6.75193,0 13.09443,-2.57981 15.99271,-6.59066 1.99937,-2.81766 3.04184,-7.49438 3.04184,-13.73437 l 0,-20.09458 c 0,-7.27595 0.87925,-8.75681 5.11582,-8.75681 l 0.96786,0 0,-2.30443 -16.36142,0 0,2.30443 c 7.20743,0 7.28198,1.33171 7.28198,8.75681 l 0,19.95632 c 0,9.04958 -2.57454,16.4075 -13.04304,16.4075 -6.53424,0 -10.78471,-4.31214 -10.78471,-10.92297 l 0,-25.44085 c 0,-7.27595 0.91378,-8.75681 5.06974,-8.75681 l 2.21224,0 0,-2.30443 -25.44084,0 z"
       id="path1002"
       style="fill:#000000;fill-opacity:1;fill-rule:nonzero;stroke:none" />
    <path
       d="m 187.14004,453.27974 -22.04552,20.00585 6.13114,-29.35373 15.91438,9.34788 z m -45.69378,-17.51951 -9.7792,28.90628 -8.46912,-28.90628 18.24832,0 z m -48.317161,7.88624 5.981991,29.48271 -22.04148,-19.99778 16.059489,-9.48493 z m -38.245266,30.94678 19.699476,22.77513 -29.48674,-5.98603 9.787264,-16.7891 z m -17.669503,46.13153 28.616044,9.04555 -28.616044,9.64619 0,-18.69174 z m 8.030563,48.17324 28.906276,-5.98201 -18.97793,22.33173 -9.928346,-16.34972 z m 53.719112,17.80814 -6.707579,30.22039 -15.333915,-9.78323 22.041494,-20.43716 z m 32.554715,8.76302 9.92835,29.19248 -19.41731,0.14915 9.48896,-29.34163 z m 33.13801,-8.90208 21.9004,20.86443 -15.47097,9.64618 -6.42943,-30.51061 z"
       id="path1046"
       style="fill:#000000;fill-opacity:1;fill-rule:nonzero;stroke:none" />
    <path
       d="m 654.56308,434.20237 c -0.16329,-0.0217 -0.29035,0.0687 -0.46088,0.32262 -0.17055,0.25403 -0.429,0.77599 -0.73742,1.567 l -12.02909,30.8793 c -0.46568,1.26276 -0.98052,2.28963 -1.6131,3.08792 -0.6326,0.7983 -1.5398,1.31517 -2.67313,1.47484 -0.21893,0.0302 -0.48475,0.0232 -0.78351,0.046 -0.29874,0.023 -0.54752,0.0448 -0.73741,0.046 -0.12094,0.003 -0.23068,0.0633 -0.32262,0.13819 -0.0919,0.0751 -0.13348,0.158 -0.1382,0.27653 0.0103,0.28062 0.36564,0.42447 1.01395,0.4148 1.09705,-0.007 2.11678,-0.0414 3.13402,-0.0922 1.01725,-0.0507 1.71461,-0.0849 2.02789,-0.0922 0.36892,0.007 1.02759,0.0414 2.0279,0.0922 1.00029,0.0507 1.84662,0.0849 2.53486,0.0922 0.23465,10e-4 0.42001,-0.028 0.55307,-0.0922 0.13303,-0.0642 0.22802,-0.17869 0.23044,-0.32262 0.003,-0.11858 -0.0621,-0.20154 -0.13819,-0.27653 -0.0762,-0.0751 -0.21523,-0.13583 -0.4148,-0.13819 l -0.46089,0 c -0.45359,0.006 -0.85358,-0.0721 -1.1983,-0.27653 -0.34472,-0.20442 -0.53492,-0.57259 -0.55306,-1.06004 0.003,-0.44269 0.0973,-0.94759 0.23044,-1.52092 0.13303,-0.57333 0.31839,-1.18057 0.55307,-1.79745 l 2.90357,-7.88113 c 0.11607,-0.28061 0.27472,-0.42446 0.50697,-0.4148 l 11.79866,0 c 0.13908,-0.003 0.21727,0.004 0.27653,0.046 0.0593,0.0411 0.13229,0.11681 0.18435,0.23045 l 4.56277,11.33777 c 0.15115,0.40398 0.1924,0.70647 0.046,0.92177 -0.1463,0.21529 -0.33887,0.35915 -0.50697,0.41479 -0.11607,0.0507 -0.17244,0.10191 -0.23045,0.13819 -0.0581,0.0363 -0.0922,0.12153 -0.0922,0.23045 0.0133,0.13789 0.16705,0.19416 0.50697,0.23044 0.33986,0.0363 0.78365,0.0704 1.29048,0.0922 1.83847,0.0556 3.52148,0.0801 5.06973,0.0922 1.54818,0.0118 2.55061,0.0485 2.99576,0.046 0.30237,10e-4 0.55365,-0.028 0.7835,-0.0922 0.22976,-0.0641 0.35657,-0.17869 0.36871,-0.32262 -0.009,-0.14394 -0.0525,-0.25851 -0.18436,-0.32262 -0.13185,-0.0641 -0.30729,-0.0934 -0.46088,-0.0922 -0.26613,0.003 -0.56862,-0.004 -0.92177,-0.046 -0.35324,-0.0412 -0.72395,-0.11681 -1.10612,-0.23044 -0.54796,-0.10162 -1.17483,-0.51612 -1.88963,-1.1983 -0.71488,-0.68219 -1.51743,-2.06042 -2.44269,-4.19406 -0.81587,-1.95356 -1.87915,-4.48096 -3.13402,-7.55851 -1.25494,-3.07752 -2.51603,-6.2209 -3.82535,-9.44814 -1.30935,-3.22718 -2.47752,-6.07765 -3.45663,-8.48028 -0.97914,-2.40258 -1.57927,-3.86684 -1.84354,-4.47059 -0.24679,-0.55756 -0.43952,-1.01841 -0.59915,-1.33656 -0.15967,-0.31808 -0.3985,-0.4548 -0.64524,-0.46089 z m -233.20778,0.23044 c -3.88508,0.0351 -7.04868,0.53517 -9.54032,1.52092 -2.49167,0.98581 -4.48684,2.21764 -5.9915,3.73317 -2.22073,2.28485 -3.78153,4.66297 -4.60885,7.14371 -0.82734,2.4808 -1.19577,4.58088 -1.15222,6.31413 -0.0532,2.39855 0.36868,4.93248 1.24439,7.51242 0.87571,2.57997 2.53428,4.9484 4.97756,7.14372 1.97517,1.74416 4.32884,3.0758 7.05154,3.96361 2.72266,0.8878 5.96673,1.33415 9.77076,1.33657 1.7018,0.004 3.38965,-0.10722 5.06974,-0.27654 1.68002,-0.16934 3.0557,-0.42802 4.14796,-0.82959 0.41605,-0.15483 0.72082,-0.32312 0.87568,-0.50697 0.15479,-0.18385 0.28897,-0.52274 0.4148,-0.96786 0.27936,-0.97852 0.52584,-2.17623 0.7835,-3.64099 0.2576,-1.46475 0.39661,-2.36227 0.4148,-2.67313 -0.004,-0.18144 -0.0465,-0.36908 -0.13819,-0.50698 -0.0919,-0.13789 -0.2017,-0.17708 -0.32262,-0.18435 -0.16695,-0.003 -0.25735,0.033 -0.32262,0.13819 -0.0653,0.1053 -0.13362,0.29544 -0.18436,0.55306 -0.0895,0.50923 -0.309,1.16053 -0.64523,1.98181 -0.3363,0.82129 -0.78264,1.52376 -1.33657,2.12007 -1.00033,0.98578 -2.19294,1.63938 -3.54881,1.93571 -1.35594,0.29634 -2.98523,0.44504 -4.88538,0.4148 -5.54216,-0.1536 -9.9521,-1.9512 -13.27349,-5.39235 -3.32143,-3.44114 -5.03117,-7.60462 -5.11582,-12.48998 -0.0447,-2.50374 0.2455,-4.83551 0.87568,-7.00546 0.63016,-2.16989 1.89103,-4.15029 3.73317,-5.89932 0.85634,-0.87931 2.17831,-1.66709 3.96361,-2.35052 1.78526,-0.68336 4.27567,-1.0225 7.51242,-1.06003 2.28721,0.0193 4.29461,0.27069 6.03759,0.7835 1.74293,0.51289 3.08678,1.16164 4.0097,1.93572 0.67368,0.54312 1.19081,1.23592 1.56701,2.12007 0.37613,0.88421 0.59306,1.83291 0.59915,2.8114 -0.004,0.34834 -0.007,0.60937 0.046,0.7835 0.0532,0.1742 0.15325,0.27656 0.32262,0.27653 0.14752,0.003 0.31074,-0.11326 0.41479,-0.27653 0.10398,-0.16326 0.15287,-0.40972 0.18436,-0.7835 0.0265,-0.4136 0.0339,-1.12835 0.046,-2.16616 0.0118,-1.03775 0.0655,-2.02542 0.0922,-2.90358 0.0605,-0.8781 0.0923,-1.49045 0.13819,-1.88962 0.0459,-0.39912 0.0897,-0.69422 0.0922,-0.87569 0.006,-0.14873 -0.05,-0.2707 -0.1382,-0.3687 -0.0883,-0.0979 -0.25179,-0.13466 -0.50697,-0.1382 -0.83462,-0.0351 -1.68581,-0.13258 -2.53487,-0.27653 -0.84913,-0.14394 -1.76856,-0.32672 -2.71922,-0.50697 -1.27489,-0.20196 -2.55306,-0.32163 -3.87143,-0.4148 -1.31843,-0.0931 -2.50621,-0.13937 -3.54881,-0.13819 z m 74.66336,0 c -0.20683,-0.0193 -0.37997,0.14899 -0.50697,0.50697 -0.12699,0.35806 -0.18073,1.01421 -0.18436,1.98181 l 0,28.25224 c 0.0193,2.1905 -0.0466,3.76351 -0.23044,4.65494 -0.18385,0.89143 -0.57902,1.39151 -1.1983,1.52092 -0.39189,0.11371 -0.80641,0.18933 -1.1983,0.23045 -0.39189,0.0411 -0.70406,0.0485 -0.92177,0.046 -0.11858,0.003 -0.20152,0.0633 -0.27653,0.13819 -0.0749,0.0751 -0.13583,0.158 -0.13819,0.27653 10e-4,0.16934 0.0913,0.2694 0.23044,0.32262 0.13908,0.0532 0.33669,0.097 0.59915,0.0922 1.19261,-0.007 2.26326,-0.0414 3.18011,-0.0922 0.91684,-0.0507 1.48767,-0.0849 1.75136,-0.0922 0.24674,0.007 0.854,0.0414 1.79745,0.0922 0.94344,0.0507 2.12892,0.0849 3.5949,0.0922 0.2927,0.001 0.52925,-0.028 0.69133,-0.0922 0.16204,-0.0642 0.22802,-0.17869 0.23044,-0.32262 -0.003,-0.11857 -0.0172,-0.20153 -0.0922,-0.27653 -0.0751,-0.0751 -0.15799,-0.13583 -0.27654,-0.13819 -0.25162,0.003 -0.62232,-0.004 -1.10612,-0.046 -0.48383,-0.0411 -0.99103,-0.11681 -1.47483,-0.23045 -0.68462,-0.13303 -1.18214,-0.61351 -1.47483,-1.42874 -0.29273,-0.81523 -0.46102,-2.20313 -0.50698,-4.19405 l -0.55306,-23.32078 c 0.86723,0.95678 2.52096,2.75665 4.97756,5.34626 2.45657,2.58966 5.2054,5.47268 8.24984,8.66464 2.88353,2.99121 5.71282,5.86685 8.48028,8.61855 2.76741,2.75171 4.34806,4.3395 4.79321,4.74711 1.37399,1.26882 2.35427,2.0981 2.85748,2.48878 0.50313,0.39069 0.84712,0.54447 1.06004,0.50698 0.16929,0.0556 0.26933,-0.12979 0.32262,-0.55307 0.0531,-0.42333 0.0969,-1.42576 0.0922,-2.99575 l 0.0922,-28.89748 c -0.0302,-1.45264 0.0673,-2.50139 0.27653,-3.13402 0.20921,-0.63256 0.70928,-1.00582 1.52092,-1.15221 0.29024,-0.0556 0.53417,-0.0801 0.73742,-0.0922 0.20316,-0.0118 0.39083,-0.0485 0.50697,-0.046 0.17655,-0.009 0.31075,-0.0354 0.4148,-0.13819 0.10397,-0.10279 0.13583,-0.22703 0.13819,-0.32262 -0.006,-0.14143 -0.10368,-0.22932 -0.27653,-0.27653 -0.17301,-0.0472 -0.37797,-0.0497 -0.64524,-0.046 -1.05955,0.004 -1.95001,0.0118 -2.71922,0.046 -0.7693,0.0339 -1.30832,0.0413 -1.6131,0.046 -0.33147,-0.004 -1.01433,-0.0118 -2.02789,-0.046 -1.01364,-0.0338 -2.11612,-0.0412 -3.31837,-0.046 -0.29524,-0.003 -0.55843,-10e-4 -0.73742,0.046 -0.17906,0.0472 -0.27174,0.1351 -0.27653,0.27653 -0.004,0.0956 0.0389,0.21984 0.0922,0.32262 0.0531,0.1028 0.15323,0.12979 0.32262,0.13819 0.22371,-0.001 0.58223,0.0103 1.06003,0.046 0.47773,0.0351 0.94367,0.0985 1.42874,0.18435 0.76198,0.11858 1.26689,0.55982 1.52093,1.24439 0.25395,0.68463 0.40749,1.7945 0.41479,3.36446 l 0.50698,24.74952 c -0.87333,-0.91441 -2.41986,-2.59971 -4.70103,-5.02364 -2.28124,-2.42392 -4.75915,-4.98254 -7.37416,-7.69678 -4.07619,-4.20677 -7.66398,-7.96515 -10.73862,-11.19951 -3.07467,-3.23429 -4.85774,-5.11971 -5.39235,-5.66888 -0.27459,-0.29147 -0.59896,-0.57943 -0.96786,-0.92177 -0.36892,-0.34226 -0.71037,-0.52278 -1.01395,-0.55306 z m 51.34258,0 c -0.0907,0.0206 -0.17857,0.10619 -0.27653,0.32262 -0.0979,0.21655 -0.21485,0.43348 -0.27653,0.59915 -0.0714,0.36773 -0.24219,1.24335 -0.55306,2.62704 -0.31086,1.38375 -0.51073,2.2935 -0.55306,2.71922 0.007,0.14395 0.0584,0.21247 0.13819,0.27653 0.0798,0.0642 0.16514,0.0934 0.23044,0.0922 0.11607,0.006 0.23555,0.0133 0.32262,-0.046 0.087,-0.0593 0.12625,-0.21761 0.18436,-0.4148 0.0737,-0.16326 0.18099,-0.32443 0.27653,-0.55306 0.0956,-0.22857 0.27606,-0.58936 0.55306,-1.01395 0.34594,-0.56967 0.89233,-0.96966 1.65918,-1.1983 0.76684,-0.22857 1.93757,-0.35054 3.50273,-0.36871 l 7.37416,-0.0922 0,20.73982 c 0.004,2.40095 -0.022,4.51809 -0.046,6.36021 -0.0242,1.84214 -0.0731,3.24966 -0.18435,4.28623 -0.0737,0.73178 -0.20311,1.33419 -0.4148,1.79745 -0.21166,0.46326 -0.59692,0.75352 -1.10612,0.87568 -0.23711,0.0605 -0.47133,0.13834 -0.73742,0.18436 -0.26613,0.046 -0.50036,0.0436 -0.73741,0.046 -0.14394,0.003 -0.25852,0.0693 -0.32262,0.13819 -0.0642,0.0689 -0.0935,0.13967 -0.0922,0.23045 -0.003,0.14394 0.0562,0.2585 0.18436,0.32262 0.12816,0.0642 0.31124,0.0934 0.59915,0.0922 0.86603,-0.007 1.91961,-0.0414 3.13401,-0.0922 1.21434,-0.0507 1.93874,-0.0849 2.16616,-0.0922 0.21651,0.007 0.94342,0.0414 2.21225,0.0922 1.2688,0.0507 2.63709,0.0849 4.10188,0.0922 0.28781,-0.003 0.517,-0.0633 0.64524,-0.13819 0.12816,-0.0751 0.18672,-0.158 0.18435,-0.27653 0.004,-0.0932 -0.0389,-0.19065 -0.0922,-0.27653 -0.0532,-0.0858 -0.15328,-0.13229 -0.32262,-0.13819 -0.25645,-0.003 -0.60043,-1.2e-4 -1.06003,-0.046 -0.45965,-0.046 -0.87188,-0.12388 -1.24439,-0.18435 -0.75719,-0.11976 -1.27178,-0.38327 -1.52092,-0.82959 -0.2492,-0.44632 -0.40043,-1.06809 -0.46089,-1.79746 -0.11135,-1.03657 -0.16021,-2.44409 -0.18435,-4.28623 -0.0242,-1.84212 -0.0509,-3.95926 -0.046,-6.36021 l 0,-20.73982 6.36021,0.0922 c 2.37914,0.0702 3.99136,0.38463 4.83929,0.87568 0.84787,0.4911 1.30872,1.1228 1.33657,1.88963 l 0.046,0.50697 c 0.0279,0.34113 0.0742,0.56799 0.13819,0.69133 0.0642,0.12344 0.16161,0.19164 0.27653,0.18435 0.12094,-10e-4 0.23064,-0.0742 0.32262,-0.18435 0.0919,-0.11003 0.13333,-0.25645 0.13819,-0.46089 0.007,-0.39428 0.0415,-1.23808 0.0922,-2.48878 0.0507,-1.25062 0.0848,-2.27521 0.0922,-3.13401 0.004,-0.15116 -0.022,-0.29985 -0.046,-0.4148 -0.0242,-0.11489 -0.0732,-0.17828 -0.18435,-0.18435 -0.11489,0.003 -0.3148,0.0463 -0.55306,0.0922 -0.23832,0.046 -0.54563,0.0779 -0.92177,0.13819 -0.40282,0.0605 -0.87614,0.13849 -1.47483,0.18436 -0.59876,0.046 -1.32799,0.0437 -2.16616,0.046 l -19.26499,0 c -0.33022,0.001 -0.91788,-0.0103 -1.70528,-0.046 -0.78741,-0.0351 -1.53879,-0.0985 -2.30442,-0.18436 -0.68219,-0.10043 -1.1871,-0.23199 -1.52092,-0.3687 -0.33385,-0.13657 -0.57777,-0.17101 -0.73742,-0.18436 z m -74.1103,0.27653 c -0.11606,0.006 -0.20652,0.0354 -0.32262,0.0922 -0.11606,0.0569 -0.2526,0.10323 -0.3687,0.13819 -0.21292,0.0339 -0.50572,0.0754 -0.92177,0.13819 -0.41611,0.063 -0.87952,0.10442 -1.38266,0.13819 -0.50964,0.0183 -1.7048,0.0472 -3.5949,0.046 -1.89013,-0.001 -3.73084,0.007 -5.53062,0 -1.79981,-0.007 -2.84926,-0.045 -3.08793,-0.046 -0.2286,-0.004 -0.9288,-0.0118 -2.16616,-0.046 -1.23737,-0.0338 -2.48856,-0.0411 -3.73317,-0.046 -0.28788,-10e-4 -0.51703,0.0282 -0.64524,0.0922 -0.12816,0.0641 -0.18677,0.17872 -0.18435,0.32262 0.006,0.0932 0.0524,0.14453 0.13819,0.23044 0.0858,0.0858 0.18341,0.13229 0.27653,0.13819 0.25037,0.001 0.53096,0.0232 0.87568,0.046 0.34473,0.023 0.65433,0.0619 0.87569,0.0922 0.81643,0.11017 1.34094,0.39299 1.61309,0.8296 0.27214,0.43668 0.42822,1.05387 0.46089,1.88963 0.0556,0.64956 0.0801,1.67387 0.0922,3.04184 0.0118,1.36802 0.0485,3.90705 0.046,7.6046 l 0,8.71072 c 0.006,2.40096 -0.0158,4.51809 -0.046,6.36022 -0.0302,1.84213 -0.13746,3.24965 -0.27654,4.28623 -0.0956,0.73299 -0.20783,1.34023 -0.3687,1.79745 -0.16088,0.45721 -0.49494,0.73524 -0.96786,0.82959 -0.23948,0.0351 -0.50047,0.0814 -0.78351,0.13819 -0.28305,0.0568 -0.54402,0.0861 -0.7835,0.0922 -0.14394,0.006 -0.21239,0.0524 -0.27653,0.13819 -0.0642,0.0858 -0.0935,0.1834 -0.0922,0.27653 0.0103,0.28062 0.2513,0.42447 0.78351,0.4148 0.41728,-0.001 0.90258,-0.0232 1.42874,-0.046 0.52615,-0.023 1.01653,-0.0619 1.52092,-0.0922 0.56726,-0.0279 1.05995,-0.0401 1.47483,-0.046 0.41484,-0.006 0.66362,-10e-4 0.73742,0 0.37254,-0.003 0.92122,-0.0118 1.61309,0 0.69185,0.0118 1.5578,0.0366 2.62705,0.0922 1.04502,0.0326 2.29876,0.0984 3.77926,0.13819 1.48046,0.04 3.19988,0.0425 5.11582,0.046 0.96035,0.0265 1.63355,-0.006 2.02789,-0.13819 0.39427,-0.13303 0.68201,-0.4941 0.8296,-1.10612 0.15599,-0.6338 0.31208,-1.54583 0.46088,-2.67313 0.14874,-1.12729 0.21956,-1.83462 0.23044,-2.12007 0.003,-0.18386 -0.0451,-0.35215 -0.0922,-0.50698 -0.0472,-0.15481 -0.1351,-0.22075 -0.27654,-0.23044 -0.14158,-0.004 -0.24643,0.027 -0.32261,0.13819 -0.0763,0.11135 -0.12994,0.3137 -0.18436,0.59915 -0.1404,0.97007 -0.41098,1.73824 -0.7835,2.25834 -0.37259,0.52011 -0.85812,0.92494 -1.52092,1.1983 -0.71366,0.25038 -1.59157,0.36037 -2.58096,0.4148 -0.98943,0.0544 -1.82125,0.10309 -2.53487,0.0922 -2.45659,0.0423 -4.1223,-0.20641 -4.93147,-0.73741 -0.80919,-0.53099 -1.2092,-1.61387 -1.1983,-3.2262 -0.0254,-0.67733 -0.0103,-1.9629 0,-3.91752 0.0103,-1.95461 -0.003,-3.44488 0,-4.47058 l 0,-4.14797 c -0.003,-0.0907 0.045,-0.16148 0.0922,-0.23044 0.0472,-0.0689 0.13495,-0.0885 0.27653,-0.0922 0.61564,-0.001 1.85944,0.0103 3.68708,0.046 1.8276,0.0351 3.17884,0.0985 4.05579,0.18435 0.96156,0.12094 1.62255,0.28699 1.9818,0.55306 0.3592,0.26612 0.53745,0.56861 0.59915,0.92177 0.11121,0.31812 0.20622,0.60839 0.23045,0.87568 0.0242,0.26733 0.004,0.55251 0,0.78351 -3e-5,0.29998 0.13642,0.45122 0.3687,0.46088 0.17172,-0.0133 0.29854,-0.12786 0.36871,-0.32262 0.0702,-0.19472 0.0945,-0.38263 0.0922,-0.59915 0.003,-0.22374 1.3e-4,-0.70166 0.046,-1.38265 0.046,-0.68096 0.12389,-1.30043 0.18436,-1.84354 0.0677,-0.80675 0.13362,-1.40687 0.23044,-1.84354 0.0968,-0.43663 0.17464,-0.73656 0.18435,-0.87568 -0.0103,-0.28059 -0.13878,-0.42446 -0.32261,-0.4148 -0.0858,0.004 -0.15439,0.0634 -0.27654,0.18435 -0.12211,0.12094 -0.28794,0.2819 -0.46088,0.46089 -0.25646,0.2504 -0.56631,0.42354 -0.96786,0.50697 -0.40161,0.0835 -0.91618,0.13716 -1.52092,0.18436 -0.45911,0.038 -1.31552,0.0757 -2.58095,0.0922 -1.26547,0.0165 -2.5258,0.0425 -3.73317,0.046 -1.20742,0.003 -1.92736,7.2e-4 -2.21225,0 -0.13908,10e-6 -0.2463,-0.0512 -0.27653,-0.13819 -0.0302,-0.087 -0.0522,-0.24061 -0.046,-0.4148 l 0,-13.41175 c -0.003,-0.17413 0.051,-0.28159 0.0922,-0.36871 0.0412,-0.087 0.11681,-0.13819 0.23044,-0.13819 0.25767,3e-5 0.92205,-0.0133 1.98181,0 1.05972,0.0133 2.13418,0.0664 3.22619,0.0922 1.09198,0.0258 1.8117,0.0535 2.16616,0.0922 1.34983,0.16454 2.24021,0.33054 2.71922,0.55307 0.47896,0.22259 0.79112,0.57115 0.92177,0.96785 0.11371,0.30484 0.18928,0.58797 0.23045,0.92177 0.0411,0.33388 0.0485,0.59485 0.046,0.78351 -0.0103,0.41611 0.13421,0.63559 0.4148,0.64524 0.11725,-0.007 0.24156,-0.0755 0.32262,-0.18436 0.081,-0.10884 0.10795,-0.19922 0.13819,-0.32262 0.0593,-0.3604 0.13229,-0.90681 0.18435,-1.65918 0.0521,-0.7523 0.10796,-1.31069 0.13819,-1.6131 0.0677,-0.68457 0.13362,-1.17012 0.23045,-1.52092 0.0967,-0.35073 0.1286,-0.62139 0.13819,-0.7835 0.001,-0.12094 -0.0103,-0.23065 -0.046,-0.32262 -0.0351,-0.0919 -0.0985,-0.13333 -0.18435,-0.1382 z m 120.79795,0.4148 c -0.28789,-0.001 -0.51703,0.028 -0.64524,0.0922 -0.12816,0.0642 -0.18677,0.17872 -0.18435,0.32262 0.006,0.0932 0.0524,0.14454 0.13819,0.23044 0.0858,0.0858 0.18341,0.1323 0.27653,0.1382 0.25037,10e-4 0.53095,0.0231 0.87568,0.046 0.34473,0.023 0.65434,0.0619 0.87568,0.0922 0.81644,0.11017 1.34095,0.39298 1.6131,0.82959 0.27214,0.43668 0.42822,1.05387 0.46088,1.88963 0.0556,0.64956 0.0801,1.67387 0.0922,3.04184 0.0118,1.36802 0.003,3.90705 0,7.6046 l 0,8.71073 c 0.006,2.40095 0.0302,4.51809 0,6.36021 -0.0302,1.84214 -0.13745,3.24966 -0.27653,4.28623 -0.0956,0.72936 -0.20783,1.35114 -0.36871,1.79745 -0.16087,0.44633 -0.49494,0.70985 -0.96786,0.82959 -0.23948,0.0605 -0.50047,0.13834 -0.7835,0.18436 -0.28305,0.046 -0.54402,0.0437 -0.7835,0.046 -0.14395,0.006 -0.25848,0.0524 -0.32262,0.13819 -0.0642,0.0858 -0.0935,0.1834 -0.0922,0.27654 0.0103,0.28061 0.29737,0.42447 0.82959,0.41479 0.89264,-0.007 1.9195,-0.0414 3.08793,-0.0922 1.16839,-0.0507 1.84391,-0.0849 1.98181,-0.0922 0.18869,0.007 0.90338,0.0414 2.16616,0.0922 1.26275,0.0507 2.63589,0.0849 4.10187,0.0922 0.28782,-0.003 0.47093,-0.0633 0.59915,-0.13819 0.12817,-0.0751 0.18673,-0.158 0.18436,-0.27653 0.004,-0.0932 0.007,-0.19065 -0.046,-0.27653 -0.0532,-0.0858 -0.19937,-0.13229 -0.36871,-0.13819 -0.25404,-0.003 -0.57127,-1.2e-4 -1.01394,-0.046 -0.44272,-0.046 -0.87428,-0.12388 -1.24439,-0.18435 -0.75961,-0.11976 -1.25483,-0.38327 -1.52092,-0.8296 -0.26614,-0.44631 -0.44409,-1.06808 -0.50698,-1.79745 -0.11135,-1.03415 -0.16016,-2.46102 -0.18435,-4.28623 -0.0242,-1.82519 -0.0509,-3.91559 -0.046,-6.31412 l 0,-1.15221 c -10e-6,-0.2806 0.13643,-0.42446 0.36871,-0.4148 l 6.49848,0.0922 c 0.16688,-0.003 0.27435,0.051 0.36871,0.0922 0.0944,0.0412 0.21378,0.11681 0.32262,0.23045 0.57815,0.71727 1.3514,1.7393 2.35051,3.08793 0.99907,1.34866 2.0794,2.71696 3.18011,4.10187 1.4224,1.85544 2.65906,3.36048 3.73317,4.56276 1.07404,1.20229 2.15208,2.09497 3.22619,2.67314 0.60474,0.34593 1.31205,0.62625 2.12007,0.7835 0.80794,0.15725 1.90075,0.23286 3.31837,0.23044 l 3.18011,0 c 0.45717,10e-4 0.78638,-0.028 0.96786,-0.0922 0.18139,-0.0642 0.28374,-0.17869 0.27653,-0.32262 -10e-4,-0.0932 -0.0572,-0.19066 -0.13819,-0.27653 -0.0811,-0.0858 -0.17631,-0.1323 -0.32262,-0.1382 -0.14041,0.003 -0.35983,0.0181 -0.64524,0 -0.28547,-0.0181 -0.6636,-0.10087 -1.15221,-0.18435 -0.62538,-0.0447 -1.3961,-0.29351 -2.30443,-0.73742 -0.90841,-0.44389 -2.05953,-1.32207 -3.41055,-2.67313 -1.4793,-1.55183 -3.10859,-3.40798 -4.88538,-5.57671 -1.77685,-2.16869 -3.67221,-4.56386 -5.76106,-7.1898 2.34407,-2.01871 3.94917,-3.96984 4.88538,-5.80715 0.93615,-1.83727 1.41891,-3.66899 1.38265,-5.48453 -0.0677,-1.72116 -0.49704,-3.13834 -1.29047,-4.28623 -0.79349,-1.14782 -1.552,-1.96973 -2.25834,-2.44269 -1.36198,-0.90229 -2.89604,-1.47314 -4.56276,-1.75137 -1.66677,-0.27815 -3.32535,-0.39528 -4.97756,-0.3687 -0.91925,0.004 -2.12411,0.0118 -3.5949,0.046 -1.47082,0.0339 -2.36859,0.0413 -2.76531,0.046 -0.23348,-0.004 -0.98712,-0.0118 -2.25834,-0.046 -1.27124,-0.0338 -2.52979,-0.0411 -3.77925,-0.046 z m 92.91441,0 c -0.28789,-0.001 -0.47095,0.028 -0.59915,0.0922 -0.12817,0.0642 -0.18678,0.17872 -0.18436,0.32262 0.006,0.0932 0.0524,0.14454 0.13819,0.23044 0.0858,0.0858 0.18341,0.1323 0.27653,0.1382 0.25037,10e-4 0.53096,0.0231 0.87569,0.046 0.34472,0.023 0.60823,0.0619 0.82959,0.0922 0.81644,0.11017 1.38703,0.39298 1.65918,0.82959 0.27214,0.43668 0.42822,1.05387 0.46089,1.88963 0.0556,0.64956 0.0801,1.67387 0.0922,3.04184 0.0118,1.36802 0.003,3.90705 0,7.6046 l 0,8.71073 c 0.006,2.40095 -0.0159,4.51809 -0.046,6.36021 -0.0302,1.84214 -0.0914,3.24966 -0.23044,4.28623 -0.0956,0.72936 -0.20783,1.35114 -0.36871,1.79745 -0.16087,0.44633 -0.49494,0.70985 -0.96786,0.82959 -0.23948,0.0605 -0.50047,0.13834 -0.7835,0.18436 -0.28305,0.046 -0.54402,0.0437 -0.78351,0.046 -0.14394,0.006 -0.25848,0.0524 -0.32262,0.13819 -0.0641,0.0858 -0.0935,0.1834 -0.0922,0.27654 0.0103,0.28061 0.29738,0.42447 0.82959,0.41479 0.41366,-0.001 0.86738,-0.0231 1.38265,-0.046 0.51527,-0.023 1.03722,-0.062 1.56701,-0.0922 0.50438,-0.0279 0.95555,-0.0401 1.33657,-0.046 0.38102,-0.006 0.6104,-10e-4 0.73742,0 0.74749,0.001 1.58161,0.0232 2.48877,0.046 0.90714,0.023 1.93401,0.0158 3.08793,0.046 1.18292,0.0581 2.50489,0.10929 3.96361,0.1382 1.45869,0.0291 3.10988,0.046 4.93147,0.046 1.3075,0.017 2.16351,-0.0587 2.53487,-0.23044 0.37129,-0.17176 0.62006,-0.54247 0.73742,-1.10613 0.2092,-0.80797 0.363,-1.74216 0.50697,-2.81139 0.14394,-1.06924 0.22435,-1.77656 0.23044,-2.12007 -3e-5,-0.51285 -0.13642,-0.7471 -0.36871,-0.73742 -0.14512,0.004 -0.23554,0.0634 -0.32261,0.18435 -0.0872,0.12094 -0.15533,0.28189 -0.18436,0.46089 -0.0872,0.50075 -0.21162,0.98859 -0.4148,1.47483 -0.20324,0.48624 -0.46421,0.90584 -0.7835,1.29048 -0.62294,0.6979 -1.46929,1.12235 -2.53487,1.29048 -1.06564,0.16813 -2.29237,0.25825 -3.64099,0.23044 -1.98487,0.003 -3.53116,-0.0903 -4.60885,-0.27653 -1.07772,-0.18627 -1.77791,-0.4717 -2.16616,-0.87568 -0.44997,-0.38948 -0.74507,-1.46981 -0.87568,-3.18011 -0.13067,-1.71029 -0.19886,-4.34454 -0.18435,-7.92722 l 0,-8.8029 c -10e-4,-3.69755 -0.006,-6.23658 0,-7.60461 0.006,-1.36796 0.0183,-2.39228 0.046,-3.04184 0.0363,-0.85996 0.20689,-1.50387 0.46089,-1.93571 0.25399,-0.43177 0.74182,-0.6953 1.47483,-0.8296 0.30237,-0.0302 0.60486,-0.0692 0.92177,-0.0922 0.31688,-0.023 0.55113,-0.0448 0.73742,-0.046 0.0931,-0.003 0.19063,-0.0231 0.27653,-0.0922 0.0858,-0.0689 0.13214,-0.13967 0.13819,-0.23045 -0.0103,-0.28057 -0.25133,-0.42444 -0.78351,-0.41479 -0.90594,0.004 -2.01329,0.0118 -3.31837,0.046 -1.30511,0.0339 -2.11224,0.0413 -2.35051,0.046 -0.22376,-0.004 -0.91658,-0.0118 -2.12007,-0.046 -1.20351,-0.0338 -2.44729,-0.0412 -3.68708,-0.046 z m -80.9314,1.75136 c 2.75532,0.0193 4.90173,0.86089 6.45239,2.53487 1.55061,1.67403 2.36996,4.0473 2.3966,7.14371 -0.0193,1.89296 -0.30479,3.47106 -0.87568,4.74712 -0.57094,1.27608 -1.32204,2.22478 -2.21225,2.8114 -0.61689,0.3919 -1.27533,0.63582 -1.93572,0.73741 -0.66043,0.10162 -1.27278,0.15279 -1.88962,0.13819 -1.17812,-0.006 -2.28799,-0.0864 -3.36446,-0.23044 -1.07651,-0.14394 -1.83502,-0.3438 -2.25834,-0.55306 -0.11607,-0.0847 -0.21848,-0.17734 -0.27653,-0.27653 -0.0581,-0.0991 -0.0922,-0.22596 -0.0922,-0.36871 l 0,-15.85444 c 0.003,-0.14395 0.0633,-0.22946 0.13819,-0.32262 0.0749,-0.0931 0.15799,-0.17356 0.27653,-0.23044 0.28665,-0.0628 0.78901,-0.12138 1.47484,-0.18436 0.68579,-0.0628 1.38598,-0.0873 2.16615,-0.0922 z m 47.70159,5.34626 c 0.14512,0 0.31573,0.1757 0.46089,0.55307 l 5.02364,13.55001 c 0.0326,0.11607 0.0642,0.1724 0.046,0.23045 -0.0181,0.0581 -0.11799,0.0922 -0.23045,0.0922 l -10.32382,0 c -0.17418,2e-5 -0.24245,-0.0904 -0.18435,-0.32262 l 4.7932,-13.55001 c 0.14512,-0.37737 0.26964,-0.55307 0.4148,-0.55307 z m 38.25345,61.62032 c -0.16329,-0.0217 -0.33644,0.11474 -0.50697,0.36871 -0.17055,0.25404 -0.429,0.776 -0.73742,1.56701 l -11.98301,30.87929 c -0.46567,1.26277 -1.0266,2.28963 -1.65918,3.08793 -0.6326,0.7983 -1.5398,1.26908 -2.67313,1.42874 -0.21893,0.0302 -0.48475,0.0692 -0.78351,0.0922 -0.29874,0.023 -0.50143,0.0448 -0.69133,0.046 -0.12093,0.003 -0.23068,0.0171 -0.32262,0.0922 -0.0919,0.0749 -0.17951,0.2041 -0.18435,0.32262 0.0103,0.2806 0.36564,0.37838 1.01395,0.36871 1.09705,-0.007 2.16287,-0.0413 3.1801,-0.0922 1.01722,-0.0507 1.66852,-0.0388 1.98181,-0.046 0.36891,0.007 1.07368,-0.004 2.07398,0.046 1.00029,0.0507 1.84662,0.0849 2.53487,0.0922 0.23464,10e-4 0.37391,-0.028 0.50697,-0.0922 0.13303,-0.0642 0.22802,-0.13259 0.23044,-0.27653 0.003,-0.11858 -0.0159,-0.24764 -0.0922,-0.32262 -0.0762,-0.0749 -0.21523,-0.0898 -0.4148,-0.0922 l -0.50697,0 c -0.45359,0.006 -0.85359,-0.11828 -1.1983,-0.32262 -0.34473,-0.20441 -0.48884,-0.5265 -0.50698,-1.01394 0.003,-0.44269 0.0513,-0.9476 0.18436,-1.52092 0.13303,-0.57333 0.31838,-1.18058 0.55306,-1.79745 l 2.90357,-7.88114 c 0.11607,-0.2806 0.27472,-0.42445 0.50698,-0.41479 l 11.79865,0 c 0.13908,-0.003 0.26336,0.004 0.32262,0.046 0.0593,0.0412 0.0863,0.11681 0.13819,0.23044 l 4.60885,11.33777 c 0.15116,0.40399 0.14631,0.70648 0,0.92177 -0.1463,0.2153 -0.29278,0.35917 -0.46088,0.4148 -0.11607,0.0507 -0.21853,0.10191 -0.27653,0.13819 -0.0581,0.0363 -0.0922,0.0755 -0.0922,0.18436 0.0133,0.13789 0.21314,0.24025 0.55306,0.27653 0.33986,0.0363 0.73756,0.0703 1.24439,0.0922 1.83847,0.0556 3.52149,0.0801 5.06974,0.0922 1.54817,0.0118 2.5506,0.003 2.99575,0 0.30237,0.001 0.59974,-0.028 0.82959,-0.0922 0.22976,-0.0642 0.31048,-0.13258 0.32262,-0.27653 -0.009,-0.14394 -0.0525,-0.25848 -0.18435,-0.32262 -0.13185,-0.0642 -0.26121,-0.0934 -0.4148,-0.0922 -0.26613,0.003 -0.61471,-0.051 -0.96786,-0.0922 -0.35324,-0.0412 -0.72395,-0.11681 -1.10612,-0.23044 -0.54796,-0.10162 -1.17482,-0.47003 -1.88963,-1.15222 -0.71485,-0.68209 -1.51743,-2.1065 -2.44269,-4.24014 -0.81586,-1.95354 -1.83306,-4.43487 -3.08793,-7.51242 -1.25494,-3.07752 -2.56212,-6.267 -3.87143,-9.49423 -1.30936,-3.22718 -2.43144,-6.03156 -3.41055,-8.4342 -0.97916,-2.40257 -1.62537,-3.91292 -1.88963,-4.51667 -0.24678,-0.55756 -0.4395,-0.97233 -0.59915,-1.29048 -0.15967,-0.31807 -0.35241,-0.50088 -0.59915,-0.50697 z M 560.773,504.07252 c -4.69162,0.0907 -8.53143,1.16373 -11.52213,3.2262 -2.99072,2.06252 -5.21362,4.56618 -6.63674,7.51242 -1.42314,2.9463 -2.13119,5.8305 -2.12007,8.57246 -0.0118,3.03589 0.68237,5.99348 2.07398,8.94117 1.39159,2.94772 3.55219,5.41345 6.49848,7.37416 2.94626,1.96072 6.73238,2.96693 11.38386,3.04184 6.2388,-0.14999 11.21679,-2.13777 14.88658,-5.94541 3.66972,-3.80764 5.53808,-8.52974 5.6228,-14.19526 -0.12345,-5.80094 -2.06971,-10.30357 -5.80715,-13.55002 -3.73752,-3.24638 -8.50851,-4.9243 -14.37961,-4.97756 z m 166.79426,0 c -0.20683,-0.0193 -0.37998,0.14899 -0.50697,0.50698 -0.12699,0.35806 -0.18073,1.01421 -0.18436,1.9818 l 0,28.29834 c 0.0193,2.19049 -0.0928,3.71742 -0.27653,4.60885 -0.18385,0.89143 -0.57902,1.3915 -1.1983,1.52092 -0.39189,0.11371 -0.76032,0.18932 -1.15221,0.23044 -0.39189,0.0412 -0.70406,0.0945 -0.92177,0.0922 -0.11858,0.003 -0.20155,0.0171 -0.27653,0.0922 -0.0751,0.0749 -0.13583,0.20411 -0.13819,0.32262 10e-4,0.16934 0.0913,0.26937 0.23044,0.32262 0.13907,0.0533 0.33669,0.0509 0.59915,0.046 1.19261,-0.007 2.21717,-0.0413 3.13402,-0.0922 0.91683,-0.0507 1.53376,-0.0388 1.79745,-0.046 0.24674,0.007 0.85398,-0.004 1.79745,0.046 0.94343,0.0507 2.12892,0.0849 3.5949,0.0922 0.2927,10e-4 0.52924,-0.028 0.69133,-0.0922 0.16204,-0.0642 0.22802,-0.13259 0.23044,-0.27653 -0.003,-0.11858 -0.0172,-0.24764 -0.0922,-0.32262 -0.0751,-0.0749 -0.2041,-0.0898 -0.32262,-0.0922 -0.25162,0.003 -0.62232,-0.051 -1.10612,-0.0922 -0.48383,-0.0412 -0.94494,-0.11681 -1.42874,-0.23045 -0.68462,-0.13303 -1.18214,-0.56742 -1.47483,-1.38265 -0.29273,-0.81523 -0.46102,-2.24924 -0.50698,-4.24014 l -0.55306,-23.27469 c 0.86723,0.95678 2.52096,2.75667 4.97756,5.34626 2.45657,2.58966 5.2054,5.47268 8.24984,8.66464 2.88353,2.99121 5.71282,5.86685 8.48028,8.61855 2.76741,2.75173 4.34806,4.29341 4.7932,4.70103 1.374,1.26881 2.30819,2.09809 2.8114,2.48877 0.50313,0.39069 0.89321,0.59056 1.10613,0.55307 0.16929,0.0556 0.26933,-0.12979 0.32262,-0.55307 0.0532,-0.42333 0.0509,-1.42576 0.046,-2.99575 l 0.13819,-28.89741 c -0.0302,-1.45264 0.0673,-2.50139 0.27653,-3.13402 0.20921,-0.63255 0.70928,-1.00582 1.52092,-1.15221 0.29024,-0.0556 0.53417,-0.1261 0.73742,-0.13819 0.20316,-0.0118 0.34474,-0.003 0.46089,0 0.17655,-0.009 0.3568,-0.0816 0.46088,-0.18436 0.10398,-0.10279 0.13583,-0.18094 0.13819,-0.27653 -0.006,-0.14143 -0.10368,-0.22932 -0.27653,-0.27653 -0.17301,-0.0472 -0.37797,-0.0957 -0.64524,-0.0922 -1.05955,0.004 -1.99609,0.0584 -2.76531,0.0922 -0.7693,0.0339 -1.30832,0.0413 -1.6131,0.046 -0.33146,-0.004 -0.96824,-0.0118 -1.9818,-0.046 -1.01364,-0.0338 -2.11612,-0.0873 -3.31837,-0.0922 -0.29523,-0.003 -0.55843,0.045 -0.73742,0.0922 -0.17906,0.0472 -0.27174,0.1351 -0.27653,0.27653 -0.004,0.0956 0.0389,0.17375 0.0922,0.27653 0.0532,0.1028 0.15323,0.17592 0.32262,0.18436 0.22371,-10e-4 0.58223,0.0103 1.06003,0.046 0.47773,0.0351 0.94367,0.0985 1.42875,0.18436 0.76197,0.11857 1.26688,0.51373 1.52092,1.1983 0.25395,0.68463 0.40749,1.84059 0.41479,3.41055 l 0.50698,24.70343 c -0.87334,-0.91443 -2.46595,-2.55363 -4.74712,-4.97756 -2.28122,-2.42391 -4.71306,-5.02863 -7.32807,-7.74286 -4.07618,-4.20677 -7.66398,-7.91907 -10.73862,-11.15342 -3.07467,-3.23429 -4.85776,-5.11972 -5.39235,-5.66889 -0.27459,-0.29147 -0.59896,-0.62552 -0.96786,-0.96785 -0.36892,-0.34227 -0.71037,-0.52279 -1.01395,-0.55307 z m -304.13798,0.32262 c -0.11622,0.006 -0.20653,0.0354 -0.32262,0.0922 -0.11621,0.0569 -0.25261,0.10324 -0.36871,0.13819 -0.2129,0.0339 -0.5057,0.0754 -0.92177,0.13819 -0.41611,0.063 -0.87951,0.10442 -1.38265,0.1382 -0.50964,0.0183 -1.70482,10e-4 -3.5949,0 -1.89015,-0.001 -3.73084,0.007 -5.53062,0 -1.79981,-0.007 -2.84926,10e-4 -3.08793,0 -0.22862,-0.004 -0.92881,-0.0118 -2.16616,-0.046 -1.23737,-0.0338 -2.48856,-0.0873 -3.73317,-0.0922 -0.28787,-10e-4 -0.51703,0.0282 -0.64524,0.0922 -0.12816,0.0642 -0.18679,0.17872 -0.18435,0.32262 0.006,0.0932 0.0524,0.19068 0.13819,0.27653 0.0858,0.0858 0.18339,0.13229 0.27653,0.13819 0.25037,0.001 0.57704,0.0232 0.92177,0.046 0.34471,0.023 0.60824,0.0619 0.82959,0.0922 0.81644,0.11017 1.34095,0.3469 1.6131,0.78351 0.27214,0.43668 0.42822,1.09996 0.46089,1.93572 0.0556,0.64956 0.0801,1.62778 0.0922,2.99575 0.0118,1.36802 0.0485,3.90705 0.046,7.6046 l 0,8.71073 c 0.006,2.40095 -0.0158,4.51808 -0.046,6.36021 -0.0302,1.84214 -0.0913,3.29575 -0.23044,4.33232 -0.0956,0.73299 -0.25394,1.34024 -0.4148,1.79745 -0.16087,0.45721 -0.44885,0.73525 -0.92177,0.82959 -0.23949,0.0351 -0.50048,0.0814 -0.7835,0.13819 -0.28304,0.0568 -0.54402,0.0861 -0.78351,0.0922 -0.14394,0.006 -0.25852,0.0524 -0.32261,0.13819 -0.0642,0.0858 -0.0934,0.18341 -0.0922,0.27653 0.0103,0.2806 0.25129,0.37838 0.7835,0.36871 0.41729,-10e-4 0.90259,0.023 1.42875,0 0.52614,-0.023 1.06261,-0.0619 1.567,-0.0922 0.56727,-0.0279 1.05995,-0.0401 1.47484,-0.046 0.41485,-0.006 0.61752,-10e-4 0.69132,0 0.37253,-0.003 0.92123,-0.0118 1.6131,0 0.69185,0.0118 1.55779,0.0366 2.62705,0.0922 1.04503,0.0326 2.34485,0.0522 3.82534,0.0922 1.48047,0.04 3.1538,0.0885 5.06974,0.0922 0.96035,0.0266 1.63355,-0.0513 2.02789,-0.18435 0.39428,-0.13303 0.68201,-0.4941 0.82959,-1.10613 0.15601,-0.63379 0.31208,-1.49974 0.46089,-2.62704 0.14875,-1.12729 0.21953,-1.83462 0.23044,-2.12007 0.003,-0.18386 0.001,-0.35215 -0.046,-0.50698 -0.0472,-0.15482 -0.18112,-0.22076 -0.32261,-0.23044 -0.14159,-0.004 -0.24645,0.027 -0.32262,0.13819 -0.0762,0.11135 -0.12994,0.31371 -0.18436,0.59915 -0.1404,0.97007 -0.41099,1.69215 -0.7835,2.21225 -0.37257,0.52011 -0.85812,0.92494 -1.52092,1.1983 -0.71366,0.25037 -1.59157,0.40645 -2.58096,0.46089 -0.98943,0.0544 -1.82125,0.10309 -2.53487,0.0922 -2.45659,0.0423 -4.07621,-0.20641 -4.88538,-0.73741 -0.80919,-0.53099 -1.2092,-1.61387 -1.1983,-3.2262 -0.0254,-0.67733 -0.0571,-2.00898 -0.046,-3.96361 0.0103,-1.95461 0.0425,-3.44488 0.046,-4.47058 l 0,-4.10188 c -0.003,-0.0907 -0.001,-0.16148 0.046,-0.23044 0.0472,-0.0689 0.13494,-0.13465 0.27653,-0.13819 0.61564,-10e-4 1.85944,0.0103 3.68708,0.046 1.82759,0.0351 3.17885,0.0985 4.05579,0.18436 0.96156,0.12093 1.62255,0.33306 1.9818,0.59915 0.35921,0.26613 0.53744,0.56859 0.59915,0.92177 0.1112,0.31812 0.20623,0.60838 0.23044,0.87568 0.0242,0.26734 0.004,0.50641 0,0.73741 -3e-5,0.29998 0.13643,0.45123 0.36871,0.46089 0.17173,-0.0133 0.29854,-0.0817 0.36871,-0.27653 0.0702,-0.19474 0.0945,-0.42874 0.0922,-0.64524 0.003,-0.22376 0.0462,-0.65558 0.0922,-1.33657 0.046,-0.68096 0.0777,-1.30043 0.1382,-1.84354 0.0677,-0.80674 0.13362,-1.45296 0.23044,-1.88963 0.0968,-0.43662 0.17465,-0.69047 0.18435,-0.82959 -0.0103,-0.2806 -0.0928,-0.42445 -0.27653,-0.41479 -0.0858,0.004 -0.20047,0.0634 -0.32262,0.18435 -0.12226,0.12094 -0.28794,0.2819 -0.46088,0.46088 -0.25645,0.25042 -0.56632,0.42355 -0.96786,0.50698 -0.4016,0.0835 -0.91617,0.13716 -1.52092,0.18435 -0.45912,0.0379 -1.31552,0.0758 -2.58096,0.0922 -1.26546,0.0165 -2.52579,-0.003 -3.73317,0 -1.20741,0.003 -1.92735,8.1e-4 -2.21224,0 -0.13908,10e-6 -0.24632,-0.004 -0.27653,-0.0922 -0.0302,-0.087 -0.006,-0.24062 0,-0.41479 l 0,-13.41176 c -0.003,-0.17413 0.004,-0.28159 0.046,-0.3687 0.0411,-0.087 0.11681,-0.1382 0.23044,-0.1382 0.25767,3e-5 0.92205,-0.0133 1.98181,0 1.05972,0.0133 2.13418,0.0204 3.22619,0.046 1.09198,0.0258 1.8117,0.0995 2.16616,0.13819 1.34983,0.16453 2.24023,0.33054 2.71922,0.55306 0.47895,0.2226 0.79112,0.52507 0.92177,0.92177 0.11371,0.30483 0.1893,0.63406 0.23045,0.96786 0.0411,0.33387 0.0945,0.59484 0.0922,0.7835 -0.0103,0.41611 0.0881,0.6356 0.36871,0.64524 0.11725,-0.007 0.24156,-0.0755 0.32262,-0.18435 0.081,-0.10884 0.10796,-0.19922 0.13819,-0.32262 0.0593,-0.3604 0.13229,-0.9529 0.18436,-1.70527 0.0521,-0.7523 0.10795,-1.2646 0.13819,-1.56701 0.0677,-0.68458 0.13362,-1.21621 0.23044,-1.56701 0.0967,-0.35073 0.17465,-0.5753 0.18435,-0.73742 0.001,-0.12093 -0.0571,-0.23065 -0.0922,-0.32262 -0.0351,-0.0919 -0.0985,-0.13332 -0.18436,-0.13819 z m 236.43398,0 c -0.11607,0.006 -0.20652,0.0354 -0.32262,0.0922 -0.11607,0.0569 -0.25261,0.10324 -0.36871,0.13819 -0.21292,0.0339 -0.50572,0.0754 -0.92177,0.13819 -0.41611,0.063 -0.87951,0.10442 -1.38265,0.1382 -0.50964,0.0183 -1.75089,10e-4 -3.64099,0 -1.89013,-0.001 -3.73084,0.007 -5.53062,0 -1.79981,-0.007 -2.80317,10e-4 -3.04184,0 -0.2286,-0.004 -0.9749,-0.0118 -2.21225,-0.046 -1.23737,-0.0338 -2.44247,-0.0873 -3.68708,-0.0922 -0.28789,-10e-4 -0.51703,0.0282 -0.64524,0.0922 -0.12816,0.0642 -0.18677,0.17872 -0.18435,0.32262 0.006,0.0932 0.0523,0.19068 0.13819,0.27653 0.0858,0.0858 0.18341,0.13229 0.27653,0.13819 0.25037,0.001 0.53095,0.0232 0.87568,0.046 0.34473,0.023 0.65433,0.0619 0.87568,0.0922 0.81644,0.11017 1.34095,0.3469 1.6131,0.78351 0.27214,0.43668 0.42822,1.09996 0.46088,1.93572 0.0556,0.64956 0.0801,1.62778 0.0922,2.99575 0.0118,1.36802 0.003,3.90705 0,7.6046 l 0,8.71073 c 0.006,2.40095 0.0302,4.51808 0,6.36021 -0.0302,1.84214 -0.13745,3.29575 -0.27653,4.33232 -0.0956,0.73299 -0.20783,1.34024 -0.36871,1.79745 -0.16087,0.45721 -0.49494,0.73525 -0.96786,0.82959 -0.23948,0.0351 -0.50046,0.0814 -0.7835,0.13819 -0.28305,0.0568 -0.54402,0.0861 -0.7835,0.0922 -0.14395,0.006 -0.25848,0.0524 -0.32262,0.13819 -0.0642,0.0858 -0.0935,0.18341 -0.0922,0.27653 0.0103,0.2806 0.29737,0.37838 0.82959,0.36871 0.41729,-10e-4 0.90258,0.023 1.42875,0 0.52614,-0.023 1.01652,-0.0619 1.52092,-0.0922 0.56726,-0.0279 1.05994,-0.0401 1.47483,-0.046 0.41485,-0.006 0.66361,-10e-4 0.73741,0 0.37255,-0.003 0.92123,-0.0118 1.6131,0 0.69184,0.0118 1.55779,0.0366 2.62705,0.0922 1.04502,0.0326 2.29876,0.0522 3.77925,0.0922 1.48047,0.04 3.19989,0.0885 5.11582,0.0922 0.96036,0.0266 1.63356,-0.0513 2.0279,-0.18435 0.39427,-0.13303 0.63592,-0.4941 0.7835,-1.10613 0.156,-0.63379 0.31209,-1.49974 0.46089,-2.62704 0.14873,-1.12729 0.26564,-1.83462 0.27653,-2.12007 0.003,-0.18386 -0.045,-0.35215 -0.0922,-0.50698 -0.0472,-0.15482 -0.13509,-0.22076 -0.27653,-0.23044 -0.14158,-0.004 -0.24643,0.027 -0.32262,0.13819 -0.0763,0.11135 -0.12993,0.31371 -0.18435,0.59915 -0.14041,0.97007 -0.41098,1.69215 -0.78351,2.21225 -0.37258,0.52011 -0.9042,0.92494 -1.56701,1.1983 -0.71365,0.25037 -1.54547,0.40645 -2.53486,0.46089 -0.98944,0.0544 -1.86735,0.10309 -2.58096,0.0922 -2.4566,0.0423 -4.07621,-0.20641 -4.88538,-0.73741 -0.8092,-0.53099 -1.2092,-1.61387 -1.1983,-3.2262 -0.0254,-0.67733 -0.0103,-2.00898 0,-3.96361 0.0103,-1.95461 -0.003,-3.44488 0,-4.47058 l 0,-4.10188 c -0.003,-0.0907 0.045,-0.16148 0.0922,-0.23044 0.0472,-0.0689 0.13494,-0.13465 0.27653,-0.13819 0.61564,-10e-4 1.81335,0.0103 3.64099,0.046 1.8276,0.0351 3.17884,0.0985 4.05579,0.18436 0.96156,0.12093 1.62255,0.33306 1.9818,0.59915 0.3592,0.26613 0.58353,0.56859 0.64524,0.92177 0.1112,0.31812 0.16012,0.60838 0.18435,0.87568 0.0242,0.26734 0.0509,0.50641 0.046,0.73741 -3e-5,0.29998 0.13642,0.45123 0.36871,0.46089 0.17171,-0.0133 0.25244,-0.0817 0.32262,-0.27653 0.0702,-0.19474 0.1407,-0.42874 0.13819,-0.64524 0.003,-0.22376 1.3e-4,-0.65558 0.046,-1.33657 0.046,-0.68096 0.12389,-1.30043 0.18436,-1.84354 0.0677,-0.80674 0.13362,-1.45296 0.23044,-1.88963 0.0968,-0.43662 0.17463,-0.69047 0.18435,-0.82959 -0.0103,-0.2806 -0.13878,-0.42445 -0.32262,-0.41479 -0.0858,0.004 -0.20047,0.0634 -0.32262,0.18435 -0.12211,0.12094 -0.24185,0.2819 -0.41479,0.46088 -0.25646,0.25042 -0.6124,0.42355 -1.01395,0.50698 -0.40161,0.0835 -0.87009,0.13716 -1.47483,0.18435 -0.45912,0.0379 -1.31552,0.0758 -2.58096,0.0922 -1.26546,0.0165 -2.52579,-0.003 -3.73316,0 -1.20742,0.003 -1.97345,8.1e-4 -2.25834,0 -0.13908,10e-6 -0.20021,-0.004 -0.23044,-0.0922 -0.0302,-0.087 -0.0521,-0.24062 -0.046,-0.41479 l 0,-13.41176 c -0.003,-0.17413 0.004,-0.28159 0.046,-0.3687 0.0411,-0.087 0.1168,-0.1382 0.23044,-0.1382 0.25767,3e-5 0.92205,-0.0133 1.9818,0 1.05973,0.0133 2.13419,0.0204 3.2262,0.046 1.09198,0.0258 1.8117,0.0995 2.16616,0.13819 1.34982,0.16453 2.2863,0.33054 2.76531,0.55306 0.47895,0.2226 0.79111,0.52507 0.92177,0.92177 0.11371,0.30483 0.18928,0.63406 0.23044,0.96786 0.0412,0.33387 0.0485,0.59484 0.046,0.7835 -0.0103,0.41611 0.13421,0.6356 0.41479,0.64524 0.11725,-0.007 0.19548,-0.0755 0.27653,-0.18435 0.081,-0.10884 0.15408,-0.19922 0.18436,-0.32262 0.0593,-0.3604 0.13229,-0.9529 0.18435,-1.70527 0.0521,-0.7523 0.0619,-1.2646 0.0922,-1.56701 0.0677,-0.68458 0.17975,-1.21621 0.27653,-1.56701 0.0968,-0.35073 0.1286,-0.5753 0.13819,-0.73742 0.001,-0.12093 -0.0103,-0.23065 -0.046,-0.32262 -0.0351,-0.0919 -0.0985,-0.13332 -0.18436,-0.13819 z m -219.47341,0.36871 c -0.28789,-10e-4 -0.47095,0.028 -0.59915,0.0922 -0.12817,0.0642 -0.18678,0.17872 -0.18436,0.32262 0.006,0.0932 0.0524,0.19068 0.13819,0.27653 0.0858,0.0858 0.18341,0.13229 0.27654,0.13819 0.25036,10e-4 0.53095,0.0232 0.87568,0.046 0.34472,0.023 0.60825,0.0619 0.82959,0.0922 0.81644,0.1174 1.38704,0.37122 1.65919,0.8296 0.27213,0.45845 0.42821,1.10466 0.46088,1.88962 0.0556,0.64956 0.0801,1.62779 0.0922,2.99576 0.0118,1.36802 0.003,3.90705 0,7.6046 l 0,7.28198 c 0.0302,3.54398 0.45467,6.30502 1.29048,8.29593 0.83578,1.99092 1.9016,3.54942 3.1801,4.65494 1.91228,1.61837 3.92934,2.61111 6.03759,2.99575 2.10822,0.38464 3.65451,0.5262 4.60885,0.46088 1.53368,0.0496 3.21669,-0.148 5.06974,-0.59915 1.85299,-0.45115 3.69461,-1.44874 5.57671,-2.99575 1.97636,-1.80705 3.29094,-4.0194 3.91752,-6.68283 0.62651,-2.6634 0.93128,-5.37557 0.87568,-8.11158 l 0,-5.30017 c -0.004,-3.69755 -0.0413,-6.23658 -0.046,-7.6046 -0.004,-1.36797 0.0389,-2.3462 0.0922,-2.99576 0.0386,-0.80673 0.17285,-1.45294 0.4148,-1.88962 0.24186,-0.43661 0.70526,-0.69046 1.38265,-0.8296 0.31084,-0.0556 0.54989,-0.1261 0.73742,-0.13819 0.18744,-0.0118 0.38732,-0.003 0.55306,0 0.11858,-0.006 0.20148,-0.0524 0.27653,-0.13819 0.0749,-0.0858 0.13583,-0.18337 0.13819,-0.27653 0.003,-0.14395 -0.0562,-0.25848 -0.18435,-0.32262 -0.12831,-0.064 -0.35743,-0.0934 -0.64524,-0.0922 -0.81765,0.004 -1.67626,0.0584 -2.58095,0.0922 -0.90477,0.0339 -1.46824,0.0413 -1.70528,0.046 -0.21534,-0.004 -0.89822,-0.0118 -2.02789,-0.046 -1.12975,-0.0338 -2.30047,-0.0873 -3.50273,-0.0922 -0.28793,-0.001 -0.47096,0.028 -0.59915,0.0922 -0.12831,0.0642 -0.2329,0.17872 -0.23044,0.32262 0.003,0.0932 0.0633,0.19068 0.13819,0.27653 0.0749,0.0858 0.15794,0.13229 0.27653,0.13819 0.25032,0.001 0.57701,0.0232 0.92177,0.046 0.3447,0.023 0.60822,0.0619 0.82959,0.0922 0.81762,0.1174 1.34697,0.37122 1.6131,0.8296 0.26609,0.45845 0.40992,1.10466 0.4148,1.88962 0.0302,0.64956 0.0692,1.62779 0.0922,2.99576 0.023,1.36802 0.0448,3.90705 0.046,7.6046 l 0,6.22194 c 0.0279,2.53039 -0.15275,4.81327 -0.55306,6.8211 -0.4004,2.00785 -1.18817,3.73466 -2.35052,5.16191 -0.89509,1.05957 -2.06811,1.86466 -3.45663,2.48878 -1.38859,0.62412 -2.87884,0.95335 -4.47059,0.96786 -1.43091,0.0302 -2.71162,-0.10648 -3.91752,-0.46088 -1.20594,-0.35441 -2.4594,-1.11036 -3.68708,-2.21225 -1.12246,-0.92046 -2.03221,-2.28876 -2.71922,-4.10188 -0.68703,-1.8131 -1.0407,-4.46926 -1.06003,-7.97331 l 0,-6.91327 c -0.003,-3.69755 0.0339,-6.23658 0.046,-7.6046 0.0118,-1.36797 0.0364,-2.3462 0.0922,-2.99576 0.04,-0.81036 0.17894,-1.44206 0.41479,-1.88962 0.23586,-0.4475 0.68702,-0.71586 1.33657,-0.8296 0.31084,-0.0556 0.54992,-0.1261 0.73742,-0.13819 0.18748,-0.0118 0.38736,-0.003 0.55306,0 0.12093,-0.006 0.18459,-0.0524 0.27653,-0.13819 0.0919,-0.0858 0.17947,-0.18337 0.18435,-0.27653 -10e-6,-0.28057 -0.29511,-0.42444 -0.87568,-0.4148 -0.84667,0.004 -1.85879,0.0584 -2.99575,0.0922 -1.13698,0.0339 -1.84201,0.0413 -2.16616,0.046 -0.3024,-0.004 -1.07057,-0.0118 -2.25834,-0.046 -1.18778,-0.0338 -2.40968,-0.0873 -3.64099,-0.0922 z m 53.83136,0 c -0.28789,-10e-4 -0.47094,0.028 -0.59915,0.0922 -0.12816,0.0642 -0.23286,0.17872 -0.23044,0.32262 0.006,0.0932 0.0523,0.19068 0.13819,0.27653 0.0858,0.0858 0.18341,0.13229 0.27653,0.13819 0.25037,10e-4 0.57704,0.0232 0.92177,0.046 0.34473,0.023 0.60823,0.0619 0.82959,0.0922 0.81644,0.11017 1.38704,0.3469 1.65919,0.78351 0.27213,0.43668 0.38213,1.09996 0.41479,1.93571 0.0556,0.64956 0.12625,1.62779 0.1382,2.99576 0.0118,1.36802 0.003,3.90705 0,7.6046 l 0,8.71072 c 0.006,2.40096 -0.0158,4.51809 -0.046,6.36022 -0.0302,1.84213 -0.0914,3.29574 -0.23044,4.33231 -0.0956,0.72937 -0.25392,1.30505 -0.4148,1.75137 -0.16087,0.44632 -0.44885,0.75594 -0.92177,0.87568 -0.23948,0.0605 -0.50048,0.0923 -0.7835,0.13819 -0.28305,0.046 -0.54402,0.0898 -0.78351,0.0922 -0.14394,0.006 -0.25848,0.0523 -0.32262,0.13819 -0.0641,0.0858 -0.0935,0.18341 -0.0922,0.27653 0.0103,0.2806 0.25128,0.37838 0.7835,0.36871 0.89264,-0.007 1.96558,-0.0413 3.13402,-0.0922 1.16841,-0.0507 1.79782,-0.0388 1.93572,-0.046 0.18869,0.007 0.90337,-0.004 2.16616,0.046 1.26275,0.0507 2.63589,0.085 4.10187,0.0922 0.28786,-0.003 0.51702,-0.0171 0.64524,-0.0922 0.12816,-0.0749 0.18673,-0.15798 0.18435,-0.27653 0.004,-0.0931 -0.0389,-0.19067 -0.0922,-0.27653 -0.0532,-0.0858 -0.15328,-0.13229 -0.32262,-0.13819 -0.25404,-0.003 -0.61737,-0.0462 -1.06004,-0.0922 -0.44271,-0.046 -0.82819,-0.0779 -1.1983,-0.13819 -0.75961,-0.11976 -1.30092,-0.42937 -1.56701,-0.87568 -0.26613,-0.44632 -0.398,-1.022 -0.46088,-1.75137 -0.11135,-1.03415 -0.20626,-2.46102 -0.23044,-4.28623 -0.0242,-1.82519 -0.004,-3.96167 0,-6.36021 l 0,-1.15221 c -2e-5,-0.2806 0.0904,-0.42446 0.32261,-0.4148 l 6.49848,0.13819 c 0.16688,-0.003 0.32044,0.004 0.4148,0.046 0.0944,0.0412 0.16766,0.11681 0.27653,0.23044 0.57815,0.71727 1.39749,1.78539 2.3966,3.13402 0.99907,1.34864 2.03331,2.71696 3.13402,4.10188 1.42239,1.85544 2.65906,3.36047 3.73317,4.56276 1.07404,1.20228 2.15209,2.09497 3.22619,2.67313 0.60474,0.34594 1.31206,0.58017 2.12007,0.73741 0.80795,0.15725 1.94684,0.23287 3.36446,0.23045 l 3.18011,0 c 0.45717,10e-4 0.78638,-0.028 0.96786,-0.0922 0.18139,-0.0642 0.23765,-0.13259 0.23044,-0.27653 -10e-4,-0.0931 -0.0118,-0.19067 -0.0922,-0.27653 -0.0811,-0.0858 -0.22239,-0.13229 -0.3687,-0.13819 -0.14041,0.003 -0.31375,-0.028 -0.59916,-0.046 -0.28546,-0.0181 -0.70968,-0.0547 -1.1983,-0.13819 -0.62537,-0.0447 -1.39609,-0.29349 -2.30442,-0.73742 -0.90841,-0.44389 -2.01344,-1.32206 -3.36446,-2.67313 -1.4793,-1.55183 -3.10859,-3.40798 -4.88538,-5.57671 -1.77685,-2.16869 -3.7183,-4.56386 -5.80715,-7.1898 2.34407,-2.01871 3.99526,-3.96984 4.93147,-5.80715 0.93615,-1.83727 1.37283,-3.66899 1.33656,-5.48453 -0.0677,-1.72107 -0.49704,-3.13834 -1.29047,-4.28623 -0.79349,-1.14782 -1.552,-1.96973 -2.25834,-2.44269 -1.36198,-0.90229 -2.84995,-1.47314 -4.51667,-1.75137 -1.66677,-0.27815 -3.32535,-0.44137 -4.97756,-0.41479 -0.91925,0.004 -2.12411,0.0584 -3.5949,0.0922 -1.47082,0.0339 -2.41469,0.0413 -2.8114,0.046 -0.23348,-0.004 -0.98712,-0.0118 -2.25834,-0.046 -1.27124,-0.0338 -2.52981,-0.0873 -3.77925,-0.0922 z m 102.59299,0 c -0.28789,-10e-4 -0.47094,0.028 -0.59915,0.0922 -0.12816,0.0642 -0.23286,0.17872 -0.23044,0.32262 0.006,0.0932 0.0524,0.19068 0.13819,0.27653 0.0858,0.0858 0.18341,0.13229 0.27653,0.13819 0.25037,10e-4 0.57704,0.0232 0.92177,0.046 0.3447,0.023 0.60825,0.0619 0.82959,0.0922 0.81644,0.11017 1.34095,0.3469 1.6131,0.78351 0.27214,0.43668 0.42822,1.09996 0.46088,1.93571 0.0556,0.64956 0.12625,1.62779 0.1382,2.99576 0.0118,1.36802 0.003,3.90705 0,7.6046 l 0,8.71072 c 0.006,2.40096 -0.0158,4.51809 -0.046,6.36022 -0.0302,1.84213 -0.0914,3.29574 -0.23044,4.33231 -0.0956,0.72937 -0.25392,1.30505 -0.4148,1.75137 -0.16087,0.44632 -0.44885,0.75594 -0.92177,0.87568 -0.23948,0.0605 -0.50047,0.0923 -0.7835,0.13819 -0.28305,0.046 -0.54402,0.0898 -0.78351,0.0922 -0.14394,0.006 -0.25848,0.0523 -0.32262,0.13819 -0.0642,0.0858 -0.0934,0.18341 -0.0922,0.27653 0.0103,0.2806 0.25128,0.37838 0.7835,0.36871 0.88539,-0.007 1.94126,-0.0413 3.08793,-0.0922 1.14664,-0.0507 1.7931,-0.0388 1.98181,-0.046 0.19352,0.007 0.96169,-0.004 2.25833,0.046 1.29663,0.0507 2.67715,0.085 4.14797,0.0922 0.28781,-0.003 0.47093,-0.0171 0.59915,-0.0922 0.12816,-0.0749 0.18673,-0.15798 0.18435,-0.27653 10e-4,-0.0931 -0.028,-0.19067 -0.0922,-0.27653 -0.0641,-0.0858 -0.17867,-0.13229 -0.32262,-0.13819 -0.25403,-0.003 -0.57127,-0.0462 -1.01394,-0.0922 -0.44272,-0.046 -0.87428,-0.0779 -1.24439,-0.13819 -0.75961,-0.11976 -1.25483,-0.42937 -1.52092,-0.87568 -0.26614,-0.44632 -0.44409,-1.022 -0.50698,-1.75137 -0.11134,-1.03657 -0.16016,-2.49018 -0.18435,-4.33231 -0.0242,-1.84213 -0.0509,-3.95926 -0.046,-6.36022 l 0,-20.09458 c -10e-4,-0.26364 0.028,-0.43704 0.0922,-0.59915 0.0642,-0.16204 0.17868,-0.29113 0.32262,-0.32262 0.2927,-0.0653 0.72198,-0.15058 1.29048,-0.23044 0.56847,-0.0798 1.10011,-0.0849 1.56701,-0.0922 0.62894,-0.0677 1.56083,-0.009 2.85749,0.18435 1.29661,0.19356 2.67205,0.89859 4.05578,2.16616 1.31476,1.37891 2.10763,2.76912 2.44269,4.14797 0.33503,1.37891 0.51046,2.50813 0.46089,3.36446 -0.0497,2.28727 -0.94714,4.14112 -2.67313,5.62279 -1.72604,1.48171 -4.01377,2.25244 -6.8211,2.30443 -0.51286,-0.003 -0.86652,0.0621 -1.06004,0.13819 -0.19352,0.0763 -0.28625,0.21527 -0.27653,0.4148 0.007,0.12093 0.0755,0.2307 0.18436,0.32262 0.10884,0.0919 0.24532,0.13347 0.3687,0.13819 0.1693,0.0279 0.37684,0.0401 0.69133,0.046 0.31447,0.006 0.56806,10e-4 0.73742,0 3.97816,-0.0484 7.16595,-1.11672 9.54032,-3.22619 2.3743,-2.10942 3.58168,-4.98251 3.64099,-8.57246 -0.0339,-1.34983 -0.30227,-2.51825 -0.8296,-3.54882 -0.52738,-1.03049 -1.09086,-1.81343 -1.70527,-2.35051 -0.37741,-0.44628 -1.31388,-1.03394 -2.76531,-1.70527 -1.45147,-0.67126 -3.78325,-1.03715 -7.00545,-1.10613 -1.24946,0.004 -2.62746,0.0584 -4.10188,0.0922 -1.47445,0.0339 -2.49417,0.0413 -3.13401,0.046 -0.27943,-0.004 -1.04276,-0.0118 -2.25834,-0.046 -1.2156,-0.0338 -2.44973,-0.0873 -3.68708,-0.0922 z m -36.36382,1.1983 c 4.16685,0.0118 7.7521,1.51716 10.69253,4.56276 2.94036,3.04566 4.47697,7.52384 4.60885,13.45784 -0.0857,4.70273 -0.95788,8.27346 -2.58096,10.69253 -1.62315,2.4191 -3.49008,4.05323 -5.62279,4.88539 -2.13277,0.83217 -4.00832,1.21027 -5.6228,1.15221 -4.7112,-0.0605 -8.54546,-1.72643 -11.52212,-5.02365 -2.9767,-3.29721 -4.51331,-7.83395 -4.60885,-13.64219 0.0786,-5.36914 1.46397,-9.39844 4.14796,-12.07519 2.68396,-2.67669 6.16226,-4.01088 10.50818,-4.0097 z m -54.20007,0.55306 c 2.75532,0.0193 4.90173,0.86089 6.45239,2.53487 1.5506,1.67404 2.32387,4.0934 2.35051,7.18981 -0.0193,1.89296 -0.30479,3.47107 -0.87568,4.74711 -0.57094,1.27609 -1.27597,2.1787 -2.16616,2.76531 -0.61689,0.39189 -1.27533,0.63583 -1.93572,0.73742 -0.66043,0.10161 -1.31887,0.15278 -1.93571,0.13819 -1.17812,-0.006 -2.28799,-0.0866 -3.36447,-0.23044 -1.0765,-0.14395 -1.83501,-0.2977 -2.25833,-0.50698 -0.11607,-0.0847 -0.17239,-0.17733 -0.23044,-0.27653 -0.0581,-0.0991 -0.0922,-0.22597 -0.0922,-0.36871 l 0,-15.85444 c 0.003,-0.14394 0.0171,-0.27554 0.0922,-0.36871 0.0749,-0.0931 0.20407,-0.17355 0.32262,-0.23044 0.28664,-0.0628 0.74291,-0.12138 1.42874,-0.18435 0.6858,-0.0628 1.43208,-0.0873 2.21225,-0.0922 z m 184.86095,5.34627 c 0.14512,0 0.31573,0.22178 0.46089,0.59915 l 5.06973,13.50393 c 0.0326,0.11607 0.0181,0.21848 0,0.27653 -0.0181,0.0581 -0.0718,0.0922 -0.18435,0.0922 l -10.36992,0 c -0.17417,10e-6 -0.19631,-0.13642 -0.13819,-0.36871 l 4.74712,-13.50393 c 0.14512,-0.37737 0.26957,-0.59915 0.41472,-0.59915 z m -5.06973,61.85076 c -3.41819,0.0242 -6.11839,0.82194 -8.15767,2.44269 -2.03929,1.62083 -3.08322,3.89403 -3.13402,6.8211 -0.04,1.68129 0.46754,3.35692 1.56701,5.02364 1.09948,1.66677 2.99713,3.54712 5.71498,5.57671 l 2.35051,1.70528 c 2.24974,1.60992 3.85483,3.02939 4.88538,4.24014 1.03051,1.21076 1.58151,2.68143 1.56701,4.3784 -0.003,1.899 -0.69366,3.43815 -1.98181,4.65494 -1.28817,1.2168 -3.18582,1.84851 -5.71497,1.88963 -1.78409,0.0218 -3.46456,-0.35863 -5.02365,-1.10612 -1.5591,-0.74749 -2.56408,-2.00123 -3.04184,-3.77926 -0.0835,-0.3544 -0.12019,-0.69583 -0.13819,-1.01395 -0.0181,-0.31809 -0.0497,-0.57424 -0.046,-0.7835 -0.0103,-0.39673 -0.16094,-0.56272 -0.46089,-0.55306 -0.2806,0.0103 -0.42448,0.25132 -0.41479,0.7835 -0.0375,0.42093 -0.0644,1.11348 -0.1382,2.02789 -0.0737,0.91443 -0.12978,1.99246 -0.13819,3.2262 -0.0118,0.63984 0.0488,1.0643 0.13819,1.29048 0.0895,0.22618 0.30897,0.40671 0.64524,0.55306 1.07527,0.48745 2.26561,0.80953 3.59491,1.01395 1.32928,0.20441 2.6049,0.32866 3.82534,0.32262 1.42363,0.0147 2.84081,-0.12197 4.28623,-0.36871 1.44538,-0.24674 2.72101,-0.70047 3.82535,-1.38266 1.79857,-1.21075 3.07648,-2.54494 3.77925,-4.0097 0.70272,-1.46475 0.99808,-2.95248 0.96786,-4.42449 0.04,-2.08525 -0.56992,-4.06336 -1.84354,-5.94542 -1.27366,-1.88203 -3.4323,-3.86013 -6.49848,-5.94541 l -1.42896,-0.96786 c -2.48562,-1.651 -4.22466,-3.07787 -5.208,-4.28623 -0.98337,-1.2083 -1.46867,-2.59597 -1.42874,-4.10188 0.0507,-1.74655 0.69725,-3.05883 1.9818,-3.96361 1.28452,-0.9047 2.88454,-1.3317 4.7932,-1.33656 2.26063,0.0653 3.92633,0.36555 4.93147,0.96785 1.00512,0.6024 1.56374,1.07318 1.70528,1.42875 0.15478,0.29393 0.30604,0.69395 0.46088,1.1983 0.15479,0.50441 0.23783,0.92147 0.27653,1.24439 0.023,0.20445 0.0789,0.39695 0.1382,0.50697 0.0593,0.11002 0.15444,0.13716 0.32261,0.13819 0.1693,10e-4 0.31546,-0.0963 0.36871,-0.27653 0.0532,-0.18018 0.0509,-0.45339 0.046,-0.82959 0.0103,-1.6764 0.0705,-2.93012 0.13819,-3.77926 0.0677,-0.84906 0.0824,-1.31985 0.0922,-1.42874 0.003,-0.14144 -0.0159,-0.22932 -0.0922,-0.27653 -0.0762,-0.0471 -0.21525,-0.0957 -0.4148,-0.0922 -0.19115,0.004 -0.42767,0.0242 -0.69132,0 -0.26372,-0.0242 -0.62476,-0.11917 -1.10613,-0.23044 -0.62657,-0.15116 -1.41918,-0.25379 -2.35051,-0.36871 -0.93137,-0.11489 -1.91674,-0.17826 -2.94967,-0.18435 z m -229.33636,0.046 c -0.20683,-0.0193 -0.37997,0.14901 -0.50697,0.50698 -0.12698,0.35807 -0.18072,1.0142 -0.18435,1.9818 l 0,28.29834 c 0.0193,2.19049 -0.0466,3.71742 -0.23045,4.60885 -0.18385,0.89143 -0.57901,1.3915 -1.1983,1.52092 -0.39189,0.11371 -0.8064,0.18932 -1.1983,0.23044 -0.39189,0.0412 -0.70405,0.0485 -0.92177,0.046 -0.11857,0.003 -0.20152,0.0633 -0.27653,0.13819 -0.0751,0.0749 -0.0898,0.15801 -0.0922,0.27653 0.001,0.16934 0.0453,0.26936 0.18435,0.32262 0.13908,0.0532 0.33669,0.097 0.59915,0.0922 1.19261,-0.007 2.26326,-0.0413 3.18011,-0.0922 0.91682,-0.0507 1.48767,-0.085 1.75136,-0.0922 0.24674,0.007 0.85399,0.0413 1.79745,0.0922 0.94344,0.0507 2.12892,0.085 3.5949,0.0922 0.2927,10e-4 0.52925,-0.028 0.69133,-0.0922 0.16204,-0.0642 0.27411,-0.17868 0.27653,-0.32262 -0.003,-0.11858 -0.0633,-0.20155 -0.13819,-0.27653 -0.0751,-0.0749 -0.15798,-0.13583 -0.27653,-0.13819 -0.25162,0.003 -0.62232,-0.004 -1.10613,-0.046 -0.48383,-0.0412 -0.99102,-0.11681 -1.47483,-0.23044 -0.68461,-0.13303 -1.13605,-0.61352 -1.42874,-1.42874 -0.29273,-0.81523 -0.50711,-2.20314 -0.55306,-4.19406 l -0.55314,-23.27461 c 0.86723,0.95678 2.52096,2.71058 4.97756,5.30017 2.45657,2.58966 5.2054,5.47268 8.24984,8.66464 2.88353,2.99121 5.71282,5.86685 8.48028,8.61855 2.76741,2.75173 4.39415,4.3395 4.83929,4.74711 1.374,1.26882 2.30819,2.0981 2.8114,2.48878 0.50313,0.39069 0.84712,0.59056 1.06004,0.55306 0.16929,0.0556 0.26933,-0.12978 0.32262,-0.55306 0.0531,-0.42333 0.0969,-1.42576 0.0922,-2.99575 l 0.0922,-28.94357 c -0.0302,-1.45264 0.0673,-2.4553 0.27653,-3.08793 0.20921,-0.63256 0.70928,-1.05191 1.52092,-1.1983 0.29024,-0.0556 0.53417,-0.0801 0.73742,-0.0922 0.20316,-0.0118 0.39083,-0.003 0.50697,0 0.17655,-0.009 0.31072,-0.0816 0.4148,-0.18436 0.10397,-0.10279 0.13583,-0.18096 0.13819,-0.27653 -0.006,-0.14143 -0.0575,-0.27541 -0.23044,-0.32262 -0.17301,-0.047 -0.42406,-0.0497 -0.69133,-0.046 -1.05955,0.004 -1.95001,0.0118 -2.71922,0.046 -0.7693,0.0339 -1.30832,0.0875 -1.6131,0.0922 -0.33147,-0.004 -1.01433,-0.0583 -2.02789,-0.0922 -1.01364,-0.0339 -2.11612,-0.0411 -3.31837,-0.046 -0.29524,-0.003 -0.55843,-10e-4 -0.73742,0.046 -0.17906,0.0472 -0.27174,0.18113 -0.27653,0.32262 -0.004,0.0956 0.0389,0.17378 0.0922,0.27653 0.0532,0.1028 0.15323,0.17594 0.32262,0.18436 0.22371,-10e-4 0.58223,0.0103 1.06003,0.046 0.47773,0.0351 0.94367,0.0985 1.42874,0.18436 0.76198,0.11857 1.31297,0.51373 1.56701,1.1983 0.25396,0.68463 0.36141,1.7945 0.36871,3.36446 l 0.50698,24.74952 c -0.87334,-0.91441 -2.41986,-2.59972 -4.70103,-5.02365 -2.28123,-2.42391 -4.75915,-4.98254 -7.37416,-7.69677 -4.07618,-4.20677 -7.61789,-7.91907 -10.69253,-11.15342 -3.07467,-3.23429 -4.90383,-5.11972 -5.43844,-5.66888 -0.27459,-0.29149 -0.59896,-0.62553 -0.96786,-0.96786 -0.36892,-0.34228 -0.71037,-0.52279 -1.01395,-0.55307 z m 285.2417,0 c -0.0907,0.0205 -0.17857,0.15225 -0.27653,0.36871 -0.0979,0.21655 -0.16877,0.3874 -0.23044,0.55306 -0.0714,0.36775 -0.2422,1.24336 -0.55307,2.62705 -0.31086,1.38375 -0.51073,2.2935 -0.55306,2.71922 0.007,0.14394 0.0584,0.25852 0.13819,0.32262 0.0798,0.0641 0.16514,0.0934 0.23045,0.0922 0.11607,0.006 0.18942,-0.0329 0.27653,-0.0922 0.087,-0.0593 0.17239,-0.17151 0.23044,-0.36871 0.0737,-0.16325 0.13495,-0.37051 0.23044,-0.59915 0.0956,-0.22855 0.32215,-0.54328 0.59915,-0.96786 0.34594,-0.56965 0.89234,-0.96965 1.65919,-1.1983 0.76684,-0.22855 1.93756,-0.35052 3.50272,-0.36871 l 7.37416,-0.13819 0,20.73982 c 0.004,2.40096 -0.022,4.51809 -0.046,6.36022 -0.0242,1.84214 -0.0732,3.29574 -0.18435,4.33232 -0.0738,0.73178 -0.24921,1.33419 -0.46089,1.79745 -0.21167,0.46326 -0.55083,0.75352 -1.06003,0.87568 -0.23707,0.0605 -0.47133,0.0923 -0.73742,0.13819 -0.26613,0.046 -0.54646,0.0898 -0.78351,0.0922 -0.14394,0.003 -0.25852,0.0233 -0.32261,0.0922 -0.0642,0.0689 -0.0934,0.13967 -0.0922,0.23045 -0.003,0.14394 0.0562,0.25848 0.18435,0.32262 0.12817,0.0642 0.35734,0.0933 0.64524,0.0922 0.86604,-0.007 1.91961,-0.0413 3.13402,-0.0922 1.21438,-0.0507 1.93874,-0.0849 2.16616,-0.0922 0.2165,0.007 0.94342,0.0413 2.21225,0.0922 1.26879,0.0507 2.63708,0.085 4.10187,0.0922 0.28782,-0.003 0.47092,-0.0171 0.59915,-0.0922 0.12817,-0.0749 0.23282,-0.20408 0.23044,-0.32262 0.004,-0.0931 -0.0389,-0.19067 -0.0922,-0.27653 -0.0532,-0.0858 -0.15328,-0.1323 -0.32262,-0.1382 -0.25646,-0.003 -0.64652,-1.3e-4 -1.10613,-0.046 -0.45964,-0.046 -0.87187,-0.12389 -1.24438,-0.18435 -0.7572,-0.11976 -1.22569,-0.38328 -1.47484,-0.8296 -0.2492,-0.44631 -0.40043,-1.022 -0.46088,-1.75136 -0.11135,-1.03657 -0.2063,-2.49018 -0.23044,-4.33232 -0.0242,-1.84212 -0.0509,-3.95926 -0.046,-6.36021 l 0,-20.73982 6.4063,0.13819 c 2.37914,0.0702 3.99137,0.33856 4.83929,0.82959 0.84787,0.4911 1.30873,1.12282 1.33657,1.88963 l 0.046,0.50697 c 0.0279,0.34115 0.0742,0.56799 0.1382,0.69133 0.0641,0.12344 0.16161,0.19165 0.27653,0.18435 0.12093,-10e-4 0.23063,-0.0282 0.32262,-0.13819 0.0919,-0.11002 0.13332,-0.30255 0.13819,-0.50697 0.007,-0.39427 0.0414,-1.19199 0.0922,-2.44269 0.0507,-1.25063 0.0848,-2.3213 0.0922,-3.18011 0.004,-0.15115 -0.022,-0.29988 -0.046,-0.41479 -0.0242,-0.11489 -0.11917,-0.13215 -0.23044,-0.1382 -0.11489,0.003 -0.26872,1.4e-4 -0.50698,0.046 -0.23832,0.046 -0.54563,0.12388 -0.92177,0.18435 -0.40282,0.0605 -0.92222,0.0923 -1.52092,0.13819 -0.59875,0.046 -1.28189,0.0898 -2.12007,0.0922 l -19.31108,0 c -0.33021,10e-4 -0.87179,-0.0571 -1.65918,-0.0922 -0.78742,-0.0351 -1.58489,-0.0523 -2.35052,-0.13819 -0.68218,-0.10043 -1.18709,-0.23197 -1.52092,-0.36871 -0.33384,-0.13671 -0.57775,-0.21709 -0.73741,-0.23044 z m -133.47228,0.27654 c -0.11607,0.006 -0.20652,0.0354 -0.32262,0.0922 -0.11607,0.0569 -0.25261,0.10324 -0.36871,0.13819 -0.21292,0.0339 -0.50572,0.0754 -0.92177,0.1382 -0.41611,0.063 -0.87951,0.15053 -1.38265,0.18435 -0.50965,0.0181 -1.70481,10e-4 -3.59491,0 -1.89013,-10e-4 -3.73083,0.007 -5.53062,0 -1.79981,-0.007 -2.84925,10e-4 -3.08792,0 -0.2286,-0.004 -0.9749,-0.0583 -2.21225,-0.0922 -1.23737,-0.0339 -2.44247,-0.0411 -3.68708,-0.046 -0.28786,-10e-4 -0.51703,0.028 -0.64524,0.0922 -0.12816,0.0641 -0.18677,0.17872 -0.18435,0.32261 0.006,0.0932 0.0524,0.19072 0.13819,0.27654 0.0858,0.0858 0.18341,0.13229 0.27653,0.13819 0.25037,0.001 0.53095,-0.023 0.87568,0 0.34473,0.023 0.65434,0.0619 0.87568,0.0922 0.81644,0.11017 1.34095,0.39299 1.6131,0.8296 0.27213,0.43668 0.42822,1.05387 0.46088,1.88963 0.0556,0.64956 0.0801,1.67387 0.0922,3.04184 0.0118,1.36802 0.0485,3.90705 0.046,7.6046 l 0,8.71072 c 0.006,2.40096 -0.0158,4.51809 -0.046,6.36022 -0.0302,1.84213 -0.13745,3.29574 -0.27653,4.33231 -0.0956,0.733 -0.20783,1.29415 -0.36871,1.75137 -0.16087,0.45721 -0.49494,0.73525 -0.96786,0.82959 -0.23948,0.0351 -0.50047,0.0814 -0.7835,0.13819 -0.28305,0.0568 -0.54402,0.0861 -0.78351,0.0922 -0.14394,0.006 -0.25848,0.0524 -0.32262,0.13819 -0.0642,0.0858 -0.0935,0.18341 -0.0922,0.27653 0.0103,0.2806 0.29737,0.42447 0.82959,0.4148 0.41729,-0.001 0.90258,-0.0232 1.42874,-0.046 0.52615,-0.023 1.01653,-0.0158 1.52092,-0.046 0.56727,-0.0279 1.05995,-0.0861 1.47484,-0.0922 0.41485,-0.006 0.66361,-10e-4 0.73741,0 0.37254,-0.003 0.92123,0.0341 1.6131,0.046 0.69184,0.0118 1.55779,0.0366 2.62704,0.0922 1.04504,0.0326 2.29876,0.0522 3.77926,0.0922 1.48047,0.04 3.19988,0.0885 5.11582,0.0922 0.96035,0.0265 1.63356,-0.0513 2.0279,-0.18436 0.39426,-0.13303 0.682,-0.49409 0.82959,-1.10612 0.15599,-0.63379 0.31209,-1.49974 0.46088,-2.62704 0.14874,-1.12729 0.21956,-1.83462 0.23045,-2.12008 0.003,-0.18385 -0.0451,-0.35214 -0.0922,-0.50697 -0.0472,-0.15483 -0.13509,-0.26686 -0.27653,-0.27653 -0.14159,-0.004 -0.24643,0.073 -0.32262,0.18435 -0.0762,0.11135 -0.12993,0.31372 -0.18435,0.59915 -0.14041,0.97008 -0.41098,1.69215 -0.78351,2.21225 -0.37259,0.52012 -0.9042,0.92494 -1.56701,1.1983 -0.71365,0.25037 -1.54549,0.40645 -2.53487,0.46089 -0.98943,0.0544 -1.82125,0.0571 -2.53486,0.046 -2.4566,0.0423 -4.1223,-0.20641 -4.93147,-0.73741 -0.8092,-0.53099 -1.2092,-1.56778 -1.1983,-3.18011 -0.0254,-0.67733 -0.0103,-2.00899 0,-3.96361 0.0103,-1.95461 -0.003,-3.44488 0,-4.47058 l 0,-4.14797 c -0.003,-0.0907 0.045,-0.16148 0.0922,-0.23044 0.0472,-0.0689 0.13495,-0.0885 0.27654,-0.0922 0.61563,-0.001 1.81335,0.0103 3.64099,0.046 1.82759,0.0351 3.17885,0.0985 4.05578,0.18435 0.96157,0.12094 1.62256,0.33306 1.98181,0.59915 0.3592,0.26613 0.58352,0.56859 0.64524,0.92177 0.1112,0.31812 0.20621,0.60838 0.23044,0.87568 0.0242,0.26735 0.004,0.50642 0,0.73742 -3e-5,0.29998 0.13642,0.45122 0.36871,0.46088 0.17171,-0.0133 0.29853,-0.12786 0.36871,-0.32262 0.0702,-0.19473 0.0945,-0.38264 0.0922,-0.59915 0.003,-0.22376 1.4e-4,-0.70166 0.046,-1.38265 0.046,-0.68096 0.12388,-1.25435 0.18435,-1.79745 0.0677,-0.80675 0.13362,-1.45296 0.23045,-1.88963 0.0967,-0.43662 0.17463,-0.73656 0.18435,-0.87568 -0.0103,-0.2806 -0.13878,-0.37837 -0.32262,-0.36871 -0.0858,0.004 -0.15439,0.0634 -0.27653,0.18435 -0.12212,0.12094 -0.28795,0.23581 -0.46089,0.4148 -0.25645,0.25041 -0.56632,0.42354 -0.96785,0.50697 -0.40162,0.0835 -0.91617,0.18328 -1.52092,0.23045 -0.45912,0.0379 -1.31553,0.0296 -2.58096,0.046 -1.26547,0.0165 -2.5258,0.0425 -3.73317,0.046 -1.20741,0.003 -1.92735,8.1e-4 -2.21225,0 -0.13907,10e-6 -0.24629,-0.0512 -0.27653,-0.1382 -0.0302,-0.087 -0.0522,-0.19453 -0.046,-0.3687 l 0,-13.41176 c -0.003,-0.17413 0.051,-0.32769 0.0922,-0.41479 0.0412,-0.087 0.11681,-0.13819 0.23045,-0.13819 0.25767,3e-5 0.92205,0.0332 1.9818,0.046 1.05973,0.0133 2.13419,0.0204 3.2262,0.046 1.09198,0.0258 1.8117,0.0535 2.16616,0.0922 1.34982,0.16455 2.24021,0.37664 2.71922,0.59915 0.47895,0.2226 0.79111,0.52507 0.92177,0.92177 0.11371,0.30482 0.18928,0.63406 0.23044,0.96786 0.0412,0.33384 0.0485,0.59484 0.046,0.78351 -0.0103,0.4161 0.13421,0.63559 0.4148,0.64523 0.11725,-0.007 0.24156,-0.0755 0.32262,-0.18435 0.081,-0.10884 0.10796,-0.24528 0.13819,-0.36871 0.0593,-0.3604 0.13229,-0.90681 0.18436,-1.65918 0.0521,-0.7523 0.0619,-1.2646 0.0922,-1.56701 0.0677,-0.68456 0.17976,-1.21621 0.27653,-1.56701 0.0967,-0.35073 0.12861,-0.62139 0.1382,-0.78351 0.001,-0.12093 -0.0103,-0.23063 -0.046,-0.32262 -0.0351,-0.0919 -0.0985,-0.13332 -0.18435,-0.13819 z m -208.78088,0.41479 c -0.28789,-10e-4 -0.47095,0.028 -0.59915,0.0922 -0.12817,0.0642 -0.18678,0.17872 -0.18436,0.32262 0.006,0.0932 0.0524,0.19071 0.13819,0.27653 0.0858,0.0858 0.13731,0.13229 0.23045,0.13819 0.25036,0.001 0.57704,-0.023 0.92177,0 0.34471,0.023 0.60823,0.0619 0.82959,0.0922 0.81644,0.11739 1.38703,0.4173 1.65918,0.87568 0.27214,0.45845 0.42822,1.05858 0.46089,1.84354 0.0556,0.64956 0.0801,1.67387 0.0922,3.04184 0.0118,1.36802 0.003,3.90705 0,7.6046 l 0,7.2359 c 0.0302,3.54397 0.45467,6.35111 1.29047,8.34201 0.83579,1.99092 1.90161,3.50333 3.18011,4.60885 1.91228,1.61838 3.92934,2.65721 6.03759,3.04184 2.10822,0.38464 3.6545,0.52621 4.60885,0.46089 1.53368,0.0496 3.21669,-0.148 5.06974,-0.59915 1.85299,-0.45115 3.69463,-1.44874 5.57671,-2.99575 1.97636,-1.80706 3.29094,-4.0655 3.91752,-6.72892 0.62651,-2.6634 0.93128,-5.32949 0.87568,-8.06549 l 0,-5.30018 c -0.004,-3.69755 -0.0413,-6.23658 -0.046,-7.6046 -0.004,-1.36797 0.0389,-2.39228 0.0922,-3.04184 0.0386,-0.80673 0.17285,-1.40686 0.4148,-1.84354 0.24187,-0.43661 0.70526,-0.73655 1.38265,-0.87568 0.31082,-0.0556 0.54989,-0.0801 0.73742,-0.0922 0.18743,-0.0118 0.38732,-0.003 0.55306,0 0.11843,-0.006 0.20149,-0.0524 0.27653,-0.13819 0.0749,-0.0858 0.13583,-0.18338 0.13819,-0.27653 0.003,-0.14394 -0.1022,-0.25845 -0.23044,-0.32262 -0.12831,-0.064 -0.31132,-0.0934 -0.59915,-0.0922 -0.81765,0.004 -1.67626,0.0118 -2.58096,0.046 -0.90476,0.0339 -1.46823,0.0874 -1.70527,0.0922 -0.21534,-0.004 -0.89822,-0.0582 -2.02789,-0.0922 -1.12975,-0.0339 -2.30048,-0.0412 -3.50273,-0.046 -0.28795,-10e-4 -0.51705,0.028 -0.64524,0.0922 -0.12831,0.0642 -0.1868,0.17872 -0.18435,0.32262 0.003,0.0932 0.0633,0.19071 0.13819,0.27653 0.0749,0.0858 0.15797,0.13229 0.27653,0.13819 0.25034,0.001 0.57701,-0.023 0.92177,0 0.3447,0.023 0.60822,0.0619 0.82959,0.0922 0.81762,0.11739 1.34697,0.4173 1.6131,0.87568 0.26606,0.45845 0.40993,1.05858 0.4148,1.84354 0.0302,0.64956 0.0692,1.67387 0.0922,3.04184 0.023,1.36802 0.0448,3.90705 0.046,7.6046 l 0,6.22195 c 0.0277,2.53038 -0.19882,4.76719 -0.59915,6.77501 -0.40039,2.00785 -1.14208,3.73466 -2.30443,5.16191 -0.8951,1.05952 -2.06811,1.91075 -3.45663,2.53487 -1.38859,0.62412 -2.87885,0.95334 -4.47059,0.96785 -1.43091,0.0302 -2.75771,-0.15257 -3.96361,-0.50697 -1.20592,-0.35439 -2.41332,-1.06427 -3.64099,-2.16616 -1.12246,-0.92046 -2.03221,-2.28876 -2.71922,-4.10187 -0.68704,-1.8131 -1.0407,-4.46926 -1.06004,-7.97331 l 0,-6.91328 c -0.003,-3.69755 0.0339,-6.23658 0.046,-7.6046 0.0118,-1.36797 0.0366,-2.39228 0.0922,-3.04184 0.04,-0.81036 0.17892,-1.44206 0.41479,-1.88963 0.23586,-0.44749 0.68704,-0.71585 1.33657,-0.82959 0.31083,-0.0556 0.54992,-0.0801 0.73741,-0.0922 0.18747,-0.0118 0.34125,-0.003 0.50698,0 0.12093,-0.006 0.23068,-0.0524 0.32262,-0.13819 0.0919,-0.0858 0.1795,-0.18338 0.18435,-0.27653 -1e-5,-0.28056 -0.29511,-0.42444 -0.87568,-0.4148 -0.84669,0.004 -1.85879,0.0118 -2.99575,0.046 -1.13698,0.0339 -1.84201,0.0874 -2.16616,0.0922 -0.3024,-0.004 -1.07057,-0.0582 -2.25834,-0.0922 -1.18778,-0.0339 -2.40968,-0.0412 -3.64099,-0.046 z m 110.38194,0 c -0.28789,-10e-4 -0.51703,0.028 -0.64524,0.0922 -0.12816,0.0642 -0.18677,0.17872 -0.18435,0.32262 0.003,0.0932 0.0633,0.19071 0.13819,0.27653 0.0749,0.0858 0.15798,0.13229 0.27653,0.13819 0.18144,3e-5 0.40829,0.0171 0.69133,0.046 0.28302,0.029 0.57813,0.0341 0.87568,0.0922 0.54308,0.10767 0.95276,0.40993 1.1983,0.8296 0.24553,0.41975 0.36521,1.0102 0.4148,1.84354 0.0556,0.64956 0.12624,1.67387 0.13819,3.04184 0.0118,1.36802 0.003,3.90705 0,7.6046 l 0,8.71072 c 0.003,2.40096 -0.004,4.51809 -0.046,6.36022 -0.0411,1.84213 -0.1168,3.29574 -0.23044,4.33231 -0.0702,0.72937 -0.19695,1.30505 -0.36871,1.75137 -0.17175,0.44633 -0.49131,0.70985 -0.96785,0.82959 -0.23949,0.0605 -0.50049,0.13834 -0.78351,0.18435 -0.28305,0.046 -0.54402,0.0437 -0.7835,0.046 -0.14395,0.006 -0.25848,0.0524 -0.32262,0.13819 -0.0642,0.0858 -0.0935,0.18341 -0.0922,0.27653 0.0103,0.2806 0.29737,0.42447 0.82959,0.4148 0.87813,-0.007 1.87087,-0.0413 2.99576,-0.0922 1.12486,-0.0507 1.78839,-0.085 2.02789,-0.0922 0.1899,0.007 0.92649,0.0413 2.21225,0.0922 1.28573,0.0507 2.69782,0.0849 4.19405,0.0922 0.28781,-0.003 0.47093,-0.0171 0.59915,-0.0922 0.12816,-0.0749 0.18673,-0.20407 0.18435,-0.32262 10e-4,-0.0931 -0.028,-0.19066 -0.0922,-0.27653 -0.0642,-0.0858 -0.13259,-0.13229 -0.27653,-0.13819 -0.25283,-0.003 -0.61131,-1.3e-4 -1.06004,-0.046 -0.44876,-0.046 -0.89255,-0.12388 -1.29048,-0.18435 -0.72696,-0.11976 -1.20257,-0.38328 -1.42874,-0.82959 -0.22618,-0.44632 -0.35554,-1.022 -0.4148,-1.75137 -0.11135,-1.03657 -0.20625,-2.49018 -0.23044,-4.33231 -0.0242,-1.84213 -0.004,-3.95926 0,-6.36022 l 0,-8.71072 c -10e-4,-3.69755 -0.006,-6.23658 0,-7.6046 0.006,-1.36797 0.0183,-2.39228 0.046,-3.04184 0.0386,-0.85753 0.17289,-1.47472 0.41479,-1.88963 0.2419,-0.41484 0.7053,-0.69772 1.38266,-0.8296 0.28544,-0.0556 0.53903,-0.0801 0.73741,-0.0922 0.19837,-0.0118 0.38373,-0.003 0.55307,0 0.0931,-0.006 0.19066,-0.0524 0.27653,-0.13819 0.0858,-0.0858 0.13214,-0.18338 0.13819,-0.27654 0.003,-0.14394 -0.0562,-0.25844 -0.18436,-0.32261 -0.12816,-0.064 -0.35738,-0.0934 -0.64523,-0.0922 -0.88418,0.004 -1.88916,0.0118 -3.04185,0.046 -1.15271,0.0339 -1.85749,0.0875 -2.07398,0.0922 -0.23711,-0.004 -0.93702,-0.0583 -2.07398,-0.0922 -1.13698,-0.0339 -2.15417,-0.0411 -3.08793,-0.046 z m 25.21041,0 c -0.41124,-0.003 -0.7308,-10e-4 -0.96786,0.046 -0.23706,0.0472 -0.36387,0.18112 -0.36871,0.32262 -10e-4,0.0956 0.028,0.17378 0.0922,0.27653 0.0642,0.10279 0.17868,0.17593 0.32262,0.18435 0.15845,-0.003 0.41459,-0.0181 0.7835,0 0.36892,0.0181 0.73251,0.0549 1.15222,0.13819 0.8116,0.1585 1.48226,0.48286 1.9818,0.96786 0.49954,0.48506 1.01666,1.41671 1.56701,2.76531 l 12.53607,30.23405 c 0.47534,1.16722 0.84121,2.00847 1.10612,2.44269 0.26488,0.43422 0.55743,0.62213 0.8296,0.59915 0.23343,0.0302 0.49924,-0.20883 0.7835,-0.73741 0.28423,-0.52857 0.75985,-1.54551 1.42874,-2.99575 0.5854,-1.24099 1.4269,-3.10708 2.53487,-5.66889 1.10791,-2.5618 2.43726,-5.68848 4.0097,-9.30987 1.34378,-3.11093 2.5341,-5.88675 3.5949,-8.38811 1.06075,-2.50132 1.79226,-4.14282 2.12007,-4.93147 0.65918,-1.63284 1.21041,-2.76206 1.65919,-3.36446 0.4487,-0.60232 0.81229,-1.01684 1.15221,-1.1983 0.4862,-0.27818 0.95699,-0.44646 1.42875,-0.50697 0.47168,-0.0605 0.81795,-0.0581 1.01394,-0.046 0.20195,-0.004 0.36772,-0.0463 0.46089,-0.13819 0.0931,-0.0919 0.13937,-0.20161 0.13819,-0.32262 -0.0103,-0.23218 -0.29741,-0.36866 -0.82959,-0.36871 -0.80918,0.004 -1.61179,0.0118 -2.44269,0.046 -0.83098,0.0339 -1.36747,0.0874 -1.56701,0.0922 -0.3605,-0.004 -1.02629,-0.0582 -1.98181,-0.0922 -0.95557,-0.0339 -1.93863,-0.0412 -2.99575,-0.046 -0.40406,-10e-4 -0.68942,0.028 -0.87568,0.0922 -0.18632,0.0642 -0.27895,0.17872 -0.27653,0.32262 0.006,0.11858 0.0695,0.20155 0.18435,0.27653 0.11489,0.0751 0.21751,0.13583 0.36871,0.13819 0.29028,-0.003 0.58536,-0.0181 0.87568,0 0.29028,0.0181 0.58536,0.0549 0.87568,0.13819 0.25763,0.0944 0.44781,0.26497 0.55306,0.46089 0.10516,0.19599 0.14188,0.38872 0.1382,0.59915 -0.004,0.20808 -0.0463,0.45938 -0.1382,0.7835 -0.0919,0.32422 -0.20168,0.67785 -0.32261,1.06004 -0.42508,1.3257 -1.30752,3.73445 -2.62705,7.14371 -1.31959,3.40933 -2.71418,6.98745 -4.24014,10.73862 -1.52602,3.75122 -2.82712,6.77419 -3.87143,9.12553 l -9.63243,-24.84148 c -0.38826,-0.99542 -0.70297,-1.8685 -0.96785,-2.58096 -0.26493,-0.71239 -0.40392,-1.19309 -0.4148,-1.52092 -0.009,-0.17413 0.0208,-0.36179 0.0922,-0.50697 0.0714,-0.14512 0.20808,-0.25254 0.46088,-0.36871 0.24432,-0.0858 0.57583,-0.14924 0.92177,-0.18435 0.34594,-0.0351 0.66546,-0.0472 0.96786,-0.046 0.17418,-0.004 0.2816,-0.0463 0.36871,-0.13819 0.087,-0.0919 0.13819,-0.20161 0.13819,-0.32262 -2e-5,-0.23218 -0.45375,-0.36866 -1.38266,-0.36871 -1.02933,0.004 -2.0292,0.0118 -2.94966,0.046 -0.92047,0.0339 -1.53996,0.0875 -1.84354,0.0922 -0.37617,-0.004 -1.13721,-0.0583 -2.30442,-0.0922 -1.16722,-0.0339 -2.36493,-0.0412 -3.641,-0.046 z m 92.77614,0 c -0.28789,-10e-4 -0.51703,0.028 -0.64524,0.0922 -0.12816,0.0642 -0.18677,0.17872 -0.18435,0.32262 0.006,0.0932 0.0523,0.19071 0.13819,0.27653 0.0858,0.0858 0.18341,0.13229 0.27653,0.13819 0.25037,0.001 0.53095,-0.023 0.87568,0 0.34473,0.023 0.65434,0.0619 0.87568,0.0922 0.81644,0.11017 1.34095,0.39298 1.6131,0.82959 0.27213,0.43668 0.42822,1.05387 0.46088,1.88963 0.0556,0.64956 0.0801,1.67387 0.0922,3.04184 0.0118,1.36802 0.0485,3.90705 0.046,7.6046 l 0,8.71073 c 0.006,2.40095 -0.0158,4.51809 -0.046,6.36021 -0.0302,1.84214 -0.13745,3.29575 -0.27653,4.33232 -0.0956,0.72936 -0.20783,1.30505 -0.36871,1.75136 -0.16087,0.44633 -0.49494,0.70985 -0.96786,0.82959 -0.23948,0.0605 -0.50047,0.13834 -0.7835,0.18436 -0.28305,0.046 -0.54402,0.0436 -0.78351,0.046 -0.14394,0.006 -0.21239,0.0524 -0.27653,0.13819 -0.0642,0.0858 -0.0935,0.18341 -0.0922,0.27654 0.0103,0.2806 0.25128,0.42447 0.7835,0.41479 0.89264,-0.007 1.91949,-0.0413 3.08793,-0.0922 1.16842,-0.0507 1.84391,-0.0849 1.98181,-0.0922 0.18869,0.007 0.90337,0.0413 2.16615,0.0922 1.26276,0.0507 2.6359,0.085 4.10188,0.0922 0.28781,-0.003 0.47093,-0.0171 0.59915,-0.0922 0.12816,-0.0749 0.18673,-0.20407 0.18436,-0.32261 0.004,-0.0931 0.007,-0.19067 -0.046,-0.27654 -0.0532,-0.0858 -0.15328,-0.13229 -0.32262,-0.13819 -0.25404,-0.003 -0.61736,-1.3e-4 -1.06003,-0.046 -0.44272,-0.046 -0.87428,-0.12389 -1.24439,-0.18436 -0.75962,-0.11975 -1.25483,-0.38328 -1.52092,-0.82959 -0.26614,-0.44631 -0.44409,-1.022 -0.50698,-1.75136 -0.11135,-1.03415 -0.16016,-2.46102 -0.18435,-4.28623 -0.0242,-1.82519 -0.0509,-3.96168 -0.046,-6.36021 l 0,-1.15222 c -10e-6,-0.2806 0.13643,-0.42445 0.36871,-0.41479 l 6.49848,0.13819 c 0.16688,-0.003 0.32044,0.004 0.4148,0.046 0.0944,0.0412 0.16768,0.11681 0.27653,0.23045 0.57815,0.71727 1.3514,1.73929 2.35051,3.08793 0.99907,1.34864 2.0794,2.71696 3.18011,4.10187 1.4224,1.85544 2.65906,3.40657 3.73316,4.60885 1.07405,1.20228 2.15209,2.09497 3.2262,2.67313 0.60474,0.34594 1.31205,0.58017 2.12007,0.73742 0.80794,0.15725 1.90075,0.23286 3.31837,0.23044 l 3.2262,0 c 0.45716,0.001 0.74029,-0.028 0.92177,-0.0922 0.18139,-0.0641 0.28374,-0.17867 0.27653,-0.32261 -0.001,-0.0931 -0.0572,-0.19067 -0.13819,-0.27654 -0.0811,-0.0858 -0.17631,-0.13229 -0.32262,-0.13819 -0.14041,0.003 -0.35983,0.0181 -0.64524,0 -0.28547,-0.0181 -0.6636,-0.0547 -1.15222,-0.13819 -0.62537,-0.0447 -1.39609,-0.29349 -2.30442,-0.73741 -0.90841,-0.4439 -2.01344,-1.36816 -3.36446,-2.71923 -1.4793,-1.55183 -3.10859,-3.40798 -4.88538,-5.5767 -1.77685,-2.1687 -3.7183,-4.56387 -5.80715,-7.18981 2.34407,-2.0187 3.94917,-3.92375 4.88538,-5.76106 0.93615,-1.83727 1.41891,-3.66898 1.38265,-5.48453 -0.0677,-1.72116 -0.49704,-3.18443 -1.29047,-4.33232 -0.79349,-1.14782 -1.552,-1.92364 -2.25834,-2.3966 -1.36198,-0.90229 -2.89604,-1.51923 -4.56276,-1.79745 -1.66678,-0.27814 -3.32535,-0.39527 -4.97756,-0.36871 -0.91925,0.004 -2.07802,0.0118 -3.54881,0.046 -1.47082,0.0339 -2.41467,0.0875 -2.8114,0.0922 -0.23348,-0.004 -0.98712,-0.0583 -2.25834,-0.0922 -1.27124,-0.0339 -2.52979,-0.0411 -3.77925,-0.046 z m 85.81678,0 c -0.28789,-10e-4 -0.51704,0.028 -0.64524,0.0922 -0.12817,0.0642 -0.18677,0.17872 -0.18436,0.32262 0.003,0.0932 0.0633,0.19071 0.1382,0.27653 0.0749,0.0858 0.15801,0.13229 0.27653,0.13819 0.18143,3e-5 0.40829,0.0171 0.69132,0.046 0.28302,0.029 0.57814,0.0341 0.87569,0.0922 0.54307,0.10767 0.95275,0.40993 1.1983,0.8296 0.24553,0.41975 0.36521,1.0102 0.41479,1.84354 0.0556,0.64956 0.0801,1.67387 0.0922,3.04184 0.0118,1.36802 0.0485,3.90705 0.046,7.6046 l 0,8.71072 c 0.003,2.40096 -0.051,4.51809 -0.0922,6.36022 -0.0412,1.84213 -0.11681,3.29574 -0.23045,4.33231 -0.0702,0.72937 -0.19694,1.30505 -0.3687,1.75137 -0.17176,0.44633 -0.49131,0.70985 -0.96786,0.82959 -0.23948,0.0605 -0.50049,0.13834 -0.78351,0.18435 -0.28305,0.046 -0.54402,0.0437 -0.7835,0.046 -0.14394,0.006 -0.21239,0.0524 -0.27653,0.13819 -0.0642,0.0858 -0.0935,0.18341 -0.0922,0.27653 0.0103,0.2806 0.25128,0.42447 0.78351,0.4148 0.87813,-0.007 1.87086,-0.0413 2.99575,-0.0922 1.12487,-0.0507 1.83448,-0.085 2.07398,-0.0922 0.1899,0.007 0.92649,0.0413 2.21225,0.0922 1.28573,0.0507 2.65173,0.0849 4.14796,0.0922 0.28782,-0.003 0.51702,-0.0171 0.64524,-0.0922 0.12816,-0.0749 0.18673,-0.20407 0.18436,-0.32262 10e-4,-0.0931 -0.028,-0.19066 -0.0922,-0.27653 -0.0642,-0.0858 -0.17868,-0.13229 -0.32262,-0.13819 -0.25283,-0.003 -0.6113,-1.3e-4 -1.06004,-0.046 -0.44876,-0.046 -0.84646,-0.12388 -1.24439,-0.18435 -0.72695,-0.11976 -1.20257,-0.38328 -1.42874,-0.82959 -0.22622,-0.44632 -0.40162,-1.022 -0.46088,-1.75137 -0.11135,-1.03657 -0.16017,-2.49018 -0.18436,-4.33231 -0.0242,-1.84213 -0.0509,-3.95926 -0.046,-6.36022 l 0,-8.71072 c -0.001,-3.69755 0.04,-6.23658 0.046,-7.6046 0.006,-1.36797 0.0183,-2.39228 0.046,-3.04184 0.0386,-0.85753 0.17289,-1.47472 0.41479,-1.88963 0.24191,-0.41484 0.7053,-0.69772 1.38266,-0.8296 0.28544,-0.0556 0.49295,-0.0801 0.69133,-0.0922 0.19836,-0.0118 0.38372,-0.003 0.55306,0 0.0931,-0.006 0.19066,-0.0524 0.27653,-0.13819 0.0858,-0.0858 0.13214,-0.18338 0.13819,-0.27654 0.003,-0.14394 -0.0562,-0.25844 -0.18435,-0.32261 -0.12817,-0.064 -0.3113,-0.0934 -0.59915,-0.0922 -0.88418,0.004 -1.93525,0.0118 -3.08793,0.046 -1.15272,0.0339 -1.81141,0.0875 -2.0279,0.0922 -0.23711,-0.004 -0.93702,-0.0583 -2.07398,-0.0922 -1.13698,-0.0339 -2.15417,-0.0411 -3.08793,-0.046 z m 69.73189,0 c -0.22981,9e-5 -0.40779,0.0341 -0.50697,0.0922 -0.0991,0.0581 -0.1407,0.16043 -0.1382,0.27653 0.003,0.12094 0.0403,0.23071 0.1382,0.32262 0.0979,0.0919 0.21992,0.13347 0.3687,0.13819 0.22014,3e-5 0.55904,0.0221 0.96786,0.13819 0.40883,0.11622 0.80399,0.32085 1.1983,0.55306 0.47052,0.31333 0.98764,0.75481 1.56701,1.33657 0.57938,0.58182 1.18179,1.33549 1.79745,2.25834 0.65262,0.98558 1.67317,2.54573 3.04184,4.70102 1.36866,2.15535 2.65113,4.22699 3.87144,6.17586 1.22027,1.9489 1.91256,3.09039 2.12007,3.45664 0.37612,0.65317 0.64935,1.3167 0.82959,2.02789 0.18023,0.71123 0.27774,1.75007 0.27653,3.04184 l 0,4.24015 c 0.003,0.43423 0.0118,1.07586 0,1.9818 -0.0118,0.90596 -0.0366,1.90584 -0.0922,2.94966 -0.0484,0.72937 -0.19225,1.30505 -0.4148,1.75137 -0.22255,0.44633 -0.5933,0.70985 -1.10612,0.82959 -0.23711,0.0605 -0.47133,0.13834 -0.73742,0.18435 -0.26613,0.046 -0.54644,0.0437 -0.78351,0.046 -0.14394,0.006 -0.25847,0.0524 -0.32261,0.13819 -0.0642,0.0858 -0.0935,0.18341 -0.0922,0.27653 -0.003,0.14395 0.0562,0.25848 0.18435,0.32262 0.12817,0.0642 0.35734,0.0934 0.64524,0.0922 0.85394,-0.007 1.86602,-0.0413 2.99575,-0.0922 1.12972,-0.0507 1.76647,-0.085 1.98181,-0.0922 0.21767,0.007 0.96652,0.0413 2.25834,0.0922 1.29177,0.0507 2.699,0.0849 4.19405,0.0922 0.26241,-0.003 0.46004,-0.0171 0.59915,-0.0922 0.13908,-0.0749 0.22923,-0.20407 0.23044,-0.32262 10e-4,-0.0931 -0.0301,-0.19066 -0.0922,-0.27653 -0.0641,-0.0858 -0.17872,-0.13229 -0.32262,-0.13819 -0.25637,-0.003 -0.60046,-1.3e-4 -1.06003,-0.046 -0.45966,-0.046 -0.87185,-0.12388 -1.24439,-0.18435 -0.73541,-0.11976 -1.24999,-0.38328 -1.52092,-0.82959 -0.27088,-0.44632 -0.42219,-1.022 -0.46089,-1.75137 -0.0835,-1.04382 -0.16621,-2.0437 -0.18435,-2.94966 -0.0202,-0.90594 -0.004,-1.54757 0,-1.9818 l 0,-4.24015 c -0.0282,-0.80797 -0.0242,-1.6347 0,-2.44269 0.0242,-0.80795 0.23758,-1.62272 0.64524,-2.48877 0.42036,-0.81495 1.31735,-2.34149 2.67313,-4.56277 1.35574,-2.22123 2.72123,-4.42836 4.14797,-6.63674 1.42669,-2.20832 2.45462,-3.74038 3.08793,-4.51667 0.52734,-0.64949 0.98337,-1.12282 1.33656,-1.47483 0.35312,-0.35194 0.77506,-0.64959 1.24439,-0.92177 0.4185,-0.22977 0.81134,-0.40775 1.24439,-0.50698 0.43297,-0.0991 0.80373,-0.1407 1.10612,-0.13819 0.20437,-0.007 0.39673,-0.0755 0.50698,-0.18435 0.11002,-0.10885 0.13701,-0.24533 0.13819,-0.36871 -0.004,-0.0883 -0.0634,-0.13229 -0.18435,-0.18435 -0.12094,-0.0519 -0.28183,-0.0909 -0.46089,-0.0922 -0.61812,0.004 -1.51335,0.0118 -2.71922,0.046 -1.20596,0.0339 -1.95959,0.0875 -2.25834,0.0922 -0.24185,-0.004 -0.72238,-0.0583 -1.42874,-0.0922 -0.70639,-0.0339 -1.41371,-0.0411 -2.12007,-0.046 -0.53225,0.0103 -0.77383,0.0928 -0.7835,0.27653 0.003,0.11858 0.0513,0.2647 0.18435,0.36871 0.13303,0.10397 0.31834,0.17002 0.55306,0.23044 0.28781,0.0858 0.47093,0.25167 0.59915,0.46088 0.12816,0.2093 0.23286,0.4825 0.23044,0.8296 0.003,0.31691 -0.0962,0.68765 -0.23044,1.10612 -0.13421,0.41853 -0.32949,0.87965 -0.64524,1.42874 -0.37649,0.64943 -1.16141,1.97247 -2.35051,3.96362 -1.18914,1.9912 -2.3929,3.99483 -3.5949,6.03759 -1.20205,2.0428 -2.02771,3.48203 -2.44269,4.28623 l -9.26379,-15.39356 c -0.18143,-0.31567 -0.36909,-0.61331 -0.50697,-0.92177 -0.1379,-0.30842 -0.1771,-0.6231 -0.18436,-0.96786 10e-4,-0.20074 0.0282,-0.37872 0.13819,-0.50697 0.11003,-0.12816 0.25646,-0.23789 0.46089,-0.32262 0.23706,-0.087 0.44916,-0.18943 0.59915,-0.27653 0.14999,-0.087 0.2256,-0.14335 0.23044,-0.23044 0.007,-0.11607 -0.0439,-0.21844 -0.13819,-0.27653 -0.0944,-0.058 -0.27006,-0.0922 -0.55306,-0.0922 -1.0257,0.004 -1.95989,0.0118 -2.8114,0.046 -0.85152,0.0339 -1.40022,0.0875 -1.6131,0.0922 -0.25037,-0.004 -0.96762,-0.0583 -2.21225,-0.0922 -1.24462,-0.0339 -2.18363,-0.0411 -2.81139,-0.046 z m -143.51957,1.75136 c 2.75532,0.0193 4.90173,0.86089 6.45239,2.53487 1.5506,1.67404 2.32387,4.04731 2.35051,7.14372 -0.0193,1.89296 -0.30479,3.47107 -0.87568,4.74711 -0.57094,1.27609 -1.32204,2.22479 -2.21225,2.8114 -0.61689,0.39189 -1.22924,0.63583 -1.88963,0.73742 -0.66043,0.10161 -1.31887,0.15278 -1.93572,0.13819 -1.17811,-0.006 -2.28798,-0.0866 -3.36446,-0.23044 -1.0765,-0.14395 -1.83501,-0.2977 -2.25833,-0.50698 -0.11607,-0.0847 -0.21848,-0.17733 -0.27653,-0.27653 -0.0581,-0.0991 -0.0922,-0.22597 -0.0922,-0.36871 l 0,-15.85444 c 0.003,-0.14394 0.0633,-0.27555 0.13819,-0.36871 0.0749,-0.0931 0.15799,-0.17355 0.27653,-0.23044 0.28665,-0.0628 0.78901,-0.12138 1.47483,-0.18435 0.6858,-0.0628 1.43208,-0.0873 2.21225,-0.0922 z"
       id="path4032"
       style="font-size:14.40310001px;font-variant:normal;font-weight:normal;font-stretch:normal;writing-mode:lr-tb;fill:#000000;fill-opacity:1;fill-rule:nonzero;stroke:none;font-family:Trajan Pro;-inkscape-font-specification:TrajanPro-Regular" />
  </g>
</svg>
