<?xml version="1.0" encoding="UTF-8" standalone="no"?>
<!-- Created with Inkscape (http://www.inkscape.org/) -->
<svg
   xmlns:svg="http://www.w3.org/2000/svg"
   xmlns="http://www.w3.org/2000/svg"
   version="1.0"
   width="480"
   height="400"
   id="svg2">
  <defs
     id="defs4" />
  <path
     d="M 274.35743,155.69461 A 110.66221,110.66221 0 1 1 53.033012,155.69461 A 110.66221,110.66221 0 1 1 274.35743,155.69461 z"
     transform="matrix(1.7036507,0,0,1.7036507,-73.672053,-65.21397)"
     id="kreis_links"
     style="fill:#c00000;fill-opacity:1;fill-rule:nonzero;stroke:none;stroke-width:1;stroke-linecap:butt;stroke-linejoin:miter;stroke-miterlimit:4;stroke-dasharray:none;stroke-opacity:1" />
  <path
     d="M 274.35743,155.69461 A 110.66221,110.66221 0 1 1 53.033012,155.69461 A 110.66221,110.66221 0 1 1 274.35743,155.69461 z"
     transform="matrix(1.6855416,0,0,1.6855416,4.10609,-62.39448)"
     id="kreis_rechts"
     style="fill:#ffffff;fill-opacity:1;fill-rule:nonzero;stroke:#c00000;stroke-width:2.22480416;stroke-linecap:butt;stroke-linejoin:miter;stroke-miterlimit:4;stroke-dasharray:none;stroke-opacity:1" />
  <path
     d="M 241.0625,14.9375 L 241.0625,385.125 C 327.99843,368.36079 393.74999,291.83756 393.75,200.03125 C 393.75,108.22494 327.99842,31.701715 241.0625,14.9375 z"
     id="halbkreis"
     style="fill:#c00000;fill-opacity:1;fill-rule:nonzero;stroke:none;stroke-width:1;stroke-linecap:butt;stroke-linejoin:miter;stroke-miterlimit:4;stroke-dasharray:none;stroke-opacity:1" />
</svg>
