<svg xmlns="http://www.w3.org/2000/svg" x="0px" y="0px" width="300px" height="124.41px">
<path fill="#1D3A83" d="M48.95,62.84V95.5L19.82,62.84H4.77v60.94h16.76V91.11l28.72,32.66H65.7V62.84H48.95z M126.63,37.25V30.6
	V24.6v0V3.28l-16.39,0l-0.37,0V24.6v12.64c0,1.49-0.23,2.85-0.7,4.07c-0.6,1.56-1.58,2.93-2.96,4.11c-2.57,2.2-6.32,3.52-10.02,3.53
	l0-0.01c0,0-0.01,0-0.01,0c0,0-0.01,0-0.01,0l0,0.01c-3.7-0.01-7.45-1.33-10.02-3.53c-1.38-1.18-2.37-2.54-2.96-4.11
	c-0.47-1.23-0.7-2.58-0.7-4.07V24.6V3.27l-0.37,0l-16.39,0V24.6v0v5.99v6.65v4.07c0,13.47,14.55,24.18,29.68,24.39
	c0.16,0,0.31,0.01,0.47,0.01c0.06,0,0.12,0,0.18,0c0.04,0,0.08,0,0.11,0v0c0,0,0.01,0,0.01,0c0,0,0.01,0,0.01,0
	c0.01,0,0.01,0,0.02,0l-0.01,0c0.03,0,0.07,0,0.1,0c0.06,0,0.12,0,0.18,0c0.16,0,0.31,0,0.47-0.01
	c15.13-0.21,29.68-10.61,29.68-24.39V37.25z M47.46,41.32c-2.7,4.51-7.53,7.54-13.05,7.61c-0.07,0-0.14,0-0.22,0
	c-8.6,0-15.56-7.15-15.57-15.98c0-8.82,6.97-15.97,15.57-15.97c0.07,0,0.14,0,0.22,0c5.52,0.08,10.35,3.1,13.05,7.61h18.26
	c0-13.75-14.48-24.12-29.57-24.39c-0.04,0-0.07,0-0.11,0c-0.16,0-0.31-0.01-0.47-0.01c-0.06,0-0.12,0-0.18,0c-0.03,0-0.07,0-0.1,0
	h0.01c-0.01,0-0.01,0-0.02,0c0,0-0.01,0-0.01,0s-0.01,0-0.01,0c-0.04,0-0.08,0-0.11,0c-0.06,0-0.12,0-0.18,0
	c-0.16,0-0.31,0-0.47,0.01h-1.23c-11.99,0-22.48,6.44-28.18,16.06C2.17,21.16,0.5,26.86,0.5,32.96v0v0c0,6.1,1.67,11.8,4.57,16.69
	c5.71,9.61,16.19,16.06,28.18,16.06h1.23c0.16,0,0.31,0.01,0.47,0.01c0.06,0,0.12,0,0.18,0c0.04,0,0.08,0,0.11,0v0
	c0,0,0.01,0,0.01,0s0.01,0,0.01,0c0.01,0,0.01,0,0.02,0l-0.01,0c0.03,0,0.07,0,0.1,0c0.06,0,0.12,0,0.18,0c0.16,0,0.31,0,0.47-0.01
	c0.04,0,0.07,0,0.11,0c15.09-0.26,29.57-10.64,29.57-24.39H47.46z M109.88,62.84L96.17,90.79L82.46,62.84H65.7l22.09,45.04v15.89
	h16.76v-15.89l22.09-45.04H109.88z M142.06,30.32V7.29h-5.59V3.22h15.63v4.08h-5.59v23.03H142.06z M171.66,30.32V3.22h-4.42v11.06
	h-7.7V3.22h-4.49v27.1h4.49v-12h7.7v12H171.66z M189.36,30.32v-4.08h-9.85v-7.96h6.98v-3.93h-6.98V7.29h9.36V3.22h-13.85v27.1
	H189.36z M211.33,21.07c-0.58,3.75-1.91,5.62-4,5.62c-0.73,0-1.35-0.17-1.87-0.51c-0.52-0.34-0.94-0.91-1.28-1.7
	c-0.34-0.79-0.59-1.82-0.75-3.1c-0.16-1.27-0.25-2.85-0.25-4.74c0-3.45,0.35-5.94,1.06-7.47c0.7-1.53,1.75-2.3,3.13-2.3
	c1.94,0,3.18,1.71,3.74,5.13l4.15-0.38c-0.18-1.38-0.45-2.62-0.81-3.7c-0.37-1.08-0.86-2-1.47-2.76c-0.62-0.75-1.39-1.33-2.32-1.72
	c-0.93-0.39-2.05-0.58-3.36-0.58c-1.61,0-2.97,0.35-4.08,1.06c-1.11,0.7-2,1.67-2.68,2.91c-0.68,1.23-1.17,2.69-1.47,4.36
	c-0.3,1.67-0.45,3.49-0.45,5.45c0,2.19,0.14,4.15,0.43,5.87c0.29,1.72,0.77,3.19,1.43,4.4c0.67,1.21,1.55,2.13,2.64,2.77
	c1.09,0.64,2.46,0.96,4.1,0.96c2.49,0,4.39-0.77,5.7-2.3c1.31-1.53,2.18-3.82,2.6-6.87L211.33,21.07z M218.31,30.32h4.49V3.22h-4.49
	V30.32z M235.75,30.32V7.29h5.59V3.22h-15.63v4.08h5.59v23.03H235.75z M254.09,30.32V19.37l6.79-16.16h-4.68l-4.34,11.02h-0.08
	l-4.11-11.02h-4.76l6.68,16.16v10.95H254.09z M148.71,53.46c0,1.58-0.33,2.73-1,3.43c-0.67,0.71-1.64,1.06-2.93,1.06
	c-1.28,0-2.23-0.35-2.83-1.06c-0.6-0.7-0.91-1.85-0.91-3.43V34.4h-4.49v18.46c0,2.94,0.63,5.17,1.89,6.68
	c1.26,1.51,3.35,2.26,6.27,2.26c2.94,0,5.08-0.75,6.42-2.26c1.33-1.51,2-3.74,2-6.68V34.4h-4.42V53.46z M173.09,61.5V34.4h-4.08
	v16.46h-0.08L161.5,34.4h-5.17v27.1h4V42.78h0.08l8.64,18.72H173.09z M176.34,61.5h4.49V34.4h-4.49V61.5z M194.61,61.5l6.61-27.1
	h-4.76l-4.38,19.85H192l-4.19-19.85h-4.76l6.53,27.1H194.61z M217.78,61.5v-4.08h-9.85v-7.96h6.98v-3.93h-6.98v-7.06h9.36V34.4
	h-13.85v27.1H217.78z M224.92,46.51v-8.23h2.53c0.5,0,1.01,0.03,1.51,0.09c0.5,0.06,0.95,0.23,1.34,0.49
	c0.39,0.26,0.71,0.67,0.96,1.21c0.25,0.54,0.38,1.29,0.38,2.25c0,0.88-0.12,1.59-0.36,2.13c-0.24,0.54-0.55,0.96-0.94,1.26
	c-0.39,0.3-0.84,0.51-1.34,0.62c-0.5,0.11-1.01,0.17-1.51,0.17H224.92z M237.11,61.5l-4.72-12.98c1.18-0.53,2.11-1.33,2.79-2.4
	c0.68-1.07,1.02-2.47,1.02-4.21c0-2.64-0.71-4.55-2.13-5.74c-1.42-1.18-3.58-1.77-6.47-1.77h-7.17v27.1h4.49V50.33h3.43l3.89,11.17
	H237.11z M254.13,40.81c-0.2-1.03-0.49-1.96-0.85-2.79c-0.37-0.83-0.85-1.54-1.45-2.13c-0.6-0.59-1.34-1.04-2.21-1.36
	c-0.87-0.31-1.89-0.47-3.08-0.47c-2.27,0-4.04,0.61-5.32,1.83c-1.28,1.22-1.92,2.89-1.92,5c0,1.46,0.27,2.67,0.81,3.64
	c0.54,0.97,1.22,1.81,2.04,2.51c0.82,0.7,1.7,1.32,2.64,1.83c0.94,0.52,1.82,1.05,2.64,1.6c0.82,0.55,1.5,1.17,2.04,1.85
	c0.54,0.68,0.81,1.51,0.81,2.49c0,1.06-0.31,1.86-0.94,2.42c-0.63,0.55-1.46,0.83-2.49,0.83c-1.21,0-2.1-0.35-2.68-1.04
	c-0.58-0.69-1.01-1.73-1.28-3.11l-4.15,0.72c0.43,2.44,1.26,4.25,2.49,5.44c1.23,1.18,3.06,1.77,5.47,1.77
	c2.44,0,4.37-0.64,5.79-1.91c1.42-1.27,2.13-3.09,2.13-5.45c0-1.48-0.28-2.72-0.83-3.72c-0.55-0.99-1.24-1.85-2.06-2.57
	c-0.82-0.72-1.7-1.33-2.66-1.85c-0.96-0.51-1.84-1.04-2.66-1.58c-0.82-0.54-1.5-1.13-2.06-1.76c-0.55-0.63-0.83-1.42-0.83-2.38
	c0-0.88,0.27-1.57,0.81-2.06c0.54-0.49,1.29-0.74,2.25-0.74c1.06,0,1.86,0.33,2.42,1c0.55,0.67,0.97,1.58,1.25,2.74L254.13,40.81z
	 M256.85,61.5h4.49V34.4h-4.49V61.5z M274.36,61.5V38.47h5.59V34.4h-15.63v4.08h5.59V61.5H274.36z M292.71,61.5V50.55l6.79-16.16
	h-4.68l-4.34,11.02h-0.08l-4.11-11.02h-4.76l6.68,16.16V61.5H292.71z M145.46,89.17c-0.7,0-1.33-0.18-1.87-0.55
	c-0.54-0.36-1-0.94-1.38-1.74c-0.38-0.79-0.66-1.82-0.85-3.1c-0.19-1.27-0.28-2.82-0.28-4.66c0-3.52,0.36-6.07,1.09-7.64
	c0.73-1.57,1.82-2.36,3.28-2.36c1.46,0,2.56,0.79,3.3,2.36c0.74,1.57,1.11,4.12,1.11,7.64c0,1.84-0.09,3.39-0.28,4.66
	c-0.19,1.27-0.47,2.3-0.85,3.1c-0.38,0.79-0.84,1.37-1.4,1.74C146.8,88.99,146.17,89.17,145.46,89.17 M145.46,93.02
	c3.12,0,5.4-1.2,6.83-3.6c1.43-2.4,2.15-5.83,2.15-10.29c0-4.48-0.7-7.91-2.11-10.31c-1.41-2.39-3.7-3.59-6.87-3.59
	c-1.59,0-2.94,0.3-4.08,0.91c-1.13,0.6-2.06,1.49-2.77,2.66c-0.72,1.17-1.25,2.62-1.59,4.36c-0.34,1.74-0.51,3.72-0.51,5.96
	c0,4.45,0.71,7.88,2.13,10.29C140.07,91.82,142.34,93.02,145.46,93.02 M161.81,92.68V80.64h7.13v-3.93h-7.13v-7.06h9.59v-4.08
	h-14.08v27.1H161.81z M153.35,123.86v-27.1h-4.08v16.46h-0.08l-7.44-16.46h-5.17v27.1h4v-18.72h0.08l8.64,18.72H153.35z
	 M170.75,123.86v-4.08h-9.85v-7.96h6.98v-3.93h-6.98v-7.06h9.36v-4.08h-13.85v27.1H170.75z M193.1,123.86l5.4-27.1h-4.42
	l-3.17,18.53h-0.08l-3.06-18.53h-4.42l-3.1,18.57h-0.08l-3.17-18.57h-4.49l5.44,27.1h4.53l2.94-18.46h0.08l3.1,18.46H193.1z
	 M216.84,123.86v-10.95l6.79-16.16h-4.68l-4.34,11.02h-0.08l-4.11-11.02h-4.76l6.68,16.16v10.95H216.84z M232.35,120.35
	c-0.7,0-1.33-0.18-1.87-0.55c-0.54-0.36-1-0.94-1.38-1.74c-0.38-0.79-0.66-1.82-0.85-3.1c-0.19-1.27-0.28-2.82-0.28-4.66
	c0-3.52,0.36-6.07,1.09-7.64c0.73-1.57,1.82-2.36,3.28-2.36c1.46,0,2.56,0.79,3.3,2.36c0.74,1.57,1.11,4.12,1.11,7.64
	c0,1.84-0.09,3.39-0.28,4.66c-0.19,1.27-0.47,2.3-0.85,3.1c-0.38,0.79-0.84,1.37-1.4,1.74
	C233.69,120.17,233.06,120.35,232.35,120.35 M232.35,124.2c3.12,0,5.4-1.2,6.83-3.6c1.43-2.4,2.15-5.83,2.15-10.29
	c0-4.48-0.7-7.91-2.11-10.31c-1.41-2.39-3.7-3.59-6.87-3.59c-1.59,0-2.94,0.3-4.08,0.91c-1.13,0.6-2.06,1.49-2.77,2.66
	c-0.72,1.17-1.25,2.62-1.59,4.36c-0.34,1.74-0.51,3.72-0.51,5.96c0,4.45,0.71,7.88,2.13,10.29C226.96,123,229.23,124.2,232.35,124.2
	 M248.58,108.88v-8.23h2.53c0.5,0,1.01,0.03,1.51,0.09c0.5,0.06,0.95,0.23,1.34,0.49c0.39,0.26,0.71,0.67,0.96,1.21
	c0.25,0.54,0.38,1.29,0.38,2.25c0,0.88-0.12,1.59-0.36,2.13c-0.24,0.54-0.55,0.96-0.94,1.26c-0.39,0.3-0.84,0.51-1.34,0.62
	c-0.5,0.11-1.01,0.17-1.51,0.17H248.58z M260.77,123.86l-4.72-12.98c1.18-0.53,2.11-1.33,2.79-2.4c0.68-1.07,1.02-2.47,1.02-4.21
	c0-2.64-0.71-4.55-2.13-5.74c-1.42-1.18-3.58-1.77-6.47-1.77h-7.17v27.1h4.49v-11.17h3.43l3.89,11.17H260.77z M280.18,123.86
	l-6.83-17.21l6.08-9.89h-4.72l-7.1,11.78h-0.08V96.76h-4.42v27.1h4.42v-8.53l2.76-4.23l5.13,12.76H280.18z"/>
</svg>
