<?xml version="1.0" encoding="UTF-8"?>
<svg id="uuid-a1834a53-7f7f-4f75-9a28-9ee6ae6833ba" data-name="Слой 2" xmlns="http://www.w3.org/2000/svg" viewBox="0 0 81.48 81.48">
  <defs>
    <style>
      .uuid-903e4dbb-c515-481f-bf91-b66c02ec2d2e, .uuid-e5cb5d0c-da8b-4be6-84b7-1195932b75d2, .uuid-9fe863ea-2e86-4f95-a128-3b436ab92658 {
        fill-rule: evenodd;
      }

      .uuid-903e4dbb-c515-481f-bf91-b66c02ec2d2e, .uuid-792bdb33-bc77-4dec-8a4b-ce51d33030ff {
        fill: #db1f25;
      }

      .uuid-e5cb5d0c-da8b-4be6-84b7-1195932b75d2 {
        fill: #fff;
      }

      .uuid-9fe863ea-2e86-4f95-a128-3b436ab92658 {
        fill: #5b5b5b;
      }

      .uuid-464fc301-bcf0-4586-9cb7-4972ddf59ae0 {
        fill: #575656;
      }
    </style>
  </defs>
  <g id="uuid-11a1f8b9-5af4-464d-bd1e-e2c009d6a025" data-name="Слой 1">
    <g>
      <path class="uuid-e5cb5d0c-da8b-4be6-84b7-1195932b75d2" d="M40.74,0c22.5,0,40.74,18.24,40.74,40.74s-18.24,40.74-40.74,40.74S0,63.24,0,40.74,18.24,0,40.74,0"/>
      <path class="uuid-9fe863ea-2e86-4f95-a128-3b436ab92658" d="M13,52.89c-.5-.5-1.2-.82-1.97-.82s-1.46,.31-1.97,.82c-.5,.5-.82,1.2-.82,1.97s.31,1.46,.82,1.97c.5,.5,1.2,.82,1.97,.82s1.46-.31,1.97-.82c.5-.5,.82-1.2,.82-1.97s-.31-1.46-.82-1.97m58.39-15.02H10.44c.04-.39,.08-.78,.13-1.17h60.7c.05,.39,.09,.78,.13,1.17Zm-16.02,13.76h1.99v-2.72h-1.99v2.72Zm-3.08,0h1.91v-7.38h-1.91v7.38Zm-25.09,0h1.91v-7.38h-1.91v7.38Zm-3.16,0h1.99v-2.72h-1.99v2.72Zm39.89,9.28H25.48c-.02-.39-.05-.78-.1-1.17h39.53c-.32,.4-.64,.79-.98,1.17Zm2.21-2.84H25.07c-.1-.39-.21-.79-.34-1.17h42.18c-.25,.4-.5,.79-.77,1.17Zm1.65-2.68H24.11c-.2-.4-.41-.79-.65-1.17h44.94c-.19,.39-.4,.79-.61,1.17Zm-32.42-16.42v3.87h-1.17v-3.87h1.17Zm3.93,0v3.87h-1.17v-3.87h1.17Zm3.95,0v3.87h-1.17v-3.87h1.17Zm3.97,0v3.87h-1.17v-3.87h1.17Zm18.71,0v5.07h-1.17v-5.07h1.17Zm-53.14,0v5.07h-1.17v-5.07h1.17Zm3.87,0v5.07h-1.17v-5.07h1.17Zm3.84,0v5.73h-1.17v-5.73h1.17Zm41.59,0v5.73h-1.17v-5.73h1.17Zm7.71,0v5.07h-1.17v-5.07h1.17Zm-33.1,12.65v-4.3h-1.14v4.3h1.14Zm6.84,0v-4.3h-5.67v4.3h5.67Zm2.31,0v-4.3h-1.14v4.3h1.14Zm-24.6,0h1.62v-12.65h1.17v8.76h1.99v-8.76h1.17v4.1h1.91v-4.1h1.17v12.65h4.11v-5.47h12.63v5.47h4.11v-12.65h1.17v4.1h1.91v-4.1h1.17v8.76h1.99v-8.76h1.17v12.65h1.47v-5.74l.68,.3c.54,.24,2.14,.41,4.04,.53,2.04,.12,4.39,.18,6.17,.19-.07,.33-.14,.65-.22,.97-1.77-.02-4.04-.07-6.01-.19-1.49-.09-2.83-.22-3.69-.4v4.35h8.54c-.12,.33-.25,.65-.39,.98H22.24c-.31-.34-.63-.67-.99-.98Zm-10.32-4.74c1.64-.03,3.67-.09,5.45-.21,1.79-.12,3.29-.28,3.78-.5l.68-.3v5.4c-.31-.25-.63-.48-.98-.71v-3.3c-.8,.17-2.04,.29-3.43,.38-1.71,.11-3.67,.17-5.29,.2-.08-.32-.15-.64-.21-.97Zm8.85,5.43c1.11,.59,2.07,1.61,2.81,2.92,1,1.76,1.6,4.07,1.6,6.57,0,2.19-.46,4.22-1.24,5.87,.73,.49,1.49,.95,2.25,1.38,.31,.17,.57,.31,.89,.45,12.51,5.78,27.7,4.14,37.72-5.87,6.02-6.02,9.54-14.37,9.48-22.9-.13-17.92-14.36-32.4-32.37-32.4S8.57,23.03,8.55,40.69c-.03,3.15,.48,6.47,1.41,9.51h0c.06,.2,.12,.4,.19,.6,.28-.06,.58-.09,.88-.09,1.15,0,2.18,.46,2.93,1.22,.75,.75,1.21,1.79,1.21,2.93s-.46,2.18-1.21,2.93c-.75,.75-1.79,1.21-2.93,1.21s-2.18-.46-2.93-1.21c-.75-.75-1.21-1.79-1.21-2.93s.46-2.18,1.21-2.93c.24-.24,.5-.44,.78-.62-.53-1.61-.94-3.26-1.22-4.92-.32-1.87-.48-3.76-.48-5.65,0-9.32,3.78-17.75,9.88-23.85S31.6,7.01,40.92,7.01s17.75,3.78,23.85,9.88c13.1,13.1,13.1,34.61,0,47.71-6.1,6.1-14.54,9.88-23.85,9.88-3.44,0-6.85-.53-10.1-1.55-3.01-.94-5.88-2.31-8.53-4.06-1.2,1.85-2.87,2.99-4.74,2.99-1.76,0-3.36-1.02-4.54-2.7-.96-1.36-1.65-3.16-1.94-5.21-.43-.31-.75-.97-.8-1.74-.06-1.11,.48-2.04,1.2-2.08,.72-.04,1.36,.83,1.42,1.94,.04,.69-.16,1.31-.48,1.69,.26,1.83,.87,3.43,1.71,4.62,.93,1.32,2.14,2.12,3.43,2.12,1.4,0,2.68-.93,3.64-2.43,1.01-1.59,1.64-3.81,1.64-6.26,0-2.26-.53-4.34-1.42-5.9-.64-1.13-1.46-1.99-2.38-2.44-.43,.15-1,.16-1.58-.02-1.06-.33-1.75-1.16-1.54-1.85,.21-.69,1.25-.99,2.31-.66,.83,.26,1.44,.82,1.56,1.39Zm25.97,16.31c-.31,0-.57-.06-.79-.17-.21-.12-.38-.29-.49-.53-.11-.24-.17-.54-.18-.89h1.01c0,.21,.05,.36,.13,.46,.08,.1,.19,.15,.33,.15s.25-.05,.33-.13c.08-.09,.12-.21,.12-.37v-.89c0-.15-.03-.27-.1-.36-.07-.08-.17-.13-.29-.13-.12,0-.21,.03-.29,.09-.08,.06-.12,.15-.14,.25h-.97v-3.18h2.71v.99h-1.7v1.09c.08-.08,.18-.13,.3-.17,.12-.04,.23-.06,.35-.06,.24,0,.45,.06,.62,.17,.17,.12,.3,.28,.4,.5,.09,.22,.13,.49,.13,.8v.89c0,.32-.06,.58-.17,.81-.12,.22-.28,.39-.5,.51-.22,.12-.48,.18-.79,.18Zm-3.78,0c-.31,0-.57-.06-.79-.17-.21-.12-.38-.29-.49-.53-.11-.24-.17-.54-.18-.89h1.01c0,.21,.05,.36,.13,.46,.08,.1,.19,.15,.33,.15s.25-.05,.33-.13c.08-.09,.12-.21,.12-.37v-.89c0-.15-.03-.27-.1-.36-.07-.08-.17-.13-.29-.13-.12,0-.21,.03-.29,.09-.08,.06-.12,.15-.14,.25h-.97v-3.18h2.71v.99h-1.7v1.09c.08-.08,.18-.13,.3-.17,.12-.04,.23-.06,.35-.06,.24,0,.45,.06,.62,.17,.17,.12,.3,.28,.4,.5,.09,.22,.13,.49,.13,.8v.89c0,.32-.06,.58-.17,.81-.12,.22-.28,.39-.5,.51-.22,.12-.49,.18-.79,.18Zm-3.67-3.32c.15,0,.27-.05,.35-.14,.08-.09,.12-.23,.12-.4v-.4c0-.17-.04-.3-.12-.39-.08-.09-.2-.13-.35-.13-.15,0-.27,.05-.35,.14-.08,.09-.12,.22-.12,.39v.4c0,.17,.04,.3,.13,.39,.08,.09,.2,.14,.35,.14Zm.07,.92c-.09,.02-.18,.04-.28,.04-.26,0-.48-.06-.67-.17-.19-.12-.34-.28-.44-.5-.1-.22-.15-.48-.15-.77v-.41c0-.32,.06-.6,.17-.83,.12-.23,.29-.4,.51-.52,.22-.12,.49-.18,.8-.18s.58,.06,.8,.18c.22,.12,.39,.3,.51,.52,.12,.23,.17,.51,.17,.83v.37c0,.21-.03,.42-.08,.62-.05,.2-.13,.43-.23,.69-.02,.06-.04,.12-.07,.18l-.9,2.29h-1.08c.31-.78,.62-1.56,.94-2.34Zm11.52-1.19c.42,0,.76,.34,.76,.76s-.34,.76-.76,.76-.76-.34-.76-.76,.34-.76,.76-.76Zm-18.23,0c.42,0,.76,.34,.76,.76s-.34,.76-.76,.76-.76-.34-.76-.76,.34-.76,.76-.76Zm4.37,3.53h-1.01v-4.47l-.7,.3v-1.08l.77-.39h.94v5.64Z"/>
      <path class="uuid-792bdb33-bc77-4dec-8a4b-ce51d33030ff" d="M11.03,53.05c1,0,1.81,.81,1.81,1.81s-.81,1.81-1.81,1.81-1.81-.81-1.81-1.81,.81-1.81,1.81-1.81m21.16-1.42v-7.44h17.02v7.44h-1.02v-6.41h-14.98v6.41h-1.02Z"/>
      <path class="uuid-903e4dbb-c515-481f-bf91-b66c02ec2d2e" d="M62.43,35.47h8.65c-.07-.39-.14-.78-.23-1.17h-8.43v1.17Zm-51.67,0h8.35v-1.17H10.98c-.08,.39-.16,.78-.23,1.17Z"/>
      <polygon class="uuid-9fe863ea-2e86-4f95-a128-3b436ab92658" points="22.61 25.52 24.57 20.76 22.69 20.76 21.14 24.77 20.18 24.77 20.18 20.76 18.45 20.76 18.45 30.37 20.18 30.37 20.18 26.43 21.13 26.43 22.98 30.37 24.98 30.37 22.61 25.52"/>
      <path class="uuid-9fe863ea-2e86-4f95-a128-3b436ab92658" d="M26.26,23.72c-.38,.21-.67,.52-.88,.93-.2,.41-.3,.9-.3,1.47v1.76c0,.55,.1,1.01,.31,1.4,.21,.39,.51,.68,.91,.89,.4,.21,.88,.31,1.43,.31,.63,0,1.14-.14,1.54-.42,.4-.28,.66-.69,.79-1.24l-.4-.15-1.04-.4c-.08,.23-.19,.4-.35,.52-.16,.12-.35,.18-.58,.18-.32,0-.56-.09-.74-.27-.17-.18-.26-.43-.26-.76v-.32h3.44v-1.2c0-.63-.1-1.17-.29-1.62-.19-.45-.48-.79-.85-1.02-.37-.23-.83-.35-1.36-.35s-1,.11-1.38,.32m.44,3.88v0Zm0-1.22v-.34c0-.35,.08-.62,.25-.81,.16-.19,.4-.29,.7-.29,.26,0,.47,.08,.63,.25,.16,.17,.25,.4,.25,.69v.49h-1.82Z"/>
      <polygon class="uuid-9fe863ea-2e86-4f95-a128-3b436ab92658" points="35.28 23.51 34.06 27.09 32.85 23.51 31.22 23.51 31.22 30.37 32.74 30.37 32.74 26.4 33.59 28.77 34.54 28.77 35.38 26.34 35.38 30.37 36.9 30.37 36.9 23.51 35.28 23.51"/>
      <path class="uuid-9fe863ea-2e86-4f95-a128-3b436ab92658" d="M40.78,21.69c-.45,.76-1.12,1.71-1.95,2.5,.29,.04,.68,0,.85-.08-.3,.37-.66,.87-.94,1.17l1.62-.37c-.53,.77-1.11,1.43-1.62,1.97l1.2-.28c-.54,.83-1.25,1.74-2.09,2.54,.46,.08,.4,.03,.8,.06-.28,.36-1.04,.99-1.42,1.17h4.79v-10.38h3.1c-.27-.35-.53-.73-.77-1.15l.35,.17c-.18-.26-.35-.57-.52-.92l1.07,.47c-.29-.32-1.6-2.48-1.73-2.91l.81,.41c-.67-.99-1.3-2.89-1.51-3.89-.21,1-.84,2.9-1.51,3.89l.81-.41c-.14,.43-1.44,2.59-1.73,2.91l1.07-.47c-.17,.34-.34,.66-.52,.92l.34-.17c-.52,.92-1.17,1.67-1.71,2.24l1.09-.25c-.38,.61-.73,1.15-.88,1.31l1.02-.45Z"/>
      <path class="uuid-903e4dbb-c515-481f-bf91-b66c02ec2d2e" d="M48.17,20.76v9.61h1.57l-.02-6.28,1.54,4.89h1.21l1.53-5.03v6.42h1.55v-9.61h-1.96l-1.73,5.85-1.71-5.85h-1.98Zm8.33,0l2.58,7.74c-.06,.06-.13,.11-.2,.15-.15,.09-.32,.13-.51,.13h-.69v1.68h.89c.4,0,.74-.07,1.04-.22,.3-.14,.55-.36,.76-.64,.21-.28,.37-.63,.5-1.04l2.21-7.81h-1.76l-1.41,5.42-1.58-5.42h-1.83Zm-13.7,0v9.61h1.73v-7.95h2.9v-1.66h-4.63Z"/>
      <path class="uuid-464fc301-bcf0-4586-9cb7-4972ddf59ae0" d="M57.54,35.43v-2.55l.05,.07-1.04,2.48h-.62v-3.44h.58v2.58l-.06-.07,1.05-2.51h.62v3.44h-.58Zm-3.08,.04c-.22,0-.4-.04-.56-.13-.15-.08-.27-.21-.35-.37-.08-.16-.12-.36-.12-.59v-1.35c0-.23,.04-.42,.12-.59,.08-.16,.2-.28,.35-.37,.15-.08,.34-.13,.56-.13s.4,.04,.54,.13c.15,.09,.26,.22,.34,.39,.08,.17,.13,.39,.15,.66h-.63c0-.12-.03-.23-.06-.31-.03-.08-.08-.14-.13-.18-.06-.04-.12-.06-.2-.06-.08,0-.16,.02-.22,.05-.06,.04-.11,.09-.14,.16-.03,.07-.05,.15-.05,.25v1.35c0,.1,.02,.18,.05,.25,.03,.07,.08,.12,.14,.15,.06,.03,.13,.05,.22,.05,.08,0,.15-.02,.2-.06,.06-.04,.1-.1,.13-.18,.03-.08,.05-.18,.06-.31h.63c-.02,.27-.07,.48-.15,.66-.08,.17-.19,.3-.34,.39-.15,.08-.33,.13-.54,.13Zm-2.42,0c-.22,0-.4-.04-.56-.13-.15-.08-.27-.21-.35-.37-.08-.16-.12-.36-.12-.59v-1.35c0-.23,.04-.42,.12-.59,.08-.16,.2-.28,.35-.37,.15-.08,.34-.13,.56-.13s.4,.04,.54,.13c.15,.09,.26,.22,.34,.39,.08,.17,.13,.39,.15,.66h-.63c0-.12-.03-.23-.06-.31-.03-.08-.08-.14-.13-.18-.06-.04-.12-.06-.2-.06-.08,0-.16,.02-.22,.05-.06,.04-.11,.09-.14,.16-.03,.07-.05,.15-.05,.25v1.35c0,.1,.02,.18,.05,.25,.03,.07,.08,.12,.14,.15,.06,.03,.13,.05,.22,.05,.08,0,.15-.02,.2-.06,.06-.04,.1-.1,.13-.18,.03-.08,.05-.18,.06-.31h.63c-.02,.27-.07,.48-.15,.66-.08,.17-.19,.3-.34,.39-.15,.08-.33,.13-.54,.13Zm-2.53,0c-.22,0-.4-.04-.57-.13-.16-.08-.28-.2-.37-.36-.09-.16-.13-.34-.13-.55v-1.44c0-.21,.04-.4,.13-.55,.09-.16,.21-.28,.37-.36,.16-.08,.35-.13,.57-.13s.41,.04,.57,.13c.16,.08,.28,.2,.37,.36,.09,.16,.13,.34,.13,.55v1.44c0,.21-.04,.4-.13,.55-.09,.16-.21,.28-.37,.36-.16,.09-.35,.13-.57,.13Zm0-.62c.09,0,.17-.02,.23-.06,.07-.04,.12-.09,.15-.16,.03-.07,.05-.15,.05-.24v-1.38c0-.09-.02-.17-.05-.24-.03-.07-.08-.12-.15-.16-.07-.04-.14-.06-.23-.06s-.17,.02-.23,.06c-.07,.04-.12,.09-.15,.16-.03,.07-.05,.15-.05,.24v1.38c0,.09,.02,.17,.05,.24,.03,.07,.08,.12,.15,.16,.07,.04,.14,.06,.23,.06Zm-2.94-2.86h.52c.19,0,.36,.04,.5,.11,.14,.07,.25,.18,.33,.32,.08,.14,.11,.3,.11,.49v.29c0,.18-.04,.34-.12,.48-.08,.14-.19,.24-.33,.31-.14,.07-.31,.11-.5,.11h-.52v1.34h-.62v-3.44h.62Zm0,1.51h.52c.06,0,.12-.01,.16-.04,.05-.03,.08-.07,.11-.12,.03-.05,.04-.12,.04-.19v-.2c0-.07-.01-.14-.04-.19-.03-.05-.06-.1-.11-.12-.05-.03-.1-.04-.17-.04h-.52v.92Zm13.74,1.93v-2.55l.05,.07-1.04,2.48h-.62v-3.44h.58v2.58l-.06-.07,1.05-2.51h.62v3.44h-.58Z"/>
      <path class="uuid-464fc301-bcf0-4586-9cb7-4972ddf59ae0" d="M43.68,34.89h-.97l-.15,.54h-.64l1.07-3.44h.41l1.07,3.44h-.64l-.15-.54Zm-3.4-2.9h.53c.19,0,.35,.03,.49,.1,.13,.06,.24,.16,.31,.28,.07,.12,.1,.27,.1,.45v.18c0,.12-.02,.22-.07,.32-.05,.09-.11,.17-.2,.23-.09,.06-.19,.1-.32,.12,.13,.02,.25,.06,.34,.12,.09,.06,.17,.14,.22,.24,.05,.1,.07,.22,.07,.35v.24c0,.17-.03,.32-.1,.45-.07,.12-.17,.22-.31,.28-.13,.06-.3,.1-.48,.1h-1.19v-3.44h.62Zm0,1.38h.49c.1,0,.18-.03,.24-.08,.06-.06,.08-.13,.08-.24v-.18c0-.09-.03-.16-.08-.21-.06-.05-.14-.07-.24-.07h-.49v.79Zm0,1.48h.5c.11,0,.2-.03,.26-.08,.06-.05,.09-.13,.09-.23v-.23c0-.07-.01-.13-.04-.18-.03-.05-.07-.09-.12-.12-.05-.03-.12-.04-.19-.04h-.49v.89Zm-1.91-.54l-.32-1.17-.32,1.17h.65Zm-.53-2.31h.41l1.07,3.44h-.64l-.15-.54h-.97l-.15,.54h-.64l1.07-3.44Zm-2.58,0h.52c.19,0,.36,.04,.5,.11,.14,.07,.25,.18,.33,.32,.08,.14,.11,.3,.11,.49v.29c0,.18-.04,.34-.12,.48-.08,.14-.19,.24-.33,.31-.14,.07-.31,.11-.5,.11h-.52v1.34h-.62v-3.44h.62Zm0,1.51h.52c.06,0,.12-.01,.16-.04,.05-.03,.08-.07,.11-.12,.03-.05,.04-.12,.04-.19v-.2c0-.07-.01-.14-.04-.19-.02-.05-.06-.1-.11-.12-.05-.03-.1-.04-.17-.04h-.52v.92Zm-2.67-.92v1.4c0,.27-.03,.51-.09,.7-.02,.06-.04,.11-.06,.16h.82v-2.25h-.67Zm-.95,2.25c.12,0,.2-.07,.27-.19,.06-.12,.09-.31,.09-.54v-2.12h1.88v2.85h.33v.59h-2.67v-.59h.1Zm-1.34,.63c-.23,0-.42-.04-.58-.11-.15-.07-.27-.18-.35-.33-.08-.15-.13-.33-.14-.55h.63c0,.13,.05,.23,.12,.3,.07,.06,.18,.1,.31,.1,.13,0,.23-.03,.3-.1,.07-.07,.1-.17,.1-.29v-.18c0-.11-.03-.2-.08-.26-.06-.06-.14-.09-.24-.09h-.49v-.6h.49c.08,0,.15-.02,.2-.07,.05-.05,.07-.12,.07-.2v-.2c0-.1-.03-.18-.09-.24-.06-.06-.14-.08-.25-.08-.12,0-.21,.03-.27,.1-.06,.07-.1,.17-.11,.31h-.62c.02-.23,.06-.41,.14-.56,.08-.15,.19-.26,.34-.33,.15-.07,.33-.11,.54-.11s.38,.03,.52,.1c.15,.07,.26,.16,.33,.3,.08,.13,.11,.28,.11,.47v.19c0,.13-.03,.25-.1,.36-.07,.11-.16,.2-.28,.26,.14,.04,.25,.13,.32,.25,.08,.12,.11,.28,.11,.46v.19c0,.2-.04,.37-.12,.51-.08,.14-.2,.25-.36,.32-.15,.07-.34,.11-.56,.11Zm-2.17-3.48h.62v3.44h-.62v-1.41h-.85v1.41h-.62v-3.44h.62v1.45h.85v-1.45Zm-2.64,3.44v-2.55l.05,.07-1.04,2.48h-.62v-3.44h.58v2.58l-.06-.07,1.05-2.51h.62v3.44h-.58Zm-2.9-3.44h.7v3.44h-.56v-2.54l.03,.15-.58,1.89h-.43l-.58-1.84,.04-.2v2.54h-.56v-3.44h.71l.61,2.1,.62-2.1Zm20.29,2.31h.65l-.32-1.17-.32,1.17Z"/>
    </g>
  </g>
</svg>