<?xml version="1.0" encoding="UTF-8" standalone="no"?>
<!-- Created with Inkscape (http://www.inkscape.org/) -->

<svg
   version="1.1"
   id="svg23"
   width="500"
   height="205"
   viewBox="0 0 500 205"
   sodipodi:docname="Southeast University Name.svg"
   inkscape:version="1.1 (c68e22c387, 2021-05-23)"
   xmlns:inkscape="http://www.inkscape.org/namespaces/inkscape"
   xmlns:sodipodi="http://sodipodi.sourceforge.net/DTD/sodipodi-0.dtd"
   xmlns:xlink="http://www.w3.org/1999/xlink"
   xmlns="http://www.w3.org/2000/svg"
   xmlns:svg="http://www.w3.org/2000/svg">
  <defs
     id="defs27" />
  <sodipodi:namedview
     id="namedview25"
     pagecolor="#ffffff"
     bordercolor="#666666"
     borderopacity="1.0"
     inkscape:pageshadow="2"
     inkscape:pageopacity="0.0"
     inkscape:pagecheckerboard="0"
     showgrid="false"
     inkscape:zoom="0.9983453"
     inkscape:cx="296.99143"
     inkscape:cy="33.054696"
     inkscape:window-width="1368"
     inkscape:window-height="705"
     inkscape:window-x="-8"
     inkscape:window-y="-8"
     inkscape:window-maximized="1"
     inkscape:current-layer="g29" />
  <g
     inkscape:groupmode="layer"
     inkscape:label="Image"
     id="g29">
    <g
       id="g189">
     <path
         style="fill:#291e1c"
         d="M 6.0002621,199.19098 C 6.0001029,196.57289 6.3924157,195.12449 7,195.5 c 0.55,0.33992 1,1.23382 1,1.98644 0,1.74551 4.745451,5.51356 6.943729,5.51356 0.920706,0 2.490168,-0.59679 3.487692,-1.3262 2.863774,-2.09404 1.080482,-5.27063 -4.710467,-8.39078 -6.5647365,-3.53707 -8.5766467,-6.80298 -6.8133313,-11.06 1.6453016,-3.97211 5.9228463,-5.82637 10.0897533,-4.37378 1.682437,0.5865 3.721298,0.81221 4.5308,0.50157 C 22.678793,177.90928 23,178.6952 23,181.95203 c 0,2.52269 -0.394458,3.92222 -1,3.54797 -0.55,-0.33992 -1,-1.24096 -1,-2.00231 0,-3.45249 -7.62447,-5.86003 -9.894808,-3.12444 -1.7220383,2.07493 -0.46113,4.06474 4.191124,6.61391 6.57542,3.60296 8.703684,5.95396 8.703684,9.61457 0,5.18224 -3.761223,7.49422 -11.654401,7.16385 L 6.0005242,203.5 Z m 27.8930069,3.31211 c -8.304546,-4.51376 -8.657861,-17.00095 -0.647211,-22.87431 3.49569,-2.56302 11.433106,-2.72425 15.122043,-0.30716 8.291326,5.43269 8.406283,17.7958 0.211934,22.7927 -3.664717,2.23474 -10.936355,2.42723 -14.686766,0.38877 z m 11.050954,-1.44731 c 3.660849,-3.66085 4.00328,-14.43457 0.62277,-19.59388 -2.136412,-3.26058 -6.942994,-3.37443 -8.945779,-0.2119 -6.493602,10.25383 0.716795,27.41199 8.323009,19.80578 z m 19.284737,2.27493 C 61.413943,202.19809 60,197.11343 60,188.12298 c 0,-7.708 -0.24727,-9.04095 -1.75,-9.43365 -0.9625,-0.25153 1.4,-0.45733 5.25,-0.45733 3.85,0 6.2125,0.2058 5.25,0.45733 C 67.227226,179.08727 67,180.47452 67,189.37332 67,200.43283 67.626165,202 72.045012,202 76.777213,202 78,199.37597 78,189.22095 c 0,-7.63224 -0.285731,-9.28799 -1.75,-10.14085 -1.380427,-0.80403 -0.812101,-1.0257 2.69113,-1.04969 3.746103,-0.0256 4.187918,0.16521 2.823138,1.21959 -1.251458,0.96683 -1.691193,3.47899 -1.941129,11.08947 -0.293336,8.93197 -0.540874,10.01567 -2.683923,11.75 -2.270013,1.83707 -9.662799,2.54784 -12.910256,1.24124 z M 92.25,202.9199 c 1.506375,-0.87738 1.75,-2.62271 1.75,-12.53698 0,-11.47147 -0.009,-11.51507 -2.25,-10.86341 -1.2375,0.35985 -2.997132,1.51518 -3.910293,2.56739 -2.248794,2.59121 -2.568041,2.4222 -2.053015,-1.0869 l 0.440307,-3 H 97.613499 109 l -0.04,3.75 -0.04,3.75 -1.42615,-2.62453 c -1.38231,-2.54382 -4.98331,-4.30898 -6.66731,-3.26822 C 100.37191,179.88818 100,184.97271 100,190.9062 c 0,10.19955 0.12276,10.84738 2.25,11.87331 1.85302,0.89367 1.01494,1.09171 -4.75,1.1224 -5.219647,0.0278 -6.554912,-0.22197 -5.25,-0.98201 z m 20.52749,-0.4766 C 114.83366,201.0031 115,200.10256 115,190.41107 c 0,-9.92887 -0.11741,-10.52271 -2.25,-11.37991 -1.64742,-0.66218 -0.37532,-0.8903 4.75,-0.85177 3.85,0.0289 6.2125,0.25841 5.25,0.50994 -1.39834,0.36542 -1.75,1.55935 -1.75,5.94149 v 5.48418 l 4.25,-0.3075 4.25,-0.3075 0.31794,-4.46374 c 0.23941,-3.36121 -0.11654,-4.78143 -1.44113,-5.75 -1.49947,-1.09644 -0.80851,-1.28177 4.68206,-1.25585 4.86355,0.023 6.01251,0.28005 4.69113,1.04969 -1.4973,0.8721 -1.75,2.59332 -1.75,11.9199 0,9.32658 0.2527,11.0478 1.75,11.9199 1.31741,0.76732 0.14324,1.01928 -4.75,1.01928 -4.89324,0 -6.06741,-0.25196 -4.75,-1.01928 1.32794,-0.77345 1.75,-2.33378 1.75,-6.46959 V 191 h -4.5 -4.5 v 5.45031 c 0,4.13581 0.42206,5.69614 1.75,6.46959 1.31135,0.76379 0.002,1.0269 -5.22251,1.04969 -6.59197,0.0288 -6.85121,-0.0546 -4.75,-1.52629 z M 143.25,202.9199 C 144.7473,202.0478 145,200.32658 145,191 c 0,-9.32658 -0.2527,-11.0478 -1.75,-11.9199 -1.26847,-0.73882 1.20795,-1.02765 9,-1.04969 L 163,178 l -0.005,3.75 -0.005,3.75 -2.24504,-2.69587 c -1.498,-1.79883 -3.40964,-2.79706 -5.74503,-3 l -3.5,-0.30413 -0.30226,5.25 c -0.23181,4.0264 0.031,5.25 1.12756,5.25 1.72023,0 3.28227,-1.77905 3.95109,-4.5 0.27038,-1.1 0.51528,1.15 0.54422,5 0.0419,5.57101 -0.14875,6.49541 -0.93381,4.52823 -0.96699,-2.42307 -2.59486,-3.98249 -4.18906,-4.01292 -0.44124,-0.008 -0.66624,2.34719 -0.5,5.23469 0.29618,5.14446 0.36902,5.25641 3.62303,5.56864 3.68171,0.35326 8.1793,-2.03415 8.1793,-4.34169 0,-0.81232 0.45857,-1.47695 1.01905,-1.47695 0.90376,0 0.67481,2.70551 -0.57119,6.75 -0.27771,0.90144 -3.39146,1.24152 -11.16648,1.21959 -7.81337,-0.022 -10.29962,-0.31101 -9.03138,-1.04969 z m 25.05187,-0.70097 c 0.88651,-0.97958 3.86609,-6.71708 6.62128,-12.75 2.75518,-6.03291 5.33097,-10.89287 5.72396,-10.7999 0.393,0.093 2.87901,5.00295 5.52448,10.91106 2.64547,5.90811 5.55884,11.56955 6.47417,12.58097 1.59937,1.76729 1.41467,1.83776 -4.74077,1.80853 -4.83895,-0.023 -5.97711,-0.27962 -4.655,-1.04968 1.605,-0.93483 1.62359,-1.2637 0.22432,-3.96959 -1.3033,-2.5203 -2.10806,-2.95032 -5.52143,-2.95032 -3.33645,0 -4.19194,0.43058 -5.18475,2.60955 -1.02066,2.2401 -0.91978,2.80639 0.71257,4 1.73091,1.26567 1.51153,1.39045 -2.44456,1.39045 -4.1047,0 -4.25658,-0.0989 -2.73427,-1.78107 z M 180.26786,191 c -0.86418,-2.2 -1.84048,-3.99542 -2.16955,-3.98983 -0.32907,0.006 -1.35239,1.80559 -2.27405,4 L 174.14852,195 h 3.8453 3.84529 z m 15.73221,8.25 c -8e-5,-5.06307 0.95644,-5.37568 2.99993,-0.98046 2.6861,5.77738 10.5,6.2885 10.5,0.68683 0,-1.77008 -1.34892,-3.11387 -5.64664,-5.62513 -6.02404,-3.51999 -8.22244,-7.10123 -6.76979,-11.02812 1.23117,-3.32816 5.41669,-5.66359 8.66828,-4.83673 1.51148,0.38437 3.76065,0.77417 4.99815,0.86623 1.91988,0.14282 2.25,0.73928 2.25,4.06526 v 3.89789 l -2.28983,-3.39789 c -1.86536,-2.76799 -2.93127,-3.39788 -5.75,-3.39788 -2.99941,0 -3.46017,0.3242 -3.46017,2.43464 0,1.90088 1.23087,3.15388 5.61426,5.7152 6.54041,3.82172 8.83483,7.70166 6.80614,11.50943 -2.15844,4.05131 -4.03186,4.81823 -11.17033,4.5728 L 196.00014,203.5 Z m 28.34504,3.48692 c 1.48792,-1.088 1.68768,-2.78601 1.44113,-12.25 L 225.5,179.5 223,179.8454 c -1.375,0.18997 -2.62873,0.68865 -2.78606,1.10819 -0.15734,0.41953 -0.93556,1.6141 -1.72939,2.6546 -1.33252,1.74658 -1.41707,1.62312 -1.10131,-1.60819 l 0.34202,-3.5 11.63737,-0.28174 L 241,177.93653 v 3.53173 c 0,4.10523 -0.67784,4.50929 -1.95026,1.16256 -0.83181,-2.18781 -5.24975,-4.09748 -6.52624,-2.82099 -0.28792,0.28793 -0.5235,5.413 -0.5235,11.38906 0,10.33335 0.11021,10.90986 2.25,11.76995 1.67785,0.67441 0.48494,0.92051 -4.69113,0.96777 -5.82694,0.0532 -6.66385,-0.13936 -5.21376,-1.19969 z m 34.88385,0.59379 C 256.41394,202.19809 255,197.11343 255,188.12298 c 0,-7.708 -0.24727,-9.04095 -1.75,-9.43365 -0.9625,-0.25153 1.4,-0.45733 5.25,-0.45733 3.85,0 6.2125,0.2058 5.25,0.45733 -1.52277,0.39794 -1.75,1.78519 -1.75,10.68399 C 262,200.43283 262.62617,202 267.04501,202 271.77721,202 273,199.37597 273,189.22095 c 0,-7.63224 -0.28573,-9.28799 -1.75,-10.14085 -1.38043,-0.80403 -0.8121,-1.0257 2.69113,-1.04969 3.7461,-0.0256 4.18792,0.16521 2.82314,1.21959 -1.25146,0.96683 -1.69119,3.47899 -1.94113,11.08947 -0.29334,8.93197 -0.54087,10.01567 -2.68392,11.75 -2.27002,1.83707 -9.6628,2.54784 -12.91026,1.24124 z M 281.24964,202.75 c 1.29138,-0.98917 1.68438,-3.41441 1.88341,-11.62282 0.2225,-9.17618 0.0342,-10.53168 -1.6319,-11.75 C 279.8031,178.13554 280.07863,178 284.30072,178 c 4.64089,0 4.73475,0.0668 10.44113,7.43333 3.16698,4.08833 6.02188,7.46333 6.34422,7.5 0.81031,0.0922 1.06791,-7.84236 0.3611,-11.12274 -0.31871,-1.47918 -1.3372,-2.88948 -2.26332,-3.134 -0.92612,-0.24452 0.31466,-0.49679 2.75728,-0.56059 3.76383,-0.0983 4.18633,0.0746 2.7704,1.134 -1.36922,1.02442 -1.71953,3.41561 -1.94113,13.25 l -0.2704,12 -8.29914,-10.25 c -4.56453,-5.6375 -8.50203,-10.25 -8.75,-10.25 -0.24797,0 -0.45086,3.98123 -0.45086,8.84719 0,8.18667 0.16798,8.9282 2.25,9.93232 1.95433,0.94253 1.60068,1.09402 -2.69113,1.15281 -4.14906,0.0568 -4.67953,-0.1327 -3.30923,-1.18232 z m 28.50036,0.0295 c 2.12896,-1.02677 2.25,-1.67039 2.25,-11.96455 0,-10.34772 -0.10996,-10.92361 -2.25,-11.7838 -1.66805,-0.67047 -0.43948,-0.91292 4.75,-0.93737 5.22118,-0.0246 6.5553,0.22604 5.25,0.98631 -1.4973,0.8721 -1.75,2.59332 -1.75,11.9199 0,9.32658 0.2527,11.0478 1.75,11.9199 1.30491,0.76004 -0.0303,1.0098 -5.25,0.98201 -5.76494,-0.0307 -6.60302,-0.22873 -4.75,-1.1224 z m 20.77956,-10.44674 c -2.73374,-6.39693 -5.57838,-12.23873 -6.32143,-12.98178 -1.13465,-1.13465 -0.33873,-1.33241 4.97044,-1.23499 3.47679,0.0638 5.53393,0.3218 4.57143,0.57333 -2.34197,0.61202 -2.17051,1.62283 1.6641,9.81067 l 3.27831,7 3.15379,-6.88832 c 3.67694,-8.03092 3.70091,-8.19364 1.4038,-9.53158 -1.3746,-0.80063 -0.78468,-1.01928 2.75,-1.01928 3.22129,0 4.05183,0.26216 2.92279,0.92258 -0.86746,0.50742 -3.99188,6.34373 -6.94315,12.96959 -2.95127,6.62586 -5.61653,12.03881 -5.92279,12.02878 -0.30627,-0.01 -2.79355,-5.25207 -5.52729,-11.649 z M 353.25,202.9199 C 354.7473,202.0478 355,200.32658 355,191 c 0,-9.32658 -0.2527,-11.0478 -1.75,-11.9199 -1.26847,-0.73882 1.20795,-1.02765 9,-1.04969 L 373,178 l -0.005,3.75 -0.005,3.75 -2.24504,-2.69587 c -1.498,-1.79883 -3.40964,-2.79706 -5.74503,-3 l -3.5,-0.30413 -0.30226,5.25 c -0.22419,3.89409 0.047,5.25 1.05,5.25 1.90168,0 3.75226,-2.0714 3.75226,-4.2 0,-0.99 0.3375,-1.8 0.75,-1.8 0.4125,0 0.75,2.925 0.75,6.5 0,3.575 -0.3375,6.5 -0.75,6.5 -0.4125,0 -0.75,-0.64286 -0.75,-1.42857 0,-2.10948 -3.08844,-4.88299 -4.19985,-3.77158 -0.51063,0.51063 -0.78706,2.90206 -0.61429,5.31429 0.30729,4.29023 0.39678,4.39268 4.1043,4.69862 3.19113,0.26333 4.26783,-0.19858 6.81235,-2.9225 l 3.02218,-3.23525 -0.64587,2.92249 c -0.35522,1.60738 -0.81916,3.485 -1.03096,4.1725 -0.27771,0.90144 -3.39146,1.24152 -11.16648,1.21959 -7.81337,-0.022 -10.29962,-0.31101 -9.03138,-1.04969 z m 25.5,-0.14039 c 2.12741,-1.02602 2.25,-1.67342 2.25,-11.88263 0,-9.22837 -0.25432,-10.94563 -1.75,-11.81678 -1.28088,-0.74605 0.74182,-1.02743 7.54545,-1.04969 8.55673,-0.028 9.49053,0.16466 11.75,2.42414 3.13613,3.13612 3.11179,5.97912 -0.0785,9.1694 l -2.53305,2.53305 2.02593,3.27802 c 1.11426,1.80291 3.21549,4.46759 4.66941,5.9215 L 405.27272,204 h -4.10191 c -3.87663,0 -4.33429,-0.32952 -8.33322,-6 -2.32723,-3.3 -4.59273,-6 -5.03446,-6 -0.44173,0 -0.80314,2.22764 -0.80314,4.95031 0,3.65962 0.45628,5.21607 1.75,5.96959 1.30491,0.76004 -0.0303,1.0098 -5.25,0.98201 -5.76494,-0.0307 -6.60302,-0.22873 -4.75,-1.1224 z m 15,-14.52537 c 2.62976,-3.44267 0.7089,-7.6723 -4,-8.80781 L 387,178.78318 V 185 v 6.21682 l 2.75,-0.66315 c 1.5125,-0.36472 3.3125,-1.39951 4,-2.29953 z M 406.47352,199.25 c -0.0146,-2.3375 0.21044,-4.24026 0.5,-4.22836 0.28957,0.0119 1.20148,1.46812 2.02648,3.23604 2.68477,5.75329 11.63665,6.08043 10.79826,0.39462 -0.18006,-1.22113 -2.40606,-3.25801 -5.61708,-5.13985 -6.17573,-3.61933 -7.14501,-4.86239 -7.16587,-9.18987 -0.0209,-4.33435 4.20169,-7.74571 8.46994,-6.84274 1.65811,0.35078 4.02725,0.72381 5.26475,0.82897 1.91581,0.16279 2.25,0.77014 2.25,4.08907 v 3.89789 l -2.28983,-3.39789 c -1.86536,-2.76799 -2.93127,-3.39788 -5.75,-3.39788 -2.99941,0 -3.46017,0.3242 -3.46017,2.43464 0,1.91031 1.24989,3.16499 5.80358,5.82582 6.65036,3.88597 8.44925,7.00784 6.60443,11.46163 -1.63396,3.94471 -3.77109,4.81709 -11.09177,4.52764 L 406.5,203.5 l -0.0265,-4.25 z m 22.30397,3.1933 C 430.83366,201.0031 431,200.10256 431,190.41107 c 0,-9.92887 -0.11741,-10.52271 -2.25,-11.37991 -1.64742,-0.66218 -0.37532,-0.8903 4.75,-0.85177 3.85,0.0289 6.2125,0.25841 5.25,0.50994 -1.53732,0.40174 -1.75,1.83996 -1.75,11.8343 0,9.78026 0.24561,11.52004 1.75,12.39627 1.31135,0.76379 0.002,1.0269 -5.22251,1.04969 -6.59197,0.0288 -6.85121,-0.0546 -4.75,-1.52629 z M 449.25,202.9199 C 450.75543,202.04307 451,200.3004 451,190.45031 451,184.15264 450.80429,179 450.5651,179 c -2.08715,0 -5.79281,2.40408 -6.52856,4.23546 -0.79359,1.97535 -0.91786,1.78565 -0.97315,-1.48546 L 443,178 h 11.5 11.5 l -0.04,3.75 -0.04,3.75 -1.42615,-2.62453 c -1.38231,-2.54382 -4.98331,-4.30898 -6.66731,-3.26822 -0.45455,0.28093 -0.82646,5.18371 -0.82646,10.89506 0,9.5972 0.16846,10.50227 2.22251,11.94099 2.10121,1.47174 1.84197,1.55504 -4.75,1.52629 -5.2248,-0.0228 -6.53386,-0.2859 -5.22251,-1.04969 z m 26.5,0.0489 c 3.73791,-1.50246 3.06556,-7.74519 -1.77947,-16.52222 -2.2162,-4.01478 -4.5787,-7.52215 -5.25,-7.79416 -0.67129,-0.27201 1.70447,-0.5232 5.27947,-0.5582 4.17498,-0.0409 5.9958,0.25555 5.09042,0.82869 -1.58352,1.00245 -0.632,4.17823 2.83576,9.46451 l 1.88463,2.87296 3.08521,-5.38021 c 3.60481,-6.28632 3.66158,-6.58785 1.35398,-7.19088 -0.9625,-0.25153 0.275,-0.49584 2.75,-0.54292 3.28322,-0.0625 4.06101,0.17087 2.8765,0.86289 -0.89292,0.52167 -3.48042,4.07416 -5.75,7.89442 -4.83322,8.13552 -5.43719,13.06483 -1.90399,15.53958 2.09389,1.46661 1.79007,1.55303 -5.25,1.49331 -5.49452,-0.0466 -6.87693,-0.30278 -5.22251,-0.96777 z M 168.47209,147.34831 C 170.59406,136.18581 171.83323,121 170.62212,121 c -0.20783,0 -2.05033,0.6988 -4.09444,1.55288 -3.95382,1.65201 -11.49231,1.61785 -11.66834,-0.0529 -0.058,-0.55 3.53973,-2.575 7.99485,-4.5 8.07735,-3.49012 8.10027,-3.51067 8.12301,-7.28138 0.0284,-4.71642 -1.88142,-5.63507 -5.84608,-2.81199 C 163.5142,109.05798 161.0444,110 159.64268,110 c -5.58128,0 -10.21545,-4.18827 -5.89268,-5.32569 0.9625,-0.25326 3.89955,-1.02044 6.52677,-1.70484 3.09241,-0.80559 5.67176,-2.30802 7.31492,-4.260804 3.35726,-3.989882 9.63455,-16.533591 8.88272,-17.750075 -0.79093,-1.279742 3.15807,-1.225647 5.59133,0.07659 2.75763,1.475839 2.44517,2.9039 -2.03463,9.299033 -4.20831,6.007561 -3.80982,6.724749 2.31465,4.165783 3.94175,-1.646969 10.22556,-2.002644 11.07581,-0.62691 0.29677,0.480199 -2.18971,1.868244 -5.52553,3.084545 C 180.06033,99.814677 178,101.90547 178,107 c 0,4.54524 0.021,4.55763 4.12586,2.43492 2.75569,-1.42503 3.24629,-1.4211 5.4822,0.0439 3.16065,2.07094 2.49591,2.99374 -3.61982,5.02506 L 179,116.16073 v 5.75967 c 0,10.73925 -5.66473,28.19877 -9.3813,28.91451 -1.67108,0.32183 -1.79751,-0.0626 -1.14661,-3.4866 z m 272.76877,1.71564 c -4.52071,-2.83752 -7.23262,-7.67666 -7.23712,-12.91395 -0.005,-6.19006 4.36451,-10.44025 12.52504,-12.1821 8.20622,-1.75161 9.16249,-2.78509 6.54685,-7.07551 -2.78823,-4.57353 -2.63214,-6.11407 1.23517,-12.19043 6.28776,-9.87939 5.77658,-10.607231 -3.593,-5.115871 -5.7354,3.361421 -6.20015,3.474751 -7.41827,1.808871 C 442.58479,100.41749 442,99.018838 442,98.286846 c 0,-1.784705 7.64267,-6.53079 15.73032,-9.768496 5.5734,-2.231186 7.00153,-2.457849 9.35194,-1.484277 1.52572,0.631972 2.98834,1.707525 3.25027,2.390116 0.26194,0.682591 -3.08073,5.236935 -7.42814,10.120766 C 453.63176,109.96171 453.04189,112 459.3,112 c 5.16063,0 6.7,1.30961 6.7,5.7 v 3.3 l 8.25,0.0147 c 4.54083,0.008 9.34938,0.57112 10.69526,1.25224 2.68927,1.36099 6.52562,7.1621 5.66128,8.56064 -0.30001,0.48542 -3.03311,0.0428 -6.07356,-0.98369 -3.04045,-1.02645 -8.32648,-1.97374 -11.74672,-2.1051 l -6.21863,-0.23883 -0.70483,4.77737 c -2.00288,13.57556 -15.29733,22.63936 -24.62194,16.78658 z m 9.56932,-5.08958 C 454.677,141.61683 457,136.7367 457,130.97085 v -4.0934 l -4.75,0.6721 c -13.55514,1.91795 -19.03444,8.81985 -12.32692,15.52737 3.43401,3.43402 6.33447,3.67311 10.8871,0.89745 z M 37.5,147.13437 c -6.223004,-2.9705 -11.5,-7.18982 -11.5,-9.19503 0,-0.69235 0.902615,-0.93948 2.25,-0.61602 11.866063,2.84855 12.354327,2.39474 11.934619,-11.09252 l -0.315381,-10.13473 -7.184619,6.05209 C 25.772972,127.9703 11.736292,136 8.4702813,136 7.6045188,136 9.50703,133.82135 12.698084,131.15855 15.889138,128.49576 23.5625,121.04382 29.75,114.59869 40.299833,103.60958 41,102.62838 41,98.833143 41,95.381625 40.742458,94.887926 39.25,95.478457 35.686549,96.888431 22.599743,100 20.233049,100 18.431724,100 17.943262,99.590239 18.381917,98.447123 18.77654,97.418753 18.008734,96.338071 16.108722,95.247614 13.614952,93.816386 4.1079037,79.85021 3.1766758,76.25 2.7785705,74.710889 7.0519261,74.608964 12.186686,76.035099 c 4.307496,1.19637 7.165352,5.199617 9.852516,13.801273 2.011818,6.439862 2.52399,6.603194 10.460798,3.335958 2.75,-1.132054 5.7875,-2.294818 6.75,-2.58392 1.290346,-0.387576 1.75,-1.584522 1.75,-4.557025 0,-4.601839 -0.566176,-4.788787 -8.768766,-2.895402 -3.414698,0.788207 -6.116827,0.830555 -8.82629,0.138328 L 19.5,82.276656 24,80.209295 c 2.475,-1.137048 6.75,-2.614244 9.5,-3.282657 6.723343,-1.634172 7.5,-2.427665 7.5,-7.662582 0,-5.145915 0.31808,-5.099622 -12,-1.746479 -6.190382,1.685104 -6.690534,1.686283 -10.5,0.02476 l -4,-1.744629 5,-1.557652 c 2.75,-0.856709 8.6,-2.498692 13,-3.648853 L 40.5,58.5 41.052934,53.687223 c 0.304113,-2.647027 0.261883,-4.992656 -0.09385,-5.212508 -0.35573,-0.219853 -2.378108,0.07831 -4.494176,0.662584 -2.116067,0.584275 -5.393158,0.811475 -7.282425,0.504889 C 25.940934,49.116156 19.021665,45.208193 19.006833,43.895037 19.003075,43.562307 22.0375,43.030481 25.75,42.7132 29.4625,42.395919 34.3,41.542279 36.5,40.816222 l 4,-1.320104 0.287629,-9.255884 c 0.274078,-8.819792 0.16502,-9.378494 -2.314713,-11.858227 -1.431289,-1.431289 -2.386898,-3.163782 -2.123577,-3.849985 0.99825,-2.6014 13.610168,-3.490665 15.594598,-1.099574 1.382241,1.665499 1.552347,5.182301 0.752995,15.567552 -0.5477,7.115758 -0.428359,7.710915 2.329398,11.616832 C 58.211074,45.127506 58.035286,46 53.941741,46 c -2.072597,0 -2.875134,0.598482 -3.352385,2.5 -0.829769,3.306063 0.28202,7.5 1.988208,7.5 0.748411,0 7.537297,-1.35 15.086413,-3 18.605968,-4.066681 19.295133,-4.027684 22.090518,1.25 1.238083,2.3375 2.24981,4.62168 2.248283,5.075956 C 91.997553,60.87971 83.246733,71.49431 77.34132,77.110065 69.300018,84.756943 65.884708,86.447084 61.438769,84.979792 57.69291,83.743547 56.827373,82 59.959531,82 61.037273,82 63.086694,80.7625 64.5138,79.25 69.931854,73.507744 79.806968,58.473634 78.813352,57.480019 78.432146,57.098813 64.552823,59.430927 56.137042,61.290273 L 50.5,62.535697 50.192055,66.776998 c -0.351586,4.842362 1.324189,6.220077 5.340113,4.390299 2.038538,-0.92882 2.633469,-0.768905 3.907753,1.05039 2.002313,2.858703 0.62811,4.375722 -4.59886,5.076806 -4.343121,0.582534 -5.810435,1.897085 -5.810435,5.205507 0,3.85361 1.50231,4.978908 5.151721,3.858872 3.307017,-1.014952 7.890216,-0.214875 10.486665,1.830631 0.822319,0.64783 -1.327804,3.318 -7.25,9.003546 L 49,105.27564 48.956088,119.38782 C 48.887955,141.28359 47.495087,149.88237 44,149.9839 c -0.275,0.008 -3.2,-1.2743 -6.5,-2.84953 z M 201.25,136.0169 c -4.5375,-4.34733 -8.25,-8.0945 -8.25,-8.32705 0,-0.23254 3.0375,-0.23551 6.75,-0.007 8.86427,0.5466 11.15289,-0.72235 13.90638,-7.71052 5.16975,-13.1205 9.45712,-46.224492 6.15095,-47.49319 -0.82009,-0.314699 -4.71224,0.123659 -8.6492,0.97413 -3.93697,0.85047 -10.31989,2.229766 -14.18427,3.0651 C 188.90382,78.263234 180.5,77.476632 180.5,74.976828 c 0,-1.663428 0.48056,-1.818068 26.35161,-8.47978 19.74645,-5.084646 21.41133,-5.104503 24.53072,-0.292585 1.22725,1.89313 1.32035,3.785586 0.53109,10.795537 -2.37759,21.11715 -4.30228,34.05442 -6.07965,40.86595 -3.16521,12.13022 -11.04362,26.17796 -14.63466,26.09462 -0.93451,-0.0217 -5.41161,-3.59634 -9.94911,-7.94367 z m 148.37479,5.53602 c -5.12864,-1.85724 -5.25381,-2.0169 -8.58791,-10.95407 -1.58338,-4.24429 -4.71442,-10.5342 -6.95787,-13.97759 C 331.83555,113.17788 330,110.10183 330,109.78559 c 0,-0.98299 6.30026,0.80133 10.5968,3.00117 5.06861,2.59514 13.46149,11.63647 16.36,17.62401 1.37438,2.83907 2.05528,5.8778 1.85673,8.28618 -0.26642,3.23164 -0.68915,3.83733 -2.81353,4.03117 -1.375,0.12547 -4.24384,-0.40337 -6.37521,-1.1752 z M 284,140.40513 c -1.375,-0.23675 -4.21541,-0.90118 -6.31202,-1.47651 -4.84728,-1.33015 -4.6037,-3.73993 0.55852,-5.52557 11.2492,-3.89116 18.60171,-14.93629 23.75971,-35.692457 1.95788,-7.878651 2.3865,-7.329143 -7.50621,-9.623287 C 288.66498,86.734151 279,82.269019 279,80.926451 279,80.414991 283.84168,80 289.80887,80 c 7.09374,0 11.399,-0.431513 12.5258,-1.255452 1.53235,-1.120483 1.74104,-3.942521 1.94113,-26.25 L 304.5,27.5 l 2.81047,-0.322258 c 3.88807,-0.445818 5.82401,1.33834 4.68965,4.321953 -1.058,2.78273 0.14296,43.976715 1.31628,45.150041 2.0303,2.030301 25.618,-6.282068 34.99876,-12.333658 L 351.13032,62.5 l 2.91385,3.242287 C 359.31307,71.605065 359.26697,77 353.94797,77 350.6744,77 341.25289,80.496946 329.5,86.074265 c -4.51826,2.144134 -9.00664,3.469193 -12.65992,3.737463 l -5.65993,0.415623 -0.64738,7.136324 c -1.0766,11.867615 -4.60752,31.930205 -6.22506,35.370565 -2.71156,5.76723 -11.68273,9.15593 -20.30771,7.67089 z M 76,135.99382 c 1.375,-1.1802 3.542343,-3.03459 4.816317,-4.12086 1.273975,-1.08628 2.165058,-2.42884 1.980185,-2.98345 -0.184873,-0.55462 -2.802215,-2.0306 -5.816317,-3.27996 -9.539739,-3.95425 -14.73322,-6.67918 -16.544439,-8.68055 -0.96625,-1.06769 -1.567404,-2.13068 -1.335898,-2.36218 0.782998,-0.783 16.659577,2.3898 24.75439,4.94695 C 92.347354,122.19674 96,125.20566 96,129.519 c 0,1.8724 -1.180351,2.68679 -7.044545,4.86044 -3.8745,1.43615 -8.937,2.8697 -11.25,3.18568 L 73.5,138.13963 Z m 56.83959,-9.70381 C 126.91232,119.957 125.77918,114.13674 128.5,104 c 0.81194,-3.025 1.4816,-7.8625 1.48813,-10.75 0.007,-2.8875 0.37768,-5.25 0.82478,-5.25 0.4471,0 2.04083,1.281678 3.54163,2.848173 2.55034,2.661985 2.75282,3.528153 3.09728,13.249997 0.20271,5.72101 0.8886,11.82304 1.5242,13.56007 0.63561,1.73703 1.01353,4.88703 0.83982,7 -0.40697,4.95025 -3.24835,5.61486 -6.97625,1.63177 z m 25.0075,-25.15947 C 156.21703,100.50872 145,90.304451 145,89.443386 145,89.199524 145.85338,89 146.89641,89 c 4.65997,0 12.6937,-13.786305 16.2446,-27.87663 2.94372,-11.680931 3.13149,-11.322082 -5.51454,-10.5386 -6.6813,0.605444 -7.57316,0.46854 -9.5,-1.458299 -2.13237,-2.132371 -2.77978,-4.091884 -1.37647,-4.166177 4.85943,-0.257268 12.52179,-1.004434 15.58504,-1.519716 l 3.83503,-0.645107 -0.3302,-7.147736 L 165.50966,28.5 h 4.49517 c 4.90109,0 4.70784,-0.416802 3.47744,7.5 -0.92157,5.929698 0.29558,6.627662 7.94628,4.556713 3.62924,-0.982389 8.21804,-2.611793 10.19735,-3.620899 3.29886,-1.681858 3.79768,-1.704378 5.98641,-0.270266 2.63942,1.72941 3.04411,3.549765 1.13769,5.117486 -1.73367,1.425667 -11.77494,4.24338 -20.15156,5.654794 l -7.00235,1.179858 -2.73132,10.887146 C 165.58742,72.568464 161.80781,81.788514 157.31958,87.66842 155.49381,90.060308 154,92.238412 154,92.508653 c 0,1.643834 5.23465,-0.02643 9.42922,-3.008653 4.55554,-3.238869 8.57984,-4.53109 8.56419,-2.75 -0.0152,1.728577 -6.59925,10.085184 -10.54236,13.38054 -1.07584,0.8991 -2.69252,1.34769 -3.60396,1 z m 237.20151,-0.8901 -2.23015,-1.805866 4.59456,-8.929045 c 2.52701,-4.910975 5.60536,-10.071254 6.84078,-11.467287 L 406.5,75.5 l 0.86468,6.731927 c 1.10637,8.613554 0.29093,12.78067 -3.12713,15.980568 -3.84918,3.603495 -6.51631,4.192115 -9.18895,2.027945 z M 469,85.019052 C 469,84.458573 469.45493,84 470.01096,84 471.2666,84 487,69.059664 487,67.867317 c 0,-0.955151 -6.33187,-1.15394 -9.51418,-0.298698 -1.17812,0.316618 -3.04602,2.697707 -4.5,5.736345 -1.3672,2.85727 -3.16952,5.320543 -4.00516,5.47394 -3.10137,0.569314 -5.36741,-2.515604 -5.90635,-8.040722 -0.0911,-0.933949 -7.8753,0.176475 -10.42283,1.486828 -1.01668,0.522945 -4.19967,1.06055 -7.0733,1.194679 C 439.23964,73.715544 438,74.392656 438,77.559017 c 0,2.809397 -0.79471,3.103993 -2.41091,0.893714 -0.9846,-1.346533 -2.07147,-1.392018 -8.3775,-0.350598 -6.90843,1.140903 -10.13204,0.702804 -7.37348,-1.002082 1.02281,-0.632126 1.05404,-2.581496 0.15535,-9.695627 -1.69732,-13.436171 -2.64924,-18.580749 -4.09223,-22.116259 -1.70466,-4.176614 -0.75074,-4.969592 3.19713,-2.657727 5.97212,3.497253 6.75371,5.603196 7.0936,19.113309 0.16942,6.734061 0.45012,12.246561 0.62378,12.25 0.32981,0.0065 4.45804,-2.076964 4.9903,-2.518578 0.16833,-0.139658 -0.47374,-3.116203 -1.42682,-6.614546 C 427.21186,53.234561 428.63835,30 432.51949,30 c 2.28595,0 2.88602,4.625673 1.09083,8.408756 -2.12692,4.482147 -2.0314,7.390794 0.46153,14.053731 C 436.20258,58.157369 438,59.68453 438,55.8 c 0,-1.341454 0.35149,-1.829264 0.90069,-1.25 0.49868,0.525969 0.59161,4.201078 0.20821,8.233726 l -0.69249,7.283726 3.0418,-0.650542 c 3.82874,-0.818845 4.07848,-1.065308 2.72815,-2.692358 -2.31156,-2.785263 -2.383,-9.139384 -0.20697,-18.408088 2.04821,-8.724241 2.0705,-9.310685 0.44811,-11.78677 -1.49115,-2.275777 -1.60244,-4.025466 -0.87892,-13.817713 C 444.00421,16.545392 444.40468,9.475 444.4385,7 444.50701,1.9869673 445.96877,0.37773703 448.98675,1.9929088 450.48473,2.794602 451,4.0851253 451,7.0351838 451,11.521511 451.47693,11.755783 455,9 c 2.68727,-2.1020151 7.56612,-2.5824288 10,-0.9846872 1.33333,0.8752775 1.33333,1.0940969 0,1.9693744 -0.825,0.5415778 -2.175,1.0177698 -3,1.0582038 -0.825,0.04043 -3.975,1.284824 -7,2.765312 -5.99481,2.933966 -6.6503,4.208691 -6.88169,13.38278 -0.15489,6.14137 1.46122,6.996886 5.13565,2.718639 C 461.859,19.890519 467.5247,16 473.51033,16 c 3.73937,0 6.48981,4.401853 6.48883,10.384859 -8.5e-4,5.204306 -1.49737,23.649402 -2.54477,31.365141 L 476.87745,62 h 6.0934 c 7.57551,0 12.43722,1.954645 14.42563,5.799813 1.78726,3.456176 1.73307,3.524531 -7.64238,9.640777 C 481.81056,82.622701 469,87.300541 469,85.019052 Z M 469,69.5 c 0,-1.020833 -1.02222,-1.5 -3.2,-1.5 -3.35391,0 -2.92046,1.416098 0.7,2.286934 1.1,0.264585 2.1125,0.533264 2.25,0.597065 C 468.8875,70.947799 469,70.325 469,69.5 Z m -5.79922,-4.616804 c 8.56532,-1.80513 10.32599,-4.567727 4.29989,-6.746792 -4.29939,-1.55468 -5.88202,-4.29012 -5.04952,-8.727687 C 463.14028,45.735307 461.7108,42 459.61588,42 c -0.95174,0 -1.48883,2.686708 -1.94908,9.75 -0.34942,5.3625 -0.91988,10.7625 -1.26769,12 -0.73154,2.602836 -0.41891,2.654923 6.80167,1.133196 z m -11.23596,-3.817455 c 1.10697,-2.068391 1.2116,-13.658036 0.16687,-18.483243 -0.34743,-1.604626 -1.19142,-3.103703 -1.87554,-3.331282 -1.72878,-0.5751 -3.14114,3.661589 -3.88354,11.649518 -0.51143,5.50275 -0.30201,7.277386 1.11378,9.438143 2.07307,3.163912 3.08616,3.32834 4.47843,0.726864 z M 471.33489,50.75 c 0.30343,-1.2375 1.06296,-7.0503 1.68783,-12.917334 1.70556,-16.0138 -0.46052,-18.060666 -11.90072,-11.245771 -8.37607,4.989598 -8.9331,5.824761 -6.27915,9.414424 1.18643,1.604733 2.15715,3.385918 2.15715,3.958188 0,1.453498 2.18475,1.296762 4.52749,-0.324807 3.5133,-2.431782 6.15942,-2.804928 7.85647,-1.107887 1.4596,1.459601 1.42616,1.92505 -0.39463,5.494106 C 466.18106,49.525581 466.4012,53 469.55826,53 c 0.67371,0 1.47319,-1.0125 1.77663,-2.25 z M 269.0643,82.060903 C 267.04816,80.785139 269.43949,78 272.55102,78 c 2.57864,0 5.77547,2.662709 4.89915,4.08062 -0.72925,1.179954 -6.51146,1.166358 -8.38587,-0.01972 z"
         id="path191" />
    </g>
  </g>
</svg>
