<?xml version="1.0" encoding="UTF-8"?>
<!DOCTYPE svg PUBLIC "-//W3C//DTD SVG 1.1//EN" "http://www.w3.org/Graphics/SVG/1.1/DTD/svg11.dtd">
<!-- Creator: CorelDRAW -->
<svg xmlns="http://www.w3.org/2000/svg" xml:space="preserve" width="70mm" height="55mm" style="shape-rendering:geometricPrecision; text-rendering:geometricPrecision; image-rendering:optimizeQuality; fill-rule:evenodd; clip-rule:evenodd"
viewBox="0 0 70 55"
 xmlns:xlink="http://www.w3.org/1999/xlink">
 <defs>
  <style type="text/css">
   <![CDATA[
    .str0 {stroke:#1F1A17;stroke-width:0.5;stroke-linejoin:bevel}
    .str1 {stroke:#1F1A17;stroke-width:0.5;stroke-linecap:round;stroke-linejoin:bevel}
    .fil0 {fill:#F0DBB5}
    .fil1 {fill:#FAD49E}
   ]]>
  </style>
 </defs>
 <g id="Слой_x0020_1">
  <metadata id="CorelCorpID_0Corel-Layer"/>
  <g id="_132483304">
   <path id="_132483520" class="fil0 str0" d="M35.2673 43.2898l0.0001 -12.2644 -0.0001 -12.2645 10.6213 6.1323 10.6214 6.1321 -10.6214 6.1323 -10.6213 6.1322zm13.4355 -0.6792l19.9725 -11.5311 -19.9726 -11.5311 -19.9723 -11.5311 0.0001 23.0621 -0.0001 23.0623 19.9724 -11.5311z"/>
   <polygon id="_130892176" class="fil1 str1" points="41.258,15.2573 41.258,0.7517 21.2856,12.2828 1.3131,23.8139 21.2855,35.345 28.255,39.3688 35.2244,43.3926 41.258,39.8498 41.2579,23.8138 41.258,22.2122 35.2222,18.7422 35.2221,24.0492 35.2222,36.3136 24.6009,30.1813 13.9796,24.0491 24.6009,17.917 28.722,15.5378 28.7304,8.0173 "/>
  </g>
 </g>
</svg>
