<?xml version="1.0" encoding="UTF-8"?>
<!-- Generator: Adobe Illustrator 24.3.0, SVG Export Plug-In . SVG Version: 6.00 Build 0)  -->
<!DOCTYPE svg PUBLIC "-//W3C//DTD SVG 1.1//EN" "http://www.w3.org/Graphics/SVG/1.1/DTD/svg11.dtd">
<svg version="1.1" id="Calque_1" xmlns:x="http://ns.adobe.com/Extensibility/1.0/" xmlns:i="http://ns.adobe.com/AdobeIllustrator/10.0/" xmlns:graph="http://ns.adobe.com/Graphs/1.0/" xmlns="http://www.w3.org/2000/svg" xmlns:xlink="http://www.w3.org/1999/xlink" x="0px" y="0px" width="150px" height="150px" viewBox="0 0 150 150" style="enable-background:new 0 0 150 150;" xml:space="preserve">
<style type="text/css">
	.st0{fill:#002E5A;}
</style>
<metadata>
	<sfw xmlns="http://ns.adobe.com/SaveForWeb/1.0/">
		<slices/>
		<sliceSourceBounds bottomLeftOrigin="true" height="150" width="150" x="-20" y="-20"/>
	</sfw>
</metadata>
<g>
	<path class="st0" d="M97,112.1h53V0H0v73h56.5V77H0v73h150v-33.8H97V112.1z M22.1,101.9c1.8-1.5,4-2.2,6.4-2.2c2.2,0,4.2,0.5,6,1.8   c1.8,1.2,3,3,3.5,5.3v0.1l-3.8,1.5v-0.1c-0.4-1.5-1.2-2.6-2.3-3.3c-1.1-0.8-2.3-1.1-3.5-1.1s-2.5,0.4-3.3,1.1   c-1,0.7-1.4,1.6-1.4,2.9c0,0.8,0.3,1.5,0.7,2.2c0.5,0.7,1.2,1.1,2,1.2l1.2,0.3l-1.1,4.1l-1.1-0.3c-1.9-0.4-3.5-1.4-4.6-2.7   c-1.1-1.4-1.6-3-1.6-4.8C19.4,105.4,20.3,103.4,22.1,101.9z M35.9,126c-1.8,1.8-4.1,2.6-7.1,2.6c-2.2,0-4.2-0.5-6.1-1.8   c-1.9-1.2-3.3-2.9-4.1-5.2v-0.1l4-1.6v0.1c0.4,1.5,1.2,2.6,2.5,3.4c1.1,0.8,2.3,1.1,3.7,1.1c1.5,0,2.7-0.4,3.8-1.2   c1.1-0.8,1.5-1.9,1.5-3.3c0-0.8-0.3-1.6-0.8-2.2c-0.5-0.7-1.4-1.1-2.6-1.4l-1.1-0.3l1.1-4.1l1.5,0.4c2,0.4,3.5,1.4,4.6,2.7   c1.1,1.4,1.6,2.9,1.6,4.6C38.5,122.2,37.6,124.2,35.9,126z M54.4,128.6h-0.1c-2.9-0.4-5.2-1.5-7.1-3.5c-1.9-2-2.9-4.5-2.9-7.2   v-17.5H49v17.3c0,1.6,0.5,3,1.5,4.2c1,1.2,2.3,2,3.8,2.3h0.1V128.6z M123.4,88.8h-4.6V67.9h4.6V88.8z M131.5,65.3h-20.6v-4.1h20.7   v4.1H131.5z M114.4,23.6c1.8-1.5,4-2.2,6.4-2.2c2.2,0,4.2,0.5,6,1.8c1.8,1.2,3,3,3.5,5.3v0.1l-3.8,1.5V30c-0.4-1.5-1.2-2.6-2.3-3.3   c-1.1-0.8-2.3-1.1-3.5-1.1c-1.2,0-2.5,0.4-3.3,1.1c-1,0.7-1.4,1.6-1.4,2.9c0,0.8,0.3,1.5,0.7,2.2c0.5,0.7,1.2,1.1,2,1.2l1.2,0.3   l-1.1,4.1l-1.1-0.3c-1.9-0.4-3.5-1.4-4.6-2.7s-1.6-3-1.6-4.8C111.7,27,112.6,25.1,114.4,23.6z M114.7,41.6v0.1   c0.4,1.5,1.2,2.6,2.5,3.4c1.1,0.8,2.3,1.1,3.7,1.1c1.5,0,2.7-0.4,3.8-1.2c1.1-0.8,1.5-1.9,1.5-3.3c0-0.8-0.3-1.6-0.8-2.2   c-0.5-0.7-1.4-1.1-2.6-1.4l-1.1-0.3l1.1-4.1l1.5,0.4c2,0.4,3.5,1.4,4.6,2.7c1.1,1.4,1.6,2.9,1.6,4.6c0,2.3-0.8,4.4-2.6,6.1   c-1.8,1.8-4.1,2.6-7.1,2.6c-2.2,0-4.2-0.5-6.1-1.8c-1.9-1.2-3.3-2.9-4.1-5.2v-0.1L114.7,41.6z M99.4,22.1h4.6v27.5h-4.6V22.1z    M102,62.3c1.8,1.2,3,3,3.5,5.3v0.1l-3.8,1.5v-0.1c-0.4-1.5-1.2-2.6-2.3-3.3c-1.1-0.8-2.3-1.1-3.5-1.1s-2.5,0.4-3.3,1.1   c-1,0.7-1.4,1.6-1.4,2.9c0,0.8,0.3,1.5,0.7,2.2c0.5,0.7,1.2,1.1,2,1.2l1.2,0.3l-1.1,4.1L93,76.2c-1.9-0.4-3.5-1.4-4.6-2.7   c-1.1-1.4-1.6-3-1.6-4.8c0-2.6,1-4.5,2.7-6c1.8-1.5,4-2.2,6.4-2.2C98.2,60.5,100.2,61.1,102,62.3z M80.9,22.1H84   c2.2,0,4.1,0.8,5.6,2.3c1.5,1.5,2.3,3.4,2.3,5.6c0,1.4-0.3,2.6-1,3.8c-0.7,1.1-1.5,2-2.6,2.9l-0.1,0.1l-2.5-3.5l0.1-0.1   c0.8-0.7,1.4-1.8,1.4-3c0-1.1-0.3-2-1-2.7s-1.5-1.1-2.5-1.1h-3C80.9,26.3,80.9,22.1,80.9,22.1z M83.5,34.2L83.5,34.2l9.3,13.4   l-4,2.7l-0.1-0.1L79.5,37L83.5,34.2z M73.6,22.1h4.6v27.5h-4.6V22.1z M56.9,21.5v0.1l10.8,27.1l-4.5,1.5v-0.1L52.4,23L56.9,21.5z    M24.8,49.6h-4.6V22.1h4.6V49.6z M36,35.6c-1.5,1.5-3.4,2.3-5.6,2.3h-3.1v-4.1h3c1,0,1.9-0.4,2.5-1.1c0.7-0.7,1-1.6,1-2.7   s-0.3-2-1-2.7c-0.7-0.7-1.5-1.1-2.5-1.1h-3v-4.1h3.1c2.2,0,4.1,0.8,5.6,2.3s2.3,3.4,2.3,5.6S37.6,34.1,36,35.6z M56.5,42.5h-7.2   l-3,7.8l-4.5-1.5l7.8-20.3L54,30l-3.3,8.5h5.6v4.1H56.5z M67.1,117.8c0,2.7-1,5.2-2.9,7.2c-1.9,2-4.2,3.3-7.1,3.5H57v-4.2h0.1   c1.5-0.3,2.9-1.1,3.8-2.3c1-1.2,1.5-2.6,1.5-4.2v-17.5h4.6V117.8z M78.7,127.9H74v-27.5h4.6V127.9z M79.5,65.3H67.4v19.2h12.1v4.1   H62.7V61.2h16.8V65.3z M77.7,73V77H70V73H77.7z M90,113.9L90,113.9c-1.5,1.5-3.4,2.3-5.6,2.3h-3.1v-4.1h3c1,0,1.9-0.4,2.5-1.1   c0.7-0.7,1-1.6,1-2.7s-0.3-2-1-2.7c-0.7-0.7-1.5-1.1-2.5-1.1h-3v-4.1h3.1c2.2,0,4.1,0.8,5.6,2.3s2.3,3.4,2.3,5.6   C92.3,110.5,91.5,112.4,90,113.9z M90,87.7c-1.9-1.2-3.3-2.9-4.1-5.2v-0.1l4-1.6v0.1c0.4,1.5,1.2,2.6,2.5,3.4   c1.1,0.8,2.3,1.1,3.7,1.1c1.5,0,2.7-0.4,3.8-1.2c1.1-0.8,1.5-1.9,1.5-3.3c0-0.8-0.3-1.6-0.8-2.2c-0.5-0.7-1.4-1.1-2.6-1.4L96.8,77   l1.1-4.1l1.5,0.4c2,0.4,3.5,1.4,4.6,2.7c1.1,1.4,1.6,2.9,1.6,4.6c0,2.3-0.8,4.4-2.6,6.1c-1.8,1.8-4.1,2.6-7.1,2.6   C94,89.5,91.9,88.9,90,87.7z"/>
</g>
</svg>