<?xml version="1.0" encoding="UTF-8"?>
<!-- Generator: Adobe Illustrator 13.0.1, SVG Export Plug-In . SVG Version: 6.00 Build 14948)  -->
<!DOCTYPE svg PUBLIC "-//W3C//DTD SVG 1.1//EN" "http://www.w3.org/Graphics/SVG/1.1/DTD/svg11.dtd">
<svg version="1.1" id="Layer_2_copy_2" xmlns="http://www.w3.org/2000/svg" xmlns:xlink="http://www.w3.org/1999/xlink" x="0px" y="0px" width="203.25px" height="100.5px" viewBox="0 0 203.25 100.5" enable-background="new 0 0 203.25 100.5" xml:space="preserve">
<g id="Layer_1_copy_2">
	<g>
		<g>
			<g>
				<g>
					<path fill="#005837" d="M12.625,3.464v0.924H9.609v21.061c0,5.111,2.89,6.744,5.528,6.744c3.979,0,6.784-2.68,6.784-7.038       V4.388h-3.769V3.464h7.452v0.924h-2.513v20.81c0,4.857-3.224,7.916-8.124,7.916c-6.785,0-9.882-2.849-9.882-8.63V4.388h-2.51       V3.464H12.625z"/>
					<path fill="#005837" d="M25.733,11.173h5.861v2.845h0.082c1.005-1.802,2.973-3.518,5.905-3.518c3.31,0,5.652,1.593,5.652,6.156       V31.52h2.262v0.922h-8.628V31.52h2.43V16.153c0-3.1-0.965-4.147-2.93-4.147c-2.306,0-4.44,2.012-4.44,6.365V31.52h2.43v0.922       h-8.624V31.52h2.259V12.093h-2.259V11.173z"/>
					<path fill="#005837" d="M52.156,31.52h2.009v0.922h-7.954V31.52h2.006V12.093h-2.006v-0.92h5.945V31.52z M50.184,4.054       c1.343,0,2.388,0.961,2.388,2.386s-1.045,2.386-2.388,2.386c-1.338,0-2.384-0.961-2.384-2.386S48.846,4.054,50.184,4.054"/>
					<polygon fill="#005837" points="52.781,11.173 61.911,11.173 61.911,12.093 58.644,12.093 64.173,27.753 64.256,27.753 69.867,12.093 66.519,12.093 66.519,11.173 72.798,11.173 72.798,12.093 71.081,12.093 63.669,32.612 61.951,32.612 54.5,12.093 52.781,12.093"/>
					<path fill="#005837" d="M75.938,19.795c-0.041,0.418-0.041,0.841-0.041,1.257c0,8.083,2.011,10.889,5.191,10.889       c3.562,0,6.115-2.263,6.533-7.457h0.922c-0.211,5.781-3.601,8.63-7.871,8.63c-5.318,0-9.13-4.609-9.13-11.306       c0-6.702,4.061-11.308,9.005-11.308c4.77,0,7.826,3.351,7.826,9.295H75.938z M84.021,18.874v-1.632       c0-4.188-1.382-5.82-3.561-5.82c-2.596,0-4.145,2.596-4.479,7.452H84.021z"/>
					<path fill="#005837" d="M91.756,12.093h-2.26v-0.92h6.113v3.097h0.084c0.881-2.43,2.385-3.77,5.064-3.77       c1.049,0,2.264,0.462,2.891,0.752v8.212h-0.922l-1.465-4.316c-0.754-2.22-1.174-3.142-2.178-3.142       c-1.719,0-3.391,3.1-3.391,6.868V31.52h2.764v0.922h-8.961V31.52h2.26V12.093z"/>
					<path fill="#005837" d="M105.544,23.898c1.507,7.035,2.345,8.294,6.115,8.294c3.265,0,5.693-1.676,5.693-4.732       c0-4.063-12.979-3.185-12.979-10.261c0-4.185,3.389-6.699,8.207-6.699c2.26,0,4.438,0.629,6.027,1.466v6.74h-1.171       c-1.801-6.196-2.261-7.284-5.236-7.284c-2.637,0-5.149,1.461-5.149,3.771c0,5.271,12.98,3.474,12.98,10.801       c0,4.271-3.685,7.119-8.71,7.119c-2.177,0-4.814-0.63-6.948-1.842v-7.373H105.544z"/>
					<path fill="#005837" d="M127.192,31.52h2.011v0.922h-7.956V31.52h2.008V12.093h-2.008v-0.92h5.945V31.52z M125.225,4.054       c1.341,0,2.387,0.961,2.387,2.386s-1.046,2.386-2.387,2.386c-1.339,0-2.386-0.961-2.386-2.386S123.886,4.054,125.225,4.054"/>
					<path fill="#005837" d="M129.454,11.173h2.638V6.144h3.936v5.029h4.857v0.92h-4.857v17.252c0,1.589,0.67,2.26,2.262,2.26       c1.8,0,2.849-1.088,2.849-4.186v-3.352h0.922v3.099c0,4.438-1.841,5.947-5.279,5.947c-3.014,0-4.688-1.594-4.688-5.027V12.093       h-2.638V11.173z"/>
					<path fill="#005837" d="M139.965,11.173h8.959v0.92h-3.14l6.113,14.613l5.026-14.613h-3.644v-0.92h6.7v0.92h-1.884       l-7.664,22.065c-1.592,4.649-2.888,5.571-5.276,5.571c-1.548,0-2.595-0.378-3.183-1.007v-6.53h0.919l1.133,4.062       c0.588,2.176,1.255,2.554,1.927,2.554c1.675,0,3.016-2.89,4.019-6.493l-8.414-20.222h-1.592V11.173z"/>
					<path fill="#005837" d="M38.873,80.617v-1.386h3.783V38.367h-3.783v-1.391h18.351c10.595,0,14.318,5.048,14.318,10.535       c0,6.117-4.795,10.34-13.877,10.91l15.01,20.81h3.09v1.386H65.738L49.722,58.422h-0.256v20.81h4.794v1.386H38.873z        M49.466,57.408h3.721c7.507,0,11.162-3.655,11.162-9.896c0-4.416-2.207-9.145-9.142-9.145h-5.741V57.408z"/>
					<path fill="#005837" d="M79.306,61.573c-0.061,0.63-0.061,1.263-0.061,1.89c0,12.172,3.025,16.399,7.819,16.399       c5.359,0,9.209-3.406,9.836-11.227h1.389c-0.316,8.706-5.424,12.991-11.855,12.991c-8.008,0-13.748-6.937-13.748-17.028       c0-10.089,6.117-17.022,13.558-17.022c7.189,0,11.795,5.041,11.795,13.997H79.306z M91.479,60.187v-2.46       c0-6.307-2.08-8.767-5.357-8.767c-3.912,0-6.247,3.912-6.75,11.227H91.479z"/>
					<path fill="#005837" d="M127.078,50.348h-4.79v0.127c2.266,1.576,3.401,4.792,3.401,7.756c0,5.99-4.666,10.659-11.223,10.659       c-5.93,0-6.937-2.27-7.822-2.27c-1.893,0-4.413,1.889-4.413,4.031c0,9.65,25.478-2.143,25.478,11.798       c0,5.105-5.421,10.149-13.748,10.149c-9.461,0-13.622-4.159-13.622-7.563c0-2.337,2.334-4.104,4.036-4.671v-0.123       c-3.783-0.884-5.548-3.785-5.548-7.063c0-4.606,3.023-7.001,6.559-7.946c-1.327-1.45-2.398-4.099-2.398-7.316       c0-6.054,4.92-10.339,11.351-10.339c1.642,0,3.785,0.377,4.982,1.007h7.758V50.348z M113.455,91.213       c6.56,0,10.849-3.279,10.849-6.558c0-2.398-1.072-3.657-5.804-3.785l-11.855-0.253c-1.512,0.883-2.27,2.774-2.27,4.604       C104.375,88.06,107.781,91.213,113.455,91.213 M114.338,67.5c3.282,0,5.047-1.892,5.047-9.27c0-7.379-1.765-9.271-5.047-9.271       c-3.278,0-5.045,1.892-5.045,9.271C109.293,65.608,110.557,67.5,114.338,67.5"/>
					<path fill="#005837" d="M138.195,79.231h3.029v1.386H129.24v-1.386h3.028v-29.26h-3.028v-1.389h8.955V79.231z M135.232,37.861       c2.019,0,3.593,1.45,3.593,3.596c0,2.146-1.574,3.595-3.593,3.595s-3.594-1.448-3.594-3.595       C131.639,39.312,133.214,37.861,135.232,37.861"/>
					<path fill="#005837" d="M142.768,48.583h8.83v4.289h0.125c1.516-2.711,4.477-5.296,8.893-5.296       c4.982,0,8.512,2.396,8.512,9.269v22.387h3.406v1.386h-12.988v-1.386h3.656V56.087c0-4.667-1.451-6.244-4.414-6.244       c-3.469,0-6.686,3.029-6.686,9.588v19.801h3.656v1.386h-12.99v-1.386h3.404v-29.26h-3.404V48.583z"/>
					<path fill="#005837" d="M176.443,60.06V49.843c3.279-1.324,6.307-2.267,9.646-2.267c7.883,0,11.418,4.161,11.418,8.069v23.586       h3.025v1.386h-8.578v-5.548h-0.125c-1.514,3.908-5.107,6.558-9.582,6.558c-5.68,0-9.586-3.278-9.586-8.764       c0-11.038,12.99-7.823,19.293-11.669v-6.623c0-3.973-2.143-5.611-5.484-5.611c-4.414,0-5.611,2.271-8.641,11.1H176.443z        M191.955,62.836c-7.123,3.341-12.988,0.945-12.988,10.027c0,4.729,1.766,6.494,5.107,6.494       c4.73-0.126,7.881-4.795,7.881-11.728V62.836z"/>
					<path fill="#005837" d="M18.837,48.727c3.911,0,6.875,3.468,6.875,8.516c0,5.044-2.964,8.512-6.875,8.512       c-3.909,0-6.873-3.468-6.873-8.512C11.964,52.194,14.928,48.727,18.837,48.727 M18.837,65.06c2.366,0,3.595-1.701,3.595-7.817       c0-6.119-1.229-7.822-3.595-7.822c-2.362,0-3.594,1.703-3.594,7.822C15.243,63.358,16.475,65.06,18.837,65.06"/>
					<path fill="#005837" d="M26.34,49.23h1.514v-1.733c0-2.902,1.515-4.57,4.983-4.57c0.947,0,1.892,0.158,2.775,0.44v4.163h-0.695       c-1.133-3.597-1.576-3.91-2.586-3.91c-0.753,0-1.511,0.503-1.511,2.081v3.529h3.782v0.693H30.82v14.632h2.267v0.694H26.34       v-0.694h1.514V49.924H26.34V49.23z"/>
				</g>
			</g>
		</g>
	</g>
</g>
</svg>