<?xml version="1.0" encoding="UTF-8" standalone="no"?>
<svg
   xmlns:dc="http://purl.org/dc/elements/1.1/"
   xmlns:cc="http://creativecommons.org/ns#"
   xmlns:rdf="http://www.w3.org/1999/02/22-rdf-syntax-ns#"
   xmlns:svg="http://www.w3.org/2000/svg"
   xmlns="http://www.w3.org/2000/svg"
   xmlns:sodipodi="http://sodipodi.sourceforge.net/DTD/sodipodi-0.dtd"
   xmlns:inkscape="http://www.inkscape.org/namespaces/inkscape"
   version="1.1"
   id="svg2"
   xml:space="preserve"
   width="2180.3079"
   height="621.91833"
   viewBox="0 0 2180.3079 621.91833"
   sodipodi:docname="中英文校名標準字.svg"
   inkscape:version="1.0.1 (3bc2e813f5, 2020-09-07)"><metadata
     id="metadata8"><rdf:RDF><cc:Work
         rdf:about=""><dc:format>image/svg+xml</dc:format><dc:type
           rdf:resource="http://purl.org/dc/dcmitype/StillImage" /><dc:title></dc:title></cc:Work></rdf:RDF></metadata><defs
     id="defs6"><clipPath
       clipPathUnits="userSpaceOnUse"
       id="clipPath18"><path
         d="M 0,1191 H 1684 V 0 H 0 Z"
         id="path16" /></clipPath></defs><sodipodi:namedview
     pagecolor="#ffffff"
     bordercolor="#666666"
     borderopacity="1"
     objecttolerance="10"
     gridtolerance="10"
     guidetolerance="10"
     inkscape:pageopacity="0"
     inkscape:pageshadow="2"
     inkscape:window-width="1920"
     inkscape:window-height="1001"
     id="namedview4"
     showgrid="false"
     inkscape:zoom="0.46284635"
     inkscape:cx="1084.8195"
     inkscape:cy="426.98851"
     inkscape:window-x="-9"
     inkscape:window-y="-9"
     inkscape:window-maximized="1"
     inkscape:current-layer="g10" /><g
     id="g10"
     inkscape:groupmode="layer"
     inkscape:label="中英文校名標準字"
     transform="matrix(1.3333333,0,0,-1.3333333,-37.847132,1134.5668)"><g
       id="g12"
       transform="matrix(2.5999069,0,0,2.5999069,-1258.7321,-1361.4012)"
       style="fill:#0d5c33;fill-opacity:1"><g
         id="g14"
         clip-path="url(#clipPath18)"
         style="fill:#0d5c33;fill-opacity:1"><g
           id="g20"
           transform="translate(1062.0674,733.0298)"
           style="fill:#0d5c33;fill-opacity:1"><path
             d="m 0,0 v 0 -6.983 c -2.524,1.247 -4.402,2.766 -4.997,4.544 C -4.491,-0.758 -2.513,-0.143 0,0 m 0,19.203 v 0 V 8.427 C -1.304,8.404 -2.677,8.49 -4.216,8.498 -12.552,8.54 -9.262,6.907 -11.732,6.24 c -7.454,0.157 -5.443,7.76 1.653,10.753 3.578,1.508 6.871,1.914 10.079,2.21 m 0,27.025 v 0 L -0.986,45.494 C -3.065,38.754 -3.794,35.836 0,34.309 Z m 0,46.307 c -0.224,-0.264 -0.469,-0.553 -0.744,-0.871 -1.906,2.505 -1.881,8.093 -7.921,7.74 -1.906,-3.161 0.269,-30 0.283,-37.934 0.01,-5.202 3.461,-3.599 3.417,-10.117 l -9.026,0.153 -1.391,9.637 c -6.193,-0.015 -3.237,-2.693 -5.445,-6.71 -1.317,-2.394 -3.573,-4.272 -5.029,-7.377 -0.978,-2.085 -5.148,-22.106 2.819,-15.999 3.017,2.315 3.671,12.313 9.279,15.179 1.705,0.871 8.808,2.902 13.758,3.896 V 71.04 c -0.716,-1.227 -1.604,-2.094 -2.71,-2.394 0,4.756 -1.363,16.032 2.71,19.585 z M 15.405,0.382 C 14.802,0.07 14.11,-0.192 13.316,-0.397 10.834,-1.038 4.544,0.257 0,0 v -6.983 c 4.31,-2.128 10.502,-3.46 15.405,-3.93 z m 0,29.66 C 13.464,28.146 12.4,29.036 10.571,27.545 L 8.298,20.378 C 5.508,19.634 2.786,19.46 0,19.203 V 8.427 c 1.608,0.029 3.112,0.223 4.696,0.932 3.481,1.558 6.928,3.183 10.709,4.104 z m 0,46.476 V 63.964 L 11.2,57.368 h 3.76 c 0.016,0.789 0.182,1.366 0.445,1.793 v -6.003 c -0.364,-0.171 -0.74,-0.357 -1.133,-0.562 L 13.675,44.472 9.028,41.691 9.321,41.202 c 1.915,0.456 3.95,1.298 6.084,2.238 V 35.26 C 15.22,35.185 15.005,35.104 14.756,35.015 12.084,34.069 8.537,32.792 5.78,33.111 3.208,33.409 1.328,33.774 0,34.309 V 46.228 L 5.228,50.117 4.81,50.601 C 4.267,50.848 2.383,50.61 0,50.132 V 71.04 C 2.708,75.683 2.93,85.494 2.93,89.324 1.729,89.298 0.769,88.902 0,88.231 v 4.304 C 2.755,95.786 2.039,95.1 8.945,95.714 12.892,88.046 3.262,74.184 3.323,59.543 L 0.264,58.866 1.039,55.168 6.78,56.236 6.689,65.638 c 4.447,2.254 7.332,6.198 8.716,10.88 m 0,10.99 v 0 -9.935 c -2.379,-0.824 -3.96,-3.335 -6.876,-1.308 l 0.456,6.598 z m 0,11.82 v 0 -9.848 l -1.67,0.123 c -2.241,2.352 -1.247,7.168 1.67,9.725 m 0,8.429 v 0 -1.09 c -0.163,0.239 -0.183,0.59 0,1.09 m 5.078,-72.474 v -46.339 c -1.347,-0.094 -3.108,-0.046 -5.078,0.143 V 0.382 c 4.42,2.289 4.067,7.364 4.067,13.752 -1.407,-0.117 -2.757,-0.352 -4.067,-0.671 v 16.579 c 0.59,0.576 1.26,1.409 2.057,2.643 0.939,1.453 2.074,2.083 3.021,2.598 m 0,10.365 v 0 -7.615 C 19.677,37.867 18.837,37.668 18.095,37.317 15.818,36.241 17.57,36.14 15.405,35.26 v 8.18 c 1.637,0.721 3.333,1.5 5.078,2.208 m 0,66.728 c -1.64,-0.414 -3.05,-1.522 -4.16,-3.039 -0.47,-0.643 -0.765,-1.164 -0.918,-1.58 v -1.09 c 0.672,-0.987 3.776,-0.063 5.078,0.238 z M 20.224,59.248 v 0 c 0.075,0.076 0.168,0.101 0.259,0.096 v 25.878 l -0.259,-0.034 c 0.073,0.104 0.161,0.213 0.259,0.326 v 19.188 l -0.792,-3.691 C 18.016,101 16.56,100.341 15.405,99.328 V 89.48 l 2.476,-0.181 -2.476,-1.791 v -9.935 c 0.101,0.035 0.203,0.068 0.307,0.096 -0.093,-0.388 -0.194,-0.772 -0.307,-1.151 V 63.964 l 1.655,2.595 c 3.419,-2.083 2.412,-1.43 2.412,-5.808 -0.979,-0.45 -3.133,-0.076 -4.067,-1.59 v -6.003 c 2.086,0.984 3.737,1.44 5.078,1.542 v 4.296 c -0.264,-0.092 -0.728,-0.217 -0.259,0.252 m 5.092,-11.957 c -1.647,-0.426 -3.259,-1.006 -4.833,-1.643 v -7.615 c 0.679,0.139 1.334,0.254 1.89,0.414 0.314,-1.987 -0.621,-2.474 -1.89,-3.164 v -46.339 c 0.283,0.02 0.548,0.046 0.791,0.078 1.675,0.223 2.999,1.045 4.042,2.275 v 31.734 c -1.163,0.413 -1.976,1.141 -2.086,2.382 0.018,0.186 0.859,0.981 2.086,2.046 z m 0,64.18 v 0 -8.547 c -0.847,-0.954 -1.767,-1.884 -2.086,-3.074 0.755,0.001 1.452,-0.083 2.086,-0.237 V 89.401 c -1.81,-1.3 -3.876,-2.793 -4.833,-3.887 v 19.188 l 0.492,2.291 c -0.095,-0.002 -0.267,-0.035 -0.492,-0.088 v 5.471 c 0.792,0.2 1.637,0.238 2.529,0.082 0.979,-0.173 1.732,-0.51 2.304,-0.987 M 20.483,59.344 v 25.878 c 2.336,0.318 3.666,0.909 4.833,1.878 v -8.226 c -4.023,-2.138 -5.728,-6.347 -2.181,-10.507 0.764,0.756 1.5,1.395 2.181,1.966 V 52.985 c -1.137,1.028 -2.534,1.89 -4.833,1.715 v 4.296 c 0.09,0.031 0.157,0.058 0.158,0.057 0.586,-0.237 0.211,0.27 -0.158,0.291 m 4.833,43.58 v 0 8.547 c 1.331,-1.111 1.684,-2.98 1.654,-5.285 -0.019,-1.31 -0.799,-2.299 -1.654,-3.262 m 3.812,-80.388 v 0 -6.901 C 28.919,15.636 28.71,15.638 28.494,15.638 29.01,10.5 29.981,-3.201 25.316,-8.703 v 31.734 c 1.067,-0.38 2.428,-0.494 3.812,-0.495 m 0,25.418 v 0 -17.304 c -1.371,-1.12 -2.739,-2.259 -3.812,-3.191 v 19.832 c 1.251,0.324 2.524,0.558 3.812,0.663 m 0,26.281 C 28.537,72.864 27.116,71.84 25.316,70.333 V 52.985 c 1.289,-1.166 2.247,-2.542 3.812,-2.857 v 12.265 c -0.098,0.09 -0.197,0.182 -0.299,0.279 0.095,0.152 0.195,0.302 0.299,0.453 z m 0,16.609 v 0 c -0.54,-0.39 -0.962,-0.723 -1.182,-0.973 -1.009,-1.153 -1.776,-2.063 -2.63,-2.771 v -8.226 c 0.842,0.448 1.785,0.804 2.802,1.051 0.466,-0.92 0.797,-1.717 1.01,-2.42 v 7.879 l -0.237,0.159 c 0.051,0.089 0.131,0.2 0.237,0.329 z m 0,6.114 c -0.697,1.214 -2.003,2.217 -3.812,2.655 V 89.401 c 1.331,0.957 2.526,1.809 3.037,2.32 0.315,0.314 0.572,0.649 0.775,0.997 z m 0,-4.24 v 0 c 0.797,1.363 0.754,2.926 0,4.24 z M 34.766,22.782 H 34.511 C 33.25,22.779 31.165,22.535 29.128,22.536 v -6.901 c 2.24,-0.016 4.094,-0.116 5.638,-0.269 z m 0,24.698 c -1.909,0.507 -3.79,0.624 -5.638,0.474 V 30.65 c 2.389,1.951 4.784,3.846 5.638,4.487 z m 0,16.112 V 49.504 c -1.896,0.086 -4.19,0.341 -5.62,0.62 l -0.018,0.004 v 12.265 c 3.858,-3.541 4.917,-1.932 5.638,1.199 m 0,18.5 v 0 -12.213 c -1.53,-2.415 -4.078,-4.505 -5.638,-6.754 v 11.11 c 0.377,0.875 0.417,1.892 0,3.27 v 7.879 c 2.995,-1.994 4.682,-2.377 5.638,-3.292 m 0,12.951 v 0 -4.016 c -2.195,-1.79 -4.77,-4.093 -5.638,-5.155 v 4.972 c 1.553,1.12 4.089,2.716 5.638,4.199 m 0,-25.164 v 0 12.213 c 1.079,-1.031 1.228,-2.742 1.278,-8.214 0.014,-1.46 -0.501,-2.771 -1.278,-3.999 m 0,-20.375 v 0 c 0.443,-0.02 0.864,-0.031 1.247,-0.031 l 1.956,5.232 8.206,0.031 c -2.549,-2.269 -8.644,-3.254 -7.293,-7.667 l 22.834,3.227 c 0.094,0.267 0.172,0.529 0.237,0.786 v 3.543 c -0.847,2.871 -3.824,4.629 -7.225,4.916 -4.611,0.388 -11.255,1.242 -15.707,1.21 2.148,5.407 4.258,12.479 6.244,18.193 1.59,4.578 9.002,11.76 6.964,16.797 -1.944,4.801 -12.66,4.166 -17.254,-0.492 -0.068,-0.068 -0.137,-0.137 -0.209,-0.206 v -4.016 c 1.469,1.2 2.767,2.17 3.267,2.385 5.113,2.202 1.401,-9.172 0.889,-11.509 -1.023,-4.676 -2.235,-9.358 -3.284,-14.009 -0.345,-1.523 -0.581,-3.037 -0.872,-4.302 z m 0,-14.367 v 0 12.343 c 0.502,-0.133 1.005,-0.292 1.511,-0.482 l 1.658,-7.287 c -0.06,-0.187 -2.454,-4.044 -3.073,-4.502 z m 0,-19.771 v 7.416 c 4.377,-0.001 8.363,-0.377 12.896,-0.38 l 3.013,-7.14 C 41.033,10.378 45.914,14.26 34.766,15.366"
             style="fill:#0d5c33;fill-opacity:1;fill-rule:evenodd;stroke:none"
             id="path22" /></g><g
           id="g24"
           transform="translate(765.21,784.0293)"
           style="fill:#0d5c33;fill-opacity:1"><path
             d="m 0,0 v -5.469 c -0.322,-0.232 -0.691,-0.493 -1.123,-0.792 -1.687,-1.17 -8.033,-0.83 -10.879,-1.903 -0.532,-1.612 -1.237,-21.217 -1.033,-23.85 0.348,-4.497 1.028,-6.596 2.008,-10.842 0.212,-0.915 -1.486,-8.651 -2.223,-9.549 -4.416,-1.498 -7.704,1.485 -11.274,3.263 -2.386,1.189 -8.142,3.702 -10.089,5.271 l 1.207,3.351 c 4.953,1.886 9.13,-1.869 13.175,4.032 l 0.464,19.924 c -4.469,-0.002 -5.921,-2.832 -9.396,-5.643 -2.794,-2.26 -5.636,-4.335 -8.375,-6.663 -2.825,-2.402 -5.224,-4.857 -7.87,-7.167 -2.014,-1.758 -9.817,-2.719 -12.33,-1.58 0.065,3.534 14.342,10.033 18.55,13.406 4.623,3.706 8.232,7.274 11.877,11.807 1.691,2.103 3.231,1.536 4.537,3.359 -0.579,0.267 -8.817,1.548 -8.904,1.535 -1.441,-0.223 -6.236,-2.913 -7.638,-3.039 -1.991,1.391 -3.553,5.532 -8.67,8.623 -2.096,1.267 -3.864,1.783 -4.41,4.237 -0.309,1.391 -0.968,6.023 -0.586,7.197 2.153,0.702 6.148,-2.671 8.026,-3.892 1.599,2.445 3.081,4.894 6.057,3.801 0.217,-0.188 3.819,-5.772 4.102,-6.425 1.329,-3.074 1.163,-5.677 2.049,-8.043 l 11.331,2.37 0.522,6.042 c -2.547,0 -15.01,-1.434 -11.719,3.392 0.411,0.603 10.053,2.705 12.095,3.751 v 7.143 c -0.46,-0.215 -12.621,-1.515 -13.901,-1.526 -2.744,-0.026 -4.586,0.425 -7.165,0.384 -3.413,-0.054 -4.118,-0.265 -4.154,3.728 l 24.383,2.624 0.837,12.083 c -14.574,0 -14.66,-1.571 -14.701,3.592 l 14.669,2.832 c 4.914,4.905 -2.107,18.823 3.872,19.15 3.948,0.216 -0.126,-0.876 4.231,-2.089 4.418,-1.229 2.827,-5.499 2.832,-14.462 5.356,2.534 8.006,2.681 9.616,2.448 v -8.055 c -4.526,-1.012 -10.992,-2.23 -12.358,-2.518 l 1.614,-10.672 C -7.257,25.63 -3.625,26.301 0,26.99 v -5.611 c -5.173,-0.751 -10.169,-1.806 -11.872,-2.98 l -0.004,-5.79 10.375,-0.087 0.549,-5.701 -10.548,-0.637 -1.064,-8.146 z m 0,38.356 v 0 8.055 C 1.193,46.238 1.815,45.855 2.544,46.079 L 4.522,39.631 C 4.292,39.382 2.424,38.898 0,38.356 M 0.442,0.069 0,0 v -5.469 c 3.38,2.433 1.349,1.477 6.925,3.942 0.967,2.149 -0.569,2.203 2.003,3.637 1.856,1.036 2.489,0.502 3.578,2.437 C 19.643,17.224 27.929,18.52 26.268,25.299 24.451,32.714 14.323,29.53 9.074,28.657 6.115,28.165 3.06,27.571 0,26.99 v -5.611 c 4.921,0.715 10.002,1.154 12.564,1.155 C 12,15.896 2.822,5.687 0.442,0.069"
             style="fill:#0d5c33;fill-opacity:1;fill-rule:evenodd;stroke:none"
             id="path26" /></g><g
           id="g28"
           transform="translate(623.6362,800.1729)"
           style="fill:#0d5c33;fill-opacity:1"><path
             d="M 0,0 C 13.728,0 19.729,2.083 31.58,4.887 30.265,3.14 22.95,-0.842 20.594,-2.925 11.504,-10.966 -2.31,-28.648 5.639,-40.603 l 8.256,1.938 c 1.559,3.18 -2.118,0.886 4.425,6.434 2.597,2.203 3.774,3.076 6.743,4.536 1.259,0.62 6.583,4.226 6.657,4.245 2.392,0.652 2.601,-0.722 4.755,0.885 1.973,1.471 1.696,1.136 4.503,1.135 -0.021,-0.057 -9.014,-12.48 -9.693,-13.238 -4.012,-4.476 -6.61,-8.208 -12.354,-10.956 -2.326,-1.112 -1.528,-0.649 -3.477,-2.161 -2.006,-1.554 -2.758,-0.301 -5.079,-0.937 -2.565,-0.701 -3.804,-4.282 -6.028,-5.626 -3.577,-2.162 -13.866,-4.867 -10.126,-11.983 5.494,-3.597 22.438,2.264 29.087,3.924 5.259,1.314 8.961,3.387 13.37,4.676 3.803,1.111 14.21,0.574 16.734,1.668 1.583,3.279 -0.831,7.158 -2.659,9.821 -7.97,0 -4.849,-0.363 -10.718,-2.065 -1.001,-0.29 -10.273,-0.77 -12.215,-0.943 1.78,1.615 5.411,3.285 7.907,4.5 3.958,1.929 3.587,4.322 6.359,6.047 7.169,4.46 5.848,9.495 12.928,11.885 1.465,4.493 -0.098,8.233 -2.992,12.297 -0.577,0.812 -3.864,1.87 -5.652,2.994 -1.881,1.182 -6.062,0.892 -8.3,0.525 -1.22,-0.201 -10.549,-4.064 -12.806,-4.864 -2.618,-0.926 -2.514,-2.894 -4.941,-3.706 -2.649,-0.886 -1.554,0.549 -3.117,-1.393 -1.092,-1.356 -0.091,-1.298 -2.919,-1.592 0,7.145 1.61,5.681 5.927,9.862 2.731,2.644 5.034,5.416 7.7,8.09 2.922,2.931 5.935,4.51 8.096,7.693 2.936,4.322 5.929,4.808 10.983,4.806 l -0.447,0.379 3.98,4.701 C 50.029,20.053 43.154,16.901 38.335,15.801 30.226,13.951 32.328,10.852 8.348,7.442 3.381,6.736 -4.642,6.924 0,0"
             style="fill:#0d5c33;fill-opacity:1;fill-rule:evenodd;stroke:none"
             id="path30" /></g><g
           id="g32"
           transform="translate(887.8643,800.8618)"
           style="fill:#0d5c33;fill-opacity:1"><path
             d="m 0,0 c -0.026,0.151 4.742,7.356 5.272,8.01 5.902,7.274 2.931,7.09 -4.834,7.09 -5.456,0 -3.601,-0.025 -3.087,-3.656 C -6.392,7.637 -10.22,-1.752 -8.73,-6.851 l 8.416,-0.25 c -0.625,-0.857 -4.666,-3.472 -5.803,-4.327 -2.867,-2.155 -3.252,-3.47 -6.603,-3.172 0.695,8.183 4.907,5.252 -0.916,12.995 -2.282,3.035 -5.669,9.91 -8.589,10.394 -1.263,-7.636 -2.542,-15.792 1.986,-22.637 -2.501,-3.779 -6.763,-8.299 -6.767,-13.157 -8.181,-2.108 -13.559,-4.726 -22.163,-5.658 -4.151,-0.449 -8.254,-0.979 -12.424,-1.485 -3.602,-0.437 -8.812,-0.449 -7.693,-5.776 3.287,-2.277 16.926,0.75 21.259,1.608 8.282,1.64 12.069,3.801 21.021,3.791 l -1.335,-2.908 2.866,-0.464 -0.027,-2.267 c -9.393,-0.672 -5.479,0.09 -12.406,0 -2.231,0 -7.632,-1.055 -9.023,-3.007 l -0.452,-0.298 3.612,-5.489 c 5.229,0.504 14.592,1.657 19.397,1.651 0,-8.03 -0.881,-18.36 -1.076,-26.694 l -0.052,-12.404 c 0,-2.51 0.2,-3.266 1.503,-5.263 5.728,-0.016 5.343,3.626 6.171,8.115 1.47,7.965 4.727,31.886 4.732,38.126 l 22.376,2.638 c 1.408,5.772 -4.377,7.888 -9.218,7.888 -5.078,0 -4.507,-3.753 -12.782,-3.759 v 4.512 c 4.907,2.455 8.792,3.898 14.188,4.985 2.592,0.522 14.904,2.246 16.011,3.163 l 0.043,4.5 c -3.096,3.646 -23.311,-4.576 -30.096,-1.14 3.331,7.287 25.823,10.367 31.433,18.943 C 18.857,0.544 17.352,3.07 12.844,3.07 9.339,3.07 2.724,1.277 0.438,-0.314 Z"
             style="fill:#0d5c33;fill-opacity:1;fill-rule:evenodd;stroke:none"
             id="path34" /></g><g
           id="g36"
           transform="translate(528.146,766.7134)"
           style="fill:#0d5c33;fill-opacity:1"><path
             d="m 0,0 c 1.143,1.693 9.343,6.373 11.699,7.85 1.713,1.074 3.766,1.464 5.385,1.097 v -9.814 c -3.235,-4.451 -6.151,-5.155 -8.365,-8.604 -2.749,-4.284 -6.085,-6.241 -9.471,-9.703 3.211,0.765 10.886,3.545 17.836,5.346 v -8.501 c -9.673,-2.019 -22.903,-7.376 -27.252,-7.379 l -1.862,5.271 C -9.097,-19.954 9.311,-3.939 9.399,0.751 7.37,-0.637 1.466,-3.567 0.2,-5.087 -1.886,-7.591 -5.128,-11.688 -8.76,-8.794 -13.046,4.149 23.108,19.881 8.271,27.444 8.175,22.929 -0.691,13.999 -4.887,13.91 -11.73,18.783 -0.606,39.446 4.135,37.219 6.938,32.966 0.812,32.305 2.192,26.462 l 5.115,2.223 0.212,-0.489 c 0.21,9.94 -3.454,7.38 -4.135,15.037 -3.813,-0.339 -17.033,-7.824 -17.651,-2.541 -0.33,2.821 4.424,4.448 6.702,5.219 4.479,1.518 4.566,0.376 8.264,3.71 L 0.65,54.238 c 2.755,1.077 4.525,-1.223 6.45,-2.781 4.02,0.531 7.074,2.635 9.984,4.45 v -6.835 c -3.416,-1.247 -6.214,-2.75 -6.223,-5.815 -0.007,-2.285 1.297,-7.222 2.297,-8.67 1.488,0.134 2.615,1.147 3.926,2.138 V 31.066 C 15.751,30.871 16.196,29.988 16.36,28.085 l 0.724,1.324 V 13.335 C 16.595,14.294 16.166,15.041 15.863,15.34 11.809,13.497 10.918,10.721 7.808,7.605 6.866,6.661 -0.464,0.464 -0.438,0.313 Z m 17.084,-0.867 v 0 9.814 C 19.746,8.344 21.236,5.698 18.12,0.677 17.772,0.116 17.426,-0.396 17.084,-0.867 m 0,-21.462 v 0 8.501 c 5.269,1.365 10.121,2.168 12.297,1.102 1.913,-1.541 1.922,-5.728 1.214,-8.095 -1.423,-0.426 -8.857,-0.707 -11.308,-1.098 -0.708,-0.113 -1.445,-0.251 -2.203,-0.41 m 0,71.401 v 0 c 5.187,1.891 11.797,3.189 12.24,8.448 -5,2.574 -8.5,0.72 -12.24,-1.613 z m 0,-35.737 c 1.162,-2.272 2.668,-5.736 3.66,-7.253 1.375,-2.101 2.078,-2.124 3.62,-3.523 1.26,-1.142 1.831,-3.253 2.724,-4.795 2.461,-4.254 10.351,-14.275 15.906,-12.568 2.471,7.88 -1.659,6.835 -3.654,13.541 -1.143,3.842 -6.632,13.892 -6.632,3.519 -5.702,2.677 -3.356,2.733 -6.933,8.481 -1.023,1.644 -5.519,8.338 -5.85,9.564 2.998,6.059 11.855,5.852 17.742,8.198 7.574,3.017 2.633,14.989 -3.08,15.487 -3.248,-4.909 -0.792,-5.069 -2.547,-8.355 -0.669,-1.253 -1.662,-1.796 -2.401,-2.862 -1.313,-1.894 -0.023,-2.433 -2.947,-2.693 l 0.431,0.038 -1.43,7.985 c -4.389,1.465 -6.695,0.071 -8.609,-1.374 v -5.659 c 0.246,0.037 0.551,0.049 0.929,0.041 l -0.929,-1.698 z"
             style="fill:#0d5c33;fill-opacity:1;fill-rule:evenodd;stroke:none"
             id="path38" /></g><g
           id="g40"
           transform="translate(959.1016,830.9224)"
           style="fill:#0d5c33;fill-opacity:1"><path
             d="M 0,0 2.129,8.682 -5.592,6.863 c -0.767,-2.968 0.879,-5.116 1.237,-8.012 0.75,-6.084 -1.922,-19.243 -1.826,-26.242 0.064,-4.589 1.823,-1.786 0.359,-7.426 -1.552,-5.981 -20.061,-3.525 -23.247,-4.955 -0.005,-4.289 6.154,-4.283 9.444,-5.219 2.533,-0.72 10.085,-2.457 11.608,-3.429 -0.01,-8.058 -3.549,-17.941 -8.036,-24.67 -2.972,-4.459 -4.839,-4.989 -9.134,-7.408 -3.371,-1.898 0.485,-1.205 -5.353,-2.918 -2.399,-0.704 -3.251,-2.451 -2.665,-4.854 2.037,-1.04 4.272,-0.804 6.638,-1.634 3.794,-1.33 2.285,-1.844 6.595,-0.706 4.671,1.232 9.612,1.013 10.827,6.1 5.624,-3.712 2.118,4.705 5.23,7.553 1.509,1.381 2.885,9.477 3.036,12.002 0.519,8.658 -3.77,15.909 3.705,17.446 4.533,0.931 0.705,-2.998 5.008,-0.669 9.16,4.958 24.483,9.931 35.279,9.908 4.812,-0.01 8.663,0.771 8.646,6.393 -8.045,5.261 -3.266,4.481 -7.014,9.15 -1.402,0.039 -7.625,0.55 -8.443,0.001 l -0.464,-4.627 c -11.506,-7.514 -20.949,-6.011 -25.241,-7.369 -2.742,-0.868 -0.043,-1.227 -3.588,-0.995 -1.695,0.111 -3.835,0.369 -5.251,-0.296 -0.35,1.271 1.378,-0.501 0.874,2.679 -0.204,1.288 -0.857,2.854 -1.093,4.244 C 0.675,-24.003 3.438,-10.453 0,0"
             style="fill:#0d5c33;fill-opacity:1;fill-rule:evenodd;stroke:none"
             id="path42" /></g><g
           id="g44"
           transform="translate(567.9966,841.5264)"
           style="fill:#0d5c33;fill-opacity:1"><path
             d="m 0,0 c -7.142,-1.186 -15.449,-4.074 -22.58,-5.993 -7.316,-1.968 -16.316,-3.528 -23.184,-5.762 -4.439,-1.444 -7.194,-1.91 -11.29,-3.079 -5.432,-1.55 -3.458,-5.32 0.973,-6.463 7.124,-1.838 15.521,2.956 21.701,6.052 5.028,2.518 16.56,5.184 22.315,6.256 4.44,0.827 8.296,1.257 12.811,1.446 5.979,0.25 7.648,-0.535 8.028,-6.606 1.168,-18.603 -0.06,-37.836 1.739,-55.79 0.639,-6.377 2.598,-20.656 2.211,-26.292 -0.892,-12.992 -17.26,-4.377 -18.026,-10.816 -0.335,-2.82 14.279,-9.407 18.188,-4.037 4.608,6.327 8.178,12.53 7.302,20.618 -1.986,18.352 -3.536,35.514 -3.639,54.021 -0.036,6.438 2.117,22.392 1.576,26.432 C 16.873,-0.649 7.909,1.313 0,0"
             style="fill:#0d5c33;fill-opacity:1;fill-rule:evenodd;stroke:none"
             id="path46" /></g><g
           id="g48"
           transform="translate(863.1836,823.1172)"
           style="fill:#0d5c33;fill-opacity:1"><path
             d="M 0,0 C 1.899,2.525 2.446,3.816 5.317,6.255 L 5.43,6.35 v -7.715 c -1.315,-0.629 -2.754,-1.281 -4.393,-2.02 -2.629,0.633 0.354,0.945 -2.972,1.226 -8.294,0.701 -5.101,4.951 -7.18,6.26 -6.521,1.839 -5.164,-0.419 -10.833,0.046 -2.022,0.166 -8.618,1.613 -10.216,2.597 -1.539,0.946 -1.757,3.506 -0.127,4.28 l 17.597,1.366 0.074,9.547 c 7.625,2.256 8.153,-3.231 11.35,-5.861 1.774,-1.458 4.206,-1.353 6.7,-0.806 V 9.922 L 0.452,8.382 Z m 5.43,9.922 5.427,1.681 C 10.98,10.327 6.946,7.601 5.43,6.35 v -7.715 c 4.553,2.178 7.611,4.081 12.267,8.399 2.151,1.993 4.219,6.1 7.018,6.516 3.415,0.508 11.105,-0.109 13.327,0.588 l -0.285,4.424 -10,0.731 c -0.554,1.149 -1.856,7.132 -3.954,8.515 H 22.034 C 21.595,27.53 21.132,27.039 20.643,26.28 16.358,19.638 20.797,18.644 12.179,17.063 10.211,16.703 7.793,15.788 5.43,15.27 Z"
             style="fill:#0d5c33;fill-opacity:1;fill-rule:evenodd;stroke:none"
             id="path50" /></g><g
           id="g52"
           transform="translate(848.8281,807.6914)"
           style="fill:#0d5c33;fill-opacity:1"><path
             d="m 0,0 c -0.51,-0.714 -9.744,-8.791 -11.568,-10.613 -2.278,-2.275 -8.571,-11.026 -7.773,-13.986 0.192,-0.713 4.004,-5.167 4.78,-6.13 5.121,-6.352 17.154,11.386 17.193,13.435 l -4.472,1.291 c 0.238,3.497 11.373,18.99 14.56,19.825 2.3,0.602 28.812,4.635 22.859,9.148 -4.271,3.24 -9.497,0.46 -13.819,-0.894 -1.802,-0.565 -5.173,-1.471 -6.988,-1.748 -2.523,-0.387 -2.258,1.745 -6.904,1.38 C 5.425,11.516 5.681,10.44 0.807,10.096 -2.48,9.864 -2.457,8.838 -4.406,6.662 -10.962,-0.655 -6.609,-0.004 0,0"
             style="fill:#0d5c33;fill-opacity:1;fill-rule:evenodd;stroke:none"
             id="path54" /></g><g
           id="g56"
           transform="translate(984.1689,766.7134)"
           style="fill:#0d5c33;fill-opacity:1"><path
             d="m 0,0 c -4.049,-2.977 -1.159,-4.839 1.205,-8.57 1.776,-2.801 3.806,-5.866 5.777,-8.508 1.476,-1.976 4.041,-8.323 4.894,-9.392 0.891,-1.117 10.003,-3.045 11.699,-2.769 5.742,0.935 -3.419,16.428 -5.562,19.056 C 15.613,-7.243 3.798,2.792 0,0"
             style="fill:#0d5c33;fill-opacity:1;fill-rule:evenodd;stroke:none"
             id="path58" /></g><g
           id="g60"
           transform="translate(786.0454,745.6602)"
           style="fill:#0d5c33;fill-opacity:1"><path
             d="m 0,0 c -2.848,-1.228 -8.71,-1.849 -6.85,-6.485 1.159,-0.392 7.39,2.103 12.322,1.401 3.695,-0.527 9.644,1.204 7.45,6.342 -4.092,9.584 -21.49,13.465 -31.116,15.511 -1.919,0.408 -5.712,1.715 -5.485,-1.242 0.187,-2.449 2.909,-2.291 5.029,-2.973 C -12.42,10.546 -8.201,7.763 -2.494,5.401 1.055,3.932 0,4.274 0,0"
             style="fill:#0d5c33;fill-opacity:1;fill-rule:evenodd;stroke:none"
             id="path62" /></g><g
           id="g64"
           transform="translate(496.5669,778.7432)"
           style="fill:#0d5c33;fill-opacity:1"><path
             d="m 0,0 c -0.327,-0.251 -1.171,-6.812 -1.504,-14.512 v -11.489 c 0.471,-8.633 2.26,-15.473 6.891,-12.879 1.829,1.025 1.38,19.249 1.38,22.339 0,2.815 0.333,9.515 -0.164,11.866 C 5.997,-1.803 3.659,2.813 0,0"
             style="fill:#0d5c33;fill-opacity:1;fill-rule:evenodd;stroke:none"
             id="path66" /></g><g
           id="g68"
           transform="translate(652.2231,831.0146)"
           style="fill:#0d5c33;fill-opacity:1"><path
             d="m 0,0 c -0.007,-2.757 -0.164,-6.497 3.985,-4.829 1.221,0.491 6.266,2.34 6.63,3.135 C 11.936,1.186 6.367,9.085 3.992,10.759 3.421,11.162 -10.71,17.484 -8.341,11.295 -6.957,7.677 -2.89,1.683 0,0"
             style="fill:#0d5c33;fill-opacity:1;fill-rule:evenodd;stroke:none"
             id="path70" /></g><g
           id="g72"
           transform="translate(502.6382,676.6367)"
           style="fill:#0d5c33;fill-opacity:1"><path
             d="m 0,0 c 0.038,-1.289 0.076,-2.247 0.114,-2.876 0.032,-0.628 0.083,-1.231 0.146,-1.815 -0.482,0.063 -1.035,0.094 -1.651,0.094 -0.622,0 -1.174,-0.031 -1.656,-0.094 0.063,0.584 0.114,1.187 0.146,1.815 0.038,0.622 0.076,1.581 0.114,2.87 0.051,2.533 0.076,5.358 0.076,8.488 0,3.099 -0.025,5.892 -0.076,8.374 -0.038,1.289 -0.076,2.248 -0.114,2.87 -0.032,0.628 -0.083,1.232 -0.146,1.815 0.546,-0.063 1.155,-0.095 1.84,-0.095 0.68,0 1.29,0.032 1.823,0.095 2.368,-2.99 5.479,-6.583 9.333,-10.78 l 6.824,-7.295 0.019,4.895 c 0,3.13 -0.019,5.949 -0.069,8.47 -0.032,1.276 -0.07,2.234 -0.108,2.856 -0.038,0.629 -0.089,1.239 -0.153,1.835 0.483,-0.063 1.035,-0.095 1.657,-0.095 0.616,0 1.168,0.032 1.651,0.095 -0.058,-0.584 -0.108,-1.187 -0.146,-1.815 -0.039,-0.623 -0.077,-1.581 -0.115,-2.87 -0.051,-2.521 -0.076,-5.352 -0.076,-8.488 0,-5.219 0.064,-9.574 0.191,-13.059 -0.648,0.076 -1.2,0.113 -1.664,0.113 -0.469,0 -1.028,-0.037 -1.688,-0.113 C 13.263,-1.022 9.339,3.447 4.501,8.71 L -0.057,13.586 -0.076,8.469 C -0.076,5.339 -0.051,2.521 0,0"
             style="fill:#0d5c33;fill-opacity:1;fill-rule:nonzero;stroke:none"
             id="path74" /></g><g
           id="g76"
           transform="translate(536.2061,690.8833)"
           style="fill:#0d5c33;fill-opacity:1"><path
             d="m 0,0 c -0.724,-1.739 -1.485,-3.631 -2.286,-5.676 l -1.11,-2.844 c 1.015,-0.114 2.107,-0.159 3.275,-0.146 1.207,0.013 2.362,0.063 3.46,0.166 L 3.282,-8.355 C 2.114,-5.314 1.022,-2.533 0.006,0 Z m -8.749,-14.253 c 1.105,2.47 2.305,5.257 3.606,8.374 2.185,5.219 3.912,9.606 5.187,13.168 0.572,-0.064 1.06,-0.096 1.474,-0.096 0.406,0 0.901,0.032 1.466,0.096 1.295,-3.537 2.996,-7.911 5.117,-13.13 1.263,-3.13 2.425,-5.93 3.479,-8.412 0.622,-1.46 1.073,-2.501 1.359,-3.123 0.286,-0.623 0.54,-1.143 0.762,-1.562 -0.991,0.063 -2.121,0.095 -3.39,0.095 -1.251,0 -2.375,-0.032 -3.366,-0.095 -0.374,1.365 -0.653,2.361 -0.85,2.984 -0.191,0.628 -0.387,1.193 -0.584,1.707 l -1.079,2.864 c -1.531,0.171 -3.162,0.273 -4.895,0.298 -1.499,0.026 -2.838,-0.088 -4.038,-0.336 -0.4,-0.953 -0.769,-1.899 -1.092,-2.826 -0.127,-0.311 -0.28,-0.78 -0.457,-1.409 -0.179,-0.622 -0.483,-1.72 -0.902,-3.282 -0.597,0.063 -1.27,0.095 -2.025,0.095 -0.743,0 -1.41,-0.032 -2.006,-0.095 0.222,0.4 0.482,0.914 0.781,1.542 0.298,0.623 0.781,1.67 1.453,3.143"
             style="fill:#0d5c33;fill-opacity:1;fill-rule:nonzero;stroke:none"
             id="path78" /></g><g
           id="g80"
           transform="translate(557.2036,683.665)"
           style="fill:#0d5c33;fill-opacity:1"><path
             d="m 0,0 v 12.018 c -1.301,-0.013 -2.596,-0.051 -3.885,-0.114 -1.505,-0.083 -2.508,-0.178 -3.016,-0.279 0.076,0.457 0.114,0.977 0.114,1.549 0,0.564 -0.038,1.085 -0.114,1.542 0.794,-0.101 2.089,-0.184 3.879,-0.26 1.791,-0.076 3.492,-0.114 5.105,-0.114 h 0.672 0.667 c 1.613,0 3.314,0.038 5.104,0.114 1.791,0.076 3.086,0.159 3.88,0.26 -0.076,-0.457 -0.114,-0.978 -0.114,-1.542 0,-0.572 0.038,-1.092 0.114,-1.549 -0.509,0.101 -1.511,0.196 -3.016,0.279 -1.289,0.063 -2.584,0.101 -3.886,0.114 L 5.504,0 c 0,-2.813 0.02,-5.003 0.058,-6.565 0.038,-1.561 0.114,-3.282 0.241,-5.155 -0.895,0.064 -1.905,0.095 -3.035,0.095 -1.136,0 -2.159,-0.031 -3.066,-0.095 0.127,1.873 0.203,3.594 0.241,5.155 C -0.019,-5.003 0,-2.813 0,0"
             style="fill:#0d5c33;fill-opacity:1;fill-rule:nonzero;stroke:none"
             id="path82" /></g><g
           id="g84"
           transform="translate(573.167,676.6304)"
           style="fill:#0d5c33;fill-opacity:1"><path
             d="M 0,0 C 0.051,2.521 0.076,5.327 0.076,8.412 0.089,11.548 0.063,14.361 0,16.843 c -0.038,1.277 -0.076,2.229 -0.114,2.851 -0.032,0.629 -0.083,1.238 -0.146,1.835 0.907,-0.064 1.93,-0.095 3.073,-0.095 1.148,0 2.177,0.031 3.085,0.095 C 5.834,20.945 5.784,20.341 5.752,19.713 5.714,19.091 5.676,18.132 5.638,16.843 5.587,14.335 5.562,11.529 5.562,8.431 5.562,5.308 5.587,2.495 5.638,0 5.676,-1.289 5.714,-2.248 5.752,-2.87 5.784,-3.498 5.834,-4.101 5.898,-4.685 4.99,-4.622 3.968,-4.59 2.825,-4.59 c -1.149,0 -2.178,-0.032 -3.085,-0.095 0.063,0.597 0.114,1.206 0.146,1.841 C -0.076,-2.222 -0.038,-1.276 0,0"
             style="fill:#0d5c33;fill-opacity:1;fill-rule:nonzero;stroke:none"
             id="path86" /></g><g
           id="g88"
           transform="translate(597.3325,673.9385)"
           style="fill:#0d5c33;fill-opacity:1"><path
             d="m 0,0 c 2.476,0 4.444,1.054 5.891,3.168 1.454,2.114 2.178,4.971 2.178,8.571 0,3.206 -0.724,5.758 -2.178,7.65 -1.447,1.892 -3.415,2.838 -5.891,2.838 -2.47,0 -4.425,-1.054 -5.885,-3.168 -1.454,-2.114 -2.184,-4.977 -2.184,-8.583 0,-3.213 0.73,-5.765 2.184,-7.651 C -4.425,0.939 -2.47,0 0,0 m 0,-2.419 c -4.279,0 -7.72,1.175 -10.323,3.524 -2.603,2.349 -3.905,5.459 -3.905,9.333 0,4.272 1.302,7.713 3.905,10.31 2.603,2.596 6.044,3.898 10.323,3.898 4.292,0 7.732,-1.181 10.329,-3.536 2.596,-2.356 3.898,-5.466 3.898,-9.333 0,-4.266 -1.302,-7.701 -3.898,-10.298 C 7.732,-1.117 4.292,-2.419 0,-2.419"
             style="fill:#0d5c33;fill-opacity:1;fill-rule:nonzero;stroke:none"
             id="path90" /></g><g
           id="g92"
           transform="translate(618.6025,676.6367)"
           style="fill:#0d5c33;fill-opacity:1"><path
             d="m 0,0 c 0.039,-1.289 0.076,-2.247 0.115,-2.876 0.031,-0.628 0.082,-1.231 0.146,-1.815 -0.483,0.063 -1.035,0.094 -1.651,0.094 -0.622,0 -1.174,-0.031 -1.657,-0.094 0.064,0.584 0.114,1.187 0.146,1.815 0.038,0.622 0.076,1.581 0.114,2.87 0.051,2.533 0.077,5.358 0.077,8.488 0,3.099 -0.026,5.892 -0.077,8.374 -0.038,1.289 -0.076,2.248 -0.114,2.87 -0.032,0.628 -0.082,1.232 -0.146,1.815 0.546,-0.063 1.155,-0.095 1.841,-0.095 0.679,0 1.289,0.032 1.822,0.095 2.368,-2.99 5.479,-6.583 9.333,-10.78 l 6.824,-7.295 0.019,4.895 c 0,3.13 -0.019,5.949 -0.069,8.47 -0.032,1.276 -0.07,2.234 -0.108,2.856 -0.038,0.629 -0.089,1.239 -0.152,1.835 0.482,-0.063 1.035,-0.095 1.657,-0.095 0.615,0 1.168,0.032 1.65,0.095 -0.057,-0.584 -0.108,-1.187 -0.146,-1.815 -0.038,-0.623 -0.076,-1.581 -0.114,-2.87 -0.051,-2.521 -0.076,-5.352 -0.076,-8.488 0,-5.219 0.063,-9.574 0.19,-13.059 -0.647,0.076 -1.199,0.113 -1.663,0.113 -0.47,0 -1.028,-0.037 -1.689,-0.113 C 13.263,-1.022 9.339,3.447 4.501,8.71 L -0.057,13.586 -0.076,8.469 C -0.076,5.339 -0.051,2.521 0,0"
             style="fill:#0d5c33;fill-opacity:1;fill-rule:nonzero;stroke:none"
             id="path94" /></g><g
           id="g96"
           transform="translate(652.1709,690.8833)"
           style="fill:#0d5c33;fill-opacity:1"><path
             d="m 0,0 c -0.724,-1.739 -1.485,-3.631 -2.286,-5.676 l -1.11,-2.844 c 1.015,-0.114 2.107,-0.159 3.275,-0.146 1.207,0.013 2.362,0.063 3.46,0.166 L 3.282,-8.355 C 2.114,-5.314 1.022,-2.533 0.006,0 Z m -8.749,-14.253 c 1.105,2.47 2.305,5.257 3.606,8.374 2.185,5.219 3.912,9.606 5.187,13.168 0.572,-0.064 1.06,-0.096 1.474,-0.096 0.406,0 0.901,0.032 1.466,0.096 1.295,-3.537 2.996,-7.911 5.117,-13.13 1.263,-3.13 2.425,-5.93 3.479,-8.412 0.622,-1.46 1.073,-2.501 1.358,-3.123 0.287,-0.623 0.541,-1.143 0.763,-1.562 -0.991,0.063 -2.121,0.095 -3.39,0.095 -1.251,0 -2.375,-0.032 -3.366,-0.095 -0.374,1.365 -0.653,2.361 -0.85,2.984 -0.191,0.628 -0.387,1.193 -0.584,1.707 l -1.079,2.864 c -1.531,0.171 -3.162,0.273 -4.895,0.298 -1.499,0.026 -2.839,-0.088 -4.038,-0.336 -0.4,-0.953 -0.769,-1.899 -1.092,-2.826 -0.127,-0.311 -0.28,-0.78 -0.457,-1.409 -0.179,-0.622 -0.483,-1.72 -0.902,-3.282 -0.597,0.063 -1.27,0.095 -2.025,0.095 -0.743,0 -1.41,-0.032 -2.006,-0.095 0.222,0.4 0.482,0.914 0.78,1.542 0.299,0.623 0.782,1.67 1.454,3.143"
             style="fill:#0d5c33;fill-opacity:1;fill-rule:nonzero;stroke:none"
             id="path98" /></g><g
           id="g100"
           transform="translate(668.7749,671.7417)"
           style="fill:#0d5c33;fill-opacity:1"><path
             d="m 0,0 c 0.063,0.584 0.115,1.187 0.146,1.816 0.039,0.622 0.077,1.581 0.115,2.87 0.051,2.52 0.075,5.358 0.075,8.526 0,3.162 -0.024,5.999 -0.075,8.52 -0.038,1.289 -0.076,2.247 -0.115,2.87 C 0.115,25.23 0.063,25.833 0,26.417 c 0.896,-0.063 1.911,-0.095 3.054,-0.095 1.149,0 2.178,0.032 3.086,0.095 C 6.012,25.675 5.93,24.615 5.885,23.237 5.841,21.859 5.822,19.485 5.822,16.113 V 2.736 L 6.083,2.717 h 1.079 c 1.505,0 3.003,0.039 4.501,0.121 1.504,0.082 2.502,0.172 2.997,0.273 -0.077,-0.457 -0.115,-0.984 -0.115,-1.562 0,-0.584 0.038,-1.111 0.115,-1.568 C 13.555,0.07 12.253,0.14 10.755,0.204 9.25,0.267 8.057,0.298 7.162,0.298 H 5.822 C 4.844,0.298 3.791,0.273 2.673,0.216 1.549,0.159 0.661,0.089 0,0"
             style="fill:#0d5c33;fill-opacity:1;fill-rule:nonzero;stroke:none"
             id="path102" /></g><g
           id="g104"
           transform="translate(701.2729,674.5669)"
           style="fill:#0d5c33;fill-opacity:1"><path
             d="m 0,0 v 0 c 1.104,-0.121 2.311,-0.177 3.625,-0.165 2.851,0 5.016,0.971 6.488,2.92 1.48,1.95 2.216,4.794 2.216,8.539 0,3.213 -0.749,5.658 -2.247,7.327 C 8.577,20.297 6.387,21.135 3.498,21.135 2.241,21.135 1.079,21.084 0,20.989 -0.076,17.986 -0.115,14.488 -0.115,10.495 -0.115,6.489 -0.076,2.991 0,0 m -5.676,1.879 c 0.051,2.534 0.076,5.397 0.076,8.597 0,3.199 -0.025,6.069 -0.076,8.615 -0.038,1.289 -0.076,2.247 -0.114,2.869 -0.032,0.629 -0.083,1.232 -0.147,1.816 0.82,-0.139 1.804,-0.228 2.947,-0.279 1.149,-0.051 2.139,-0.051 2.97,0 1.366,0.089 2.623,0.159 3.778,0.216 1.149,0.057 1.88,0.082 2.191,0.082 4.031,0 7.129,-1.098 9.294,-3.301 2.165,-2.203 3.244,-5.346 3.244,-9.441 0,-4.45 -1.219,-7.878 -3.663,-10.278 -2.444,-2.4 -5.936,-3.6 -10.475,-3.6 -0.356,0 -1.137,0.026 -2.343,0.083 -1.2,0.057 -2.489,0.126 -3.847,0.215 -0.559,0.038 -1.239,0.026 -2.032,-0.025 -0.794,-0.057 -1.479,-0.139 -2.064,-0.254 0.064,0.584 0.115,1.194 0.147,1.822 0.038,0.622 0.076,1.575 0.114,2.863"
             style="fill:#0d5c33;fill-opacity:1;fill-rule:nonzero;stroke:none"
             id="path106" /></g><g
           id="g108"
           transform="translate(736.4663,673.9385)"
           style="fill:#0d5c33;fill-opacity:1"><path
             d="m 0,0 c 2.476,0 4.444,1.054 5.891,3.168 1.454,2.114 2.178,4.971 2.178,8.571 0,3.206 -0.724,5.758 -2.178,7.65 -1.447,1.892 -3.415,2.838 -5.891,2.838 -2.47,0 -4.425,-1.054 -5.885,-3.168 -1.454,-2.114 -2.184,-4.977 -2.184,-8.583 0,-3.213 0.73,-5.765 2.184,-7.651 C -4.425,0.939 -2.47,0 0,0 m 0,-2.419 c -4.279,0 -7.72,1.175 -10.323,3.524 -2.603,2.349 -3.905,5.459 -3.905,9.333 0,4.272 1.302,7.713 3.905,10.31 2.603,2.596 6.044,3.898 10.323,3.898 4.292,0 7.732,-1.181 10.329,-3.536 2.597,-2.356 3.898,-5.466 3.898,-9.333 0,-4.266 -1.301,-7.701 -3.898,-10.298 C 7.732,-1.117 4.292,-2.419 0,-2.419"
             style="fill:#0d5c33;fill-opacity:1;fill-rule:nonzero;stroke:none"
             id="path110" /></g><g
           id="g112"
           transform="translate(757.7363,676.6367)"
           style="fill:#0d5c33;fill-opacity:1"><path
             d="m 0,0 c 0.038,-1.289 0.076,-2.247 0.114,-2.876 0.032,-0.628 0.083,-1.231 0.146,-1.815 -0.482,0.063 -1.034,0.094 -1.651,0.094 -0.622,0 -1.174,-0.031 -1.656,-0.094 0.063,0.584 0.114,1.187 0.146,1.815 0.038,0.622 0.076,1.581 0.114,2.87 0.051,2.533 0.076,5.358 0.076,8.488 0,3.099 -0.025,5.892 -0.076,8.374 -0.038,1.289 -0.076,2.248 -0.114,2.87 -0.032,0.628 -0.083,1.232 -0.146,1.815 0.546,-0.063 1.155,-0.095 1.841,-0.095 0.679,0 1.289,0.032 1.822,0.095 2.368,-2.99 5.479,-6.583 9.333,-10.78 l 6.824,-7.295 0.019,4.895 c 0,3.13 -0.019,5.949 -0.069,8.47 -0.032,1.276 -0.07,2.234 -0.108,2.856 -0.038,0.629 -0.089,1.239 -0.153,1.835 0.483,-0.063 1.035,-0.095 1.657,-0.095 0.616,0 1.168,0.032 1.651,0.095 -0.058,-0.584 -0.108,-1.187 -0.146,-1.815 -0.039,-0.623 -0.077,-1.581 -0.115,-2.87 -0.051,-2.521 -0.075,-5.352 -0.075,-8.488 0,-5.219 0.063,-9.574 0.19,-13.059 -0.647,0.076 -1.2,0.113 -1.663,0.113 -0.47,0 -1.029,-0.037 -1.689,-0.113 C 13.263,-1.022 9.339,3.447 4.501,8.71 L -0.057,13.586 -0.076,8.469 C -0.076,5.339 -0.051,2.521 0,0"
             style="fill:#0d5c33;fill-opacity:1;fill-rule:nonzero;stroke:none"
             id="path114" /></g><g
           id="g116"
           transform="translate(796.688,671.5195)"
           style="fill:#0d5c33;fill-opacity:1"><path
             d="m 0,0 c -4.488,0 -8.101,1.175 -10.844,3.518 -2.736,2.342 -4.107,5.44 -4.107,9.3 0,4.292 1.365,7.74 4.101,10.343 2.736,2.602 6.349,3.904 10.837,3.904 1.588,0 3.245,-0.19 4.971,-0.565 C 6.692,26.119 8.196,25.611 9.472,24.982 9.237,24.164 9.053,23.453 8.914,22.85 8.774,22.252 8.634,21.522 8.488,20.666 L 8.076,20.64 C 7.168,21.967 6.095,22.97 4.851,23.643 3.6,24.31 2.19,24.646 0.616,24.646 c -2.876,0 -5.162,-1.066 -6.863,-3.2 -1.695,-2.133 -2.546,-5.015 -2.546,-8.647 0,-3.187 0.832,-5.714 2.489,-7.58 1.663,-1.866 3.898,-2.8 6.71,-2.8 1.238,0 2.451,0.14 3.626,0.425 0.247,1.34 0.374,2.844 0.374,4.502 0,1.784 -0.146,3.371 -0.432,4.761 0.921,-0.025 1.962,-0.038 3.124,-0.038 1.181,0 2.228,0.045 3.142,0.133 C 10.132,11.758 10.056,11.218 10.024,10.596 9.986,9.968 9.967,8.939 9.967,7.517 V 6.565 c 0,-1.6 0.019,-2.73 0.057,-3.39 C 10.056,2.508 10.126,1.962 10.228,1.524 7.289,0.495 3.879,-0.013 0,0"
             style="fill:#0d5c33;fill-opacity:1;fill-rule:nonzero;stroke:none"
             id="path118" /></g><g
           id="g120"
           transform="translate(820.5894,676.6304)"
           style="fill:#0d5c33;fill-opacity:1"><path
             d="m 0,0 c 0.051,2.521 0.076,5.327 0.076,8.412 0,3.136 -0.025,5.949 -0.076,8.431 -0.038,1.289 -0.076,2.248 -0.114,2.87 -0.032,0.628 -0.083,1.232 -0.146,1.816 0.907,-0.064 1.929,-0.095 3.073,-0.095 1.149,0 2.177,0.031 3.085,0.095 C 5.834,20.945 5.784,20.341 5.752,19.713 5.714,19.091 5.676,18.132 5.638,16.843 5.587,15.091 5.568,13.206 5.581,11.187 c 1.758,-0.185 3.675,-0.286 5.745,-0.299 2.095,0 4.031,0.108 5.803,0.318 0,2.006 -0.025,3.885 -0.076,5.637 -0.038,1.289 -0.076,2.248 -0.115,2.87 -0.031,0.628 -0.082,1.232 -0.146,1.816 0.909,-0.064 1.931,-0.095 3.073,-0.095 1.149,0 2.177,0.031 3.086,0.095 -0.064,-0.584 -0.115,-1.188 -0.147,-1.816 -0.038,-0.622 -0.076,-1.581 -0.114,-2.87 -0.051,-2.508 -0.076,-5.314 -0.076,-8.412 0,-3.123 0.025,-5.936 0.076,-8.431 0.038,-1.289 0.076,-2.248 0.114,-2.87 0.032,-0.628 0.083,-1.231 0.147,-1.815 -0.909,0.063 -1.93,0.095 -3.073,0.095 -1.149,0 -2.177,-0.032 -3.086,-0.095 0.064,0.584 0.115,1.187 0.146,1.815 0.039,0.622 0.077,1.581 0.115,2.876 l 0.095,7.702 C 15.37,7.904 13.447,8.006 11.364,8.006 9.282,8.006 7.352,7.904 5.581,7.708 5.542,4.857 5.562,2.286 5.638,0.006 5.676,-1.289 5.714,-2.248 5.752,-2.87 5.784,-3.498 5.834,-4.101 5.898,-4.685 4.99,-4.622 3.968,-4.59 2.825,-4.59 c -1.149,0 -2.178,-0.032 -3.085,-0.095 0.063,0.584 0.114,1.193 0.146,1.822 C -0.076,-2.241 -0.038,-1.289 0,0"
             style="fill:#0d5c33;fill-opacity:1;fill-rule:nonzero;stroke:none"
             id="path122" /></g><g
           id="g124"
           transform="translate(854.4053,671.9263)"
           style="fill:#0d5c33;fill-opacity:1"><path
             d="m 0,0 c -0.927,3.51 -2.178,7.879 -3.753,13.097 l -2.602,8.45 c -0.363,1.201 -0.654,2.115 -0.871,2.73 -0.215,0.622 -0.462,1.277 -0.749,1.956 0.953,-0.064 2.038,-0.095 3.257,-0.095 1.226,0 2.324,0.031 3.289,0.095 1.543,-6.413 2.285,-9.542 2.235,-9.377 L 1.136,15.662 3.44,7.605 h 0.013 c 0.673,1.689 1.347,3.499 2.026,5.435 1.891,5.257 3.39,9.657 4.495,13.206 0.73,-0.064 1.358,-0.096 1.885,-0.096 0.527,0 1.156,0.032 1.892,0.096 0.812,-2.826 1.924,-6.336 3.32,-10.527 l 2.673,-7.923 h 0.019 l 1.676,5.206 1.212,3.854 c -0.094,-0.312 0.02,0.159 0.357,1.415 0.336,1.251 1.054,3.905 2.158,7.962 0.578,-0.064 1.238,-0.095 1.962,-0.095 0.729,0 1.377,0.031 1.949,0.095 -0.197,-0.432 -0.42,-0.965 -0.66,-1.594 C 28.175,24.017 27.801,22.982 27.293,21.547 26.397,19.065 25.426,16.259 24.372,13.135 22.607,7.898 21.198,3.523 20.132,0 19.445,0.076 18.861,0.114 18.373,0.114 17.884,0.114 17.287,0.076 16.596,0 c -1.13,3.549 -2.629,7.942 -4.49,13.186 l -1.828,5.079 h 0.02 C 9.649,16.691 8.983,15.002 8.304,13.206 6.291,7.974 4.704,3.574 3.536,0 2.844,0.076 2.247,0.114 1.752,0.114 1.27,0.114 0.686,0.076 0,0"
             style="fill:#0d5c33;fill-opacity:1;fill-rule:nonzero;stroke:none"
             id="path126" /></g><g
           id="g128"
           transform="translate(894.1562,690.8833)"
           style="fill:#0d5c33;fill-opacity:1"><path
             d="M 0,0 C -0.724,-1.739 -1.485,-3.631 -2.285,-5.676 L -3.396,-8.52 c 1.015,-0.114 2.107,-0.159 3.276,-0.146 1.206,0.013 2.361,0.063 3.46,0.166 L 3.282,-8.355 C 2.114,-5.314 1.022,-2.533 0.007,0 Z m -8.748,-14.253 c 1.104,2.47 2.305,5.257 3.605,8.374 2.185,5.219 3.912,9.606 5.188,13.168 0.571,-0.064 1.06,-0.096 1.473,-0.096 0.406,0 0.901,0.032 1.466,0.096 1.295,-3.537 2.996,-7.911 5.118,-13.13 1.262,-3.13 2.424,-5.93 3.478,-8.412 0.623,-1.46 1.073,-2.501 1.359,-3.123 0.286,-0.623 0.54,-1.143 0.762,-1.562 -0.99,0.063 -2.121,0.095 -3.39,0.095 -1.251,0 -2.374,-0.032 -3.366,-0.095 -0.374,1.365 -0.653,2.361 -0.85,2.984 -0.191,0.628 -0.387,1.193 -0.584,1.707 l -1.079,2.864 c -1.531,0.171 -3.162,0.273 -4.895,0.298 -1.499,0.026 -2.838,-0.088 -4.038,-0.336 -0.4,-0.953 -0.769,-1.899 -1.092,-2.826 -0.127,-0.311 -0.279,-0.78 -0.457,-1.409 -0.178,-0.622 -0.482,-1.72 -0.901,-3.282 -0.597,0.063 -1.27,0.095 -2.026,0.095 -0.743,0 -1.41,-0.032 -2.006,-0.095 0.222,0.4 0.482,0.914 0.781,1.542 0.299,0.623 0.781,1.67 1.454,3.143"
             style="fill:#0d5c33;fill-opacity:1;fill-rule:nonzero;stroke:none"
             id="path130" /></g><g
           id="g132"
           transform="translate(942.2852,684.0776)"
           style="fill:#0d5c33;fill-opacity:1"><path
             d="m 0,0 c 0.012,-4.19 -0.946,-7.333 -2.876,-9.421 -1.924,-2.089 -4.825,-3.137 -8.691,-3.137 -3.772,0 -6.59,0.933 -8.47,2.8 -1.879,1.866 -2.825,4.666 -2.838,8.399 v 2.064 l -0.038,8.691 c -0.013,1.099 -0.031,1.968 -0.064,2.59 -0.031,0.629 -0.082,1.327 -0.158,2.096 0.907,-0.064 1.93,-0.096 3.073,-0.096 1.156,0 2.184,0.032 3.091,0.096 -0.089,-0.73 -0.152,-1.41 -0.196,-2.039 -0.045,-0.628 -0.083,-1.51 -0.121,-2.647 -0.064,-2.571 -0.095,-5.46 -0.095,-8.672 v -1.581 c 0,-3.016 0.571,-5.244 1.727,-6.692 1.155,-1.441 2.933,-2.165 5.333,-2.165 2.355,0 4.139,0.807 5.351,2.425 1.22,1.62 1.823,3.988 1.823,7.099 v 0.895 l -0.039,8.691 c -0.012,1.2 -0.031,2.114 -0.063,2.73 -0.031,0.622 -0.076,1.276 -0.14,1.956 0.572,-0.064 1.219,-0.096 1.944,-0.096 0.717,0 1.358,0.032 1.916,0.096 C 0.355,13.199 0.272,12.45 0.222,11.821 0.178,11.193 0.14,10.386 0.113,9.396 0.037,6.825 0,3.936 0,0.724 Z"
             style="fill:#0d5c33;fill-opacity:1;fill-rule:nonzero;stroke:none"
             id="path134" /></g><g
           id="g136"
           transform="translate(950.8066,676.6367)"
           style="fill:#0d5c33;fill-opacity:1"><path
             d="m 0,0 c 0.039,-1.289 0.076,-2.247 0.115,-2.876 0.031,-0.628 0.082,-1.231 0.146,-1.815 -0.483,0.063 -1.035,0.094 -1.651,0.094 -0.622,0 -1.174,-0.031 -1.657,-0.094 0.064,0.584 0.114,1.187 0.147,1.815 0.037,0.622 0.076,1.581 0.113,2.87 0.051,2.533 0.077,5.358 0.077,8.488 0,3.099 -0.026,5.892 -0.077,8.374 -0.037,1.289 -0.076,2.248 -0.113,2.87 -0.033,0.628 -0.083,1.232 -0.147,1.815 0.546,-0.063 1.155,-0.095 1.841,-0.095 0.68,0 1.289,0.032 1.822,0.095 2.368,-2.99 5.48,-6.583 9.333,-10.78 l 6.824,-7.295 0.02,4.895 c 0,3.13 -0.02,5.949 -0.07,8.47 -0.032,1.276 -0.07,2.234 -0.108,2.856 -0.038,0.629 -0.089,1.239 -0.152,1.835 0.482,-0.063 1.035,-0.095 1.657,-0.095 0.615,0 1.168,0.032 1.651,0.095 -0.058,-0.584 -0.109,-1.187 -0.147,-1.815 -0.038,-0.623 -0.076,-1.581 -0.114,-2.87 -0.051,-2.521 -0.076,-5.352 -0.076,-8.488 0,-5.219 0.063,-9.574 0.19,-13.059 -0.647,0.076 -1.199,0.113 -1.663,0.113 -0.47,0 -1.028,-0.037 -1.689,-0.113 C 13.263,-1.022 9.34,3.447 4.502,8.71 L -0.057,13.586 -0.075,8.469 C -0.075,5.339 -0.051,2.521 0,0"
             style="fill:#0d5c33;fill-opacity:1;fill-rule:nonzero;stroke:none"
             id="path138" /></g><g
           id="g140"
           transform="translate(976.6299,676.6304)"
           style="fill:#0d5c33;fill-opacity:1"><path
             d="M 0,0 C 0.051,2.521 0.076,5.327 0.076,8.412 0.089,11.548 0.063,14.361 0,16.843 c -0.038,1.277 -0.076,2.229 -0.114,2.851 -0.032,0.629 -0.083,1.238 -0.147,1.835 0.908,-0.064 1.931,-0.095 3.074,-0.095 1.148,0 2.177,0.031 3.084,0.095 C 5.834,20.945 5.783,20.341 5.752,19.713 5.714,19.091 5.676,18.132 5.638,16.843 5.587,14.335 5.562,11.529 5.562,8.431 5.562,5.308 5.587,2.495 5.638,0 5.676,-1.289 5.714,-2.248 5.752,-2.87 5.783,-3.498 5.834,-4.101 5.897,-4.685 4.99,-4.622 3.968,-4.59 2.825,-4.59 c -1.149,0 -2.178,-0.032 -3.086,-0.095 0.064,0.597 0.115,1.206 0.147,1.841 C -0.076,-2.222 -0.038,-1.276 0,0"
             style="fill:#0d5c33;fill-opacity:1;fill-rule:nonzero;stroke:none"
             id="path142" /></g><g
           id="g144"
           transform="translate(987.7168,693.4736)"
           style="fill:#0d5c33;fill-opacity:1"><path
             d="M 0,0 C -0.521,1.314 -0.914,2.286 -1.181,2.908 -1.447,3.536 -1.727,4.126 -2.013,4.686 -1.028,4.622 0.089,4.59 1.34,4.59 2.597,4.59 3.714,4.622 4.711,4.686 5.054,3.358 5.314,2.381 5.492,1.752 5.663,1.13 5.848,0.54 6.051,-0.006 l 2.095,-5.898 3.193,-8.596 2.223,5.974 c 1.155,3.149 2.17,5.993 3.059,8.52 0.058,0.203 0.178,0.61 0.362,1.232 0.178,0.622 0.496,1.771 0.958,3.46 0.591,-0.064 1.257,-0.096 2,-0.096 0.744,0 1.41,0.032 1.988,0.096 C 21.782,4.387 21.573,3.924 21.307,3.302 21.04,2.673 20.583,1.575 19.923,0 l -3.327,-8.431 c -2.026,-5.218 -3.651,-9.593 -4.876,-13.116 -0.686,0.076 -1.27,0.113 -1.772,0.113 -0.495,0 -1.079,-0.037 -1.764,-0.113 -1.226,3.536 -2.851,7.91 -4.876,13.135 z"
             style="fill:#0d5c33;fill-opacity:1;fill-rule:nonzero;stroke:none"
             id="path146" /></g><g
           id="g148"
           transform="translate(1012.333,671.7417)"
           style="fill:#0d5c33;fill-opacity:1"><path
             d="m 0,0 c 0.063,0.584 0.114,1.187 0.146,1.816 0.039,0.622 0.077,1.581 0.115,2.87 0.051,2.558 0.076,5.434 0.076,8.634 0,3.212 -0.025,6.082 -0.076,8.615 -0.038,1.289 -0.076,2.248 -0.115,2.87 C 0.114,25.434 0.063,26.037 0,26.621 0.667,26.532 1.568,26.462 2.686,26.405 3.81,26.348 4.857,26.322 5.822,26.322 h 1.226 c 1.638,0 3.206,0.032 4.711,0.095 1.498,0.064 2.425,0.134 2.787,0.223 -0.077,-0.509 -0.115,-1.092 -0.115,-1.746 0,-0.661 0.038,-1.245 0.115,-1.753 -0.42,0.102 -1.289,0.185 -2.597,0.254 -1.308,0.07 -2.629,0.102 -3.969,0.102 H 7.365 L 5.822,23.478 v -8.393 l 2.958,0.019 c 1.093,0 2.198,0.032 3.321,0.095 1.124,0.057 1.892,0.127 2.298,0.203 -0.076,-0.483 -0.114,-1.034 -0.114,-1.656 0,-0.623 0.038,-1.175 0.114,-1.658 -0.406,0.077 -1.174,0.146 -2.298,0.204 -1.123,0.063 -2.228,0.095 -3.321,0.095 L 5.822,12.406 V 3.143 L 6.025,3.124 h 1.023 c 1.504,0 3.003,0.038 4.501,0.121 1.505,0.082 2.501,0.171 2.997,0.273 -0.077,-0.521 -0.115,-1.111 -0.115,-1.766 0,-0.66 0.038,-1.25 0.115,-1.771 C 13.454,0.07 12.158,0.14 10.66,0.204 9.155,0.267 7.955,0.298 7.048,0.298 H 5.822 C 4.857,0.298 3.81,0.273 2.686,0.216 1.568,0.159 0.667,0.089 0,0"
             style="fill:#0d5c33;fill-opacity:1;fill-rule:nonzero;stroke:none"
             id="path150" /></g><g
           id="g152"
           transform="translate(1036.3535,685.8613)"
           style="fill:#0d5c33;fill-opacity:1"><path
             d="m 0,0 v 0 l 1.136,-0.057 c 1.416,0 2.552,0.508 3.409,1.524 C 5.408,2.489 5.84,3.829 5.84,5.504 5.84,6.946 5.479,8.051 4.761,8.831 4.044,9.612 3.021,10.006 1.694,10.006 1.11,10.006 0.545,9.961 0,9.873 Z m -5.505,-9.231 c 0.051,2.521 0.076,5.327 0.076,8.412 0,3.136 -0.025,5.949 -0.076,8.431 -0.038,1.289 -0.076,2.248 -0.114,2.87 -0.031,0.628 -0.082,1.232 -0.147,1.816 l 2.026,-0.095 h 1.041 2.476 l 4.483,0.095 c 2.431,0 4.329,-0.597 5.694,-1.784 C 11.319,9.32 11.998,7.663 11.998,5.543 11.998,3.416 11.147,1.746 9.453,0.54 8.494,-0.152 7.313,-0.641 5.897,-0.927 6.875,-2.679 8.101,-4.736 9.561,-7.104 l 1.358,-2.159 c 0.883,-1.39 1.53,-2.393 1.956,-3.015 0.419,-0.622 0.831,-1.181 1.225,-1.676 -1.016,0.063 -2.165,0.095 -3.454,0.095 -1.289,0 -2.431,-0.032 -3.434,-0.095 -0.763,1.536 -1.784,3.415 -3.073,5.638 -1.531,2.64 -2.882,4.92 -4.063,6.831 -0.026,-2.864 -0.007,-5.448 0.057,-7.74 0.038,-1.295 0.076,-2.254 0.114,-2.876 0.032,-0.628 0.083,-1.231 0.147,-1.815 -0.909,0.063 -1.931,0.095 -3.074,0.095 -1.149,0 -2.177,-0.032 -3.086,-0.095 0.065,0.584 0.116,1.193 0.147,1.822 0.038,0.622 0.076,1.574 0.114,2.863"
             style="fill:#0d5c33;fill-opacity:1;fill-rule:nonzero;stroke:none"
             id="path154" /></g><g
           id="g156"
           transform="translate(1064.6641,693.1055)"
           style="fill:#0d5c33;fill-opacity:1"><path
             d="M 0,0 C -0.388,1.066 -0.921,1.848 -1.612,2.33 -2.298,2.819 -3.213,3.06 -4.355,3.06 -5.473,3.06 -6.399,2.743 -7.136,2.102 -7.872,1.467 -8.24,0.66 -8.24,-0.305 c 0,-1.003 0.368,-1.854 1.097,-2.552 0.718,-0.692 2.102,-1.524 4.147,-2.489 2.05,-0.971 3.549,-2.082 4.501,-3.352 0.958,-1.263 1.434,-2.761 1.434,-4.501 0,-2.406 -0.888,-4.406 -2.66,-5.999 -1.771,-1.594 -3.993,-2.388 -6.66,-2.388 -1.104,0 -2.222,0.134 -3.364,0.4 -1.144,0.267 -2.223,0.648 -3.238,1.143 0.272,0.895 0.489,1.669 0.654,2.33 0.158,0.654 0.323,1.435 0.482,2.343 l 0.8,0.025 c 0.451,-1.371 1.086,-2.368 1.904,-3.003 0.826,-0.635 1.912,-0.952 3.251,-0.952 1.264,0 2.318,0.362 3.163,1.085 0.843,0.731 1.262,1.645 1.262,2.749 0,1.016 -0.387,1.892 -1.155,2.622 -0.769,0.718 -2.241,1.594 -4.425,2.622 -1.962,0.921 -3.41,1.994 -4.337,3.219 -0.92,1.213 -1.377,2.667 -1.377,4.356 0,2.33 0.8,4.266 2.4,5.809 1.599,1.542 3.606,2.317 6.012,2.317 1.092,0 2.146,-0.133 3.162,-0.407 C -0.171,4.8 0.889,4.368 1.993,3.79 1.708,3.079 1.479,2.47 1.302,1.949 1.13,1.429 0.939,0.793 0.724,0.051 Z"
             style="fill:#0d5c33;fill-opacity:1;fill-rule:nonzero;stroke:none"
             id="path158" /></g><g
           id="g160"
           transform="translate(1071.5352,676.6304)"
           style="fill:#0d5c33;fill-opacity:1"><path
             d="M 0,0 C 0.051,2.521 0.076,5.327 0.076,8.412 0.09,11.548 0.064,14.361 0,16.843 c -0.038,1.277 -0.076,2.229 -0.114,2.851 -0.032,0.629 -0.082,1.238 -0.146,1.835 0.908,-0.064 1.93,-0.095 3.073,-0.095 1.149,0 2.177,0.031 3.085,0.095 C 5.835,20.945 5.784,20.341 5.752,19.713 5.715,19.091 5.676,18.132 5.638,16.843 5.588,14.335 5.562,11.529 5.562,8.431 5.562,5.308 5.588,2.495 5.638,0 5.676,-1.289 5.715,-2.248 5.752,-2.87 5.784,-3.498 5.835,-4.101 5.898,-4.685 4.99,-4.622 3.969,-4.59 2.825,-4.59 c -1.148,0 -2.177,-0.032 -3.085,-0.095 0.064,0.597 0.114,1.206 0.146,1.841 C -0.076,-2.222 -0.038,-1.276 0,0"
             style="fill:#0d5c33;fill-opacity:1;fill-rule:nonzero;stroke:none"
             id="path162" /></g><g
           id="g164"
           transform="translate(1087.6318,683.665)"
           style="fill:#0d5c33;fill-opacity:1"><path
             d="M 0,0 V 12.018 C -1.302,12.005 -2.597,11.967 -3.886,11.904 -5.39,11.821 -6.394,11.726 -6.9,11.625 c 0.075,0.457 0.114,0.977 0.114,1.549 0,0.564 -0.039,1.085 -0.114,1.542 0.793,-0.101 2.088,-0.184 3.879,-0.26 1.79,-0.076 3.491,-0.114 5.103,-0.114 h 0.674 0.666 c 1.613,0 3.314,0.038 5.104,0.114 1.791,0.076 3.086,0.159 3.879,0.26 -0.076,-0.457 -0.114,-0.978 -0.114,-1.542 0,-0.572 0.038,-1.092 0.114,-1.549 -0.508,0.101 -1.51,0.196 -3.015,0.279 -1.288,0.063 -2.584,0.101 -3.885,0.114 L 5.505,0 c 0,-2.813 0.018,-5.003 0.057,-6.565 0.038,-1.561 0.114,-3.282 0.241,-5.155 -0.896,0.064 -1.905,0.095 -3.034,0.095 -1.137,0 -2.16,-0.031 -3.067,-0.095 0.127,1.873 0.203,3.594 0.241,5.155 C -0.019,-5.003 0,-2.813 0,0"
             style="fill:#0d5c33;fill-opacity:1;fill-rule:nonzero;stroke:none"
             id="path166" /></g><g
           id="g168"
           transform="translate(1109.0801,682.9028)"
           style="fill:#0d5c33;fill-opacity:1"><path
             d="m 0,0 v 0 c -0.844,1.638 -1.79,3.409 -2.844,5.32 -1.041,1.924 -2.019,3.67 -2.921,5.251 -1.18,2.006 -1.948,3.326 -2.317,3.949 -0.368,0.628 -0.508,0.87 -0.419,0.736 1.079,-0.063 2.305,-0.095 3.677,-0.095 1.377,0 2.602,0.032 3.676,0.095 C -0.139,12.837 0.54,11.193 0.908,10.317 1.276,9.441 1.505,8.908 1.606,8.705 2.616,6.565 3.53,4.673 4.368,3.022 l 0.007,0.007 1.752,3.587 1.822,3.948 c 0.178,0.363 0.381,0.857 0.615,1.48 0.236,0.628 0.629,1.702 1.169,3.212 0.584,-0.063 1.245,-0.095 1.987,-0.095 0.73,0 1.39,0.032 1.968,0.095 -0.235,-0.361 -0.527,-0.85 -0.87,-1.479 -0.349,-0.629 -0.92,-1.695 -1.714,-3.206 L 8.591,5.714 5.784,0.153 C 5.625,-1.301 5.537,-3.054 5.523,-5.117 l 0.02,-1.149 c 0.051,-1.333 0.095,-2.305 0.133,-2.933 0.032,-0.629 0.095,-1.213 0.184,-1.759 -0.908,0.064 -1.93,0.095 -3.073,0.095 -1.148,0 -2.177,-0.031 -3.085,-0.095 0.127,1.912 0.203,3.333 0.241,4.273 C -0.019,-5.751 0,-4.831 0,-3.923 Z"
             style="fill:#0d5c33;fill-opacity:1;fill-rule:nonzero;stroke:none"
             id="path170" /></g></g></g></g></svg>
