<svg xmlns="http://www.w3.org/2000/svg" width="350" height="79.191" viewBox="0 0 350 79.191">
 <g transform="matrix(1.3333 0 0 -1.3333 -365.44 273.76)">
  <path d="m420.98 203.6c-0.15245 0-0.19921-0.21519-0.19921-0.52295l-0.1377-9.0864c-0.01628-1.3361-0.07805-1.78-0.47607-1.9028-0.21603-0.0621-0.49168-0.07618-0.68995-0.07618-0.15392 0-0.24609-0.03134-0.24609-0.12304 0-0.13908 0.13715-0.15381 0.33838-0.15381 0.79605 0 1.5191 0.04541 1.6567 0.04541 0.29149 0 0.90703-0.04541 1.9043-0.04541 0.21307 0 0.3501 0.031 0.3501 0.15381 0 0.09171-0.0906 0.12304-0.25928 0.12304-0.24561 0-0.53794 0.01374-0.79687 0.10694-0.30777 0.10654-0.508 0.50659-0.5376 1.7036l-0.16992 6.4468h0.04541c0.27817-0.29297 1.9813-2.2115 3.6533-3.8686 1.5965-1.5817 3.5616-3.5899 4.5278-4.5117 0.16868-0.16868 0.35428-0.33985 0.52295-0.33985 0.13763 0 0.20069 0.14018 0.20069 0.47754l0.16699 9.6856c0.01628 0.85967 0.13925 1.1824 0.56982 1.3052 0.182 0.0459 0.3061 0.04542 0.4585 0.04542 0.18349 0 0.27685 0.04599 0.27685 0.13769 0 0.12278-0.15181 0.13916-0.35156 0.13916-0.75166 0-1.3372-0.04687-1.5059-0.04687-0.32256 0-1.0584 0.04687-1.856 0.04687-0.23081 0-0.3999-0.01635-0.3999-0.13916 0-0.09171 0.06262-0.13769 0.2461-0.13769 0.21454 0 0.58215-5.9e-4 0.81298-0.09229 0.36695-0.15388 0.50669-0.44475 0.52149-1.3814l0.15381-6.8921h-0.07617c-0.2619 0.24562-2.3348 2.4564-3.3779 3.4995-2.2416 2.2268-4.5744 4.7265-4.7564 4.9277-0.26189 0.27522-0.39967 0.47607-0.56983 0.47607zm-52.364-0.04541c-0.09325 0-0.14013-0.09322-0.18603-0.29297-0.03108-0.12281-0.32227-1.5195-0.32227-1.7651 0-0.16872 0.03115-0.2461 0.13916-0.2461 0.09178 0 0.13736 0.06176 0.16846 0.18457 0.02959 0.12281 0.10685 0.30677 0.26074 0.5376 0.23082 0.33735 0.59754 0.41425 1.4883 0.44385l2.2881 0.06299v-6.293c0-1.4116-7.4e-4 -2.6259-0.07764-3.2695-0.04587-0.44537-0.13755-0.78305-0.44531-0.84375-0.13761-0.0311-0.32291-0.06299-0.55225-0.06299-0.18352 0-0.24463-0.04605-0.24463-0.12305 0-0.108 0.10639-0.15234 0.30762-0.15234 0.61257 0 1.58 0.04541 1.9336 0.04541 0.4291 0 1.3961-0.04541 2.4082-0.04541 0.17016 0 0.29297 0.04433 0.29297 0.15234 0 0.07691-0.07595 0.12305-0.24463 0.12305-0.23082 0-0.56914 0.03189-0.78516 0.06299-0.46017 0.06066-0.55182 0.39854-0.59912 0.82763-0.0755 0.65992-0.07471 1.8741-0.07471 3.2856v6.293l1.9336-0.04688c1.3672-0.03107 1.7794-0.46035 1.8106-0.85986l0.01464-0.16846c0.01628-0.23079 0.04858-0.30615 0.17139-0.30615 0.09171 0 0.1229 0.09221 0.1377 0.24609 0 0.39802 0.04541 1.4572 0.04541 1.7798 0 0.23086-0.01652 0.32226-0.12305 0.32226-0.06067 0-0.18373-0.03027-0.41455-0.07617-0.23082-0.031-0.56784-0.07763-1.0591-0.07763h-6.0776c-0.50604 0-1.0898 0.03173-1.5366 0.07763-0.38323 0.03107-0.53491 0.18457-0.65772 0.18457zm106.2 0c-2.1336 0-3.5464-1.2136-3.5464-2.9018 0-1.2429 0.5837-2.3174 2.2734-3.6387l0.70605-0.55225c1.2754-0.98247 1.5029-1.7019 1.5029-2.4551 0-0.8138-0.67466-1.749-2.0566-1.749-0.9514 0-1.8555 0.41346-2.1943 1.5483-0.07691 0.2619-0.1377 0.58395-0.1377 0.78222 0 0.12281-0.01473 0.26221-0.15381 0.26221-0.12278 0-0.1683-0.16761-0.1831-0.39844-0.0162-0.24562-0.0791-1.1664-0.0791-2.0112 0-0.33736 0.04734-0.41494 0.29296-0.52295 0.65844-0.29149 1.3505-0.39843 2.2398-0.39843 0.8138 0 1.674 0.13864 2.4419 0.62988 1.1053 0.72206 1.4414 1.7797 1.4414 2.6704 0 1.4574-0.67448 2.4877-2.5151 3.9141l-0.43212 0.32227c-1.2725 0.9662-1.6245 1.5047-1.6245 2.2104 0 0.92034 0.68884 1.5806 1.8252 1.5806 0.99728 0 1.445-0.45997 1.6743-0.75146 0.32112-0.3995 0.39697-0.87459 0.39697-1.0137 0-0.18351 0.0458-0.27539 0.15381-0.27539 0.12278 0 0.16845 0.12261 0.16845 0.45996 0 1.197 0.06153 1.643 0.06153 1.8428 0 0.10657-0.07478 0.15351-0.21533 0.18311-0.39802 0.10801-1.0418 0.2622-2.0405 0.2622zm10.167 0c-0.09175 0-0.13874-0.09322-0.18604-0.29297-0.0296-0.12281-0.31933-1.5195-0.31933-1.7651 0-0.16872 0.02968-0.2461 0.13769-0.2461 0.09178 0 0.13736 0.06176 0.16846 0.18457 0.02959 0.12281 0.10685 0.30677 0.26074 0.5376 0.23082 0.33735 0.59902 0.41425 1.4883 0.44385l2.2881 0.06299v-6.293c0-1.4116-7.4e-4 -2.6259-0.07764-3.2695-0.04587-0.44537-0.13757-0.78305-0.44385-0.84375-0.13909-0.0311-0.32437-0.06299-0.55371-0.06299-0.18352 0-0.24463-0.04605-0.24463-0.12305 0-0.108 0.10639-0.15234 0.30762-0.15234 0.61405 0 1.58 0.04541 1.9336 0.04541 0.4291 0 1.3961-0.04541 2.4097-0.04541 0.17016 0 0.29297 0.04433 0.29297 0.15234 0 0.07691-0.07889 0.12305-0.24609 0.12305-0.23082 0-0.57062 0.03189-0.78516 0.06299-0.46017 0.06066-0.55182 0.39854-0.59912 0.82763-0.074 0.65992-0.07324 1.8741-0.07324 3.2856v6.293l1.9321-0.04688c1.3657-0.03107 1.781-0.46035 1.8106-0.85986l0.01611-0.16846c0.01628-0.23079 0.04711-0.30615 0.16992-0.30615 0.09321 0 0.1229 0.09221 0.1377 0.24609 0 0.39802 0.04541 1.4572 0.04541 1.7798 0 0.23086-0.01652 0.32226-0.12305 0.32226-0.06067 0-0.18373-0.03027-0.41455-0.07617-0.22935-0.031-0.56784-0.07763-1.0591-0.07763h-6.0776c-0.50604 0-1.0898 0.03173-1.5352 0.07763-0.38471 0.03107-0.53635 0.18457-0.66064 0.18457zm33.413 0c-4.6046 0-6.3398-3.3927-6.3398-6.0176 0-2.7166 1.7797-6.0176 6.1846-6.0176 3.9003 0 6.3574 2.7774 6.3574 6.2915 0 3.5156-2.3788 5.7436-6.2021 5.7436zm-61.333-0.09228c-0.0769 0-0.17061-0.04819-0.24756-0.06299-0.12133-0.0296-0.36771-0.05982-0.65772-0.09082-0.29297-0.0163-3.3466-0.01611-3.8379-0.01611-0.21603 0-0.56878 0.01596-0.9668 0.03076-0.38322 0-0.82937 0.01611-1.2422 0.01611h-0.29737c-0.46165 0-1.1825-0.04687-1.4429-0.04687-0.19975 0-0.84486 0.04687-1.6128 0.04687-0.29149 0-0.4292-0.03103-0.4292-0.15381 0-0.10801 0.12461-0.12304 0.26074-0.12304 0.19975 0 0.43028-0.01558 0.61524-0.07618 0.1376-0.0459 0.19775-0.16869 0.19775-0.2915 0-0.13908-0.06078-0.36861-0.13769-0.56836-0.36843-1.0136-2.3635-5.9568-3.022-7.645h-0.06445l-2.6382 6.9697c-0.21603 0.5519-0.35303 0.98091-0.35303 1.1807 0 0.13908 0.04583 0.24533 0.15381 0.32227 0.12133 0.0917 0.35351 0.1084 0.59765 0.1084 0.13761 0 0.22998 0.03118 0.22998 0.13769 0 0.10801-0.16954 0.13916-0.35302 0.13916-0.76645 0-1.5035-0.04687-1.8882-0.04687-0.53711 0-1.4113 0.04687-2.2266 0.04687h-0.40137c-0.58149 0-1.4888-0.04687-1.8721-0.04687-0.44537 0-1.4121 0.04687-1.9951 0.04687-0.24562 0-0.36914-0.03134-0.36914-0.12305 0-0.12281 0.09215-0.1538 0.24755-0.1538 0.18347 0 0.38358-0.01573 0.55225-0.06153 0.33736-0.0769 0.49043-0.33757 0.52002-0.8584 0.0311-0.49124 0.03223-0.9215 0.03223-3.2549v-2.7026c0-1.4885-6.8e-4 -2.7006-0.07618-3.3457-0.0459-0.44537-0.13901-0.70544-0.44677-0.76611-0.13761-0.0325-0.32142-0.06153-0.55225-0.06153-0.18495 0-0.24463-0.04613-0.24463-0.12304 0-0.10801 0.10788-0.15381 0.30615-0.15381 0.61405 0 1.5814 0.04541 1.9351 0.04541 0.41282 0 1.3815-0.04541 2.3936-0.04541 0.16868 0 0.29297 0.04583 0.29297 0.15381 0 0.0769-0.07886 0.12304-0.24756 0.12304-0.23082 0-0.5677 0.02903-0.78076 0.06153-0.46165 0.0607-0.56937 0.33568-0.61524 0.75146-0.0607 0.65991-0.06006 1.8718-0.06006 3.3604v2.7026c0 2.3334-3e-4 2.7636 0.0293 3.2549 0.0311 0.53563 0.15554 0.79757 0.56836 0.87451 0.18347 0.0296 0.30755 0.04542 0.46142 0.04542h0.1084c0.1228 0 0.36829 5.7e-4 0.59912-0.06153 0.55338-0.15241 0.81386-0.32262 1.1675-1.166l3.8672-9.3779c0.29149-0.72206 0.38326-0.9375 0.58301-0.9375 0.21603 0 0.30804 0.24599 0.70606 1.1352 0.33883 0.76793 1.0595 2.4415 2.0434 4.6831 0.82712 1.8865 1.2421 2.716 1.8398 4.1587 0.41429 0.98248 0.64548 1.2437 0.84375 1.3813 0.27669 0.18495 0.59905 0.18458 0.75293 0.18458h0.14209c0.21602 0 0.47631-0.01582 0.59912-0.04542 0.50603-0.108 0.62957-0.35368 0.66064-0.87451 0.0296-0.49124 0.0293-0.9215 0.0293-3.2549v-2.7026c0-1.4101-7.1e-4 -2.6229-0.07471-3.2681-0.0636-0.44537-0.139-0.78308-0.44824-0.84375-0.13613-0.0325-0.31849-0.06153-0.54932-0.06153-0.18495 0-0.24756-0.04613-0.24756-0.12304 0-0.10801 0.10937-0.15381 0.30616-0.15381 0.30924 0 0.7069 0.01446 1.0605 0.03076 0.3699 0 0.70584 0.01465 0.87451 0.01465 0.46164 0 0.93676-0.01431 1.5982-0.04541 0.65844-0.0148 1.5017-0.04688 2.6543-0.04688 0.5815 0 0.72109 4.1e-4 0.8291 0.39991 0.0769 0.30628 0.19922 1.3515 0.19922 1.7036 0 0.15388-2.4e-4 0.27685-0.12305 0.27685-0.10801 0-0.13887-0.06272-0.16846-0.23144-0.10801-0.62885-0.29192-0.95179-0.68994-1.1353-0.3995-0.18495-1.0448-0.18457-1.4429-0.18457-1.5669 0-1.8117 0.23112-1.8428 1.2905-0.0163 0.44389 0 1.8566 0 2.3774v1.2129c0 0.0917 0.01535 0.15381 0.09375 0.15381 0.36695 0 1.8867-0.01431 2.1782-0.04541 0.56818-0.0622 0.78291-0.29136 0.86133-0.59912 0.0459-0.19975 0.04529-0.39983 0.05859-0.55224 0-0.0769 0.0312-0.13916 0.1377-0.13916 0.13909 0 0.13916 0.16869 0.13916 0.2915 0 0.10801 0.03052 0.72202 0.06152 1.0298 0.0459 0.78125 0.12305 1.0274 0.12305 1.1206 0 0.0917-0.04629 0.12305-0.1084 0.12305-0.0769 0-0.13662-0.07784-0.24463-0.20069-0.13761-0.15388-0.36839-0.19891-0.73682-0.22998-0.35363-0.0311-2.1177-0.03076-2.4565-0.03076-0.0917 0-0.10693 0.06189-0.10693 0.16846v3.8848c0 0.10654 0.0315 0.15235 0.10693 0.15235 0.30776 0 1.9193-0.02896 2.1812-0.06006 0.76645-0.0917 0.91882-0.27702 1.0283-0.55371 0.0755-0.18496 0.09082-0.44569 0.09082-0.55371 0-0.1376 0.03119-0.21387 0.1377-0.21387 0.10801 0 0.13754 0.09149 0.15234 0.16846 0.0325 0.18496 0.0643 0.85979 0.0791 1.0137 0.0444 0.70579 0.12305 0.89102 0.12305 0.99756 0 0.0769-0.01688 0.13916-0.09228 0.13916zm-56.467-0.00147c-0.07546 0-0.1692-0.04526-0.2461-0.06006-0.12281-0.031-0.36769-0.06268-0.65918-0.09228-0.29001-0.0163-3.3452-0.01611-3.8364-0.01611-0.21454 0-0.56876 0.01596-0.96826 0.03076-0.38322 0-0.82789 0.01465-1.2422 0.01465-0.22934 0-0.33838-0.02969-0.33838-0.1377 0-0.108 0.09206-0.13769 0.26074-0.13769 0.21455 0 0.47631-0.01578 0.59912-0.04688 0.50604-0.10654 0.62955-0.3522 0.66065-0.87451 0.0296-0.49123 0.02929-0.92004 0.02929-3.2534v-2.7026c0-1.4116-7.3e-4 -2.6244-0.07763-3.2681-0.06067-0.44537-0.13757-0.78452-0.44385-0.84522-0.13909-0.0311-0.32143-0.06152-0.55225-0.06152-0.18344 0-0.24462-0.04465-0.24462-0.12305 0-0.1065 0.1064-0.15234 0.30615-0.15234 0.30628 0 0.70547 0.01449 1.0576 0.02929 0.36843 0 0.7073 0.01612 0.87598 0.01612 0.46017 0 0.93528-0.01581 1.5967-0.04541 0.65991-0.0148 1.5031-0.04541 2.6558-0.04541 0.58297 0 0.72111-0.00106 0.82764 0.39844 0.07842 0.30629 0.19922 1.35 0.19922 1.7036 0 0.15388-2.5e-4 0.27685-0.12158 0.27685-0.10805 0-0.13883-0.06276-0.16993-0.23144-0.10654-0.62884-0.29042-0.95031-0.6914-1.1338-0.39802-0.18495-1.0419-0.18604-1.4414-0.18604-1.5654 0-1.8117 0.22965-1.8428 1.2891-0.0148 0.44537 0 1.8566 0 2.3789v1.2144c0 0.09178 0.01535 0.15381 0.09375 0.15381 0.36843 0 1.8867-0.01724 2.1797-0.04834 0.56818-0.06066 0.78149-0.29138 0.85839-0.59766 0.0459-0.19975 0.04673-0.39836 0.06153-0.55224 0-0.07691 0.03115-0.1377 0.13916-0.1377 0.13613 0 0.13623 0.16869 0.13623 0.2915 0 0.10801 0.03189 0.72204 0.06299 1.0283 0.04443 0.78273 0.12158 1.0274 0.12158 1.1191 0 0.09171-0.04473 0.12305-0.10693 0.12305-0.07842 0-0.13661-0.07641-0.24463-0.19922-0.13908-0.15245-0.3684-0.20038-0.73682-0.22998-0.35364-0.0311-2.1177-0.03076-2.4565-0.03076-0.09321 0-0.1084 0.06045-0.1084 0.16846v3.8848c0 0.1065 0.0315 0.15235 0.1084 0.15235 0.30777 0 1.9193-0.03043 2.1797-0.06153 0.76793-0.09173 0.92179-0.27703 1.0283-0.55224 0.0784-0.18495 0.09229-0.44424 0.09229-0.55225 0-0.13765 0.02969-0.21533 0.1377-0.21533 0.10658 0 0.139 0.09156 0.1538 0.16846 0.0311 0.18347 0.06138 0.85979 0.07618 1.0137 0.04739 0.70578 0.12451 0.88955 0.12451 0.99756 0 0.07691-0.01535 0.13769-0.09375 0.13769zm132.73 0c-0.07694 0-0.15293-0.05972-0.24463-0.09082-0.15388-0.0459-0.33839-0.04672-0.62988-0.06152-0.35363-0.0163-3.4703-0.01611-4.0532-0.01611-0.21455 0-0.56583 0.01596-0.96533 0.03076-0.3995 0-0.8471 0.01465-1.2451 0.01465-0.22935 0-0.35302-0.02955-0.35302-0.15235 0-0.09321 0.1098-0.12304 0.2622-0.12304 0.21603 0 0.47632-0.01578 0.59913-0.04688 0.50602-0.10654 0.62811-0.3522 0.65771-0.87451 0.0326-0.49123 0.03369-0.92004 0.03369-3.2534v-2.7026c0-1.4737-7e-4 -2.6244-0.0791-3.2681-0.06067-0.44537-0.13755-0.78452-0.44531-0.84522-0.13761-0.0311-0.32144-0.06152-0.55078-0.06152-0.17163 0-0.22998-0.04615-0.22998-0.12305 0-0.12281 0.10624-0.15234 0.32226-0.15234 0.5815 0 1.5487 0.04541 1.9482 0.04541s1.3658-0.04541 2.332-0.04541c0.2323 0 0.33838 0.0458 0.33838 0.15234 0 0.0769-0.05952 0.12305-0.25927 0.12305-0.21602 0-0.5545 0.03042-0.76905 0.06152-0.46016 0.06066-0.55172 0.39985-0.59912 0.84522-0.0769 0.64364-0.07617 1.7944-0.07617 3.2681v1.2437c0 0.10799 0.0329 0.13916 0.1084 0.13916 0.26042 0 1.8873 4.2e-4 2.272-0.04688 0.47496-0.06067 0.70526-0.33771 0.78076-0.55225 0.0636-0.18495 0.09375-0.36806 0.09375-0.4746 0-0.10801 0.02985-0.2168 0.12305-0.2168 0.15388 0 0.15381 0.15389 0.15381 0.2915 0 0.10801 0.02899 0.81432 0.05859 1.1206 0.04737 0.47644 0.12598 0.85895 0.12598 0.95215 0 0.09171-0.03159 0.13769-0.09229 0.13769-0.09174 0-0.12378-0.06061-0.20068-0.15381-0.15388-0.19972-0.3677-0.26059-0.65918-0.27539-0.21455-0.0163-0.431-0.01611-0.69141-0.01611l-1.9644-0.01465c-0.09321 0-0.1084 0.046-0.1084 0.1377v3.8379c0 0.16864 0.046 0.21533 0.1377 0.21533l2.3657-0.04688c0.58298-0.01479 0.9042-0.24542 1.0122-0.45996 0.0932-0.21455 0.09228-0.46019 0.09228-0.583 0.01479-0.17012 0.04431-0.24463 0.15381-0.24463 0.1065 0 0.13751 0.09105 0.15381 0.21386 0.0295 0.18347 0.06137 1.0898 0.07617 1.2437 0.04591 0.3995 0.12305 0.58193 0.12305 0.68994 0 0.07691-0.0477 0.13769-0.1084 0.13769zm-153.55-0.12158c-0.21307 0-0.3208-0.03115-0.3208-0.13769 0-0.10798 0.09206-0.13916 0.26074-0.13916 0.21603 0 0.47631-0.01578 0.59912-0.04688 0.50604-0.10801 0.62808-0.35222 0.65918-0.87305 0.0311-0.49124 0.03076-0.92297 0.03076-3.2549v-2.7012c0-1.4116 7.3e-4 -2.6244-0.07617-3.2681-0.06214-0.44685-0.13755-0.78451-0.44531-0.84521-0.1376-0.031-0.32291-0.06299-0.55225-0.06299-0.18492 0-0.24609-0.04468-0.24609-0.12158 0-0.10798 0.10787-0.15381 0.30761-0.15381 0.61405 0 1.58 0.04541 1.9336 0.04541 0.43058 0 1.3963-0.04541 2.395-0.04541 0.18347 0 0.30615 0.04579 0.30615 0.15381 0 0.07691-0.07741 0.12158-0.24609 0.12158-0.23082 0-0.56768 0.03189-0.78223 0.06299-0.46017 0.06067-0.55176 0.39705-0.59766 0.82763-0.0769 0.65991-0.07617 1.8741-0.07617 3.2856v1.3506c0 0.077 0.04352 0.09082 0.09082 0.09082h5.8638c0.0444 0 0.09229-0.03012 0.09229-0.09082v-1.3506c0-1.4116-7.4e-4 -2.6244-0.07764-3.2681-0.06215-0.44685-0.13755-0.78451-0.44531-0.84521-0.13761-0.031-0.3229-0.06299-0.55225-0.06299-0.18492 0-0.24463-0.04468-0.24463-0.12158 0-0.10798 0.10773-0.15381 0.32227-0.15381 0.59778 0 1.5653 0.04541 1.9175 0.04541 0.43057 0 1.3963-0.04541 2.3936-0.04541 0.18495 0 0.30909 0.04579 0.30909 0.15381 0 0.07691-0.07594 0.12158-0.2461 0.12158-0.22934 0-0.56767 0.03189-0.78222 0.06299-0.46016 0.06067-0.55473 0.39705-0.59913 0.82763-0.0769 0.65991-0.07617 1.8741-0.07617 3.2856v2.7012c0 2.3319-3e-4 2.7636 0.0293 3.2549 0.03256 0.5371 0.15407 0.79615 0.56836 0.87305 0.18496 0.0311 0.32101 0.04688 0.44678 0.04688 0.18351 0 0.27539 0.03115 0.27539 0.13916 0 0.10651-0.10772 0.13769-0.32227 0.13769-0.59925 0-1.5652-0.04687-1.9336-0.04687-0.41429 0-1.3833 0.04687-2.2119 0.04687-0.21455 0-0.32226-0.03115-0.32226-0.13769 0-0.10798 0.09352-0.13916 0.2622-0.13916 0.21454 0 0.47485-0.01578 0.59766-0.04688 0.50751-0.10801 0.62955-0.35222 0.66065-0.87305 0.0311-0.49124 0.03076-0.92297 0.03076-3.2549v-0.32227c0-0.07691-0.04789-0.10839-0.09229-0.10839h-5.8638c-0.0473 0-0.09228 0.03149-0.09228 0.10839v0.32227c0 2.3319 0.00116 2.7636 0.03076 3.2549 0.03107 0.5371 0.15406 0.79615 0.56836 0.87305 0.18347 0.0311 0.3225 0.04688 0.44531 0.04688 0.18351 0 0.27393 0.03115 0.27393 0.13916 0 0.10651-0.10624 0.13769-0.32227 0.13769-0.59777 0-1.5637-0.04687-1.9336-0.04687-0.4143 0-1.3804 0.04687-2.2104 0.04687zm27.52-0.00146c-0.23082 0-0.33838-0.02969-0.33838-0.1377 0-0.108 0.09205-0.13769 0.26221-0.13769 0.21455 0 0.47483-0.01578 0.59912-0.04688 0.50752-0.10654 0.62958-0.3522 0.65918-0.87451 0.0311-0.49123 0.03222-0.92004 0.03222-3.2534v-2.2412c0-2.2254 0.584-3.3606 1.3652-4.0664 1.1201-1.0136 2.5934-1.0605 3.4072-1.0605 0.99875 0 2.1029 0.16934 3.1934 1.106 1.2888 1.1038 1.459 2.9156 1.459 4.6201v1.6421c0 2.3334-3.4e-4 2.7622 0.03076 3.2534 0.02959 0.53711 0.1526 0.79901 0.56689 0.87451 0.18347 0.031 0.27664 0.04688 0.44532 0.04688 0.18349 0 0.27685 0.02968 0.27685 0.13769s-0.10772 0.1377-0.32226 0.1377c-0.59925 0-1.567-0.04541-1.7505-0.04541-0.0148 0-0.98092 0.04541-1.7666 0.04541-0.21307 0-0.31934-0.02969-0.31934-0.1377 0-0.108 0.09061-0.13769 0.25928-0.13769 0.16868 0 0.42797-0.01578 0.55078-0.04688 0.50899-0.10654 0.63107-0.3522 0.66357-0.87451 0.0296-0.49123 0.0293-0.92004 0.0293-3.2534v-1.919c0-1.5802-0.04577-2.9623-0.88916-3.8057-0.61405-0.61405-1.4449-0.8291-2.1211-0.8291-0.52083 0-1.228 0.06024-1.9175 0.62842-0.75166 0.61405-1.1982 1.551-1.1982 3.7764v2.1489c0 2.3334-3.3e-4 2.7622 0.03077 3.2534 0.03107 0.53711 0.15407 0.79901 0.56836 0.87451 0.18496 0.031 0.27664 0.04688 0.44531 0.04688 0.15392 0 0.24609 0.02968 0.24609 0.13769s-0.10756 0.1377-0.33838 0.1377c-0.55339 0-1.5198-0.04541-1.8867-0.04541-0.46017 0-1.4289 0.04541-2.2427 0.04541zm51.677 0c-0.23082 0-0.33838-0.02969-0.33838-0.1377 0-0.10799 0.09206-0.13769 0.26074-0.13769 0.21455 0 0.47633-0.01578 0.59766-0.04688 0.50751-0.10654 0.62954-0.3522 0.66064-0.87451 0.0311-0.49124 0.03076-0.92004 0.03076-3.2534v-2.7012c0-1.4116-7.3e-4 -2.6259-0.07763-3.2695-0.06215-0.44537-0.13756-0.78305-0.44532-0.84375-0.13761-0.0311-0.31996-0.06299-0.55078-0.06299-0.18492 0-0.24609-0.04605-0.24609-0.12305 0-0.1065 0.10788-0.15234 0.30615-0.15234 0.61405 0 1.5806 0.04687 1.875 0.04687 0.22934 0 1.3637-0.04687 2.2544-0.04687 0.19975 0 0.30761 0.04581 0.30761 0.15234 0 0.07691-0.06177 0.12305-0.1831 0.12305-0.18496 0-0.52357 0.03189-0.7544 0.06299-0.46016 0.06066-0.55175 0.39838-0.59765 0.84375-0.0769 0.64364-0.07764 1.8578-0.07764 3.2842v0.21386c0 0.09321 0.04755 0.12305 0.12305 0.12305l1.3359-0.0293c0.10801 0 0.19996-0.01669 0.27686-0.10839 0.19827-0.22935 0.905-1.2718 1.519-2.1167 0.85967-1.1822 1.4436-1.9052 2.1035-2.2573 0.3995-0.21459 0.78095-0.2915 1.6406-0.2915h1.459c0.18496 0 0.2915 0.02953 0.2915 0.15234 0 0.07691-0.06029 0.12305-0.1831 0.12305s-0.262 0.01577-0.4292 0.04687c-0.23082 0.04587-0.86154 0.1537-1.7197 1.0444-0.90554 0.95141-1.9653 2.3163-3.3325 4.0356 1.5506 1.2592 2.0273 2.3031 2.0273 3.4395 0 1.0283-0.61385 1.8106-1.0444 2.102-0.82859 0.56822-1.8566 0.65918-2.8228 0.65918-0.47644 0-1.6442-0.04541-2.165-0.04541-0.32404 0-1.2897 0.04541-2.102 0.04541zm20.407 0c-0.24562 0-0.36768-0.02985-0.36768-0.12305 0-0.1228 0.09221-0.15234 0.24609-0.15234 0.18348 0 0.38357-0.01563 0.55225-0.06153 0.33735-0.07694 0.49038-0.33755 0.52148-0.85986 0.0296-0.49123 0.0293-0.92004 0.0293-3.2534v-2.7026c0-1.4885 7.3e-4 -2.7006-0.07617-3.3442-0.04439-0.44537-0.13757-0.70835-0.44385-0.76905-0.13909-0.0311-0.32289-0.06152-0.55371-0.06152-0.18344 0-0.24463-0.04465-0.24463-0.12305 0-0.1065 0.10788-0.15234 0.30615-0.15234 0.61257 0 1.5814 0.04541 1.9351 0.04541 0.4143 0 1.38-0.04541 2.3936-0.04541 0.17016 0 0.2915 0.04581 0.2915 0.15234 0 0.07841-0.07596 0.12305-0.24463 0.12305-0.23083 0-0.56915 0.03042-0.78222 0.06152-0.46165 0.06066-0.56794 0.33863-0.61524 0.7544-0.0607 0.65844-0.06152 1.8704-0.06152 3.3589v2.7026c0 2.3334-3e-4 2.7622 0.0293 3.2534 0.03107 0.53711 0.15552 0.79901 0.56982 0.87451 0.18347 0.031 0.30754 0.04688 0.46143 0.04688 0.15391 0 0.24462 0.02953 0.24462 0.15234 0 0.09321-0.12103 0.12305-0.32226 0.12305-0.58445 0-1.4903-0.04541-1.8721-0.04541-0.44685 0-1.4136 0.04541-1.9966 0.04541zm16.478 0c-0.18347 0-0.2915-0.04453-0.2915-0.13623 0-0.10798 0.10717-0.13916 0.22998-0.13916 0.18347 0 0.44477-0.09269 0.646-0.19922 0.29001-0.17016 0.67438-0.55243 1.0576-1.1206 0.5371-0.79752 2.5931-4.1767 2.7026-4.4224 0.19679-0.44389 0.35303-0.78274 0.35303-1.6113v-1.2568c0-0.24562 4.9e-4 -0.89151-0.04541-1.5352-0.03107-0.44537-0.17125-0.78305-0.47901-0.84375-0.13761-0.031-0.31863-0.06299-0.53466-0.06299-0.16872 0-0.2461-0.04615-0.2461-0.12305 0-0.12278 0.12237-0.15381 0.33692-0.15381 0.56818 0 1.5343 0.04688 1.9175 0.04688 0.41578 0 1.3834-0.04688 2.3496-0.04688 0.19975 0 0.32373 0.04579 0.32373 0.15381 0 0.07691-0.0774 0.12305-0.24756 0.12305-0.21454 0-0.55157 0.03189-0.76612 0.06299-0.46015 0.06067-0.59878 0.39838-0.62988 0.84375-0.0459 0.64364-0.04541 1.2895-0.04541 1.5352v1.2568c0 0.50603 6.4e-4 0.98324 0.22998 1.5366 0.27522 0.65992 2.4266 4.2668 2.9326 4.8809 0.33735 0.41282 0.50508 0.59758 0.82764 0.75146 0.22934 0.12278 0.52289 0.18458 0.67529 0.18458 0.17016 0 0.29297 0.04727 0.29297 0.1538 0 0.09171-0.10816 0.12159-0.27832 0.12159-0.29149 0-1.3033-0.04541-1.6406-0.04541-0.44537 0-0.93682 0.04541-1.4443 0.04541-0.18352 0-0.26075-0.02969-0.26075-0.13623 0-0.09168 0.13778-0.12271 0.27686-0.15381 0.26038-0.06066 0.3208-0.23138 0.3208-0.38526 0-0.19827-0.05998-0.4595-0.21387-0.79834-0.21454-0.47496-2.1489-3.8518-2.3013-4.2202-0.2471 0.43057-2.3958 4.1292-2.6118 4.5894-0.10657 0.21455-0.18311 0.40014-0.18311 0.52295s0.07625 0.24433 0.21533 0.27393c0.22935 0.06214 0.33838 0.07969 0.33838 0.17139 0 0.09171-0.07756 0.13623-0.23144 0.13623-0.68951 0-1.3195-0.04541-1.6421-0.04541-0.50603 0-1.6569 0.04541-1.9336 0.04541zm22.093-0.52002c2.5183 0 4.5-2.1336 4.5-5.5723 0-4.4359-2.4883-4.9585-3.5625-4.9585-2.9474 0-4.7109 2.533-4.7109 5.7246 0 3.8234 2.0097 4.8062 3.7734 4.8062zm-55.003-0.20069c0.90554 0 2.3481-0.63007 2.3481-2.8096 0-1.2592-0.44365-1.9639-0.90381-2.3013-0.27817-0.19971-0.47578-0.26074-1.0913-0.26074-0.38323 0-0.84493 0.0458-1.1675 0.15234-0.10651 0.04735-0.1377 0.10818-0.1377 0.27686v4.667c0 0.12285 0.03116 0.18277 0.1377 0.21387 0.15536 0.0458 0.43123 0.06152 0.81445 0.06152zm35.243-13.942c-0.42465 0-0.67899-0.46671-1.1895-1.6978l-10.66-26.669c-0.84931-2.1233-1.6562-3.5688-3.6108-3.8218-0.33884-0.0429-0.93366-0.08642-1.3169-0.08642-0.33735 0-0.5083-0.08388-0.5083-0.33985 0-0.33886 0.25522-0.4248 0.80713-0.4248 2.2076 0 4.5437 0.1289 5.0098 0.1289 1.3169 0 3.1432-0.1289 4.5029-0.1289 0.46756 0 0.72217 0.08596 0.72217 0.4248 0 0.25601-0.12674 0.33985-0.63721 0.33985h-0.63867c-1.3154 0-1.6978 0.55192-1.6978 1.3169 0 0.50899 0.21256 1.5289 0.63721 2.5913l2.2939 6.0718c0.08434 0.25452 0.16927 0.34131 0.38086 0.34131h9.4717c0.21159 0 0.339-0.08724 0.4248-0.29883l3.397-9.0029c0.21159-0.51047-0.08639-0.89275-0.38379-0.97705-0.42318-0.04291-0.59326-0.12636-0.59326-0.38233 0-0.29594 0.50944-0.29694 1.2744-0.33984 3.3958-0.0858 6.4974-0.08496 8.0259-0.08496 1.5714 0 1.9541 0.08596 1.9541 0.4248 0 0.29741-0.21191 0.33985-0.55371 0.33985-0.50899 0-1.1465 0.04267-1.7827 0.16992-0.89221 0.21307-2.1226 0.80702-3.7354 4.6289-2.7196 6.4556-9.5128 23.782-10.532 26.118-0.42613 0.97656-0.68027 1.3579-1.062 1.3579zm-23.632-0.33984c-5.9037 0-9.8101-3.3547-9.8101-8.0259 0-3.4402 1.613-6.4132 6.2842-10.065l1.9556-1.5278c3.523-2.7181 4.1602-4.7136 4.1602-6.7939 0-2.252-1.8676-4.8428-5.6909-4.8428-2.6338 0-5.1366 1.1463-6.0732 4.2891-0.21011 0.72206-0.38086 1.6146-0.38086 2.1665 0 0.33883-0.04305 0.72217-0.4248 0.72217-0.34179 0-0.46687-0.46824-0.50977-1.1045-0.04291-0.68063-0.2124-3.2286-0.2124-5.5635 0-0.93513 0.1265-1.1469 0.80713-1.4443 1.8259-0.80788 3.7371-1.103 6.2007-1.103 2.249 0 4.6282 0.38192 6.7529 1.7417 3.0569 1.9945 3.9917 4.9251 3.9917 7.3872 0 4.035-1.8695 6.8805-6.9653 10.83l-1.188 0.89209c-3.526 2.6752-4.5029 4.1611-4.5029 6.1157 0 2.5479 1.9125 4.374 5.0537 4.374 2.7625 0 3.9912-1.2751 4.6289-2.0815 0.89222-1.1038 1.1045-2.4205 1.1045-2.8037 0-0.50899 0.12738-0.76318 0.42627-0.76318 0.33735 0 0.46582 0.34077 0.46582 1.2744 0 3.3129 0.16992 4.5443 0.16992 5.0962 0 0.2974-0.21298 0.42396-0.59472 0.50976-1.1038 0.29593-2.8889 0.72071-5.6484 0.72071zm52.411 0c-5.9037 0-9.8115-3.3547-9.8115-8.0259 0-3.4402 1.6145-6.4132 6.2842-10.065l1.9556-1.5278c3.5245-2.7181 4.1616-4.7136 4.1616-6.7939 0-2.252-1.869-4.8428-5.6924-4.8428-2.6323 0-5.1366 1.1463-6.0718 4.2891-0.21307 0.72206-0.38232 1.6146-0.38232 2.1665 0 0.33883-0.04306 0.72217-0.42481 0.72217-0.34031 0-0.46687-0.46824-0.50977-1.1045-0.04291-0.68063-0.21386-3.2286-0.21386-5.5635 0-0.93513 0.12944-1.1469 0.80859-1.4443 1.8259-0.80788 3.7356-1.103 6.2007-1.103 2.2505 0 4.6282 0.38192 6.7515 1.7417 3.0569 1.9945 3.9932 4.9251 3.9932 7.3872 0 4.035-1.8695 6.8805-6.9668 10.83l-1.1865 0.89209c-3.526 2.6752-4.5029 4.1611-4.5029 6.1157 0 2.5479 1.9125 4.374 5.0537 4.374 2.761 0 3.9926-1.2751 4.6289-2.0815 0.89222-1.1038 1.1045-2.4205 1.1045-2.8037 0-0.50899 0.1274-0.76318 0.42481-0.76318 0.33883 0 0.46728 0.34077 0.46728 1.2744 0 3.3129 0.16993 4.5443 0.16993 5.0962 0 0.2974-0.21299 0.42396-0.59473 0.50976-1.1038 0.29593-2.8875 0.72071-5.647 0.72071zm-114.45-0.02198c-0.40394 0-0.65711-0.46393-1.1587-1.6787l-10.522-26.316c-0.36695-0.88482-0.63934-1.6406-1.0122-2.2266-0.31811-0.47792-0.85948-1.0576-1.6304-1.0576-0.62145 0-1.3412 0.39779-1.8442 0.75586-0.19975 0.14205-0.39637 0.30297-0.60352 0.47461-0.0399 0.0311-0.05859 0.05567-0.05859 0.05567v-0.0044c-0.87003 0.71319-1.9052 1.6961-3.4292 3.1802-1.632 1.5684-9.7305 10.514-11.244 12.491 1.4264 1.5078 7.7157 7.7877 8.9927 9.044 1.8155 1.7652 3.2286 2.6464 4.5425 3.1465 0.79456 0.29001 1.831 0.45703 2.4185 0.45703 0.42022 0 0.64014 0.08486 0.64014 0.38526 0 0.29593-0.30038 0.37646-0.73096 0.37646-1.2888 0-3.598-0.12012-4.8867-0.12012-1.1423 0-3.4189 0.12012-4.3052 0.12012-0.46312 0-0.67675-0.08055-0.67675-0.37646 0-0.26041 0.17359-0.34193 0.53906-0.42627 0.43353-0.0829 0.60205-0.37335 0.60205-0.83203 0-0.71762-0.92739-1.7586-2.0845-3.1436-1.2029-1.4264-7.2981-7.6735-8.7378-9.2227h-0.208v1.8428c0 6.3728 5.9e-4 7.5466 0.08349 8.8901 0.0858 1.4619 0.41775 2.1702 1.5645 2.3818 0.50159 0.0829 0.75032 0.12451 1.1587 0.12451 0.33588 0 0.5874 0.08486 0.5874 0.38526 0 0.29593-0.29302 0.37646-0.87451 0.37646-1.4175 0-4.0592-0.12012-5.0786-0.12012-1.0017 0-3.6444 0.12012-5.8506 0.12012-0.6392 0-0.93604-0.08055-0.93604-0.37646 0-0.30036 0.24717-0.38526 0.72657-0.38526 0.5874 0 1.2902-0.04162 1.6201-0.12451 1.3923-0.29001 1.7306-0.95548 1.8135-2.3818 0.0829-1.3435 0.08203-2.5174 0.08203-8.8901v-7.3696c0-3.8544 6.1e-4 -7.1659-0.20654-8.937-0.16868-1.2029-0.38264-2.1311-1.2305-2.2983-0.38026-0.0799-0.86828-0.16407-1.4912-0.16407-0.50603 0-0.67237-0.1268-0.67237-0.33838 0-0.29 0.29342-0.42333 0.83497-0.42333 1.6646 0 4.3088 0.1333 5.2661 0.1333 1.0638 0 3.7047-0.1333 6.0381-0.1333 0.46017 0 0.80567 0.13333 0.80567 0.42333 0 0.21158-0.21192 0.33838-0.55371 0.33838-0.54451 0-1.4576 0.08421-2.0391 0.16407-1.0653 0.1672-1.4391 1.0958-1.5264 2.2588-0.12133 1.8111-0.12158 5.1221-0.12158 8.9766v3.8086h0.208l0.46289-0.62549c0.89074-1.2192 9.0988-10.903 10.939-12.536 1.7859-1.595 2.9247-2.5057 5.1812-2.7202 0.73982-0.0725 1.3898-0.08489 2.3013-0.08789h0.02637 9.4146c0.44981 0 0.71045 0.08746 0.71045 0.42333 0 0.25597-0.12834 0.33838-0.62549 0.33838h-0.62402c-1.3139 0-1.689 0.53731-1.689 1.2993 0 0.49716 0.2126 1.5101 0.63281 2.5518l2.2617 6c0.0784 0.2471 0.16346 0.32519 0.37061 0.32519h9.353c0.20863 0 0.32728-0.07846 0.41162-0.28711l3.3545-8.8828c0.21011-0.50751-0.0835-0.88841-0.37207-0.96387-0.42317-0.0414-0.57422-0.12489-0.57422-0.38086 0-0.29 0.48616-0.28957 1.2349-0.33544 3.3558-0.0873 6.4199-0.08789 7.9409-0.08789 0.21455 0 0.39819 0.00278 0.56983 0.00878 0.0799-6e-3 0.1485-0.00878 0.23876-0.00878h9.728c0.5815 0 0.95069 0.08746 0.95069 0.42333 0 0.25597-0.23857 0.33838-0.69873 0.33838-0.66436 0-1.4606 0.04145-2.1812 0.28858-0.84783 0.28853-1.3821 1.3838-1.4575 4.6523l-0.46435 17.606h0.12451c0.74278-0.80492 5.4139-6.0412 9.9741-10.566 4.3472-4.3146 9.7266-9.8069 12.363-12.319 0.46016-0.46608 0.96673-0.92431 1.4136-0.92431 0.38026 0 0.54052 0.37597 0.54052 1.3052l0.47754 26.44c0.04 2.3511 0.38831 3.2252 1.5483 3.5581 0.49272 0.12429 0.83082 0.12451 1.2466 0.12451 0.51638 0 0.77343 0.12485 0.77343 0.38526 0 0.33588-0.43846 0.37646-0.97705 0.37646-2.0434 0-3.6518-0.12158-4.0957-0.12158-0.8789 0-2.9021 0.12158-5.0757 0.12158-0.63625 0-1.103-0.04055-1.103-0.37646 0-0.26041 0.17227-0.38526 0.6709-0.38526 0.59482 0 1.6095-4.4e-4 2.228-0.24902 0.99875-0.41134 1.3838-1.2137 1.4326-3.7676l0.42041-18.825h-0.21387c-0.72206 0.68063-6.3671 6.7172-9.2124 9.5596-6.1198 6.0783-12.495 12.907-12.995 13.45-0.71762 0.76054-1.1058 1.3008-1.5659 1.3008-0.41282 0-0.54199-0.58337-0.54199-1.4268l-0.36767-24.807c-0.0148-1.4234-0.05322-2.459-0.15528-3.2446-0.0799-0.35215-0.58256-1.916-2.8257-1.916-2.2224 0-3.312 1.5938-3.312 1.5938v-0.01611c-0.45573 0.65991-0.96559 1.5849-1.5264 2.9136-2.6781 6.3728-9.3868 23.469-10.406 25.777-0.42022 0.95879-0.66562 1.3359-1.0474 1.3359zm84.608-8.3438c0.12728 0 0.171-0.21216 0.2124-0.38232l3.8232-10.488c0.04143-0.12725-7.9e-4 -0.25489-0.21386-0.25489h-7.8135c-0.17016 0-0.21132 0.12721-0.16992 0.29737l3.9082 10.446c0.04143 0.17016 0.12617 0.38232 0.25342 0.38232zm-85.639-0.24902c0.11985 0 0.16511-0.20342 0.20654-0.36914l3.7676-10.349c0.0429-0.12577-8.6e-4 -0.25782-0.20801-0.25782h-7.7095c-0.17312 0-0.20983 0.13162-0.17432 0.3003l3.8643 10.307c0.0399 0.16572 0.1247 0.36914 0.25342 0.36914z" fill="#85898a"/>
  <path d="m276.94 203.29c-0.93808 0-1.3814-0.12892-1.3814-0.56689 0-0.44241 0.37249-0.56397 1.0635-0.56397 0.88334 0 1.9505-0.06615 2.4551-0.18896 2.0759-0.44389 2.5813-1.4508 2.7041-3.5874 0.12577-2.0064 0.12451-3.7688 0.12451-13.323v-11.065c0-5.7809 2e-4 -10.748-0.31348-13.384-0.25598-1.8259-0.56752-3.2069-1.8237-3.4629-0.56522-0.12429-1.3206-0.25049-2.2632-0.25049-0.75609 0-1.0034-0.18433-1.0034-0.50097 0-0.44093 0.43712-0.62989 1.2568-0.62989 2.5154 0 6.4704 0.18897 7.9146 0.18897 1.5743 0 5.5356-0.18897 9.0571-0.18897 0.68803 0 1.1924 0.18896 1.1924 0.62989 0 0.31664-0.31287 0.50097-0.81299 0.50097-0.81824 0-2.2046 0.1262-3.0864 0.25049-1.5669 0.25597-2.1316 1.6362-2.2573 3.3955-0.19383 2.7033-0.19336 7.6707-0.19336 13.452v5.7202h0.31934l0.68994-0.9419 24.706-27.284c2.7033-2.3896 4.4031-3.7762 7.793-4.0869 1.3154-0.12281 2.4553-0.12159 4.3359-0.12159h5.4712c1.1955 0 1.5146 0.18748 1.5146 0.62842 0 0.37286-0.38236 0.50244-0.81885 0.50244-0.76202 0-2.2942 0.46564-4.1777 1.2173-3.159 1.231-6.1079 3.793-8.6484 6.23l-7.314 7.9307-18.025 19.384c2.1381 2.2653 11.577 11.747 13.573 13.581 3.2448 2.9726 6.0362 5.2178 7.9863 5.2178 1.9561 0 2.5681-1.4391 2.6953-3.5728 0.12873-2.0049 0.1289-3.7617 0.1289-13.291v-9.1553c0-9.0938 2.3836-13.732 5.5796-16.616 4.5765-4.1385 10.591-4.3301 13.917-4.3301 4.0764 0 8.5908 0.6927 13.042 4.5205 5.269 4.507 5.956 11.908 5.956 18.869v6.7119c0 9.5288 1.9e-4 11.286 0.12744 13.291 0.12873 2.1958 0.62464 3.2591 2.3218 3.5728 0.75018 0.12429 1.1239 0.19043 1.8193 0.19043 0.74722 0 1.1279 0.12603 1.1279 0.56104 0 0.43797-0.43945 0.56543-1.3198 0.56543-2.4473 0-6.3924-0.1875-7.1455-0.1875-0.06658 0-4.0109 0.1875-7.2158 0.1875-0.86853 0-1.3154-0.12746-1.3154-0.56543 0-0.43501 0.37982-0.56104 1.0693-0.56104 0.69099 0 1.7528-0.06614 2.2544-0.19043 2.0715-0.44093 2.5724-1.4391 2.7012-3.5728 0.11985-2.0049 0.11865-3.7617 0.11865-13.291v-7.8428c0-6.4571-0.18083-12.099-3.6328-15.546-2.5109-2.5095-5.8933-3.3852-8.6528-3.3852-2.1277 0-5.0167 0.24778-7.8369 2.5708-3.0688 2.5094-4.8911 6.334-4.8911 15.423v8.7803c0 9.5288 2.2e-4 11.286 0.12451 13.291 0.12725 2.1958 0.62908 3.2591 2.3218 3.5728 0.74869 0.12429 1.1254 0.19043 1.8164 0.19043 0.62884 0 1.0093 0.12603 1.0093 0.56104 0 0.43797-0.44326 0.56543-1.3814 0.56543-2.2594 0-6.212-0.1875-7.7124-0.1875l-12.051-0.0044c-1.6986 0-5.1563 0.19336-6.4746 0.19336-0.69099 0-1.0049-0.12892-1.0049-0.56689 0-0.37731 0.24778-0.50116 0.81152-0.62989 0.6318-0.12281 0.88623-0.56731 0.88623-1.2583 0-1.0683-1.3828-2.6365-3.145-4.7109-1.8259-2.1366-11.003-11.508-13.135-13.833h-0.31934v2.7686c0 9.554 1.9e-4 11.316 0.12744 13.323 0.12873 2.2032 0.62759 3.2722 2.3232 3.5874 0.75164 0.12279 1.129 0.18896 1.7578 0.18896 0.50899 0 0.88037 0.12156 0.88037 0.56397 0 0.43797-0.43359 0.56689-1.314 0.56689-2.1381 0-6.0992-0.19336-7.6084-0.19336s-5.4642 0.19336-8.7993 0.19336zm90.703-54.738c-0.37138 0-0.67237-0.30098-0.67237-0.67236s0.30099-0.6709 0.67237-0.6709h166.74c0.37139 0 0.6709 0.29952 0.6709 0.6709s-0.29951 0.67236-0.6709 0.67236h-166.74z" fill="#0051ba"/>
 </g>
</svg>