<svg version="1.1" viewBox="0 0 394.34 479.69" xml:space="preserve" xmlns="http://www.w3.org/2000/svg"><defs><clipPath id="clipPath34"><path d="m0 792h612v-792h-612z"/></clipPath></defs><g transform="matrix(1.3333 0 0 -1.3333 -209.92 834.46)"><g fill="#100f0d" fill-rule="evenodd" stroke="#100f0d" stroke-miterlimit="3.864" stroke-width=".625"><path d="m226.54 409.47h50.488v-2.351h-50.488z"/><path d="m334.35 408h50.487v-2.352h-50.487z"/><path d="m222.18 481.94h50.488v-2.351h-50.488z"/><path d="m337.4 483.99h50.488v-2.351h-50.488z"/></g><g clip-path="url(#clipPath34)"><g transform="translate(305.47 343.56)"><path d="m0 0s-4.289 2.393-4.289 0.915c0-0.152-2.747-1.983-2.747-1.983l-1.851 1.22 2.004 3.483s-6.475 4.702-2.774 13.802c0 0 0.896 1.345-0.772 4.397l1.697 0.458s2.747 11.084 8.886 11.389l0.309-1.679s-4.108 1.374-7.499-9.404c0 0-0.183-1.069 7.19-1.069l-0.072-20.935z" fill="#100f0d" fill-rule="evenodd"/><path d="m0 0s-4.289 2.393-4.289 0.915c0-0.152-2.747-1.983-2.747-1.983l-1.851 1.22 2.004 3.483s-6.475 4.702-2.774 13.802c0 0 0.896 1.345-0.772 4.397l1.697 0.458s2.747 11.084 8.886 11.389l0.309-1.679s-4.108 1.374-7.499-9.404c0 0-0.183-1.069 7.19-1.069l-0.072-20.935z" fill="none" stroke="#100f0d" stroke-miterlimit="3.864" stroke-width=".625"/></g><g transform="translate(305.89 343.64)"><path d="m0 0s4.289 2.393 4.289 0.915c0-0.152 2.747-1.983 2.747-1.983l1.851 1.22-2.005 3.482s6.476 4.703 2.775 13.803c0 0-0.896 1.345 0.772 4.398l-1.697 0.457s-2.747 11.084-8.886 11.389l-0.309-1.678s4.107 1.373 7.499-9.405c0 0 0.183-1.069-7.19-1.069l0.071-20.935z" fill="#100f0d" fill-rule="evenodd"/><path d="m0 0s4.289 2.393 4.289 0.915c0-0.152 2.747-1.983 2.747-1.983l1.851 1.22-2.005 3.482s6.476 4.703 2.775 13.803c0 0-0.896 1.345 0.772 4.398l-1.697 0.457s-2.747 11.084-8.886 11.389l-0.309-1.678s4.107 1.373 7.499-9.405c0 0 0.183-1.069-7.19-1.069l0.071-20.935z" fill="none" stroke="#100f0d" stroke-miterlimit="3.864" stroke-width=".625"/></g><g transform="translate(289.94 373.96)"><path d="m0 0s10.508-0.438 12.16-0.088c0 0 1.741 3.301-1.417 2.863l-0.797-0.35s-6.935-0.351-8.618 0.876c0 0 2.184 1.986 7.556 2.074 0 0 0.886-0.059 0.886-0.497 0 0 2.125-1.811 2.921-0.263 0 0 1.476 2.512-2.302 2.95l-9.769 0.526s-0.443 0.701-0.798 0.789c-0.353 0.087-0.531 0.613-0.531 0.613l1.24 2.424 1.683 0.263 0.797 0.175s0.177 0.438 0.177 0.526-0.177 0.351-0.177 0.438c0 0.088-0.177 0.351-0.177 0.439s0.354 0.437 0.531 0.437 0.856 0.584 0.856 0.584l-0.768 0.527s-0.797 0.262-0.974 0.262h-0.796s-4.044 0.789-4.576 2.191c-0.531 1.402 0.089 0.088 0.089 0.088l-1.062 0.262 0.62 1.724s-1.595-0.584-1.683-1.197l-0.502 0.846-1.416-1.109s-1.299-2.775 0.354-5.228c0 0-2.656-3.243-1.417-10.37 0 0 0.886-2.95-3.335-7.74 0 0-6.257-4.703-5.194 3.388 0 0 4.544 11.157 2.626 14.896 0 0-0.678 4.528-11.865 3.652 0 0 1.861-1.84 4.487-5.579 0 0 2.803-3.301-1.329-7.829 0 0-5.164-5.928 2.834-11.508 0 0 2.48-0.643 4.487-0.876 0 0-1.063-4.936 2.715-6.777 0 0 2.301-0.292 1.593-2.541l-2.922-1.986-0.708-1.314s0.885-2.512 2.037-2.775l-0.797-0.789v-1.489c0-0.351 0.263-2.862 2.302-2.862 0.088 0 2.892-0.702 2.892-0.702l-0.266 1.49s1.506-1.051 1.506-0.963c0 0.087-4.309 5.928-4.309 5.928s-1.121 1.111 0.177 1.198l0.088 1.577s1.918-0.058 2.538 2.015c0 0 0.945-2.541-0.531-2.716 0 0 8.175-8.617 8.264-8.617s0.178 1.841 0.178 1.841l1.416-0.877s0.207 3.389-2.804 3.826l-2.922 2.864s1.299 2.248-0.266 4.439c0 0 3.631-0.789 2.569 4.44l-4.044 3.767s6.493 6.368 6.315 9.581z" fill="#100f0d" fill-rule="evenodd"/><path d="m0 0s10.508-0.438 12.16-0.088c0 0 1.741 3.301-1.417 2.863l-0.797-0.35s-6.935-0.351-8.618 0.876c0 0 2.184 1.986 7.556 2.074 0 0 0.886-0.059 0.886-0.497 0 0 2.125-1.811 2.921-0.263 0 0 1.476 2.512-2.302 2.95l-9.769 0.526s-0.443 0.701-0.798 0.789c-0.353 0.087-0.531 0.613-0.531 0.613l1.24 2.424 1.683 0.263 0.797 0.175s0.177 0.438 0.177 0.526-0.177 0.351-0.177 0.438c0 0.088-0.177 0.351-0.177 0.439s0.354 0.437 0.531 0.437 0.856 0.584 0.856 0.584l-0.768 0.527s-0.797 0.262-0.974 0.262h-0.796s-4.044 0.789-4.576 2.191c-0.531 1.402 0.089 0.088 0.089 0.088l-1.062 0.262 0.62 1.724s-1.595-0.584-1.683-1.197l-0.502 0.846-1.416-1.109s-1.299-2.775 0.354-5.228c0 0-2.656-3.243-1.417-10.37 0 0 0.886-2.95-3.335-7.74 0 0-6.257-4.703-5.194 3.388 0 0 4.544 11.157 2.626 14.896 0 0-0.678 4.528-11.865 3.652 0 0 1.861-1.84 4.487-5.579 0 0 2.803-3.301-1.329-7.829 0 0-5.164-5.928 2.834-11.508 0 0 2.48-0.643 4.487-0.876 0 0-1.063-4.936 2.715-6.777 0 0 2.301-0.292 1.593-2.541l-2.922-1.986-0.708-1.314s0.885-2.512 2.037-2.775l-0.797-0.789v-1.489c0-0.351 0.263-2.862 2.302-2.862 0.088 0 2.892-0.702 2.892-0.702l-0.266 1.49s1.506-1.051 1.506-0.963c0 0.087-4.309 5.928-4.309 5.928s-1.121 1.111 0.177 1.198l0.088 1.577s1.918-0.058 2.538 2.015c0 0 0.945-2.541-0.531-2.716 0 0 8.175-8.617 8.264-8.617s0.178 1.841 0.178 1.841l1.416-0.877s0.207 3.389-2.804 3.826l-2.922 2.864s1.299 2.248-0.266 4.439c0 0 3.631-0.789 2.569 4.44l-4.044 3.767s6.493 6.368 6.315 9.581z" fill="none" stroke="#100f0d" stroke-miterlimit="3.864" stroke-width=".507"/></g><g transform="translate(321.43 373.96)"><path d="m0 0s-10.508-0.438-12.16-0.088c0 0-1.741 3.301 1.417 2.863l0.797-0.35s6.935-0.351 8.618 0.876c0 0-2.185 1.986-7.556 2.074 0 0-0.886-0.059-0.886-0.497 0 0-2.125-1.811-2.921-0.263 0 0-1.476 2.512 2.301 2.95l9.77 0.526s0.442 0.701 0.797 0.789c0.354 0.087 0.531 0.613 0.531 0.613l-1.239 2.424-1.683 0.263-0.797 0.175s-0.177 0.438-0.177 0.526 0.177 0.351 0.177 0.438c0 0.088 0.177 0.351 0.177 0.439s-0.354 0.437-0.531 0.437-0.856 0.584-0.856 0.584l0.768 0.527s0.797 0.262 0.974 0.262h0.796s4.043 0.789 4.575 2.191-0.088 0.088-0.088 0.088l1.062 0.262-0.62 1.724s1.594-0.584 1.683-1.197l0.501 0.846 1.417-1.109s1.299-2.775-0.355-5.228c0 0 2.657-3.243 1.417-10.37 0 0-0.886-2.95 3.335-7.74 0 0 6.258-4.703 5.195 3.388 0 0-4.544 11.157-2.626 14.896 0 0 0.678 4.528 11.864 3.652 0 0-1.86-1.84-4.487-5.579 0 0-2.803-3.301 1.33-7.829 0 0 5.164-5.928-2.834-11.508 0 0-2.48-0.643-4.487-0.876 0 0 1.063-4.936-2.715-6.777 0 0-2.302-0.292-1.593-2.541l2.922-1.986 0.708-1.314s-0.886-2.512-2.037-2.775l0.797-0.789v-1.489c0-0.351-0.263-2.862-2.302-2.862-0.088 0-2.892-0.702-2.892-0.702l0.266 1.49s-1.506-1.051-1.506-0.963c0 0.087 4.309 5.928 4.309 5.928s1.121 1.111-0.177 1.198l-0.088 1.577s-1.919-0.058-2.538 2.015c0 0-0.945-2.541 0.53-2.716 0 0-8.175-8.617-8.264-8.617-0.088 0-0.177 1.841-0.177 1.841l-1.417-0.877s-0.207 3.389 2.804 3.826l2.923 2.864s-1.299 2.248 0.265 4.439c0 0-3.63-0.789-2.568 4.44l4.043 3.767s-6.492 6.368-6.315 9.581z" fill="#100f0d" fill-rule="evenodd"/><path d="m0 0s-10.508-0.438-12.16-0.088c0 0-1.741 3.301 1.417 2.863l0.797-0.35s6.935-0.351 8.618 0.876c0 0-2.185 1.986-7.556 2.074 0 0-0.886-0.059-0.886-0.497 0 0-2.125-1.811-2.921-0.263 0 0-1.476 2.512 2.301 2.95l9.77 0.526s0.442 0.701 0.797 0.789c0.354 0.087 0.531 0.613 0.531 0.613l-1.239 2.424-1.683 0.263-0.797 0.175s-0.177 0.438-0.177 0.526 0.177 0.351 0.177 0.438c0 0.088 0.177 0.351 0.177 0.439s-0.354 0.437-0.531 0.437-0.856 0.584-0.856 0.584l0.768 0.527s0.797 0.262 0.974 0.262h0.796s4.043 0.789 4.575 2.191-0.088 0.088-0.088 0.088l1.062 0.262-0.62 1.724s1.594-0.584 1.683-1.197l0.501 0.846 1.417-1.109s1.299-2.775-0.355-5.228c0 0 2.657-3.243 1.417-10.37 0 0-0.886-2.95 3.335-7.74 0 0 6.258-4.703 5.195 3.388 0 0-4.544 11.157-2.626 14.896 0 0 0.678 4.528 11.864 3.652 0 0-1.86-1.84-4.487-5.579 0 0-2.803-3.301 1.33-7.829 0 0 5.164-5.928-2.834-11.508 0 0-2.48-0.643-4.487-0.876 0 0 1.063-4.936-2.715-6.777 0 0-2.302-0.292-1.593-2.541l2.922-1.986 0.708-1.314s-0.886-2.512-2.037-2.775l0.797-0.789v-1.489c0-0.351-0.263-2.862-2.302-2.862-0.088 0-2.892-0.702-2.892-0.702l0.266 1.49s-1.506-1.051-1.506-0.963c0 0.087 4.309 5.928 4.309 5.928s1.121 1.111-0.177 1.198l-0.088 1.577s-1.919-0.058-2.538 2.015c0 0-0.945-2.541 0.53-2.716 0 0-8.175-8.617-8.264-8.617-0.088 0-0.177 1.841-0.177 1.841l-1.417-0.877s-0.207 3.389 2.804 3.826l2.923 2.864s-1.299 2.248 0.265 4.439c0 0-3.63-0.789-2.568 4.44l4.043 3.767s-6.492 6.368-6.315 9.581z" fill="none" stroke="#100f0d" stroke-miterlimit="3.864" stroke-width=".507"/></g><g transform="translate(324.74 543.89)"><path d="m0 0 3.409-1.462-0.079-8.076 6.442 0.133 3.006-2.392 0.01-6.298h-8.573v-29.595l-4.215 3.506z" fill="#100f0d" fill-rule="evenodd"/><path d="m0 0 3.409-1.462-0.079-8.076 6.442 0.133 3.006-2.392 0.01-6.298h-8.573v-29.595l-4.215 3.506z" fill="none" stroke="#100f0d" stroke-miterlimit="3.864" stroke-width=".625"/></g><g transform="translate(319.93 505.25)"><path d="m0 0s3.515-5.766 4.857-6.165v29.286h9.235v5.811h-9.637v9.405h-4.618l0.087-9.623-9.322 0.03-3e-3 -5.63h9.372z" fill="#fff" fill-rule="evenodd"/><path d="m0 0s3.515-5.766 4.857-6.165v29.286h9.235v5.811h-9.637v9.405h-4.618l0.087-9.623-9.322 0.03-3e-3 -5.63h9.372z" fill="none" stroke="#100f0d" stroke-miterlimit="3.864" stroke-width="1.223"/></g><g transform="translate(291.3 518.45)"><path d="m0 0s-0.293-8.371-8.166-12.232c0 0 3.414-0.594 3.859-2.648h-17.265s1.381 2.758 3.791 2.758c0 0-4.975 2.055-5.644 6.316 0 0-4.194 0-5.309 5.034 0 0-2.899-0.841-2.007 12.163 0 0 1.673 2.096 2.676-0.22 0 0 0.223-6.179 0.446-7.902 0 0 0.627-2.717 2.187-2.497 0 0 0.266 3.889 3.234 2.055 0 0-1.115 3.972 2.521 3.42 0 0-0.292 3.269 2.342 2.827 0 0 0.558 2.938 2.856 2.938l1.003 1.324 0.113 0.551-0.782 0.111s-0.78 0.992-0.111 1.213l0.78 0.11s0.962 1.766 2.077 0.111l0.756-0.044s0.872-0.575 0.146-1.007l-0.727-0.432v-0.287l0.194-0.24 0.921-1.294s2.62-0.335 2.911-3.169c0 0 2.276-0.292 1.792-2.737 0 0 3.541 0.916 3.443-2.924 0 0 1.841 0.379 1.841-1.006 0-0.048 0.829 1.683 2.524 0.527 0 0 0.669 0.767 2.325 0.767 0.048 0 0.915 1.102 1.598 0 0.684-1.103 0.048 0 0.048 0s8.971-5.278-1.065-9.453c0 0-2.96-0.965-3.686 2.828z" fill="#100f0d" fill-rule="evenodd"/><path d="m0 0s-0.293-8.371-8.166-12.232c0 0 3.414-0.594 3.859-2.648h-17.265s1.381 2.758 3.791 2.758c0 0-4.975 2.055-5.644 6.316 0 0-4.194 0-5.309 5.034 0 0-2.899-0.841-2.007 12.163 0 0 1.673 2.096 2.676-0.22 0 0 0.223-6.179 0.446-7.902 0 0 0.627-2.717 2.187-2.497 0 0 0.266 3.889 3.234 2.055 0 0-1.115 3.972 2.521 3.42 0 0-0.292 3.269 2.342 2.827 0 0 0.558 2.938 2.856 2.938l1.003 1.324 0.113 0.551-0.782 0.111s-0.78 0.992-0.111 1.213l0.78 0.11s0.962 1.766 2.077 0.111l0.756-0.044s0.872-0.575 0.146-1.007l-0.727-0.432v-0.287l0.194-0.24 0.921-1.294s2.62-0.335 2.911-3.169c0 0 2.276-0.292 1.792-2.737 0 0 3.541 0.916 3.443-2.924 0 0 1.841 0.379 1.841-1.006 0-0.048 0.829 1.683 2.524 0.527 0 0 0.669 0.767 2.325 0.767 0.048 0 0.915 1.102 1.598 0 0.684-1.103 0.048 0 0.048 0s8.971-5.278-1.065-9.453c0 0-2.96-0.965-3.686 2.828z" fill="none" stroke="#100f0d" stroke-miterlimit="3.864" stroke-width=".625"/></g><g transform="translate(267.33 519.63)"><path d="m0 0h1.792s0.194 1.486-0.969 1.486c0 0-0.823 0.048-0.823-1.103z" fill="#fff" fill-rule="evenodd"/><path d="m0 0h1.792s0.194 1.486-0.969 1.486c0 0-0.823 0.048-0.823-1.103z" fill="none" stroke="#fff" stroke-miterlimit="3.864" stroke-width=".122"/></g><g transform="translate(270 519.63)"><path d="m0 0h1.792s0.194 1.486-0.969 1.486c0 0-0.823 0.048-0.823-1.103z" fill="#fff" fill-rule="evenodd"/><path d="m0 0h1.792s0.194 1.486-0.969 1.486c0 0-0.823 0.048-0.823-1.103z" fill="none" stroke="#fff" stroke-miterlimit="3.864" stroke-width=".122"/></g><g transform="translate(272.68 519.63)"><path d="m0 0h1.792s0.194 1.486-0.968 1.486c0 0-0.824 0.048-0.824-1.103z" fill="#fff" fill-rule="evenodd"/><path d="m0 0h1.792s0.194 1.486-0.968 1.486c0 0-0.824 0.048-0.824-1.103z" fill="none" stroke="#fff" stroke-miterlimit="3.864" stroke-width=".122"/></g><g transform="translate(275.35 519.63)"><path d="m0 0h1.792s0.194 1.486-0.969 1.486c0 0-0.823 0.048-0.823-1.103z" fill="#fff" fill-rule="evenodd"/><path d="m0 0h1.792s0.194 1.486-0.969 1.486c0 0-0.823 0.048-0.823-1.103z" fill="none" stroke="#fff" stroke-miterlimit="3.864" stroke-width=".122"/></g><g transform="translate(278.02 519.63)"><path d="m0 0h1.792s0.194 1.486-0.968 1.486c0 0-0.824 0.048-0.824-1.103z" fill="#fff" fill-rule="evenodd"/><path d="m0 0h1.792s0.194 1.486-0.968 1.486c0 0-0.824 0.048-0.824-1.103z" fill="none" stroke="#fff" stroke-miterlimit="3.864" stroke-width=".122"/></g><g transform="translate(280.69 519.63)"><path d="m0 0h1.792s0.194 1.486-0.968 1.486c0 0-0.824 0.048-0.824-1.103z" fill="#fff" fill-rule="evenodd"/><path d="m0 0h1.792s0.194 1.486-0.968 1.486c0 0-0.824 0.048-0.824-1.103z" fill="none" stroke="#fff" stroke-miterlimit="3.864" stroke-width=".122"/></g><g transform="translate(283.37 519.63)"><path d="m0 0h1.792s0.194 1.486-0.969 1.486c0 0-0.823 0.048-0.823-1.103z" fill="#fff" fill-rule="evenodd"/><path d="m0 0h1.792s0.194 1.486-0.969 1.486c0 0-0.823 0.048-0.823-1.103z" fill="none" stroke="#fff" stroke-miterlimit="3.864" stroke-width=".122"/></g><g transform="translate(286.04 519.63)"><path d="m0 0h1.792s0.194 1.486-0.969 1.486c0 0-0.823 0.048-0.823-1.103z" fill="#fff" fill-rule="evenodd"/><path d="m0 0h1.792s0.194 1.486-0.969 1.486c0 0-0.823 0.048-0.823-1.103z" fill="none" stroke="#fff" stroke-miterlimit="3.864" stroke-width=".122"/></g><g transform="translate(288.71 519.63)"><path d="m0 0h1.793s0.193 1.486-0.969 1.486c0 0-0.824 0.048-0.824-1.103z" fill="#fff" fill-rule="evenodd"/><path d="m0 0h1.793s0.193 1.486-0.969 1.486c0 0-0.824 0.048-0.824-1.103z" fill="none" stroke="#fff" stroke-miterlimit="3.864" stroke-width=".122"/></g><g transform="translate(411.59 430.69)"><path d="m0 0-4.274 6.5 4.502 5.59 16.307-0.456 1.996-3.136-2.908-3.593-1.768 2.051-12.542 0.228-1.085-2.051 1.541-1.313 14.538-0.912 2.908-3.994-3.363-2.908-2.909 2.452z" fill="#100f0d" fill-rule="evenodd"/><path d="m0 0-4.274 6.5 4.502 5.59 16.307-0.456 1.996-3.136-2.908-3.593-1.768 2.051-12.542 0.228-1.085-2.051 1.541-1.313 14.538-0.912 2.908-3.994-3.363-2.908-2.909 2.452z" fill="none" stroke="#cecdcb" stroke-miterlimit="3.864" stroke-width=".336"/></g><g transform="translate(441.39 464.1)"><path d="m0 0s-1.822 8.096-16.816 6.045c0 0-16.134-1.823-17.675-12.317 0 0 4.503-11.461 16.361-13.002 0 0 7.813-0.858 8.04 11.004l5.132-1.823 1.595-4.221 4.22-4.048-1.085 4.503 2.225 4.45-4.503 5.817-7.584-0.683-6.27 3.364 1.593 2.224 10.948 0.457z" fill="#100f0d" fill-rule="evenodd"/><path d="m0 0s-1.822 8.096-16.816 6.045c0 0-16.134-1.823-17.675-12.317 0 0 4.503-11.461 16.361-13.002 0 0 7.813-0.858 8.04 11.004l5.132-1.823 1.595-4.221 4.22-4.048-1.085 4.503 2.225 4.45-4.503 5.817-7.584-0.683-6.27 3.364 1.593 2.224 10.948 0.457z" fill="none" stroke="#cecdcb" stroke-miterlimit="3.864" stroke-width=".336"/></g><g transform="translate(424.54 462.73)"><path d="m0 0 4.904-6.903s-1.085-8.779-13.399-4.959l-4.502 4.048s0.856 3.994 11.175 7.586z" fill="#fff" fill-rule="evenodd"/><path d="m0 0 4.904-6.903s-1.085-8.779-13.399-4.959l-4.502 4.048s0.856 3.994 11.175 7.586z" fill="none" stroke="#fff" stroke-miterlimit="3.864" stroke-width=".336"/></g><g transform="translate(401.5 482.04)"><path d="m0 0 4.503-6.902 1.996 1.313 17.675 4.732 0.455-5.362 0.456-2.051 2.452 1.823h2.451l-1.497 4.268-0.096 2.77 1.822 1.004 8.039 1.541-1.549 5.232-7.63-2.779-1.996 0.456-0.911 4.732-5.721-0.41 2.178-3.777 0.635-2.59-1.769-0.408z" fill="#100f0d" fill-rule="evenodd"/><path d="m0 0 4.503-6.902 1.996 1.313 17.675 4.732 0.455-5.362 0.456-2.051 2.452 1.823h2.451l-1.497 4.268-0.096 2.77 1.822 1.004 8.039 1.541-1.549 5.232-7.63-2.779-1.996 0.456-0.911 4.732-5.721-0.41 2.178-3.777 0.635-2.59-1.769-0.408z" fill="none" stroke="#cecdcb" stroke-miterlimit="3.864" stroke-width=".336"/></g><g transform="translate(411.13 494.36)"><path d="m0 0h1.313c0.228 0-1.085-1.77-1.313-1.77s-3.363 1.542-3.363 1.542l0.911 2.051 5.36 1.541h2.68l-0.456 4.276-11.859-4.503-3.135-2.909-3.993 1.769 1.769 6.501 4.274-0.228 11.175 4.731-0.911 3.365 1.996-2.279 2.908 0.455 1.367-4.221-0.455-5.416s2.224 1.824 2.679 1.367c0.456-0.455 0.456-1.541 0.456-1.541l-2.908-4.731-6.726 1.595-2.908-0.683-0.307-0.899 0.807-0.313z" fill="#100f0d" fill-rule="evenodd"/><path d="m0 0h1.313c0.228 0-1.085-1.77-1.313-1.77s-3.363 1.542-3.363 1.542l0.911 2.051 5.36 1.541h2.68l-0.456 4.276-11.859-4.503-3.135-2.909-3.993 1.769 1.769 6.501 4.274-0.228 11.175 4.731-0.911 3.365 1.996-2.279 2.908 0.455 1.367-4.221-0.455-5.416s2.224 1.824 2.679 1.367c0.456-0.455 0.456-1.541 0.456-1.541l-2.908-4.731-6.726 1.595-2.908-0.683-0.307-0.899 0.807-0.313z" fill="none" stroke="#cecdcb" stroke-miterlimit="3.864" stroke-width=".336"/></g><g transform="translate(409.94 531.76)"><path d="m0 0s-4.073-3.556-3.685-3.75c0.389-0.194 2.521-4.201 2.521-4.201l1.099-2.133-2.779-2.973-1.293 5.365-5.427 2.973-13.44-9.307 6.01-5.752-1.163-4.331 4.588-1.163 2.455-2.651-0.776 4.072 15.766 8.015 1.163 3.167s-0.064 2.649-0.259 2.649c-0.193 0-4.78 5.042-4.78 5.042l1.356 2.844z" fill="#100f0d" fill-rule="evenodd"/><path d="m0 0s-4.073-3.556-3.685-3.75c0.389-0.194 2.521-4.201 2.521-4.201l1.099-2.133-2.779-2.973-1.293 5.365-5.427 2.973-13.44-9.307 6.01-5.752-1.163-4.331 4.588-1.163 2.455-2.651-0.776 4.072 15.766 8.015 1.163 3.167s-0.064 2.649-0.259 2.649c-0.193 0-4.78 5.042-4.78 5.042l1.356 2.844z" fill="none" stroke="#cecdcb" stroke-miterlimit="3.864" stroke-width=".336"/></g><g transform="translate(392.73 514.79)"><path d="m0 0 3.488-1.228 6.786 2.521-0.454 3.231-3.295 0.065z" fill="#fff" fill-rule="evenodd"/><path d="m0 0 3.488-1.228 6.786 2.521-0.454 3.231-3.295 0.065z" fill="none" stroke="#fff" stroke-miterlimit="3.864" stroke-width=".336"/></g><g transform="translate(401.7 538.7)"><path d="m0 0h2.585l3.037-2.521s-5.815-12.151-23.197-9.953c0 0-4.071 1.162-2.197 4.783l12.599 12.022 0.648 2.197 5.815 0.258-0.323-5.363-3.684-1.1-9.95-9.177-0.582-1.875h6.333s9.11 7.95 9.239 8.144c0.13 0.193-0.323 2.585-0.323 2.585" fill="#100f0d" fill-rule="evenodd"/><path d="m0 0h2.585l3.037-2.521s-5.815-12.151-23.197-9.953c0 0-4.071 1.162-2.197 4.783l12.599 12.022 0.648 2.197 5.815 0.258-0.323-5.363-3.684-1.1-9.95-9.177-0.582-1.875h6.333s9.11 7.95 9.239 8.144c0.13 0.193-0.323 2.585-0.323 2.585z" fill="none" stroke="#cecdcb" stroke-miterlimit="3.864" stroke-width=".336"/></g><g transform="translate(399.24 551.31)"><path d="m0 0-3.425 5.494v1.81l3.554 2.844 4.006-4.525 2.649-1.68-2.389-2.198-2.327 0.776z" fill="#100f0d" fill-rule="evenodd"/><path d="m0 0-3.425 5.494v1.81l3.554 2.844 4.006-4.525 2.649-1.68-2.389-2.198-2.327 0.776z" fill="none" stroke="#cecdcb" stroke-miterlimit="3.864" stroke-width=".336"/></g><g transform="translate(390.52 555.19)"><path d="m0 0 4.652-1.035-0.517-5.428-2.584-0.454-11.114-9.694 0.129-2.521 1.291-0.711-4.522-0.646-3.684 5.688s-1.744 0.452-1.356 0.517c0.388 0.064 2.391 0.581 2.391 0.581l2.001 0.194z" fill="#100f0d" fill-rule="evenodd"/><path d="m0 0 4.652-1.035-0.517-5.428-2.584-0.454-11.114-9.694 0.129-2.521 1.291-0.711-4.522-0.646-3.684 5.688s-1.744 0.452-1.356 0.517c0.388 0.064 2.391 0.581 2.391 0.581l2.001 0.194z" fill="none" stroke="#cecdcb" stroke-miterlimit="3.864" stroke-width=".336"/></g><g transform="translate(377.5 544.03)"><path d="m0 0-7.302-1.292-1.745 5.557-5.491 0.518-0.324 4.136-3.295 0.129 0.711 2.78 2.455-1.486 11.502 14.153 7.625-0.064s2.518 9.308 9.562 9.567l-0.516 1.679 3.359-3.231-7.56-7.951-0.84-8.79-10.532-12.603z" fill="#100f0d" fill-rule="evenodd"/><path d="m0 0-7.302-1.292-1.745 5.557-5.491 0.518-0.324 4.136-3.295 0.129 0.711 2.78 2.455-1.486 11.502 14.153 7.625-0.064s2.518 9.308 9.562 9.567l-0.516 1.679 3.359-3.231-7.56-7.951-0.84-8.79-10.532-12.603z" fill="none" stroke="#cecdcb" stroke-miterlimit="3.864" stroke-width=".336"/></g><g transform="translate(367.55 551.08)"><path d="m0 0s1.293-1.68 1.938-1.551c0.647 0.13 3.813 1.875 3.813 1.875l6.85 9.824 0.452 3.942-2.521 0.971-10.144-14.026z" fill="#fff" fill-rule="evenodd"/><path d="m0 0s1.293-1.68 1.938-1.551c0.647 0.13 3.813 1.875 3.813 1.875l6.85 9.824 0.452 3.942-2.521 0.971-10.144-14.026z" fill="none" stroke="#fff" stroke-miterlimit="3.864" stroke-width=".336"/></g><g transform="translate(360.13 557.42)"><path d="m0 0c-0.129-0.13-3.109-2.262-3.109-2.262l-3.101 2.78s0.064 2.519 0.129 2.584c0.064 0.065 1.55 1.487 1.55 1.487l6.72 13.703-1.55 3.231-2.455-1.357-5.881-14.091s0.646-2.778 0.387-2.778c-0.258 0-4.393-0.583-4.393-0.583l-2.326 3.297s1.939 1.81 2.004 1.874c0.064 0.065 7.236 15.707 7.236 15.707l-2.392 0.129 0.777 1.938 6.396 0.906-0.387-3.039h7.237l1.164-4.136-8.595-16.934z" fill="#100f0d" fill-rule="evenodd"/><path d="m0 0c-0.129-0.13-3.109-2.262-3.109-2.262l-3.101 2.78s0.064 2.519 0.129 2.584c0.064 0.065 1.55 1.487 1.55 1.487l6.72 13.703-1.55 3.231-2.455-1.357-5.881-14.091s0.646-2.778 0.387-2.778c-0.258 0-4.393-0.583-4.393-0.583l-2.326 3.297s1.939 1.81 2.004 1.874c0.064 0.065 7.236 15.707 7.236 15.707l-2.392 0.129 0.777 1.938 6.396 0.906-0.387-3.039h7.237l1.164-4.136-8.595-16.934z" fill="none" stroke="#cecdcb" stroke-miterlimit="3.864" stroke-width=".336"/></g><g transform="translate(338.9 594.06)"><path d="m0 0v-4.589l1.422-0.517 4.199-1.81 0.13-4.266-1.938-0.969-2.584 4.783-4.525-3.103-5.104-12.668 4.071-4.395 4.651 0.97s0.907-3.361 1.035-3.361c0.129 0 2.714 0.064 2.714 0.064s4.523 1.615 4.329 1.81c-0.194 0.193-3.037 2.585-3.037 2.585l5.235 12.604s3.552 6.722-2.327 9.372l-4.912-0.517z" fill="#100f0d" fill-rule="evenodd"/><path d="m0 0v-4.589l1.422-0.517 4.199-1.81 0.13-4.266-1.938-0.969-2.584 4.783-4.525-3.103-5.104-12.668 4.071-4.395 4.651 0.97s0.907-3.361 1.035-3.361c0.129 0 2.714 0.064 2.714 0.064s4.523 1.615 4.329 1.81c-0.194 0.193-3.037 2.585-3.037 2.585l5.235 12.604s3.552 6.722-2.327 9.372l-4.912-0.517z" fill="none" stroke="#cecdcb" stroke-miterlimit="3.864" stroke-width=".336"/></g><g transform="translate(340.46 579.96)"><path d="m0 0c0.387-0.064 2.52-1.552 2.52-1.552l-3.102-8.338-1.034-1.679-2.261 1.615 1.809 1.616z" fill="#fff" fill-rule="evenodd"/><path d="m0 0c0.387-0.064 2.52-1.552 2.52-1.552l-3.102-8.338-1.034-1.679-2.261 1.615 1.809 1.616z" fill="none" stroke="#fff" stroke-miterlimit="3.864" stroke-width=".336"/></g><g transform="translate(337.8 607.98)"><path d="m0 0s-5.452-4.09-12.721 4.545l-5.361-10.998-7.724-3.818s-0.909-5.999-0.727-5.817c0.181 0.182 5.998 3.636 5.998 3.636s2.998-11.18 0.363-18.087l-2.636-1.273-0.454 1-3.271-2.909-0.363-3.545 1.726 1 5.361-0.545s8.087-6.453 12.267 0.364c0 0-6.179-3.999-7.542 2.817l-2.09-0.454 0.455 2.999s6.724 2.182 1.817 26.45l1.181 1.454 4.817-2.363s1.725-2.182 8.45 4.908z" fill="#100f0d" fill-rule="evenodd"/><path d="m0 0s-5.452-4.09-12.721 4.545l-5.361-10.998-7.724-3.818s-0.909-5.999-0.727-5.817c0.181 0.182 5.998 3.636 5.998 3.636s2.998-11.18 0.363-18.087l-2.636-1.273-0.454 1-3.271-2.909-0.363-3.545 1.726 1 5.361-0.545s8.087-6.453 12.267 0.364c0 0-6.179-3.999-7.542 2.817l-2.09-0.454 0.455 2.999s6.724 2.182 1.817 26.45l1.181 1.454 4.817-2.363s1.725-2.182 8.45 4.908z" fill="none" stroke="#cecdcb" stroke-miterlimit="3.864" stroke-width=".336"/></g><g transform="translate(301.37 603.71)"><path d="m0 0s0.273-24.995 0.546-25.268c0.272-0.273 1.908-1 1.908-1l1.636 1.818 2.09-1.363-1.909-0.091-3.543-5.363h-3.181l-2.635 2.363v29.54l-2.363 2.545 0.637 1.909 2.998 3.636 2.181 1.09 0.273-3.272 2.816-2.454z" fill="#100f0d" fill-rule="evenodd"/><path d="m0 0s0.273-24.995 0.546-25.268c0.272-0.273 1.908-1 1.908-1l1.636 1.818 2.09-1.363-1.909-0.091-3.543-5.363h-3.181l-2.635 2.363v29.54l-2.363 2.545 0.637 1.909 2.998 3.636 2.181 1.09 0.273-3.272 2.816-2.454z" fill="none" stroke="#cecdcb" stroke-miterlimit="3.864" stroke-width=".336"/></g><g transform="translate(287.1 581.44)"><path d="m0 0 6.543 15.633-7.906 0.091-2.544 1.364-4.089-4.817s4.725-20.542 0.908-23.178l2.09-0.545 0.092 1.908 5.088-1.727 6.724 8.271-4.816-3.817z" fill="#100f0d" fill-rule="evenodd"/><path d="m0 0 6.543 15.633-7.906 0.091-2.544 1.364-4.089-4.817s4.725-20.542 0.908-23.178l2.09-0.545 0.092 1.908 5.088-1.727 6.724 8.271-4.816-3.817z" fill="none" stroke="#cecdcb" stroke-miterlimit="3.864" stroke-width=".336"/></g><g transform="translate(286.83 584.98)"><path d="m0 0c-0.091-0.546 2.181 5.362 2.181 5.362l-1.727 1.182-1.999-0.636-0.999-2.454s2.635-2.909 2.544-3.454" fill="#fff" fill-rule="evenodd"/><path d="m0 0c-0.091-0.546 2.181 5.362 2.181 5.362l-1.727 1.182-1.999-0.636-0.999-2.454s2.635-2.909 2.544-3.454z" fill="none" stroke="#fff" stroke-miterlimit="3.864" stroke-width=".336"/></g><g transform="translate(279.92 572.98)"><path d="m0 0-1.726-4.09-2.181-0.727-4.543 0.273-2.09-3.636-4.18 1.636-4.089 11.907 0.999 4.726 6.362-0.091-1.091 3s-3.09 1.636-5.089-0.818l-3.543 1.363-0.273 2.636h2.09l3.362-1.636s1.999 4.271 2.636 4.362c0.635 0.091 5.997-2.545 5.997-2.545l-0.91-1.635 4.362-14.088z" fill="#100f0d" fill-rule="evenodd"/><path d="m0 0-1.726-4.09-2.181-0.727-4.543 0.273-2.09-3.636-4.18 1.636-4.089 11.907 0.999 4.726 6.362-0.091-1.091 3s-3.09 1.636-5.089-0.818l-3.543 1.363-0.273 2.636h2.09l3.362-1.636s1.999 4.271 2.636 4.362c0.635 0.091 5.997-2.545 5.997-2.545l-0.91-1.635 4.362-14.088z" fill="none" stroke="#100f0d" stroke-miterlimit="3.864" stroke-width=".336"/></g><g transform="translate(266.2 580.98)"><path d="m0 0c0.272-0.091 2.727-1.545 2.727-1.545s0.363-4.999 2.362-8.271 0 0 0-0.182-1.999-2.09-1.999-2.09-2.635 2.999-2.635 3.181c0 0.181-1.272 7.635-1.272 7.635z" fill="#fff" fill-rule="evenodd"/><path d="m0 0c0.272-0.091 2.727-1.545 2.727-1.545s0.363-4.999 2.362-8.271 0 0 0-0.182-1.999-2.09-1.999-2.09-2.635 2.999-2.635 3.181c0 0.181-1.272 7.635-1.272 7.635z" fill="none" stroke="#fff" stroke-miterlimit="3.864" stroke-width="1.166"/></g><g transform="translate(237.18 590.21)"><path d="m0 0 5.815-2.032 12.348-23.667-0.238-3.745 6.054-2.311 0.637 6.813-2.19 1.674-6.533 11.634 4.82-0.717-3.027 9.562-2.55-3.148-2.907 2.909-0.598 2.789 5.338 5.937v5.577l-5.457-4.582-5.697-0.756 0.24-3.985z" fill="#100f0d" fill-rule="evenodd"/><path d="m0 0 5.815-2.032 12.348-23.667-0.238-3.745 6.054-2.311 0.637 6.813-2.19 1.674-6.533 11.634 4.82-0.717-3.027 9.562-2.55-3.148-2.907 2.909-0.598 2.789 5.338 5.937v5.577l-5.457-4.582-5.697-0.756 0.24-3.985z" fill="none" stroke="#cecdcb" stroke-miterlimit="3.864" stroke-width=".336"/></g><g transform="translate(228 569.23)"><path d="m0 0 3.625-3.147 5.457 4.701 3.147-2.271-1.792-2.43-2.669 0.119s-2.669-2.43 0.836-8.487l5.098-6.773 0.598-2.191 5.815 0.239 0.359 5.339 4.142 0.119 1.075 6.176-2.668-0.478-9.202 14.423-5.576 1.554-1.832-5.817-4.222 0.478z" fill="#100f0d" fill-rule="evenodd"/><path d="m0 0 3.625-3.147 5.457 4.701 3.147-2.271-1.792-2.43-2.669 0.119s-2.669-2.43 0.836-8.487l5.098-6.773 0.598-2.191 5.815 0.239 0.359 5.339 4.142 0.119 1.075 6.176-2.668-0.478-9.202 14.423-5.576 1.554-1.832-5.817-4.222 0.478z" fill="none" stroke="#cecdcb" stroke-miterlimit="3.864" stroke-width=".336"/></g><g transform="translate(238.19 565.16)"><path d="m0 0s0.238-2.67 0.478-2.67c0.239 0 5.217-6.812 5.217-6.812l0.479-1.555 1.473 0.837-0.279 3.267-4.938 6.574z" fill="#fff" fill-rule="evenodd"/><path d="m0 0s0.238-2.67 0.478-2.67c0.239 0 5.217-6.812 5.217-6.812l0.479-1.555 1.473 0.837-0.279 3.267-4.938 6.574z" fill="none" stroke="#fff" stroke-miterlimit="3.864" stroke-width="1.166"/></g><g transform="translate(198.42 550.11)"><path d="m0 0 2.788 1.195 2.788 7.889 5.179 0.957 0.637 8.486s12.865 3.985 14.538-13.825l1.315-1.196s6.772 0.996 12.467-6.295l1.713-1.355 2.429 1.833-0.239-4.86-2.19-1.196s-5.457 0.279-9.201 5.459c0 0-2.43 3.387-8.604 0.837l7.767-7.651 7.25-0.836 1.712-1.076s-9.081-4.143-8.842-9.602l-2.43 7.291-19.637 17.571-8.484-5.1z" fill="#100f0d" fill-rule="evenodd"/><path d="m0 0 2.788 1.195 2.788 7.889 5.179 0.957 0.637 8.486s12.865 3.985 14.538-13.825l1.315-1.196s6.772 0.996 12.467-6.295l1.713-1.355 2.429 1.833-0.239-4.86-2.19-1.196s-5.457 0.279-9.201 5.459c0 0-2.43 3.387-8.604 0.837l7.767-7.651 7.25-0.836 1.712-1.076s-9.081-4.143-8.842-9.602l-2.43 7.291-19.637 17.571-8.484-5.1z" fill="none" stroke="#cecdcb" stroke-miterlimit="3.864" stroke-width=".336"/></g><g transform="translate(219.73 550.04)"><path d="m0 0s2.55-2.789 2.669 2.67c0 0-0.956 12.31-11.512 9.004 0 0-1.115-0.119 0.36-2.192l7.647-9.203z" fill="#fff" fill-rule="evenodd"/><path d="m0 0s2.55-2.789 2.669 2.67c0 0-0.956 12.31-11.512 9.004 0 0-1.115-0.119 0.36-2.192l7.647-9.203z" fill="none" stroke="#fff" stroke-miterlimit="3.864" stroke-width=".336"/></g><g transform="translate(185.7 532.51)"><path d="m0 0c0.398 0 3.664 0.876 3.664 0.876l6.533-4.263 9.679 2.55 9.958-6.773 3.863-0.478-0.836 2.908 3.266-0.996 1.952-6.414-6.572-3.626 1.473-5.817-4.022-1.714-13.901 9.085-0.996 3.785z" fill="#100f0d" fill-rule="evenodd"/><path d="m0 0c0.398 0 3.664 0.876 3.664 0.876l6.533-4.263 9.679 2.55 9.958-6.773 3.863-0.478-0.836 2.908 3.266-0.996 1.952-6.414-6.572-3.626 1.473-5.817-4.022-1.714-13.901 9.085-0.996 3.785z" fill="none" stroke="#cecdcb" stroke-miterlimit="3.864" stroke-width=".336"/></g><g transform="translate(200.93 523.92)"><path d="m0 0c0-0.239 11.152-7.889 11.152-7.889l4.103 0.24-0.956 2.549-9.957 6.893z" fill="#fff" fill-rule="evenodd"/><path d="m0 0c0-0.239 11.152-7.889 11.152-7.889l4.103 0.24-0.956 2.549-9.957 6.893z" fill="none" stroke="#fff" stroke-miterlimit="3.864" stroke-width=".336"/></g><g transform="translate(187.24 502.97)"><path d="m0 0 3.863-3.268 1.474 1.475s-0.358 1.912-0.119 1.912 2.052 2.192 2.052 2.192l-0.618 2.072 3.664-0.718-3.186-6.056 0.876-2.311s9.918-3.784 9.918-4.143 1.713-2.948 1.713-2.789 5.935 3.187 5.935 3.187l-1.474 6.176 3.027-0.12 1.713 2.391s-2.669 5.697-2.669 5.458-4.222-1.912-4.222-1.912l-12.387 7.251-5.577-1.554 1.832-6.932-1.952-1.196z" fill="#100f0d" fill-rule="evenodd"/><path d="m0 0 3.863-3.268 1.474 1.475s-0.358 1.912-0.119 1.912 2.052 2.192 2.052 2.192l-0.618 2.072 3.664-0.718-3.186-6.056 0.876-2.311s9.918-3.784 9.918-4.143 1.713-2.948 1.713-2.789 5.935 3.187 5.935 3.187l-1.474 6.176 3.027-0.12 1.713 2.391s-2.669 5.697-2.669 5.458-4.222-1.912-4.222-1.912l-12.387 7.251-5.577-1.554 1.832-6.932-1.952-1.196z" fill="none" stroke="#cecdcb" stroke-miterlimit="3.864" stroke-width=".336"/></g><g transform="translate(200.13 501.74)"><path d="m0 0 0.398 4.463 7.249-3.865 1.833-2.072-1.952-2.151z" fill="#fff" fill-rule="evenodd"/><path d="m0 0 0.398 4.463 7.249-3.865 1.833-2.072-1.952-2.151z" fill="none" stroke="#fff" stroke-miterlimit="3.864" stroke-width=".336"/></g><g transform="translate(172.71 492.18)"><path d="m0 0 1.194-5.459 10.675-3.028 2.55-4.741 8.006-4.382s5.815 0 5.696-0.24c-0.12-0.239 4.819-4.463 4.819-4.463l-0.956 4.344s2.55 3.306 2.311 3.306-1.713 5.181-1.713 5.181 4.103 3.027 3.863 3.027c-0.238 0-1.872 4.383-2.508 4.264-0.638-0.121-3.785-1.116-3.785-1.116s-12.467 3.904-12.706 3.785c-0.239-0.12-6.771-3.267-6.771-3.267l-7.17-0.279z" fill="#100f0d" fill-rule="evenodd"/><path d="m0 0 1.194-5.459 10.675-3.028 2.55-4.741 8.006-4.382s5.815 0 5.696-0.24c-0.12-0.239 4.819-4.463 4.819-4.463l-0.956 4.344s2.55 3.306 2.311 3.306-1.713 5.181-1.713 5.181 4.103 3.027 3.863 3.027c-0.238 0-1.872 4.383-2.508 4.264-0.638-0.121-3.785-1.116-3.785-1.116s-12.467 3.904-12.706 3.785c-0.239-0.12-6.771-3.267-6.771-3.267l-7.17-0.279z" fill="none" stroke="#cecdcb" stroke-miterlimit="3.864" stroke-width=".336"/></g><g transform="translate(185.41 484.41)"><path d="m0 0c0.637 0.239 4.501 2.071 4.501 2.071l13.185-3.625 0.636-2.909-3.903-1.474-11.512 2.909z" fill="#fff" fill-rule="evenodd"/><path d="m0 0c0.637 0.239 4.501 2.071 4.501 2.071l13.185-3.625 0.636-2.909-3.903-1.474-11.512 2.909z" fill="none" stroke="#fff" stroke-miterlimit="3.864" stroke-width=".336"/></g><g transform="translate(176.95 466.14)"><path d="m0 0c0.159 0.12 4.143 3.865 4.143 3.865s-4.86 4.343-5.218 4.223c-0.359-0.119-2.43-0.836-2.43-0.836l0.479-2.67z" fill="#100f0d" fill-rule="evenodd"/><path d="m0 0c0.159 0.12 4.143 3.865 4.143 3.865s-4.86 4.343-5.218 4.223c-0.359-0.119-2.43-0.836-2.43-0.836l0.479-2.67z" fill="none" stroke="#cecdcb" stroke-miterlimit="3.864" stroke-width=".336"/></g><g transform="translate(180.98 467.22)"><path d="m0 0 4.979 3.387 2.509-2.311 13.224-1.434 1.952 1.195 2.151-3.387-3.266-2.908-1.435 1.234s-12.028 0.598-12.386 0.598c-0.359 0-4.342-0.717-4.342-0.717z" fill="#100f0d" fill-rule="evenodd"/><path d="m0 0 4.979 3.387 2.509-2.311 13.224-1.434 1.952 1.195 2.151-3.387-3.266-2.908-1.435 1.234s-12.028 0.598-12.386 0.598c-0.359 0-4.342-0.717-4.342-0.717z" fill="none" stroke="#cecdcb" stroke-miterlimit="3.864" stroke-width=".336"/></g><g transform="translate(189.78 453.12)"><path d="m0 0-6.279 5.457-0.172 2.073-0.536 0.459-2.214-13.089s3.027-3.864 3.266-4.223c0.24-0.359 10.158-1.196 10.158-1.196l-0.598 5.3 8.723-8.089 0.996 0.957 1.793-1.196-1.554 3.506 1.194 5.579-4.859 8.964-9.679 0.956z" fill="#100f0d" fill-rule="evenodd"/><path d="m0 0-6.279 5.457-0.172 2.073-0.536 0.459-2.214-13.089s3.027-3.864 3.266-4.223c0.24-0.359 10.158-1.196 10.158-1.196l-0.598 5.3 8.723-8.089 0.996 0.957 1.793-1.196-1.554 3.506 1.194 5.579-4.859 8.964-9.679 0.956z" fill="none" stroke="#cecdcb" stroke-miterlimit="3.864" stroke-width=".336"/></g><g transform="translate(191.65 449.13)"><path d="m0 0-5.992 5.411-0.779-5.76 4.859-0.757 1.912 0.638z" fill="#fff" fill-rule="evenodd"/><path d="m0 0-5.992 5.411-0.779-5.76 4.859-0.757 1.912 0.638z" fill="none" stroke="#fff" stroke-miterlimit="3.864" stroke-width=".336"/></g><g transform="translate(193.61 450.53)"><path d="m0 0 5.936-5.817 1.473 5.1-1.115 2.071z" fill="#fff" fill-rule="evenodd"/><path d="m0 0 5.936-5.817 1.473 5.1-1.115 2.071z" fill="none" stroke="#fff" stroke-miterlimit="3.864" stroke-width=".336"/></g><g transform="translate(185.95 423.83)"><path d="m0 0-5.099 5.1 2.311 4.342-3.027 4.503 4.939 3.865s4.381-3.985 4.62-3.985 3.506-0.239 3.506-0.239 0.836 1.913 0.956 1.793c0.119-0.119 1.115-0.239 1.115-0.239l-1.474-3.147-3.744 0.119-2.668 2.072-2.43-3.626 2.668-2.311 9.44 0.717s2.55 3.148 2.311 3.148 6.054-3.984 6.054-3.984l-3.266-4.861-3.983 0.239-10.915-0.359z" fill="#100f0d" fill-rule="evenodd"/><path d="m0 0-5.099 5.1 2.311 4.342-3.027 4.503 4.939 3.865s4.381-3.985 4.62-3.985 3.506-0.239 3.506-0.239 0.836 1.913 0.956 1.793c0.119-0.119 1.115-0.239 1.115-0.239l-1.474-3.147-3.744 0.119-2.668 2.072-2.43-3.626 2.668-2.311 9.44 0.717s2.55 3.148 2.311 3.148 6.054-3.984 6.054-3.984l-3.266-4.861-3.983 0.239-10.915-0.359z" fill="none" stroke="#cecdcb" stroke-miterlimit="3.864" stroke-width=".336"/></g><g transform="translate(200.81 425.81)"><path d="m0 0v-3.267l3.267-3.904-1.832-2.789-3.625-0.12-14.778 6.933 0.119-12.511 3.506-3.984 2.668 2.55 14.061 2.191 5.577-2.55-3.148 3.626 2.033 3.865-5.816 6.215 0.119 2.152z" fill="#100f0d" fill-rule="evenodd"/><path d="m0 0v-3.267l3.267-3.904-1.832-2.789-3.625-0.12-14.778 6.933 0.119-12.511 3.506-3.984 2.668 2.55 14.061 2.191 5.577-2.55-3.148 3.626 2.033 3.865-5.816 6.215 0.119 2.152z" fill="none" stroke="#cecdcb" stroke-miterlimit="3.864" stroke-width=".336"/></g><g transform="translate(188.06 419.55)"><path d="m0 0 6.792-3.745-4.601-2.072-1.832 0.478z" fill="#fff" fill-rule="evenodd"/><path d="m0 0 6.792-3.745-4.601-2.072-1.832 0.478z" fill="none" stroke="#fff" stroke-miterlimit="3.864" stroke-width=".336"/></g><g transform="translate(188.7 403.23)"><path d="m0 0-3.506-4.224 5.338-3.426 13.105 7.171s2.509-0.996 2.509-1.234c0-0.24-0.717-3.865-0.717-3.865l-9.202-3.626-4.341 0.598-2.31-7.013 4.819-1.832 3.187 3.506 10.157 4.741 4.62-0.718-3.664 3.149 1.952 6.175-6.771 3.984-12.746-5.219z" fill="#100f0d" fill-rule="evenodd"/><path d="m0 0-3.506-4.224 5.338-3.426 13.105 7.171s2.509-0.996 2.509-1.234c0-0.24-0.717-3.865-0.717-3.865l-9.202-3.626-4.341 0.598-2.31-7.013 4.819-1.832 3.187 3.506 10.157 4.741 4.62-0.718-3.664 3.149 1.952 6.175-6.771 3.984-12.746-5.219z" fill="none" stroke="#cecdcb" stroke-miterlimit="3.864" stroke-width=".336"/></g><g transform="translate(183.76 379.6)"><path d="m0 0h7.249l0.239-6.295-2.27-0.239z" fill="#100f0d" fill-rule="evenodd"/><path d="m0 0h7.249l0.239-6.295-2.27-0.239z" fill="none" stroke="#cecdcb" stroke-miterlimit="3.864" stroke-width=".336"/></g><g transform="translate(193.2 376.33)"><path d="m0 0 6.293-3.745 0.996 3.626 13.065 7.49 4.102-0.717-1.792 5.578-6.294 2.192 1.195-2.909-11.391-5.578-3.625 0.717z" fill="#100f0d" fill-rule="evenodd"/><path d="m0 0 6.293-3.745 0.996 3.626 13.065 7.49 4.102-0.717-1.792 5.578-6.294 2.192 1.195-2.909-11.391-5.578-3.625 0.717z" fill="none" stroke="#cecdcb" stroke-miterlimit="3.864" stroke-width=".336"/></g><g transform="translate(214.27 382.27)"><path d="m0 0 5.815-2.669-0.956-4.861-3.265-1.196-12.468-9.323 3.863-1.952 12.229 8.248 0.478 3.267 4.143-1.833 0.477-3.506 3.028-1.196-3.865-0.636-14.538-9.085-0.278-3.387-5.656 2.072 0.358 5.818-5.576 2.789 1.792 5.219 3.267 0.478 11.033 8.486z" fill="#100f0d" fill-rule="evenodd"/><path d="m0 0 5.815-2.669-0.956-4.861-3.265-1.196-12.468-9.323 3.863-1.952 12.229 8.248 0.478 3.267 4.143-1.833 0.477-3.506 3.028-1.196-3.865-0.636-14.538-9.085-0.278-3.387-5.656 2.072 0.358 5.818-5.576 2.789 1.792 5.219 3.267 0.478 11.033 8.486z" fill="none" stroke="#cecdcb" stroke-miterlimit="3.864" stroke-width=".336"/></g><g transform="translate(222.64 360.92)"><path d="m0 0 8.962-2.271 0.876-7.65 4.939-1.674-4.7-0.876-11.989-9.681 4.102-4.383-0.956-1.793-7.886 3.745-4.501-4.104 1.473-3.785-5.934-0.119 0.956 7.889 19.517 15.02-0.837 5.339h-1.592l-18.642-13.586-1.234-3.267s-6.174 0.319-6.174 0.597c0 0.28 0.598 6.455 0.598 6.455l4.141 0.239z" fill="#100f0d" fill-rule="evenodd"/><path d="m0 0 8.962-2.271 0.876-7.65 4.939-1.674-4.7-0.876-11.989-9.681 4.102-4.383-0.956-1.793-7.886 3.745-4.501-4.104 1.473-3.785-5.934-0.119 0.956 7.889 19.517 15.02-0.837 5.339h-1.592l-18.642-13.586-1.234-3.267s-6.174 0.319-6.174 0.597c0 0.28 0.598 6.455 0.598 6.455l4.141 0.239z" fill="none" stroke="#cecdcb" stroke-miterlimit="3.864" stroke-width=".336"/></g><g transform="translate(231.6 312.35)"><path d="m0 0-5.815-6.056 4.74-3.507 4.858 7.372s3.984-4.462 4.462-4.343 2.31 3.267 2.31 3.267l2.191 0.717-5.696 4.343s16.809 20.399 16.57 20.758c-0.239 0.358-6.055 4.702-6.055 4.702s-13.782-21.994-13.782-22.153c0-0.16-5.218 4.94-5.218 4.94l-1.234-1.912-2.151-2.072 5.418-5.219z" fill="#100f0d" fill-rule="evenodd"/><path d="m0 0-5.815-6.056 4.74-3.507 4.858 7.372s3.984-4.462 4.462-4.343 2.31 3.267 2.31 3.267l2.191 0.717-5.696 4.343s16.809 20.399 16.57 20.758c-0.239 0.358-6.055 4.702-6.055 4.702s-13.782-21.994-13.782-22.153c0-0.16-5.218 4.94-5.218 4.94l-1.234-1.912-2.151-2.072 5.418-5.219z" fill="none" stroke="#cecdcb" stroke-miterlimit="3.864" stroke-width=".336"/></g><g transform="translate(261.55 308.84)"><path d="m0 0-3.784 3.267 0.996 7.491 3.744 1.234 4.342-3.904-0.956-4.821z" fill="#100f0d" fill-rule="evenodd"/><path d="m0 0-3.784 3.267 0.996 7.491 3.744 1.234 4.342-3.904-0.956-4.821z" fill="none" stroke="#cecdcb" stroke-miterlimit="3.864" stroke-width=".336"/></g><g transform="translate(286.39 522.17)"><path d="m0 0h1.792s0.193 1.486-0.969 1.486c0 0-0.823 0.048-0.823-1.102z" fill="#fff" fill-rule="evenodd"/><path d="m0 0h1.792s0.193 1.486-0.969 1.486c0 0-0.823 0.048-0.823-1.102z" fill="none" stroke="#fff" stroke-miterlimit="3.864" stroke-width=".122"/></g><g transform="translate(283.78 522.18)"><path d="m0 0h1.792s0.194 1.486-0.969 1.486c0 0-0.823 0.048-0.823-1.103z" fill="#fff" fill-rule="evenodd"/><path d="m0 0h1.792s0.194 1.486-0.969 1.486c0 0-0.823 0.048-0.823-1.103z" fill="none" stroke="#fff" stroke-miterlimit="3.864" stroke-width=".122"/></g><g transform="translate(281.17 522.18)"><path d="m0 0h1.792s0.193 1.486-0.969 1.486c0 0-0.823 0.048-0.823-1.102z" fill="#fff" fill-rule="evenodd"/><path d="m0 0h1.792s0.193 1.486-0.969 1.486c0 0-0.823 0.048-0.823-1.102z" fill="none" stroke="#fff" stroke-miterlimit="3.864" stroke-width=".122"/></g><g transform="translate(278.56 522.19)"><path d="m0 0h1.793s0.193 1.486-0.969 1.486c0 0-0.824 0.048-0.824-1.103z" fill="#fff" fill-rule="evenodd"/><path d="m0 0h1.793s0.193 1.486-0.969 1.486c0 0-0.824 0.048-0.824-1.103z" fill="none" stroke="#fff" stroke-miterlimit="3.864" stroke-width=".122"/></g><g transform="translate(275.65 522.19)"><path d="m0 0h1.792s0.193 1.486-0.969 1.486c0 0-0.823 0.048-0.823-1.103z" fill="#fff" fill-rule="evenodd"/><path d="m0 0h1.792s0.193 1.486-0.969 1.486c0 0-0.823 0.048-0.823-1.103z" fill="none" stroke="#fff" stroke-miterlimit="3.864" stroke-width=".122"/></g><g transform="translate(272.74 522.2)"><path d="m0 0h1.791s0.194 1.486-0.968 1.486c0 0-0.823 0.048-0.823-1.103z" fill="#fff" fill-rule="evenodd"/><path d="m0 0h1.791s0.194 1.486-0.968 1.486c0 0-0.823 0.048-0.823-1.103z" fill="none" stroke="#fff" stroke-miterlimit="3.864" stroke-width=".122"/></g><g transform="translate(270.13 522.2)"><path d="m0 0h1.792s0.194 1.486-0.969 1.486c0 0-0.823 0.048-0.823-1.103z" fill="#fff" fill-rule="evenodd"/><path d="m0 0h1.792s0.194 1.486-0.969 1.486c0 0-0.823 0.048-0.823-1.103z" fill="none" stroke="#fff" stroke-miterlimit="3.864" stroke-width=".122"/></g><g transform="translate(295.4 517.29)"><path d="m0 0 2.733-2.059s-1.225-1.357-1.596-0.039c0 0-1.3-0.889-0.942 0.542 0 0-1.558 0.39-0.5 1.455 1.059 1.065 0.305 0.101 0.305 0.101" fill="#fff" fill-rule="evenodd"/><path d="m0 0 2.733-2.059s-1.225-1.357-1.596-0.039c0 0-1.3-0.889-0.942 0.542 0 0-1.558 0.39-0.5 1.455 1.059 1.065 0.305 0.101 0.305 0.101z" fill="none" stroke="#fff" stroke-miterlimit="3.864" stroke-width=".625"/></g><g transform="translate(296.47 518.82)"><path d="m0 0 2.68-2.127s1.035 1.505-0.348 1.543c0 0 0.558 1.463-0.759 0.772 0 0-0.76 1.403-1.548 0.129s-0.025-0.317-0.025-0.317" fill="#fff" fill-rule="evenodd"/><path d="m0 0 2.68-2.127s1.035 1.505-0.348 1.543c0 0 0.558 1.463-0.759 0.772 0 0-0.76 1.403-1.548 0.129s-0.025-0.317-0.025-0.317z" fill="none" stroke="#fff" stroke-miterlimit="3.864" stroke-width=".625"/></g><g transform="translate(373.25 426.82)"><path d="m0 0-2.295 10.013" fill="none" stroke="#fff" stroke-miterlimit="3.864" stroke-width="1.223"/></g><g transform="translate(347.87 426.25)"><path d="m0 0 2.754 10.013" fill="none" stroke="#fff" stroke-miterlimit="3.864" stroke-width="1.223"/></g><g transform="translate(352.72 445.93)"><path d="m0 0v-8.797" fill="none" stroke="#fff" stroke-miterlimit="3.864" stroke-width="1.223"/></g><g transform="translate(364.07 446.24)"><path d="m0 0v-9.405" fill="none" stroke="#d01e25" stroke-miterlimit="3.864" stroke-width="1.223"/></g><g transform="translate(358.7 453.52)"><path d="m0 0v-7.278" fill="none" stroke="#d01e25" stroke-miterlimit="3.864" stroke-width="1.223"/></g><g transform="translate(366.98 452.91)"><path d="m0 0v-6.063" fill="none" stroke="#d01e25" stroke-miterlimit="3.864" stroke-width="1.223"/></g><g transform="translate(343.84 467.35)"><path d="m0 0h32.034" fill="none" stroke="#d01e25" stroke-miterlimit="3.864"/></g><g transform="translate(360.52 467.02)"><path d="m0 0v-13.197" fill="none" stroke="#fff" stroke-miterlimit="3.864" stroke-width="1.804"/></g><g transform="translate(351.38 466.94)"><path d="m0 0 4.455-13.196" fill="none" stroke="#d01e25" stroke-miterlimit="3.864" stroke-width="1.804"/></g><g transform="translate(368.97 467)"><path d="m0 0-3.861-13.196" fill="none" stroke="#d01e25" stroke-miterlimit="3.864" stroke-width="1.804"/></g><g transform="translate(160.38 445.96)"><path d="m0 0c0 97.72 64.886 176.94 144.93 176.94 80.043 0 144.93-79.216 144.93-176.94s-64.885-176.94-144.93-176.94c-80.044 0-144.93 79.216-144.93 176.94z" fill="none" stroke="#100f0d" stroke-miterlimit="3.864" stroke-width="5.894"/></g><g transform="translate(219.78 445.96)"><path d="m0 0c0 62.008 38.293 112.28 85.532 112.28s85.532-50.267 85.532-112.28-38.293-112.28-85.532-112.28-85.532 50.268-85.532 112.28z" fill="none" stroke="#100f0d" stroke-miterlimit="3.864" stroke-width="4.85"/></g><g transform="translate(291.58 507.4)"><path d="m0 0s-7.848-14.308-19.936-16.866l0.929-27.909s11.159-7.567 9.194-17.278c0 0 2.477-5.928-12.088-24.126 0 0 3.823-15.64 17.459-19.424 0 0 2.274-0.612 4.752-5.315 0 0 2.477-2.251 6.299-3.784 0 0 1.965-0.612 3.204-4.702l4.132-4.09 5.062 4.703s0 2.557 1.549 3.784c0 0 4.024 1.332 5.68 4.089 0 0 1.036 3.17 6.717 4.703 0 0 14.874 5.315 16.422 20.649 0 0-14.147 9.098-12.29 23.819 0 0-1.857 12.269 9.813 16.359l-0.726 28.522s-14.768 4.29-18.59 17.479c0 0-2.894-7.154-12.707-7.154 0 0-7.956-1.945-13.946 5.622z" fill="none" stroke="#100f0d" stroke-miterlimit="3.864" stroke-width="2.405"/></g><g transform="translate(309.03 490.33)"><path d="m0 0s0.408 4.042-3.936 4.042c0 0-3.526-0.148-3.526-3.638 0 0-0.797-5.494 3.955-5.494 0.093 0 3.639-0.023 3.639 4.702z" fill="#100f0d" fill-rule="evenodd"/><path d="m0 0s0.408 4.042-3.936 4.042c0 0-3.526-0.148-3.526-3.638 0 0-0.797-5.494 3.955-5.494 0.093 0 3.639-0.023 3.639 4.702z" fill="none" stroke="#100f0d" stroke-miterlimit="3.864" stroke-width=".625"/></g><g transform="translate(292.46 489.95)"><path d="m0 0h25.915" fill="none" stroke="#100f0d" stroke-miterlimit="3.864"/></g><g transform="translate(305.32 497.2)"><path d="m0 0v-15.209" fill="none" stroke="#100f0d" stroke-miterlimit="3.864"/></g><g transform="translate(301.79 482.21)"><path d="m0 0 3.824 7.18 3.824-6.171-4.139 6.4-0.111 0.172-0.038 0.058-5.887 8.487 6.351-8.189 7.348 8.465" fill="none" stroke="#100f0d" stroke-miterlimit="3.864"/></g><g transform="translate(294.33 494.55)"><path d="m0 0 8.206-3.854" fill="none" stroke="#100f0d" stroke-miterlimit="3.864"/></g><g transform="translate(316.14 493.91)"><path d="m0 0-10.802-4.335" fill="none" stroke="#100f0d" stroke-miterlimit="3.864"/></g><g transform="translate(308.59 487.93)"><path d="m0 0 5.309-3.693" fill="none" stroke="#100f0d" stroke-miterlimit="3.864"/></g><g transform="translate(297.88 486.82)"><path d="m0 0 7.371 2.661-5.123-4.703" fill="none" stroke="#100f0d" stroke-miterlimit="3.864"/></g><g transform="translate(298.62 475.84)"><path d="m0 0c0.092 0.023 2.155 6.469-2.875 6.469 0 0-4.774-0.069-2.619-6.446h-1.855s0.093 2.386-4.751 2.661c0 0-4.961 0.092-6.629-0.092-1.669-0.183-2.596-0.458-2.596-0.458s3.917-2.134 4.845-4.061c0 0 1.853-2.408 5.4-3.234 0 0 3.824-0.528 5.215-3.946 0 0 0.673-2.133 7.001-3.234 0 0 8.46 0.367 17.314 0.458l2.527-0.091s-3.024 1.386-5.348 2.412c-0.049 0.022-0.098 0.044-0.146 0.065-2.34 1.032 9.874 0.574 11.173 0.665 0 0 1.576 0.367 2.039 1.652l-0.463 0.367s-2.804-1.858-4.102 0.642c0 0 3.94 2.753 6.907 0.459 0 0 1.229-0.665 4.195 0.275l-0.092 0.459s-1.6 0.023-3.269 0.665c0 0-1.367 2.386-6.976 1.193 0 0-3.246-2.133-4.752-2.225 0 0 3.592 2.042 4.357 3.051 0 0 2.226 2.11 9.133 2.202 0 0 1.298-0.068-0.093 0.574 0 0-7.927 2.179-15.46-5.276 0 0-0.07-0.275-1.855-0.643 0 0-1.113-0.917-8.577-0.55l-0.462 0.091s6.536 3.304 13.883 10.599c0 0 1.878 1.605-0.555 0.482 0 0-1.484-2.317-4.66-1.859h-7.371s-0.857 0.574-3.639-1.468c0 0-0.927-1.766-2.225-2.225l-2.805-0.091s0.093 0.436 0.186 0.458" fill="#100f0d" fill-rule="evenodd"/><path d="m0 0c0.092 0.023 2.155 6.469-2.875 6.469 0 0-4.774-0.069-2.619-6.446h-1.855s0.093 2.386-4.751 2.661c0 0-4.961 0.092-6.629-0.092-1.669-0.183-2.596-0.458-2.596-0.458s3.917-2.134 4.845-4.061c0 0 1.853-2.408 5.4-3.234 0 0 3.824-0.528 5.215-3.946 0 0 0.673-2.133 7.001-3.234 0 0 8.46 0.367 17.314 0.458l2.527-0.091s-3.024 1.386-5.348 2.412c-0.049 0.022-0.098 0.044-0.146 0.065-2.34 1.032 9.874 0.574 11.173 0.665 0 0 1.576 0.367 2.039 1.652l-0.463 0.367s-2.804-1.858-4.102 0.642c0 0 3.94 2.753 6.907 0.459 0 0 1.229-0.665 4.195 0.275l-0.092 0.459s-1.6 0.023-3.269 0.665c0 0-1.367 2.386-6.976 1.193 0 0-3.246-2.133-4.752-2.225 0 0 3.592 2.042 4.357 3.051 0 0 2.226 2.11 9.133 2.202 0 0 1.298-0.068-0.093 0.574 0 0-7.927 2.179-15.46-5.276 0 0-0.07-0.275-1.855-0.643 0 0-1.113-0.917-8.577-0.55l-0.462 0.091s6.536 3.304 13.883 10.599c0 0 1.878 1.605-0.555 0.482 0 0-1.484-2.317-4.66-1.859h-7.371s-0.857 0.574-3.639-1.468c0 0-0.927-1.766-2.225-2.225l-2.805-0.091s0.093 0.436 0.186 0.458z" fill="none" stroke="#100f0d" stroke-miterlimit="3.864" stroke-width=".507"/></g><g transform="translate(288.42 452.04)"><path d="m0 0c0 1.057 1.726 1.914 3.854 1.914 2.129 0 3.856-0.857 3.856-1.914s-1.727-1.914-3.856-1.914c-2.128 0-3.854 0.857-3.854 1.914" fill="#fff" fill-rule="evenodd"/><path d="m0 0c0 1.057 1.726 1.914 3.854 1.914 2.129 0 3.856-0.857 3.856-1.914s-1.727-1.914-3.856-1.914c-2.128 0-3.854 0.857-3.854 1.914z" fill="none" stroke="#fff" stroke-miterlimit="3.864" stroke-width=".625"/></g><g transform="translate(301.02 413.13)"><path d="m0 0c-0.228-0.225-9.731 0.477-11.096-3.577" fill="none" stroke="#100f0d" stroke-miterlimit="3.864" stroke-width=".625"/></g><g transform="translate(317.52 408.42)"><path d="m0 0c-0.455 0-11.097-1.126-11.097-1.126l11.097-0.901z" fill="#100f0d" fill-rule="evenodd"/><path d="m0 0c-0.455 0-11.097-1.126-11.097-1.126l11.097-0.901z" fill="none" stroke="#100f0d" stroke-miterlimit="3.864" stroke-width=".625"/></g><g transform="translate(313.68 405.07)"><path d="m0 0h-15.394l-1.794-1.126 17.188-0.676z" fill="#100f0d" fill-rule="evenodd"/><path d="m0 0h-15.394l-1.794-1.126 17.188-0.676z" fill="none" stroke="#100f0d" stroke-miterlimit="3.864" stroke-width=".507"/></g><g transform="translate(305.77 427.23)"><path d="m0 0s-8.366 15.008-8.139 23.288c0 0 0 4.253-5.434 4.253 0 0-4.98 1.125-5.206-4.703 0 0-0.683-19.261-14.484-28.216 0 0 3.413-5.803 3.186-7.604 0 0 0-2.226 2.704-4.703 0 0 13.774-8.08 16.504-12.557 0 0 2.074-1.55 4.096-2.001 0 0 3.159-1.151 3.614-3.828l2.476-2.451 3.413 2.451s-0.227 2.928 3.614 3.603c0 0 1.34 0.225 2.932 3.352l2.275 1.125s1.365 2.001 4.524 2.902c0 0 14.509 8.054 15.165 18.36 0 0-13.117 11.181-14.482 31.792 0 0-1.138 2.928-5.434 2.928 0 0-4.752 0.9-5.662-3.803 0 0 1.592-14.107-4.979-24.413z" fill="#100f0d" fill-rule="evenodd"/></g><g transform="translate(281.59 413.33)"><path d="m0 0 2.73 3.126h29.395l4.095-2.451s1.795 1.325 1.795 1.551c0 0.225 6.116 0 6.116 0s-1.138-3.802-6.345-4.253c0 0-3.867-4.702-5.661-5.378 0 0-2.021-1.126-1.794-4.928 0 0-1.82-1.801-1.365-4.252l-7.456-0.901s-1.138 6.279-0.683 6.279-5.662-2.001-6.8 1.577c0 0-1.111 2.199-2.931 1.549 0 0 0 2.477-5.206 2.477 0 0 2.249 5.153-4.98 4.253z" fill="#fff" fill-rule="evenodd"/><path d="m0 0 2.73 3.126h29.395l4.095-2.451s1.795 1.325 1.795 1.551c0 0.225 6.116 0 6.116 0s-1.138-3.802-6.345-4.253c0 0-3.867-4.702-5.661-5.378 0 0-2.021-1.126-1.794-4.928 0 0-1.82-1.801-1.365-4.252l-7.456-0.901s-1.138 6.279-0.683 6.279-5.662-2.001-6.8 1.577c0 0-1.111 2.199-2.931 1.549 0 0 0 2.477-5.206 2.477 0 0 2.249 5.153-4.98 4.253z" fill="none" stroke="#fff" stroke-miterlimit="3.864" stroke-width=".625"/></g><g transform="translate(269.65 457.57)"><path d="m0 0s4.328-6.48-5.517-16.631c0 0-2.243-0.792 0.413-3.647 0 0 6.135-2.04 6.959 5.459 0 0-1.831 9.767 2.061 10.967 0 0 6.754 0.385 2.243-6.299l-3.995 0.103s2.451 3.954 3.996 4.055c0 0-1.731 2.121-2.863 0 0 0-1.732-2.324-0.309-7.907 0 0 1.833-7.011-5.642-9.233 0 0 1.029-1.426 0-3.75 0 0-0.29-1.815 1.75-2.222 0 0 2.451-0.631-1.133-3.362l-0.206-3.343s2.779-0.204 0.514-3.037c0 0-3.396-2.038-6.671-1.631 0 0-1.701 1.981-0.17 2.427 0.021 7e-3 0.044 0.012 0.067 0.018 1.648 0.408 4.304 0.389 4.304 1.408s-0.103 1.936 0 1.833c0.103-0.101-1.627 1-2.142 3.242l-1.441 0.305-1.937-0.204s-1.441 0.593-0.927-1.018l-0.206-2.222s1.75-2.344 1.75-2.242 1.236-2.222-1.131-2.426l-4.202-0.204-4.715 0.103s0.697 1.362-0.457 2.667c-0.019 0.021-0.039 0.042-0.059 0.064-1.191 1.277-0.162 1.779 1.281 0.642 0.053-0.042 0.107-0.086 0.16-0.133 1.526-1.305 4.51-0.611 4.51-0.611s1.133-0.185 0.618 1.936c0 0-1.338 5.87-2.573 6.481l-1.235 1.121s-1.937 3.547 1.338 4.26c0 0 2.162 0.592 1.132 3.139l-0.514 3.056s-1.544 0.49-1.442 2.121l-2.759-2.427s2.347-3.139-1.545-4.565c0 0-3.892-0.306-2.451 3.75l2.554 3.038s3.397 2.343 3.192 2.343c-0.206 0-0.104 2.629-0.104 2.629s-2.265-0.305-1.75 3.751l-1.029 4.565s0.534 2.445-1.937 2.445c0 0-6.053-2.343-5.848 2.426 0 0-1.132 3.852 4.819 3.037 0 0 3.172-1.509 3.48-3.037 0 0 3.103-0.099 2.302-5.064-0.012-0.07-0.024-0.142-0.037-0.215-0.927-5.176-0.206-3.954-0.206-3.954s-0.533-1.731 0.907-1.222l1.236 2.241s-0.926 4.769 4.51 3.954l2.161 1.732s0.515 3.343-1.029 3.038c0 0-2.657 1.407-4.304-1.223l0.514 1.426-1.338-0.611 0.309 1.018-0.514 1.102s-2.452 0.528 0.514 2.853c0 0 7.863 6.812 13.015 1.712 0.104-0.101 1.957-1.509 1.339-9.519z" fill="#100f0d" fill-rule="evenodd"/><path d="m0 0s4.328-6.48-5.517-16.631c0 0-2.243-0.792 0.413-3.647 0 0 6.135-2.04 6.959 5.459 0 0-1.831 9.767 2.061 10.967 0 0 6.754 0.385 2.243-6.299l-3.995 0.103s2.451 3.954 3.996 4.055c0 0-1.731 2.121-2.863 0 0 0-1.732-2.324-0.309-7.907 0 0 1.833-7.011-5.642-9.233 0 0 1.029-1.426 0-3.75 0 0-0.29-1.815 1.75-2.222 0 0 2.451-0.631-1.133-3.362l-0.206-3.343s2.779-0.204 0.514-3.037c0 0-3.396-2.038-6.671-1.631 0 0-1.701 1.981-0.17 2.427 0.021 7e-3 0.044 0.012 0.067 0.018 1.648 0.408 4.304 0.389 4.304 1.408s-0.103 1.936 0 1.833c0.103-0.101-1.627 1-2.142 3.242l-1.441 0.305-1.937-0.204s-1.441 0.593-0.927-1.018l-0.206-2.222s1.75-2.344 1.75-2.242 1.236-2.222-1.131-2.426l-4.202-0.204-4.715 0.103s0.697 1.362-0.457 2.667c-0.019 0.021-0.039 0.042-0.059 0.064-1.191 1.277-0.162 1.779 1.281 0.642 0.053-0.042 0.107-0.086 0.16-0.133 1.526-1.305 4.51-0.611 4.51-0.611s1.133-0.185 0.618 1.936c0 0-1.338 5.87-2.573 6.481l-1.235 1.121s-1.937 3.547 1.338 4.26c0 0 2.162 0.592 1.132 3.139l-0.514 3.056s-1.544 0.49-1.442 2.121l-2.759-2.427s2.347-3.139-1.545-4.565c0 0-3.892-0.306-2.451 3.75l2.554 3.038s3.397 2.343 3.192 2.343c-0.206 0-0.104 2.629-0.104 2.629s-2.265-0.305-1.75 3.751l-1.029 4.565s0.534 2.445-1.937 2.445c0 0-6.053-2.343-5.848 2.426 0 0-1.132 3.852 4.819 3.037 0 0 3.172-1.509 3.48-3.037 0 0 3.103-0.099 2.302-5.064-0.012-0.07-0.024-0.142-0.037-0.215-0.927-5.176-0.206-3.954-0.206-3.954s-0.533-1.731 0.907-1.222l1.236 2.241s-0.926 4.769 4.51 3.954l2.161 1.732s0.515 3.343-1.029 3.038c0 0-2.657 1.407-4.304-1.223l0.514 1.426-1.338-0.611 0.309 1.018-0.514 1.102s-2.452 0.528 0.514 2.853c0 0 7.863 6.812 13.015 1.712 0.104-0.101 1.957-1.509 1.339-9.519z" fill="none" stroke="#100f0d" stroke-miterlimit="3.864" stroke-width=".507"/></g><g transform="translate(239.13 409.69)"><path d="m0 0-10.463-0.408s7.372 11.351 0.412 17.447c0 0-8.608 11.351 4.51 42.8 0 0 1.055 1.609 1.443-0.408 0 0 11.241-32.649 5.105-42.597 0 0-7.966-3.647-1.213-15.814z" fill="#100f0d" fill-rule="evenodd"/><path d="m0 0-10.463-0.408s7.372 11.351 0.412 17.447c0 0-8.608 11.351 4.51 42.8 0 0 1.055 1.609 1.443-0.408 0 0 11.241-32.649 5.105-42.597 0 0-7.966-3.647-1.213-15.814z" fill="none" stroke="#100f0d" stroke-miterlimit="3.864" stroke-width=".569"/></g><path d="m351.2 452.5h19.007v-5.377h-19.007z" fill="#100f0d" fill-rule="evenodd" stroke="#100f0d" stroke-miterlimit="3.864" stroke-width=".625"/><path d="m356.56 436.28h9.73v-18.473h-9.73z" fill="#cecdcb" fill-rule="evenodd" stroke="#cecdcb" stroke-miterlimit="3.864" stroke-width=".507"/><g transform="translate(373.24 436.25)"><path d="m0 0h-24.807" fill="none" stroke="#cecdcb" stroke-miterlimit="3.864" stroke-width="1.223"/></g><g transform="translate(375.47 426.12)"><path d="m0 0h-29.262" fill="none" stroke="#cecdcb" stroke-miterlimit="3.864" stroke-width="1.223"/></g><g transform="translate(379.26 417.56)"><path d="m0 0h-35.628c-0.455 0 5.412 15.232 5.867 28.104h22.757s0.32-18.003 6.321-27.092z" fill="#100f0d" fill-rule="evenodd"/><path d="m0 0h-35.628c-0.455 0 5.412 15.232 5.867 28.104h22.757s0.32-18.003 6.321-27.092z" fill="none" stroke="#100f0d" stroke-miterlimit="3.864" stroke-width=".507"/></g><g transform="translate(344.34 467.87)"><path d="m0 0v7.289h4.091v-3.486h2.252l-0.114 3.486h3.729c-0.113 0 0-3.711 0-3.711l2.841 0.112v3.262h4.411v-3.262h2.252v3.691l4.184-0.035v-3.656l1.931 0.069 0.157 3.53 4.708 0.204 0.455-7.831z" fill="#100f0d" fill-rule="evenodd"/><path d="m0 0v7.289h4.091v-3.486h2.252l-0.114 3.486h3.729c-0.113 0 0-3.711 0-3.711l2.841 0.112v3.262h4.411v-3.262h2.252v3.691l4.184-0.035v-3.656l1.931 0.069 0.157 3.53 4.708 0.204 0.455-7.831z" fill="none" stroke="#100f0d" stroke-miterlimit="3.864" stroke-width=".625"/></g><g transform="translate(349.77 453.94)"><path d="m0 0-5.206 13.771 30.556-0.113-5.32-13.415z" fill="#100f0d" fill-rule="evenodd"/><path d="m0 0-5.206 13.771 30.556-0.113-5.32-13.415z" fill="none" stroke="#100f0d" stroke-miterlimit="3.864" stroke-width=".625"/></g><g transform="translate(407.14 410.29)"><path d="m0 0-1.997 4.276 2.452 2.453-0.911 4.221-0.857 1.823 3.537 2.909 6.499 0.456 5.815-2.909 2.452-4.047-2.907-4.277 2.05-1.541 3.363 0.684s-0.911 5.589-0.683 5.589c0.227 0 3.591 2.681 3.591 2.681l1.769-1.769-4.047-4.504 0.228-2.908-3.136-4.906-15.623 4.222z" fill="#100f0d" fill-rule="evenodd"/><path d="m0 0-1.997 4.276 2.452 2.453-0.911 4.221-0.857 1.823 3.537 2.909 6.499 0.456 5.815-2.909 2.452-4.047-2.907-4.277 2.05-1.541 3.363 0.684s-0.911 5.589-0.683 5.589c0.227 0 3.591 2.681 3.591 2.681l1.769-1.769-4.047-4.504 0.228-2.908-3.136-4.906-15.623 4.222z" fill="none" stroke="#fff" stroke-miterlimit="3.864" stroke-width=".336"/></g><g transform="translate(409.05 417.33)"><path d="m0 0 7.584-1.997 4.448 1.085-0.629 2.453-9.179 2.909-2.224-1.997z" fill="#fff" fill-rule="evenodd"/><path d="m0 0 7.584-1.997 4.448 1.085-0.629 2.453-9.179 2.909-2.224-1.997z" fill="none" stroke="#fff" stroke-miterlimit="3.864" stroke-width=".507"/></g><g transform="translate(405.09 397.79)"><path d="m0 0-2.907 2.908-0.229 3.821 4.276 3.364 2.223-2.909 14.767-5.133 1.541 4.221-1.086 2.051 3.136-2.278-0.456-5.134 7.129-2.224 3.819-5.362-10.948 3.137-1.367-4.96-1.768-0.401 0.683 2.68-0.228 3.136-15.449 5.59z" fill="#100f0d" fill-rule="evenodd"/><path d="m0 0-2.907 2.908-0.229 3.821 4.276 3.364 2.223-2.909 14.767-5.133 1.541 4.221-1.086 2.051 3.136-2.278-0.456-5.134 7.129-2.224 3.819-5.362-10.948 3.137-1.367-4.96-1.768-0.401 0.683 2.68-0.228 3.136-15.449 5.59z" fill="none" stroke="#cecdcb" stroke-miterlimit="3.864" stroke-width=".336"/></g><g transform="translate(400.28 382.29)"><path d="m0 0-1.367 2.908-0.91 7.131 4.273 4.048 17.219-8.042 1.541-7.185-3.993-4.221-0.683-5.133-4.449 3.765-3.591 9.41-4.047 3.819-2.452 0.229s-1.942-1.824-1.541-1.824c0.402 0 0-4.905 0-4.905" fill="#100f0d" fill-rule="evenodd"/><path d="m0 0-1.367 2.908-0.91 7.131 4.273 4.048 17.219-8.042 1.541-7.185-3.993-4.221-0.683-5.133-4.449 3.765-3.591 9.41-4.047 3.819-2.452 0.229s-1.942-1.824-1.541-1.824c0.402 0 0-4.905 0-4.905z" fill="none" stroke="#cecdcb" stroke-miterlimit="3.864" stroke-width=".336"/></g><g transform="translate(413.54 377.11)"><path d="m0 0 1.997-0.684 0.228 3.592 1.367 0.456-1.14 2.453-4.448 2.225-1.822-1.541z" fill="#fff" fill-rule="evenodd"/><path d="m0 0 1.997-0.684 0.228 3.592 1.367 0.456-1.14 2.453-4.448 2.225-1.822-1.541z" fill="none" stroke="#fff" stroke-miterlimit="3.864" stroke-width=".336"/></g><g transform="translate(324.36 314.58)"><path d="m0 0 2.908 5.361 5.587-4.221 0.229-18.363 2.451 1.996 1.139-2.452-0.683-3.136s-6.043 3.364-8.495 1.139l1.312 3.137-1.768 15.627z" fill="#100f0d" fill-rule="evenodd"/><path d="m0 0 2.908 5.361 5.587-4.221 0.229-18.363 2.451 1.996 1.139-2.452-0.683-3.136s-6.043 3.364-8.495 1.139l1.312 3.137-1.768 15.627z" fill="none" stroke="#100f0d" stroke-miterlimit="3.864" stroke-width=".336"/></g><g transform="translate(285.08 295.63)"><path d="m0 0-0.071 0.754s2.217 0.791 3.46 2.954c0 0 0.828-2.024 2.861 0.046l1.564 0.644s2.944-2.127 3.138-2.127 0.92-0.837 2.079 0.231c0 0 0.874 1.482-0.506 2.127 0 0 2.403 2.355-0.874 3.184 0 0-11.272-4.704-9.928 7.299 0 0 0.92 7.98 5.861 6.875l5.494 2.449 3.23-3.046s1.527-10.199-0.691-14.911l-0.183-4.805-3.046-4.114-0.552-2.486-5.77 4.381z" fill="#100f0d" fill-rule="evenodd"/><path d="m0 0-0.071 0.754s2.217 0.791 3.46 2.954c0 0 0.828-2.024 2.861 0.046l1.564 0.644s2.944-2.127 3.138-2.127 0.92-0.837 2.079 0.231c0 0 0.874 1.482-0.506 2.127 0 0 2.403 2.355-0.874 3.184 0 0-11.272-4.704-9.928 7.299 0 0 0.92 7.98 5.861 6.875l5.494 2.449 3.23-3.046s1.527-10.199-0.691-14.911l-0.183-4.805-3.046-4.114-0.552-2.486-5.77 4.381z" fill="none" stroke="#100f0d" stroke-miterlimit="3.864" stroke-width=".336"/></g><g transform="translate(292.42 314.62)"><path d="m0 0s0.909 3.999 2.545-0.363c0 0 2.544-1.273 2.544-4.544 0 0 2.362-4.364-3.09-4.364 0 0-3.635 1.273-2.726 7.454z" fill="#fff" fill-rule="evenodd"/><path d="m0 0s0.909 3.999 2.545-0.363c0 0 2.544-1.273 2.544-4.544 0 0 2.362-4.364-3.09-4.364 0 0-3.635 1.273-2.726 7.454z" fill="none" stroke="#fff" stroke-miterlimit="3.864" stroke-width=".507"/></g><g transform="translate(269.84 298.86)"><path d="m0 0 2.908 0.402 4.611 17.25-2.105 3.11 4.008 3.109 2.908-2.307 0.401-2.505-3.911-15.748 0.201-3.608 1.205-2.611 1.405 1.004-2.61-3.11-1.703-0.401-0.602 0.804v1.205l-3.511 2.104-3.205 0.804z" fill="#100f0d" fill-rule="evenodd"/><path d="m0 0 2.908 0.402 4.611 17.25-2.105 3.11 4.008 3.109 2.908-2.307 0.401-2.505-3.911-15.748 0.201-3.608 1.205-2.611 1.405 1.004-2.61-3.11-1.703-0.401-0.602 0.804v1.205l-3.511 2.104-3.205 0.804z" fill="none" stroke="#100f0d" stroke-miterlimit="3.864" stroke-width=".336"/></g><g transform="translate(319.5 317.17)"><path d="m0 0-2.907-2.546-5.634 3.636s-5.271-3.795-5.271-21.269c0-0.363 3.635-6.544 3.635-6.544l9.45 3.454 1.455 8.908-3.272 3.817-7.269-0.546-0.364 5.09 2.908 0.728 3.271-1.273 4.726 5.453z" fill="#100f0d" fill-rule="evenodd"/><path d="m0 0-2.907-2.546-5.634 3.636s-5.271-3.795-5.271-21.269c0-0.363 3.635-6.544 3.635-6.544l9.45 3.454 1.455 8.908-3.272 3.817-7.269-0.546-0.364 5.09 2.908 0.728 3.271-1.273 4.726 5.453z" fill="none" stroke="#100f0d" stroke-miterlimit="3.864" stroke-width=".336"/></g><g transform="translate(310.54 301.21)"><path d="m0 0s-0.727 2 1.999 2.182l2.544-0.364 1.454-1.636 0.545-5.635s-1.09-3.453-4.18-2l-2.362 5.272z" fill="#fff" fill-rule="evenodd"/><path d="m0 0s-0.727 2 1.999 2.182l2.544-0.364 1.454-1.636 0.545-5.635s-1.09-3.453-4.18-2l-2.362 5.272z" fill="none" stroke="#fff" stroke-miterlimit="3.864" stroke-width=".336"/></g><g transform="translate(336.68 310.76)"><path d="m0 0c0.63 0.684 3.765 5.416 3.765 5.416l6.727-4.276-3.136-7.359-5.815 1.997z" fill="#100f0d" fill-rule="evenodd"/><path d="m0 0c0.63 0.684 3.765 5.416 3.765 5.416l6.727-4.276-3.136-7.359-5.815 1.997z" fill="none" stroke="#100f0d" stroke-miterlimit="3.864" stroke-width=".336"/></g><g transform="translate(368.21 309.08)"><path d="m0 0-4.73 1.14-1.085-3.593-4.275-0.684-8.267 17.451-3.136 0.913 1.367 4.449 4.904 0.228 1.769 4.732 5.359-1.14 5.817-12.546-2.909-4.905-3.082-0.912 1.541-4.221 6.956 3.136 1.767-1.367z" fill="#100f0d" fill-rule="evenodd"/><path d="m0 0-4.73 1.14-1.085-3.593-4.275-0.684-8.267 17.451-3.136 0.913 1.367 4.449 4.904 0.228 1.769 4.732 5.359-1.14 5.817-12.546-2.909-4.905-3.082-0.912 1.541-4.221 6.956 3.136 1.767-1.367z" fill="none" stroke="#cecdcb" stroke-miterlimit="3.864" stroke-width=".336"/></g><g transform="translate(360.88 316.4)"><path d="m0 0 0.455 1.997-3.992 10.494-2.506 0.229-0.402-2.908 3.765-8.955z" fill="#fff" fill-rule="evenodd"/><path d="m0 0 0.455 1.997-3.992 10.494-2.506 0.229-0.402-2.908 3.765-8.955z" fill="none" stroke="#fff" stroke-miterlimit="3.864" stroke-width=".336"/></g><g transform="translate(362.39 331.8)"><path d="m0 0 0.228 6.046 1.997 2.681 4.22-1.541 2.734-2.28 13.399-19.448 3.592-1.313v-5.817l-1.596-3.82s-6.043 2.68-6.043 2.908c0 0.229-0.857 4.678-0.857 4.678l-14.994 21.271-0.911-3.365z" fill="#100f0d" fill-rule="evenodd"/><path d="m0 0 0.228 6.046 1.997 2.681 4.22-1.541 2.734-2.28 13.399-19.448 3.592-1.313v-5.817l-1.596-3.82s-6.043 2.68-6.043 2.908c0 0.229-0.857 4.678-0.857 4.678l-14.994 21.271-0.911-3.365z" fill="none" stroke="#cecdcb" stroke-miterlimit="3.864" stroke-width=".336"/></g><g transform="translate(370.75 342.31)"><path d="m0 0 0.684 7.131 3.309-0.684v3.592l2.278 2.453 4.449 0.228 9.862-11.179-1.367-4.048-3.363-1.541 4.046-3.364 4.676 4.504 2.452-1.14s-2.853-2.453-3.081-2.453c-0.227 0-3.135-1.997-3.135-1.997l-1.595-3.592-4.677 0.229-12.769 12.947z" fill="#100f0d" fill-rule="evenodd"/><path d="m0 0 0.684 7.131 3.309-0.684v3.592l2.278 2.453 4.449 0.228 9.862-11.179-1.367-4.048-3.363-1.541 4.046-3.364 4.676 4.504 2.452-1.14s-2.853-2.453-3.081-2.453c-0.227 0-3.135-1.997-3.135-1.997l-1.595-3.592-4.677 0.229-12.769 12.947z" fill="none" stroke="#cecdcb" stroke-miterlimit="3.864" stroke-width=".336"/></g><g transform="translate(376.62 349.9)"><path d="m0 0v-2.453l6.218-7.359 2.907 0.63v2.051l-5.588 6.447z" fill="#fff" fill-rule="evenodd"/><path d="m0 0v-2.453l6.218-7.359 2.907 0.63v2.051l-5.588 6.447z" fill="none" stroke="#fff" stroke-miterlimit="3.864" stroke-width=".336"/></g><g transform="translate(412.45 371.84)"><path d="m0 0 1.595-4.905-1.14-1.77-2.68-0.455-0.683-6.045-4.448-4.504-0.228-4.449-4.047-1.998-3.765 1.77-10.318 8.042-2.907-1.314-1.086 4.906 3.363 1.595 14.941-8.324 3.135 1.368 0.228 1.996-10.491 6.501-2.225 1.14-2.506-0.229-1.541 3.767 3.592 2.051 11.631-6.956 1.54-1.77 4.274 1.541-0.227 1.997-11.175 7.413-3.819 1.139-1.14 4.678 4.959 0.456 1.541-2.91 9.406-6.044h2.908l1.313 2.681z" fill="#100f0d" fill-rule="evenodd"/><path d="m0 0 1.595-4.905-1.14-1.77-2.68-0.455-0.683-6.045-4.448-4.504-0.228-4.449-4.047-1.998-3.765 1.77-10.318 8.042-2.907-1.314-1.086 4.906 3.363 1.595 14.941-8.324 3.135 1.368 0.228 1.996-10.491 6.501-2.225 1.14-2.506-0.229-1.541 3.767 3.592 2.051 11.631-6.956 1.54-1.77 4.274 1.541-0.227 1.997-11.175 7.413-3.819 1.139-1.14 4.678 4.959 0.456 1.541-2.91 9.406-6.044h2.908l1.313 2.681z" fill="none" stroke="#cecdcb" stroke-miterlimit="3.864" stroke-width=".336"/></g></g></g></svg>
