<?xml version="1.0" encoding="utf-8"?>
<!-- Generator: Adobe Illustrator 24.3.0, SVG Export Plug-In . SVG Version: 6.00 Build 0)  -->
<svg version="1.1" id="logo" xmlns="http://www.w3.org/2000/svg" xmlns:xlink="http://www.w3.org/1999/xlink" x="0px" y="0px"
	 viewBox="0 0 600 400" style="enable-background:new 0 0 600 400;" xml:space="preserve">
<style type="text/css">
	.st0{fill:#30BCEF;}
	.st1{fill:#E3007F;}
	.st2{fill:#FFFFFF;}
</style>
<g>
	<path class="st0" d="M334.2,113.3c-13.6,9.5-30.6,14.7-50.4,5.9c-26.4-13.5-44.7-34.2-77.8-55.5c-34.8-22.4-65.6-36.5-86.8-35.9
		C59.6,29.5,58,84.8,57.1,96.2c-2.1,26.7,10.1,60,36.5,88.7c55.9,60.7,106.4,56.7,143.9,24.6c9.5-8.2,21.3-19.4,35.6-31.1
		C274.3,177.1,304.3,143.2,334.2,113.3z"/>
	<path class="st1" d="M540.9,77.8c-8.1-34.5-34.1-54.3-74.2-49.1c-32.8,4.2-65,27.2-75.4,34.9c-17.5,13-37,29.6-56.7,49.4
		c-0.1,0.1-0.2,0.2-0.4,0.4c-29.8,29.8-59.8,63.7-61.1,65c-0.3,0.3-0.5,0.5-0.4,0.5c4.1-2.9,17.1-10,37.6-4.7
		c36.1,9.5,51.4,48.3,94.7,57c46.5,9.4,100.4-33.3,123.2-76.6C544.5,123.3,545.2,96.2,540.9,77.8z"/>
</g>
<g>
	<g>
		<g>
			<g>
				<g>
					<g>
						<path d="M476.9,357v5.8c0,1.5,0.4,2.8,2.1,2.8s2.1-1.3,2.1-2.8V357h1.8v6c0,2.5-1.2,4.2-3.9,4.2c-2.7,0-3.9-1.7-3.9-4.2v-6
							H476.9z"/>
					</g>
				</g>
			</g>
			<g>
				<g>
					<path d="M437.3,325.4L437.3,325.4v-2.6c0-1.8,0-2.6,0.1-3.3c-0.8,0.1-1.2,0.1-2.3,0.1h-4c-1.2,0-1.6,0-2.3-0.1
						c0.1,1,0.1,1.8,0.1,3.3v2.6l0,0v2.6c0,1.5,0,2.2-0.1,3.3c0.7-0.1,1.1-0.1,2.3-0.1h4c1.1,0,1.5,0,2.3,0.1
						c-0.1-0.7-0.1-1.5-0.1-3.3V325.4z M430.7,321.1h4.9v3.4h-4.9V321.1z M435.6,329.5h-4.9v-3.4h4.9V329.5z"/>
					<g>
						<g>
							<g>
								<path d="M73.9,310c0-0.8-0.1-1.6-0.2-2.3H76c-0.1,0.7-0.2,1.5-0.2,2.3v1.1h7.3V310c0-0.8-0.1-1.5-0.2-2.3h2.3
									c-0.1,0.7-0.2,1.5-0.2,2.3v1.1h5c1.6,0,2.6-0.1,3.6-0.2v2.2c-1.1-0.1-1.9-0.2-3.6-0.2h-5v1.1c0,0.9,0,1.4,0.1,2.1h-2.2
									c0.1-0.7,0.1-1.3,0.1-2.1v-1h-7.1v1c0,0.9,0,1.5,0.1,2.1h-2.3c0.1-0.7,0.1-1.3,0.1-2.1v-1.1H69c-1.7,0-2.5,0-3.6,0.2v-2.2
									c1,0.1,1.9,0.2,3.6,0.2h4.9V310z M89.5,333.2c-2.4,0.4-12.2,1.8-19,2.2c-2.6,0.1-1.3,0.3-1.8,0.3l-0.4-2.3
									c0.7,0,6.4-5.7,7.6-8.4h-6.3c-1.4,0-3.2,0.1-4.1,0.2V323c0.9,0.1,2.7,0.2,4.1,0.2h21.6c1.4,0,2-0.1,2.9-0.2v2.3
									c-0.9-0.1-1.5-0.2-2.9-0.2H78.7c-2,3.8-6.9,8.5-6.8,8.3c6.5-0.3,15.2-1.7,16.2-1.9 M90.1,319.9c-0.9-0.1-1.9-0.2-3.2-0.2
									H72.3c-1.3,0-2.5,0.1-3.3,0.2v-2.3c0.9,0.1,1.8,0.2,3.3,0.2h14.6c1.4,0,2.4-0.1,3.2-0.2V319.9z"/>
								<path d="M112.5,325.1c0-1.3,0-4.3,0.1-5.7c-0.9,1.1-1.6,1.9-2.8,2.9c-0.3-0.7-0.6-1.1-1.1-1.8c2-1.5,3.5-3.1,5.1-5.6
									c0.6-0.9,1.1-2,1.4-2.8l1.9,1.2c-0.3,0.6-0.7,1.1-1.1,1.8c-0.3,0.5-1.1,1.7-1.6,2.4v15.1c0,1.8,0,2.8,0.2,3.7h-2.3
									c0.1-1,0.2-1.9,0.2-3.8C112.5,332.6,112.5,325.1,112.5,325.1z M120.2,318.8c-0.4,6.2-1.1,10.2-2.6,13.8
									c-0.6-0.5-1-0.7-1.7-1c1.6-3.6,2.3-7.5,2.5-13L120.2,318.8z M126.2,314c1.3,0,2,0,2.8-0.2v2.1c-0.8-0.1-1.4-0.2-2.5-0.2
									h-2.1v16.8c0,1.5,0,2.5,0.2,3.6h-2.3c0.1-1.2,0.2-2.2,0.2-3.6v-16.8h-2.3c-1.1,0-1.8,0-2.5,0.2v-2.1
									c0.8,0.1,1.4,0.2,2.8,0.2h2.1v-3.3c0-1.2-0.1-2-0.2-3h2.3c-0.1,1-0.2,1.7-0.2,3v3.3H126.2z M126.6,308.1
									c1.2,1.4,1.8,2.3,2.7,3.9l-1.5,1c-0.9-1.7-1.4-2.5-2.6-4.1L126.6,308.1z M127.7,318.5c1.3,4.3,1.9,7.2,2.6,11.8l-1.9,0.7
									c-0.5-4.9-1.2-8-2.4-12L127.7,318.5z M131.4,318c-1.1,0-1.7,0-2.4,0.1V316c0.7,0.1,1.2,0.1,2.4,0.1h4.3c1.3,0,1.8,0,2.6-0.2
									v2.2c-0.8-0.1-1.4-0.2-2.6-0.2H135v15.5c0,1-0.2,1.7-0.7,2c-0.4,0.3-1.5,0.5-2.9,0.5c-0.9,0-2.2,0-2.9-0.1
									c0-0.8-0.2-1.4-0.4-2.1c1.4,0.2,2.5,0.3,3.9,0.3c0.8,0,1.1-0.1,1.1-0.7v-15.5h-1.7V318z M137.9,311.6
									c-0.7-0.1-1.5-0.2-2.4-0.2h-3.2c-0.9,0-1.6,0-2.3,0.2v-2.2c0.6,0.1,1.4,0.2,2.4,0.2h3.2c1,0,1.8-0.1,2.4-0.2v2.2H137.9z"/>
								<path d="M202.7,322.4c0-1.8,0-1.9,0.1-3.9c-1,1.8-2.2,3.4-4.1,5.4c-0.4-0.6-0.9-1.4-1.4-1.9c3.4-3.3,5.6-6.7,7.3-10.8
									c0.7-1.7,0.9-2.6,1.1-3.9l2.4,0.7c-0.1,0.3-0.1,0.3-0.7,1.8c-0.3,0.7-1.3,3.1-2.6,5.9v16.6c0,1.3,0.1,2.5,0.2,3.9h-2.5
									c0.2-1.2,0.2-2.5,0.2-4V322.4z M213.5,333c0,1.1,0.5,1.3,4.3,1.3c3.6,0,4.8-0.2,5.3-0.8c0.5-0.7,0.9-2.4,1.1-5.8
									c0.8,0.5,1.5,0.8,2.1,1c-0.4,3.5-0.8,5.4-1.5,6.3c-0.8,1.1-2.3,1.4-7.3,1.4c-5.3,0-6.1-0.4-6.1-2.9v-22.2
									c0-1.4-0.1-2.7-0.2-3.5h2.5c-0.1,0.9-0.2,2-0.2,3.5v8.2c-0.2-0.2,2.8-1.9,5.2-4.3c2-1.9,3.3-3.4,4.4-4.9l1.8,1.5
									c-0.4,0.3-2,2-3.5,3.4c-2.8,2.5-8.1,6.8-8,6.6L213.5,333L213.5,333z"/>
							</g>
						</g>
					</g>
					<path d="M269.5,329.4c0,2.5-0.1,3.7-0.4,4.2c-0.2,0.3-0.8,0.5-2.2,0.5c-1.1,0-1.4-0.1-1.4-0.7V325h0.7c1.6,0,2,0,2.9,0.1
						c-0.1-0.8-0.1-1.6-0.1-3V312c0-1.4,0-2.4,0.1-3.4c-1,0.1-1.5,0.2-3.1,0.2h-6.2c-1.4,0-2,0-3.1-0.2c0.1,0.9,0.2,1.6,0.2,3.2
						v10.4c0,1.8,0,2.3-0.1,3c0.6-0.1,1.3-0.1,2.2-0.1h0.4c-0.1,2.3-0.4,4.8-1.3,6.3c-0.7,1.2-1.5,2.1-2.9,3.1v-1.7
						c-0.5,0.1-1.1,0.1-2.6,0.1h-1.4v-3.3h1.3c1.2,0,2.1,0,2.6,0.1V328c-0.5,0.1-1.2,0.1-2.6,0.1h-1.3v-3.3h1.3c1.2,0,1.9,0,2.6,0.1
						v-1.7c-0.6,0.1-1.2,0.1-2.6,0.1h-1.3v-3h1.8c1.1,0,1.9,0,2.6,0.1v-1.8c-0.6,0.1-1.1,0.1-2.6,0.1h-1.7c-0.1,0.2,0-1.8,0-2.8h2
						c1,0,1.8,0,2.6,0.2v-1.9c-0.6,0.1-1.3,0.2-2.6,0.2h-4.4c0.4-1,1.2-3.3,1.2-3.2h2.6c1.3,0,1.9,0,2.9,0.2v-2
						c-0.7,0.1-1.5,0.2-3,0.2h-6.1c0.5-0.9,0.3-0.6,0.7-1.6l-1.9-0.6c-0.7,2.4-1.4,3.5-3.5,5.4c0.6,0.3,1,0.5,1.5,1
						c0.9-1,1.3-1.4,2.2-2.7h2.6c-0.4,1.4-1.1,3.3-1.2,3.2h-2.8c-1.2,0-1.9,0-2.6-0.2v2c0.7-0.1,1.5-0.2,2.7-0.2h2
						c-0.9,2.1-3.1,4.9-5.8,7.1c0.4,0.4,0.7,0.8,1.1,1.5c1.2-1.1,1.8-1.7,2.6-2.7c-0.1,0.9-0.1,1.8-0.1,2.6v8.4
						c0,1.5-0.1,2.4-0.2,3.3h2v-1.9h6.6c1.2,0,2,0,2.7,0.1c-0.5,0.3-0.7,0.4-1.3,0.8c0.6,0.4,0.8,0.6,1.5,1.5c2-1.2,3.1-2.3,4.1-4
						c1.1-1.9,1.6-4.7,1.8-7.7h2.4v8.8c0,1.7,0.7,2.2,3.3,2.2c3.8,0,4-0.4,4.4-5.6C270.6,330,270.2,329.9,269.5,329.4z M249.5,332.8
						h-3.7v-3.3h3.7V332.8z M249.5,328h-3.7v-3.2h3.7V328z M249.5,323.2h-3.7v-3h3.7V323.2z M249.5,318.8h-3
						c0.6-0.7,1.1-1.6,1.6-2.8h1.4C249.6,317,249.5,318.8,249.5,318.8z M258.7,310.4h8.4v2.9h-8.4V310.4z M258.7,315h8.4v3.1h-8.4
						V315z M258.7,323.2v-3.6h8.4v3.6H258.7z"/>
					<path d="M298.7,310.1c0-1.1-0.1-2-0.2-2.9h2.5c-0.2,0.9-0.2,1.6-0.2,2.9v8.3h9.9c1.3,0,2.2-0.1,3.3-0.2v2.3
						c-0.9-0.1-1.9-0.2-3.3-0.2h-7.1v12.8c0,0.7,0.4,0.8,3.8,0.8c2.7,0,3.6-0.1,4-0.6c0.5-0.5,0.7-1.9,0.9-4.8
						c0.9,0.5,1.3,0.7,2,0.9c-0.5,4-0.9,5.1-2,5.9c-0.7,0.5-1.9,0.7-5.5,0.7c-2.9,0-3.9-0.1-4.6-0.5c-0.6-0.3-0.8-0.8-0.8-2v-13.1
						H297c-0.1,2.8-0.3,4.6-0.7,6.3c-0.9,3.2-2.4,5.5-5,7.4c-1.3,0.9-2.6,1.6-4.7,2.4c-0.5-0.8-0.8-1.2-1.5-1.8
						c3.8-1.2,6.1-2.6,7.6-4.8c1.5-2,2.1-5.2,2.3-9.5h-5.6c-1.3,0-2.3,0.1-3.3,0.2v-2.3c0.9,0.1,2,0.2,3.3,0.2h9.2v-8.4H298.7z
						 M290,308.6c2.3,2.8,3.1,3.4,5,6.6l-1.8,1.2c-1.7-3.2-2.7-4.3-4.9-6.9L290,308.6z M311.3,309.4c-2,3.7-3,4.9-5.2,7.5l-1.8-1.1
						c2.3-2.5,3.4-3.9,5.1-7.5L311.3,309.4z"/>
					<path d="M333.6,311c-1.3,0-2.3,0.1-3.2,0.2v-2.1c0.9,0.1,1.8,0.2,3.2,0.2h9.3V309c0-1.3,0-1.9-0.2-2.7h2.3
						c-0.1,0.8-0.2,1.6-0.2,2.7v0.3H355c1.4,0,2.3,0,3.2-0.2v2.1c-1-0.2-1.8-0.2-3.2-0.2h-10.1v2.1h7.7c1.3,0,1.8,0,2.7-0.1
						c-0.1,0.8-0.1,1.4-0.1,2.3v5.7c0,0.9,0,1.5,0.1,2.3c-0.9-0.1-1.6-0.1-2.8-0.1h-0.9v2.2h3.4c1.4,0,2.3-0.1,3.2-0.2v2.1
						c-0.9-0.1-1.9-0.2-3.2-0.2h-3.4v6.6c0,1.8-0.8,2.3-3.4,2.3c-0.9,0-1.2,0-3-0.1c-0.1-0.8-0.2-1-0.6-2c1.2,0.2,2.5,0.3,3.8,0.3
						c1.1,0,1.3-0.1,1.3-0.8V327h-16.2c-1.3,0-2.3,0.1-3.3,0.2v-2.1c0.9,0.1,1.9,0.2,3.3,0.2h16.1v-2.2h-13.8c-1.2,0-1.8,0-2.7,0.1
						c0.1-0.8,0.1-1.4,0.1-2.3v-5.7c0-0.9,0-1.5-0.1-2.3c0.9,0.1,1.5,0.1,2.7,0.1h7V311H333.6z M335.4,314.6v2.5h7.6v-2.5H335.4z
						 M335.4,318.8v2.6h7.6v-2.6H335.4z M344.9,317.2h8.4v-2.5h-8.4V317.2z M344.9,321.5h8.4v-2.7h-8.4V321.5z"/>
					<path d="M377.8,332.6c0,1.8,0,2.8,0.2,3.6h-2.4c0.1-0.9,0.2-1.9,0.2-3.6v-20.8c0-1.6,0-2.5-0.1-3.5c0.9,0.1,1.7,0.1,3.3,0.1
						h4.6c1.6,0,2.4,0,3.3-0.1c-0.1,0.9-0.1,2-0.1,3.3v3.7c0,1.4,0,2.5,0.1,3.4c-0.8-0.1-1.9-0.1-3.2-0.1h-5.8v14H377.8z
						 M377.8,312.6h7.2v-2.5h-7.2V312.6z M377.8,317h7.2v-2.7h-7.2V317z M400.8,333.5c0,2.2-0.7,2.8-3.4,2.8c-1,0-2.4,0-3.7-0.1
						c-0.1-0.9-0.3-1.4-0.6-2.1c1.5,0.2,2.9,0.3,3.9,0.3c1.6,0,1.8-0.1,1.8-0.8v-14.9H393c-1.5,0-2.4,0-3.3,0.1
						c0.1-0.8,0.1-2.2,0.1-3.4V312c0-1.2,0-2.6-0.1-3.5c0.9,0.1,1.7,0.1,3.3,0.1h4.6c1.6,0,2.5,0,3.3-0.1c-0.1,1.1-0.1,2.1-0.1,3.5
						L400.8,333.5L400.8,333.5z M391.7,312.6h7.1v-2.5h-7.1V312.6z M391.7,317h7.1v-2.7h-7.1V317z"/>
					<path d="M419.5,309.4c-0.6,0-1.1,0.1-1.6,0.2v-2.1c0.6,0.1,1.1,0.2,2.1,0.2h5.3c0.6,0,0.9,0,1.4-0.1v24.6
						c0,2.7,0.1,3.6,0.2,4.5h-2.2c0.1-0.9,0.2-1.7,0.2-3.3v-3.6c-2,0.6-3.1,1-4.5,1.3c-0.9,0.2-0.9,0.3-1.3,0.4
						c-0.1,0-0.2,0.1-0.3,0.1c-0.3,0.1-0.3,0.1-0.5,0.2l-0.6-2.1c0.4,0,0.9-0.1,1.9-0.3v-20H419.5z M421.3,314.4h3.5v-5h-3.5V314.4z
						 M421.3,321.4h3.5v-5.2h-3.5V321.4z M421.3,328.9c1.7-0.4,1.9-0.5,3.5-1V323h-3.5V328.9z M435.7,309c1.4,0,1.9,0,2.5-0.1v1.8
						c-0.7-0.1-0.8-0.1-1.3-0.1c-0.3,1.7-0.7,3.7-1.1,5.6h3.5c-0.1-2-0.1-2.6-0.1-6.4c0-1,0-1.4-0.1-2.1h2.1c-0.1,1-0.2,1.5-0.2,3.6
						c0,1.4,0,3.5,0.1,4.8h2.3c1.9,0,2.2,0,3.1-0.2v2.1c-1.2-0.1-1.5-0.2-3.1-0.2h-2.3c0.2,3.3,0.6,6.6,1,8.5c1.1-2.1,2-4.4,2.3-6.1
						l1.7,1.1c-0.2,0.4-0.4,0.9-0.8,1.9c-0.8,2-1.5,3.6-2.7,5.4c0.5,1.7,1.2,3,1.9,4.1c0.4,0.5,0.6,0.7,0.7,0.7
						c0.3,0,0.7-2.2,0.8-4.7c0.6,0.6,1.1,0.9,1.7,1.2c-0.3,2.6-0.5,3.4-0.9,4.4c-0.4,0.8-0.9,1.3-1.5,1.3c-1.3,0-2.8-1.9-4.1-5.1
						c-1.8,2.4-3.4,4.1-6,5.9c-0.6-0.7-0.7-0.9-1.4-1.4c3-1.9,4.8-3.8,6.7-6.4c-0.7-2.6-1.3-7-1.5-10.7h-9.6c-0.9,0-1.1,0-2,0.2v-2
						c0.7,0.1,1,0.1,2,0.1h0.6c-0.2-1.5-0.5-4.1-0.8-5.6c-0.8,0-1,0-1.6,0.1v-1.8c0.7,0.1,1.3,0.2,2.4,0.2h1.9v-0.4
						c0-1.3-0.1-0.6-0.2-1.3h2.2c-0.1,0.7-0.2,0-0.2,1.4v0.4h2V309z M434.2,316.1c0.5-1.9,0.8-4,1-5.6h-3.9c0.3,1.5,0.6,4.1,0.7,5.6
						H434.2z"/>
					<path d="M115.8,308c-0.4,0.5-0.4,0.5-1.1,1.9c-1.1,2-2.7,4-4.5,5.8c-0.4-0.6-0.9-1-1.4-1.4c2.5-2.3,4.4-5,5-7.1L115.8,308z"/>
					<path d="M444,308c1.1,1.7,1.5,3.3,2.3,5.5l-1.7,0.9c-0.6-2.1-1.1-3.8-2.2-5.6L444,308z"/>
					<path d="M339.4,333.2c-1.8-1.8-2.9-2.9-4.6-4l1.4-1.3c1.9,1.3,3,2.3,4.5,3.8L339.4,333.2z"/>
					<g>
						<g>
							<g>
								<path d="M477.5,315.4c1.1,4.7,2.8,8.3,5.2,11.5c2.3,3.1,5,5.2,8.7,7c-0.7,0.9-0.9,1.3-1.4,2.4c-7.2-4.2-11.1-9.4-13.4-17.7
									c-0.9,5.3-3,9.5-6.3,12.9c-2,2-3.8,3.2-6.9,4.9c-0.4-1-0.7-1.4-1.4-2.2c4-1.8,6.3-3.6,8.4-6.3c2.5-3.2,3.8-7,4.4-12.5h-8.7
									c-1.7,0-2.6,0.1-3.5,0.3v-2.8c0.8,0.2,1.9,0.3,3.6,0.3h8.9c0.1-1.9,0.1-2.8,0.1-4.5c0-1.4-0.1-1.7-0.2-2.6h2.6
									c-0.2,1.2-0.2,1.1-0.2,2.7c0,1.8,0,3.9,0,4.4h9.6c1.6,0,2.7-0.1,3.5-0.3v2.8c-1-0.2-1.9-0.3-3.5-0.3L477.5,315.4
									L477.5,315.4z"/>
							</g>
						</g>
					</g>
					<g>
						<path d="M521.7,333.5c0,2-0.6,2.4-3.6,2.4c-0.9,0-2.5-0.1-3.7-0.2c-0.2-1-0.3-1.4-0.6-2.1c1.6,0.2,3.1,0.4,4.2,0.4
							c1.4,0,1.7-0.1,1.7-0.8v-6.8h-9.2c-1.4,0-2.4,0.1-3.4,0.2v-2.2c0.9,0.1,2,0.2,3.3,0.2h9.2v-0.9c0-0.6,0-1.2-0.1-1.9h1.3
							c1.5-0.5,4.4-2,5.8-3.1h-11.7c-1.1,0-2.2,0.1-3,0.2v-2.2c0.9,0.1,1.9,0.2,3.1,0.2h11.6c1.2,0,1.9,0,2.4-0.1l0.9,1.3
							c-0.4,0.3-0.3,0.3-1,0.9c-2.3,1.8-4,2.6-7.2,4.3v1.3h8.6c1.4,0,2.5-0.1,3.4-0.2v2.2c-0.9-0.1-2-0.2-3.4-0.2h-8.6V333.5
							L521.7,333.5z M513.1,311.9c-0.9-1.7-1.5-2.5-3-4.2l1.9-0.6c1.5,1.9,2,2.7,3.2,4.8h4.7c-0.6-1.7-1.2-3-2.3-4.7l2-0.6
							c1.2,2.2,1.7,3.3,2.4,5.3h3.5c1.5-1.7,2.4-3.2,3.3-5.2l2,0.9c-1.3,2.2-2,3.2-3.1,4.4h2.5c1.8,0,2.6,0,3.7-0.1
							c-0.1,0.9-0.1,1.5-0.1,2.7v2.5c0,0.8,0.1,1.5,0.2,2.3h-2.1v-5.6h-22.6v5.6h-2.1c0.1-0.7,0.2-1.5,0.2-2.3v-2.5
							c0-1.2,0-1.9-0.1-2.7c1.2,0.1,1.9,0.1,3.7,0.1L513.1,311.9L513.1,311.9z"/>
					</g>
					<path d="M176.1,313.9c-2.3,4.6-3.9,7.2-6.7,10.8c0.1,0.1,2.6,2.8,6,5.5c2.3,1.7,4.4,3,7.3,4c-0.6,0.7-1,1.3-1.4,2.3
						c-5.5-1.9-9.7-6.4-13.4-10.1c-3.9,3.7-7.8,7.8-13.5,10.1c-0.4-0.9-0.7-1.4-1.3-2.1c4.7-1.4,12.2-8.2,13.2-9.6
						c-1.5-1.8-3.2-3.8-4.3-5.8c-1.3-2.3-2.7-4.9-2.6-4.9h-2.2c-1.6,0-2.6,0.1-3.6,0.2v-2.4c1,0.2,2.1,0.2,3.6,0.2h9.5v-2.7
						c0-1.1-0.1-1.6-0.2-2.5h2.6c-0.2,0.8-0.2,1.3-0.2,2.5v2.7h9.8c1.6,0,2.7-0.1,3.7-0.2v2.4c-0.9-0.1-1.9-0.2-3.6-0.2h-2.7V313.9z
						 M162,313.9c-0.2-0.1,0.6,1.7,2.2,4.2c1.1,1.8,2.4,3.5,3.8,5c2.8-3.2,5.2-7.6,5.7-9.3L162,313.9L162,313.9z"/>
				</g>
				<g>
					<g>
						<path d="M71.7,351.4H66v15.9h2.2V360h2.4c1.4,0,2.6-0.2,3.3-0.5c0.8-0.3,1.4-0.8,1.8-1.5s0.7-1.5,0.7-2.4
							c0-1.3-0.4-2.4-1.3-3.2C74.3,351.8,73.1,351.4,71.7,351.4z M73.5,357.5c-0.5,0.4-1.2,0.6-2.1,0.6h-3.2v-4.8h3.1
							c1.9,0,2.9,0.8,2.9,2.4C74.2,356.5,73.9,357,73.5,357.5z"/>
						<path d="M82,359.1l-0.1,0.2v-2.3h-2v10.1h2v-5.4c0-0.8,0.2-1.6,0.7-2.2s1-0.9,1.7-0.9c0.6,0,1.2,0.3,1.9,1l1.1-1.8
							c-0.8-0.8-1.6-1.1-2.4-1.1C83.9,356.8,82.9,357.5,82,359.1z"/>
						<path d="M94.9,357c-1.5,0-2.8,0.5-3.9,1.5c-1,1-1.5,2.2-1.5,3.7s0.5,2.7,1.5,3.7s2.3,1.5,3.8,1.5c1.6,0,2.9-0.5,3.9-1.4
							c1-1,1.5-2.2,1.5-3.6c0-1.5-0.5-2.7-1.5-3.7C97.7,357.5,96.4,357,94.9,357z M97.2,364.5c-0.6,0.6-1.4,0.9-2.4,0.9
							s-1.8-0.3-2.4-0.9c-0.6-0.6-0.9-1.4-0.9-2.4s0.3-1.8,0.9-2.4c0.6-0.6,1.4-0.9,2.4-0.9s1.8,0.3,2.5,0.9c0.6,0.6,1,1.4,1,2.4
							C98.2,363,97.9,363.9,97.2,364.5z"/>
						<path d="M106.1,352.8c-0.7,0.8-1,2-1,3.6v0.6h-1.4v1.8h1.4v8.3h2v-8.3h1.8V357h-1.8v-0.6c0-1.1,0.2-1.8,0.5-2.2
							c0.3-0.4,0.8-0.6,1.6-0.6c0.3,0,0.6,0.1,0.9,0.2v-2c-0.6-0.1-1.1-0.2-1.5-0.2C107.7,351.5,106.8,352,106.1,352.8z"/>
						<path d="M117.3,356.8c-1.4,0-2.5,0.5-3.4,1.4c-0.9,1-1.3,2.2-1.3,3.7c0,1,0.2,1.9,0.6,2.7c0.4,0.8,1,1.4,1.6,1.9
							c0.7,0.5,1.6,0.7,2.7,0.7c0.8,0,1.5-0.1,2.1-0.3c0.6-0.2,1.2-0.5,1.8-0.9v-1.9c-1.1,0.8-2.3,1.2-3.6,1.2
							c-0.9,0-1.7-0.3-2.3-0.9c-0.6-0.6-0.9-1.3-1-2.3h7.1v-0.3c0-1.6-0.4-2.8-1.2-3.8C119.7,357.2,118.7,356.8,117.3,356.8z
							 M114.7,361c0.1-0.8,0.4-1.4,0.9-1.8s1-0.6,1.8-0.6c0.7,0,1.3,0.2,1.7,0.6c0.4,0.4,0.7,1,0.7,1.8H114.7z"/>
						<path d="M130.2,361.2l-0.7-0.4c-0.5-0.3-0.9-0.6-1.1-0.8c-0.2-0.2-0.3-0.4-0.3-0.7c0-0.3,0.1-0.5,0.4-0.7
							c0.2-0.2,0.5-0.2,0.9-0.2c0.8,0,1.7,0.4,2.9,1.1v-2c-1-0.6-2-0.8-3-0.8c-0.9,0-1.7,0.2-2.3,0.7c-0.6,0.5-0.9,1.1-0.9,1.9
							c0,0.6,0.2,1.2,0.6,1.7s1.2,1.1,2.5,1.8c0.6,0.4,1.1,0.6,1.3,0.8c0.2,0.2,0.3,0.4,0.3,0.7c0,0.3-0.2,0.5-0.4,0.7
							c-0.3,0.2-0.7,0.3-1.1,0.3s-0.9-0.1-1.5-0.4c-0.6-0.2-1.2-0.6-1.7-1v2.1c0.7,0.3,1.3,0.6,1.8,0.7s1,0.2,1.6,0.2
							c1,0,1.8-0.3,2.5-0.8c0.6-0.5,1-1.2,1-2C132.7,363.2,131.8,362.1,130.2,361.2z"/>
						<path d="M141.3,361.2l-0.7-0.4c-0.5-0.3-0.9-0.6-1.1-0.8c-0.2-0.2-0.3-0.4-0.3-0.7c0-0.3,0.1-0.5,0.4-0.7
							c0.2-0.2,0.5-0.2,0.9-0.2c0.8,0,1.7,0.4,2.9,1.1v-2c-1-0.6-2-0.8-3-0.8c-0.9,0-1.7,0.2-2.3,0.7s-0.9,1.1-0.9,1.9
							c0,0.6,0.2,1.2,0.6,1.7c0.4,0.5,1.2,1.1,2.5,1.8c0.6,0.4,1.1,0.6,1.3,0.8c0.2,0.2,0.3,0.4,0.3,0.7c0,0.3-0.2,0.5-0.4,0.7
							c-0.3,0.2-0.7,0.3-1.1,0.3c-0.4,0-0.9-0.1-1.5-0.4c-0.6-0.2-1.2-0.6-1.7-1v2.1c0.7,0.3,1.3,0.6,1.8,0.7s1,0.2,1.6,0.2
							c1,0,1.8-0.3,2.5-0.8c0.6-0.5,1-1.2,1-2C143.8,363.2,142.9,362.1,141.3,361.2z"/>
						<path d="M149.6,352.8c-0.3,0-0.6,0.1-0.8,0.4c-0.2,0.2-0.4,0.5-0.4,0.8s0.1,0.6,0.4,0.8c0.2,0.2,0.5,0.4,0.8,0.4
							s0.6-0.1,0.8-0.4c0.2-0.2,0.4-0.5,0.4-0.8s-0.1-0.6-0.4-0.8C150.2,352.9,149.9,352.8,149.6,352.8z"/>
						<rect x="148.6" y="357" width="2" height="10.1"/>
						<path d="M160.1,357c-1.5,0-2.8,0.5-3.9,1.5c-1,1-1.5,2.2-1.5,3.7s0.5,2.7,1.5,3.7s2.3,1.5,3.8,1.5c1.6,0,2.9-0.5,3.9-1.4
							c1-1,1.5-2.2,1.5-3.6c0-1.5-0.5-2.7-1.5-3.7C162.9,357.5,161.7,357,160.1,357z M162.5,364.5c-0.6,0.6-1.4,0.9-2.4,0.9
							s-1.8-0.3-2.4-0.9c-0.6-0.6-0.9-1.4-0.9-2.4s0.3-1.8,0.9-2.4c0.6-0.6,1.4-0.9,2.4-0.9s1.8,0.3,2.5,0.9c0.6,0.6,1,1.4,1,2.4
							C163.4,363,163.1,363.9,162.5,364.5z"/>
						<path d="M176.1,357.2c-0.5-0.3-1.1-0.5-1.8-0.5c-1.1,0-2.1,0.5-3,1.5V357h-2v10.1h2v-7.2c0.7-0.9,1.5-1.4,2.4-1.4
							c0.7,0,1.3,0.2,1.6,0.7c0.3,0.4,0.5,1.2,0.5,2.2v5.7h2v-5.8c0-1.2-0.1-2.1-0.4-2.7C177.1,358,176.7,357.5,176.1,357.2z"/>
						<path d="M189.3,365.2V361c0-0.8,0-1.4-0.1-1.7c0-0.3-0.2-0.6-0.3-0.9c-0.2-0.3-0.4-0.5-0.6-0.7c-0.7-0.6-1.5-0.9-2.6-0.9
							c-1.5,0-2.6,0.5-3.3,1.4v2.2c1-1.1,2.1-1.7,3.2-1.7c1.2,0,1.8,0.6,1.8,1.8v0.5l-2.6,0.9c-0.8,0.3-1.5,0.7-1.9,1.2
							c-0.5,0.5-0.7,1.1-0.7,1.7c0,0.7,0.2,1.3,0.7,1.7c0.5,0.5,1.1,0.7,1.8,0.7c1,0,1.9-0.3,2.7-1c0.2,0.7,0.7,1,1.5,1
							c0.2,0,0.4,0,0.6-0.1v-1.4C189.4,365.6,189.3,365.5,189.3,365.2z M187.4,365c-0.5,0.5-1.1,0.8-1.8,0.8c-0.4,0-0.8-0.1-1-0.4
							c-0.3-0.3-0.4-0.6-0.4-1s0.1-0.7,0.4-1s0.8-0.5,1.4-0.8l1.3-0.5v2.9H187.4z"/>
						<rect x="195.1" y="351.8" width="2" height="15.3"/>
						<path d="M216.2,363.5c-1.1-1.1-1.7-2.5-1.7-4.1c0-1.7,0.6-3,1.7-4.2c1.2-1.1,2.6-1.7,4.4-1.7c1.7,0,3.5,0.5,5.2,1.5v-2.4
							c-2-0.8-3.7-1.3-5.4-1.3c-2.3,0-4.3,0.8-5.9,2.3c-1.6,1.5-2.4,3.4-2.4,5.6c0,1.4,0.3,2.7,1,3.9c0.7,1.2,1.6,2.1,2.8,2.8
							c1.2,0.7,2.6,1,4.3,1c2.1,0,4-0.4,5.6-1.3v-2.4c-1.8,1.1-3.6,1.7-5.4,1.7C218.8,365.2,217.3,364.6,216.2,363.5z"/>
						<path d="M235.7,357c-1.5,0-2.8,0.5-3.9,1.5c-1,1-1.5,2.2-1.5,3.7s0.5,2.7,1.5,3.7s2.3,1.5,3.8,1.5c1.6,0,2.9-0.5,3.9-1.4
							c1-1,1.5-2.2,1.5-3.6c0-1.5-0.5-2.7-1.5-3.7C238.5,357.5,237.2,357,235.7,357z M238.1,364.5c-0.6,0.6-1.4,0.9-2.4,0.9
							s-1.8-0.3-2.4-0.9c-0.6-0.6-0.9-1.4-0.9-2.4s0.3-1.8,0.9-2.4c0.6-0.6,1.4-0.9,2.4-0.9s1.8,0.3,2.5,0.9s1,1.4,1,2.4
							C239,363,238.7,363.9,238.1,364.5z"/>
						<rect x="245.3" y="351.8" width="2" height="15.3"/>
						<rect x="252.5" y="351.8" width="2" height="15.3"/>
						<path d="M263.6,356.8c-1.4,0-2.5,0.5-3.4,1.4c-0.9,1-1.3,2.2-1.3,3.7c0,1,0.2,1.9,0.6,2.7c0.4,0.8,1,1.4,1.6,1.9
							c0.7,0.5,1.6,0.7,2.7,0.7c0.8,0,1.5-0.1,2.1-0.3c0.6-0.2,1.2-0.5,1.8-0.9v-1.9c-1.1,0.8-2.3,1.2-3.6,1.2
							c-0.9,0-1.7-0.3-2.3-0.9c-0.6-0.6-0.9-1.3-1-2.3h7.1v-0.3c0-1.6-0.4-2.8-1.2-3.8C266,357.2,265,356.8,263.6,356.8z M261,361
							c0.1-0.8,0.4-1.4,0.9-1.8s1-0.6,1.8-0.6c0.7,0,1.3,0.2,1.7,0.6s0.7,1,0.7,1.8H261z"/>
						<path d="M273.3,358c-0.8,0.6-1.2,1.5-1.2,2.5c0,1.5,0.7,2.5,2.2,3.2c-0.5,0.1-0.9,0.3-1.2,0.6c-0.3,0.3-0.4,0.6-0.4,0.9
							c0,0.4,0.3,0.8,1,1.3c-1.7,0.4-2.5,1.3-2.5,2.6c0,1,0.4,1.7,1.3,2.3c0.9,0.6,2,0.9,3.4,0.9s2.6-0.3,3.4-0.9s1.3-1.3,1.3-2.3
							c0-0.7-0.2-1.3-0.7-1.8c-0.3-0.3-0.6-0.5-1-0.7s-1.1-0.4-2.4-0.6c-0.7-0.2-1.2-0.3-1.5-0.5c-0.3-0.1-0.4-0.3-0.4-0.6
							c0-0.4,0.4-0.7,1.1-0.8c1.1-0.2,1.8-0.4,2.3-0.6c0.5-0.3,0.9-0.7,1.2-1.2s0.4-1,0.4-1.5c0-0.4-0.1-0.8-0.2-1.1
							c-0.2-0.3-0.4-0.7-0.8-1.1h2v-1.6h-4.1C275.2,357,274.1,357.2,273.3,358z M275.4,367.5c1,0,1.8,0.1,2.4,0.4
							c0.6,0.3,0.9,0.7,0.9,1.1c0,0.5-0.2,0.8-0.7,1.1c-0.5,0.3-1.2,0.4-2.1,0.4c-1.9,0-2.8-0.5-2.8-1.6c0-0.4,0.2-0.8,0.6-1.1
							C274.2,367.6,274.7,367.5,275.4,367.5z M277.9,360.5c0,0.5-0.2,1-0.6,1.3c-0.4,0.3-0.8,0.5-1.4,0.5s-1-0.2-1.4-0.5
							s-0.6-0.8-0.6-1.3s0.2-0.9,0.6-1.3c0.4-0.4,0.8-0.5,1.4-0.5s1,0.2,1.4,0.5C277.7,359.5,277.9,360,277.9,360.5z"/>
						<path d="M288.7,356.8c-1.4,0-2.5,0.5-3.4,1.4c-0.9,1-1.3,2.2-1.3,3.7c0,1,0.2,1.9,0.6,2.7c0.4,0.8,1,1.4,1.6,1.9
							c0.7,0.5,1.6,0.7,2.7,0.7c0.8,0,1.5-0.1,2.1-0.3c0.6-0.2,1.2-0.5,1.8-0.9v-1.9c-1.1,0.8-2.3,1.2-3.6,1.2
							c-0.9,0-1.7-0.3-2.3-0.9c-0.6-0.6-0.9-1.3-1-2.3h7.1v-0.3c0-1.6-0.4-2.8-1.2-3.8C291.1,357.2,290,356.8,288.7,356.8z M286,361
							c0.1-0.8,0.4-1.4,0.9-1.8s1-0.6,1.8-0.6c0.7,0,1.3,0.2,1.7,0.6s0.7,1,0.7,1.8H286z"/>
						<path d="M311.8,357c-1.5,0-2.8,0.5-3.9,1.5c-1,1-1.5,2.2-1.5,3.7s0.5,2.7,1.5,3.7s2.3,1.5,3.8,1.5c1.6,0,2.9-0.5,3.9-1.4
							c1-1,1.5-2.2,1.5-3.6c0-1.5-0.5-2.7-1.5-3.7C314.6,357.5,313.3,357,311.8,357z M314.2,364.5c-0.6,0.6-1.4,0.9-2.4,0.9
							s-1.8-0.3-2.4-0.9s-0.9-1.4-0.9-2.4s0.3-1.8,0.9-2.4s1.4-0.9,2.4-0.9s1.8,0.3,2.5,0.9c0.6,0.6,1,1.4,1,2.4
							C315.1,363,314.8,363.9,314.2,364.5z"/>
						<path d="M322.5,352.8c-0.7,0.8-1,2-1,3.6v0.6h-1.4v1.8h1.4v8.3h2v-8.3h1.8V357h-1.8v-0.6c0-1.1,0.2-1.8,0.5-2.2
							c0.3-0.4,0.8-0.6,1.6-0.6c0.3,0,0.6,0.1,0.9,0.2v-2c-0.6-0.1-1.1-0.2-1.5-0.2C324,351.5,323.1,352,322.5,352.8z"/>
						<path d="M344.5,351.6l-6.6,15.4h2.2l1.9-4.5h6.5l2,4.5h2.2l-6.9-15.4H344.5z M343,360.5l2.3-5.5l2.5,5.5H343z"/>
						<path d="M358.8,359.1l-0.1,0.2v-2.3h-2v10.1h2v-5.4c0-0.8,0.2-1.6,0.7-2.2s1-0.9,1.7-0.9c0.6,0,1.2,0.3,1.9,1l1.1-1.8
							c-0.8-0.8-1.6-1.1-2.4-1.1C360.8,356.8,359.8,357.5,358.8,359.1z"/>
						<path d="M370.3,363.6v-4.9h3.2V357h-3.2v-2.1l-3.7,3.7v0.2h1.8v4.5c0,0.9,0,1.5,0.1,1.9c0.1,0.3,0.2,0.6,0.3,0.8
							c0.1,0.2,0.3,0.4,0.5,0.5c0.6,0.5,1.4,0.8,2.3,0.8s1.7-0.2,2.5-0.6v-1.9c-0.8,0.5-1.6,0.7-2.3,0.7
							C370.7,365.5,370.3,364.9,370.3,363.6z"/>
						<path d="M382.1,361.2l-0.7-0.4c-0.5-0.3-0.9-0.6-1.1-0.8c-0.2-0.2-0.3-0.4-0.3-0.7c0-0.3,0.1-0.5,0.4-0.7
							c0.2-0.2,0.5-0.2,0.9-0.2c0.8,0,1.7,0.4,2.9,1.1v-2c-1-0.6-2-0.8-3-0.8c-0.9,0-1.7,0.2-2.3,0.7c-0.6,0.5-0.9,1.1-0.9,1.9
							c0,0.6,0.2,1.2,0.6,1.7s1.2,1.1,2.5,1.8c0.6,0.4,1.1,0.6,1.3,0.8c0.2,0.2,0.3,0.4,0.3,0.7c0,0.3-0.2,0.5-0.4,0.7
							c-0.3,0.2-0.7,0.3-1.1,0.3s-0.9-0.1-1.5-0.4c-0.6-0.2-1.2-0.6-1.7-1v2.1c0.7,0.3,1.3,0.6,1.8,0.7s1,0.2,1.6,0.2
							c1,0,1.8-0.3,2.5-0.8c0.6-0.5,1-1.2,1-2C384.6,363.2,383.8,362.1,382.1,361.2z"/>
						<path d="M405.6,365.2V361c0-0.8,0-1.4-0.1-1.7c0-0.3-0.2-0.6-0.3-0.9c-0.2-0.3-0.4-0.5-0.6-0.7c-0.7-0.6-1.5-0.9-2.6-0.9
							c-1.5,0-2.6,0.5-3.3,1.4v2.2c1-1.1,2.1-1.7,3.2-1.7c1.2,0,1.8,0.6,1.8,1.8v0.5l-2.6,0.9c-0.8,0.3-1.5,0.7-1.9,1.2
							c-0.5,0.5-0.7,1.1-0.7,1.7c0,0.7,0.2,1.3,0.7,1.7c0.5,0.5,1.1,0.7,1.8,0.7c1,0,1.9-0.3,2.7-1c0.2,0.7,0.7,1,1.5,1
							c0.2,0,0.4,0,0.5-0.1v-1.5C405.6,365.5,405.6,365.5,405.6,365.2z M403.6,365c-0.5,0.5-1.1,0.8-1.8,0.8c-0.4,0-0.8-0.1-1-0.4
							c-0.3-0.3-0.4-0.6-0.4-1s0.1-0.7,0.4-1s0.8-0.5,1.4-0.8l1.3-0.5v2.9H403.6z"/>
						<path d="M417.7,357.2c-0.5-0.3-1.1-0.5-1.8-0.5c-1.1,0-2.1,0.5-3,1.5V357h-2v10.1h2v-7.2c0.7-0.9,1.5-1.4,2.4-1.4
							c0.7,0,1.3,0.2,1.6,0.7c0.3,0.4,0.5,1.2,0.5,2.2v5.7h2v-5.8c0-1.2-0.1-2.1-0.4-2.7C418.6,358,418.2,357.5,417.7,357.2z"/>
						<path d="M430.3,357.1c-0.8-0.3-1.5-0.4-2.2-0.4c-1.4,0-2.6,0.5-3.6,1.4c-0.9,1-1.4,2.2-1.4,3.7c0,1.6,0.4,2.8,1.3,3.8
							c0.9,0.9,2.1,1.4,3.6,1.4h4.3v-15.3h-2L430.3,357.1L430.3,357.1z M430.3,365.4h-1.5c-0.9,0-1.5-0.1-1.8-0.2s-0.7-0.3-1-0.7
							c-0.5-0.6-0.8-1.4-0.8-2.4c0-1.1,0.3-2,0.9-2.6s1.4-1,2.4-1c0.6,0,1.3,0.2,1.9,0.5v6.4H430.3z"/>
						<polygon points="446.3,353.6 451.6,353.6 451.6,367 453.8,367 453.8,353.6 459.1,353.6 459.1,351.8 446.3,351.8 						"/>
						<path d="M465.5,357c-1.5,0-2.8,0.5-3.9,1.5c-1,1-1.5,2.2-1.5,3.7s0.5,2.7,1.5,3.7s2.3,1.5,3.8,1.5c1.6,0,2.9-0.5,3.9-1.4
							c1-1,1.5-2.2,1.5-3.6c0-1.5-0.5-2.7-1.5-3.7C468.3,357.5,467.1,357,465.5,357z M467.9,364.5c-0.6,0.6-1.4,0.9-2.4,0.9
							s-1.8-0.3-2.4-0.9s-0.9-1.4-0.9-2.4s0.3-1.8,0.9-2.4s1.4-0.9,2.4-0.9s1.8,0.3,2.5,0.9c0.6,0.6,1,1.4,1,2.4
							C468.8,363,468.5,363.9,467.9,364.5z"/>
						<path d="M490.8,359.1l-0.1,0.2v-2.3h-2v10.1h2v-5.4c0-0.8,0.2-1.6,0.7-2.2s1-0.9,1.7-0.9c0.6,0,1.2,0.3,1.9,1l1.1-1.8
							c-0.8-0.8-1.6-1.1-2.4-1.1C492.8,356.8,491.8,357.5,490.8,359.1z"/>
						<rect x="500.4" y="357" width="2" height="10.1"/>
						<path d="M501.4,352.8c-0.3,0-0.6,0.1-0.8,0.4c-0.2,0.2-0.4,0.5-0.4,0.8s0.1,0.6,0.4,0.8c0.2,0.2,0.5,0.4,0.8,0.4
							s0.6-0.1,0.8-0.4c0.2-0.2,0.4-0.5,0.4-0.8s-0.1-0.6-0.4-0.8C502,352.9,501.7,352.8,501.4,352.8z"/>
						<path d="M511.7,361.2l-0.7-0.4c-0.5-0.3-0.9-0.6-1.1-0.8c-0.2-0.2-0.3-0.4-0.3-0.7c0-0.3,0.1-0.5,0.4-0.7
							c0.2-0.2,0.5-0.2,0.9-0.2c0.8,0,1.7,0.4,2.9,1.1v-2c-1-0.6-2-0.8-3-0.8c-0.9,0-1.7,0.2-2.3,0.7c-0.6,0.5-0.9,1.1-0.9,1.9
							c0,0.6,0.2,1.2,0.6,1.7s1.2,1.1,2.5,1.8c0.6,0.4,1.1,0.6,1.3,0.8c0.2,0.2,0.3,0.4,0.3,0.7c0,0.3-0.2,0.5-0.4,0.7
							c-0.3,0.2-0.7,0.3-1.1,0.3s-0.9-0.1-1.5-0.4c-0.6-0.2-1.2-0.6-1.7-1v2.1c0.7,0.3,1.3,0.6,1.8,0.7s1,0.2,1.6,0.2
							c1,0,1.8-0.3,2.5-0.8c0.6-0.5,1-1.2,1-2C514.3,363.2,513.4,362.1,511.7,361.2z"/>
						<path d="M532.2,357.9c-0.6-0.7-1.4-1.1-2.4-1.1c-1.2,0-2.3,0.6-3.3,1.8c-0.7-1.2-1.7-1.8-3-1.8c-1,0-2,0.5-3,1.5V357h-2v10.1
							h2v-7.3c0.4-0.5,0.8-0.8,1.2-1c0.3-0.2,0.7-0.3,1.1-0.3c0.7,0,1.3,0.2,1.6,0.7c0.3,0.4,0.4,1.2,0.4,2.3v5.6h2v-7.3
							c0.7-0.8,1.5-1.2,2.3-1.2c0.6,0,1.1,0.2,1.5,0.7c0.3,0.4,0.5,1.1,0.5,1.9v6h2v-5.9C533.2,359.6,532.8,358.5,532.2,357.9z"/>
					</g>
				</g>
			</g>
		</g>
	</g>
	<g>
		<path d="M87.3,331.5c-0.4-0.5-1-1.2-2.9-2.9l1.8-1.1c1.9,1.7,4.2,4.2,6.8,7.5l-1.9,1.3c-1.1-1.5-1.4-1.9-2.4-3.2"/>
	</g>
	<path class="st2" d="M70.9,335.5c0,0-1.2,0-1.7,0.1s-0.5,0.1-0.6,0.2c-0.1,0.1,1.5,0.1,1.5,0.1L70.9,335.5z"/>
</g>
</svg>
