<?xml version="1.0" encoding="UTF-8" standalone="no"?>
<!-- Created with Inkscape (http://www.inkscape.org/) -->

<svg
   xmlns:dc="http://purl.org/dc/elements/1.1/"
   xmlns:cc="http://creativecommons.org/ns#"
   xmlns:rdf="http://www.w3.org/1999/02/22-rdf-syntax-ns#"
   xmlns:svg="http://www.w3.org/2000/svg"
   xmlns="http://www.w3.org/2000/svg"
   xmlns:sodipodi="http://sodipodi.sourceforge.net/DTD/sodipodi-0.dtd"
   xmlns:inkscape="http://www.inkscape.org/namespaces/inkscape"
   version="1.0"
   width="500"
   height="88"
   id="svg12704"
   sodipodi:version="0.32"
   inkscape:version="0.48.1 "
   sodipodi:docname="Laurentian_University text.svg"
   inkscape:output_extension="org.inkscape.output.svg.inkscape">
  <metadata
     id="metadata59">
    <rdf:RDF>
      <cc:Work
         rdf:about="">
        <dc:format>image/svg+xml</dc:format>
        <dc:type
           rdf:resource="http://purl.org/dc/dcmitype/StillImage" />
        <dc:title></dc:title>
      </cc:Work>
    </rdf:RDF>
  </metadata>
  <sodipodi:namedview
     inkscape:window-height="573"
     inkscape:window-width="744"
     inkscape:pageshadow="2"
     inkscape:pageopacity="0.0"
     guidetolerance="10.0"
     gridtolerance="10.0"
     objecttolerance="10.0"
     borderopacity="1.0"
     bordercolor="#666666"
     pagecolor="#ffffff"
     id="base"
     inkscape:zoom="2.2362214"
     inkscape:cx="256.34232"
     inkscape:cy="49.185321"
     inkscape:window-x="567"
     inkscape:window-y="39"
     inkscape:current-layer="svg12704"
     showgrid="false"
     inkscape:window-maximized="1" />
  <defs
     id="defs12706" />
  <g
     id="g3206"
     transform="matrix(1.2455067,0,0,1.2455067,-121.11744,66.905818)">
    <polygon
       id="polygon6832"
       style="font-style:normal;font-variant:normal;font-weight:normal;font-stretch:normal;letter-spacing:normal;word-spacing:normal;text-anchor:start;fill:#005daa;fill-opacity:1;fill-rule:nonzero;stroke:#005daa;stroke-width:0;stroke-linecap:butt;stroke-linejoin:miter;stroke-miterlimit:10.43299961;stroke-opacity:1;stroke-dasharray:none;stroke-dashoffset:0"
       transform="matrix(1.9070664,0,0,-1.9070664,-337.25319,1281.1701)"
       points="229.27,682.87 229.27,697.99 229.27,697.99 233.34,697.99 233.34,685.95 238.31,685.95 238.31,682.87 " />
    <path
       inkscape:connector-curvature="0"
       id="path6834"
       style="font-style:normal;font-variant:normal;font-weight:normal;font-stretch:normal;letter-spacing:normal;word-spacing:normal;text-anchor:start;fill:#005daa;fill-opacity:1;fill-rule:nonzero;stroke:#005daa;stroke-width:0;stroke-linecap:butt;stroke-linejoin:miter;stroke-miterlimit:10.43299961;stroke-opacity:1;stroke-dasharray:none;stroke-dashoffset:0"
       d="m 129.83804,-43.153162 c -3.58528,0 -6.28381,0.762836 -8.05741,1.430309 l 0.28606,5.33982 c 1.56379,-0.991674 3.8714,-2.050108 6.19801,-2.050109 2.91781,0 4.00488,1.582884 4.00486,2.955972 l 0,0.6198 -1.90708,0 c -7.4757,0 -11.06105,2.603193 -11.06105,7.38993 0,4.138334 2.73669,6.865483 6.53174,6.865483 2.59361,0 4.30049,-1.096585 6.43639,-3.480418 0,0.991674 0.16212,1.945226 0.23839,2.955971 l 6.6271,0 -0.0476,-0.238384 0,-0.238385 -0.0476,-0.286062 0,-0.286062 -0.0476,-0.286062 0,-0.286061 -0.0476,-0.286062 0,-0.286062 0,-0.286062 -0.0476,-0.333739 0,-0.333738 0,-0.286062 -0.0476,-0.667478 0,-0.6198 0,-9.297008 c 0,-4.405325 -1.47805,-8.009731 -9.01095,-8.009731 z m 1.57334,11.63318 0.85818,0 0,0.667477 c 0,2.040561 -0.38146,5.530528 -3.81416,5.530528 -1.52564,0 -2.52689,-0.762843 -2.52687,-2.66991 0,-2.517327 2.1836,-3.528095 5.48285,-3.528095 z" />
    <path
       inkscape:connector-curvature="0"
       id="path6838"
       style="font-style:normal;font-variant:normal;font-weight:normal;font-stretch:normal;letter-spacing:normal;word-spacing:normal;text-anchor:start;fill:#005daa;fill-opacity:1;fill-rule:nonzero;stroke:#005daa;stroke-width:0;stroke-linecap:butt;stroke-linejoin:miter;stroke-miterlimit:10.43299961;stroke-opacity:1;stroke-dasharray:none;stroke-dashoffset:0"
       d="m 162.5317,-24.674547 0,0.305131 0.0191,0.28606 0,0.28606 0,0.28606 0.0191,0.266989 0,0.133495 0.0191,0.114424 0,0.133494 0.0191,0.114424 0,0.133495 0,0.114424 0.0191,0.114424 0,0.114424 0.0191,0.09535 0,0.114424 0.0191,0.09535 0,0.09535 0.0191,0.09535 0,0.09535 0.0191,0.07628 0.0191,0.09535 0,0.07628 0.0191,0.07628 0,0.05721 0.0191,0.07628 0.0191,0.05721 0,0.05721 -6.96079,0 c -0.1335,-0.87725 -0.17164,-2.402903 -0.17164,-3.604355 l -0.0763,0 c -0.41956,1.16331 -1.84986,4.100193 -6.06447,4.100193 -3.66157,0 -6.52217,-2.193127 -6.52217,-6.941722 l 0,-15.084895 7.43756,0 0,12.92991 c 0,2.059632 0.61026,3.051306 2.09777,3.051306 2.15499,0 2.59361,-1.926137 2.59361,-3.547143 l 0,-12.434073 7.41849,0 0,17.964565 z" />
    <path
       inkscape:connector-curvature="0"
       id="path6840"
       style="font-style:normal;font-variant:normal;font-weight:normal;font-stretch:normal;letter-spacing:normal;word-spacing:normal;text-anchor:start;fill:#005daa;fill-opacity:1;fill-rule:nonzero;stroke:#005daa;stroke-width:0;stroke-linecap:butt;stroke-linejoin:miter;stroke-miterlimit:10.43299961;stroke-opacity:1;stroke-dasharray:none;stroke-dashoffset:0"
       d="m 166.65096,-36.403005 0,-0.28606 0,-0.266989 0,-0.28606 0,-0.26699 0,-0.266989 0,-0.247919 0,-0.247918 -0.0191,-0.247919 0,-0.247918 0,-0.228848 -0.0191,-0.228848 0,-0.228848 0,-0.228848 -0.0191,-0.209778 0,-0.209777 -0.0191,-0.190707 0,-0.190706 0,-0.190707 -0.0191,-0.190706 0,-0.171636 -0.0191,-0.171636 -0.0191,-0.152566 0,-0.171636 -0.0191,-0.152565 0,-0.133495 -0.0191,-0.133494 0,-0.133495 -0.0191,-0.133495 -0.0191,-0.114424 0,-0.114424 -0.0191,-0.09535 0,-0.09535 6.96079,0 c 0.11442,0.87725 0.17164,2.402903 0.17164,3.604355 l 0.0763,0 c 0.61026,-1.697289 1.94521,-4.100192 5.49235,-4.100192 0.53398,0 0.7819,0.03814 1.22052,0.133494 l 0,6.484026 c -0.3242,-0.133495 -1.35402,-0.247919 -2.2122,-0.247919 -2.4029,0 -4.04298,2.097773 -4.04298,4.958373 l 0,10.698642 -7.43756,0 0,-15.294672 z" />
    <path
       inkscape:connector-curvature="0"
       id="path6842"
       style="font-style:normal;font-variant:normal;font-weight:normal;font-stretch:normal;letter-spacing:normal;word-spacing:normal;text-anchor:start;fill:#005daa;fill-opacity:1;fill-rule:nonzero;stroke:#005daa;stroke-width:0;stroke-linecap:butt;stroke-linejoin:miter;stroke-miterlimit:10.43299961;stroke-opacity:1;stroke-dasharray:none;stroke-dashoffset:0"
       d="m 192.15183,-43.153162 c -6.46495,0 -9.9645,5.244505 -9.96448,11.15641 0,5.530493 2.50786,11.432936 11.20408,11.394795 3.01317,-0.05721 5.75941,-0.667481 7.53296,-1.239601 l -0.19071,-5.196789 c -1.8117,0.781897 -4.27188,1.71637 -6.29335,1.71637 l -0.23839,0 -0.23838,0 -0.28607,-0.04768 -0.23838,0 -0.23839,-0.04768 -0.23838,0 -0.23839,-0.09535 -0.23838,-0.04768 -0.23839,-0.04768 -0.1907,-0.04768 -0.23839,-0.09535 -0.23838,-0.09535 -0.19071,-0.09535 -0.19071,-0.09535 -0.19071,-0.143031 -0.1907,-0.09535 -0.19071,-0.143031 -0.14296,-0.143031 -0.14295,-0.143031 -0.19071,-0.190707 -0.14295,-0.143031 -0.14296,-0.190708 -0.0953,-0.238385 -0.14296,-0.190708 -0.0953,-0.238385 -0.0953,-0.238384 -0.0954,-0.238385 -0.0476,-0.286062 -0.0954,-0.286062 0,-0.286062 -0.0476,-0.286061 -0.0476,-0.333739 12.96813,0 0,-2.097787 c 0,-5.873764 -3.18485,-11.204087 -9.91681,-11.204087 z m 0.14296,4.576989 c 2.23126,0 3.00363,1.344509 3.00364,4.24325 l 0,0.619801 -6.38871,0 c 0,-2.975024 1.28731,-4.863051 3.38507,-4.863051 z" />
    <path
       inkscape:connector-curvature="0"
       id="path6846"
       style="font-style:normal;font-variant:normal;font-weight:normal;font-stretch:normal;letter-spacing:normal;word-spacing:normal;text-anchor:start;fill:#005daa;fill-opacity:1;fill-rule:nonzero;stroke:#005daa;stroke-width:0;stroke-linecap:butt;stroke-linejoin:miter;stroke-miterlimit:10.43299961;stroke-opacity:1;stroke-dasharray:none;stroke-dashoffset:0"
       d="m 205.6314,-38.25286 0,-0.30513 0,-0.305131 -0.0191,-0.610261 0,-0.324201 -0.0191,-0.28606 -0.0191,-0.305131 -0.0191,-0.28606 -0.0191,-0.28606 -0.0191,-0.28606 -0.0191,-0.266989 -0.0191,-0.247919 0,-0.133494 -0.0191,-0.114424 -0.0191,-0.114424 0,-0.114424 -0.0191,-0.09535 0,-0.114424 -0.0191,-0.09535 -0.0191,-0.09535 6.97987,0 c 0.11442,0.87725 0.15256,2.402903 0.15256,3.604355 l 0.0954,0 c 0.40048,-1.16331 1.84985,-4.100192 6.06447,-4.100192 3.66156,0 6.50309,2.193126 6.50309,6.941721 l 0,15.084895 -7.41849,0 0,-12.92991 c 0,-2.059631 -0.62933,-3.070377 -2.02149,-3.070377 -1.84985,0 -2.66989,1.945208 -2.66989,4.176476 l 0,11.823811 -7.43756,0 0,-17.144527 z" />
    <path
       inkscape:connector-curvature="0"
       id="path6848"
       style="font-style:normal;font-variant:normal;font-weight:normal;font-stretch:normal;letter-spacing:normal;word-spacing:normal;text-anchor:start;fill:#005daa;fill-opacity:1;fill-rule:nonzero;stroke:#005daa;stroke-width:0;stroke-linecap:butt;stroke-linejoin:miter;stroke-miterlimit:10.43299961;stroke-opacity:1;stroke-dasharray:none;stroke-dashoffset:0"
       d="m 227.79151,-42.639112 3.66157,0 0,-4.538818 7.41849,-2.326621 0,6.865439 4.17647,0 0,5.034655 -4.17647,0 0,9.172989 c 0,1.830784 1.1061,2.612681 2.44104,2.612681 0.74376,0 1.39216,-0.133494 1.73543,-0.343272 l 0.19071,5.053726 c -0.95353,0.190707 -2.74617,0.495838 -4.90116,0.495838 -4.08112,0 -6.88451,-2.307551 -6.88451,-6.331461 l 0,-10.660501 -3.66157,0 0,-5.034655 z" />
    <polygon
       id="polygon6850"
       style="font-style:normal;font-variant:normal;font-weight:normal;font-stretch:normal;letter-spacing:normal;word-spacing:normal;text-anchor:start;fill:#005daa;fill-opacity:1;fill-rule:nonzero;stroke:#005daa;stroke-width:0;stroke-linecap:butt;stroke-linejoin:miter;stroke-miterlimit:10.43299961;stroke-opacity:1;stroke-dasharray:none;stroke-dashoffset:0"
       transform="matrix(1.9070664,0,0,-1.9070664,-337.25319,1281.1701)"
       points="310.23,699.12 306.34,699.12 306.34,695.87 306.34,695.87 310.23,695.87 " />
    <polygon
       id="polygon6852"
       style="font-style:normal;font-variant:normal;font-weight:normal;font-stretch:normal;letter-spacing:normal;word-spacing:normal;text-anchor:start;fill:#005daa;fill-opacity:1;fill-rule:nonzero;stroke:#005daa;stroke-width:0;stroke-linecap:butt;stroke-linejoin:miter;stroke-miterlimit:10.43299961;stroke-opacity:1;stroke-dasharray:none;stroke-dashoffset:0"
       transform="matrix(1.9070664,0,0,-1.9070664,-337.25319,1281.1701)"
       points="310.23,694.16 306.34,694.16 306.34,682.87 306.34,682.87 310.23,682.87 " />
    <path
       inkscape:connector-curvature="0"
       id="path6854"
       style="font-style:normal;font-variant:normal;font-weight:normal;font-stretch:normal;letter-spacing:normal;word-spacing:normal;text-anchor:start;fill:#005daa;fill-opacity:1;fill-rule:nonzero;stroke:#005daa;stroke-width:0;stroke-linecap:butt;stroke-linejoin:miter;stroke-miterlimit:10.43299961;stroke-opacity:1;stroke-dasharray:none;stroke-dashoffset:0"
       d="m 268.62568,-43.153162 c -3.60434,0 -6.28384,0.762836 -8.0574,1.430309 l 0.23838,5.33982 c 1.56379,-0.991674 3.89047,-2.050108 6.19801,-2.050109 2.93688,0 4.00486,1.582884 4.00486,2.955972 l 0,0.6198 -1.8594,0 c -7.4757,0 -11.06104,2.603193 -11.06106,7.38993 0,4.138334 2.73668,6.865483 6.53175,6.865483 2.59361,0 4.2528,-1.096585 6.38871,-3.480418 0,0.991674 0.20977,1.945226 0.28606,2.955971 l 6.57943,0 0,-0.238384 -0.0476,-0.238385 -0.0476,-0.286062 0,-0.286062 0,-0.286062 -0.0476,-0.286061 0,-0.286062 -0.0476,-0.286062 0,-0.286062 0,-0.333739 0,-0.333738 -0.0476,-0.286062 0,-0.667478 0,-0.6198 0,-9.297008 c 0,-4.405325 -1.47803,-8.009731 -9.01094,-8.009731 z m 1.52567,11.63318 0.85818,0 0,0.667477 c 0,2.040561 -0.33375,5.530528 -3.76648,5.530528 -1.52565,0 -2.57455,-0.762843 -2.57455,-2.66991 0,-2.517327 2.18363,-3.528095 5.48285,-3.528095 z" />
    <path
       inkscape:connector-curvature="0"
       id="path6858"
       style="font-style:normal;font-variant:normal;font-weight:normal;font-stretch:normal;letter-spacing:normal;word-spacing:normal;text-anchor:start;fill:#005daa;fill-opacity:1;fill-rule:nonzero;stroke:#005daa;stroke-width:0;stroke-linecap:butt;stroke-linejoin:miter;stroke-miterlimit:10.43299961;stroke-opacity:1;stroke-dasharray:none;stroke-dashoffset:0"
       d="m 281.76149,-38.25286 0,-0.30513 -0.0191,-0.305131 -0.0191,-0.610261 0,-0.324201 -0.0191,-0.28606 -0.0191,-0.305131 -0.0191,-0.28606 -0.0191,-0.28606 -0.0191,-0.28606 -0.0191,-0.266989 -0.0191,-0.247919 0,-0.133494 -0.0191,-0.114424 -0.0191,-0.114424 0,-0.114424 -0.0191,-0.09535 0,-0.114424 -0.0191,-0.09535 -0.0191,-0.09535 6.97987,0 c 0.11442,0.87725 0.17163,2.402903 0.17163,3.604355 l 0.0763,0 c 0.40048,-1.16331 1.84985,-4.100192 6.06447,-4.100192 3.66156,0 6.52216,2.193126 6.52216,6.941721 l 0,15.084895 -7.43756,0 0,-12.92991 c 0,-2.059631 -0.61026,-3.070377 -2.02149,-3.070377 -1.84985,0 -2.66989,1.945208 -2.66989,4.176476 l 0,11.823811 -7.41849,0 0,-17.144527 z" />
    <path
       inkscape:connector-curvature="0"
       id="path6860"
       style="font-style:normal;font-variant:normal;font-weight:normal;font-stretch:normal;letter-spacing:normal;word-spacing:normal;text-anchor:start;fill:#005daa;fill-opacity:1;fill-rule:nonzero;stroke:#005daa;stroke-width:0;stroke-linecap:butt;stroke-linejoin:miter;stroke-miterlimit:10.43299961;stroke-opacity:1;stroke-dasharray:none;stroke-dashoffset:0"
       d="m 306.64871,-49.943177 2.55547,0 0,18.174343 c 0,4.329041 0.83911,8.543658 5.98819,8.543658 5.39699,0 5.96911,-4.672313 5.96911,-8.543658 l 0,-18.174343 2.57454,0 0,18.212485 c 0,5.702128 -1.86892,10.908419 -8.54365,10.908419 -6.67474,0 -8.54366,-4.710454 -8.54366,-10.908419 l 0,-18.212485 z" />
    <path
       inkscape:connector-curvature="0"
       id="path6862"
       style="font-style:normal;font-variant:normal;font-weight:normal;font-stretch:normal;letter-spacing:normal;word-spacing:normal;text-anchor:start;fill:#005daa;fill-opacity:1;fill-rule:nonzero;stroke:#005daa;stroke-width:0;stroke-linecap:butt;stroke-linejoin:miter;stroke-miterlimit:10.43299961;stroke-opacity:1;stroke-dasharray:none;stroke-dashoffset:0"
       d="m 329.83864,-35.659249 -0.0191,-0.820039 0,-0.800968 -0.0381,-0.820038 -0.0191,-0.820039 -0.0572,-1.621006 -0.0191,-0.820039 -0.0191,-0.820038 2.23127,0 c 0.0763,0.934462 0.11442,1.563794 0.15256,3.089447 l 0.0954,0 c 0.49583,-0.896321 1.84985,-3.375507 5.35885,-3.375507 5.79749,0 5.79749,5.816552 5.79749,7.227781 l 0,14.131362 -2.38384,0 0,-14.207644 c 0,-1.449371 0,-4.920232 -3.92855,-4.920232 -2.91782,0 -4.76767,2.765247 -4.76767,6.02633 l 0,13.101546 -2.38383,0 0,-14.550916 z" />
    <polygon
       id="polygon6864"
       style="font-style:normal;font-variant:normal;font-weight:normal;font-stretch:normal;letter-spacing:normal;word-spacing:normal;text-anchor:start;fill:#005daa;fill-opacity:1;fill-rule:nonzero;stroke:#005daa;stroke-width:0;stroke-linecap:butt;stroke-linejoin:miter;stroke-miterlimit:10.43299961;stroke-opacity:1;stroke-dasharray:none;stroke-dashoffset:0"
       transform="matrix(1.9070664,0,0,-1.9070664,-337.25319,1281.1701)"
       points="361.3,698.32 359.79,698.32 359.79,696.37 359.79,696.37 361.3,696.37 " />
    <polygon
       id="polygon6866"
       style="font-style:normal;font-variant:normal;font-weight:normal;font-stretch:normal;letter-spacing:normal;word-spacing:normal;text-anchor:start;fill:#005daa;fill-opacity:1;fill-rule:nonzero;stroke:#005daa;stroke-width:0;stroke-linecap:butt;stroke-linejoin:miter;stroke-miterlimit:10.43299961;stroke-opacity:1;stroke-dasharray:none;stroke-dashoffset:0"
       transform="matrix(1.9070664,0,0,-1.9070664,-337.25319,1281.1701)"
       points="361.17,693.92 359.91,693.92 359.91,682.87 359.91,682.87 361.17,682.87 " />
    <polygon
       id="polygon6868"
       style="font-style:normal;font-variant:normal;font-weight:normal;font-stretch:normal;letter-spacing:normal;word-spacing:normal;text-anchor:start;fill:#005daa;fill-opacity:1;fill-rule:nonzero;stroke:#005daa;stroke-width:0;stroke-linecap:butt;stroke-linejoin:miter;stroke-miterlimit:10.43299961;stroke-opacity:1;stroke-dasharray:none;stroke-dashoffset:0"
       transform="matrix(1.9070664,0,0,-1.9070664,-337.25319,1281.1701)"
       points="366.98,684.3 369.69,693.92 370.94,693.92 367.72,682.87 366.21,682.87 362.98,693.92 362.98,693.92 364.32,693.92 366.94,684.3 " />
    <path
       inkscape:connector-curvature="0"
       id="path6870"
       style="font-style:normal;font-variant:normal;font-weight:normal;font-stretch:normal;letter-spacing:normal;word-spacing:normal;text-anchor:start;fill:#005daa;fill-opacity:1;fill-rule:nonzero;stroke:#005daa;stroke-width:0;stroke-linecap:butt;stroke-linejoin:miter;stroke-miterlimit:10.43299961;stroke-opacity:1;stroke-dasharray:none;stroke-dashoffset:0"
       d="m 379.76069,-42.485684 c -3.54715,0 -7.43762,2.908345 -7.43761,10.822671 0,2.116844 0.009,10.822671 8.24812,10.822671 2.51733,0 3.89045,-0.657945 4.86305,-1.191924 l -0.0953,-2.765264 c -1.20145,1.067957 -3.17527,1.764048 -4.52932,1.764048 l -0.0953,0 -0.14295,0 -0.14296,0 -0.14295,-0.04768 -0.19071,0 -0.19071,-0.04768 -0.19071,0 -0.23838,-0.04768 -0.23839,-0.04768 -0.23838,-0.09535 -0.23839,-0.04768 -0.23838,-0.09535 -0.28606,-0.143031 -0.23839,-0.09535 -0.28629,-0.143031 -0.23838,-0.190707 -0.23839,-0.190708 -0.28606,-0.238385 -0.19071,-0.238385 -0.14295,-0.143031 -0.14296,-0.09535 -0.0953,-0.190708 -0.0954,-0.143031 -0.0953,-0.14303 -0.14295,-0.190708 -0.0954,-0.143031 -0.0953,-0.190708 -0.0954,-0.190708 -0.0953,-0.238385 -0.0953,-0.190708 -0.0476,-0.190707 -0.0954,-0.238385 -0.0953,-0.238385 -0.0476,-0.286062 -0.0954,-0.238385 -0.0476,-0.238385 -0.0476,-0.286061 -0.0476,-0.286062 -0.0476,-0.286062 -0.0476,-0.333739 0,-0.286062 -0.0476,-0.333738 0,-0.333739 -0.0476,-0.381416 0,-0.333739 11.63318,0 c 0,-5.130008 -0.61983,-11.633179 -6.72245,-11.633179 z m -0.14295,2.240817 0.1907,0 0.19071,0.04768 0.19071,0 0.19071,0.04768 0.19071,0.04768 0.1907,0.04768 0.19071,0.04768 0.19071,0.09535 0.19071,0.09535 0.1907,0.09535 0.14296,0.143031 0.19071,0.143031 0.14295,0.143031 0.19071,0.14303 0.19071,0.190708 0.14295,0.190708 0.14296,0.238385 0.14295,0.238385 0.14296,0.238385 0.14295,0.238384 0.14296,0.286062 0.0953,0.286062 0.0953,0.333739 0.0954,0.333739 0.0953,0.381415 0.0953,0.381416 0.0476,0.381416 0.0476,0.429092 0.0476,0.238385 0,0.190708 0.0476,0.238385 0,0.238385 0,0.238385 0,0.238384 0,0.286062 0,0.238385 -9.05863,0 c 0,-2.727105 1.5257,-7.151545 4.7677,-7.151545 z" />
    <path
       inkscape:connector-curvature="0"
       id="path6874"
       style="font-style:normal;font-variant:normal;font-weight:normal;font-stretch:normal;letter-spacing:normal;word-spacing:normal;text-anchor:start;fill:#005daa;fill-opacity:1;fill-rule:nonzero;stroke:#005daa;stroke-width:0;stroke-linecap:butt;stroke-linejoin:miter;stroke-miterlimit:10.43299961;stroke-opacity:1;stroke-dasharray:none;stroke-dashoffset:0"
       d="m 390.97919,-35.659249 0,-0.820039 -0.0191,-0.800968 -0.0191,-0.820038 -0.0191,-0.820039 -0.0572,-1.621006 -0.0381,-0.820039 -0.0191,-0.820038 2.23127,0 c 0.0381,1.239593 0.13349,2.479186 0.17163,3.356437 l 0.0763,0 c 1.52565,-3.032236 3.29922,-3.642497 5.62584,-3.642497 l 0,2.555469 c -3.81413,0 -5.53049,1.659147 -5.53049,5.530492 l 0,13.273182 -2.4029,0 0,-14.550916 z" />
    <path
       inkscape:connector-curvature="0"
       id="path6876"
       style="font-style:normal;font-variant:normal;font-weight:normal;font-stretch:normal;letter-spacing:normal;word-spacing:normal;text-anchor:start;fill:#005daa;fill-opacity:1;fill-rule:nonzero;stroke:#005daa;stroke-width:0;stroke-linecap:butt;stroke-linejoin:miter;stroke-miterlimit:10.43299961;stroke-opacity:1;stroke-dasharray:none;stroke-dashoffset:0"
       d="m 411.13688,-39.378029 -0.20978,-0.07628 -0.22885,-0.09535 -0.20978,-0.07628 -0.20977,-0.07628 -0.22885,-0.07628 -0.20978,-0.07628 -0.20978,-0.05721 -0.20977,-0.07628 -0.22885,-0.03814 -0.20978,-0.05721 -0.22885,-0.05721 -0.22884,-0.01907 -0.22885,-0.03814 -0.24792,-0.01907 -0.11442,-0.01907 -0.11443,0 -0.13349,0 -0.1335,0 c -2.46011,0 -3.58528,1.849855 -3.58528,3.337367 0,1.945207 0.74375,2.364762 3.58528,3.928556 2.89874,1.563795 5.11094,2.650823 5.11094,6.02633 0,3.814133 -2.66989,6.121683 -6.21704,6.121683 -2.59361,0 -4.08112,-0.533978 -5.32071,-0.991674 l 0.34327,-2.688964 c 0.68654,0.495838 2.82246,1.449371 4.76767,1.449371 2.26941,0 3.87134,-1.735431 3.87134,-3.642497 0,-2.021491 -1.27773,-2.841529 -3.73785,-4.081122 -3.54714,-1.792643 -4.95837,-2.898741 -4.95837,-5.873765 0,-3.966698 3.39458,-5.816552 6.17889,-5.816552 1.41123,0 3.10852,0.362342 3.89042,0.610261 l -0.34327,2.479186 z" />
    <polygon
       id="polygon6878"
       style="font-style:normal;font-variant:normal;font-weight:normal;font-stretch:normal;letter-spacing:normal;word-spacing:normal;text-anchor:start;fill:#005daa;fill-opacity:1;fill-rule:nonzero;stroke:#005daa;stroke-width:0;stroke-linecap:butt;stroke-linejoin:miter;stroke-miterlimit:10.43299961;stroke-opacity:1;stroke-dasharray:none;stroke-dashoffset:0"
       transform="matrix(1.9070664,0,0,-1.9070664,-337.25319,1281.1701)"
       points="396.98,698.32 395.46,698.32 395.46,696.37 395.46,696.37 396.98,696.37 " />
    <polygon
       id="polygon6880"
       style="font-style:normal;font-variant:normal;font-weight:normal;font-stretch:normal;letter-spacing:normal;word-spacing:normal;text-anchor:start;fill:#005daa;fill-opacity:1;fill-rule:nonzero;stroke:#005daa;stroke-width:0;stroke-linecap:butt;stroke-linejoin:miter;stroke-miterlimit:10.43299961;stroke-opacity:1;stroke-dasharray:none;stroke-dashoffset:0"
       transform="matrix(1.9070664,0,0,-1.9070664,-337.25319,1281.1701)"
       points="396.85,693.92 395.59,693.92 395.59,682.87 395.59,682.87 396.85,682.87 " />
    <path
       inkscape:connector-curvature="0"
       id="path6882"
       style="font-style:normal;font-variant:normal;font-weight:normal;font-stretch:normal;letter-spacing:normal;word-spacing:normal;text-anchor:start;fill:#005daa;fill-opacity:1;fill-rule:nonzero;stroke:#005daa;stroke-width:0;stroke-linecap:butt;stroke-linejoin:miter;stroke-miterlimit:10.43299961;stroke-opacity:1;stroke-dasharray:none;stroke-dashoffset:0"
       d="m 428.83445,-47.139789 0,4.958373 4.2909,0 0,2.231267 -4.2909,0 0,13.711808 c 0,1.697289 0.28606,3.184801 2.30755,3.184801 1.1061,0 1.52566,-0.247919 1.98335,-0.457696 l 0,2.402903 c -0.57212,0.190707 -1.65914,0.28606 -2.76524,0.28606 -3.08945,0 -3.90949,-2.402903 -3.90949,-4.767666 l 0,-14.36021 -3.14666,0 0,-2.231267 3.14666,0 0,-4.214617 2.38383,-0.743756 z" />
    <path
       inkscape:connector-curvature="0"
       id="path6884"
       style="font-style:normal;font-variant:normal;font-weight:normal;font-stretch:normal;letter-spacing:normal;word-spacing:normal;text-anchor:start;fill:#005daa;fill-opacity:1;fill-rule:nonzero;stroke:#005daa;stroke-width:0;stroke-linecap:butt;stroke-linejoin:miter;stroke-miterlimit:10.43299961;stroke-opacity:1;stroke-dasharray:none;stroke-dashoffset:0"
       d="m 442.88953,-24.674547 0.0763,0 4.71045,-17.506869 2.38383,0 -6.88451,24.98257 c -0.78189,2.860599 -1.44937,5.263503 -4.78673,5.263503 -0.64841,0 -1.02982,-0.07628 -1.60194,-0.266989 l 0.1335,-2.421975 c 0.40048,0.28606 1.14423,0.457696 1.67821,0.457696 1.14424,0 1.77358,-1.125169 2.13592,-2.441045 l 1.08703,-4.004839 -6.19797,-21.568921 2.55547,0 4.71045,17.506869 z" />
    <path
       inkscape:connector-curvature="0"
       id="path6886"
       style="font-style:normal;font-variant:normal;font-weight:normal;font-stretch:normal;letter-spacing:normal;word-spacing:normal;text-anchor:start;fill:#005daa;fill-opacity:1;fill-rule:nonzero;stroke:#005daa;stroke-width:0;stroke-linecap:butt;stroke-linejoin:miter;stroke-miterlimit:10.43299961;stroke-opacity:1;stroke-dasharray:none;stroke-dashoffset:0"
       d="m 99.998994,-14.014046 2.555466,0 0,18.1743432 c 0,4.3290408 0.82004,8.5436578 5.96912,8.5436578 5.41607,0 5.98819,-4.672313 5.98819,-8.5436578 l 0,-18.1743432 2.55547,0 0,18.2124846 c 0,5.7021285 -1.86893,10.9084194 -8.54366,10.9084194 -6.67473,0 -8.524586,-4.710454 -8.524586,-10.9084194 l 0,-18.2124846 z" />
    <path
       inkscape:connector-curvature="0"
       id="path6888"
       style="font-style:normal;font-variant:normal;font-weight:normal;font-stretch:normal;letter-spacing:normal;word-spacing:normal;text-anchor:start;fill:#005daa;fill-opacity:1;fill-rule:nonzero;stroke:#005daa;stroke-width:0;stroke-linecap:butt;stroke-linejoin:miter;stroke-miterlimit:10.43299961;stroke-opacity:1;stroke-dasharray:none;stroke-dashoffset:0"
       d="m 123.16985,0.26988178 0,-0.82003856 -0.0191,-0.80096792 -0.0191,-0.8200385 -0.0381,-0.8200386 -0.0381,-1.6210064 -0.0381,-0.8200386 -0.0191,-0.8200385 2.23127,0 c 0.0763,0.9535332 0.11443,1.5637944 0.17164,3.1085182 l 0.0763,0 c 0.49584,-0.9153919 1.84986,-3.3945782 5.35886,-3.3945782 5.81655,0 5.81655,5.81655255 5.81655,7.22778168 l 0,14.13136162 -2.38383,0 0,-14.20764427 c 0,-1.44937047 0,-4.92023133 -3.92856,-4.92023133 -2.91781,0 -4.78674,2.7652463 -4.78674,6.0263298 l 0,13.1015458 -2.38383,0 0,-14.55091622 z" />
    <polygon
       id="polygon6890"
       style="font-style:normal;font-variant:normal;font-weight:normal;font-stretch:normal;letter-spacing:normal;word-spacing:normal;text-anchor:start;fill:#005daa;fill-opacity:1;fill-rule:nonzero;stroke:#005daa;stroke-width:0;stroke-linecap:butt;stroke-linejoin:miter;stroke-miterlimit:10.43299961;stroke-opacity:1;stroke-dasharray:none;stroke-dashoffset:0"
       transform="matrix(1.9070664,0,0,-1.9070664,-337.25319,1281.1701)"
       points="252.93,679.48 251.42,679.48 251.42,677.53 251.42,677.53 252.93,677.53 " />
    <polygon
       id="polygon6892"
       style="font-style:normal;font-variant:normal;font-weight:normal;font-stretch:normal;letter-spacing:normal;word-spacing:normal;text-anchor:start;fill:#005daa;fill-opacity:1;fill-rule:nonzero;stroke:#005daa;stroke-width:0;stroke-linecap:butt;stroke-linejoin:miter;stroke-miterlimit:10.43299961;stroke-opacity:1;stroke-dasharray:none;stroke-dashoffset:0"
       transform="matrix(1.9070664,0,0,-1.9070664,-337.25319,1281.1701)"
       points="252.8,675.08 251.55,675.08 251.55,664.03 251.55,664.03 252.8,664.03 " />
    <polygon
       id="polygon6894"
       style="font-style:normal;font-variant:normal;font-weight:normal;font-stretch:normal;letter-spacing:normal;word-spacing:normal;text-anchor:start;fill:#005daa;fill-opacity:1;fill-rule:nonzero;stroke:#005daa;stroke-width:0;stroke-linecap:butt;stroke-linejoin:miter;stroke-miterlimit:10.43299961;stroke-opacity:1;stroke-dasharray:none;stroke-dashoffset:0"
       transform="matrix(1.9070664,0,0,-1.9070664,-337.25319,1281.1701)"
       points="258.62,665.46 261.32,675.08 262.58,675.08 259.36,664.03 257.84,664.03 254.62,675.08 254.62,675.08 255.96,675.08 258.57,665.46 " />
    <path
       inkscape:connector-curvature="0"
       id="path6896"
       style="font-style:normal;font-variant:normal;font-weight:normal;font-stretch:normal;letter-spacing:normal;word-spacing:normal;text-anchor:start;fill:#005daa;fill-opacity:1;fill-rule:nonzero;stroke:#005daa;stroke-width:0;stroke-linecap:butt;stroke-linejoin:miter;stroke-miterlimit:10.43299961;stroke-opacity:1;stroke-dasharray:none;stroke-dashoffset:0"
       d="m 173.08104,-6.5372521 c -3.54715,0 -7.4376,2.8892745 -7.4376,10.8226712 0,2.1168436 0.009,10.8226699 8.24811,10.8226709 2.51733,0 3.91907,-0.657946 4.91073,-1.191924 l -0.14295,-2.765264 c -1.18239,1.067958 -3.15623,1.716372 -4.52932,1.716371 l -0.0953,0 -0.0953,0 -0.19071,0 -0.14296,0 -0.1907,-0.04768 -0.19071,0 -0.19071,0 -0.23838,-0.04768 -0.19071,-0.04768 -0.28606,-0.09535 -0.23839,-0.09535 -0.23838,-0.09535 -0.23839,-0.09535 -0.28606,-0.09535 -0.23839,-0.190707 -0.28606,-0.143031 -0.23838,-0.190708 -0.23839,-0.238385 -0.23838,-0.238385 -0.14296,-0.143031 -0.0953,-0.143031 -0.14295,-0.143031 -0.0954,-0.14303 -0.0953,-0.143031 -0.14296,-0.190708 -0.0953,-0.190708 -0.0953,-0.190708 -0.0954,-0.1907078 -0.0953,-0.1907079 -0.0954,-0.1907078 -0.0476,-0.2383849 -0.0953,-0.2383848 -0.0954,-0.2383848 -0.0476,-0.2383849 -0.0959,-0.2383848 -0.0476,-0.2860618 -0.0476,-0.2383848 -0.0476,-0.2860618 -0.0476,-0.3337388 -0.0476,-0.2860618 0,-0.3337387 -0.0476,-0.3337388 0,-0.3337387 0,-0.3337388 0,-0.3814157 11.63318,0 c 0,-5.11093869 -0.66749,-11.5855027 -6.77013,-11.5855027 z m -0.0953,2.2408174 0.19071,0 0.19071,0 0.1907,0.047677 0.19071,0 0.19071,0.047677 0.19071,0.047677 0.14295,0.095354 0.19071,0.095354 0.19071,0.095354 0.19071,0.095354 0.1907,0.095354 0.14296,0.1430309 0.19071,0.1430309 0.1907,0.1907078 0.14296,0.1907079 0.14295,0.1907079 0.14296,0.1907078 0.14295,0.2383848 0.14296,0.2383849 0.14295,0.2860618 0.14296,0.2860618 0.0953,0.2860618 0.14296,0.33373871 0.0953,0.33373876 0.0953,0.33373876 0.0476,0.38141573 0.0476,0.42909269 0.0954,0.38141572 0,0.23838483 0.0476,0.2383848 0,0.2383849 0,0.2383848 0.0476,0.2383848 0,0.2383848 0,0.2383849 0,0.2383848 -9.05862,0 c 0,-2.70803487 1.5066,-7.1038679 4.76769,-7.1038679 z" />
    <path
       inkscape:connector-curvature="0"
       id="path6900"
       style="font-style:normal;font-variant:normal;font-weight:normal;font-stretch:normal;letter-spacing:normal;word-spacing:normal;text-anchor:start;fill:#005daa;fill-opacity:1;fill-rule:nonzero;stroke:#005daa;stroke-width:0;stroke-linecap:butt;stroke-linejoin:miter;stroke-miterlimit:10.43299961;stroke-opacity:1;stroke-dasharray:none;stroke-dashoffset:0"
       d="m 184.32947,0.26988178 -0.0191,-0.82003856 0,-0.80096792 -0.0381,-0.8200385 -0.0191,-0.8200386 -0.0572,-1.6210064 -0.0191,-0.8200386 -0.0191,-0.8200385 2.2122,0 c 0.0572,1.2395931 0.1335,2.4791863 0.17164,3.3564369 l 0.0953,0 c 1.52565,-3.0322356 3.29923,-3.6424969 5.60678,-3.6424969 l 0,2.555469 c -3.79507,0 -5.5305,1.6591478 -5.5305,5.5495632 l 0,13.2541111 -2.38383,0 0,-14.55091622 z" />
    <path
       inkscape:connector-curvature="0"
       id="path6902"
       style="font-style:normal;font-variant:normal;font-weight:normal;font-stretch:normal;letter-spacing:normal;word-spacing:normal;text-anchor:start;fill:#005daa;fill-opacity:1;fill-rule:nonzero;stroke:#005daa;stroke-width:0;stroke-linecap:butt;stroke-linejoin:miter;stroke-miterlimit:10.43299961;stroke-opacity:1;stroke-dasharray:none;stroke-dashoffset:0"
       d="m 204.48716,-3.4488977 -0.22885,-0.076283 -0.20977,-0.095353 -0.22885,-0.076283 -0.20978,-0.076283 -0.20978,-0.076283 -0.20977,-0.076283 -0.22885,-0.057212 -0.20978,-0.057212 -0.20978,-0.057212 -0.22884,-0.057212 -0.22885,-0.057212 -0.22885,-0.038141 -0.22885,-0.019071 -0.22885,-0.019071 -0.13349,-0.019071 -0.11442,0 -0.1335,0 -0.11442,0 c -2.47919,0 -3.58529,1.8498544 -3.58529,3.33736622 0,1.94520772 0.74376,2.36476238 3.58529,3.92855678 2.87967,1.5637944 5.11094,2.6508223 5.11094,6.0263298 0,3.8141329 -2.68897,6.1216829 -6.21704,6.1216829 -2.61268,0 -4.10019,-0.533978 -5.33979,-0.991674 l 0.34327,-2.688964 c 0.70562,0.495837 2.84153,1.449371 4.78674,1.449371 2.25034,0 3.87135,-1.735431 3.87135,-3.6424972 0,-2.0214904 -1.27774,-2.841529 -3.75692,-4.0811221 -3.54715,-1.7735718 -4.95838,-2.898741 -4.95838,-5.87376455 0,-3.96669815 3.39458,-5.81655255 6.19797,-5.81655255 1.41123,0 3.08945,0.3623426 3.87134,0.6102613 l -0.3242,2.4791863 z" />
    <polygon
       id="polygon6904"
       style="font-style:normal;font-variant:normal;font-weight:normal;font-stretch:normal;letter-spacing:normal;word-spacing:normal;text-anchor:start;fill:#005daa;fill-opacity:1;fill-rule:nonzero;stroke:#005daa;stroke-width:0;stroke-linecap:butt;stroke-linejoin:miter;stroke-miterlimit:10.43299961;stroke-opacity:1;stroke-dasharray:none;stroke-dashoffset:0"
       transform="matrix(1.9070664,0,0,-1.9070664,-337.25319,1281.1701)"
       points="288.61,679.48 287.09,679.48 287.09,677.53 287.09,677.53 288.61,677.53 " />
    <polygon
       id="polygon6906"
       style="font-style:normal;font-variant:normal;font-weight:normal;font-stretch:normal;letter-spacing:normal;word-spacing:normal;text-anchor:start;fill:#005daa;fill-opacity:1;fill-rule:nonzero;stroke:#005daa;stroke-width:0;stroke-linecap:butt;stroke-linejoin:miter;stroke-miterlimit:10.43299961;stroke-opacity:1;stroke-dasharray:none;stroke-dashoffset:0"
       transform="matrix(1.9070664,0,0,-1.9070664,-337.25319,1281.1701)"
       points="288.48,675.08 287.23,675.08 287.23,664.03 287.23,664.03 288.48,664.03 " />
    <path
       inkscape:connector-curvature="0"
       id="path6908"
       style="font-style:normal;font-variant:normal;font-weight:normal;font-stretch:normal;letter-spacing:normal;word-spacing:normal;text-anchor:start;fill:#005daa;fill-opacity:1;fill-rule:nonzero;stroke:#005daa;stroke-width:0;stroke-linecap:butt;stroke-linejoin:miter;stroke-miterlimit:10.43299961;stroke-opacity:1;stroke-dasharray:none;stroke-dashoffset:0"
       d="m 222.16567,-11.210658 0,4.9583727 4.2909,0 0,2.2312677 -4.2909,0 0,13.7118074 c 0,1.6972892 0.30513,3.1848012 2.30755,3.1848012 1.12517,0 1.54472,-0.247919 1.98335,-0.457696 l 0,2.402903 c -0.57212,0.190707 -1.64008,0.28606 -2.76525,0.28606 -3.08945,0 -3.90949,-2.402903 -3.90949,-4.748595 l 0,-14.3792806 -3.12758,0 0,-2.2312677 3.12758,0 0,-4.2146167 2.38384,-0.743756 z" />
    <path
       inkscape:connector-curvature="0"
       id="path6910"
       style="font-style:normal;font-variant:normal;font-weight:normal;font-stretch:normal;letter-spacing:normal;word-spacing:normal;text-anchor:start;fill:#005daa;fill-opacity:1;fill-rule:nonzero;stroke:#005daa;stroke-width:0;stroke-linecap:butt;stroke-linejoin:miter;stroke-miterlimit:10.43299961;stroke-opacity:1;stroke-dasharray:none;stroke-dashoffset:0"
       d="m 236.53909,-6.5372521 c -3.54715,0 -7.4853,2.8892745 -7.48529,10.8226712 0,2.1168436 0.009,10.8226699 8.24812,10.8226709 2.51733,0 3.91904,-0.657946 4.91072,-1.191924 l -0.0953,-2.765264 c -1.20144,1.067958 -3.20392,1.716372 -4.57699,1.716371 l -0.0953,0 -0.0954,0 -0.14295,0 -0.19071,0 -0.14295,-0.04768 -0.19071,0 -0.23839,0 -0.23838,-0.04768 -0.19071,-0.04768 -0.23838,-0.09535 -0.23839,-0.09535 -0.28606,-0.09535 -0.23838,-0.09535 -0.23839,-0.09535 -0.28606,-0.190707 -0.23839,-0.143031 -0.28606,-0.190708 -0.23853,-0.238385 -0.23839,-0.238385 -0.14303,-0.143031 -0.0953,-0.143031 -0.0954,-0.143031 -0.14303,-0.14303 -0.0953,-0.143031 -0.0954,-0.190708 -0.14295,-0.190708 -0.0954,-0.190708 -0.0954,-0.1907078 -0.0953,-0.1907079 -0.0476,-0.1907078 -0.0954,-0.2383849 -0.0953,-0.2383848 -0.0476,-0.2383848 -0.0954,-0.2383849 -0.0476,-0.2383848 -0.0476,-0.2860618 -0.0954,-0.2383848 -0.0476,-0.2860618 -0.0476,-0.3337388 0,-0.2860618 -0.0476,-0.3337387 -0.0476,-0.3337388 0,-0.3337387 0,-0.3337388 0,-0.3814157 11.63317,0 c 0,-5.11093869 -0.61983,-11.5855027 -6.72245,-11.5855027 z m -0.14296,2.2408174 0.19071,0 0.19071,0 0.19071,0.047677 0.1907,0 0.19071,0.047677 0.19071,0.047677 0.19071,0.095354 0.14295,0.095354 0.19071,0.095354 0.19071,0.095354 0.1907,0.095354 0.14296,0.1430309 0.19071,0.1430309 0.19071,0.1907078 0.14295,0.1907079 0.14295,0.1907079 0.19071,0.1907078 0.14296,0.2383848 0.14295,0.2383849 0.0954,0.2860618 0.14295,0.2860618 0.14295,0.2860618 0.0954,0.33373871 0.0953,0.33373876 0.0954,0.33373876 0.0476,0.38141573 0.0953,0.42909269 0.0476,0.38141572 0,0.23838483 0.0476,0.2383848 0,0.2383849 0.0476,0.2383848 0,0.2383848 0,0.2383848 0,0.2383849 0,0.2383848 -9.05862,0 c 0,-2.70803487 1.52569,-7.1038679 4.7677,-7.1038679 z" />
    <polygon
       id="polygon6914"
       style="font-style:normal;font-variant:normal;font-weight:normal;font-stretch:normal;letter-spacing:normal;word-spacing:normal;text-anchor:start;fill:#005daa;fill-opacity:1;fill-rule:nonzero;stroke:#005daa;stroke-width:0;stroke-linecap:butt;stroke-linejoin:miter;stroke-miterlimit:10.43299961;stroke-opacity:1;stroke-dasharray:none;stroke-dashoffset:0"
       transform="matrix(1.9070664,0,0,-1.9070664,-337.25319,1281.1701)"
       points="299.68,676.73 301.32,679.8 302.84,679.8 302.84,679.8 300.76,676.73 " />
    <polygon
       id="polygon6916"
       style="font-style:normal;font-variant:normal;font-weight:normal;font-stretch:normal;letter-spacing:normal;word-spacing:normal;text-anchor:start;fill:#005daa;fill-opacity:1;fill-rule:nonzero;stroke:#005daa;stroke-width:0;stroke-linecap:butt;stroke-linejoin:miter;stroke-miterlimit:10.43299961;stroke-opacity:1;stroke-dasharray:none;stroke-dashoffset:0"
       transform="matrix(1.9070664,0,0,-1.9070664,-337.25319,1281.1701)"
       points="306.64,664.03 306.64,679.15 306.64,679.15 310.71,679.15 310.71,667.1 315.68,667.1 315.68,664.03 " />
    <path
       inkscape:connector-curvature="0"
       id="path6918"
       style="font-style:normal;font-variant:normal;font-weight:normal;font-stretch:normal;letter-spacing:normal;word-spacing:normal;text-anchor:start;fill:#005daa;fill-opacity:1;fill-rule:nonzero;stroke:#005daa;stroke-width:0;stroke-linecap:butt;stroke-linejoin:miter;stroke-miterlimit:10.43299961;stroke-opacity:1;stroke-dasharray:none;stroke-dashoffset:0"
       d="m 277.39825,-7.2047296 c -3.60435,0 -6.28381,0.762836 -8.05741,1.430309 l 0.23838,5.29214317 c 1.56379,-0.99167477 3.89044,-2.00243257 6.19801,-2.00243257 2.93688,0 4.05256,1.55427825 4.05254,2.90829492 l 0,0.66747748 -1.90708,0 c -7.4757,0 -11.06107,2.5555159 -11.06105,7.3422527 0,4.1383349 2.73668,6.8654829 6.53174,6.8654829 2.59361,0 4.30049,-1.048907 6.43639,-3.432741 0,0.991674 0.1621,1.964298 0.23839,2.955972 l 6.57942,0 0,-0.238385 0,-0.238385 -0.0476,-0.286062 -0.0476,-0.286062 0,-0.286062 0,-0.286061 -0.0476,-0.286062 0,-0.286062 -0.0476,-0.333739 0,-0.286061 0,-0.333739 0,-0.286062 -0.0476,-0.667478 0,-0.667477 0,-9.29700833 c 0,-4.42439337 -1.47806,-7.96205327 -9.01094,-7.96205327 z m 1.57334,11.6331796 0.85818,0 0,0.6674775 c 0,2.0405604 -0.38141,5.5305285 -3.81416,5.5305285 -1.52564,0 -2.52686,-0.7628426 -2.52688,-2.6699105 0,-2.517327 2.18366,-3.528097 5.48286,-3.5280955 z" />
    <path
       inkscape:connector-curvature="0"
       id="path6922"
       style="font-style:normal;font-variant:normal;font-weight:normal;font-stretch:normal;letter-spacing:normal;word-spacing:normal;text-anchor:start;fill:#005daa;fill-opacity:1;fill-rule:nonzero;stroke:#005daa;stroke-width:0;stroke-linecap:butt;stroke-linejoin:miter;stroke-miterlimit:10.43299961;stroke-opacity:1;stroke-dasharray:none;stroke-dashoffset:0"
       d="m 310.08143,11.254584 0,0.305131 0,0.28606 0.0191,0.28606 0,0.28606 0.0191,0.266989 0.0191,0.266989 0,0.114424 0,0.133495 0.0191,0.114424 0,0.114424 0.0191,0.114424 0,0.114424 0.0191,0.09535 0,0.114424 0.0191,0.09535 0,0.09535 0.0191,0.09535 0.0191,0.09535 0,0.07628 0.0191,0.09535 0,0.07628 0.0191,0.07628 0.0191,0.05721 0,0.07628 0.0191,0.05721 0,0.05721 -6.96079,0 c -0.11443,-0.87725 -0.17164,-2.402903 -0.17164,-3.604355 l -0.0763,0 c -0.41956,1.16331 -1.84986,4.100193 -6.06447,4.100193 -3.66157,0 -6.5031,-2.193127 -6.5031,-6.941722 l 0,-15.0848952 7.41849,0 0,12.9299101 c 0,2.0596318 0.61026,3.0703769 2.09777,3.0703769 2.13591,0 2.59361,-1.9452077 2.59361,-3.5662141 l 0,-12.4340729 7.41849,0 0,17.9645652 z" />
    <path
       inkscape:connector-curvature="0"
       id="path6924"
       style="font-style:normal;font-variant:normal;font-weight:normal;font-stretch:normal;letter-spacing:normal;word-spacing:normal;text-anchor:start;fill:#005daa;fill-opacity:1;fill-rule:nonzero;stroke:#005daa;stroke-width:0;stroke-linecap:butt;stroke-linejoin:miter;stroke-miterlimit:10.43299961;stroke-opacity:1;stroke-dasharray:none;stroke-dashoffset:0"
       d="m 314.21976,-0.47387412 -0.0191,-0.28605996 0,-0.26698932 0,-0.2860599 0,-0.2669893 0,-0.2669893 0,-0.2479187 0,-0.2479186 -0.0191,-0.2479186 0,-0.2479187 0,-0.2288479 -0.0191,-0.228848 0,-0.228848 0,-0.2288479 -0.0191,-0.2097773 0,-0.2097773 -0.0191,-0.1907067 0,-0.1907066 -0.0191,-0.1907067 0,-0.1907066 -0.0191,-0.171636 0,-0.1716359 -0.0191,-0.1525654 0,-0.1716359 -0.0191,-0.1525653 0,-0.1334947 -0.0191,-0.1334946 0,-0.1334947 -0.0191,-0.1334946 -0.0191,-0.114424 0,-0.114424 -0.0191,-0.095353 0,-0.095353 6.9608,0 c 0.13349,0.8772505 0.17163,2.4029036 0.17163,3.6043554 l 0.0763,0 c 0.62933,-1.697289 1.9452,-4.1001927 5.49235,-4.1001927 0.53398,0 0.78189,0.038141 1.23959,0.1334946 l 0,6.4840258 c -0.34327,-0.13349465 -1.37309,-0.24791864 -2.25034,-0.24791864 -2.38383,0 -4.02391,2.09777304 -4.02391,4.93930194 l 0,10.7177132 -7.41849,0 0,-15.29467252 z" />
    <path
       inkscape:connector-curvature="0"
       id="path6926"
       style="font-style:normal;font-variant:normal;font-weight:normal;font-stretch:normal;letter-spacing:normal;word-spacing:normal;text-anchor:start;fill:#005daa;fill-opacity:1;fill-rule:nonzero;stroke:#005daa;stroke-width:0;stroke-linecap:butt;stroke-linejoin:miter;stroke-miterlimit:10.43299961;stroke-opacity:1;stroke-dasharray:none;stroke-dashoffset:0"
       d="m 339.71204,-7.2047296 c -6.46495,0 -9.9645,5.2445044 -9.96449,11.15641 0,5.5304929 2.50787,11.3852596 11.20409,11.3471176 3.01317,-0.03814 5.73077,-0.667482 7.48528,-1.239601 l -0.14295,-5.1491122 c -1.81171,0.7818977 -4.27186,1.7163712 -6.29336,1.7163712 l -0.23838,0 -0.28607,-0.04768 -0.23838,0 -0.23839,-0.04768 -0.23838,0 -0.23846,-0.04768 -0.23839,-0.04768 -0.23838,-0.04768 -0.23839,-0.04768 -0.23838,-0.09535 -0.19071,-0.04768 -0.19071,-0.09535 -0.23838,-0.09535 -0.19071,-0.1430309 -0.19071,-0.095354 -0.19071,-0.095354 -0.1907,-0.1430309 -0.14296,-0.1430308 -0.19071,-0.1907079 -0.14295,-0.1430309 -0.14295,-0.1907079 -0.14296,-0.1907078 -0.0953,-0.1907079 -0.14296,-0.2383848 -0.0953,-0.1907079 -0.0954,-0.2383848 -0.0953,-0.2383848 -0.0476,-0.2860618 -0.0953,-0.2860618 -0.0476,-0.2860618 0,-0.2860618 -0.0476,-0.3337388 12.92046,0 0,-2.0977865 c 0,-5.8546932 -3.13717,-11.2040869 -9.86913,-11.2040869 z m 0.14303,4.5293117 c 2.23127,0 3.00363,1.3635796 3.00365,4.24325 l 0,0.6674775 -6.34104,0 c 0,-2.97502434 1.22056,-4.9107275 3.33739,-4.9107275 z" />
    <path
       inkscape:connector-curvature="0"
       id="path6930"
       style="font-style:normal;font-variant:normal;font-weight:normal;font-stretch:normal;letter-spacing:normal;word-spacing:normal;text-anchor:start;fill:#005daa;fill-opacity:1;fill-rule:nonzero;stroke:#005daa;stroke-width:0;stroke-linecap:butt;stroke-linejoin:miter;stroke-miterlimit:10.43299961;stroke-opacity:1;stroke-dasharray:none;stroke-dashoffset:0"
       d="m 353.18113,-2.3237285 0,-0.3051307 0,-0.3051306 -0.0191,-0.6102612 0,-0.3242013 -0.0191,-0.28606 -0.0191,-0.3051306 -0.0191,-0.28606 -0.0191,-0.2860599 -0.0191,-0.28606 -0.0191,-0.2669893 -0.0191,-0.2479186 0,-0.1334947 -0.0191,-0.1144239 -0.0191,-0.114424 0,-0.114424 -0.0191,-0.095353 0,-0.114424 -0.0191,-0.095353 -0.0191,-0.095353 6.97986,0 c 0.11443,0.8772505 0.15257,2.4029036 0.15257,3.6043554 l 0.0954,0 c 0.40049,-1.1633105 1.84986,-4.1001927 6.06447,-4.1001927 3.66157,0 6.5031,2.1931263 6.5031,6.94172168 l 0,15.08489492 -7.41849,0 0,-12.9299099 c 0,-2.07870236 -0.62933,-3.0513062 -2.02149,-3.0513062 -1.84985,0 -2.68896,1.92613704 -2.68896,4.1574047 l 0,11.8238114 -7.41849,0 0,-17.1445266 z" />
    <path
       inkscape:connector-curvature="0"
       id="path6932"
       style="font-style:normal;font-variant:normal;font-weight:normal;font-stretch:normal;letter-spacing:normal;word-spacing:normal;text-anchor:start;fill:#005daa;fill-opacity:1;fill-rule:nonzero;stroke:#005daa;stroke-width:0;stroke-linecap:butt;stroke-linejoin:miter;stroke-miterlimit:10.43299961;stroke-opacity:1;stroke-dasharray:none;stroke-dashoffset:0"
       d="m 375.32217,-6.7099812 3.68064,0 0,-4.5388178 7.41849,-2.307551 0,6.8463688 4.1574,0 0,5.0346552 -4.1574,0 0,9.1729894 c 0,1.8307838 1.1061,2.6126806 2.44104,2.6126806 0.72469,0 1.39216,-0.1334942 1.71636,-0.3432716 l 0.20978,5.0537256 c -0.93446,0.190707 -2.76525,0.495838 -4.90116,0.495838 -4.08112,0 -6.88451,-2.326621 -6.88451,-6.3314608 l 0,-10.6605012 -3.68064,0 0,-5.0346552 z" />
    <polygon
       id="polygon6934"
       style="font-style:normal;font-variant:normal;font-weight:normal;font-stretch:normal;letter-spacing:normal;word-spacing:normal;text-anchor:start;fill:#005daa;fill-opacity:1;fill-rule:nonzero;stroke:#005daa;stroke-width:0;stroke-linecap:butt;stroke-linejoin:miter;stroke-miterlimit:10.43299961;stroke-opacity:1;stroke-dasharray:none;stroke-dashoffset:0"
       transform="matrix(1.9070664,0,0,-1.9070664,-337.25319,1281.1701)"
       points="387.59,680.28 383.7,680.28 383.7,677.03 383.7,677.03 387.59,677.03 " />
    <polygon
       id="polygon6936"
       style="font-style:normal;font-variant:normal;font-weight:normal;font-stretch:normal;letter-spacing:normal;word-spacing:normal;text-anchor:start;fill:#005daa;fill-opacity:1;fill-rule:nonzero;stroke:#005daa;stroke-width:0;stroke-linecap:butt;stroke-linejoin:miter;stroke-miterlimit:10.43299961;stroke-opacity:1;stroke-dasharray:none;stroke-dashoffset:0"
       transform="matrix(1.9070664,0,0,-1.9070664,-337.25319,1281.1701)"
       points="387.59,675.32 383.7,675.32 383.7,664.03 383.7,664.03 387.59,664.03 " />
    <path
       inkscape:connector-curvature="0"
       id="path6938"
       style="font-style:normal;font-variant:normal;font-weight:normal;font-stretch:normal;letter-spacing:normal;word-spacing:normal;text-anchor:start;fill:#005daa;fill-opacity:1;fill-rule:nonzero;stroke:#005daa;stroke-width:0;stroke-linecap:butt;stroke-linejoin:miter;stroke-miterlimit:10.43299961;stroke-opacity:1;stroke-dasharray:none;stroke-dashoffset:0"
       d="m 415.80448,-7.2047296 c -6.46495,0 -9.96449,5.2445044 -9.96449,11.15641 0,5.5304929 2.50787,11.3852596 11.20409,11.3471176 3.01317,-0.03814 5.75941,-0.667482 7.53296,-1.239601 l -0.19071,-5.1491122 c -1.81171,0.7818977 -4.27189,1.7163712 -6.29336,1.7163712 l -0.23838,0 -0.23839,-0.04768 -0.28606,0 -0.23839,-0.04768 -0.23838,0 -0.23838,-0.04768 -0.23839,-0.04768 -0.23838,-0.04768 -0.23839,-0.04768 -0.19071,-0.09535 -0.23838,-0.04768 -0.19071,-0.09535 -0.23838,-0.09535 -0.19071,-0.1430309 -0.19071,-0.095354 -0.19071,-0.095354 -0.19071,-0.1430309 -0.14303,-0.1430308 -0.14295,-0.1907079 -0.19071,-0.1430309 -0.14295,-0.1907079 -0.14296,-0.1907078 -0.0953,-0.1907079 -0.14296,-0.2383848 -0.0953,-0.1907079 -0.0954,-0.2383848 -0.0953,-0.2383848 -0.0476,-0.2860618 -0.0953,-0.2860618 -0.0476,-0.2860618 -0.0476,-0.2860618 0,-0.3337388 12.96814,0 0,-2.0977865 c 0,-5.8546932 -3.18485,-11.2040869 -9.91681,-11.2040869 z m 0.14303,4.5293117 c 2.23126,0 3.00366,1.3635796 3.00365,4.24325 l 0,0.6674775 -6.34104,0 c 0,-2.97502434 1.22056,-4.9107275 3.33739,-4.9107275 z" />
    <path
       inkscape:connector-curvature="0"
       id="path6942"
       style="font-style:normal;font-variant:normal;font-weight:normal;font-stretch:normal;letter-spacing:normal;word-spacing:normal;text-anchor:start;fill:#005daa;fill-opacity:1;fill-rule:nonzero;stroke:#005daa;stroke-width:0;stroke-linecap:butt;stroke-linejoin:miter;stroke-miterlimit:10.43299961;stroke-opacity:1;stroke-dasharray:none;stroke-dashoffset:0"
       d="m 429.29215,-2.3237285 0,-0.3051307 0,-0.3051306 -0.0191,-0.6102612 0,-0.3242013 -0.0191,-0.28606 -0.0191,-0.3051306 -0.0191,-0.28606 -0.0191,-0.2860599 -0.0191,-0.28606 -0.0191,-0.2669893 -0.0191,-0.2479186 -0.0191,-0.1334947 0,-0.1144239 -0.0191,-0.114424 -0.0191,-0.114424 0,-0.095353 -0.0191,-0.114424 0,-0.095353 -0.0191,-0.095353 6.97986,0 c 0.11443,0.8772505 0.15257,2.4029036 0.15257,3.6043554 l 0.0953,0 c 0.40049,-1.1633105 1.84986,-4.1001927 6.06447,-4.1001927 3.66157,0 6.5031,2.1931263 6.5031,6.94172168 l 0,15.08489492 -7.41849,0 0,-12.9299099 c 0,-2.07870236 -0.61026,-3.0513062 -2.02149,-3.0513062 -1.84985,0 -2.68896,1.92613704 -2.68896,4.1574047 l 0,11.8238114 -7.41849,0 0,-17.1445266 z" />
    <path
       inkscape:connector-curvature="0"
       id="path6944"
       style="font-style:normal;font-variant:normal;font-weight:normal;font-stretch:normal;letter-spacing:normal;word-spacing:normal;text-anchor:start;fill:#005daa;fill-opacity:1;fill-rule:nonzero;stroke:#005daa;stroke-width:0;stroke-linecap:butt;stroke-linejoin:miter;stroke-miterlimit:10.43299961;stroke-opacity:1;stroke-dasharray:none;stroke-dashoffset:0"
       d="m 452.95884,-2.3237285 0,-0.3051307 0,-0.3051306 -0.0191,-0.6102612 0,-0.3242013 -0.0191,-0.28606 -0.0191,-0.3051306 -0.0191,-0.28606 -0.0191,-0.2860599 -0.0191,-0.28606 -0.0191,-0.2669893 -0.0191,-0.2479186 0,-0.1334947 -0.0191,-0.1144239 -0.0191,-0.114424 0,-0.114424 -0.0191,-0.095353 0,-0.114424 -0.0191,-0.095353 -0.0191,-0.095353 6.97987,0 c 0.11442,0.8772505 0.17163,2.4029036 0.17163,3.6043554 l 0.0763,0 c 0.40048,-1.1633105 1.84985,-4.1001927 6.06447,-4.1001927 3.66157,0 6.50309,2.1931263 6.50309,6.94172168 l 0,15.08489492 -7.41848,0 0,-12.9299099 c 0,-2.07870236 -0.62934,-3.0513062 -2.02149,-3.0513062 -1.84986,0 -2.6699,1.92613704 -2.6699,4.1574047 l 0,11.8238114 -7.43756,0 0,-17.1445266 z" />
    <path
       inkscape:connector-curvature="0"
       id="path6946"
       style="font-style:normal;font-variant:normal;font-weight:normal;font-stretch:normal;letter-spacing:normal;word-spacing:normal;text-anchor:start;fill:#005daa;fill-opacity:1;fill-rule:nonzero;stroke:#005daa;stroke-width:0;stroke-linecap:butt;stroke-linejoin:miter;stroke-miterlimit:10.43299961;stroke-opacity:1;stroke-dasharray:none;stroke-dashoffset:0"
       d="m 486.08032,-7.2047296 c -6.48402,0 -10.01217,5.2445044 -10.01216,11.15641 0,5.5304929 2.53645,11.3852596 11.25177,11.3471176 2.99409,-0.03814 5.71167,-0.667482 7.48528,-1.239601 l -0.14296,-5.1491122 c -1.81171,0.7818977 -4.27182,1.7163712 -6.29336,1.7163712 l -0.23838,0 -0.23838,-0.04768 -0.28607,0 -0.23846,-0.04768 -0.23838,0 -0.23839,-0.04768 -0.23838,-0.04768 -0.23839,-0.04768 -0.23838,-0.04768 -0.19071,-0.09535 -0.23838,-0.04768 -0.23839,-0.09535 -0.19071,-0.09535 -0.19071,-0.1430309 -0.1907,-0.095354 -0.19071,-0.095354 L 484.55466,9.5298853 484.41171,9.3868545 484.221,9.1961466 484.07804,9.0531157 483.93509,8.8624078 483.79213,8.6717 l -0.0953,-0.1907079 -0.14295,-0.2383848 -0.0954,-0.1907079 -0.0953,-0.2383848 -0.0954,-0.2383848 -0.0476,-0.2860618 -0.0953,-0.2860618 -0.0476,-0.2860618 -0.0476,-0.2860618 0,-0.3337388 12.92046,0 0,-2.0977865 c 0,-5.8546932 -3.15628,-11.2040869 -9.86914,-11.2040869 z m 0.0954,4.5293117 c 2.23126,0 3.05131,1.3635796 3.05132,4.24325 l 0,0.6674775 -6.38871,0 c 0,-2.97502434 1.23957,-4.9107275 3.33739,-4.9107275 z" />
  </g>
</svg>
