<?xml version="1.0" encoding="UTF-8" standalone="no"?>
<svg
   xmlns:dc="http://purl.org/dc/elements/1.1/"
   xmlns:cc="http://creativecommons.org/ns#"
   xmlns:rdf="http://www.w3.org/1999/02/22-rdf-syntax-ns#"
   xmlns:svg="http://www.w3.org/2000/svg"
   xmlns="http://www.w3.org/2000/svg"
   xmlns:sodipodi="http://sodipodi.sourceforge.net/DTD/sodipodi-0.dtd"
   xmlns:inkscape="http://www.inkscape.org/namespaces/inkscape"
   viewBox="0 0 221.33333 66"
   height="66"
   width="221.33333"
   xml:space="preserve"
   version="1.1"
   id="svg2"
   inkscape:version="0.48.1 "
   sodipodi:docname="western ontario univ textlogo.svg"><sodipodi:namedview
     pagecolor="#ffffff"
     bordercolor="#666666"
     borderopacity="1"
     objecttolerance="10"
     gridtolerance="10"
     guidetolerance="10"
     inkscape:pageopacity="0"
     inkscape:pageshadow="2"
     inkscape:window-width="1366"
     inkscape:window-height="705"
     id="namedview3211"
     showgrid="false"
     inkscape:zoom="5.179053"
     inkscape:cx="108.59166"
     inkscape:cy="30.894444"
     inkscape:window-x="0"
     inkscape:window-y="0"
     inkscape:window-maximized="1"
     inkscape:current-layer="svg2" /><metadata
     id="metadata8"><rdf:RDF><cc:Work
         rdf:about=""><dc:format>image/svg+xml</dc:format><dc:type
           rdf:resource="http://purl.org/dc/dcmitype/StillImage" /></cc:Work></rdf:RDF></metadata><defs
     id="defs6"><clipPath
       id="clipPath16"
       clipPathUnits="userSpaceOnUse"><path
         id="path18"
         d="m 7.68,7.055 152.468,0 0,36.406 -152.468,0 0,-36.406 z" /></clipPath><clipPath
       id="clipPath116"
       clipPathUnits="userSpaceOnUse"><path
         id="path118"
         d="m 7.68,7.056 152.468,0 0,36.405 -152.468,0 0,-36.405 z" /></clipPath></defs><g
     id="g3313"
     transform="matrix(1.3857277,0,0,1.3857277,-12.747257,-11.913561)"><g
       transform="matrix(1.3333333,0,0,-1.3333333,0,66)"
       id="g14"
       clip-path="url(#clipPath16)"><g
         id="g20"
         transform="translate(48.3848,11.023)"><path
           inkscape:connector-curvature="0"
           d="m 0,0 -1.214,0 0,1.965 1.207,0 C 0.863,1.965 1.34,1.712 1.34,0.997 1.34,0.245 0.856,0 0,0 M 1.838,1.017 C 1.838,1.93 1.193,2.42 0.035,2.42 l -1.74,0 0,-5.191 0.491,0 0,2.329 1.291,0 1.27,-2.329 0.561,0 -1.312,2.386 c 0.751,0.139 1.242,0.56 1.242,1.402"
           style="fill:#522d80;fill-opacity:1;fill-rule:nonzero;stroke:none"
           id="path22" /></g><g
         id="g24"
         transform="translate(41.5023,30.0011)"><path
           inkscape:connector-curvature="0"
           d="m 0,0 c 0.171,2.335 1.022,4.596 3.481,4.596 2.617,0 3.193,-2.045 3.251,-4.209 0.004,-0.202 0.007,-0.902 0.007,-1.094 l -6.767,0 c 0,0.209 0.013,0.488 0.028,0.707 m 4.609,-9.73 c -4.042,0 -4.637,3.08 -4.637,7.801 l 0,0.25 10.401,0 c 0,4.198 -2.327,7.081 -6.673,7.081 -4.74,0 -7.3,-3.654 -7.3,-8.051 0,-4.586 2.402,-8.052 7.269,-8.052 3.012,0 5.457,1.138 6.736,4.466 l -0.734,0.24 C 8.787,-8.074 7.312,-9.73 4.609,-9.73"
           style="fill:#522d80;fill-opacity:1;fill-rule:nonzero;stroke:none"
           id="path26" /></g><g
         id="g28"
         transform="translate(55.1138,11.1144)"><path
           inkscape:connector-curvature="0"
           d="m 0,0 c -1.094,0.351 -1.438,0.547 -1.438,1.129 0,0.478 0.421,0.85 1.115,0.85 0.653,0 1.109,-0.267 1.368,-0.941 L 1.466,1.235 C 1.221,1.93 0.66,2.428 -0.316,2.428 c -0.947,0 -1.613,-0.59 -1.613,-1.333 0,-0.857 0.568,-1.158 1.684,-1.509 1.101,-0.351 1.361,-0.624 1.361,-1.164 0,-0.583 -0.505,-0.94 -1.284,-0.94 -0.73,0 -1.256,0.371 -1.487,1.094 l -0.442,-0.161 c 0.245,-0.842 0.933,-1.375 1.908,-1.375 1.038,0 1.803,0.553 1.803,1.417 C 1.614,-0.702 1.081,-0.344 0,0"
           style="fill:#522d80;fill-opacity:1;fill-rule:nonzero;stroke:none"
           id="path30" /></g><g
         id="g32"
         transform="translate(60.3174,20.1621)"><path
           inkscape:connector-curvature="0"
           d="m 0,0 c -3.064,0 -4.866,1.993 -5.535,4.919 l -0.763,0 1.026,-5.614 c 0.332,0.388 0.767,0.529 1.204,0.529 0.884,0 2.003,-0.676 3.992,-0.676 3.194,0 5.607,1.777 5.607,4.805 0,6.053 -8.686,4.455 -8.686,8.368 0,1.245 0.887,2.166 2.488,2.166 2.539,0 3.958,-1.793 4.568,-3.923 l 0.752,0 -0.867,4.798 c -0.29,-0.326 -0.677,-0.506 -1.151,-0.506 -1.056,0 -1.706,0.438 -3.321,0.438 -2.763,0 -4.904,-1.502 -4.904,-4.228 0,-5.579 8.552,-4.388 8.552,-8.398 C 2.962,0.862 1.64,0 0,0"
           style="fill:#522d80;fill-opacity:1;fill-rule:nonzero;stroke:none"
           id="path34" /></g><g
         id="g36"
         transform="translate(17.8379,10.0761)"><path
           inkscape:connector-curvature="0"
           d="m 0,0 c 0,-0.863 -0.428,-1.466 -1.389,-1.466 -0.968,0 -1.396,0.631 -1.396,1.48 l 0,3.353 -0.498,0 0,-3.437 c 0,-1.031 0.61,-1.845 1.887,-1.845 1.263,0 1.894,0.828 1.894,1.859 l 0,3.423 L 0,3.367 0,0 z"
           style="fill:#522d80;fill-opacity:1;fill-rule:nonzero;stroke:none"
           id="path38" /></g><path
         inkscape:connector-curvature="0"
         d="m 59.879,8.252 0.498,0 0,5.191 -0.498,0 0,-5.191 z"
         style="fill:#522d80;fill-opacity:1;fill-rule:nonzero;stroke:none"
         id="path40" /><g
         id="g42"
         transform="translate(25.3025,9.1645)"><path
           inkscape:connector-curvature="0"
           d="m 0,0 -0.014,0 -2.862,4.279 -0.534,0 0,-5.191 0.47,0 0,4.412 0.014,0 2.954,-4.412 0.442,0 0,5.191 L 0,4.279 0,0 z"
           style="fill:#522d80;fill-opacity:1;fill-rule:nonzero;stroke:none"
           id="path44" /></g><g
         id="g46"
         transform="translate(40.6478,41.4603)"><path
           inkscape:connector-curvature="0"
           d="m 0,0 0,0.768 -6.369,0 0,-0.768 2.817,0 -0.737,-2.56 -4.416,-13.507 -0.063,0 -4.961,13.57 -0.865,2.497 3.168,0 0,0.768 -9.795,0 0,-0.768 2.721,0 1.601,-4.32 -4.066,-11.747 -0.064,0 -4.897,13.507 -0.863,2.56 2.816,0 0,0.768 -8.995,0 0,-0.768 2.177,0 1.151,-3.04 7.01,-19.077 0.641,0 c 0,0 4.29,12.292 5.664,16.26 l 6.05,-16.26 0.674,0 6.337,19.301 L -2.272,0 0,0 z"
           style="fill:#522d80;fill-opacity:1;fill-rule:nonzero;stroke:none"
           id="path48" /></g><g
         id="g50"
         transform="translate(40.8847,10.7707)"><path
           inkscape:connector-curvature="0"
           d="m 0,0 1.943,0 0,0.449 -1.943,0 0,1.761 2.603,0 0,0.463 -3.101,0 0,-5.191 3.248,0 0,0.455 -2.75,0 L 0,0 z"
           style="fill:#522d80;fill-opacity:1;fill-rule:nonzero;stroke:none"
           id="path52" /></g><g
         id="g54"
         transform="translate(35.3278,8.9116)"><path
           inkscape:connector-curvature="0"
           d="m 0,0 -0.014,0 -1.551,4.532 -0.512,0 1.825,-5.212 0.47,0 1.823,5.212 -0.483,0 L 0,0 z"
           style="fill:#522d80;fill-opacity:1;fill-rule:nonzero;stroke:none"
           id="path56" /></g><path
         inkscape:connector-curvature="0"
         d="m 29.638,8.252 0.498,0 0,5.191 -0.498,0 0,-5.191 z"
         style="fill:#522d80;fill-opacity:1;fill-rule:nonzero;stroke:none"
         id="path58" /><g
         id="g60"
         transform="translate(71.2057,10.9671)"><path
           inkscape:connector-curvature="0"
           d="m 0,0 -1.46,2.476 -0.54,0 1.741,-2.922 0,-2.269 0.497,0 0,2.269 1.747,2.922 -0.533,0 L 0,0 z"
           style="fill:#522d80;fill-opacity:1;fill-rule:nonzero;stroke:none"
           id="path62" /></g><g
         id="g64"
         transform="translate(101.829,9.1645)"><path
           inkscape:connector-curvature="0"
           d="m 0,0 -0.014,0 -2.863,4.279 -0.533,0 0,-5.191 0.47,0 0,4.412 0.015,0 2.953,-4.412 0.442,0 0,5.191 L 0,4.279 0,0 z"
           style="fill:#522d80;fill-opacity:1;fill-rule:nonzero;stroke:none"
           id="path66" /></g><g
         id="g68"
         transform="translate(114.8322,8.687)"><path
           inkscape:connector-curvature="0"
           d="m 0,0 -0.898,0 0,4.308 0.884,0 c 1.302,0 2.038,-0.664 2.038,-2.14 C 2.024,0.657 1.295,0 0,0 m -0.072,4.757 -1.312,0 0,-5.191 1.312,0 c 1.669,0 2.581,0.89 2.581,2.602 0,1.712 -0.891,2.589 -2.581,2.589"
           style="fill:#522d80;fill-opacity:1;fill-rule:nonzero;stroke:none"
           id="path70" /></g><g
         id="g72"
         transform="translate(106.6372,33.2852)"><path
           inkscape:connector-curvature="0"
           d="m 0,0 c 0,1.241 -0.919,2.181 -2.623,2.181 -2.548,0 -3.813,-2.287 -4.471,-4.104 l -0.04,0 0,4.23 C -7.641,1.891 -8.154,1.49 -9.506,1.49 l -3.518,0 0,-0.783 2.694,0 0,-13.533 -2.694,0 0,-0.783 8.49,0 0,0.783 -2.6,0 0,6.673 c 0,3.55 1.743,7.405 3.983,7.405 0.167,0 0.28,-0.019 0.371,-0.062 -0.384,-0.309 -0.63,-0.782 -0.63,-1.314 0,-0.985 0.756,-1.688 1.688,-1.688 C -0.707,-1.812 0,-0.967 0,0"
           style="fill:#522d80;fill-opacity:1;fill-rule:nonzero;stroke:none"
           id="path74" /></g><g
         id="g76"
         transform="translate(106.8464,10.2914)"><path
           inkscape:connector-curvature="0"
           d="m 0,0 0.978,2.653 0.02,0 L 1.974,0 0,0 z m 0.704,3.174 -1.939,-5.213 0.486,0 0.587,1.597 2.299,0 0.587,-1.597 0.522,0 -1.939,5.213 -0.603,0 z"
           style="fill:#522d80;fill-opacity:1;fill-rule:nonzero;stroke:none"
           id="path78" /></g><g
         id="g80"
         transform="translate(121.3086,10.2914)"><path
           inkscape:connector-curvature="0"
           d="m 0,0 0.978,2.653 0.02,0 L 1.974,0 0,0 z m 0.704,3.174 -1.939,-5.213 0.486,0 0.587,1.597 2.299,0 0.587,-1.597 0.522,0 -1.939,5.213 -0.603,0 z"
           style="fill:#522d80;fill-opacity:1;fill-rule:nonzero;stroke:none"
           id="path82" /></g><g
         id="g84"
         transform="translate(123.4361,20.4592)"><path
           inkscape:connector-curvature="0"
           d="m 0,0 0,10.527 c 0,3.132 -1.535,4.48 -4.606,4.48 -2.568,0 -4.448,-1.254 -5.419,-3.384 l -0.063,0 0,3.449 c -0.422,-0.348 -0.993,-0.756 -2.385,-0.756 l -3.316,0 0,-0.783 2.506,0 0,-13.533 -2.695,0 0,-0.784 8.365,0 0,0.784 -2.475,0 0,8.145 c 0,2.914 1.501,5.734 4.335,5.734 1.593,0 2.557,-0.899 2.557,-3.258 l 0,-10.621 -2.475,0 0,-0.784 8.146,0 L 2.475,0 0,0 z"
           style="fill:#522d80;fill-opacity:1;fill-rule:nonzero;stroke:none"
           id="path86" /></g><g
         id="g88"
         transform="translate(85.7411,8.6028)"><path
           inkscape:connector-curvature="0"
           d="m 0,0 c -1.01,0 -1.669,0.842 -1.669,2.28 0,1.333 0.651,2.203 1.655,2.203 0.792,0 1.179,-0.428 1.41,-1.249 l 0.477,0.119 c -0.245,0.962 -0.828,1.586 -1.88,1.586 -1.298,0 -2.161,-1.101 -2.161,-2.673 0,-1.656 0.849,-2.714 2.161,-2.714 1.038,0 1.712,0.637 1.965,1.662 L 1.48,1.319 C 1.256,0.449 0.772,0 0,0"
           style="fill:#522d80;fill-opacity:1;fill-rule:nonzero;stroke:none"
           id="path90" /></g><g
         id="g92"
         transform="translate(78.2274,11.3522)"><path
           inkscape:connector-curvature="0"
           d="m 0,0 c -0.306,0 -0.526,-0.22 -0.526,-0.529 0,-0.306 0.22,-0.526 0.526,-0.526 0.31,0 0.53,0.22 0.53,0.526 C 0.53,-0.22 0.31,0 0,0"
           style="fill:#522d80;fill-opacity:1;fill-rule:nonzero;stroke:none"
           id="path94" /></g><g
         id="g96"
         transform="translate(74.7095,20.5558)"><path
           inkscape:connector-curvature="0"
           d="m 0,0 c -1.194,0 -1.688,0.749 -1.688,2.597 l 0,10.84 3.855,0 0,0.783 -3.855,0 0,5.175 -0.662,0 c -0.428,-3.341 -2.104,-5.051 -5.139,-5.342 l 0,-0.616 -0.001,0 0.001,0 2.538,0 0,-10.715 c 0,-2.004 0.39,-3.915 3.649,-3.915 2.054,0 3.3,0.947 3.951,2.178 L 2.899,1.484 2.22,1.808 C 1.811,0.897 1.161,0 0,0"
           style="fill:#522d80;fill-opacity:1;fill-rule:nonzero;stroke:none"
           id="path98" /></g><g
         id="g100"
         transform="translate(82.0049,30.0011)"><path
           inkscape:connector-curvature="0"
           d="m 0,0 c 0.17,2.335 1.022,4.596 3.481,4.596 2.617,0 3.193,-2.045 3.25,-4.209 0.005,-0.202 0.008,-0.902 0.008,-1.094 l -6.767,0 c 0,0.209 0.012,0.488 0.028,0.707 m 10.405,-6.235 -0.734,0.24 C 8.788,-8.074 7.311,-9.73 4.608,-9.73 c -4.041,0 -4.636,3.08 -4.636,7.801 l 0,0.25 10.4,0 c 0,4.198 -2.326,7.081 -6.672,7.081 -4.741,0 -7.3,-3.654 -7.3,-8.051 0,-4.586 2.401,-8.052 7.269,-8.052 3.012,0 5.457,1.138 6.736,4.466"
           style="fill:#522d80;fill-opacity:1;fill-rule:nonzero;stroke:none"
           id="path102" /></g><g
         id="g104"
         transform="translate(91.8285,10.2914)"><path
           inkscape:connector-curvature="0"
           d="m 0,0 0.978,2.653 0.02,0 L 1.974,0 0,0 z m 0.704,3.174 -1.939,-5.213 0.486,0 0.587,1.597 2.3,0 0.586,-1.597 0.522,0 -1.939,5.213 -0.603,0 z"
           style="fill:#522d80;fill-opacity:1;fill-rule:nonzero;stroke:none"
           id="path106" /></g></g><path
       inkscape:connector-curvature="0"
       d="m 84.124398,48.693067 2.234667,0 0,6.304 0.665333,0 0,-6.304 2.234667,0 0,-0.617333 -5.134667,0 0,0.617333 z"
       style="fill:#522d80;fill-opacity:1;fill-rule:nonzero;stroke:none"
       id="path110" /></g></svg>