<?xml version="1.0" encoding="UTF-8" standalone="no"?>
<!-- Created with Inkscape (http://www.inkscape.org/) -->

<svg
   xmlns:dc="http://purl.org/dc/elements/1.1/"
   xmlns:cc="http://creativecommons.org/ns#"
   xmlns:rdf="http://www.w3.org/1999/02/22-rdf-syntax-ns#"
   xmlns:svg="http://www.w3.org/2000/svg"
   xmlns="http://www.w3.org/2000/svg"
   xmlns:sodipodi="http://sodipodi.sourceforge.net/DTD/sodipodi-0.dtd"
   xmlns:inkscape="http://www.inkscape.org/namespaces/inkscape"
   width="195.40984mm"
   height="51.800041mm"
   viewBox="0 0 195.40984 51.800041"
   version="1.1"
   id="svg1629"
   inkscape:version="0.92.0 r15299"
   sodipodi:docname="university of new hampshire.svg">
  <defs
     id="defs1623" />
  <sodipodi:namedview
     id="base"
     pagecolor="#ffffff"
     bordercolor="#666666"
     borderopacity="1.0"
     inkscape:pageopacity="0.0"
     inkscape:pageshadow="2"
     inkscape:zoom="1.220778"
     inkscape:cx="367.38868"
     inkscape:cy="96.000076"
     inkscape:document-units="mm"
     inkscape:current-layer="layer1"
     showgrid="false"
     fit-margin-top="0"
     fit-margin-left="0"
     fit-margin-right="0"
     fit-margin-bottom="0"
     inkscape:window-width="1280"
     inkscape:window-height="744"
     inkscape:window-x="-4"
     inkscape:window-y="-4"
     inkscape:window-maximized="1" />
  <metadata
     id="metadata1626">
    <rdf:RDF>
      <cc:Work
         rdf:about="">
        <dc:format>image/svg+xml</dc:format>
        <dc:type
           rdf:resource="http://purl.org/dc/dcmitype/StillImage" />
        <dc:title></dc:title>
      </cc:Work>
    </rdf:RDF>
  </metadata>
  <g
     inkscape:label="Layer 1"
     inkscape:groupmode="layer"
     id="layer1"
     transform="translate(-8.6284151,-191.22498)">
    <path
       inkscape:connector-curvature="0"
       id="path1300"
       style="fill:#003591;fill-opacity:1;fill-rule:nonzero;stroke:none;stroke-width:0.03527778"
       d="m 61.106702,192.27566 h 5.46735 v 1.651 h -1.633008 v 6.23782 c 0,0.93627 -0.01831,1.81681 0.476959,2.62396 0.477311,0.77082 1.284459,1.10102 2.183339,1.10102 0.45861,0 0.770472,-0.0921 1.192392,-0.27587 0.679098,-0.27446 1.064329,-1.04528 1.266119,-1.70568 0.1651,-0.60572 0.12841,-1.3208 0.12841,-1.92687 v -6.05438 h -1.614659 v -1.651 h 5.22887 v 1.651 h -1.321152 v 5.83424 c 0,0.9906 0.0554,2.12831 -0.348199,3.06423 -0.403569,0.91757 -1.08267,1.68804 -1.94486,2.18299 -0.69709,0.42263 -1.999901,0.62371 -2.825401,0.62371 -0.807148,0 -1.981549,-0.23813 -2.678639,-0.62371 -0.770469,-0.40358 -1.339141,-1.06398 -1.74272,-1.8161 -0.532339,-0.95391 -0.514001,-2.03694 -0.514001,-3.10092 v -6.16444 h -1.3208 v -1.651" />
    <path
       inkscape:connector-curvature="0"
       id="path1302"
       style="fill:#003591;fill-opacity:1;fill-rule:nonzero;stroke:none;stroke-width:0.03527778"
       d="m 77.927154,197.24771 c 0.62371,-1.24742 1.559269,-1.83444 2.935459,-1.83444 1.504249,0 2.641949,0.93521 2.862091,1.83444 0.12841,0.514 0.12841,0.89888 0.12841,1.32116 v 5.2839 h 1.210731 v 1.55893 h -4.788252 v -1.55893 h 1.137351 v -4.38538 c 0,-0.47695 0.01831,-0.86184 -0.12841,-1.33879 -0.1651,-0.58738 -0.6604,-1.02764 -1.302452,-1.02764 -1.77977,0 -1.889828,1.66934 -1.889828,3.02683 v 3.72498 h 1.174041 v 1.55893 h -4.898322 v -1.55893 h 1.284111 v -6.64175 h -1.284111 v -1.55963 h 3.559181 v 1.59632" />
    <path
       inkscape:connector-curvature="0"
       id="path1304"
       style="fill:#003591;fill-opacity:1;fill-rule:nonzero;stroke:none;stroke-width:0.03527778"
       d="m 87.533995,191.92747 h 2.44017 v 2.23838 h -2.44017 z m -1.302452,13.48423 v -1.55893 h 1.302452 v -6.64175 h -1.302452 v -1.55963 h 3.742622 v 8.20138 h 1.137697 v 1.55893 h -4.880319" />
    <path
       inkscape:connector-curvature="0"
       id="path1306"
       style="fill:#003591;fill-opacity:1;fill-rule:nonzero;stroke:none;stroke-width:0.03527778"
       d="m 91.571184,195.65139 h 4.58646 v 1.55963 h -1.210731 l 1.816449,6.21948 h 0.01831 l 2.054928,-6.21948 h -1.229428 v -1.55963 h 4.293308 v 1.55963 H 101.148 l -2.880436,8.20068 h -3.027191 l -2.89877,-8.20068 h -0.770469 v -1.55963" />
    <path
       inkscape:connector-curvature="0"
       id="path1308"
       style="fill:#003591;fill-opacity:1;fill-rule:nonzero;stroke:none;stroke-width:0.03527778"
       d="m 109.13423,199.61415 c -0.018,-1.10067 -0.45825,-2.67865 -1.85279,-2.67865 -1.54128,0 -2.03658,1.39454 -2.1463,2.67865 z m -4.05447,1.41322 c -0.018,1.39418 0.56903,3.00885 2.23837,3.00885 0.97261,0 1.65136,-0.6604 1.8161,-1.59668 h 2.33045 c -0.16545,2.14701 -2.2934,3.19229 -4.27496,3.19229 -0.62371,0 -1.46755,-0.20108 -2.03658,-0.45826 -0.64206,-0.29351 -1.06398,-0.6604 -1.4859,-1.22943 -0.77047,-0.99095 -1.06398,-2.27506 -1.06398,-3.50379 0,-2.67864 1.52259,-5.02708 4.4764,-5.02708 1.3028,0 2.53188,0.34819 3.43111,1.3021 0.78846,0.84385 1.02729,2.22038 1.08232,3.3214 0.0183,0.29352 0.0547,0.56798 0.0183,0.84385 0,0.0543 -0.0183,0.091 -0.0183,0.14675 h -6.51333" />
    <path
       inkscape:connector-curvature="0"
       id="path1310"
       style="fill:#003591;fill-opacity:1;fill-rule:nonzero;stroke:none;stroke-width:0.03527778"
       d="m 116.15416,197.72502 c 0.38523,-1.70674 1.54093,-2.40418 3.24732,-2.23837 v 2.38513 c -0.27517,-0.0734 -0.56868,-0.14676 -0.86219,-0.14676 -0.89888,0 -1.68804,0.55033 -1.9999,1.37548 -0.23848,0.6604 -0.23848,1.55999 -0.23848,2.23838 v 2.51389 h 1.55964 v 1.55893 h -5.28426 v -1.55893 h 1.28446 v -6.64175 h -1.28446 v -1.55963 h 3.57787 v 2.07363" />
    <path
       inkscape:connector-curvature="0"
       id="path1312"
       style="fill:#003591;fill-opacity:1;fill-rule:nonzero;stroke:none;stroke-width:0.03527778"
       d="m 126.11802,198.789 c -0.10972,-1.04599 -0.4953,-1.90818 -1.66935,-1.90818 -0.78916,0 -1.52294,0.3482 -1.52294,1.24778 0,0.3115 0.0917,0.51364 0.29351,0.75177 0.1651,0.12876 0.36689,0.18344 0.55069,0.27552 1.04563,0.29351 3.00849,0.44026 3.74262,1.35784 0.49494,0.60466 0.67874,1.17404 0.67874,1.94451 0.0183,0.56833 -0.23848,1.44921 -0.60537,1.96286 -0.44062,0.60572 -1.50424,1.21073 -2.88043,1.21073 -0.91722,0 -1.90817,-0.42157 -2.40347,-1.21073 v 0.9906 h -1.76142 v -3.39373 h 1.90817 c 0.0734,1.21074 0.60537,2.05493 1.90818,2.05493 0.67874,0 1.37583,-0.4773 1.37583,-1.21108 0,-0.36689 -0.11006,-0.80716 -0.47695,-0.9906 -1.10067,-0.53234 -2.44017,-0.40358 -3.4858,-1.10067 -0.89923,-0.62371 -1.24742,-1.46791 -1.24742,-2.55058 -0.0921,-0.80751 0.38488,-1.39453 0.6417,-1.76142 0.36724,-0.51365 1.57797,-1.04528 2.71533,-1.04528 0.8442,0 1.79811,0.36689 2.31175,1.04528 v -0.80716 h 1.72473 v 3.13761 h -1.7981" />
    <path
       inkscape:connector-curvature="0"
       id="path1314"
       style="fill:#003591;fill-opacity:1;fill-rule:nonzero;stroke:none;stroke-width:0.03527778"
       d="m 130.732,191.92747 h 2.44016 v 2.23838 H 130.732 Z m -1.30246,13.48423 v -1.55893 h 1.30246 v -6.64175 h -1.30246 v -1.55963 h 3.74262 v 8.20138 h 1.13771 v 1.55893 h -4.88033" />
    <path
       inkscape:connector-curvature="0"
       id="path1316"
       style="fill:#003591;fill-opacity:1;fill-rule:nonzero;stroke:none;stroke-width:0.03527778"
       d="m 141.50442,202.84312 c 0,1.15641 -0.36689,2.22038 -1.57762,2.60527 -0.20179,0.0734 -0.80716,0.18344 -1.0093,0.18344 -0.44027,0 -0.69674,-0.0734 -1.11901,-0.18344 -0.84385,-0.25683 -1.30246,-0.84385 -1.48625,-1.669 -0.0914,-0.40357 -0.0734,-1.26647 -0.0734,-1.70674 v -4.86163 h -1.44921 v -1.55963 h 1.44921 v -1.66934 l 2.44016,-0.82585 v 2.49519 h 2.44017 v 1.55963 H 138.679 v 6.10906 c 0,0.18379 0.11042,0.55068 0.29387,0.62406 1.11901,0.45896 1.04563,-1.10102 1.02728,-1.76142 h 1.50425 v 0.6604" />
    <path
       inkscape:connector-curvature="0"
       id="path1318"
       style="fill:#003591;fill-opacity:1;fill-rule:nonzero;stroke:none;stroke-width:0.03527778"
       d="m 142.30205,195.65139 h 4.67854 v 1.55963 h -1.26612 l 1.87149,5.15515 0.0917,0.23883 1.87113,-5.39398 h -1.21073 v -1.55963 h 4.32999 v 1.55963 h -0.77082 l -3.48579,8.80675 c -0.58703,1.52224 -1.1557,2.60491 -2.9905,2.60491 -0.4953,0 -0.99095,0 -1.46756,-0.0921 v -1.68769 c 0.32985,0.0187 0.6604,0.0554 0.9906,0.0554 0.88054,0 1.06398,-0.29351 1.37619,-1.04634 l 0.12806,-0.3115 -3.35739,-8.32944 h -0.78881 v -1.55963" />
    <path
       inkscape:connector-curvature="0"
       id="path1320"
       style="fill:#003591;fill-opacity:1;fill-rule:nonzero;stroke:none;stroke-width:0.03527778"
       d="m 159.97269,200.51373 c 0,0.80716 0.0734,1.54093 0.45861,2.27471 0.34855,0.69744 0.97226,1.22908 1.79776,1.22908 0.88053,0 1.48625,-0.62371 1.81645,-1.37583 0.27517,-0.64241 0.34854,-1.48661 0.34854,-2.16465 0,-0.80715 -0.0734,-1.5046 -0.44026,-2.23837 -0.34855,-0.67945 -0.93557,-1.21109 -1.76142,-1.21109 -1.76107,0 -2.21968,2.12831 -2.21968,3.48615 z m -1.43122,3.50379 c -0.80716,-1.00895 -1.11936,-2.29306 -1.11936,-3.55953 0,-1.37548 0.33055,-2.6229 1.28446,-3.65054 0.86219,-0.91723 2.165,-1.39418 3.41277,-1.39418 3.1369,0 4.82494,2.18299 4.82494,5.13715 0,2.8254 -1.74307,5.08141 -4.75191,5.08141 -1.3208,0 -2.8254,-0.58702 -3.6509,-1.61431" />
    <path
       inkscape:connector-curvature="0"
       id="path1322"
       style="fill:#003591;fill-opacity:1;fill-rule:nonzero;stroke:none;stroke-width:0.03527778"
       d="m 167.70029,197.21102 v -1.55963 h 1.43122 v -0.84419 c 0,-0.89853 0.18309,-1.85244 0.9906,-2.36608 0.78916,-0.53235 1.54128,-0.71614 2.49519,-0.71614 0.45862,0 0.91723,0.11006 1.37584,0.23918 v 1.651 c -0.3302,-0.0554 -0.64206,-0.11007 -0.97226,-0.11007 -0.4953,0 -0.89923,0.11007 -1.24742,0.49495 -0.22013,0.29351 -0.20179,0.97296 -0.20179,1.28411 v 0.36724 h 1.66935 v 1.55963 h -1.66935 v 6.64175 h 1.61431 v 1.55893 h -5.37527 v -1.55893 h 1.3208 v -6.64175 h -1.43122" />
    <path
       inkscape:connector-curvature="0"
       id="path1324"
       style="fill:#003591;fill-opacity:1;fill-rule:nonzero;stroke:none;stroke-width:0.03527778"
       d="m 61.308492,223.83207 v -1.65157 h 1.522942 v -9.83354 h -1.522942 v -1.65136 h 4.880332 l 4.87997,10.32983 h 0.01831 v -8.67847 h -1.540939 v -1.65136 h 5.17384 v 1.65136 h -1.431222 v 11.48511 h -3.247329 l -4.990391,-10.60458 h -0.01831 v 8.95301 h 1.449559 v 1.65157 h -5.17384" />
    <path
       inkscape:connector-curvature="0"
       id="path1326"
       style="fill:#003591;fill-opacity:1;fill-rule:nonzero;stroke:none;stroke-width:0.03527778"
       d="m 81.840862,218.03451 c -0.01799,-1.10106 -0.45861,-2.67903 -1.852789,-2.67903 -1.54128,0 -2.03658,1.39457 -2.14665,2.67903 z m -4.054469,1.41277 c -0.01831,1.39446 0.568679,3.00881 2.238369,3.00881 0.972262,0 1.651,-0.66033 1.8161,-1.59604 h 2.330101 c -0.1651,2.14697 -2.293411,3.19221 -4.274611,3.19221 -0.624059,0 -1.467908,-0.20186 -2.03658,-0.45818 -0.642059,-0.29351 -1.063979,-0.6605 -1.48626,-1.22961 -0.770458,-0.99108 -1.063969,-2.27541 -1.063969,-3.50421 0,-2.6785 1.522939,-5.02705 4.47675,-5.02705 1.302452,0 2.531531,0.34819 3.43076,1.30207 0.78881,0.84416 1.02729,2.22041 1.08232,3.32147 0.01831,0.29351 0.055,0.56818 0.01831,0.84377 0,0.0547 -0.01831,0.0914 -0.01831,0.14676 h -6.51298" />
    <path
       inkscape:connector-curvature="0"
       id="path1328"
       style="fill:#003591;fill-opacity:1;fill-rule:nonzero;stroke:none;stroke-width:0.03527778"
       d="m 89.567053,214.07169 v 1.55966 h -1.302459 l 1.394179,6.31117 h 0.01831 l 2.07327,-7.87083 h 2.972149 l 1.81646,7.87083 h 0.01831 l 1.651,-6.31117 h -1.24742 v -1.55966 h 4.329638 v 1.55966 h -0.89888 l -2.348453,8.20072 h -3.082224 l -1.761058,-7.32001 -1.999901,7.32001 h -3.082221 l -2.348439,-8.20072 h -0.86219 v -1.55966 h 4.659839" />
    <path
       inkscape:connector-curvature="0"
       id="path1330"
       style="fill:#003591;fill-opacity:1;fill-rule:nonzero;stroke:none;stroke-width:0.03527778"
       d="m 106.02802,223.83207 v -1.65157 h 1.50425 v -9.83354 h -1.50425 v -1.65136 h 5.61411 v 1.65136 h -1.59632 v 3.99947 h 5.3206 v -3.99947 h -1.59597 v -1.65136 h 5.63245 v 1.65136 h -1.52294 v 9.83354 h 1.52294 v 1.65157 h -5.63245 v -1.65157 h 1.59597 v -4.18264 h -5.3206 v 4.18264 h 1.59632 v 1.65157 h -5.61411" />
    <path
       inkscape:connector-curvature="0"
       id="path1332"
       style="fill:#003591;fill-opacity:1;fill-rule:nonzero;stroke:none;stroke-width:0.03527778"
       d="m 125.44174,219.31844 c -1.24742,0 -2.38513,0.29352 -2.38513,1.7803 0,0.7517 0.49565,1.35735 1.28446,1.35735 1.77977,0 2.20134,-1.70671 2.25637,-3.13765 z m 1.3395,2.9548 c -0.55069,1.22809 -1.72473,1.77902 -3.04589,1.77902 -1.35749,0 -2.67864,-0.77099 -2.89877,-1.77902 -0.20179,-0.64286 -0.22013,-0.97331 -0.22013,-1.26643 0,-0.82572 0.33055,-1.65157 0.95391,-2.20197 0.4773,-0.44013 1.57797,-0.82515 2.22003,-0.84406 0.45896,-0.018 0.95391,-0.0915 1.41287,-0.0915 0.44027,0 0.88054,0.0551 1.3208,0.0734 0.12877,-1.17408 -0.0363,-2.64156 -1.55928,-2.64156 -1.06397,0 -1.57762,0.73381 -1.55927,1.76099 h -2.42218 c 0.0554,-2.3847 1.83515,-3.22897 3.98145,-3.22897 1.52295,0 2.95417,0.40358 3.61457,1.90824 0.14675,0.3302 0.18309,0.53153 0.23812,0.91737 0.0554,0.42143 0.0734,0.82532 0.0734,1.24756 v 4.38475 h 1.26612 v 1.54093 h -3.37573 v -1.55882" />
    <path
       inkscape:connector-curvature="0"
       id="path1334"
       style="fill:#003591;fill-opacity:1;fill-rule:nonzero;stroke:none;stroke-width:0.03527778"
       d="m 134.81857,215.66801 c 0.62407,-1.24739 1.65136,-1.8348 3.06423,-1.8348 1.30246,0 2.25637,0.49495 2.71498,1.8348 0.53234,-1.24739 1.57798,-1.8348 2.84374,-1.8348 1.39453,0 2.38513,0.6417 2.86244,1.8348 0.23848,0.60497 0.1651,1.04524 0.1651,1.52258 v 5.08265 h 1.19239 v 1.55883 h -4.78861 v -1.55883 h 1.15606 v -4.34883 c 0,-0.99096 -0.12877,-2.29306 -1.44957,-2.29306 -0.71543,0 -1.22908,0.3302 -1.54093,0.99053 -0.31221,0.64216 -0.31221,1.19214 -0.31221,1.8896 v 3.76176 h 1.13771 v 1.55883 h -4.69688 v -1.55883 h 1.11901 v -4.51365 c 0,-0.55065 0,-0.97289 -0.23848,-1.48661 -0.18309,-0.38477 -0.6604,-0.64163 -1.08232,-0.64163 -1.02729,0 -1.57798,0.62357 -1.85314,1.54122 -0.12806,0.47664 -0.12806,0.93525 -0.12806,1.43093 v 3.66974 h 1.17404 v 1.55883 h -4.89867 v -1.55883 h 1.28446 v -6.64189 h -1.28446 v -1.55966 h 3.55917 v 1.59632" />
    <path
       inkscape:connector-curvature="0"
       id="path1336"
       style="fill:#003591;fill-opacity:1;fill-rule:nonzero;stroke:none;stroke-width:0.03527778"
       d="m 152.31,216.60329 c -0.42192,0.80754 -0.58702,1.5966 -0.58702,2.38495 0,1.37668 0.53199,3.41246 2.25672,3.41246 1.76107,0 2.18299,-1.92581 2.18299,-3.32024 0,-1.39432 -0.27517,-3.65167 -2.10961,-3.65167 -0.78917,0 -1.44957,0.55065 -1.74308,1.1745 z m -0.58702,-0.88099 c 0.67875,-1.32084 1.72473,-1.88909 2.88043,-1.88909 1.4859,0 2.47685,0.60533 3.35739,1.88909 0.38523,0.56984 0.71543,1.78015 0.71543,3.1013 0,1.46802 -0.14675,2.3851 -0.91757,3.65041 -0.62336,1.02732 -1.94452,1.57825 -3.11856,1.57825 -1.08267,0 -2.03659,-0.47748 -2.77036,-1.68779 v 2.88079 h 1.37583 v 1.55881 h -5.10046 v -1.55881 h 1.28446 v -9.61391 h -1.28446 v -1.55966 h 3.57787 v 1.65061" />
    <path
       inkscape:connector-curvature="0"
       id="path1338"
       style="fill:#003591;fill-opacity:1;fill-rule:nonzero;stroke:none;stroke-width:0.03527778"
       d="m 165.76601,217.20894 c -0.11042,-1.04634 -0.49566,-1.90775 -1.6697,-1.90775 -0.78881,0 -1.52294,0.3478 -1.52294,1.24724 0,0.31158 0.0921,0.51375 0.29351,0.75188 0.16545,0.12869 0.36724,0.18383 0.55033,0.27545 1.04599,0.29354 3.0092,0.4403 3.74297,1.35795 0.4953,0.60494 0.67875,1.17407 0.67875,1.94493 0.0183,0.56805 -0.23848,1.44861 -0.60537,1.96233 -0.44026,0.60635 -1.5046,1.21129 -2.88043,1.21129 -0.91757,0 -1.90782,-0.42206 -2.40347,-1.21129 v 0.9911 h -1.76142 v -3.3937 h 1.90817 c 0.0734,1.2106 0.60537,2.05493 1.90818,2.05493 0.67874,0 1.37583,-0.47748 1.37583,-1.21129 0,-0.36682 -0.11007,-0.80712 -0.47696,-0.99039 -1.10101,-0.53291 -2.44016,-0.40404 -3.48579,-1.10106 -0.89888,-0.62385 -1.24778,-1.46801 -1.24778,-2.55062 -0.0914,-0.80726 0.38524,-1.39428 0.64241,-1.76113 0.36689,-0.51372 1.57762,-1.0456 2.71533,-1.0456 0.84385,0 1.79811,0.36689 2.31175,1.0456 v -0.80712 h 1.72438 v 3.13725 h -1.79775" />
    <path
       inkscape:connector-curvature="0"
       id="path1340"
       style="fill:#003591;fill-opacity:1;fill-rule:nonzero;stroke:none;stroke-width:0.03527778"
       d="m 168.97417,223.83207 v -1.55883 h 1.24777 v -10.23779 h -1.24777 v -1.55998 h 3.68794 v 4.86237 c 0.67874,-1.08306 1.50424,-1.50463 2.78871,-1.50463 0.80715,0 1.77976,0.23848 2.32974,0.86176 0.58702,0.66051 0.6791,1.46763 0.6791,2.31183 v 5.26644 h 1.22943 v 1.55883 h -4.86234 v -1.55883 h 1.19274 v -4.38591 c 0,-0.36682 -0.0367,-0.75184 -0.0917,-1.11866 -0.055,-0.69702 -0.62371,-1.26643 -1.33914,-1.26643 -0.88089,0 -1.37619,0.45931 -1.6697,1.24781 -0.27517,0.67895 -0.25682,1.35777 -0.25682,2.07355 v 3.44964 h 1.19239 v 1.55883 h -4.88033" />
    <path
       inkscape:connector-curvature="0"
       id="path1342"
       style="fill:#003591;fill-opacity:1;fill-rule:nonzero;stroke:none;stroke-width:0.03527778"
       d="m 182.14936,210.34741 h 2.44016 v 2.23838 h -2.44016 z m -1.30246,13.48466 v -1.55883 h 1.30246 v -6.64189 h -1.30246 v -1.55966 h 3.74262 v 8.20155 h 1.13771 v 1.55883 h -4.88033" />
    <path
       inkscape:connector-curvature="0"
       id="path1352"
       style="fill:#003591;fill-opacity:1;fill-rule:nonzero;stroke:none;stroke-width:0.03527778"
       d="m 190.46892,216.1451 c 0.38559,-1.70656 1.54129,-2.40397 3.24732,-2.23851 v 2.38555 c -0.27482,-0.0737 -0.56833,-0.14704 -0.86219,-0.14704 -0.89888,0 -1.68769,0.55009 -1.99954,1.37541 -0.23884,0.66037 -0.23884,1.55995 -0.23884,2.2382 v 2.51453 h 1.55964 v 1.55883 h -5.28356 v -1.55883 h 1.28376 v -6.64189 h -1.28376 v -1.55966 h 3.57717 v 2.07341" />
    <path
       inkscape:connector-curvature="0"
       id="path1354"
       style="fill:#003591;fill-opacity:1;fill-rule:nonzero;stroke:none;stroke-width:0.03527778"
       d="m 201.0459,218.03451 c -0.0183,-1.10106 -0.45861,-2.67903 -1.85314,-2.67903 -1.54128,0 -2.03658,1.39457 -2.14665,2.67903 z m -4.05482,1.41277 c -0.0183,1.39446 0.56903,3.00881 2.23837,3.00881 0.97226,0 1.65135,-0.66033 1.81645,-1.59604 h 2.32975 c -0.1651,2.14697 -2.29306,3.19221 -4.27461,3.19221 -0.62371,0 -1.46756,-0.20186 -2.03659,-0.45818 -0.64205,-0.29351 -1.06397,-0.6605 -1.4859,-1.22961 -0.77082,-0.99108 -1.06433,-2.27541 -1.06433,-3.50421 0,-2.6785 1.52259,-5.02705 4.4764,-5.02705 1.30316,0 2.53224,0.34819 3.43112,1.30207 0.78881,0.84416 1.02729,2.22041 1.08267,3.32147 0.018,0.29351 0.055,0.56818 0.018,0.84377 0,0.0547 -0.018,0.0914 -0.018,0.14676 h -6.51333" />
    <path
       inkscape:connector-curvature="0"
       id="path1356"
       style="fill:#003591;fill-opacity:1;fill-rule:nonzero;stroke:none;stroke-width:0.03527778"
       d="M 29.760283,192.29083 H 9.1284228 v 24.80829 c -0.005,6.50943 1.7808402,11.68548 5.4588102,15.82607 3.051,3.43531 7.50853,7.56708 15.17305,9.59983 7.6612,-2.03275 12.119429,-6.16451 15.17085,-9.59983 3.677711,-4.14059 5.463119,-9.31664 5.45783,-15.82607 v -24.80829 h -20.62868" />
    <path
       inkscape:connector-curvature="0"
       id="path1366"
       style="fill:#ffffff;fill-opacity:1;fill-rule:nonzero;stroke:none;stroke-width:0.03527778"
       d="m 18.117663,229.78755 c -2.91345,-3.28098 -4.26946,-7.31174 -4.266,-12.68653 v -20.08614 h 15.90862 v 40.59344 c -5.67133,-1.78015 -9.058,-4.91173 -11.64262,-7.82077" />
    <path
       inkscape:connector-curvature="0"
       id="path1368"
       style="fill:#003591;fill-opacity:1;fill-rule:nonzero;stroke:none;stroke-width:0.03527778"
       d="m 17.731513,223.84421 v -20.75873 h 4.65434 l 3.15224,9.19409 h 0.0579 v -9.19409 h 4.1643 v 20.75873 h -4.51238 l -3.2952,-10.7543 h -0.0569 v 10.7543 h -4.164289" />
    <path
       inkscape:connector-curvature="0"
       id="path1378"
       style="fill:#ffffff;fill-opacity:1;fill-rule:nonzero;stroke:none;stroke-width:0.03527778"
       d="m 37.411293,203.08548 v 8.13082 h -3.41659 v -8.13082 h -4.23442 v 20.75873 h 4.30773 v -8.35644 h 3.41838 v 8.35643 h 4.299061 v -20.75872 h -4.374161" />
  </g>
</svg>
