<?xml version="1.0" encoding="UTF-8" standalone="no"?>
<!-- Created with Inkscape (http://www.inkscape.org/) -->

<svg
   xmlns:dc="http://purl.org/dc/elements/1.1/"
   xmlns:cc="http://creativecommons.org/ns#"
   xmlns:rdf="http://www.w3.org/1999/02/22-rdf-syntax-ns#"
   xmlns:svg="http://www.w3.org/2000/svg"
   xmlns="http://www.w3.org/2000/svg"
   xmlns:sodipodi="http://sodipodi.sourceforge.net/DTD/sodipodi-0.dtd"
   xmlns:inkscape="http://www.inkscape.org/namespaces/inkscape"
   version="1.1"
   id="svg2"
   xml:space="preserve"
   width="233.30963"
   height="91.988739"
   viewBox="0 0 209.97866 82.789866"
   sodipodi:docname="engsignature(2rows)_sogang.svg"
   inkscape:version="0.92.4 (5da689c313, 2019-01-14)"><metadata
     id="metadata8"><rdf:RDF><cc:Work
         rdf:about=""><dc:format>image/svg+xml</dc:format><dc:type
           rdf:resource="http://purl.org/dc/dcmitype/StillImage" /><dc:title></dc:title></cc:Work></rdf:RDF></metadata><defs
     id="defs6"><clipPath
       clipPathUnits="userSpaceOnUse"
       id="clipPath18"><path
         d="M 0,728.504 H 1031.81 V 0 H 0 Z"
         id="path16"
         inkscape:connector-curvature="0" /></clipPath></defs><sodipodi:namedview
     pagecolor="#ffffff"
     bordercolor="#666666"
     borderopacity="1"
     objecttolerance="10"
     gridtolerance="10"
     guidetolerance="10"
     inkscape:pageopacity="0"
     inkscape:pageshadow="2"
     inkscape:window-width="1920"
     inkscape:window-height="1001"
     id="namedview4"
     showgrid="false"
     scale-x="0.9"
     fit-margin-top="0"
     fit-margin-left="0"
     fit-margin-right="0"
     fit-margin-bottom="0"
     inkscape:zoom="1.37441"
     inkscape:cx="366.43354"
     inkscape:cy="17.275536"
     inkscape:window-x="-9"
     inkscape:window-y="-9"
     inkscape:window-maximized="1"
     inkscape:current-layer="g10" /><g
     id="g10"
     inkscape:groupmode="layer"
     inkscape:label="engsignature(2rows)_sogang"
     transform="matrix(1.3333333,0,0,-1.3333333,-685.13446,603.07592)"><g
       id="g1059"
       transform="translate(-80.445221,177.91287)"><g
         transform="translate(610.35448,248.42408)"
         id="g414"><path
           inkscape:connector-curvature="0"
           id="path416"
           style="fill:#231f20;fill-opacity:1;fill-rule:nonzero;stroke:none"
           d="m 0,0 c 0,2.734 -1.477,4.607 -4.779,6.071 0.002,0 -0.703,0.343 -0.703,0.343 -4.018,1.886 -8.123,4.498 -8.123,9.593 0,6.051 4.339,9.963 11.048,9.963 1.485,0 2.961,-0.202 4.284,-0.586 l 0.544,-0.148 c 0,0 1.881,-0.541 1.885,-0.542 0,0 -0.004,-0.012 -0.004,-0.037 0,-0.574 0.93,-7.527 0.93,-7.527 L 3.148,16.948 c -0.841,3.095 -2.498,6.776 -6.353,6.776 -2.418,0 -4.244,-1.921 -4.244,-4.46 0,-2.308 1.426,-3.895 4.931,-5.48 l 1.024,-0.489 C 3.27,11.053 6.439,8.456 6.439,3.063 6.439,-3.135 1.717,-7.298 -5.32,-7.298 c -1.953,0 -3.875,0.429 -5.018,0.827 0,0 -2.914,1.174 -2.928,1.178 0.002,0.003 0.004,0.008 0.004,0.02 0,0.267 -0.586,3.376 -0.586,3.376 l -0.886,4.722 c 0,0 1.437,0.321 1.808,0.437 0.578,-1.627 3.264,-8.313 8.451,-8.313 C -1.758,-5.051 0,-3.066 0,0" /></g><g
         transform="translate(632.62208,243.04808)"
         id="g418"><path
           inkscape:connector-curvature="0"
           id="path420"
           style="fill:#231f20;fill-opacity:1;fill-rule:nonzero;stroke:none"
           d="m 0,0 c -3.861,0 -6.562,5.29 -6.562,12.866 0,6.578 2.199,10.831 5.597,10.831 3.111,0 6.248,-3.967 6.248,-12.822 C 5.283,3.658 3.504,0 0,0 m -0.195,25.489 c -8.676,0 -13.217,-7.045 -13.217,-14.004 0,-7.697 5.328,-13.28 12.682,-13.28 7.576,0 12.871,5.745 12.871,13.972 0,7.713 -5.19,13.312 -12.336,13.312" /></g><g
         transform="translate(647.73738,254.61198)"
         id="g422"><path
           inkscape:connector-curvature="0"
           id="path424"
           style="fill:#231f20;fill-opacity:1;fill-rule:nonzero;stroke:none"
           d="m 0,0 c 0,9.623 7.566,13.925 15.072,13.925 3.178,0 6.385,-0.797 7.309,-1.045 -0.024,-0.005 0.512,-7.085 0.512,-7.085 0,0 -1.182,-0.091 -1.436,-0.109 -1.197,5.299 -4.437,6.447 -6.963,6.447 -4.426,0 -7.642,-4.78 -7.642,-11.36 0,-6.141 2.486,-12.337 8.029,-12.337 1.074,0 1.734,0.403 1.734,2.396 v 3.89 c 0,2.903 -0.252,3.164 -4.269,3.49 v 1.586 h 12.746 v -1.743 c -1.971,-0.238 -2.233,-0.467 -2.233,-3.333 v -2.917 l 0.229,-3.729 C 20.574,-12.5 17.604,-13.359 14.533,-13.359 5.57,-13.359 0,-8.243 0,0" /></g><g
         transform="translate(726.37598,254.61198)"
         id="g426"><path
           inkscape:connector-curvature="0"
           id="path428"
           style="fill:#231f20;fill-opacity:1;fill-rule:nonzero;stroke:none"
           d="m 0,0 c 0,9.623 7.57,13.925 15.072,13.925 3.17,0 6.383,-0.797 7.307,-1.045 -0.02,-0.005 0.516,-7.085 0.516,-7.085 0,0 -1.182,-0.091 -1.436,-0.109 -1.199,5.299 -4.438,6.447 -6.965,6.447 -4.426,0 -7.639,-4.78 -7.639,-11.36 0,-6.141 2.479,-12.337 8.026,-12.337 1.07,0 1.734,0.403 1.734,2.396 v 3.89 c 0,2.903 -0.256,3.164 -4.269,3.49 v 1.586 H 25.09 v -1.743 c -1.975,-0.238 -2.233,-0.467 -2.233,-3.333 v -2.917 l 0.231,-3.729 C 20.57,-12.5 17.602,-13.359 14.535,-13.359 5.566,-13.359 0,-8.243 0,0" /></g><g
         transform="translate(681.00688,252.14178)"
         id="g430"><path
           inkscape:connector-curvature="0"
           id="path432"
           style="fill:#231f20;fill-opacity:1;fill-rule:nonzero;stroke:none"
           d="m 0,0 2.662,8.237 c 0,0 2.578,-8.235 2.424,-8.44 z M 13.188,-4.927 8.41,8.836 c 0,0 -2.445,7.162 -2.445,7.546 v 0.017 C 5.957,16.395 3.439,15.861 3.424,15.928 3.408,15.897 -4.283,-5.048 -4.283,-5.048 -5.57,-8.491 -6.246,-8.712 -8.168,-8.856 v -1.569 h 8.814 v 1.41 l -1.05,0.127 c -0.793,0.09 -1.332,0.221 -1.576,0.594 -0.274,0.42 -0.102,1.079 0.171,1.963 0,0 1.153,3.893 1.305,4.006 l 6.479,-0.108 1.386,-4.135 c 0.282,-0.829 0.395,-1.347 0.17,-1.714 -0.179,-0.297 -0.56,-0.46 -1.299,-0.567 0,0 -0.992,-0.138 -1.025,-0.033 v -1.543 c 0.311,-0.004 11.859,0 11.859,0 v 1.41 c -1.957,0.258 -2.628,0.527 -3.878,4.088" /></g><g
         transform="translate(720.02248,256.67988)"
         id="g434"><path
           inkscape:connector-curvature="0"
           id="path436"
           style="fill:#231f20;fill-opacity:1;fill-rule:nonzero;stroke:none"
           d="m 0,0 -0.314,7.773 c -0.204,1.482 -1.19,2.08 -3.848,2.212 v 1.328 H 5.504 V 9.826 C 3.555,9.893 2.494,9.233 2.301,7.775 2.299,7.773 1.99,0 1.99,0 v -14.963 h -3.152 c 0,0.104 -14.508,19.337 -14.508,19.337 v -7.942 l 0.307,-7.772 c 0.207,-1.483 1.195,-2.082 3.861,-2.213 v -1.41 h -9.443 v 1.568 c 1.73,-0.064 2.777,0.638 2.966,2.055 l 0.315,7.772 v 7.466 c 0,2.937 -0.061,3.559 -0.883,4.758 -0.631,0.931 -1.598,1.204 -2.967,1.329 v 1.328 h 8.428 c 0,-0.1 13.074,-17.287 13.074,-17.287 z" /></g><g
         transform="translate(630.70608,223.04028)"
         id="g438"><path
           inkscape:connector-curvature="0"
           id="path440"
           style="fill:#231f20;fill-opacity:1;fill-rule:nonzero;stroke:none"
           d="M 0,0 -0.213,5.367 C -0.355,6.389 -1.037,6.801 -2.871,6.893 V 7.811 H 3.803 V 6.832 C 2.455,6.879 1.727,6.375 1.592,5.367 L 1.375,0 v -10.33 h -2.178 c 0,0.072 -10.01,13.35 -10.01,13.35 v -5.483 l 0.211,-5.365 c 0.145,-1.024 0.827,-1.438 2.661,-1.527 v -0.975 h -6.514 v 1.084 c 1.191,-0.045 1.914,0.439 2.047,1.418 l 0.217,5.365 v 5.154 c 0,2.028 -0.043,2.457 -0.61,3.286 -0.435,0.642 -1.101,0.83 -2.047,0.916 v 0.918 h 5.821 c 0,-0.071 9.023,-11.934 9.023,-11.934 z" /></g><g
         transform="translate(611.99908,223.47968)"
         id="g442"><path
           inkscape:connector-curvature="0"
           id="path444"
           style="fill:#231f20;fill-opacity:1;fill-rule:nonzero;stroke:none"
           d="m 0,0 v 2.043 c 0,2.791 -0.09,4.906 -0.26,6.289 -0.168,1.232 -1.002,1.68 -3.22,1.785 v 1.219 H 4.6 V 10.057 C 3.021,10.092 2.148,9.527 1.984,8.336 1.812,6.895 1.725,4.779 1.725,2.043 v -2.625 c 0,-3.58 -0.776,-6.297 -2.305,-8.078 -1.33,-1.529 -3.715,-2.518 -6.068,-2.518 -2.686,0 -4.668,0.594 -6.053,1.813 -1.682,1.431 -2.424,3.849 -2.424,7.828 v 7.471 c 0,3.662 -0.172,3.966 -2.578,4.181 v 1.221 H -7.437 V 10.057 C -9.605,9.949 -9.834,9.553 -9.834,5.934 v -6.959 c 0,-4.901 1.68,-7.713 4.609,-7.713 C -1.859,-8.738 0,-5.635 0,0" /></g><g
         transform="translate(635.75298,212.71598)"
         id="g446"><path
           inkscape:connector-curvature="0"
           id="path448"
           style="fill:#231f20;fill-opacity:1;fill-rule:nonzero;stroke:none"
           d="m 0,0 v 1.078 c 1.855,0.07 2.107,0.397 2.107,3.393 v 9.246 c 0,2.992 -0.156,3.318 -2.107,3.5 v 0.904 H 8.512 V 17.156 C 6.664,17.086 6.414,16.709 6.414,13.717 V 4.471 c 0,-2.996 0.15,-3.323 2.098,-3.502 V 0 Z" /></g><g
         transform="translate(655.93458,218.49728)"
         id="g450"><path
           inkscape:connector-curvature="0"
           id="path452"
           style="fill:#231f20;fill-opacity:1;fill-rule:nonzero;stroke:none"
           d="M 0,0 2.699,8.25 2.953,9.051 C 3.25,9.957 3.379,10.555 3.152,10.906 2.975,11.191 2.605,11.285 2.066,11.35 L 1.314,11.385 V 12.34 H 7.643 V 11.375 C 6.187,11.285 5.732,11.09 4.664,8.482 L -0.734,-5.781 c 0,0 -1.733,-0.002 -1.873,0 -0.051,0.135 -5.274,14.426 -5.274,14.426 -0.892,2.445 -1.414,2.566 -2.726,2.74 v 0.955 h 8.478 c 0,0 0.006,-0.967 0,-0.996 -0.014,0.078 -0.861,-0.022 -0.861,-0.022 -0.448,-0.062 -0.744,-0.146 -0.881,-0.357 -0.152,-0.242 -0.063,-0.588 0.1,-1.131 l 2.177,-6.063 1.496,-4.068 z" /></g><g
         transform="translate(664.08308,212.71598)"
         id="g454"><path
           inkscape:connector-curvature="0"
           id="path456"
           style="fill:#231f20;fill-opacity:1;fill-rule:nonzero;stroke:none"
           d="m 0,0 v 1.078 c 2.066,0.068 2.318,0.365 2.318,3.393 v 9.246 c 0,2.99 -0.144,3.269 -2.041,3.449 v 0.955 h 12.76 l 0.219,-4.537 -1.07,0.018 c -0.159,1.312 -0.461,2.109 -0.895,2.574 -0.422,0.472 -1.262,0.676 -2.793,0.676 H 8.045 c -1.059,0 -1.391,-0.036 -1.391,-1.09 v -5.408 l 1.659,-0.11 c 2.363,0 2.472,0.19 2.742,2.348 h 1.006 V 6.096 H 10.943 C 10.785,8.494 10.689,8.783 8.313,8.783 H 6.654 V 4.104 C 6.654,2.578 6.686,1.881 7.215,1.6 7.686,1.355 8.602,1.334 9.371,1.334 c 1.424,0 2.4,0.297 2.904,0.879 0.446,0.496 0.903,1.504 1.323,2.914 0.392,-0.086 1.052,-0.258 1.052,-0.258 0,0 -0.789,-4.148 -1.017,-4.869 z" /></g><g
         transform="translate(688.71588,222.25508)"
         id="g458"><path
           inkscape:connector-curvature="0"
           id="path460"
           style="fill:#231f20;fill-opacity:1;fill-rule:nonzero;stroke:none"
           d="m 0,0 c -0.529,-0.41 -1.207,-0.498 -2.061,-0.498 l -0.482,0.111 v 6.44 c 0,1.179 0.135,1.314 1.311,1.314 1.111,0 2.767,-0.984 2.767,-3.693 C 1.535,2.072 1.02,0.838 0,0 m 6.5,-7.711 -1.918,3.004 c 0,0 -2.078,3.912 -2.078,4.158 v 0.006 C 4.74,0.381 5.871,1.941 5.871,4.092 5.871,5.572 5.207,6.855 4.057,7.619 3.084,8.273 1.754,8.582 -0.381,8.582 H -8.582 V 7.678 c 1.9,-0.182 2.047,-0.508 2.047,-3.5 v -9.246 c 0,-2.996 -0.26,-3.325 -2.156,-3.393 v -1.078 h 8.25 v 0.969 c -1.95,0.179 -2.102,0.506 -2.102,3.502 v 3.472 h 0.455 c 0.512,0 0.936,-0.373 1.223,-1.078 0.683,-1.627 1.42,-3.318 2.199,-4.492 1.072,-1.639 1.977,-2.42 5.633,-2.5 l 1.029,-0.031 0.119,0.777 c 0,0 -0.832,0.119 -1.615,1.209" /></g><g
         transform="translate(701.92878,220.17108)"
         id="g462"><path
           inkscape:connector-curvature="0"
           id="path464"
           style="fill:#231f20;fill-opacity:1;fill-rule:nonzero;stroke:none"
           d="m 0,0 c -2.275,1.064 -4.594,2.543 -4.594,5.42 0,3.426 2.535,5.75 6.254,5.637 0,0 1.486,-0.133 2.412,-0.334 0.926,-0.198 1.375,-0.389 1.379,-0.389 0,0 -0.004,-0.01 -0.004,-0.031 0,-0.381 0.518,-4.239 0.518,-4.239 L 4.887,5.979 C 4.43,7.727 3.486,9.816 1.281,9.816 c -1.379,0 -2.42,-1.093 -2.42,-2.545 0,-1.318 0.813,-2.224 2.805,-3.125 l 0.58,-0.281 c 2.697,-1.263 4.49,-2.734 4.49,-5.783 0,-3.508 -2.672,-5.863 -6.646,-5.863 -1.092,0 -2.186,0.244 -2.84,0.47 0,0 -1.654,0.663 -1.664,0.666 0,0 0.004,0.006 0.004,0.016 0,0.18 -0.32,1.9 -0.32,1.9 0,0 -0.499,2.653 -0.5,2.676 0.031,-0.068 0.83,0.176 0.996,0.227 0.324,-0.922 1.834,-4.715 4.804,-4.715 1.553,0 2.555,1.133 2.555,2.885 0,1.562 -0.842,2.631 -2.729,3.461 C 0.402,-0.197 0,0 0,0" /></g><g
         transform="translate(709.87408,212.71598)"
         id="g466"><path
           inkscape:connector-curvature="0"
           id="path468"
           style="fill:#231f20;fill-opacity:1;fill-rule:nonzero;stroke:none"
           d="m 0,0 v 1.078 c 1.85,0.07 2.104,0.397 2.104,3.393 v 9.246 c 0,2.992 -0.149,3.318 -2.096,3.5 v 0.904 h 8.51 V 17.107 C 6.666,17.035 6.412,16.709 6.412,13.717 V 4.471 c 0,-2.996 0.149,-3.323 2.1,-3.502 V 0 Z" /></g><g
         transform="translate(719.80568,231.56178)"
         id="g470"><path
           inkscape:connector-curvature="0"
           id="path472"
           style="fill:#231f20;fill-opacity:1;fill-rule:nonzero;stroke:none"
           d="m 0,0 h 0.713 c 0.332,-0.637 0.648,-0.756 1.383,-0.756 h 10.425 c 0.747,0 0.905,0.184 1.338,0.723 h 0.737 c -0.018,0 0.183,-5.547 0.183,-5.547 h -1.064 c -0.283,1.566 -0.574,2.361 -1.004,2.875 -0.445,0.498 -1.148,0.711 -2.594,0.711 H 9.426 v -12.381 c 0,-3.029 0.105,-3.326 2.445,-3.502 v -0.969 H 2.668 v 1.078 c 2.133,0.069 2.394,0.366 2.394,3.393 v 12.271 l -0.56,0.11 C 2.891,-1.994 2.117,-2.25 1.584,-2.871 1.197,-3.391 1.084,-4.18 0.775,-5.58 H -0.229 C -0.121,-5.572 0,0 0,0" /></g><g
         transform="translate(747.24908,228.46408)"
         id="g474"><path
           inkscape:connector-curvature="0"
           id="path476"
           style="fill:#231f20;fill-opacity:1;fill-rule:nonzero;stroke:none"
           d="M 0,0 C 0.156,0.396 0.275,0.742 0.127,0.996 0.012,1.189 -0.242,1.303 -0.697,1.355 L -1.77,1.418 V 2.373 H 4.531 V 1.418 C 3.084,1.348 2.564,0.939 1.646,-0.748 l -2.798,-5.357 c -0.465,-0.999 -0.547,-1.176 -0.547,-2.37 v -2.802 c 0,-3.028 0.156,-3.325 2.449,-3.502 v -0.969 h -9.098 v 0.982 c 2.09,0.069 2.344,0.461 2.344,3.489 v 2.41 c 0,0.781 -0.326,1.808 -0.326,1.808 l -3.287,6.336 c -0.969,1.803 -1.285,1.959 -2.555,2.141 v 0.955 h 8.11 V 1.418 C -4.078,1.496 -5.119,1.297 -5.119,1.297 -5.414,1.248 -5.582,1.158 -5.664,1.012 -5.777,0.801 -5.668,0.531 -5.492,0.137 c 0,-0.002 2.926,-6.102 2.926,-6.102 z" /></g></g></g></svg>