<?xml version="1.0" encoding="utf-8"?>
<!-- Generator: Adobe Illustrator 26.3.1, SVG Export Plug-In . SVG Version: 6.00 Build 0)  -->
<svg version="1.1" id="Layer_1" xmlns="http://www.w3.org/2000/svg" xmlns:xlink="http://www.w3.org/1999/xlink" x="0px" y="0px"
	 width="195px" height="59.7px" viewBox="0 0 195 59.7" style="enable-background:new 0 0 195 59.7;" xml:space="preserve">
<style type="text/css">
	.st0{fill-rule:evenodd;clip-rule:evenodd;fill:#B4292E;}
	.st1{fill:#B4292E;}
</style>
<g>
	<g>
		<path class="st0" d="M0,41.8h12.8v-1.4L9.1,40c-0.7-0.1-1.5-0.2-1.5-1.4c0-0.5,0.5-2.2,1.2-4.2l3.1-8.6c2.1-0.4,4.3-0.6,6.4-0.6
			c2.3,0,4.5,0.2,6.8,0.6l4.3,11.7c0.1,0.4,0.4,0.9,0.4,1.3c0,0.7-0.8,1-1.9,1.2l-2.7,0.5v1.4h15.1v-1.4l-2.4-0.4
			c-1.6-0.3-2.2-1.7-3.1-4.2L21.1,0l-1.8,0.6c-0.5,1.2-1,2.4-1.5,3.7L5.2,35.6c-1.5,3.6-1.8,4.3-4.1,4.6L0,40.5V41.8L0,41.8z
			 M18.6,8.4l5.6,15c-1.9-0.2-3.9-0.3-5.8-0.3c-1.8,0-3.7,0.2-5.5,0.3L18.6,8.4L18.6,8.4z"/>
	</g>
	<g>
		<path class="st1" d="M41.9,41.8h13.6v-1.3l-1.4-0.2c-2.3-0.2-2.7-0.2-2.7-4.5V0c-2.6,0-7.5,0.6-9.4,1l0.2,1.4L43,2.3
			c0.1,0,0.5-0.1,0.9-0.1c2.2,0,2.2,2.9,2.2,7.8v25.8c0,4.3-0.5,4.3-2.7,4.5l-1.5,0.2V41.8L41.9,41.8z"/>
	</g>
	<g>
		<path class="st0" d="M70.8,37.2c-4.1,0-7.1-0.3-7.1-2.7c0-1.5,1.9-2.2,3.2-2.8c0.9,0.2,1.9,0.3,2.4,0.3c7,0,12-3.5,12-10
			c0-2.7-1.1-4.5-1.6-5.1c1.6-0.2,4.3-0.4,5.7-0.7v-1.1c-3-0.6-11.2-2.4-15-2.4c-5.4,0-12.3,2.4-12.3,10.3c0,5.5,3.8,7.1,6.4,8
			c-1.9,1.3-5.5,2.5-5.5,5c0,2.7,3.2,4.2,4.9,4.8V41c-2.5,0.8-6.9,2.8-6.9,6.9c0,5.2,5.1,8.5,11.6,8.5c9.2,0,16.1-4.2,16.1-11.1
			c0-7.1-7.5-8.1-10.3-8.1H70.8L70.8,37.2z M63.6,22.4c0-4.5,2.4-7.6,6.1-7.6c3.2,0,6.1,2,6.1,8c0,3.7-2.1,7.1-6,7.1
			C66.3,29.9,63.6,27,63.6,22.4L63.6,22.4z M62.3,46.5c0-3.8,3-5.2,8-5.2c5.2,0,9.7,1.3,9.7,5.6c0,3.9-3.5,7.4-8.9,7.4
			C65.6,54.3,62.3,50.6,62.3,46.5L62.3,46.5z"/>
	</g>
	<g>
		<path class="st0" d="M100.7,42.8c7.7,0,15-5.1,15-15.8c0-8.6-6-14.3-14.7-14.3c-7.5,0-14.9,5.3-14.9,15.6
			C86.1,38,93,42.8,100.7,42.8L100.7,42.8z M91.7,27.5c0-5.9,2.2-12.6,8.5-12.6c7.1,0,9.9,6.4,9.9,13.8c0,6.6-2.8,12-8.3,12
			C94.9,40.6,91.7,34.4,91.7,27.5L91.7,27.5z"/>
	</g>
	<g>
		<path class="st1" d="M117.5,41.8h13.6v-1.3l-1.4-0.2c-2.3-0.2-2.7-0.7-2.7-4.5V19.3c0.9-1.1,2.9-3.7,6.6-3.7
			c6.3,0,6.3,6.2,6.3,8.6v11.5c0,3.8-0.5,4.3-2.7,4.5l-1.5,0.2v1.3h13.6v-1.3l-1.4-0.2c-2.2-0.2-2.7-0.7-2.7-4.5V27
			c0-5.3-0.1-6.5-0.3-8.4c1.7-1.8,3.7-3,6.4-3c6.8,0,6.8,5.9,6.8,11.5v8.6c0,3.8-0.5,4.3-2.7,4.5l-1.5,0.2v1.3h13.6v-1.3l-1.4-0.2
			c-2.3-0.2-2.7-0.7-2.7-4.5V25.7c0-6.1,0-13-10-13c-4.4,0-7.8,2.8-9.2,4c-0.7-1.8-2.9-4-8-4c-4.8,0-7.7,2.8-9.1,4.2v-4.2
			c-2.1,0-7.7,1.6-9.4,2.2l0.2,1.5l1.3-0.4c0.1,0,0.5-0.1,0.9-0.1c1.7,0,1.7,1.7,1.7,7.8v12c0,3.8-0.5,4.3-2.7,4.5l-1.5,0.2V41.8
			L117.5,41.8z"/>
	</g>
	<g>
		<path class="st0" d="M194.7,40.3c-0.2,0.1-0.5,0.2-1.1,0.2c-3.3,0-3.3-4.6-3.3-9v-8.9c0-6.3-1.5-10-8.4-10
			c-6.4,0-10.3,4.2-12.2,6.6c0.4,1.1,0.9,1.7,1.6,2.5h0.5c1.2-2.3,2.7-6.2,7.5-6.2c4.6,0,5.7,3.5,5.7,7.6v1.4
			c-5.4,1.6-15.9,4-15.9,12.1c0,3.4,3,6,7.5,6c4.7,0,7-1.3,8.9-2.6c0.6,1.3,1.7,2.6,4.8,2.6c2.6,0,3.8-1,4.6-1.5L194.7,40.3
			L194.7,40.3z M185,27.6V38c-0.4,0.6-1.9,2.5-4.6,2.5c-3.5,0-5.7-2.1-5.7-5.6c0-5.8,6-7.4,9.4-7.4H185L185,27.6z"/>
	</g>
	<g>
		<g>
			<path class="st1" d="M99,55.3v-6.4h1.7v6.4c0,2.4-2,4.4-4.5,4.4c-2.5,0-4.5-2-4.5-4.4v-6.4h1.7v6.4c0,1.6,1.3,2.9,2.8,2.9
				C97.7,58.2,99,56.9,99,55.3z"/>
		</g>
		<g>
			<path class="st1" d="M113.5,48.9v10.7h-1.4l-5.9-7.7v7.7h-1.7V48.9h1.4l5.9,7.7v-7.7H113.5z"/>
		</g>
		<g>
			<path class="st1" d="M117.4,48.9h1.7v10.7h-1.7V48.9z"/>
		</g>
		<g>
			<path class="st1" d="M121.7,48.9h1.8l3.3,8.5l3.3-8.5h1.8l-4.2,10.7h-1.7L121.7,48.9z"/>
		</g>
		<g>
			<path class="st1" d="M142.2,58.1v1.5h-7.7V48.9h7.5v1.5h-5.9v2.8h4.7v1.5h-4.7v3.3H142.2z"/>
		</g>
		<g>
			<path class="st1" d="M145.2,48.9h4.5c2,0,3.4,1.4,3.4,3.3c0,2.4-2.1,3.1-2.1,3.1l2.4,4.3h-1.8l-2.3-4.1h-2.4v4.1h-1.7V48.9z
				 M149.7,50.4h-2.8V54h2.8c1,0,1.8-0.8,1.8-1.8C151.5,51.2,150.7,50.4,149.7,50.4z"/>
		</g>
		<g>
			<path class="st1" d="M156,51.7c0-1.6,1.3-2.9,3.5-2.9c2.1,0,3.2,1.4,3.2,1.4l-1.1,1.1c0,0-0.7-0.9-2.1-0.9
				c-1.1,0-1.8,0.7-1.8,1.4c0,2.4,5.6,0.9,5.6,4.9c0,1.8-1.4,3.2-3.8,3.2c-2.6,0-3.8-1.7-3.8-1.7l1.1-1.1c0,0,0.8,1.2,2.7,1.2
				c1.4,0,2.1-0.8,2.1-1.7C161.7,54.1,156,55.6,156,51.7z"/>
		</g>
		<g>
			<path class="st1" d="M166.5,48.9h1.7v10.7h-1.7V48.9z"/>
		</g>
		<g>
			<path class="st1" d="M178.8,48.9v1.5h-3.2v9.1h-1.7v-9.1h-3.2v-1.5H178.8z"/>
		</g>
		<g>
			<path class="st1" d="M185.5,54l2.9-5.1h1.8l-3.9,6.9v3.8h-1.7v-3.8l-3.9-6.9h1.8L185.5,54z"/>
		</g>
	</g>
</g>
</svg>
