<?xml version="1.0" encoding="UTF-8" standalone="no"?>
<!-- Created with Inkscape (http://www.inkscape.org/) -->

<svg
   xmlns:dc="http://purl.org/dc/elements/1.1/"
   xmlns:cc="http://creativecommons.org/ns#"
   xmlns:rdf="http://www.w3.org/1999/02/22-rdf-syntax-ns#"
   xmlns:svg="http://www.w3.org/2000/svg"
   xmlns="http://www.w3.org/2000/svg"
   version="1.1"
   width="497.6875"
   height="51.09375"
   id="svg3305">
  <defs
     id="defs3307" />
  <g
     transform="translate(-105.44196,-506.81531)"
     id="layer1">
    <path
       d="m 570.97321,507.81531 -7,15.5 21.71875,0 0,24.78125 16.4375,0 0,-40.28125 -31.15625,0 z m -7,17.21875 -10.34375,23.0625 30.21875,0 c -0.40995,-0.31577 -0.90959,-0.98413 -1.59375,-1.03125 -6.57016,-0.42103 -14.87656,-0.0122 -17.375,-7.46875 -1.5179,-4.55923 -0.78713,-9.33077 -0.90625,-14.03125 -0.009,-0.17728 0,-0.35398 0,-0.53125 z"
       id="path184"
       style="fill:#3db94d;fill-opacity:1;fill-rule:nonzero;stroke:none" />
    <path
       d="m 165.50446,510.00281 -8.5,2.8125 0,1.4375 c 3.48729,0.24375 4.15625,0.0358 4.15625,4.3125 l 0,22.40625 c 0,4.61739 0.0121,4.91919 -3.28125,5.3125 l 0,1.4375 10.96875,0 0,-1.4375 c -3.34325,-0.39332 -3.34375,-0.69511 -3.34375,-5.3125 l 0,-11.9375 c 1.76997,-1.57329 4.0059,-3.3125 6.5625,-3.3125 3.2934,0 4,2.80981 4,6.25 l 0,9 c 0,4.61739 -0.0191,4.91919 -3.3125,5.3125 l 0,1.4375 10.90625,0 0,-1.4375 c -3.2934,-0.39332 -3.28125,-0.69511 -3.28125,-5.3125 l 0,-9 c 0,-5.11043 -1.02721,-8.84375 -6.1875,-8.84375 -2.99978,0 -6.47712,1.83005 -8.6875,3.84375 l 0,-16.96875 z m 48.84375,0 -8.5,2.8125 0,1.4375 c 3.49282,0.24375 4.1875,0.0358 4.1875,4.3125 l 0,29.375 0.59375,0 3.375,-3.34375 c 1.67024,1.8669 3.9402,3.65625 6.59375,3.65625 6.53693,0 10.03125,-7.53694 10.03125,-13.1875 0,-5.35696 -3.2314,-11.9375 -9.375,-11.9375 -2.50675,0 -5.18615,1.52991 -6.90625,3.25 l 0,-16.375 z m -87.65625,0.5 -4.625,1.21875 -8.9375,26.84375 c -1.13011,3.3931 -2.46066,7.48137 -6.6875,7.53125 l 0,1.625 12.59375,0 0,-1.625 c -2.0137,0 -4.625,-0.36827 -4.625,-2.875 0,-1.42373 1.47849,-5.22977 1.96875,-6.65625 l 0.625,-1.875 12.53125,0 2.03125,6.03125 c 0.29362,0.73678 0.8125,2.3696 0.8125,3.15625 0,2.55384 -3.07698,2.07195 -4.75,2.21875 l 0,1.625 14.4375,0 0,-1.625 c -1.22982,-0.1468 -2.351,-0.50683 -3.1875,-1.4375 -1.32677,-1.42649 -2.61016,-5.52075 -3.25,-7.4375 l -8.9375,-26.71875 z m 272.25,0.6875 c -1.81981,0 -3.21875,1.4642 -3.21875,3.28125 0,1.81981 1.46144,3.25 3.28125,3.25 1.76719,0 3.25,-1.48005 3.25,-3.25 0,-1.81705 -1.49546,-3.28125 -3.3125,-3.28125 z m 101.53125,0 c -1.81705,0 -3.25,1.4642 -3.25,3.28125 0,1.81981 1.46421,3.25 3.28125,3.25 1.76996,0 3.25,-1.48005 3.25,-3.25 0,-1.81705 -1.46144,-3.28125 -3.28125,-3.28125 z m -165.8125,0.53125 0,1.625 c 3.68394,0 4.3125,1.34319 4.3125,6.75 l 0,16.59375 c 0,7.61719 4.96711,11.5625 12.4375,11.5625 8.74729,0 12.75,-4.27132 12.75,-12.96875 l 0,-15.1875 c 0,-5.40681 0.63204,-6.75 4.5625,-6.75 l 0,-1.625 -11.25,0 0,1.625 c 3.78366,0 4.40625,1.34319 4.40625,6.75 l 0,13.40625 c 0,6.63387 -0.87116,12.76862 -9.03125,12.71875 -7.71413,0.0498 -9,-5.82543 -9,-12.3125 l 0,-13.8125 c 0,-5.40681 0.63871,-6.75 4.71875,-6.75 l 0,-1.625 -13.90625,0 z m -187.375,3.34375 c -0.44318,3.73656 -2.64438,7.53906 -6.28125,9.0625 l 0,1.15625 3.59375,0 0,15.9375 c 0,3.48728 0.64497,7.03125 4.96875,7.03125 2.99702,0 5.44283,-1.98034 7.3125,-4.09375 l -0.84375,-0.96875 c -1.22982,1.22982 -2.39573,2.4375 -4.3125,2.4375 -3.04963,0 -2.8125,-3.22714 -2.8125,-5.4375 l 0,-14.90625 6.875,0 0,-1.625 -6.875,0 0,-8.59375 -1.625,0 z m 366.9375,0 c -0.44318,3.73656 -2.6444,7.53906 -6.28125,9.0625 l 0,1.15625 3.59375,0 0,15.9375 c 0,3.48728 0.61371,7.03125 4.9375,7.03125 2.99703,0 5.47685,-1.98034 7.34375,-4.09375 l -0.84375,-0.96875 c -1.22706,1.22982 -2.39574,2.4375 -4.3125,2.4375 -3.04687,0 -2.8125,-3.22714 -2.8125,-5.4375 l 0,-14.90625 6.875,0 0,-1.625 -6.875,0 0,-8.59375 -1.625,0 z m -390.875,0.84375 5.5,16.5 -11.0625,0 5.5625,-16.5 z m 147.125,6.875 c -0.58999,0.68694 -1.2853,1.125 -2.21875,1.125 -1.37663,0 -3.10504,-0.78125 -4.875,-0.78125 -3.88338,0 -7.71875,2.82025 -7.71875,7 0,8.8941 15.3125,6.13126 15.3125,12.46875 0,2.31009 -2.08353,4.03125 -4.34375,4.03125 -3.68671,0 -8.28934,-4.18451 -10.15625,-7.28125 l -1.09375,0.53125 3.03125,8.375 c 0.8365,-0.6897 1.84183,-1.125 2.875,-1.125 0.63984,0 1.22251,0.2436 1.8125,0.4375 1.13011,0.34346 2.02016,0.6875 3.25,0.6875 3.93046,0 8,-3.21343 8,-7.4375 0,-8.99381 -15.4375,-6.72195 -15.4375,-12.71875 0,-2.0137 1.95824,-3.34375 3.875,-3.34375 3.98031,0 6.93673,3.59354 9.34375,6.6875 l 1.1875,-0.625 -2.84375,-8.03125 z m 104.15625,0 -7.53125,2.90625 0,1.1875 c 2.99701,0 3.04069,0.92756 3.1875,3.53125 l 0,10.5625 c 0,4.61739 0.0308,4.91919 -3.3125,5.3125 l 0,1.4375 10.9375,0 0,-1.4375 c -3.29339,-0.39332 -3.28125,-0.69511 -3.28125,-5.3125 l 0,-12 c 1.47635,-1.47359 3.49296,-3.25 5.65625,-3.25 3.88338,0 4.0625,3.70632 4.0625,6.65625 l 0,8.59375 c 0,4.61739 0.0153,4.91919 -3.375,5.3125 l 0,1.4375 11,0 0,-1.4375 c -3.29062,-0.39332 -3.28125,-0.69511 -3.28125,-5.3125 l 0,-9.53125 c 0,-2.30731 -0.0643,-4.58643 -1.6875,-6.40625 -1.22706,-1.22705 -2.93616,-1.90625 -4.65625,-1.90625 -2.75328,0 -5.85185,1.83005 -7.71875,3.84375 l 0,-4.1875 z m 27.1875,0 -7.53125,2.90625 0,1.1875 c 2.99703,0 3.04346,0.92756 3.1875,3.53125 l 0,10.5 c 0,4.57031 -0.003,4.91917 -3.34375,5.3125 l 0,1.5 11.03125,0 0,-1.4375 c -3.34047,-0.39332 -3.34375,-0.69511 -3.34375,-5.3125 l 0,-18.1875 z m 59.21875,0 -7.53125,2.90625 0,1.1875 c 2.99701,0 3.07195,0.92756 3.21875,3.53125 l 0,10.5625 c 0,4.61739 -0.006,4.91919 -3.25,5.3125 l 0,1.4375 10.84375,0 0,-1.4375 c -3.29339,-0.39332 -3.28125,-0.69511 -3.28125,-5.3125 l 0,-10.21875 c 0.8365,-1.37386 2.81393,-3.625 4.53125,-3.625 1.5733,0 2.2174,1.25 3.9375,1.25 1.62039,0 2.625,-1.22656 2.625,-2.75 0,-1.7201 -1.41086,-2.84375 -3.03125,-2.84375 -3.24354,0 -6.1956,3.50242 -8.0625,5.8125 l 0,-5.8125 z m 28.625,0 c -0.58997,0.68694 -1.2853,1.125 -2.21875,1.125 -1.37664,0 -3.10504,-0.78125 -4.875,-0.78125 -3.88061,0 -7.71875,2.82025 -7.71875,7 0,8.8941 15.28125,6.13126 15.28125,12.46875 0,2.31009 -2.05228,4.03125 -4.3125,4.03125 -3.68395,0 -8.31783,-4.18451 -10.1875,-7.28125 l -1.0625,0.53125 3.03125,8.375 c 0.83374,-0.6897 1.84461,-1.125 2.875,-1.125 0.63985,0 1.22253,0.2436 1.8125,0.4375 1.13011,0.34346 2.02017,0.6875 3.25,0.6875 3.93046,0 8,-3.21343 8,-7.4375 0,-8.99381 -15.4375,-6.72195 -15.4375,-12.71875 0,-2.0137 1.95824,-3.34375 3.875,-3.34375 3.98032,0 6.93671,3.59354 9.34375,6.6875 l 1.1875,-0.625 -2.84375,-8.03125 z m 13.65625,0 -7.53125,2.90625 0,1.1875 c 2.99701,0 3.07195,0.92756 3.21875,3.53125 l 0,10.5 c 0,4.57031 -0.003,4.91917 -3.34375,5.3125 l 0,1.5 11,0 0,-1.4375 c -3.34326,-0.39332 -3.34375,-0.69511 -3.34375,-5.3125 l 0,-18.1875 z m -307.9375,0.34375 c -3.19367,0 -8.9375,1.57897 -8.9375,5.65625 0,1.32953 0.93587,2.15625 2.3125,2.15625 1.76995,0 2.40057,-0.91406 2.84375,-2.4375 0.54013,-2.11343 1.57437,-3.75 4.03125,-3.75 2.94717,0 3.4375,2.81172 3.4375,5.21875 l 0,3.25 c -5.01348,0.98054 -13.5625,2.65335 -13.5625,9.1875 0,3.49006 2.37232,5.84375 5.8125,5.84375 2.94717,0 5.58353,-1.62045 7.84375,-3.4375 0.19667,1.8669 1.33004,3.4375 3.34375,3.4375 2.31008,0 3.80143,-1.62045 5.03125,-3.4375 l -0.65625,-1.03125 c -0.58999,0.63983 -1.16626,1.21875 -2,1.21875 -1.47635,0 -1.46875,-2.16378 -1.46875,-3.34375 l 0,-11.1875 c 0,-2.06634 -0.0141,-4.15141 -1.78125,-5.625 -1.67301,-1.37663 -4.18643,-1.71875 -6.25,-1.71875 z m 46.90625,0 c -3.19367,0 -8.9375,1.57897 -8.9375,5.65625 0,1.32953 0.93587,2.15625 2.3125,2.15625 1.76996,0 2.40334,-0.91406 2.84375,-2.4375 0.54013,-2.11343 1.57436,-3.75 4.03125,-3.75 2.94992,0 3.4375,2.81172 3.4375,5.21875 l 0,3.25 c -5.01349,0.98054 -13.5625,2.65335 -13.5625,9.1875 0,3.49006 2.34382,5.84375 5.78125,5.84375 2.94993,0 5.61201,-1.62045 7.875,-3.4375 0.19666,1.8669 1.33004,3.4375 3.34375,3.4375 2.31009,0 3.77017,-1.62045 5,-3.4375 l -0.625,-1.03125 c -0.58999,0.63983 -1.19751,1.21875 -2.03125,1.21875 -1.47635,0 -1.46875,-2.16378 -1.46875,-3.34375 l 0,-11.1875 c 0,-2.06634 0.0172,-4.15141 -1.75,-5.625 -1.673,-1.37663 -4.18366,-1.71875 -6.25,-1.71875 z m 47.34375,0 c -7.56732,0 -12.5,5.91377 -12.5,13.1875 0,6.09373 4.56279,11.9375 11,11.9375 4.47336,0 8.01505,-2.81925 10.375,-6.40625 l -0.75,-0.6875 c -2.11343,2.31007 -4.28451,4.46875 -7.625,4.46875 -5.45667,0 -8.0625,-5.73899 -8.0625,-10.40625 0,-3.78643 1.00193,-10.46875 6.0625,-10.46875 4.71989,0 3.30064,6 6.9375,6 1.42373,0 2.625,-1.04227 2.625,-2.46875 0,-3.4402 -5.25938,-5.15625 -8.0625,-5.15625 z m 21.3125,0 c -3.19367,0 -8.96875,1.57897 -8.96875,5.65625 0,1.32953 0.93586,2.15625 2.3125,2.15625 1.76995,0 2.43181,-0.91406 2.875,-2.4375 0.54012,-2.11343 1.57436,-3.75 4.03125,-3.75 2.94716,0 3.4375,2.81172 3.4375,5.21875 l 0,3.25 c -5.01349,0.98054 -13.5625,2.65335 -13.5625,9.1875 0,3.49006 2.34105,5.84375 5.78125,5.84375 2.94993,0 5.61478,-1.62045 7.875,-3.4375 0.19666,1.8669 1.32728,3.4375 3.34375,3.4375 2.31007,0 3.77018,-1.62045 5,-3.4375 l -0.625,-1.03125 c -0.58999,0.63983 -1.19751,1.21875 -2.03125,1.21875 -1.47635,0 -1.46875,-2.16378 -1.46875,-3.34375 l 0,-11.1875 c 0,-2.06634 -0.0113,-4.15141 -1.78125,-5.625 -1.67024,-1.37663 -4.15519,-1.71875 -6.21875,-1.71875 z m 129.75,0 c -6.88039,0 -11.25,6.48807 -11.25,12.78125 0,6.73082 4.99461,12.34375 11.875,12.34375 4.03019,0 7.46769,-2.42217 9.53125,-5.8125 l -0.8125,-0.78125 c -1.91954,2.65355 -4.7691,4.46875 -8.0625,4.46875 -6.14083,0 -7.5625,-7.12068 -7.5625,-11.9375 l 16.65625,0 c 0,-5.80014 -4.2314,-11.0625 -10.375,-11.0625 z m -35.40625,0.53125 0,1.4375 c 2.26022,0.0499 2.76321,2.0113 3.5,3.78125 l 7.40625,18.84375 2.375,0 6.9375,-17.40625 c 0.44319,-1.17996 1.4103,-3.85099 2.34375,-4.6875 0.58999,-0.49025 1.38821,-0.48138 2.125,-0.53125 l 0,-1.4375 -9.75,0 0,1.4375 c 1.62315,0 3.25,0.60185 3.25,2.46875 0,1.03316 -0.62529,2.39168 -0.96875,3.375 l -4.03125,10.65625 -4.6875,-11.96875 c -0.24653,-0.63984 -0.71875,-1.91947 -0.71875,-2.65625 0,-1.67024 1.84809,-1.875 3.125,-1.875 l 0,-1.4375 -10.90625,0 z m 120.8125,0 0,1.4375 c 2.90008,0 3.37905,2.20575 4.3125,4.46875 l 7.03125,17.75 c -0.68971,1.47357 -1.51754,5.75 -3.53125,5.75 -1.22983,0 -1.77074,-1.90625 -3.6875,-1.90625 -1.42649,0 -2.59375,1.02365 -2.59375,2.5 0,2.06356 1.99545,3.25 3.8125,3.25 4.37641,0 6.11073,-4.05384 7.4375,-7.59375 l 7.0625,-17.59375 c 0.63984,-1.7201 1.82629,-4.96684 3.25,-6 0.6897,-0.5872 1.6635,-0.57513 2.5,-0.625 l 0,-1.4375 -10.46875,0 0,1.4375 c 1.4265,0 3.65625,0.1956 3.65625,2.0625 0,0.98331 -0.68777,2.80113 -1.03125,3.6875 l -4.1875,10.71875 -4.78125,-12.6875 c -0.2936,-0.68693 -0.625,-1.6042 -0.625,-2.34375 0,-1.37385 1.9071,-1.4375 2.9375,-1.4375 l 0,-1.4375 -11.09375,0 z m -85.46875,1.09375 c 4.2767,0 5.76513,4.17216 5.46875,7.5625 l -11.46875,0 c 0.0997,-3.34325 1.82301,-7.5625 6,-7.5625 z m -221.4375,0.96875 c 4.81683,0 6.78125,5.62926 6.78125,9.5625 0,3.93046 -1.74248,10.34375 -6.65625,10.34375 -2.01371,0 -3.48252,-1.30739 -4.90625,-2.4375 l 0,-14.8125 c 1.22706,-1.32402 2.86449,-2.65625 4.78125,-2.65625 z m -20.125,9.09375 0,8.03125 c -1.22982,1.37662 -3.49545,2.78125 -5.3125,2.78125 -1.96661,0 -3.5625,-1.47116 -3.5625,-3.78125 0,-4.07728 5.38495,-6.44126 8.875,-7.03125 z m 46.90625,0 0,8.03125 c -1.22982,1.37662 -3.49545,2.78125 -5.3125,2.78125 -1.96661,0 -3.59375,-1.47116 -3.59375,-3.78125 0,-4.07728 5.4162,-6.44126 8.90625,-7.03125 z m 68.65625,0 0,8.03125 c -1.22982,1.37662 -3.49545,2.78125 -5.3125,2.78125 -1.96661,0 -3.59375,-1.47116 -3.59375,-3.78125 0,-4.07728 5.4162,-6.44126 8.90625,-7.03125 z"
       id="path188"
       style="fill:#00ade5;fill-opacity:1;fill-rule:nonzero;stroke:none" />
  </g>
</svg>
