<?xml version="1.0" encoding="UTF-8" standalone="no"?>
<svg xmlns="http://www.w3.org/2000/svg" xml:space="preserve" width="191.75" height="83.806" viewBox="0 0 191.7455 83.805603">
  <path fill="#041e42" d="M116.5225 1.0346c-3.02.2598-8.17.2324-8.66.2324h-11.88c-1.584.0207-2.63.0436-9.338-.1875l-1.609 8.5137.637.0918c1.053-2.4783 2.217-4.241 3.918-5.6563 1.396-1.1586 1.804-1.558 5.144-1.8242h4.11v26.711c.006.534-.14 2.796-4.676 3.01v.683h14.644v-.683c-4.51-.238-4.74-2.467-4.78-3.01V2.1265l1.91.0019-.05.0058c.33-.0085.61-.0026.91-.0039l.99.002c3.75.0904 5.2.8287 5.2 2.0293v24.762c0 2.323-1.35 2.893-3.36 3.027v.658h9.6v-.658c-1.88-.134-2.38-.704-2.38-3.027v-10.151c0-1.058 1.64-3.66 4.23-3.714 1.65-.036 2.99.575 3.53 1.611.63 1.181.59 1.84.59 3.269v8.985c0 2.365-.84 2.893-2.67 3.027v.658h9.51v-.658c-1.97-.134-3.05-.704-3.05-3.027v-8.985c0-1.742-.16-3.323-1.1-4.886-1.03-1.789-2.97-2.619-5.03-2.619-2.77 0-5.09 2.822-6.01 4.609V1.0346l-.9.0919.57-.0918zm22.8 11.451c-5.53 0-9.37 4.379-9.18 10.301.19 6.002 3.6 10.048 9.31 10.147 5.06.089 7.32-3.068 8.59-7.436l-.54-.098c-1.07 2.684-3.77 4.504-6.55 4.414-4.27-.133-6.91-3.521-7.3-7.92-.07-.846 0-1.698.13-2.386h14.21c-.99-4.63-4.42-7.022-8.67-7.022zm-.43.59c2.7 0 3.94 2.684 4.14 5.559l-9.08.097c.78-2.868 2.15-5.656 4.94-5.656zm-106.24 13.17v.695c3.17-.012 3.98.641 3.932 3.735v17.029c-.02 5.361 2.324 9.282 9.32 10.076l-8.018 20.235c-1.531 3.023-3.154 3.56-4.525 3.648v.684h9.496v-.684c-3.391.01-4.111-1.746-3.805-3.393 0 0 .121-.916.68-2.441.716-1.955 1.827-4.483 2.274-5.73h11.091c1.041 2.346 3.34 7.784 3.618 9.238.409 2.126-2.479 2.326-3.926 2.326v.684h17.791v-.68c-1.919-.134-2.484-.122-2.481-2.881v-4.939l1.756-1.641 4.674 6.375c.531.657 1.07 1.3 1.07 1.9 0 1.269-1.565 1.186-2.236 1.186v.68h19.018v-.678c-2.681-.167-3.368-.401-3.368-2.629v-8.795c0-1.321 1.431-4.379 2.413-4.379 1.161 0 1.076 1.129 2.447 1.129 1.777 0 2.08-1.452 2.08-2.322 0-1.387-.978-2.42-2.307-2.403-2.449.028-4.05 3.632-4.722 5.522v-5.758c-1.749.843-6.682 3.443-6.682 3.443 1.638.423 2.732.513 2.732 2.256v11.307c.017 2.27-.787 2.407-1.47 2.457-1.96-.097-2.921-1.392-4.246-3.207l-6.424-8.887c1.716-1.421 4.796-5.281 9.365-5.418v-.689h-10.01v.689c.67 0 2.867-.065 3.049.938.14.784-.584 1.43-1.146 2.072l-5.993 5.781v-14.388c-2.205-.004-1.864-.005-4.07.005v20.563c.002 1.401-.189 1.67-.396 1.705-.022 0-.043.004-.065.002-.023-.001-.045-.001-.068-.004-.616-.143-1.299-1.293-2.108-3.361l-8.261-19.854c5.769-1.432 7.366-5.852 7.261-10.998v-15.771c.064-3.06 1.489-3.523 4.477-3.735v-.695h-10.018v.695c3.119.182 4.448.616 4.491 3.735v15.771c.043 4.43-1.614 9.002-6.536 10.219l-2.709-6.51c-1.053 1.178-2.654 2.195-4.343 3.031l1.132 2.112-.472 1.191c-4.237-1.316-4.988-4.975-4.885-7.564v-18.25c-.127-2.44 1.221-3.736 4.611-3.735v-.695h-13.488zm53.703 1.426c-1.401 0-2.537 1.136-2.537 2.537s1.136 2.537 2.537 2.537 2.537-1.136 2.537-2.537-1.136-2.537-2.537-2.537zm69.243 0c-1.41 0-2.54 1.136-2.54 2.537s1.13 2.537 2.54 2.537c1.39 0 2.53-1.136 2.53-2.537s-1.14-2.537-2.53-2.537zm9.45 6.582-6.78 6.107h3.02v12.498c.19 2.893 1.66 5.319 4.88 5.319 1.87 0 3.62-1.102 5.05-2.323.29-.251.69-.738.99-1.086l-.46-.437c-.85.663-2.14 1.697-3.3 1.697-2.46 0-3.4-1.383-3.4-3.617v-12.051h4.84c.28.344.52.669.64.912l8.31 17.397s-.48 1.164-1.46 3.656c-.73 1.852-1.97 1.407-2.04.449-.04-.51-.02-.759-.34-1.183-.37-.477-.65-.856-1.63-.881-1.14-.026-1.93.976-1.93 2.049 0 .938 1.19 2.239 2.51 2.297 2.36.102 3.65-1.005 4.23-2.602.46-1.264 7.96-20.234 7.96-20.234.67-1.969 1.26-3.24 4.56-3.151v-.691h-8.74v.691c4.06-.003 4.08 1.066 3.23 3.412l-4.49 11.379s-5.58-12.324-5.85-12.916c-.7-1.53.03-1.973 2.87-1.875v-.691h-12.67v-4.125zm-33.72 3.119c-1.75.841-6.68 3.445-6.68 3.445 1.64.421 2.73.511 2.73 2.254v11.309c0 2.322-.58 2.491-2.76 2.625v.68h10.17v-.68c-2.69-.166-3.37-.399-3.37-2.625v-8.799c0-1.318 1.43-4.377 2.41-4.377 1.16 0 1.08 1.129 2.45 1.129.74 0 1.22-.259 1.53-.617-.11.404-.18.836-.18 1.299 0 3.19 2.36 4.663 4.99 6.123 2.11 1.185 5.16 2.054 5.28 4.832.06 1.455-1.11 3.372-3.83 3.402-3.57.043-5.27-3.122-6.12-5.811l-.59.032.19 5.103c1.91 1.049 3.99 1.481 6.1 1.481 3.85 0 7.81-2.006 7.81-6.155 0-6.655-10.77-6.505-10.77-10.425 0-1.87 1.23-2.995 3.2-2.995 3.14 0 5.24 2.421 5.8 5.155l.79-.03-.26-4.832c-1.97-.683-4.03-1.16-6.14-1.16-2.29 0-4.66.991-5.78 2.846.03-.199.06-.399.06-.568 0-1.387-.98-2.422-2.31-2.407-2.45.027-4.05 3.635-4.72 5.524v-5.758zm-63.346.008c-1.92.939-6.734 3.353-6.734 3.353 1.563.447 2.765.408 2.781 2.561v11.086c.003 2.419-.919 2.491-2.932 2.625v.68h9.895v-.68c-1.921-.134-2.887-.333-2.883-2.625v-9.612c.064-2.118 2.417-4.798 4.371-4.787 2.915.016 4.1 2.977 4.067 5.791v8.563c.001 2.22-.581 2.536-2.592 2.67v.68h17.478v-.692c-2.215-.134-2.944-.291-3.05-2.615v-16.967c-2.012.918-7.053 3.356-7.053 3.356l2.148.541c1.079.304 1.121.824 1.121 2.005v11.065c-.118 2.141-.974 2.408-1.968 2.484-1.109-.053-2.041-.365-2.045-2.482v-9.83c0-3.607-2.735-7.17-5.952-7.17-2.816 0-4.977 2.599-6.652 4.666v-4.666zm89.636.031c-2.01.918-7.05 3.356-7.05 3.356l2.14.541c1.09.304 1.13.824 1.13 2.005v11.065c-.13 2.303-.85 2.479-3.04 2.629v.678h9.87v-.692c-2.21-.134-2.94-.291-3.05-2.615v-16.967zm-40.81.465c-5.53 0-9.37 4.381-9.19 10.305.19 6.002 3.61 10.045 9.32 10.142 5.05.089 7.31-3.065 8.59-7.433l-.54-.096c-1.07 2.679-3.77 4.501-6.55 4.412-4.27-.134-6.92-3.523-7.3-7.922-.07-.845-.01-1.697.12-2.387h14.21c-.99-4.628-4.42-7.021-8.66-7.021zm-28.09.502v.691c3.234.184 3.316 1.071 4.145 2.752l6.525 16.356h.76l7.16-16.403c.9-1.423 1.96-2.609 3.94-2.705v-.691h-8.45v.691c1.53-.003 2.97.356 3.27 1.684.14.61.05.824-.12 1.723l-4.48 10.753-4.322-11.046c-.347-.852-.4-1.491-.4-1.758 0-1.251 1.614-1.356 3.18-1.356v-.691h-11.208zm27.66.088c2.7 0 3.94 2.683 4.13 5.558l-9.08.1c.79-2.87 2.16-5.658 4.95-5.658zm-85.818 5.945c-6.112.085-6.971 6.023-7.07 7.885-.096 1.777-.125 4.947-.125 4.947h-2.602l-.365 1.592h2.969l-.004 13.06c0 2.688-.571 3.806-2.895 3.942v.637h10.086v-.639c-2.814-.136-3.128-1.611-3.121-3.94l-.013-13.06 3.441.01.356-1.606-3.793.004v-6.769c.003-1.263-.165-5.085 1.712-5.25.284-.024.469.179.538.671.105.742.87 2.662 2.453 2.674 1.053.007 1.662-.446 1.664-1.677.003-1.248-1.533-2.505-3.231-2.481zm-19.26 11.746c-6.1816-.041-10.387 4.614-10.349 10.115.0413 5.773 3.8631 10.513 10.541 10.526 6.581.013 10.603-4.42 10.596-10.203-.008-5.775-4.258-10.395-10.788-10.438zm36.208.069c.235 0 .425.189.425.425 0 .06-.013.115-.035.166-.084-.013-.177-.018-.26-.033l.08.229c-.063.037-.132.062-.21.062-.077 0-.147-.025-.209-.06l.113-.276c-.115-.023-.219-.054-.33-.08 0-.003-.002-.005-.002-.008 0-.236.192-.425.428-.425zm-.096.513c.075.015.149.031.226.045l-.113-.328-.113.283zm-35.955.283c5.513.037 6.129 6.77 6.154 10.635.024 3.591-1.524 8.306-6.076 8.278-4.6937-.034-6.0759-5.952-6.0997-9.454-.0223-3.407 1.3263-9.492 6.0217-9.459zm35.492.858c.346.022.717.028 1.084.037l.576 1.654 4.15 9.713-10.412-.012 4.602-11.392zm73.919 4.162c-1.93.937-6.74 3.353-6.74 3.353 1.56.448 2.76.408 2.78 2.561v11.084c.01 2.421-.92 2.495-2.93 2.629v.678h9.89v-.678c-1.92-.134-2.88-.336-2.88-2.629v-9.607c.07-2.12 2.42-4.801 4.37-4.79 2.92.018 4.1 2.979 4.07 5.792v8.564c0 2.218-.58 2.536-2.59 2.67v.678h9.48v-.659c-1.89-.218-2.85-.334-2.85-2.648v-9.828c0-3.607-2.74-7.17-5.95-7.17-2.82 0-4.98 2.599-6.65 4.666v-4.666zm-16.16.156c-6.176-.043-10.382 4.612-10.345 10.113.04 5.775 3.86 10.515 10.545 10.528 6.58.011 10.6-4.422 10.59-10.205-.01-5.774-4.26-10.393-10.79-10.436zm.16.865c5.51.037 6.13 6.772 6.16 10.635.02 3.592-1.53 8.307-6.08 8.276-4.7-.031-6.077-5.95-6.101-9.452-.022-3.409 1.331-9.494 6.021-9.459z"/>
</svg>