<svg xmlns="http://www.w3.org/2000/svg" height="85.724" viewBox="0 0 250 85.723556" width="250"><g transform="matrix(1.25 0 0 -1.25 -207.91 155.91)"><g transform="matrix(.37359 0 0 .37359 167.03 56.856)"><path d="m46.893 115.29v-14.861h-23.11v19.27h41.729c0.143 0 0.166-0.206 0.026-0.238l-18.645-4.171zm56.807-36.679-9.927-4.142v-14.896h-23.098v19.269h32.979c0.131 0 0.167-0.181 0.046-0.231zm13.856 33.888v17.197l-13.241 11.606h-10.542v-0.016h-23.098v14.212h23.097v23.783h-69.975v-23.783h23.096v-14.212h-33.67l-13.228-11.59v-39.25l13.241-11.606h52.271c0.143 0 0.166-0.206 0.026-0.237l-18.645-4.172v-14.86h-23.11v7.215h-23.783v-17.197l13.241-11.606h52.271c0.143 0 0.166-0.206 0.026-0.238l-18.645-4.17v-9.796h-23.096v-23.783h69.975v23.783h-23.097v14.204h33.64l13.241 11.606v39.232l-13.241 11.606h-33.64v19.27h23.098v-7.2h23.783" fill="#f47920"/><path d="m492.78 47.387c-10.066 0-19.637 4.5391-19.637 16.338 0 10.478 7.6723 14.025 15.51 16.996 6.7662 2.64 13.449 4.5366 13.449 10.477 0 4.7025-4.2077 7.2617-10.146 7.2617-5.5288 0-10.314-2.2284-10.314-6.0234v-4.373h-9.8184v6.6816c0 8.8287 10.395 13.201 20.133 13.201 11.055 0 21.119-5.5272 21.119-17.492 0-10.972-8.744-14.436-17.49-17.572-6.105-2.31-11.551-4.2078-11.551-9.5703 0-4.455 3.9611-6.4355 8.7461-6.4355 4.3738 0 8.7441 1.5684 8.7441 4.5371v3.9609h9.8203v-7.6738c0-6.765-9.3232-10.312-18.564-10.312zm-272.94 0.99023v8.168h7.0137v42.324h-7.0137v8.0879h24.918v-8.0879h-7.0957v-42.324h7.0957v-8.168h-24.918zm53.549 0-1.6758 7.8379h8.1934v10.643c0 1.735 0.16601 2.9707 0.16601 2.9707h-0.16601s-3.1352-5.9395-12.129-5.9395c-11.386 0-19.225 8.6636-19.225 22.027 0 13.038 7.1791 22.029 18.4 22.029 10.479 0 13.779-7.8359 13.779-7.8359h0.16406s-0.24609 0.74148-0.24609 1.8965v0.49609c0 2.3925 1.5663 4.4551 5.3613 4.4551h11.631l-0.0527-7.8398h-5.4727c-1.155 0-1.8144-0.57625-1.8144-1.8125v-48.928h-16.914zm72.031 0-1.6758 7.8379h8.1934v42.902h-6.1035l-1.6777 7.8398h24.336l-0.0527-7.8398h-6.0234v-11.467c0-7.7575 4.6206-14.191 12.047-14.191 5.28 0 6.5996 3.4651 6.5996 8.5801v24.918h16.584v-7.8398h-6.1055v-19.223c0-11.139-5.3638-16.006-14.688-16.006-7.2612 0-12.458 4.453-14.52 8.498h-0.16406s0.24609-1.4863 0.24609-3.5488v-20.461h-16.996zm179.13 5.0332v11.469h-6.7656v7.8359h6.4375v18.812c0 14.109 11.632 15.842 17.572 15.842 1.8988 0 3.2168-0.24805 3.2168-0.24805v-8.582s-0.74149 0.08398-1.8965 0.08398c-2.97 0-8.416-0.98992-8.416-8.1699v-17.738h9.457l1.7891-7.8359h-11.246v-11.469h-10.148zm74.1 0v11.469h-6.7676v7.8359h6.4375v18.812c0 14.109 11.634 15.842 17.572 15.842 1.8988 0 3.2188-0.24805 3.2188-0.24805v-8.582s-0.74344 0.08398-1.8984 0.08398c-2.97 0-8.4141-0.98992-8.4141-8.1699v-17.738h9.4551l1.791-7.8359h-11.246v-11.469h-10.148zm-279.22 10.479c-10.149 0-16.666 5.1973-16.666 5.1973l3.877 7.2617s5.6128-4.043 11.883-4.043c4.3738 0 7.7559 1.896 7.7559 7.2598v1.4023h-2.6406c-6.7662 0-23.68 1.3214-23.68 14.191 0 8.5812 6.7646 12.787 13.943 12.787 9.7362 0 13.283-8.0859 13.283-8.0859h0.16602s-0.24805 0.82648-0.24805 2.1465v0.49609c0 2.3925 1.4858 4.4551 5.3633 4.4551h8.2227l1.6777-7.8398h-3.7949c-1.1562 0-1.8144-0.57625-1.8144-1.8125v-16.832c0-10.726-6.0244-16.584-17.328-16.584zm103.47 0c-12.789 0-23.102 9.1573-23.102 22.027 0 12.954 10.312 22.029 23.184 22.029 12.789 0 23.104-9.0755 23.104-22.029 0-12.87-10.314-22.027-23.186-22.027zm145.63 0c-10.148 0-16.668 5.1973-16.668 5.1973l3.8789 7.2617s5.6108-4.043 11.881-4.043c4.3725 0 7.7539 1.896 7.7539 7.2598v1.4023h-2.6387c-6.7662 0-23.68 1.3214-23.68 14.191 0 8.5812 6.7646 12.787 13.943 12.787 9.7362 0 13.285-8.0859 13.285-8.0859h0.16406s-0.24805 0.82648-0.24805 2.1465v0.49609c0 2.3925 1.4858 4.4551 5.3633 4.4551h9.9531l-0.0527-7.8398h-3.7949c-1.1538 0-1.8144-0.57625-1.8144-1.8125v-16.832c0-10.726-6.0224-16.584-17.326-16.584zm76.572 0c-12.625 0-21.369 9.0761-21.369 22.027 0 11.965 8.663 22.029 22.605 22.029 10.561 0 16.998-5.8574 16.998-5.8574l-4.043-7.4238s-5.3634 4.4531-12.211 4.4531c-6.3525 0-11.964-3.9605-12.623-11.717h29.125s0.2461-2.3087 0.2461-3.5449c0-11.141-6.5998-19.967-18.729-19.967zm-0.24804 8.084c4.4562 0 8.003 3.4672 8.168 9.2422h-18.316c0.98875-5.5288 4.7859-9.2422 10.148-9.2422zm-221.87 0.82617c6.765 0 12.459 5.3622 12.459 13.117 0 7.8388-5.694 13.121-12.459 13.121-6.8475 0-12.541-5.2823-12.541-13.121 0-7.755 5.6935-13.117 12.541-13.117zm-153.14 0.08203c6.9312 0 10.314 6.4345 10.314 13.283 0 8.9925-5.117 12.953-10.645 12.953-6.105 0-10.395-5.1962-10.395-13.201 0-8.3325 4.7846-13.035 10.725-13.035zm54.787 14.439h1.7324v1.4023c0 5.28-4.0426 11.387-9.7363 11.387-3.8775 0-6.1055-2.6411-6.1055-5.7774 0-6.3538 9.9831-7.0117 14.109-7.0117zm249.1 0h1.7324v1.4023c0 5.28-4.0438 11.387-9.7363 11.387-3.8788 0-6.1055-2.6411-6.1055-5.7774 0-6.3538 9.9844-7.0117 14.109-7.0117zm-353.88 31.637v8.1699h7.0137v28.381c0 5.8575 1.3218 10.971 4.373 14.768 4.0438 5.1975 11.138 8.25 19.471 8.25 7.84 0 15.181-2.7208 19.473-8.332 2.7225-3.7138 4.2891-8.993 4.2891-14.686v-28.381h7.0664l-0.0527-8.1699h-24.834v8.1699h7.0117v28.299c0 3.3825-0.65922 6.1045-1.9805 8.332-2.145 3.465-6.1039 5.2812-10.973 5.2812-4.9488 0-8.9922-1.898-11.055-5.1992-1.2375-2.0638-1.9805-5.032-1.9805-8.332v-28.381h7.1484l-0.0527-8.1699h-24.918zm127.89 0v9.3242h10.559v-9.3242h-10.559zm197.03 0v9.3242h10.561v-9.3242h-10.561zm24.428 5.0332v11.469h-6.7656v7.8359h6.4356v18.812c0 14.109 11.632 15.842 17.572 15.842 1.8988 0 3.2188-0.2461 3.2188-0.2461v-8.584s-0.74273 0.084-1.8965 0.084c-2.97 0-8.416-0.98921-8.416-8.168v-17.74h9.5703l1.6758-7.8359h-11.246v-11.469h-10.148zm-252.57 10.48c-10.561 0-15.017 8.083-15.512 9.4043h-0.16602s0.16602-0.90766 0.16602-1.8164v-1.8965c0-2.9688-1.7328-4.7031-5.4453-4.7031h-11.057v7.8359h4.7031c1.155 0 1.8144 0.66266 1.8144 1.8164v24.586h-6.1035v7.8398h22.607v-7.8398h-6.0254v-11.053c0-7.3438 4.4556-14.605 12.047-14.605 5.28 0 6.6836 3.4651 6.6836 8.5801v24.918h16.5l1.6758-7.8398h-7.7812v-19.223c0-11.139-5.1137-16.004-14.107-16.004zm120.68 0c-12.622 0-21.367 9.0748-21.367 22.027 0 11.964 8.663 22.027 22.605 22.027 10.562 0 16.998-5.8574 16.998-5.8574l-4.05-7.43s-5.3622 4.4531-12.211 4.4531c-6.3525 0-11.965-3.9606-12.625-11.717h29.125s0.24805-2.3074 0.24805-3.5449c0-11.14-6.6017-19.965-18.73-19.965zm78.742 0c-7.6725 0-16.584 3.1337-16.584 12.045 0 8.0025 7.097 10.888 13.283 13.035 5.6112 2.0625 9.5723 2.9701 9.5723 6.5176 0 2.8062-2.9715 4.291-7.1777 4.291-4.3738 0-8.252-1.4856-8.252-4.373v-2.4746h-8.9102v4.8652c0 6.85 9.4056 10.148 17.078 10.148 9.6538 0 17.74-4.2884 17.74-12.787 0-8.2488-7.5911-10.889-14.027-12.953-4.7025-1.4038-8.8262-2.8045-8.8262-6.2695 0-2.64 2.8035-3.7988 6.1035-3.7988 3.7138 0 6.1894 1.3225 6.1894 3.4688v2.3906h8.9922v-5.3633c0-6.3525-9.0754-8.7422-15.182-8.7422zm-24.447 0.41016c-6.4362 0-11.468 4.7861-13.367 10.809h-0.16407s0.16406-1.0731 0.16407-2.6406v-2.4746c0-3.5475-1.8976-5.1152-5.6113-5.1152h-11.025l0.0527 7.8359h4.7031c1.155 0 1.8144 0.66266 1.8144 1.8164v24.586h-6.1035v7.8398h24.336l-0.0527-7.8398h-7.7012v-9.1562c0-7.9212 3.7955-15.348 12.293-15.348 1.485 0 2.5586 0.16601 2.5586 0.16602v-10.312s-0.90649-0.16602-1.8965-0.16602zm-150.31 0.57812 0.0527 7.8359h6.4648v26.402h-4.4297l-1.6758 7.8398h22.607v-7.8398h-6.0254v-34.238h-16.994zm24.836 0v7.8359h5.1152l12.787 34.242h12.047l12.871-34.242h5.0332l1.6758-7.8359h-21.891l0.0527 7.8359h4.7324l-7.3438 20.793c-0.7425 2.145-0.99024 4.6191-0.99024 4.6191h-0.24609s-0.24727-2.4741-1.0723-4.6191l-7.2617-20.793h4.7031l-0.0527-7.8359h-20.16zm172.2 0 0.0527 7.8359h6.4648v26.402h-6.1055v7.8398h24.334l-0.0508-7.8398h-7.7012v-34.238h-16.994zm57.289 0-1.6777 7.8359h5.0312l14.439 35.48-1.1543 2.6387c-1.3188 3.0538-4.0433 4.8691-7.4258 4.8691-3.8788 0-6.3535-1.9805-6.3535-1.9805l-3.3809 7.6738s4.1223 2.8867 10.229 2.8867c7.1775 0 13.45-3.5484 16.666-11.881l15.512-39.688h4.7871l1.6738-7.8359h-23.287l0.0527 7.8359h6.543l-7.5898 21.289c-0.82625 2.0612-1.1562 4.3711-1.1562 4.3711h-0.24609s-0.16571-2.3098-0.90821-4.3711l-7.6738-21.289h4.9512l-0.0547-7.8359h-18.977zm-158.56 7.0957c4.455 0 8.003 3.4652 8.168 9.2402h-18.316c0.99-5.5288 4.7859-9.2402 10.148-9.2402z" transform="matrix(.8 0 0 -.8 0 180)"/></g></g></svg>
