<?xml version="1.0" encoding="UTF-8" standalone="no"?>
<svg
   xmlns:dc="http://purl.org/dc/elements/1.1/"
   xmlns:cc="http://creativecommons.org/ns#"
   xmlns:rdf="http://www.w3.org/1999/02/22-rdf-syntax-ns#"
   xmlns:svg="http://www.w3.org/2000/svg"
   xmlns="http://www.w3.org/2000/svg"
   id="svg8"
   version="1.1"
   viewBox="0 0 506.99615 188.81316"
   height="188.81316mm"
   width="506.99615mm">
  <defs
     id="defs2" />
  <metadata
     id="metadata5">
    <rdf:RDF>
      <cc:Work
         rdf:about="">
        <dc:format>image/svg+xml</dc:format>
        <dc:type
           rdf:resource="http://purl.org/dc/dcmitype/StillImage" />
        <dc:title></dc:title>
      </cc:Work>
    </rdf:RDF>
  </metadata>
  <g
     transform="translate(278.32003,-80.591282)"
     id="layer1">
    <path
       id="path826"
       d="m -211.5959,80.591853 c -5.48223,8.240198 -9.58134,14.564431 -15.38046,23.440947 v 49.62279 49.62334 l 0.82837,-0.16589 c 0.45569,-0.0911 3.96803,-0.24413 7.80521,-0.34002 l 6.97684,-0.17415 v -61.12962 c 0,-34.58575 -0.1,-61.01961 -0.22996,-60.877397 z m -66.68636,9.776143 -0.0119,60.877424 -0.0108,60.87689 3.73361,-1.00716 c 4.5054,-1.21568 11.49119,-2.83792 16.44087,-3.81786 l 3.63802,-0.72038 -0.01,-46.06592 -0.01,-46.06591 c -7.92338,-8.02558 -15.84658,-16.051339 -23.7698,-24.077084 z m 30.64153,8.215524 c -0.14095,-0.148855 -0.23771,21.59947 -0.23771,53.3342 v 53.58535 l 2.05052,-0.32298 c 1.12779,-0.17761 4.34248,-0.5937 7.14375,-0.92501 l 5.09323,-0.60253 v -44.12496 -44.12546 c -4.79589,-5.50577 -9.19559,-11.36381 -14.04979,-16.81861 z m 60.88155,9.07333 -1.16375,1.01288 c -6.00399,5.40871 -10.57857,9.60204 -16.8243,15.30035 l -0.002,39.48906 -0.002,39.48906 h 1.12086 c 1.79939,0 9.83523,0.80523 13.1563,1.31826 h 5.2e-4 c 1.67929,0.25942 3.20187,0.48572 3.38377,0.50281 0.26353,0.0248 0.33073,-9.84318 0.33073,-48.54069 z m -15.22956,100.08589 c -1.10819,-6.1e-4 -1.87179,0.0188 -2.05414,0.0646 l -0.70848,0.17777 v 12.56305 12.56255 h 8.99583 8.99584 v -12.39562 -12.39616 l -2.3487,-0.16639 c -3.13078,-0.2222 -9.55577,-0.40799 -12.88035,-0.40979 z m -9.3772,0.49713 -1.12448,0.001 c -1.35436,0.001 -8.94644,0.68503 -12.17083,1.09606 l -2.31511,0.29507 v 11.73932 11.73935 h 7.80521 7.80521 v -12.43542 z m -22.29167,2.38125 c -0.36481,0 -6.52323,1.25552 -9.92135,2.0226 l -4.29948,0.9705 v 9.74823 9.74825 h 7.14375 7.14375 v -11.24479 c 0,-6.18464 -0.03,-11.24479 -0.0667,-11.24479 z m -21.07055,5.02708 c -0.40899,0 -6.37575,2.10974 -9.95132,3.51864 -1.89177,0.74544 -5.70177,2.49121 -8.46666,3.87935 l -5.02709,2.52389 -0.0734,3.77031 -0.0734,3.77031 h 11.91347 11.91349 v -8.73125 c 0,-4.91651 -0.1027,-8.73125 -0.23513,-8.73125 z"
       style="fill:#860931;stroke-width:0.26458332;fill-opacity:1" />
    <path
       id="path826-0"
       d="m 13.545575,145.32808 v 31.75 31.75 H 37.622657 61.69974 v -5.95313 -5.95312 H 44.501824 27.303908 v -7.67292 -7.67291 h 15.478124 15.478125 v -5.4219 -5.42189 l -15.411979,-0.0682 -15.411979,-0.0682 -0.0708,-6.68073 -0.07028,-6.68073 H 44.100298 60.90599 v -5.95312 -5.95313 H 37.225782 Z m -175.683335,0.25837 v 31.62083 31.6208 h 6.51433 6.51433 l -0.16484,-20.83594 c -0.0905,-11.45976 -0.22252,-22.56234 -0.29353,-24.67239 l -0.12919,-3.83646 1.19476,4.49792 c 2.2333,8.40898 3.80594,13.21218 9.48521,28.97187 l 5.67304,15.74271 5.51439,0.0713 5.5144,0.0713 2.60449,-7.61193 c 7.15448,-20.90743 9.47242,-27.95225 10.99157,-33.40881 0.91157,-3.27422 1.87919,-6.6675 2.15026,-7.54062 l 0.49248,-1.5875 -0.12558,2.38125 c -0.38369,7.26554 -0.63742,20.49391 -0.63768,33.27135 l -5.2e-4,14.48594 h 6.61458 6.614587 v -31.6208 -31.62083 l -9.833507,0.0693 -9.83351,0.0693 -4.86172,14.55208 c -5.33558,15.97009 -7.23455,22.23418 -8.62221,28.44271 -0.8852,3.96041 -0.92514,4.06476 -1.17306,3.0427 -0.14119,-0.58208 -0.87524,-3.61817 -1.6309,-6.74687 -1.35108,-5.59385 -3.70062,-12.87298 -10.16372,-31.48542 l -2.71043,-7.8052 -9.84901,-0.0693 z m 375.17762,16.03623 c -1.91848,3.5e-4 -3.83738,0.16005 -5.01004,0.47956 -3.68693,1.00457 -7.25471,3.1927 -9.01133,5.5268 -0.50932,0.67675 -1.01534,1.23468 -1.12448,1.23868 -0.10913,0.005 -0.19844,-1.36094 -0.19844,-3.03443 v -3.04271 h -5.95312 -5.95313 v 23.01875 23.01822 h 6.19601 6.19548 l 0.11472,-14.08906 c 0.12419,-15.24156 0.20581,-16.16853 1.61799,-18.40558 0.95062,-1.50591 3.17724,-3.38299 4.59662,-3.87522 3.79424,-1.3158 8.16817,-0.43315 10.11411,2.0407 1.45178,1.84566 1.44156,1.72117 1.53376,18.6526 l 0.0858,15.67656 h 6.21616 6.21616 l -0.0858,-17.92552 c -0.0789,-16.47119 -0.12532,-18.04358 -0.56689,-19.38073 -1.61406,-4.88767 -4.96967,-8.0568 -9.97614,-9.42112 -1.17114,-0.31891 -3.08897,-0.47784 -5.00744,-0.4775 z m -277.377901,0.005 c -3.184433,0.002 -6.399062,0.30448 -8.899716,0.90744 -5.048141,1.21719 -8.905459,4.07011 -10.858769,8.03206 -1.04438,2.11836 -2.009125,5.91003 -1.607654,6.31796 0.110271,0.11211 2.798001,0.17161 5.972763,0.13229 l 5.772255,-0.0713 0.365871,-1.45521 c 0.530739,-2.11048 1.548757,-3.42101 3.389456,-4.36253 1.42191,-0.72729 1.829993,-0.80486 4.658114,-0.88987 3.996409,-0.12015 5.709171,0.32753 7.284309,1.90375 1.33172,1.33266 1.881527,3.31036 1.452626,5.22656 -0.548409,2.4502 -2.065581,3.00961 -12.0866,4.45606 -9.467022,1.36649 -12.549828,2.42554 -15.449187,5.3077 -2.5731,2.5578 -3.600871,5.58157 -3.372922,9.92187 0.388072,7.38913 5.048909,11.98851 12.999207,12.82713 v -5.3e-4 c 2.714162,0.28663 2.957883,0.28713 5.581573,0.007 4.503168,-0.48038 8.033538,-1.82139 10.863418,-4.12636 0.7879,-0.64175 1.478174,-1.16684 1.534274,-1.16684 0.05606,0 0.179401,0.58544 0.274402,1.30122 0.09495,0.71575 0.300498,1.66825 0.456819,2.11666 l 0.284221,0.81545 h 6.409944 6.409944 l -0.603581,-1.79938 c -0.973119,-2.90163 -1.180751,-7.23789 -0.99632,-20.8225 0.14351,-10.57015 0.109677,-12.42914 -0.256831,-14.13454 -0.501582,-2.33384 -1.688418,-4.43267 -3.327448,-5.88388 -1.539118,-1.36274 -4.90996,-3.0026 -7.530806,-3.66334 -2.380538,-0.60013 -5.534933,-0.89893 -8.719362,-0.8971 z m 222.742991,0.0351 c -10.17977,-0.0176 -16.48423,2.77357 -19.62775,8.68939 -0.92711,1.74479 -1.67121,4.31657 -1.67121,5.77741 v 0.95912 l 5.86992,-0.0713 5.86993,-0.0713 0.30593,-1.19063 c 1.04341,-4.0605 3.39047,-5.55625 8.71833,-5.55625 3.19218,0 5.05195,0.47803 6.37325,1.63814 1.14853,1.00844 1.59685,1.84349 1.83193,3.41117 0.24435,1.62923 -0.22519,3.22784 -1.18494,4.0354 -0.98169,0.82606 -3.86138,1.51188 -10.18956,2.42673 -8.99387,1.30024 -11.58292,2.00755 -14.54226,3.97185 -4.19772,2.7863 -6.02292,8.0931 -4.78783,13.92007 0.50261,2.37125 1.51278,4.26916 3.23185,6.07147 2.31453,2.42652 5.48538,3.81601 9.6113,4.21214 1.0941,0.10507 2.18491,0.20752 2.42414,0.22792 1.16777,0.0994 5.99732,-0.57518 7.57421,-1.05783 2.29482,-0.70242 4.88794,-2.0623 6.54844,-3.43443 l 1.31517,-1.08675 0.21756,1.15446 c 0.1199,0.63489 0.33329,1.60094 0.47439,2.14664 l 0.25683,0.99219 h 6.45852 6.45852 l -0.40411,-0.96687 c -1.14944,-2.75095 -1.24194,-4.27394 -1.18804,-19.53834 0.0326,-9.24687 -0.0496,-15.0758 -0.22531,-15.98816 -1.35149,-7.01778 -8.06696,-10.65213 -19.71921,-10.67223 z m -174.360416,0.0119 c -7.107401,0 -11.990646,1.74474 -16.323034,5.8317 -5.352421,5.04918 -7.67469,11.45958 -7.278111,20.09177 0.321942,7.00733 2.559857,12.29548 6.984587,16.50548 3.559781,3.38701 7.808299,5.24849 13.168188,5.76916 3.05049,0.29631 3.190401,0.29612 5.961912,0.006 7.1084993,-0.74499 12.3684794,-3.74094 15.7504576,-8.97205 1.6674121,-2.5791 2.6734796,-5.20829 3.2711178,-8.54831 L 5.804444,191.101 H -0.33678111 -6.4785248 l -0.3384815,1.52135 c -0.7085012,3.18381 -2.8376403,6.08629 -5.1841797,7.06676 -2.706309,1.13075 -6.316845,1.02936 -8.837705,-0.24805 -3.83281,-1.94223 -6.096783,-6.94214 -6.096783,-13.46483 0,-3.73687 0.550714,-6.44044 1.848464,-9.07333 1.91317,-3.88152 4.71561,-5.69053 8.867161,-5.72471 2.758538,-0.0227 4.493527,0.56319 6.195486,2.09341 1.5462512,1.3902 2.1907735,2.37098 2.8070648,4.2695 l 0.4511331,1.38906 h 6.14742968 6.14691102 l -0.2335768,-1.49137 c -0.9989105,-6.37003 -5.39381692,-11.8015 -11.4452954,-14.14489 -3.0617318,-1.18563 -5.6892694,-1.61954 -9.8045694,-1.61954 z m 80.508262,1.11622 0.153479,0.59531 c 0.1483,0.57568 14.071013,44.44331 14.317473,45.11146 0.09313,0.25239 1.674331,0.33073 6.678663,0.3302 l 6.556705,-5e-4 3.104719,-12.36877 c 1.707599,-6.80278 3.488986,-14.3928 3.958415,-16.86666 l 0.85318,-4.49792 0.49661,2.77813 c 0.82704,4.62756 1.91254,9.15826 4.86482,20.30677 l 2.81998,10.64948 h 6.5133 6.5133 l 7.27914,-22.9526 7.27914,-22.95261 -6.46886,-0.0708 c -3.5578,-0.039 -6.49946,-0.039 -6.53706,0 -0.0376,0.039 -1.38489,4.83621 -2.99414,10.66033 -2.71153,9.81355 -4.2619,16.2117 -5.08134,20.97082 -0.18251,1.05995 -0.40925,1.83385 -0.50385,1.71979 -0.0945,-0.11406 -0.56523,-2.35035 -1.04593,-4.96972 -0.81359,-4.43331 -5.23231,-22.6246 -6.79648,-27.97969 -0.12371,-0.42352 -0.65189,-0.46302 -6.1929,-0.46302 h -6.057 l -0.261998,0.99219 c -2.075331,7.8609 -5.141129,20.70139 -6.23838,26.1276 -1.20423,5.9553 -1.417185,6.73703 -1.583365,5.82083 -0.581321,-3.20505 -2.626045,-12.32376 -3.308326,-14.75361 -0.435009,-1.54922 -1.632233,-5.88849 -2.660303,-9.64232 -1.02806,-3.75383 -1.99177,-7.21185 -2.141471,-7.68479 l -0.271818,-0.8599 h -6.622851 z m -121.505761,23.8125 c 0.0914,0 0.125682,1.87523 0.07648,4.16719 -0.08653,4.03397 -0.114146,4.21208 -0.864547,5.56657 -1.495549,2.69951 -4.637117,4.80525 -7.986075,5.35368 -2.53057,0.41442 -4.223885,0.20225 -6.125726,-0.76843 -1.244229,-0.63502 -1.746379,-1.19121 -2.422591,-2.682 -0.96929,-2.13691 -0.596114,-5.01282 0.852144,-6.56654 1.237591,-1.3277 3.937375,-2.25308 8.652187,-2.96568 3.132219,-0.47342 5.605584,-1.06961 6.670392,-1.60819 0.539911,-0.27308 1.056433,-0.4966 1.147733,-0.4966 z m 222.501665,0.0532 c 0.33456,-0.0693 0.39687,0.80836 0.39687,3.73621 0,4.44323 -0.30382,5.63354 -1.90066,7.4476 -1.36912,1.55541 -3.02499,2.6883 -4.84363,3.31401 -1.76012,0.60558 -4.62615,0.84847 -6.18153,0.52398 -2.81204,-0.58663 -4.7011,-2.61167 -4.98058,-5.33918 -0.30882,-3.01432 1.06156,-5.17721 3.96358,-6.257 0.84428,-0.31414 3.54675,-0.92713 6.00584,-1.36218 4.34698,-0.76907 6.74895,-1.39012 7.26261,-1.87794 0.10876,-0.10326 0.20029,-0.16952 0.2775,-0.1855 z M 55.878907,232.9132 c -5.89823,0 -10.254371,2.25875 -12.110371,6.27973 -0.59195,1.28241 -0.700867,1.88778 -0.704867,3.9057 -0.0041,2.08166 0.08967,2.58146 0.732772,3.89588 0.84367,1.72445 2.360789,3.1622 4.283459,4.05969 0.73102,0.34126 3.58914,1.21449 6.35155,1.94046 7.53435,1.98006 8.402049,2.36468 9.220109,4.08863 1.26974,2.67576 -0.145071,5.6343 -3.24993,6.79598 -2.532831,0.94766 -6.594338,0.69916 -9.019088,-0.55139 -1.83089,-0.94427 -3.441134,-3.21845 -3.441134,-4.86016 0,-1.44436 -0.09224,-1.48518 -3.335713,-1.48518 -2.23621,0 -3.01522,0.0854 -3.012219,0.33072 0.0011,0.18191 0.126475,1.10464 0.278535,2.05053 0.79687,4.95694 4.316592,8.48426 9.641272,9.66141 v -5e-4 c 2.26365,0.50043 7.164387,0.48377 9.472807,-0.0326 3.84349,-0.85966 6.942812,-3.1134 8.409823,-6.11486 0.52544,-1.07501 0.620385,-1.68127 0.628385,-4.04265 0.0091,-2.5169 -0.0594,-2.91952 -0.729154,-4.28347 -0.882651,-1.7974 -3.082406,-3.90554 -4.720126,-4.52374 -0.63547,-0.2399 -3.647451,-1.10292 -6.693131,-1.91773 -6.03178,-1.61367 -6.533562,-1.80914 -7.646562,-2.98016 -2.1163,-2.2266 -1.016719,-5.66372 2.17196,-6.78873 1.694841,-0.59799 4.967996,-0.53385 6.748426,0.13229 2.21417,0.82841 3.858397,2.99056 3.865397,5.08185 0.0013,0.41482 0.327725,0.46302 3.129525,0.46302 h 3.127457 l -0.208773,-1.7327 c -0.68336,-5.67632 -5.884789,-9.37205 -13.190409,-9.37205 z m -124.316442,0.76997 5.827035,17.478 5.826519,17.4775 3.45767,-0.0734 3.458186,-0.0739 5.896798,-17.19792 c 3.24344,-9.45885 5.903233,-17.28721 5.910234,-17.39635 0.0071,-0.10914 -1.386065,-0.19735 -3.095935,-0.19637 l -3.108854,0.002 -2.028301,6.28176 c -5.903989,18.28424 -6.930438,21.33026 -7.065719,20.9667 -0.08122,-0.21829 -2.059464,-6.40954 -4.396113,-13.75834 l -4.248319,-13.36146 -3.21686,-0.0744 z m 195.473335,0.001 0.62787,0.99944 c 0.34534,0.54983 3.32569,5.36887 6.62285,10.70837 l 5.99447,9.70794 v 6.76238 6.76187 h 3.04271 3.04271 v -6.82852 -6.82906 l 6.48229,-10.53266 c 3.56526,-5.79324 6.48229,-10.5786 6.48229,-10.634 0,-0.0554 -1.53128,-0.10076 -3.40289,-0.10076 h -3.4029 l -4.45916,7.67601 c -2.45248,4.22186 -4.54858,7.64488 -4.65811,7.60678 -0.10957,-0.0381 -2.20004,-3.46253 -4.64571,-7.60987 l -4.44676,-7.54063 -3.64009,-0.0739 z m -289.17356,0.015 v 12.31707 c 0,13.77656 0.0925,14.70393 1.73891,17.48989 1.60998,2.72436 4.36478,4.68555 7.72822,5.50097 2.38495,0.57817 7.50316,0.51531 9.99887,-0.123 4.54235,-1.16173 7.42307,-3.96219 8.77466,-8.52972 0.33767,-1.14109 0.43155,-3.63098 0.52865,-14.02135 l 0.11834,-12.63386 h -3.18689 -3.18689 l -0.0801,12.63386 c -0.0881,13.95687 -0.0335,13.49639 -1.83659,15.54996 -1.40011,1.59464 -2.62642,2.06716 -5.6906,2.1921 -3.11623,0.12705 -4.68039,-0.26427 -6.2575,-1.56425 -2.38155,-1.96307 -2.56367,-3.19521 -2.56367,-17.35087 v -11.4608 h -3.04271 z m 39.6875,0 v 17.4625 17.4625 h 2.90784 2.90783 l 0.0687,-12.87724 0.0687,-12.87727 7.9375,12.86899 7.9375,12.86949 3.241144,0.008 3.241146,0.008 v -17.4625 -17.4625 h -2.907834 -2.907832 l -0.06873,12.75477 -0.0687,12.75477 -7.9034,-12.75477 -7.90391,-12.75477 h -3.27474 z m 39.952087,0 v 17.4625 17.4625 h 3.042708 3.042708 v -17.4625 -17.4625 h -3.042708 z m 52.122916,0 v 17.4625 17.4625 h 12.832291 12.8322917 v -2.64583 -2.64583 h -9.7952687 -9.795267 l 0.07183,-5.09323 0.07183,-5.09323 8.797396,-0.0698 8.7973954,-0.0698 v -2.374 -2.37403 l -8.7973954,-0.0697 -8.797396,-0.0698 -0.07235,-4.56406 -0.07235,-4.56406 h 9.663493 9.6634934 v -2.64583 -2.64584 H -17.675257 Z m 35.4541659,0 v 17.4625 17.4625 h 3.0427083 3.0427088 v -7.14375 -7.14375 h 5.516975 c 5.785406,0 6.683714,0.13383 8.139554,1.21335 1.49463,1.10829 1.975403,2.63748 2.361613,7.51428 0.19032,2.40302 0.428387,4.63714 0.529167,4.96456 0.17722,0.57581 0.291699,0.59531 3.488159,0.59531 3.04766,0 3.2887,-0.036 3.103169,-0.46302 -0.923499,-2.1255 -1.218668,-3.59701 -1.437638,-7.16597 -0.13096,-2.13432 -0.384263,-4.2971 -0.563273,-4.80642 -0.73258,-2.08426 -2.090453,-3.46197 -3.897953,-3.95481 -0.70062,-0.19103 -0.699035,-0.19349 0.414445,-0.76584 1.56114,-0.80248 2.795169,-2.11873 3.679879,-3.92379 0.68507,-1.39782 0.757576,-1.80208 0.757576,-4.32015 0.0012,-2.4493 -0.08093,-2.95037 -0.690397,-4.23333 -1.27156,-2.67666 -3.662336,-4.39396 -6.963916,-5.00229 -0.94808,-0.17468 -5.323497,-0.28938 -11.046355,-0.28938 z m 74.8770821,0 v 17.4625 17.4625 h 3.042709 3.042708 v -17.4625 -17.4625 H 82.9987 Z m 14.552083,0 v 2.64584 2.64583 h 5.556246 5.55625 v 14.81667 14.81666 h 3.04271 3.04271 v -14.81666 -14.81667 h 5.55625 5.55625 v -2.64583 -2.64584 h -14.15521 z m -83.343748,5.02759 5.886979,10e-4 c 3.456726,8.7e-4 6.318759,0.12147 6.932909,0.29199 2.42628,0.67361 3.701189,3.34283 3.063378,6.41512 -0.396769,1.91114 -1.430493,3.14933 -3.105753,3.72017 v 5.3e-4 c -0.97422,0.33192 -2.42989,0.41908 -7.003707,0.41908 h -5.773806 v -5.42396 z"
       style="fill:#000000;stroke-width:0.26458332" />
  </g>
</svg>
