<?xml version="1.0" encoding="UTF-8" standalone="no"?>
<svg xmlns:rdf="http://www.w3.org/1999/02/22-rdf-syntax-ns#" xmlns="http://www.w3.org/2000/svg" xml:space="preserve" height="137.41" viewBox="0 0 420.45312 137.41211" width="420.45" version="1.1" xmlns:cc="http://creativecommons.org/ns#" xmlns:dc="http://purl.org/dc/elements/1.1/"><g transform="matrix(1.25 0 0 -1.25 0 137.41)"><g transform="translate(.80751 .80751)"><g fill="#0d3182"/><g><path d="m0 0.83789 0.7168 2.4004c0.8387 2.8125 1.7101 5.9507 2.1426 9.1267v112.32c-0.43 3.1838-1.3052 6.3385-2.1465 9.166l-0.7129 2.4h89.432l-0.71484-2.3984c-0.84125-2.8275-1.7145-5.9823-2.1445-9.166v-112.32c0.43125-3.1762 1.3038-6.3145 2.1426-9.127l0.717-2.3951-89.432-0.00001zm156.41 57.254-23.67 32.228-23.56-32.209s-0.004 43.728-0.004 45.191c0 1.7712-0.46922 3.5513-0.98047 5.2676h8.7129c-0.51125-1.7162-0.97851-3.4963-0.97851-5.2676 0-1.4638-0.006-26.078-0.006-26.078l16.766 23.662 16.975-23.611s-0.006 24.564-0.006 26.027c0 1.7712-0.46726 3.5513-0.97851 5.2676h8.7129c-0.51125-1.7162-0.98047-3.4963-0.98047-5.2676 0-1.4638-0.004-45.211-0.004-45.211zm102.59 0-23.668 32.229-23.561-32.209s-0.006 43.728-0.006 45.191c0 1.7712-0.46797 3.5513-0.98047 5.2676h8.7148c-0.5125-1.7162-0.98047-3.4963-0.98047-5.2676 0-1.4638-0.006-26.078-0.006-26.078l16.766 23.662 16.975-23.611s-0.004 24.564-0.004 26.027c0 1.7712-0.46922 3.5513-0.98047 5.2676h8.7148c-0.5125-1.7162-0.98047-3.4963-0.98047-5.2676 0-1.4638-0.004-45.211-0.004-45.211zm141.41 0.29102c-12.235 0-19.4 5.2019-19.4 14.047 0 19.865 30.912 6.9734 30.912 21.693 0 6.2963-6.9826 8.877-13.236 8.877-5.2525 0-9.0831-1.147-13.172-3.2832-0.94125-0.49125-2.0013-1.2227-3.0801-2.3027-0.80625 1.685-2.6641 5.8328-3.5254 7.6016 1.5525 0.0863 3.3698 0.44375 4.9473 1.125 2.7962 1.2075 9.2138 2.6602 14.518 2.6602 12.338 0 20.086-5.9391 20.086-15.258 0.00001-20.381-30.684-8.5479-30.684-21.588 0-4.6838 4.4677-7.8555 12.723-7.8555 3.3038 0 7.1084 0.48883 9.4121 1.4238 1.2425 0.50375 3.0581 1.3832 4.0156 2.502 0.82-1.425 2.6466-5.5828 3.3379-7.0078-0.30125 0-1.9591-0.2082-3.3828-0.56445-4.1925-1.0475-8.8982-2.0703-13.471-2.0703zm-233.9 0.54297c0.51125 1.7162 0.97852 3.4976 0.97852 5.2676v39.045c0 1.7712-0.46727 3.5526-0.97852 5.2676 1.465 0 35.371 0.0508 35.371 0.0508v-7.2461c-1.715 0.51125-3.4963 0.97851-5.2676 0.97851-1.4638 0-22.371 0.006-22.371 0.006v-16.672c-0.00001 0 17.801 0.0039 19.266 0.0039 1.7712 0 3.5526 0.46992 5.2676 0.98242v-7.8359c-1.715 0.5125-3.4963 0.98242-5.2676 0.98242-1.465 0-19.266 0.0039-19.266 0.0039v-14.748s21.008 0.0039 22.473 0.0039c1.77 0 3.5513 0.46922 5.2676 0.98047v-7.0703h-35.473zm118.52 0.04687c-3.6675 0-14.793 0.01953-16.258 0.01953 0.51126 1.715 0.98047 3.4944 0.98047 5.2656v39.045c0 1.7712-0.46921 3.5513-0.98047 5.2676h8.7148c-0.51-1.72-0.98-3.5-0.98-5.27v-13.135s6.9959 0.01172 11.617 0.01172c9.9512-0.000001 19.43-5.0352 19.43-15.785 0-10.69-9.7722-15.422-22.523-15.422zm28.9 0.01953c0.51125 1.715 0.98047 3.4944 0.98047 5.2656v39.045c0 1.7712-0.46922 3.5513-0.98047 5.2676h8.7129c-0.51125-1.7162-0.97852-3.4963-0.97852-5.2676v-17.412h26.096v17.412c0 1.7712-0.46922 3.5513-0.98047 5.2676h8.7148c-0.51125-1.7162-0.98047-3.4963-0.98047-5.2676v-39.045c0-1.7712 0.46797-3.5506 0.98047-5.2656h-8.7148c0.51125 1.715 0.98047 3.4944 0.98047 5.2656v15.332h-26.096v-15.332c0-1.7712 0.46797-3.5506 0.98047-5.2656h-8.7148zm49.986 0c0.5125 1.715 0.98046 3.4944 0.98046 5.2656v39.045c0.00001 1.7712-0.46796 3.5513-0.98046 5.2676h8.7148c-0.5125-1.7162-0.98047-3.4963-0.98047-5.2676v-39.045c0-1.7712 0.46797-3.5506 0.98047-5.2656h-8.7148zm-77.773 5.7637c8.705 0 14.98 2.8959 14.98 10.006 0 6.9062-7.5063 9.6094-14.174 9.6094-2.7875 0-10.344-0.01367-10.344-0.01367v-19.588s6.6759-0.01367 9.5371-0.01367z" transform="matrix(.8 0 0 -.8 0 109)" fill="#0d3182"/><path d="m19.117 12.566 0.30078 1.0156c0.4975 1.6688 1.0273 3.6064 1.0273 5.4727v29.811c0 12.442 9.0209 19.871 24.131 19.871 15.055 0 24.408-8.2157 24.408-21.439v-28.242c0-1.8738 0.52984-3.8057 1.0273-5.4707l0.30273-1.0176h-11.547l0.30273 1.0156c0.4975 1.67 1.0273 3.6077 1.0273 5.4727v28.588c0 8.3088-5.7223 13.27-15.309 13.27-9.39 0-15.457-4.9612-15.457-12.639v-29.219c0-1.8713 0.52984-3.8057 1.0273-5.4707l0.30273-1.0176h-11.545zm51.4 55.314-25.857 35.213-25.748-35.199-0.0039 50.27c0 1.8338-0.52031 3.7288-1.0078 5.3613l-0.29688 0.99609h11.316l-0.29688-0.99609c-0.4875-1.6325-1.0059-3.5276-1.0059-5.3613l-0.0059-25.203 16.988 23.977 17.219-23.951-0.0039 25.178c0 1.8325-0.52031 3.7276-1.0078 5.3613l-0.29688 0.99609h11.318l-0.29883-0.99609c-0.48625-1.6338-1.0059-3.5288-1.0059-5.3613l-0.0059-50.283z" transform="matrix(.8 0 0 -.8 0 109)" fill="#fff"/><path d="m202.34 28.381s-0.002 18.91-0.002 19.541c0 0.76375-0.20188 1.5315-0.42188 2.2715h3.7539c-0.22-0.74-0.42188-1.5077-0.42188-2.2715 0-0.63125-0.002-12.666-0.002-12.666l15.906 15.613s-0.004-19.048-0.004-19.68c0-0.76375 0.20188-1.5295 0.42188-2.2695h-3.7539c0.22 0.74 0.42188 1.5058 0.42188 2.2695 0 0.63125 0.006 12.807 0.006 12.807l-15.92-15.613zm103.86 0.33008c-5.2712 0-8.3477 2.1907-8.3477 6.002 0 8.44 13.308 3.082 13.307 9.3457 0 2.7125-3.0452 3.8496-5.7402 3.8496-2.2638 0-3.8762-0.46867-5.6387-1.3887-0.405-0.2125-0.86117-0.57797-1.3262-1.043-0.34624 0.72625-1.147 2.5141-1.5195 3.2754 0.67 0.0375 1.4341 0.19977 2.1328 0.44727 1.1038 0.39125 4.1639 1.1602 6.2539 1.1602 4.6112 0 8.6426-2.1134 8.6426-6.5371 0-8.855-13.258-3.6032-13.258-9.3145 0-2.1075 2.0575-3.4473 5.5312-3.4473 1.4325 0 3.0509 0.27023 4.0547 0.67773 0.53625 0.21625 1.3199 0.59492 1.7324 1.0762 0.35375-0.61375 1.14-2.3667 1.4375-2.9805-0.13 0-0.92774-0.04383-1.459-0.20508-1.7812-0.5425-3.8327-0.91797-5.8027-0.91797zm80.105 0.04102c-7.3125 0-11.688 5.3435-11.688 10.854 0 5.7912 4.6827 10.857 11.24 10.857 6.8325 0 11.711-4.8372 11.711-10.961 0-5.8112-4.4974-10.75-11.264-10.75zm-154.3 0.0293c0.485 0.59875 1.0415 1.3449 1.4277 2.1074 0.68375 1.3525 10.143 20.076 10.143 20.076s9.7194-18.881 10.359-20.086c0.45-0.845 1.076-1.6727 1.5723-2.0977h-5.002c0.38625 0.51375 0.38883 1.4524 0.0488 2.1074-0.49 0.94125-6.8926 14.127-6.8926 14.127s-6.6249-13.524-6.8887-14.201c-0.26-0.6675-0.3125-1.6707 0.1875-2.0332h-4.9551zm111.09 0c0.60375 0.5025 1.2927 1.3242 1.8027 2.0117 0.80375 1.0812 5.2576 6.6773 7.6289 9.6523v7.4766c0 0.76375-0.20187 1.5315-0.42187 2.2715h3.7539c-0.22-0.74-0.42188-1.5077-0.42188-2.2715v-7.3867c2.3038-2.875 6.6944-8.3614 7.7344-9.6914 0.55999-0.71625 1.336-1.5912 1.8848-2.0625h-5.0859c0.38625 0.51375 0.28469 1.2184-0.16406 1.8047-2.6412 3.4638-5.707 7.4414-5.707 7.4414s-3.5816-4.6741-5.8828-7.7266c-0.38625-0.51125-0.50602-1.182-0.041-1.5195h-5.0801zm-59.26 0.01172c-1.58 0-6.3746 0.0098-7.0059 0.0098 0.22125 0.73875 0.42187 1.5051 0.42187 2.2676v16.852c0 0.76375-0.20062 1.5315-0.42187 2.2715h3.7559c-0.22-0.74-0.42383-1.5077-0.42383-2.2715v-5.7852s3.0134 0.0059 5.0059 0.0059c0.0887 0 0.17953-0.0034 0.26953-0.0059 1.5675 3.2912 4.5701 8.5041 10.111 8.7578 0-0.1275 0.0175-0.11992 0-0.26367-3.2975-2.1125-5.9098-6.2967-6.9785-8.9805 2.855-0.87625 5.0664-2.9418 5.0664-6.3105 0-4.6062-4.307-6.5469-9.8008-6.5469zm-134.02 0.01367c0.22 0.73875 0.42187 1.5077 0.42187 2.2715v16.822c0 0.76375-0.20062 1.5308-0.42187 2.2695 0.6325 0 15.24 0.02344 15.24 0.02344v-3.123c-0.73875 0.22-1.507 0.42188-2.2695 0.42188-0.63125 0-9.6387 0.002-9.6387 0.002v-7.1836s7.6695 0.0039 8.3008 0.0039c0.7625 0 1.5295 0.19992 2.2695 0.41992v-3.375c-0.74 0.22-1.507 0.42188-2.2695 0.42188-0.63125 0-8.3008 0.002-8.3008 0.002v-6.3535s9.0504 0.002 9.6816 0.002c0.76375 0 1.5308 0.20188 2.2695 0.42188v-3.0469h-15.283zm107.54 0c0.22 0.73875 0.42383 1.5077 0.42383 2.2715v16.822c0 0.76375-0.20383 1.5308-0.42383 2.2695 0.63125 0 15.24 0.02344 15.24 0.02344v-3.123c-0.73875 0.22-1.5038 0.42188-2.2676 0.42188-0.63125 0-9.6406 0.002-9.6406 0.002v-7.1836s7.6695 0.0039 8.3008 0.0039c0.76375 0 1.5308 0.19992 2.2695 0.41992v-3.375c-0.73874 0.22-1.5058 0.42188-2.2695 0.42188-0.63125 0-8.3008 0.002-8.3008 0.002v-6.3535s9.0524 0.002 9.6836 0.002c0.7625 0 1.5308 0.20188 2.2695 0.42188v-3.0469h-15.285zm144.02 0c0.22 0.73875 0.42187 1.5077 0.42187 2.2715v16.822c0 0.76375-0.20187 1.5308-0.42187 2.2695h3.7578c-0.22-0.73875-0.42187-1.5058-0.42187-2.2695 0-0.63125-0.004-6.9598-0.004-7.5898 0 0 7.6695 0.0039 8.3008 0.0039 0.76375 0 1.5308 0.19992 2.2695 0.41992v-3.375c-0.73875 0.22-1.5058 0.42188-2.2695 0.42188-0.63125 0-8.3008 0.002-8.3008 0.002v-6.3535s9.0504 0.002 9.6816 0.002c0.76375 0 1.5308 0.20188 2.2695 0.42188v-3.0469h-15.283zm-274.44 0.02344c0.22 0.73875 0.42383 1.5058 0.42383 2.2695v16.822c0 0.76375-0.20383 1.5315-0.42383 2.2715h3.7539c-0.21999-0.74-0.42187-1.5077-0.42187-2.2715v-7.5h11.453v7.5c0 0.76375-0.20188 1.5315-0.42188 2.2715h3.7539c-0.22-0.74-0.42188-1.5077-0.42188-2.2715v-16.822c0-0.76375 0.20188-1.5308 0.42188-2.2695h-3.7539c0.22 0.73875 0.42188 1.5058 0.42188 2.2695v6.6055h-11.453v-6.6055c0-0.76375 0.20187-1.5308 0.42187-2.2695h-3.7539zm51.291 0c0.22 0.73875 0.42188 1.5058 0.42188 2.2695v11.875c0 4.845 3.6063 7.6035 9.2988 7.6035 5.3888 0 9.4082-2.7291 9.4082-8.2266v-11.252c0-0.76375 0.20258-1.5308 0.42383-2.2695h-3.7559c0.22 0.73875 0.42187 1.5058 0.42187 2.2695v11.389c0 3.8488-2.8403 5.6016-6.4141 5.6016-3.8238 0-6.4726-2.0159-6.4726-5.3496v-11.641c0-0.76375 0.20062-1.5308 0.42187-2.2695h-3.7539zm47.877 0c0.22 0.73875 0.42187 1.5058 0.42187 2.2695v16.822c0 0.76375-0.20062 1.5315-0.42187 2.2715h3.7539c-0.22-0.74-0.42187-1.5077-0.42187-2.2715v-16.822c0-0.76375 0.20187-1.5308 0.42187-2.2695h-3.7539zm91.881 0c0.22 0.73875 0.42187 1.5058 0.42187 2.2695v16.822c0 0.76375-0.20187 1.5315-0.42187 2.2715h3.7539c-0.22-0.74-0.42187-1.5077-0.42187-2.2715v-16.822c0-0.76375 0.20187-1.5308 0.42187-2.2695h-3.7539zm-194.67 0.03906-16.715 0.01367v2.9219c0.73875-0.22 1.5058-0.42188 2.2695-0.42188h4.5781v16.539c0 0.76375-0.20258 1.5315-0.42383 2.2715h3.7559c-0.22-0.74-0.42383-1.5077-0.42383-2.2715v-16.539h4.6875c0.7625 0 1.5315 0.20188 2.2715 0.42188v-2.9355zm218.63 0-16.713 0.01367v2.9219c0.74-0.22 1.507-0.42188 2.2695-0.42188h4.5781v16.539c0 0.76375-0.20382 1.5315-0.42382 2.2715h3.7558c-0.22125-0.74-0.42187-1.5077-0.42187-2.2715v-16.539h4.6875c0.7625 0 1.5288 0.20188 2.2676 0.42188v-2.9355zm44.211 2.375c5.1662 0 8.4824 3.7756 8.4824 8.5469 0 4.835-3.7548 8.1934-8.5723 8.1934-4.83 0-8.5391-3.4789-8.5391-8.3789 0-4.2475 3.4377-8.3613 8.6289-8.3613zm-101.86 0.04297c3.75 0 6.5527 1.2741 6.5527 4.3379 0 2.975-3.3326 4.1406-6.2051 4.1406-1.2012 0-4.4551-0.0059-4.4551-0.0059v-8.4668s2.8749-0.0059 4.1074-0.0059zm-231.53 40.211c-2.85 0-3.8151 1.5391-4.1426 3.6504l-0.14258 0.83984h-1.375l-0.30664 1.7227h1.373l-1.7422 9.7188c-0.22625 1.23-0.65508 1.5566-1.4551 1.5566-0.4925 0-0.90273-0.12336-1.334-0.34961l-0.79883 1.7441c0.575 0.38875 1.5387 0.63477 2.4199 0.63477 2.8288 0 3.2604-1.7827 3.5879-3.5664l1.7637-9.7383h2.8281l0.28711-1.7227h-2.8301l0.16406-0.92188c0.22625-1.3125 0.73914-1.7637 1.7441-1.7637 0.5525 0 1.1887 0.14367 1.7012 0.45117l0.80078-1.5996c-0.595-0.39-1.538-0.65625-2.543-0.65625zm-11.094 4.2246c-4.0388 0-5.7402 3.2998-5.7402 7.0098 0 2.5638 1.3327 3.877 3.7715 3.877 4.1012 0 5.7207-3.424 5.7207-7.1152 0-3.2175-2.3382-3.7715-3.752-3.7715zm-0.32812 1.8027c1.1488 0 1.5996 0.7793 1.5996 2.0918 0 1.7837-0.55289 5.1465-2.9316 5.1465-1.25 0-1.5996-0.86156-1.5996-2.0703 0-1.865 0.51289-5.168 2.9316-5.168z" transform="matrix(.8 0 0 -.8 0 109)" fill="#888c8f"/></g></g></g></svg>
