<?xml version="1.0" encoding="utf-8"?>
<!-- Generator: Adobe Illustrator 22.0.1, SVG Export Plug-In . SVG Version: 6.00 Build 0)  -->
<svg version="1.1" id="Layer_1" xmlns="http://www.w3.org/2000/svg" xmlns:xlink="http://www.w3.org/1999/xlink" x="0px" y="0px"
	 width="250.1px" height="79.93px" viewBox="0 0 250.1 79.93" enable-background="new 0 0 250.1 79.93" xml:space="preserve">
<g>
	<path d="M114.2,10.5c-0.99-0.76-1.45-1.98-1.45-3.9V2.56c-0.02-1.46-0.11-1.47-1.38-1.6l-0.04-0.04V0.46l0.04-0.04h4.19l0.04,0.04
		v0.46l-0.04,0.04c-1.27,0.1-1.35,0.13-1.36,1.6v3.69c0.01,2.61,1.03,4.09,3.01,4.09c2.31,0,3.03-1.93,3.03-4.61V4.51
		c0-1.5-0.05-2.17-0.11-2.68c-0.08-0.61-0.38-0.79-1.54-0.88l-0.04-0.04V0.46l0.04-0.04h3.87l0.04,0.04v0.46l-0.04,0.04
		c-0.97,0.07-1.31,0.26-1.38,0.92c-0.05,0.44-0.1,1.13-0.1,2.63v1.33c0,1.92-0.29,3.31-1.23,4.32c-0.77,0.79-1.87,1.13-2.95,1.13
		C115.86,11.29,114.93,11.06,114.2,10.5 M134.76,11.21l0.04-0.04V4.62c0-1.51,0.03-2.24,0.1-2.74c0.07-0.68,0.42-0.87,1.33-0.92
		l0.04-0.04V0.46l-0.04-0.04h-3.83l-0.04,0.04v0.46l0.04,0.04c1.14,0.06,1.47,0.24,1.56,0.97c0.06,0.45,0.11,1.18,0.11,2.69v3.95
		l-6.77-8.13l-0.03-0.02h-2.39l-0.04,0.04v0.46l0.04,0.04c0.76,0.06,1.08,0.19,1.42,0.59c0.29,0.37,0.31,0.43,0.32,1.62v3.57
		c0,1.48-0.05,2.27-0.1,2.77c-0.09,0.78-0.47,0.96-1.39,1.02l-0.04,0.04v0.46l0.04,0.04h3.85l0.04-0.04v-0.46l-0.04-0.04
		c-1.11-0.07-1.44-0.24-1.52-1.05c-0.05-0.47-0.1-1.25-0.1-2.74V2.73l6.88,8.47l0.03,0.02H134.76z M143.28,11.06l0.04-0.04v-0.46
		l-0.04-0.04c-1.33-0.11-1.41-0.14-1.43-1.54v-6.5c0.02-1.38,0.09-1.42,1.43-1.54l0.04-0.04V0.46l-0.04-0.04h-4.31l-0.04,0.04v0.46
		l0.04,0.04c1.33,0.11,1.41,0.15,1.43,1.54v6.5c-0.02,1.38-0.09,1.42-1.43,1.54l-0.04,0.04v0.46l0.04,0.04v-0.04h0.04h-0.04v0.04
		H143.28z M151.48,11.24l0.04-0.03c1.23-3.36,2.94-7.49,3.38-8.56c0.62-1.44,0.8-1.56,1.9-1.7l0.04-0.04V0.46l-0.04-0.04h-3.66
		l-0.04,0.04v0.45l0.04,0.04c0.94,0.12,1.22,0.2,1.22,0.54c0,0.15-0.05,0.35-0.15,0.63c-0.52,1.61-1.73,4.74-2.55,6.78
		c-1.1-2.78-2.27-5.9-2.68-7.05c-0.08-0.22-0.13-0.38-0.13-0.49c-0.01-0.24,0.22-0.33,1.04-0.41l0.04-0.04V0.46l-0.04-0.04h-3.98
		l-0.04,0.04v0.45l0.04,0.04c0.97,0.1,1.2,0.2,1.67,1.4c0.94,2.36,2.27,5.88,3.36,8.86l0.04,0.03H151.48z M167.09,11.06l0.04-0.03
		c0.15-0.51,0.47-2.03,0.57-2.57l-0.03-0.05l-0.01,0.04l0.01-0.04l-0.47-0.06l-0.04,0.02c-0.23,0.63-0.53,1.2-0.8,1.52
		c-0.35,0.41-0.78,0.54-2.02,0.54c-0.81,0-1.38,0-1.67-0.2c-0.27-0.18-0.37-0.52-0.37-1.28V5.91h1.51c1.42,0.01,1.48,0.07,1.7,1.22
		l0.04,0.03H166l0.04-0.04V4.02L166,3.98h-0.47l-0.04,0.03c-0.21,1.09-0.23,1.17-1.71,1.18h-1.49V1.53c0.02-0.47-0.01-0.46,0.5-0.48
		h1.23c1.17,0,1.59,0.12,1.8,0.45c0.21,0.34,0.37,0.69,0.51,1.37l0.04,0.03l0.47-0.06l0.03-0.04c-0.05-0.83-0.13-1.93-0.13-2.34
		l-0.04-0.04h-7.25l-0.04,0.04v0.46l0.04,0.04c1.27,0.11,1.35,0.12,1.36,1.57v6.47c-0.02,1.33-0.09,1.41-1.57,1.54l-0.04,0.04v0.46
		l0.04,0.04H167.09z M179.37,11.18c0.18,0.02,0.37,0.02,0.57,0.02l0.04-0.03l0.06-0.42l-0.03-0.04c-0.35-0.1-0.73-0.27-1.15-0.75
		c-0.4-0.42-0.73-0.84-1.31-1.68c-0.47-0.71-1.14-1.77-1.43-2.3c1.17-0.54,2.05-1.41,2.05-2.81c0-0.99-0.43-1.73-1.1-2.16
		c-0.61-0.41-1.42-0.56-2.61-0.56h-4.03l-0.04,0.04v0.45l0.04,0.04c1.27,0.13,1.35,0.12,1.36,1.5v6.53
		c-0.02,1.38-0.09,1.42-1.43,1.54l-0.04,0.04v0.46l0.04,0.04h4.26l0.04-0.04v-0.46l-0.04-0.04c-1.29-0.11-1.38-0.15-1.39-1.54V6.45
		h0.48c0.82,0.01,1.07,0.18,1.35,0.63c0.49,0.8,1.07,1.8,1.64,2.6C177.44,10.74,178.13,11.11,179.37,11.18 M179.94,11.15v-0.04
		V11.15z M173.98,5.85h-0.74V1.87c0-0.45,0.05-0.62,0.16-0.68c0.12-0.09,0.39-0.16,0.86-0.16c1.2,0.01,2.33,0.63,2.33,2.37
		c0,0.87-0.25,1.5-0.88,1.98C175.31,5.72,174.79,5.85,173.98,5.85 M183.49,11.06c0.39,0.11,0.93,0.25,1.6,0.25
		c2.18,0,3.64-1.38,3.65-3.11c0-1.86-1.55-2.62-2.83-3.28c-1.28-0.65-2.04-1.21-2.04-2.37c0-0.86,0.53-1.73,1.76-1.73
		c1.38,0,1.81,1.09,2.09,2.12l0.05,0.03l0.47-0.08l0.03-0.04c-0.13-1.02-0.21-1.67-0.28-2.24l-0.03-0.03
		c-0.62-0.19-1.31-0.38-2.06-0.38c-2.11,0-3.38,1.35-3.39,2.93c0,1.86,1.67,2.67,2.7,3.24c1.22,0.65,2.09,1.21,2.09,2.39
		c0,1.17-0.69,1.91-1.91,1.91c-1.66,0-2.38-1.61-2.63-2.6l-0.05-0.03l-0.49,0.11l-0.03,0.05c0.11,0.78,0.32,2.17,0.44,2.52
		C182.83,10.8,183.08,10.93,183.49,11.06 M187.76,2.91l0.04-0.01L187.76,2.91z M195.75,11.06l0.04-0.04v-0.46l-0.04-0.04
		c-1.34-0.11-1.41-0.14-1.43-1.54v-6.5c0.02-1.38,0.09-1.42,1.43-1.54l0.04-0.04V0.46l-0.04-0.04h-4.31l-0.04,0.04v0.46l0.04,0.04
		c1.33,0.11,1.41,0.15,1.43,1.54v6.5c-0.02,1.38-0.09,1.42-1.43,1.54l-0.04,0.04v0.46l0.04,0.04v-0.04h0.04h-0.04v0.04H195.75z
		 M205.48,11.06l0.04-0.04v-0.45l-0.04-0.04c-1.53-0.11-1.6-0.22-1.62-1.5V1.05h1.1c1.24,0,1.47,0.13,1.74,0.5
		c0.17,0.25,0.34,0.65,0.5,1.43l0.04,0.03l0.49-0.05l0.03-0.04c-0.1-0.94-0.16-2.13-0.18-2.87l-0.04-0.04h-0.34l-0.03,0.01
		c-0.24,0.31-0.35,0.39-0.78,0.39h-6.42c-0.46,0-0.64-0.03-0.86-0.39l-0.03-0.02h-0.32l-0.04,0.04c-0.03,0.89-0.11,1.95-0.19,2.92
		l0.04,0.04h0.47l0.04-0.03c0.19-0.72,0.32-1.18,0.51-1.45c0.2-0.34,0.5-0.48,1.85-0.49h0.97v7.97c-0.02,1.28-0.09,1.39-1.57,1.5
		l-0.04,0.04v0.45l0.04,0.04H205.48z M207.24,2.98l0.04-0.01L207.24,2.98z M217.8,11.06l0.04-0.04v-0.46l-0.04-0.04
		c-1.5-0.11-1.57-0.17-1.59-1.54V6.78c0-0.42,0.04-0.58,0.27-1.01c0.76-1.43,1.31-2.37,2.05-3.55c0.62-0.99,0.79-1.13,1.9-1.27
		l0.04-0.04V0.46l-0.04-0.04h-3.59l-0.04,0.04v0.46l0.04,0.04c0.85,0.09,1.12,0.18,1.11,0.42c0,0.13-0.07,0.33-0.2,0.6
		c-0.44,0.97-1.3,2.52-1.9,3.59c-0.69-1.2-1.47-2.51-2.16-3.79c-0.1-0.19-0.17-0.33-0.17-0.44c-0.01-0.17,0.21-0.29,0.97-0.38
		l0.04-0.04V0.46l-0.04-0.04h-3.88l-0.04,0.04v0.46l0.04,0.04c0.97,0.09,1.11,0.24,1.77,1.36c0.88,1.49,1.48,2.57,2.05,3.56
		c0.28,0.51,0.33,0.64,0.34,0.96v2.16c-0.02,1.38-0.09,1.42-1.54,1.54l-0.04,0.04v0.46l0.04,0.04H217.8z M228.5,5.85
		c0.01,3.16,2.36,5.45,5.32,5.45c2.99-0.01,5.46-2.16,5.47-5.7c-0.01-3.29-2.51-5.43-5.27-5.43C230.56,0.18,228.5,2.91,228.5,5.85
		 M234.16,10.64c-2.26-0.01-3.92-2.2-3.92-5.24c0-3.04,1.64-4.56,3.42-4.56c2.12,0,3.89,1.79,3.89,5.21
		C237.54,9.16,235.95,10.64,234.16,10.64 M246.62,11.06l0.04-0.04v-0.45l-0.04-0.04c-1.48-0.11-1.56-0.16-1.57-1.55v-2.9l1.63,0
		c1.48,0.01,1.51,0.15,1.72,1.26l0.04,0.03h0.47l0.04-0.04V4.2l-0.04-0.04h-0.47l-0.04,0.03c-0.21,1.06-0.23,1.16-1.72,1.17h-1.63
		V1.53c0.02-0.47,0.01-0.46,0.5-0.48h1.23c1.24,0,1.55,0.14,1.82,0.58c0.21,0.32,0.3,0.64,0.45,1.29l0.04,0.03l0.47-0.06l0.03-0.04
		c-0.06-0.78-0.15-1.8-0.16-2.39l-0.04-0.04h-7.15l-0.04,0.04v0.45l0.04,0.04c1.25,0.11,1.33,0.14,1.35,1.54v6.48
		c-0.02,1.4-0.09,1.44-1.39,1.55l-0.04,0.04v0.45l0.04,0.04H246.62z M249.09,2.91l0.04-0.01L249.09,2.91z M135.12,31.03
		c-0.25-2.43-0.42-5.5-0.46-7.43h-0.88c-0.63,0.8-0.97,1.05-2.1,1.05H115.1c-1.18,0-1.72-0.08-2.31-1.05h-0.84
		c-0.08,2.31-0.29,5.04-0.5,7.55h1.22c0.51-1.85,0.84-3.06,1.35-3.78c0.54-0.92,1.38-1.3,4.87-1.3h2.6v20.69
		c0,3.32-0.34,3.74-4.16,3.99v1.18h12v-1.18c-3.95-0.25-4.28-0.67-4.28-3.99V26.08h2.94c3.19,0,3.86,0.33,4.58,1.34
		c0.46,0.67,0.88,1.72,1.3,3.74L135.12,31.03z M162.69,45.14c-0.59,1.64-1.38,3.11-2.1,3.95c-0.92,1.09-2.1,1.43-5.29,1.43
		c-2.1,0-3.57,0-4.37-0.55c-0.76-0.5-1.01-1.43-1.01-3.4v-7.93h3.99c3.65,0,3.95,0.25,4.49,3.23h1.22v-8.02h-1.22
		c-0.5,2.81-0.71,3.15-4.53,3.15h-3.95v-9.57c0-1.22,0.09-1.35,1.39-1.35h3.19c3.02,0,4.16,0.3,4.74,1.22
		c0.54,0.88,0.96,1.8,1.34,3.57l1.22-0.17c-0.12-2.14-0.33-4.99-0.33-6.04h-18.72v1.17c3.27,0.25,3.61,0.42,3.61,4.16v16.7
		c0,3.44-0.33,3.78-4.16,4.07v1.17h20.23c0.38-1.3,1.22-5.25,1.47-6.63L162.69,45.14z M197.65,51.94v-1.17
		c-2.94-0.3-3.86-0.93-5.79-3.86c-2.01-3.06-4.32-6.72-6.59-10.33c2.81-4.32,4.2-6.3,5.08-7.51c1.89-2.48,2.69-2.9,5.79-3.23v-1.17
		h-9.57v1.17c2.77,0.34,2.98,0.76,1.97,2.6c-1.13,2.06-2.39,4.07-4.16,6.8c-1.85-2.85-3.4-5.25-4.79-7.64
		c-0.63-1.09-0.59-1.47,1.97-1.76v-1.17h-10.33v1.17c3.02,0.34,3.57,0.8,5.37,3.53c1.47,2.35,3.4,5.46,5.63,8.98
		c-3.69,5.71-5.83,8.73-6.88,10.03c-1.22,1.59-2.52,2.14-4.91,2.39v1.17h9.61v-1.17c-2.81-0.34-3.02-0.76-2.01-2.56
		c1.34-2.48,3.06-5.37,5.12-8.48c2.6,4.11,4.49,7.26,5.54,8.98c0.8,1.38,0.5,1.76-2.1,2.06v1.17H197.65z M227.75,51.94v-1.17
		c-2.73-0.25-3.32-0.63-4.62-4.24c-2.69-7.3-5.5-15.32-8.1-22.5l-1.3,0.38l-8.69,21.99c-1.43,3.74-2.01,3.99-4.7,4.37v1.17h9.15
		v-1.17c-3.19-0.29-3.53-0.71-2.64-3.36c0.55-1.76,1.18-3.53,1.85-5.42h8.94c0.92,2.56,1.76,4.83,2.31,6.46
		c0.55,1.64,0.17,1.97-2.48,2.31v1.17H227.75z M217.04,40.19h-7.72c1.3-3.44,2.6-7.14,3.95-10.7h0.08L217.04,40.19z M248.6,30.78
		c-0.34-2.64-0.55-4.32-0.72-5.79c-1.59-0.51-3.36-0.97-5.29-0.97c-5.41,0-8.65,3.44-8.65,7.47c0,4.74,4.24,6.8,6.93,8.27
		c3.15,1.68,5.45,3.15,5.45,6.25c0,3.06-1.85,5.04-5.04,5.04c-4.36,0-6.25-4.24-6.88-6.8l-1.26,0.3c0.3,2.01,0.84,5.62,1.13,6.5
		c0.42,0.21,1.05,0.55,2.1,0.88c1.01,0.3,2.39,0.63,4.11,0.63c5.58,0,9.32-3.53,9.32-7.93c0-4.74-3.95-6.67-7.26-8.39
		c-3.32-1.68-5.33-3.15-5.33-6.21c0-2.27,1.43-4.58,4.66-4.58c3.65,0,4.79,2.9,5.5,5.54L248.6,30.78z M124.67,79.6l0.04-0.04v-0.59
		l-0.04-0.04c-1.36-0.13-1.61-0.29-2.27-2.09c-1.34-3.65-2.75-7.66-4.05-11.25l-0.05-0.02l-0.65,0.19l-4.37,11.02
		c-0.72,1.87-0.98,1.96-2.32,2.15l-0.03,0.04v0.59l0.04,0.04h4.57l0.04-0.04v-0.59l-0.04-0.04c-1.12-0.11-1.5-0.23-1.5-0.72
		c0-0.22,0.08-0.51,0.21-0.91c0.27-0.87,0.58-1.74,0.91-2.68h4.41c0.46,1.27,0.88,2.39,1.15,3.2c0.07,0.2,0.11,0.36,0.11,0.49
		c0,0.36-0.31,0.48-1.31,0.61l-0.03,0.04v0.59l0.04,0.04v-0.04h0.04h-0.04v0.04H124.67z M115.51,73.65c0.64-1.69,1.28-3.5,1.93-5.25
		l1.81,5.25H115.51 M139.15,79.75c0.23,0.02,0.48,0.02,0.74,0.02l0.04-0.03l0.08-0.55l-0.03-0.04c-0.46-0.12-0.95-0.35-1.49-0.97
		c-0.52-0.54-0.94-1.09-1.7-2.18c-0.62-0.93-1.48-2.3-1.84-2.98c1.52-0.69,2.65-1.82,2.65-3.63c0-1.27-0.55-2.23-1.43-2.78
		c-0.79-0.53-1.82-0.72-3.36-0.72h-5.21l-0.04,0.04v0.59l0.04,0.04c1.64,0.16,1.75,0.17,1.77,1.95v8.44c-0.02,1.79-0.13,1.85-1.85,2
		l-0.04,0.04v0.59l0.04,0.04h5.5l0.04-0.04v-0.59l-0.04-0.04c-1.66-0.14-1.79-0.21-1.81-2v-3.3h0.63c1.07,0.01,1.39,0.24,1.75,0.82
		c0.63,1.03,1.39,2.33,2.12,3.36C136.66,79.19,137.54,79.67,139.15,79.75 M139.88,79.73v-0.04V79.73z M132.18,72.93v-0.04h-0.97
		v-5.14c0-0.59,0.07-0.8,0.21-0.89c0.16-0.12,0.51-0.2,1.11-0.2c1.56,0.01,3.02,0.82,3.02,3.07c0,1.13-0.33,1.95-1.14,2.57
		c-0.52,0.43-1.2,0.6-2.24,0.6V72.93 M152.62,79.6l0.04-0.03c0.19-0.66,0.63-2.65,0.76-3.3l-0.03-0.05l-0.01,0.04l0.01-0.04
		l-0.63-0.13l-0.05,0.03c-0.31,0.96-0.69,1.63-1.06,2.04c-0.47,0.53-1.17,0.64-2.32,0.64c-0.88,0-1.59-0.04-2-0.27
		c-0.36-0.2-0.46-0.59-0.46-1.73v-8.29c0.02-1.81,0.15-1.83,1.81-1.98l0.04-0.04v-0.59l-0.04-0.04h-5.48l-0.04,0.04v0.59l0.04,0.04
		c1.72,0.14,1.79,0.19,1.81,1.98v8.39c-0.02,1.79-0.13,1.88-1.89,2.02l-0.04,0.04v0.59l0.04,0.04H152.62z M162.63,79.6l0.04-0.04
		v-0.59l-0.04-0.04c-1.72-0.14-1.84-0.19-1.85-1.99v-8.39c0.02-1.78,0.13-1.85,1.85-2l0.04-0.04v-0.59l-0.04-0.04h-5.56l-0.04,0.04
		v0.59l0.04,0.04c1.72,0.14,1.84,0.21,1.85,2v8.39c-0.02,1.78-0.13,1.85-1.85,1.99l-0.04,0.04v0.59l0.04,0.04v-0.04h0.04h-0.04v0.04
		H162.63z M180.09,79.79l0.04-0.04v-8.45c0-1.95,0.04-2.9,0.12-3.54c0.09-0.88,0.55-1.13,1.73-1.2l0.04-0.04v-0.59l-0.04-0.04h-4.95
		l-0.04,0.04v0.59l0.04,0.04c1.47,0.07,1.91,0.32,2.02,1.27c0.08,0.59,0.15,1.53,0.15,3.48v5.12h0l-8.76-10.52l-0.03-0.02h-3.08
		l-0.04,0.04v0.59l0.04,0.04c0.99,0.09,1.41,0.25,1.84,0.76c0.37,0.48,0.41,0.55,0.41,2.09v4.62c0,1.91-0.06,2.93-0.12,3.59
		c-0.11,1.01-0.61,1.26-1.81,1.33l-0.04,0.04v0.59l0.04,0.04h4.97l0.04-0.04v-0.59l-0.04-0.04c-1.43-0.09-1.87-0.32-1.98-1.37
		c-0.06-0.61-0.12-1.62-0.12-3.54v-5.21l8.91,10.96l0.03,0.02H180.09z M185.57,72.83c0.01,4.2,3.11,7.08,7.74,7.09
		c1.68,0,3.41-0.46,4.71-0.76l0.03-0.05c-0.12-0.58-0.15-1.25-0.15-1.99v-1.8c0.02-1.24,0.05-1.29,1.31-1.47l0.04-0.04v-0.59
		l-0.04-0.04h-5.33l-0.04,0.04v0.59l0.04,0.04c2.08,0.16,2.15,0.26,2.17,1.76v1.79c-0.01,0.88-0.24,1.12-0.65,1.35
		c-0.45,0.23-1.1,0.35-1.81,0.35c-4.02-0.01-5.79-3.5-5.79-6.53c0-3.84,2.33-6.19,5.52-6.19c2.01,0.01,3.55,0.68,4.05,3.24
		l0.05,0.03l0.59-0.13l0.03-0.04c-0.15-1.39-0.25-2.54-0.31-3.27l-0.03-0.04c-0.69-0.15-2.29-0.61-4.06-0.61
		C189.5,65.57,185.58,67.95,185.57,72.83 M211.63,79.6l0.04-0.04v-0.59l-0.04-0.04c-1.98-0.14-2.09-0.3-2.1-1.95V66.67l1.43,0
		c1.6,0,1.9,0.16,2.25,0.65c0.23,0.33,0.44,0.85,0.65,1.85l0.04,0.03l0.63-0.06l0.04-0.04c-0.13-1.22-0.21-2.75-0.23-3.71
		l-0.04-0.04h-0.44l-0.03,0.02c-0.32,0.4-0.46,0.51-1.02,0.51h-8.29c-0.59-0.01-0.83-0.04-1.12-0.51l-0.03-0.02h-0.42l-0.04,0.04
		c-0.04,1.15-0.15,2.52-0.25,3.78l0.04,0.04h0.61l0.04-0.03c0.25-0.92,0.42-1.53,0.67-1.88c0.26-0.45,0.66-0.63,2.4-0.63h1.26v10.3
		c-0.02,1.66-0.13,1.81-2.04,1.95l-0.04,0.04v0.59l0.04,0.04H211.63z M213.89,69.17l0.04-0.01L213.89,69.17z M218.03,72.89
		c0.01,4.07,3.04,7.02,6.86,7.03c3.86-0.01,7.04-2.79,7.05-7.34c-0.01-4.24-3.23-7-6.8-7.01C220.69,65.57,218.04,69.09,218.03,72.89
		 M231.86,72.57L231.86,72.57 M225.14,65.65L225.14,65.65 M224.68,66.32L224.68,66.32 M225.33,79.08c-2.93-0.01-5.08-2.85-5.08-6.78
		c0-3.93,2.13-5.9,4.43-5.9c2.74,0,5.03,2.33,5.04,6.74C229.72,77.16,227.66,79.08,225.33,79.08 M248.12,79.79l0.04-0.04v-8.45
		c0-1.95,0.04-2.9,0.13-3.54c0.09-0.88,0.55-1.13,1.72-1.2l0.04-0.04v-0.59l-0.04-0.04h-4.95l-0.04,0.04v0.59l0.04,0.04
		c1.47,0.07,1.91,0.32,2.02,1.27c0.08,0.59,0.15,1.53,0.15,3.48v5.12h-0.01l-8.76-10.52l-0.03-0.02h-3.08l-0.04,0.04v0.59l0.04,0.04
		c0.99,0.09,1.41,0.25,1.84,0.76c0.37,0.48,0.41,0.55,0.41,2.09v4.62c0,1.91-0.06,2.93-0.12,3.59c-0.11,1.01-0.61,1.26-1.81,1.33
		l-0.04,0.04v0.59l0.04,0.04h4.97l0.04-0.04v-0.59l-0.04-0.04c-1.43-0.09-1.87-0.32-1.98-1.37c-0.06-0.61-0.12-1.62-0.12-3.54v-5.21
		l8.91,10.96l0.03,0.02H248.12z"/>
	<path fill="#FFFFFF" d="M64.19,42.63L44.87,49l4.47-5.97L64.19,42.63z M44.79,28.64l0.08,20.34l-4.29-6.1L44.79,28.64z
		 M25.49,42.77l19.37,6.21l-7.13,2.2L25.49,42.77z M44.75,56.45L32.96,65.5l11.9-16.51L44.75,56.45z M56.88,65.41L44.86,49
		l7.06,2.41L56.88,65.41z"/>
	<path fill="#0064B1" d="M0.05,79.61h25.13l8.71-26.76l-17.5-12.71L0.05,79.61z M73.34,40.14L55.85,52.85l8.71,26.76h25.13
		L73.34,40.14z M56.94,0.52H32.8L16.48,39.94h21.61l6.78-21.01l6.79,21.01h21.61L56.94,0.52z"/>
	<path fill="#F58025" d="M65.7,42.22H49.78l-4.92-15.14l-4.92,15.14H24.03l12.88,9.35l-4.92,15.14l12.88-9.35l12.88,9.35
		l-4.92-15.14L65.7,42.22z M64.19,42.63L44.87,49l4.47-5.97L64.19,42.63z M44.79,28.64l0.08,20.34l-4.29-6.1L44.79,28.64z
		 M25.49,42.77l19.37,6.21l-7.13,2.2L25.49,42.77z M44.75,56.45L32.96,65.5l11.9-16.51L44.75,56.45z M56.88,65.41L44.86,49
		l7.06,2.41L56.88,65.41z"/>
</g>
</svg>
