<?xml version="1.0" encoding="utf-8"?>
<!-- Generator: Adobe Illustrator 15.1.0, SVG Export Plug-In . SVG Version: 6.00 Build 0)  -->
<!DOCTYPE svg PUBLIC "-//W3C//DTD SVG 1.1//EN" "http://www.w3.org/Graphics/SVG/1.1/DTD/svg11.dtd">
<svg version="1.1" id="Layer_1" xmlns="http://www.w3.org/2000/svg" xmlns:xlink="http://www.w3.org/1999/xlink" x="0px" y="0px"
	 width="300px" height="115.405px" viewBox="0 0 300 115.405" enable-background="new 0 0 300 115.405" xml:space="preserve">
<g>
	<path fill="#003E7E" d="M54.739,111.366c49.464-34.107,45.853-77.867,45.853-101.701C71.416,15.999,54.459,0,54.459,0
		S35.206,15.189,5.428,8.725c0,24.321-0.715,68.533,48.756,102.641H54.739z"/>
	<path fill="#003E7E" d="M54.482,102.13C96.54,71.744,93.949,36.339,94.314,16.827c-27.976,3.818-39.832-8.253-39.832-8.253
		s-14.055,11.357-42.605,7.459C12.256,35.944,12.422,71.744,54.482,102.13"/>
	<g>
		<path fill="#FFFFFF" d="M54.482,102.13l0.353,0.488C75.96,87.36,85.922,70.781,90.608,55.579
			c4.689-15.199,4.124-29.013,4.308-38.74l0.014-0.704l-0.697,0.095c-3.794,0.518-7.287,0.741-10.489,0.741
			C73.622,16.97,66.4,14.744,61.712,12.529c-2.344-1.107-4.054-2.211-5.172-3.034c-0.56-0.411-0.972-0.752-1.242-0.988l-0.297-0.27
			l-0.089-0.086l-0.382-0.39l-0.426,0.343l-0.104,0.081c-1.126,0.851-11.206,8.059-30.508,8.06c-3.533,0-7.377-0.243-11.533-0.81
			l-0.697-0.095l0.014,0.704c0.359,19.903,0.582,56.061,42.855,86.573l0.353,0.254l0.353-0.254L54.482,102.13l0.353-0.488
			C12.988,71.379,12.876,35.94,12.479,16.021l-0.602,0.012l-0.082,0.597c4.208,0.575,8.107,0.82,11.696,0.82
			c20.917,0.001,31.297-8.346,31.371-8.408l-0.379-0.468l-0.429,0.422c0.074,0.082,9.085,9.184,29.691,9.18
			c3.259,0,6.806-0.227,10.652-0.751l-0.082-0.597l-0.603-0.012c-0.18,9.785,0.367,23.429-4.254,38.408
			c-4.625,14.976-14.396,31.29-35.328,46.418L54.482,102.13l0.353-0.488L54.482,102.13z"/>
	</g>
	<path fill="#FFD200" d="M46.938,78.146c0,0,2.193-0.217,4.119,1.051c1.66,1.095,2.574,3.334,2.574,3.334s-2.738,0.262-4.496-0.897
		C47.206,80.363,46.938,78.146,46.938,78.146"/>
	<path fill="#FFD200" d="M61.229,78.185c0,0-2.191-0.217-4.119,1.051c-1.657,1.097-2.57,3.33-2.57,3.33s2.735,0.266,4.492-0.891
		C60.963,80.402,61.229,78.185,61.229,78.185"/>
	<path fill="#FFD200" d="M54.468,69.889c0,0,1.936,2.908,1.936,5.732c0,2.432-2.178,5.398-2.178,5.398s-2.006-2.776-2.006-5.432
		C52.22,72.761,54.468,69.889,54.468,69.889"/>
	<path fill="#003E7E" d="M119.101,48.715c0-1.856-0.043-1.943-1.193-1.943h-2.473c-4.064,0-5.257,0.486-6.892,4.064
		c-0.309,0.265-1.238,0.133-1.415-0.309c0.75-2.386,1.415-5.125,1.723-6.67c0.089-0.133,0.266-0.177,0.487-0.177
		c0.176,0,0.353,0.044,0.44,0.177c0.223,1.103,0.842,1.146,3.845,1.146h18.026c2.163,0,2.827-0.133,3.356-1.146
		c0.177-0.089,0.354-0.177,0.53-0.177c0.265,0,0.487,0.088,0.574,0.221c-0.441,1.812-0.794,5.61-0.661,7.024
		c-0.222,0.353-0.972,0.442-1.369,0.133c-0.576-3.445-1.415-4.286-6.141-4.286h-2.519c-1.149,0-1.192,0.087-1.192,1.943v19.086
		c0,4.681,0.396,4.813,2.472,5.034l1.592,0.179c0.307,0.31,0.266,1.103-0.089,1.283c-2.563-0.089-4.549-0.134-6.495-0.134
		c-1.943,0-4.019,0.045-6.846,0.134c-0.355-0.18-0.398-1.062-0.089-1.283l1.855-0.221c2.076-0.178,2.473-0.31,2.473-4.991V48.715z"
		/>
	<path fill="#003E7E" d="M167.829,59.67c0,8.703-6.629,15.2-15.551,15.2c-9.985,0-15.729-7.024-15.729-14.89
		c0-9.011,6.54-15.682,15.816-15.682C162.572,44.299,167.829,51.63,167.829,59.67 M142.559,58.701
		c0,6.094,2.606,14.401,10.16,14.401c5.039,0,9.102-3.756,9.102-12.633c0-6.674-3.004-14.404-10.03-14.404
		C147.373,46.065,142.559,49.29,142.559,58.701"/>
	<path fill="#003E7E" d="M179.932,66.873c0,2.209,0.089,3.799,0.752,4.551c0.529,0.616,1.236,0.969,4.771,0.969
		c4.904,0,5.61-0.219,7.641-4.77c0.442-0.221,1.152-0.087,1.373,0.265c-0.358,1.857-1.327,5.212-1.857,6.404
		c-1.857-0.085-5.656-0.132-10.602-0.132h-4.596c-2.252,0-4.462,0.047-6.317,0.132c-0.353-0.174-0.486-1.058-0.089-1.279
		l1.326-0.221c2.074-0.266,2.474-0.399,2.474-4.991V51.365c0-4.595-0.399-4.726-2.474-5.035l-1.237-0.177
		c-0.308-0.22-0.308-1.103,0.09-1.279c2.209,0.087,4.194,0.131,6.228,0.131c1.944,0,3.933-0.044,5.875-0.134
		c0.399,0.179,0.442,1.062,0.089,1.282l-0.974,0.177c-2.073,0.309-2.473,0.44-2.473,5.035V66.873z"/>
	<path fill="#003E7E" d="M202.066,51.366c0-4.682-0.399-4.814-2.473-5.125l-0.71-0.087c-0.308-0.309-0.264-1.106,0.089-1.282
		c1.679,0.089,3.756,0.133,5.699,0.133h8.438c2.827,0,5.389-0.044,5.962-0.133c0.179,0.75,0.442,4.242,0.706,6.141
		c-0.175,0.353-1.058,0.442-1.41,0.176c-0.708-2.562-1.371-3.666-2.784-4.019c-1.016-0.31-2.341-0.399-3.536-0.399h-2.959
		c-1.899,0-1.899,0.089-1.899,2.607v7.465c0,1.148,0.046,1.194,1.06,1.194h2.121c3.844,0,4.595-0.046,4.903-1.944l0.311-1.503
		c0.353-0.309,1.192-0.309,1.413,0.044c-0.045,1.193-0.134,2.783-0.134,4.419c0,1.678,0.089,3.225,0.134,4.64
		c-0.221,0.306-1.06,0.306-1.413,0.041l-0.311-1.767c-0.309-1.853-1.06-1.942-4.903-1.942h-2.121c-1.014,0-1.06,0.089-1.06,1.19
		v5.613c0,2.252,0.086,3.842,0.75,4.592c0.531,0.618,1.283,0.973,4.993,0.973c5.609,0.089,6.583-1.192,8.129-4.772
		c0.397-0.308,1.149-0.176,1.415,0.265c-0.266,1.857-1.238,5.214-1.856,6.406c-1.942-0.087-5.745-0.134-10.913-0.134h-5.035
		c-1.943,0-4.64,0.047-6.625,0.134c-0.352-0.176-0.398-0.971-0.089-1.281l1.636-0.179c2.073-0.221,2.473-0.351,2.473-5.035V51.366z"
		/>
	<path fill="#003E7E" d="M230.206,51.63c0-4.241-0.046-4.771-2.122-5.036l-0.927-0.089c-0.308-0.22-0.308-1.016,0.045-1.237
		c3.179-0.266,6.714-0.396,11.044-0.396c4.196,0,7.201,0.353,10.426,1.502c5.302,1.943,9.054,6.625,9.054,13.211
		c0,4.899-2.428,9.939-7.906,12.72c-3.136,1.591-6.935,2.121-10.952,2.121c-2.696,0-4.772-0.266-6.409-0.266
		c-1.679,0-3.665,0.045-5.608,0.134c-0.354-0.178-0.399-0.971-0.089-1.281l0.973-0.134c2.073-0.263,2.473-0.397,2.473-5.08V51.63z
		 M235.33,66.078c0,4.284,0.311,6.583,4.992,6.583c7.863,0,11.399-5.567,11.399-13.035c0-8.746-5.083-12.987-12.46-12.987
		c-1.854,0-3.267,0.353-3.577,0.619c-0.311,0.265-0.354,1.193-0.354,3.27V66.078z"/>
	<path fill="#003E7E" d="M292.583,59.67c0,8.703-6.627,15.2-15.551,15.2c-9.983,0-15.728-7.024-15.728-14.89
		c0-9.011,6.538-15.682,15.817-15.682C287.327,44.299,292.583,51.63,292.583,59.67 M267.312,58.701
		c0,6.094,2.606,14.401,10.164,14.401c5.035,0,9.099-3.756,9.099-12.633c0-6.674-3.006-14.404-10.029-14.404
		C272.129,46.065,267.312,49.29,267.312,58.701"/>
	<path fill="#003E7E" d="M114.596,34.575c0,1.47,0.028,1.667,0.842,1.75l0.447,0.043c0.085,0.056,0.055,0.308-0.026,0.35
		c-0.799-0.028-1.276-0.042-1.835-0.042c-0.562,0-1.05,0.014-1.948,0.042c-0.083-0.042-0.11-0.28,0-0.35l0.505-0.043
		c0.797-0.07,0.869-0.28,0.869-1.75v-6.26c0-0.433,0-0.448-0.421-0.448h-0.77c-0.604,0-1.373,0.029-1.723,0.351
		c-0.335,0.307-0.476,0.615-0.631,0.966c-0.111,0.083-0.308,0.015-0.364-0.098c0.225-0.629,0.436-1.527,0.532-2.086
		c0.042-0.028,0.224-0.042,0.266,0c0.085,0.448,0.547,0.434,1.191,0.434h5.67c0.757,0,0.884-0.028,1.095-0.393
		c0.068-0.028,0.223-0.014,0.251,0.042c-0.155,0.575-0.251,1.708-0.21,2.129c-0.056,0.111-0.293,0.111-0.363,0.028
		c-0.043-0.35-0.141-0.867-0.351-1.022c-0.321-0.239-0.854-0.351-1.624-0.351h-0.994c-0.42,0-0.407,0.016-0.407,0.476V34.575z"/>
	<path fill="none" stroke="#003E7E" stroke-width="0.143" stroke-miterlimit="3.864" d="M114.596,34.575
		c0,1.47,0.028,1.667,0.842,1.75l0.447,0.043c0.085,0.056,0.055,0.308-0.026,0.35c-0.799-0.028-1.276-0.042-1.835-0.042
		c-0.562,0-1.05,0.014-1.948,0.042c-0.083-0.042-0.11-0.28,0-0.35l0.505-0.043c0.797-0.07,0.869-0.28,0.869-1.75v-6.26
		c0-0.433,0-0.448-0.421-0.448h-0.77c-0.604,0-1.373,0.029-1.723,0.351c-0.335,0.307-0.476,0.615-0.631,0.966
		c-0.111,0.083-0.308,0.015-0.364-0.098c0.225-0.629,0.436-1.527,0.532-2.086c0.042-0.028,0.224-0.042,0.266,0
		c0.085,0.448,0.547,0.434,1.191,0.434h5.67c0.757,0,0.884-0.028,1.095-0.393c0.068-0.028,0.223-0.014,0.251,0.042
		c-0.155,0.575-0.251,1.708-0.21,2.129c-0.056,0.111-0.293,0.111-0.363,0.028c-0.043-0.35-0.141-0.867-0.351-1.022
		c-0.321-0.239-0.854-0.351-1.624-0.351h-0.994c-0.42,0-0.407,0.016-0.407,0.476V34.575z"/>
	<path fill="#003E7E" d="M125.126,32.152c-0.671,0-0.698,0.028-0.698,0.449v1.975c0,1.47,0.069,1.665,0.853,1.75l0.405,0.042
		c0.085,0.055,0.058,0.308-0.025,0.352c-0.756-0.03-1.232-0.044-1.781-0.044c-0.601,0-1.078,0.027-1.624,0.044
		c-0.083-0.044-0.113-0.268-0.027-0.352l0.238-0.042c0.784-0.14,0.812-0.28,0.812-1.75v-5.042c0-1.471-0.1-1.709-0.826-1.765
		l-0.366-0.03c-0.083-0.056-0.055-0.306,0.029-0.35c0.686,0.014,1.163,0.044,1.763,0.044c0.549,0,1.024-0.014,1.626-0.044
		c0.083,0.044,0.11,0.294,0.027,0.35l-0.266,0.03c-0.812,0.083-0.839,0.294-0.839,1.765v1.61c0,0.434,0.027,0.449,0.698,0.449h4.005
		c0.673,0,0.701-0.015,0.701-0.449v-1.61c0-1.471-0.027-1.681-0.853-1.765l-0.267-0.03c-0.085-0.056-0.057-0.306,0.028-0.35
		c0.645,0.03,1.119,0.044,1.695,0.044c0.546,0,1.021-0.014,1.651-0.044c0.085,0.044,0.111,0.294,0.027,0.35l-0.293,0.03
		c-0.812,0.083-0.839,0.294-0.839,1.765v5.042c0,1.47,0.028,1.651,0.839,1.75l0.335,0.042c0.086,0.055,0.056,0.308-0.027,0.352
		c-0.673-0.03-1.147-0.044-1.693-0.044c-0.576,0-1.08,0.014-1.695,0.044c-0.085-0.044-0.113-0.268-0.028-0.352l0.267-0.042
		c0.853-0.113,0.826-0.28,0.853-1.75v-1.975c0-0.421-0.027-0.449-0.701-0.449H125.126z"/>
	<path fill="none" stroke="#003E7E" stroke-width="0.143" stroke-miterlimit="3.864" d="M125.126,32.152
		c-0.671,0-0.698,0.028-0.698,0.449v1.975c0,1.47,0.069,1.665,0.853,1.75l0.405,0.042c0.085,0.055,0.058,0.308-0.025,0.352
		c-0.756-0.03-1.232-0.044-1.781-0.044c-0.601,0-1.078,0.027-1.624,0.044c-0.083-0.044-0.113-0.268-0.027-0.352l0.238-0.042
		c0.784-0.14,0.812-0.28,0.812-1.75v-5.042c0-1.471-0.1-1.709-0.826-1.765l-0.366-0.03c-0.083-0.056-0.055-0.306,0.029-0.35
		c0.686,0.014,1.163,0.044,1.763,0.044c0.549,0,1.024-0.014,1.626-0.044c0.083,0.044,0.11,0.294,0.027,0.35l-0.266,0.03
		c-0.812,0.083-0.839,0.294-0.839,1.765v1.61c0,0.434,0.027,0.449,0.698,0.449h4.005c0.673,0,0.701-0.015,0.701-0.449v-1.61
		c0-1.471-0.027-1.681-0.853-1.765l-0.267-0.03c-0.085-0.056-0.057-0.306,0.028-0.35c0.645,0.03,1.119,0.044,1.695,0.044
		c0.546,0,1.021-0.014,1.651-0.044c0.085,0.044,0.111,0.294,0.027,0.35l-0.293,0.03c-0.812,0.083-0.839,0.294-0.839,1.765v5.042
		c0,1.47,0.028,1.651,0.839,1.75l0.335,0.042c0.086,0.055,0.056,0.308-0.027,0.352c-0.673-0.03-1.147-0.044-1.693-0.044
		c-0.576,0-1.08,0.014-1.695,0.044c-0.085-0.044-0.113-0.268-0.028-0.352l0.267-0.042c0.853-0.113,0.826-0.28,0.853-1.75v-1.975
		c0-0.421-0.027-0.449-0.701-0.449H125.126z"/>
	<path fill="#003E7E" d="M137.368,29.533c0-1.458-0.028-1.668-0.854-1.765l-0.224-0.028c-0.083-0.055-0.056-0.307,0.027-0.349
		c0.604,0.028,1.079,0.042,1.653,0.042h2.632c0.897,0,1.723,0,1.89-0.042c0.085,0.238,0.168,1.246,0.224,1.861
		c-0.055,0.083-0.28,0.114-0.349,0.029c-0.21-0.66-0.335-1.15-1.064-1.331c-0.296-0.069-0.743-0.085-1.36-0.085h-1.008
		c-0.418,0-0.418,0.03-0.418,0.562v2.801c0,0.393,0.039,0.393,0.46,0.393h0.813c0.588,0,1.022-0.03,1.189-0.085
		c0.168-0.056,0.267-0.139,0.337-0.491l0.111-0.574c0.072-0.083,0.308-0.083,0.365,0.015c0,0.335-0.057,0.881-0.057,1.416
		c0,0.503,0.057,1.035,0.057,1.343c-0.057,0.098-0.293,0.098-0.365,0.015l-0.125-0.545c-0.057-0.253-0.155-0.464-0.434-0.532
		c-0.197-0.058-0.532-0.07-1.079-0.07h-0.813c-0.421,0-0.46,0.012-0.46,0.377v1.975c0,0.743,0.039,1.218,0.265,1.457
		c0.167,0.167,0.462,0.322,1.695,0.322c1.076,0,1.483-0.055,1.792-0.21c0.25-0.14,0.63-0.629,0.995-1.358
		c0.098-0.07,0.294-0.028,0.35,0.097c-0.097,0.49-0.447,1.568-0.629,1.947c-1.261-0.027-2.507-0.042-3.753-0.042h-1.261
		c-0.603,0-1.08,0.015-1.905,0.042c-0.085-0.042-0.111-0.266-0.029-0.349l0.464-0.043c0.797-0.07,0.868-0.28,0.868-1.75V29.533z"/>
	<path fill="none" stroke="#003E7E" stroke-width="0.143" stroke-miterlimit="3.864" d="M137.368,29.533
		c0-1.458-0.028-1.668-0.854-1.765l-0.224-0.028c-0.083-0.055-0.056-0.307,0.027-0.349c0.604,0.028,1.079,0.042,1.653,0.042h2.632
		c0.897,0,1.723,0,1.89-0.042c0.085,0.238,0.168,1.246,0.224,1.861c-0.055,0.083-0.28,0.114-0.349,0.029
		c-0.21-0.66-0.335-1.15-1.064-1.331c-0.296-0.069-0.743-0.085-1.36-0.085h-1.008c-0.418,0-0.418,0.03-0.418,0.562v2.801
		c0,0.393,0.039,0.393,0.46,0.393h0.813c0.588,0,1.022-0.03,1.189-0.085c0.168-0.056,0.267-0.139,0.337-0.491l0.111-0.574
		c0.072-0.083,0.308-0.083,0.365,0.015c0,0.335-0.057,0.881-0.057,1.416c0,0.503,0.057,1.035,0.057,1.343
		c-0.057,0.098-0.293,0.098-0.365,0.015l-0.125-0.545c-0.057-0.253-0.155-0.464-0.434-0.532c-0.197-0.058-0.532-0.07-1.079-0.07
		h-0.813c-0.421,0-0.46,0.012-0.46,0.377v1.975c0,0.743,0.039,1.218,0.265,1.457c0.167,0.167,0.462,0.322,1.695,0.322
		c1.076,0,1.483-0.055,1.792-0.21c0.25-0.14,0.63-0.629,0.995-1.358c0.098-0.07,0.294-0.028,0.35,0.097
		c-0.097,0.49-0.447,1.568-0.629,1.947c-1.261-0.027-2.507-0.042-3.753-0.042h-1.261c-0.603,0-1.08,0.015-1.905,0.042
		c-0.085-0.042-0.111-0.266-0.029-0.349l0.464-0.043c0.797-0.07,0.868-0.28,0.868-1.75V29.533z"/>
	<path fill="#003E7E" d="M161.331,30.948c0-0.869-0.029-2.479-0.266-2.9c-0.101-0.167-0.353-0.265-0.701-0.293l-0.351-0.028
		c-0.083-0.097-0.056-0.28,0.029-0.335c0.531,0.028,1.051,0.042,1.597,0.042c0.585,0,0.965-0.014,1.469-0.042
		c0.113,0.07,0.097,0.25,0.027,0.335l-0.337,0.028c-0.349,0.028-0.628,0.155-0.7,0.335c-0.211,0.462-0.194,2.074-0.194,2.858v1.582
		c0,1.219-0.196,2.507-0.98,3.346c-0.603,0.659-1.64,1.024-2.673,1.024c-0.969,0-1.934-0.182-2.62-0.772
		c-0.743-0.614-1.093-1.636-1.093-3.304V29.52c0-1.458-0.027-1.695-0.841-1.765l-0.349-0.028c-0.085-0.055-0.055-0.293,0.027-0.335
		c0.701,0.028,1.178,0.042,1.736,0.042c0.574,0,1.037-0.014,1.721-0.042c0.085,0.042,0.115,0.28,0.031,0.335l-0.337,0.028
		c-0.812,0.07-0.841,0.307-0.841,1.765v3.025c0,2.254,0.702,3.739,2.843,3.739c2.029,0,2.803-1.595,2.803-3.725V30.948z"/>
	<path fill="none" stroke="#003E7E" stroke-width="0.143" stroke-miterlimit="3.864" d="M161.331,30.948
		c0-0.869-0.029-2.479-0.266-2.9c-0.101-0.167-0.353-0.265-0.701-0.293l-0.351-0.028c-0.083-0.097-0.056-0.28,0.029-0.335
		c0.531,0.028,1.051,0.042,1.597,0.042c0.585,0,0.965-0.014,1.469-0.042c0.113,0.07,0.097,0.25,0.027,0.335l-0.337,0.028
		c-0.349,0.028-0.628,0.155-0.7,0.335c-0.211,0.462-0.194,2.074-0.194,2.858v1.582c0,1.219-0.196,2.507-0.98,3.346
		c-0.603,0.659-1.64,1.024-2.673,1.024c-0.969,0-1.934-0.182-2.62-0.772c-0.743-0.614-1.093-1.636-1.093-3.304V29.52
		c0-1.458-0.027-1.695-0.841-1.765l-0.349-0.028c-0.085-0.055-0.055-0.293,0.027-0.335c0.701,0.028,1.178,0.042,1.736,0.042
		c0.574,0,1.037-0.014,1.721-0.042c0.085,0.042,0.115,0.28,0.031,0.335l-0.337,0.028c-0.812,0.07-0.841,0.307-0.841,1.765v3.025
		c0,2.254,0.702,3.739,2.843,3.739c2.029,0,2.803-1.595,2.803-3.725V30.948z"/>
	<path fill="#003E7E" d="M175.431,34.295c0,0.421,0,2.088,0.042,2.452c-0.029,0.083-0.112,0.155-0.266,0.155
		c-0.168-0.24-0.576-0.731-1.792-2.117l-3.251-3.697c-0.378-0.436-1.33-1.582-1.626-1.89h-0.023
		c-0.059,0.167-0.074,0.49-0.074,0.909v3.053c0,0.659,0.027,2.479,0.256,2.899c0.097,0.155,0.363,0.238,0.711,0.266l0.436,0.042
		c0.082,0.112,0.068,0.279-0.029,0.351c-0.63-0.028-1.119-0.043-1.64-0.043c-0.587,0-0.963,0.015-1.456,0.043
		c-0.097-0.072-0.113-0.267-0.029-0.351l0.38-0.042c0.32-0.028,0.545-0.125,0.614-0.28c0.198-0.504,0.182-2.214,0.182-2.886v-4.047
		c0-0.391-0.012-0.686-0.306-1.008c-0.198-0.195-0.531-0.294-0.87-0.335l-0.234-0.028c-0.085-0.085-0.085-0.294,0.023-0.349
		c0.591,0.042,1.332,0.042,1.585,0.042c0.221,0,0.461-0.015,0.644-0.042c0.279,0.712,1.946,2.562,2.396,3.08l1.357,1.526
		c0.954,1.091,1.653,1.862,2.31,2.535h0.031c0.054-0.069,0.054-0.293,0.054-0.587v-2.997c0-0.659-0.014-2.479-0.278-2.901
		c-0.086-0.125-0.309-0.21-0.871-0.279l-0.238-0.028c-0.096-0.085-0.085-0.308,0.027-0.349c0.647,0.027,1.122,0.042,1.655,0.042
		c0.603,0,0.965-0.015,1.44-0.042c0.115,0.069,0.115,0.264,0.029,0.349l-0.195,0.028c-0.448,0.069-0.729,0.182-0.785,0.294
		c-0.237,0.503-0.209,2.24-0.209,2.886V34.295z"/>
	<path fill="none" stroke="#003E7E" stroke-width="0.143" stroke-miterlimit="3.864" d="M175.431,34.295
		c0,0.421,0,2.088,0.042,2.452c-0.029,0.083-0.112,0.155-0.266,0.155c-0.168-0.24-0.576-0.731-1.792-2.117l-3.251-3.697
		c-0.378-0.436-1.33-1.582-1.626-1.89h-0.023c-0.059,0.167-0.074,0.49-0.074,0.909v3.053c0,0.659,0.027,2.479,0.256,2.899
		c0.097,0.155,0.363,0.238,0.711,0.266l0.436,0.042c0.082,0.112,0.068,0.279-0.029,0.351c-0.63-0.028-1.119-0.043-1.64-0.043
		c-0.587,0-0.963,0.015-1.456,0.043c-0.097-0.072-0.113-0.267-0.029-0.351l0.38-0.042c0.32-0.028,0.545-0.125,0.614-0.28
		c0.198-0.504,0.182-2.214,0.182-2.886v-4.047c0-0.391-0.012-0.686-0.306-1.008c-0.198-0.195-0.531-0.294-0.87-0.335l-0.234-0.028
		c-0.085-0.085-0.085-0.294,0.023-0.349c0.591,0.042,1.332,0.042,1.585,0.042c0.221,0,0.461-0.015,0.644-0.042
		c0.279,0.712,1.946,2.562,2.396,3.08l1.357,1.526c0.954,1.091,1.653,1.862,2.31,2.535h0.031c0.054-0.069,0.054-0.293,0.054-0.587
		v-2.997c0-0.659-0.014-2.479-0.278-2.901c-0.086-0.125-0.309-0.21-0.871-0.279l-0.238-0.028c-0.096-0.085-0.085-0.308,0.027-0.349
		c0.647,0.027,1.122,0.042,1.655,0.042c0.603,0,0.965-0.015,1.44-0.042c0.115,0.069,0.115,0.264,0.029,0.349l-0.195,0.028
		c-0.448,0.069-0.729,0.182-0.785,0.294c-0.237,0.503-0.209,2.24-0.209,2.886V34.295z"/>
	<path fill="#003E7E" d="M181.663,29.562c0-1.485-0.03-1.723-0.855-1.793l-0.351-0.027c-0.082-0.057-0.052-0.309,0.029-0.35
		c0.7,0.028,1.177,0.042,1.766,0.042c0.557,0,1.037-0.014,1.735-0.042c0.085,0.042,0.112,0.293,0.027,0.35l-0.35,0.027
		c-0.826,0.07-0.856,0.308-0.856,1.793v4.985c0,1.484,0.03,1.681,0.856,1.778l0.35,0.041c0.085,0.057,0.058,0.309-0.027,0.352
		c-0.698-0.028-1.178-0.043-1.735-0.043c-0.589,0-1.066,0.015-1.766,0.043c-0.081-0.043-0.111-0.268-0.029-0.352l0.351-0.041
		c0.825-0.097,0.855-0.294,0.855-1.778V29.562z"/>
	<path fill="none" stroke="#003E7E" stroke-width="0.143" stroke-miterlimit="3.864" d="M181.663,29.562
		c0-1.485-0.03-1.723-0.855-1.793l-0.351-0.027c-0.082-0.057-0.052-0.309,0.029-0.35c0.7,0.028,1.177,0.042,1.766,0.042
		c0.557,0,1.037-0.014,1.735-0.042c0.085,0.042,0.112,0.293,0.027,0.35l-0.35,0.027c-0.826,0.07-0.856,0.308-0.856,1.793v4.985
		c0,1.484,0.03,1.681,0.856,1.778l0.35,0.041c0.085,0.057,0.058,0.309-0.027,0.352c-0.698-0.028-1.178-0.043-1.735-0.043
		c-0.589,0-1.066,0.015-1.766,0.043c-0.081-0.043-0.111-0.268-0.029-0.352l0.351-0.041c0.825-0.097,0.855-0.294,0.855-1.778V29.562z
		"/>
	<path fill="#003E7E" d="M188.805,28.918c-0.322-0.784-0.533-1.08-1.134-1.147l-0.253-0.03c-0.097-0.083-0.086-0.28,0.026-0.349
		c0.408,0.027,0.857,0.042,1.458,0.042c0.616,0,1.107-0.014,1.694-0.042c0.1,0.055,0.127,0.266,0.027,0.349l-0.209,0.03
		c-0.531,0.068-0.644,0.153-0.657,0.264c0.029,0.141,0.266,0.897,0.7,1.961c0.643,1.625,1.289,3.235,1.988,4.831
		c0.435-0.923,1.038-2.366,1.345-3.108c0.421-0.953,1.062-2.535,1.303-3.138c0.111-0.294,0.125-0.446,0.125-0.545
		c0-0.097-0.141-0.21-0.629-0.264l-0.252-0.03c-0.099-0.083-0.07-0.293,0.029-0.349c0.39,0.027,0.922,0.042,1.456,0.042
		c0.461,0,0.894-0.014,1.359-0.042c0.096,0.055,0.096,0.279,0.027,0.349l-0.42,0.03c-0.335,0.027-0.547,0.194-0.729,0.488
		c-0.392,0.659-0.936,1.794-1.566,3.221l-0.758,1.723c-0.56,1.288-1.219,2.914-1.456,3.656c-0.042,0.027-0.096,0.042-0.155,0.042
		c-0.07,0-0.14-0.014-0.209-0.042c-0.155-0.59-0.391-1.274-0.643-1.864L188.805,28.918z"/>
	<path fill="none" stroke="#003E7E" stroke-width="0.143" stroke-miterlimit="3.864" d="M188.805,28.918
		c-0.322-0.784-0.533-1.08-1.134-1.147l-0.253-0.03c-0.097-0.083-0.086-0.28,0.026-0.349c0.408,0.027,0.857,0.042,1.458,0.042
		c0.616,0,1.107-0.014,1.694-0.042c0.1,0.055,0.127,0.266,0.027,0.349l-0.209,0.03c-0.531,0.068-0.644,0.153-0.657,0.264
		c0.029,0.141,0.266,0.897,0.7,1.961c0.643,1.625,1.289,3.235,1.988,4.831c0.435-0.923,1.038-2.366,1.345-3.108
		c0.421-0.953,1.062-2.535,1.303-3.138c0.111-0.294,0.125-0.446,0.125-0.545c0-0.097-0.141-0.21-0.629-0.264l-0.252-0.03
		c-0.099-0.083-0.07-0.293,0.029-0.349c0.39,0.027,0.922,0.042,1.456,0.042c0.461,0,0.894-0.014,1.359-0.042
		c0.096,0.055,0.096,0.279,0.027,0.349l-0.42,0.03c-0.335,0.027-0.547,0.194-0.729,0.488c-0.392,0.659-0.936,1.794-1.566,3.221
		l-0.758,1.723c-0.56,1.288-1.219,2.914-1.456,3.656c-0.042,0.027-0.096,0.042-0.155,0.042c-0.07,0-0.14-0.014-0.209-0.042
		c-0.155-0.59-0.391-1.274-0.643-1.864L188.805,28.918z"/>
	<path fill="#003E7E" d="M201.463,29.533c0-1.458-0.027-1.668-0.853-1.765l-0.225-0.028c-0.086-0.055-0.056-0.307,0.029-0.349
		c0.601,0.028,1.078,0.042,1.651,0.042h2.633c0.897,0,1.722,0,1.89-0.042c0.084,0.238,0.168,1.246,0.227,1.861
		c-0.059,0.083-0.28,0.114-0.353,0.029c-0.209-0.66-0.333-1.15-1.062-1.331c-0.296-0.069-0.742-0.085-1.36-0.085h-1.008
		c-0.417,0-0.417,0.03-0.417,0.562v2.801c0,0.393,0.038,0.393,0.461,0.393h0.814c0.584,0,1.021-0.03,1.188-0.085
		c0.168-0.056,0.265-0.139,0.337-0.491l0.111-0.574c0.072-0.083,0.309-0.083,0.365,0.015c0,0.335-0.056,0.881-0.056,1.416
		c0,0.503,0.056,1.035,0.056,1.343c-0.056,0.098-0.293,0.098-0.365,0.015l-0.125-0.545c-0.058-0.253-0.155-0.464-0.434-0.532
		c-0.197-0.058-0.533-0.07-1.077-0.07h-0.814c-0.423,0-0.461,0.012-0.461,0.377v1.975c0,0.743,0.038,1.218,0.267,1.457
		c0.167,0.167,0.459,0.322,1.694,0.322c1.078,0,1.48-0.055,1.791-0.21c0.252-0.14,0.63-0.629,0.996-1.358
		c0.097-0.07,0.293-0.028,0.349,0.097c-0.1,0.49-0.445,1.568-0.629,1.947c-1.26-0.027-2.506-0.042-3.754-0.042h-1.26
		c-0.603,0-1.077,0.015-1.903,0.042c-0.085-0.042-0.115-0.266-0.029-0.349l0.463-0.043c0.799-0.07,0.866-0.28,0.866-1.75V29.533z"/>
	<path fill="none" stroke="#003E7E" stroke-width="0.143" stroke-miterlimit="3.864" d="M201.463,29.533
		c0-1.458-0.027-1.668-0.853-1.765l-0.225-0.028c-0.086-0.055-0.056-0.307,0.029-0.349c0.601,0.028,1.078,0.042,1.651,0.042h2.633
		c0.897,0,1.722,0,1.89-0.042c0.084,0.238,0.168,1.246,0.227,1.861c-0.059,0.083-0.28,0.114-0.353,0.029
		c-0.209-0.66-0.333-1.15-1.062-1.331c-0.296-0.069-0.742-0.085-1.36-0.085h-1.008c-0.417,0-0.417,0.03-0.417,0.562v2.801
		c0,0.393,0.038,0.393,0.461,0.393h0.814c0.584,0,1.021-0.03,1.188-0.085c0.168-0.056,0.265-0.139,0.337-0.491l0.111-0.574
		c0.072-0.083,0.309-0.083,0.365,0.015c0,0.335-0.056,0.881-0.056,1.416c0,0.503,0.056,1.035,0.056,1.343
		c-0.056,0.098-0.293,0.098-0.365,0.015l-0.125-0.545c-0.058-0.253-0.155-0.464-0.434-0.532c-0.197-0.058-0.533-0.07-1.077-0.07
		h-0.814c-0.423,0-0.461,0.012-0.461,0.377v1.975c0,0.743,0.038,1.218,0.267,1.457c0.167,0.167,0.459,0.322,1.694,0.322
		c1.078,0,1.48-0.055,1.791-0.21c0.252-0.14,0.63-0.629,0.996-1.358c0.097-0.07,0.293-0.028,0.349,0.097
		c-0.1,0.49-0.445,1.568-0.629,1.947c-1.26-0.027-2.506-0.042-3.754-0.042h-1.26c-0.603,0-1.077,0.015-1.903,0.042
		c-0.085-0.042-0.115-0.266-0.029-0.349l0.463-0.043c0.799-0.07,0.866-0.28,0.866-1.75V29.533z"/>
	<path fill="#003E7E" d="M212.444,29.547c0-1.33-0.041-1.568-0.614-1.637l-0.452-0.058c-0.097-0.069-0.097-0.294,0.015-0.349
		c0.783-0.07,1.751-0.111,3.125-0.111c0.867,0,1.695,0.07,2.337,0.418c0.673,0.352,1.164,0.981,1.164,1.962
		c0,1.33-1.05,2.058-1.753,2.339c-0.069,0.083,0,0.223,0.07,0.335c1.123,1.806,1.863,2.925,2.818,3.725
		c0.236,0.211,0.586,0.363,0.965,0.391c0.07,0.029,0.082,0.141,0.012,0.197c-0.124,0.042-0.349,0.069-0.614,0.069
		c-1.192,0-1.903-0.349-2.897-1.764c-0.365-0.518-0.939-1.482-1.375-2.114c-0.211-0.308-0.434-0.448-0.994-0.448
		c-0.628,0-0.659,0.013-0.659,0.307v1.765c0,1.47,0.031,1.639,0.841,1.75l0.294,0.043c0.083,0.069,0.055,0.308-0.027,0.35
		c-0.631-0.028-1.108-0.042-1.666-0.042c-0.59,0-1.094,0.014-1.753,0.042c-0.085-0.042-0.112-0.252-0.026-0.35l0.349-0.043
		c0.813-0.097,0.841-0.28,0.841-1.75V29.547z M213.592,31.55c0,0.252,0,0.407,0.042,0.462c0.042,0.042,0.254,0.069,0.965,0.069
		c0.504,0,1.039-0.055,1.444-0.362c0.377-0.293,0.7-0.784,0.7-1.736c0-1.106-0.686-2.158-2.24-2.158
		c-0.869,0-0.911,0.057-0.911,0.448V31.55z"/>
	<path fill="none" stroke="#003E7E" stroke-width="0.143" stroke-miterlimit="3.864" d="M212.444,29.547
		c0-1.33-0.041-1.568-0.614-1.637l-0.452-0.058c-0.097-0.069-0.097-0.294,0.015-0.349c0.783-0.07,1.751-0.111,3.125-0.111
		c0.867,0,1.695,0.07,2.337,0.418c0.673,0.352,1.164,0.981,1.164,1.962c0,1.33-1.05,2.058-1.753,2.339
		c-0.069,0.083,0,0.223,0.07,0.335c1.123,1.806,1.863,2.925,2.818,3.725c0.236,0.211,0.586,0.363,0.965,0.391
		c0.07,0.029,0.082,0.141,0.012,0.197c-0.124,0.042-0.349,0.069-0.614,0.069c-1.192,0-1.903-0.349-2.897-1.764
		c-0.365-0.518-0.939-1.482-1.375-2.114c-0.211-0.308-0.434-0.448-0.994-0.448c-0.628,0-0.659,0.013-0.659,0.307v1.765
		c0,1.47,0.031,1.639,0.841,1.75l0.294,0.043c0.083,0.069,0.055,0.308-0.027,0.35c-0.631-0.028-1.108-0.042-1.666-0.042
		c-0.59,0-1.094,0.014-1.753,0.042c-0.085-0.042-0.112-0.252-0.026-0.35l0.349-0.043c0.813-0.097,0.841-0.28,0.841-1.75V29.547z
		 M213.592,31.55c0,0.252,0,0.407,0.042,0.462c0.042,0.042,0.254,0.069,0.965,0.069c0.504,0,1.039-0.055,1.444-0.362
		c0.377-0.293,0.7-0.784,0.7-1.736c0-1.106-0.686-2.158-2.24-2.158c-0.869,0-0.911,0.057-0.911,0.448V31.55z"/>
	<path fill="#003E7E" d="M225.622,36.9c-1.177,0-1.921-0.365-2.185-0.518c-0.17-0.31-0.351-1.302-0.378-1.961
		c0.068-0.097,0.277-0.127,0.336-0.043c0.209,0.715,0.783,2.088,2.407,2.088c1.177,0,1.75-0.771,1.75-1.61
		c0-0.617-0.126-1.301-1.146-1.96l-1.33-0.87c-0.704-0.463-1.512-1.261-1.512-2.408c0-1.332,1.037-2.409,2.855-2.409
		c0.434,0,0.938,0.069,1.302,0.182c0.182,0.043,0.377,0.083,0.49,0.083c0.125,0.339,0.252,1.121,0.252,1.709
		c-0.056,0.083-0.279,0.127-0.349,0.042c-0.185-0.67-0.562-1.582-1.906-1.582c-1.372,0-1.666,0.911-1.666,1.553
		c0,0.812,0.673,1.388,1.19,1.724l1.12,0.701c0.883,0.545,1.752,1.357,1.752,2.689C228.605,35.848,227.442,36.9,225.622,36.9"/>
	<path fill="none" stroke="#003E7E" stroke-width="0.143" stroke-miterlimit="3.864" d="M225.622,36.9
		c-1.177,0-1.921-0.365-2.185-0.518c-0.17-0.31-0.351-1.302-0.378-1.961c0.068-0.097,0.277-0.127,0.336-0.043
		c0.209,0.715,0.783,2.088,2.407,2.088c1.177,0,1.75-0.771,1.75-1.61c0-0.617-0.126-1.301-1.146-1.96l-1.33-0.87
		c-0.704-0.463-1.512-1.261-1.512-2.408c0-1.332,1.037-2.409,2.855-2.409c0.434,0,0.938,0.069,1.302,0.182
		c0.182,0.043,0.377,0.083,0.49,0.083c0.125,0.339,0.252,1.121,0.252,1.709c-0.056,0.083-0.279,0.127-0.349,0.042
		c-0.185-0.67-0.562-1.582-1.906-1.582c-1.372,0-1.666,0.911-1.666,1.553c0,0.812,0.673,1.388,1.19,1.724l1.12,0.701
		c0.883,0.545,1.752,1.357,1.752,2.689C228.605,35.848,227.442,36.9,225.622,36.9z"/>
	<path fill="#003E7E" d="M233.926,29.562c0-1.485-0.027-1.723-0.853-1.793l-0.351-0.027c-0.086-0.057-0.057-0.309,0.027-0.35
		c0.7,0.028,1.176,0.042,1.767,0.042c0.557,0,1.035-0.014,1.737-0.042c0.081,0.042,0.107,0.293,0.027,0.35l-0.354,0.027
		c-0.825,0.07-0.854,0.308-0.854,1.793v4.985c0,1.484,0.029,1.681,0.854,1.778l0.354,0.041c0.08,0.057,0.054,0.309-0.027,0.352
		c-0.702-0.028-1.181-0.043-1.737-0.043c-0.591,0-1.066,0.015-1.767,0.043c-0.084-0.043-0.113-0.268-0.027-0.352l0.351-0.041
		c0.825-0.097,0.853-0.294,0.853-1.778V29.562z"/>
	<path fill="none" stroke="#003E7E" stroke-width="0.143" stroke-miterlimit="3.864" d="M233.926,29.562
		c0-1.485-0.027-1.723-0.853-1.793l-0.351-0.027c-0.086-0.057-0.057-0.309,0.027-0.35c0.7,0.028,1.176,0.042,1.767,0.042
		c0.557,0,1.035-0.014,1.737-0.042c0.081,0.042,0.107,0.293,0.027,0.35l-0.354,0.027c-0.825,0.07-0.854,0.308-0.854,1.793v4.985
		c0,1.484,0.029,1.681,0.854,1.778l0.354,0.041c0.08,0.057,0.054,0.309-0.027,0.352c-0.702-0.028-1.181-0.043-1.737-0.043
		c-0.591,0-1.066,0.015-1.767,0.043c-0.084-0.043-0.113-0.268-0.027-0.352l0.351-0.041c0.825-0.097,0.853-0.294,0.853-1.778V29.562z
		"/>
	<path fill="#003E7E" d="M244.82,34.575c0,1.47,0.027,1.667,0.842,1.75l0.45,0.043c0.082,0.056,0.055,0.308-0.027,0.35
		c-0.801-0.028-1.276-0.042-1.838-0.042c-0.559,0-1.051,0.014-1.944,0.042c-0.085-0.042-0.114-0.28,0-0.35l0.504-0.043
		c0.797-0.07,0.866-0.28,0.866-1.75v-6.26c0-0.433,0-0.448-0.419-0.448h-0.771c-0.6,0-1.371,0.029-1.72,0.351
		c-0.337,0.307-0.478,0.615-0.633,0.966c-0.11,0.083-0.308,0.015-0.364-0.098c0.227-0.629,0.434-1.527,0.531-2.086
		c0.043-0.028,0.225-0.042,0.27,0c0.084,0.448,0.545,0.434,1.188,0.434h5.674c0.756,0,0.881-0.028,1.091-0.393
		c0.072-0.028,0.225-0.014,0.252,0.042c-0.154,0.575-0.252,1.708-0.209,2.129c-0.057,0.111-0.294,0.111-0.364,0.028
		c-0.043-0.35-0.14-0.867-0.351-1.022c-0.322-0.239-0.854-0.351-1.625-0.351h-0.994c-0.419,0-0.407,0.016-0.407,0.476V34.575z"/>
	<path fill="none" stroke="#003E7E" stroke-width="0.143" stroke-miterlimit="3.864" d="M244.82,34.575
		c0,1.47,0.027,1.667,0.842,1.75l0.45,0.043c0.082,0.056,0.055,0.308-0.027,0.35c-0.801-0.028-1.276-0.042-1.838-0.042
		c-0.559,0-1.051,0.014-1.944,0.042c-0.085-0.042-0.114-0.28,0-0.35l0.504-0.043c0.797-0.07,0.866-0.28,0.866-1.75v-6.26
		c0-0.433,0-0.448-0.419-0.448h-0.771c-0.6,0-1.371,0.029-1.72,0.351c-0.337,0.307-0.478,0.615-0.633,0.966
		c-0.11,0.083-0.308,0.015-0.364-0.098c0.227-0.629,0.434-1.527,0.531-2.086c0.043-0.028,0.225-0.042,0.27,0
		c0.084,0.448,0.545,0.434,1.188,0.434h5.674c0.756,0,0.881-0.028,1.091-0.393c0.072-0.028,0.225-0.014,0.252,0.042
		c-0.154,0.575-0.252,1.708-0.209,2.129c-0.057,0.111-0.294,0.111-0.364,0.028c-0.043-0.35-0.14-0.867-0.351-1.022
		c-0.322-0.239-0.854-0.351-1.625-0.351h-0.994c-0.419,0-0.407,0.016-0.407,0.476V34.575z"/>
	<path fill="#003E7E" d="M256.587,34.547c0,1.498,0.084,1.723,0.84,1.778l0.532,0.043c0.083,0.083,0.054,0.307-0.027,0.349
		c-0.871-0.027-1.345-0.042-1.907-0.042c-0.586,0-1.089,0.015-1.834,0.042c-0.082-0.042-0.11-0.266-0.029-0.349l0.437-0.043
		c0.812-0.083,0.841-0.28,0.841-1.778v-0.715c0-0.77-0.043-0.952-0.45-1.734l-1.652-3.222c-0.476-0.925-0.687-0.994-1.105-1.066
		l-0.391-0.07c-0.086-0.097-0.072-0.293,0.028-0.349c0.446,0.028,0.95,0.042,1.622,0.042c0.644,0,1.149-0.014,1.498-0.042
		c0.128,0.042,0.128,0.266,0.044,0.349l-0.183,0.028c-0.489,0.085-0.59,0.141-0.59,0.252c0,0.141,0.365,0.939,0.435,1.08
		c0.52,1.034,1.037,2.142,1.582,3.108c0.436-0.743,0.898-1.554,1.317-2.366c0.392-0.729,0.911-1.681,0.911-1.851
		c0-0.083-0.256-0.182-0.59-0.224l-0.252-0.028c-0.097-0.097-0.085-0.293,0.03-0.349c0.504,0.028,0.908,0.042,1.343,0.042
		c0.434,0,0.826-0.014,1.303-0.042c0.111,0.07,0.127,0.266,0.027,0.349l-0.392,0.07c-0.729,0.114-1.148,1.008-1.85,2.213
		l-0.879,1.526c-0.634,1.051-0.659,1.191-0.659,2.269V34.547z"/>
	<path fill="none" stroke="#003E7E" stroke-width="0.143" stroke-miterlimit="3.864" d="M256.587,34.547
		c0,1.498,0.084,1.723,0.84,1.778l0.532,0.043c0.083,0.083,0.054,0.307-0.027,0.349c-0.871-0.027-1.345-0.042-1.907-0.042
		c-0.586,0-1.089,0.015-1.834,0.042c-0.082-0.042-0.11-0.266-0.029-0.349l0.437-0.043c0.812-0.083,0.841-0.28,0.841-1.778v-0.715
		c0-0.77-0.043-0.952-0.45-1.734l-1.652-3.222c-0.476-0.925-0.687-0.994-1.105-1.066l-0.391-0.07
		c-0.086-0.097-0.072-0.293,0.028-0.349c0.446,0.028,0.95,0.042,1.622,0.042c0.644,0,1.149-0.014,1.498-0.042
		c0.128,0.042,0.128,0.266,0.044,0.349l-0.183,0.028c-0.489,0.085-0.59,0.141-0.59,0.252c0,0.141,0.365,0.939,0.435,1.08
		c0.52,1.034,1.037,2.142,1.582,3.108c0.436-0.743,0.898-1.554,1.317-2.366c0.392-0.729,0.911-1.681,0.911-1.851
		c0-0.083-0.256-0.182-0.59-0.224l-0.252-0.028c-0.097-0.097-0.085-0.293,0.03-0.349c0.504,0.028,0.908,0.042,1.343,0.042
		c0.434,0,0.826-0.014,1.303-0.042c0.111,0.07,0.127,0.266,0.027,0.349l-0.392,0.07c-0.729,0.114-1.148,1.008-1.85,2.213
		l-0.879,1.526c-0.634,1.051-0.659,1.191-0.659,2.269V34.547z"/>
	<path fill="#003E7E" d="M269.666,32.151c0-2.801,2.101-4.942,4.983-4.942c3.237,0,4.862,2.338,4.862,4.804
		c0,2.828-2.159,4.888-4.862,4.888C271.542,36.9,269.666,34.673,269.666,32.151 M278.11,32.447c0-2.312-1.021-4.805-3.696-4.805
		c-1.458,0-3.349,0.996-3.349,4.062c0,2.072,1.009,4.761,3.768,4.761C276.516,36.465,278.11,35.206,278.11,32.447"/>
	<path fill="none" stroke="#003E7E" stroke-width="0.143" stroke-miterlimit="3.864" d="M269.666,32.151
		c0-2.801,2.101-4.942,4.983-4.942c3.237,0,4.862,2.338,4.862,4.804c0,2.828-2.159,4.888-4.862,4.888
		C271.542,36.9,269.666,34.673,269.666,32.151z M278.11,32.447c0-2.312-1.021-4.805-3.696-4.805c-1.458,0-3.349,0.996-3.349,4.062
		c0,2.072,1.009,4.761,3.768,4.761C276.516,36.465,278.11,35.206,278.11,32.447z"/>
	<path fill="#003E7E" d="M285.896,31.382c0,0.379,0.042,0.379,0.462,0.379h0.953c0.574,0,1.022-0.03,1.189-0.085
		c0.154-0.057,0.266-0.125,0.352-0.491l0.126-0.56c0.069-0.083,0.307-0.083,0.362,0c0,0.337-0.056,0.897-0.056,1.415
		c0,0.505,0.056,1.038,0.056,1.358c-0.056,0.083-0.266,0.083-0.362,0l-0.142-0.545c-0.057-0.252-0.182-0.449-0.448-0.532
		c-0.195-0.056-0.547-0.069-1.077-0.069h-0.953c-0.42,0-0.462,0.013-0.462,0.377v1.947c0,1.47,0.027,1.679,0.853,1.75l0.478,0.042
		c0.085,0.055,0.056,0.308-0.027,0.35c-0.826-0.028-1.303-0.042-1.861-0.042c-0.618,0-1.094,0.014-1.752,0.042
		c-0.085-0.042-0.112-0.267-0.03-0.35l0.351-0.042c0.813-0.099,0.843-0.28,0.843-1.75v-5.043c0-1.469-0.029-1.665-0.843-1.763
		l-0.224-0.03c-0.086-0.056-0.056-0.307,0.029-0.35c0.587,0.03,1.064,0.042,1.626,0.042h2.574c0.896,0,1.709,0,1.892-0.042
		c0,0.646,0.013,1.316,0.041,1.849c-0.041,0.085-0.237,0.127-0.335,0.043c-0.113-0.631-0.279-1.136-0.981-1.332
		c-0.307-0.07-0.77-0.083-1.356-0.083h-0.856c-0.419,0-0.419,0.027-0.419,0.559V31.382z"/>
	<path fill="none" stroke="#003E7E" stroke-width="0.143" stroke-miterlimit="3.864" d="M285.896,31.382
		c0,0.379,0.042,0.379,0.462,0.379h0.953c0.574,0,1.022-0.03,1.189-0.085c0.154-0.057,0.266-0.125,0.352-0.491l0.126-0.56
		c0.069-0.083,0.307-0.083,0.362,0c0,0.337-0.056,0.897-0.056,1.415c0,0.505,0.056,1.038,0.056,1.358
		c-0.056,0.083-0.266,0.083-0.362,0l-0.142-0.545c-0.057-0.252-0.182-0.449-0.448-0.532c-0.195-0.056-0.547-0.069-1.077-0.069
		h-0.953c-0.42,0-0.462,0.013-0.462,0.377v1.947c0,1.47,0.027,1.679,0.853,1.75l0.478,0.042c0.085,0.055,0.056,0.308-0.027,0.35
		c-0.826-0.028-1.303-0.042-1.861-0.042c-0.618,0-1.094,0.014-1.752,0.042c-0.085-0.042-0.112-0.267-0.03-0.35l0.351-0.042
		c0.813-0.099,0.843-0.28,0.843-1.75v-5.043c0-1.469-0.029-1.665-0.843-1.763l-0.224-0.03c-0.086-0.056-0.056-0.307,0.029-0.35
		c0.587,0.03,1.064,0.042,1.626,0.042h2.574c0.896,0,1.709,0,1.892-0.042c0,0.646,0.013,1.316,0.041,1.849
		c-0.041,0.085-0.237,0.127-0.335,0.043c-0.113-0.631-0.279-1.136-0.981-1.332c-0.307-0.07-0.77-0.083-1.356-0.083h-0.856
		c-0.419,0-0.419,0.027-0.419,0.559V31.382z"/>
	<path fill="#FFD200" d="M53.133,29.718c-0.437,0.015-1.077,0.108-1.921,0.282c-0.844,0.172-1.53,0.428-2.062,0.771
		c-0.53,0.359-0.897,1.102-1.102,2.225c-0.203,1.125-0.303,2.499-0.303,4.125v14.453c0,1.844-0.384,3.444-1.147,4.803
		c-0.767,1.358-1.774,2.477-3.023,3.349c-1.235,0.845-2.535,1.45-3.902,1.816c-1.368,0.367-2.675,0.551-3.926,0.551
		c-1.998,0-3.78-0.261-5.341-0.785c-1.562-0.521-2.875-1.229-3.938-2.121c-1.045-0.89-1.835-1.908-2.366-3.057
		c-0.532-1.146-0.797-2.345-0.797-3.595V32.878c0-0.545-0.092-1.002-0.272-1.369c-0.182-0.367-0.549-0.707-1.104-1.021
		c-0.395-0.218-0.901-0.393-1.518-0.525c-0.617-0.134-1.124-0.214-1.519-0.246v-1.656h13.832v1.656
		c-0.432,0.015-0.978,0.085-1.637,0.21c-0.657,0.125-1.141,0.244-1.45,0.351c-0.526,0.188-0.88,0.5-1.057,0.937
		c-0.178,0.439-0.268,0.915-0.268,1.429v18.361c0,0.891,0.097,1.824,0.294,2.798c0.197,0.977,0.583,1.886,1.165,2.729
		c0.612,0.86,1.441,1.563,2.491,2.108c1.051,0.544,2.493,0.82,4.329,0.82c1.723,0,3.167-0.276,4.337-0.82
		c1.168-0.544,2.088-1.264,2.763-2.153c0.643-0.844,1.097-1.727,1.363-2.648c0.268-0.92,0.4-1.85,0.4-2.786V37.422
		c0-1.733-0.125-3.15-0.373-4.25c-0.25-1.101-0.615-1.824-1.097-2.167c-0.544-0.39-1.286-0.695-2.228-0.913
		c-0.94-0.219-1.661-0.343-2.157-0.375v-1.656h13.534V29.718z"/>
	<path fill="#FFD200" d="M83.905,44.492h-1.57c-0.14-0.55-0.39-1.206-0.75-1.961c-0.36-0.758-0.763-1.472-1.21-2.146
		c-0.46-0.703-0.962-1.32-1.508-1.847c-0.545-0.528-1.071-0.828-1.578-0.905c-0.477-0.062-1.076-0.108-1.797-0.14
		c-0.722-0.029-1.392-0.045-2.004-0.045h-1.337V63.5c0,0.504,0.106,0.969,0.32,1.388c0.212,0.423,0.587,0.744,1.121,0.975
		c0.274,0.107,0.85,0.254,1.729,0.436c0.877,0.185,1.561,0.283,2.049,0.299v1.613H62.011v-1.613
		c0.428-0.029,1.083-0.091,1.965-0.184c0.879-0.091,1.491-0.208,1.826-0.343c0.506-0.198,0.877-0.484,1.116-0.86
		c0.235-0.374,0.355-0.876,0.355-1.504V37.447h-1.33c-0.476,0-1.064,0.013-1.769,0.036c-0.703,0.022-1.375,0.072-2.018,0.149
		c-0.505,0.059-1.028,0.363-1.572,0.905c-0.542,0.543-1.044,1.159-1.503,1.847c-0.458,0.689-0.865,1.419-1.216,2.191
		c-0.352,0.772-0.596,1.411-0.733,1.916h-1.613v-8.827h28.387V44.492z"/>
	<path fill="#003E7E" d="M188.344,83.879c0-0.929-0.039-1.227-0.655-1.279l-0.651-0.058c-0.112-0.054-0.124-0.244-0.015-0.301
		c1.146-0.204,1.896-0.556,2.248-0.789c0.056,0,0.112,0.027,0.138,0.066c-0.026,0.248-0.056,0.926-0.056,1.706v5.293
		c0,1.051,0.03,1.281,0.589,1.324l0.573,0.039c0.082,0.085,0.066,0.3-0.029,0.341c-0.533-0.027-1.146-0.041-1.623-0.041
		c-0.492,0-1.104,0.014-1.635,0.041c-0.097-0.041-0.108-0.256-0.027-0.341l0.558-0.039c0.572-0.042,0.585-0.273,0.585-1.324V83.879z
		"/>
	<path fill="none" stroke="#003E7E" stroke-width="0.143" stroke-miterlimit="3.864" d="M188.344,83.879
		c0-0.929-0.039-1.227-0.655-1.279l-0.651-0.058c-0.112-0.054-0.124-0.244-0.015-0.301c1.146-0.204,1.896-0.556,2.248-0.789
		c0.056,0,0.112,0.027,0.138,0.066c-0.026,0.248-0.056,0.926-0.056,1.706v5.293c0,1.051,0.03,1.281,0.589,1.324l0.573,0.039
		c0.082,0.085,0.066,0.3-0.029,0.341c-0.533-0.027-1.146-0.041-1.623-0.041c-0.492,0-1.104,0.014-1.635,0.041
		c-0.097-0.041-0.108-0.256-0.027-0.341l0.558-0.039c0.572-0.042,0.585-0.273,0.585-1.324V83.879z"/>
	<path fill="#003E7E" d="M198.791,83.441c0,1.12-0.926,1.68-1.608,2.074c0.942,0.533,1.801,1.24,1.801,2.566
		c0,1.417-1.132,2.291-2.673,2.291c-1.27,0-2.578-0.614-2.578-2.21c0-1.159,0.94-1.923,1.841-2.361
		c-0.792-0.434-1.541-1.089-1.556-2.142c-0.014-1.39,1.119-2.208,2.51-2.208C197.742,81.453,198.791,82.135,198.791,83.441
		 M197.973,88.31c0-1.074-1.023-1.826-2.016-2.275c-0.93,0.479-1.244,1.349-1.244,2.072c0,1.01,0.67,1.859,1.678,1.859
		C197.361,89.965,197.973,89.307,197.973,88.31 M195,83.375c0,0.94,0.929,1.514,1.788,1.937c0.627-0.394,1.093-1.01,1.093-1.842
		s-0.573-1.611-1.448-1.611C195.492,81.859,195,82.584,195,83.375"/>
	<path fill="none" stroke="#003E7E" stroke-width="0.143" stroke-miterlimit="3.864" d="M198.791,83.441
		c0,1.12-0.926,1.68-1.608,2.074c0.942,0.533,1.801,1.24,1.801,2.566c0,1.417-1.132,2.291-2.673,2.291
		c-1.27,0-2.578-0.614-2.578-2.21c0-1.159,0.94-1.923,1.841-2.361c-0.792-0.434-1.541-1.089-1.556-2.142
		c-0.014-1.39,1.119-2.208,2.51-2.208C197.742,81.453,198.791,82.135,198.791,83.441z M197.973,88.31
		c0-1.074-1.023-1.826-2.016-2.275c-0.93,0.479-1.244,1.349-1.244,2.072c0,1.01,0.67,1.859,1.678,1.859
		C197.361,89.965,197.973,89.307,197.973,88.31z M195,83.375c0,0.94,0.929,1.514,1.788,1.937c0.627-0.394,1.093-1.01,1.093-1.842
		s-0.573-1.611-1.448-1.611C195.492,81.859,195,82.584,195,83.375z"/>
	<path fill="#003E7E" d="M202.679,82.488c-0.765,0-1.062,0.042-1.458,0.696c-0.097,0.041-0.232,0.014-0.287-0.111
		c0.135-0.366,0.341-0.954,0.463-1.471c0.22,0.029,0.696,0.041,1.444,0.041h2.306c0.752,0,1.663,0,1.831-0.041
		c0.053,0.014,0.093,0.068,0.093,0.122c-0.382,0.585-0.778,1.311-1.282,2.334l-3.479,6.996c-0.217,0.029-0.423-0.08-0.462-0.258
		l3.859-7.804c0.203-0.407,0.137-0.503-0.301-0.503H202.679z"/>
	<path fill="none" stroke="#003E7E" stroke-width="0.143" stroke-miterlimit="3.864" d="M202.679,82.488
		c-0.765,0-1.062,0.042-1.458,0.696c-0.097,0.041-0.232,0.014-0.287-0.111c0.135-0.366,0.341-0.954,0.463-1.471
		c0.22,0.029,0.696,0.041,1.444,0.041h2.306c0.752,0,1.663,0,1.831-0.041c0.053,0.014,0.093,0.068,0.093,0.122
		c-0.382,0.585-0.778,1.311-1.282,2.334l-3.479,6.996c-0.217,0.029-0.423-0.08-0.462-0.258l3.859-7.804
		c0.203-0.407,0.137-0.503-0.301-0.503H202.679z"/>
	<path fill="#003E7E" d="M212.445,89.337c0.626,0,1.037-0.085,1.282-0.302c0.26-0.233,0.356-0.409,0.438-0.558
		c0.094-0.041,0.245,0,0.298,0.081c-0.176,0.683-0.422,1.392-0.628,1.663c-0.558-0.027-1.129-0.041-1.76-0.041h-1.977
		c-0.761,0-1.213,0.014-1.512,0.041c-0.027-0.013-0.094-0.066-0.094-0.174c0-0.043,0.067-0.097,0.149-0.155
		c0.628-0.407,1.077-0.87,2.085-1.961c0.901-0.969,1.95-2.291,1.95-3.749c0-1.244-0.601-1.995-1.704-1.995
		c-0.818,0-1.403,0.56-1.773,1.367c-0.122,0.066-0.326,0-0.326-0.178c0.436-1.202,1.513-1.923,2.74-1.923
		c1.363,0,2.251,0.911,2.251,2.221c0,0.845-0.397,1.775-1.459,3l-0.834,0.958c-1.103,1.294-1.241,1.498-1.241,1.582
		c0,0.093,0.07,0.124,0.423,0.124H212.445z"/>
	<path fill="none" stroke="#003E7E" stroke-width="0.143" stroke-miterlimit="3.864" d="M212.445,89.337
		c0.626,0,1.037-0.085,1.282-0.302c0.26-0.233,0.356-0.409,0.438-0.558c0.094-0.041,0.245,0,0.298,0.081
		c-0.176,0.683-0.422,1.392-0.628,1.663c-0.558-0.027-1.129-0.041-1.76-0.041h-1.977c-0.761,0-1.213,0.014-1.512,0.041
		c-0.027-0.013-0.094-0.066-0.094-0.174c0-0.043,0.067-0.097,0.149-0.155c0.628-0.407,1.077-0.87,2.085-1.961
		c0.901-0.969,1.95-2.291,1.95-3.749c0-1.244-0.601-1.995-1.704-1.995c-0.818,0-1.403,0.56-1.773,1.367
		c-0.122,0.066-0.326,0-0.326-0.178c0.436-1.202,1.513-1.923,2.74-1.923c1.363,0,2.251,0.911,2.251,2.221
		c0,0.845-0.397,1.775-1.459,3l-0.834,0.958c-1.103,1.294-1.241,1.498-1.241,1.582c0,0.093,0.07,0.124,0.423,0.124H212.445z"/>
</g>
</svg>
