<?xml version="1.0" encoding="UTF-8" standalone="no"?>
<!-- Generator: Adobe Illustrator 27.1.1, SVG Export Plug-In . SVG Version: 6.00 Build 0)  -->

<svg
   version="1.1"
   id="Capa_1"
   x="0px"
   y="0px"
   viewBox="0 0 271.9002 478.83268"
   xml:space="preserve"
   sodipodi:docname="Benemérita_Escuela_Nacional_de_Maestros.svg"
   width="271.90021"
   height="478.83267"
   inkscape:version="1.2.1 (9c6d41e410, 2022-07-14)"
   xmlns:inkscape="http://www.inkscape.org/namespaces/inkscape"
   xmlns:sodipodi="http://sodipodi.sourceforge.net/DTD/sodipodi-0.dtd"
   xmlns="http://www.w3.org/2000/svg"
   xmlns:svg="http://www.w3.org/2000/svg"><defs
   id="defs197" /><sodipodi:namedview
   id="namedview195"
   pagecolor="#ffffff"
   bordercolor="#666666"
   borderopacity="1.0"
   inkscape:showpageshadow="2"
   inkscape:pageopacity="0.0"
   inkscape:pagecheckerboard="0"
   inkscape:deskcolor="#d1d1d1"
   showgrid="false"
   inkscape:zoom="1.4496893"
   inkscape:cx="105.53986"
   inkscape:cy="154.51587"
   inkscape:window-width="1920"
   inkscape:window-height="1017"
   inkscape:window-x="-8"
   inkscape:window-y="410"
   inkscape:window-maximized="1"
   inkscape:current-layer="Capa_1" />
<style
   type="text/css"
   id="style2">
	.st0{fill:#FFFFFF;}
</style>
<g
   id="g168"
   transform="translate(-63.773987,-57.855556)">
	<path
   d="m 124.1,219.1 c 1.7,1.6 3.5,3.3 5.7,5.1 -0.2,-1.2 -0.4,-2 -0.5,-2.8 -0.3,-2.2 0.6,-4 2.5,-5 2.7,-1.5 5.7,-2.5 8.7,-2.9 3.9,-0.5 7.8,0.1 10.6,3.4 1.2,1.4 2.1,3 3.1,4.6 0.7,1.1 1.3,2.3 2,3.5 0.7,1.2 1.9,1.7 3.2,1.8 1.2,0.1 2.4,0.2 3.7,0.2 0.4,0 0.8,-0.1 1.1,-0.2 1,-0.3 1.9,-0.6 2.9,-0.8 2.2,-0.5 4.3,0.8 5.4,2.8 0.9,1.7 0.6,3.4 0,5 -0.5,1.2 -1.6,1.9 -2.7,2.4 -2.1,0.9 -4.2,1.4 -6.5,1.4 -2,-0.1 -4,0 -6.1,0 -1.8,0 -3.4,-0.4 -5,-1.1 -2.9,-1.3 -4.9,-3.5 -6.4,-6.2 -0.8,-1.4 -1.5,-2.9 -2.2,-4.3 -0.4,-0.8 -1,-1.1 -1.7,-1.1 -0.8,0 -1.7,0.1 -2.4,0.3 -0.8,0.2 -1.6,0.6 -2.4,0.9 -0.8,0.3 -1.7,0.6 -2.6,0.2 -0.4,-0.1 -0.8,0 -1.2,0.1 0,0.1 -0.1,0.2 -0.1,0.3 0.9,0.7 1.7,1.4 2.6,2.1 3.9,3.1 8.1,5.5 12.3,8.1 2.8,1.7 5.8,3.2 8.7,4.6 2.9,1.4 6,2.5 9,3.7 2.7,1 5.5,2 8.2,2.8 3.6,1 7.1,1.8 10.8,2.6 2.3,0.5 4.8,0.6 7.1,0.8 2.7,0.2 5.3,0.6 8,0.6 2.4,0 4.8,-0.3 7.2,-0.5 0.3,0 0.6,-0.1 0.8,-0.1 3.7,0 7.2,-0.7 10.8,-1.5 1.7,-0.4 3.4,-0.6 5.1,-1.1 4.8,-1.2 9.6,-2.7 14.1,-4.8 3.5,-1.6 7.1,-3.1 10.5,-4.9 3.1,-1.6 6.3,-3 8.9,-5.4 0.4,-0.4 0.8,-0.8 1.2,-1.4 -5.1,1.8 -10.1,1.8 -14.9,-0.3 -2.4,0.9 -3.3,2.8 -3.9,4.9 -0.9,3.5 -4.5,5.3 -7.8,3.9 -1.4,-0.6 -2.5,-1.4 -3.1,-2.9 -0.4,-1 -0.6,-2 -0.2,-3.1 0.6,-1.7 1,-3.5 1.9,-5 1.4,-2.5 3.1,-4.8 5.4,-6.6 3.4,-2.6 7.3,-2.8 11.3,-1.7 0.6,0.2 1.2,0.4 1.8,0.6 4.3,1.3 7.2,-0.7 9.2,-3.9 0.9,-1.4 1.6,-2.8 2.5,-4.2 1.5,-2.3 5.7,-3.8 8.3,-1.9 1.3,0.9 1.9,2 2.1,3.6 0.3,2.4 -0.8,4.2 -2,6.1 -1.2,2 -2.4,4 -4.1,5.7 -0.1,0.1 -0.1,0.2 -0.1,0.4 0.1,0 0.3,0.1 0.4,0.1 1.8,-1.3 3.7,-2.5 5.5,-3.8 1.6,-1.2 3.2,-2.6 4.8,-3.9 0.9,-0.8 1.1,-0.8 2,-0.1 1.8,1.7 3.6,3.4 5.4,5 0.4,0.3 0.7,0.7 1.1,1 1.5,1.2 3.1,2.2 4.5,3.5 4,3.8 8.5,6.9 12.8,10.3 1.5,1.2 3,2.5 4.6,3.6 3.6,2.5 7.2,5.1 11,7.3 4.1,2.4 7.8,5.2 11.4,8.2 3.5,3 5.7,6.7 6.6,11.1 0.5,2.3 1,4.6 0.4,7.1 -0.4,1.4 -0.1,3 -0.4,4.5 -0.6,3.8 -2.1,7.2 -5.1,9.7 -2.5,2.2 -5.2,4.2 -8.2,5.8 -0.7,0.4 -1.5,0.5 -2.2,0.8 -3.4,1.1 -7,1.6 -10.6,1.2 -2,-0.2 -3.7,-1.2 -5.2,-2.5 -3,-2.6 -4.8,-5.9 -5,-9.9 -0.2,-2.7 -0.4,-5.4 -0.1,-8 0.2,-2.5 0.5,-5.1 2.2,-7.1 1.5,-1.8 3.3,-3.2 5.8,-3.8 1.5,-0.3 2.9,-0.3 4.5,0 2.5,0.4 5.7,3.7 5.6,6.7 -0.1,2.4 -0.6,4.4 -2.5,5.9 -0.4,0.4 -0.8,0.8 -1.2,1.2 -0.4,0.6 -0.9,1.2 -1.2,1.8 -1,2.1 0.3,4 2.7,3.9 1.1,0 2,-0.4 2.8,-1.3 1.3,-1.3 2.5,-2.6 3.4,-4.3 1,-1.9 1.6,-3.9 1.4,-6.1 -0.2,-2.6 -1,-5.1 -2.2,-7.5 -1.2,-2.2 -3.3,-3.5 -5.6,-4.3 -1.6,-0.6 -3.3,-1 -5,-1.3 -0.7,-0.1 -1.5,0 -2.3,0.2 -2.8,0.6 -5.2,2 -7,4.1 -1.4,1.6 -2.3,3.7 -3.2,5.7 -1.5,3.4 -1.9,7.1 -2.4,10.8 -0.4,2.3 -0.8,4.6 -1.2,6.9 -0.4,2.5 -0.8,4.9 -1.2,7.4 -0.4,2.2 -0.6,4.5 -1.1,6.7 -0.8,3.4 -1.2,6.8 -1.8,10.1 -0.5,3.2 -1.1,6.4 -1.6,9.5 -0.5,3.1 -1,6.1 -1.5,9.2 0,0.2 0,0.5 -0.1,0.7 -1,1.8 -1,3.8 -1.3,5.8 -0.4,2.3 -0.9,4.7 -1.3,7 -0.3,1.8 -0.7,3.5 -0.9,5.2 -0.4,2.5 -0.7,5 -1.1,7.4 -0.5,3.1 -1.1,6.1 -1.6,9.2 -0.4,2 -0.8,3.9 -1.1,5.9 -0.1,0.4 -0.1,0.9 -0.1,1.3 0,2.2 -0.1,4.5 0,6.7 0.1,2 0.6,3.9 1,5.9 0.3,1.8 1,3.5 1.8,5.2 1.5,2.9 3.4,5.4 6.1,7.5 2.5,2 5.2,3.7 8.2,4.7 3.9,1.3 7.8,1.4 11.7,0.6 1,-0.2 1.8,-0.8 2.7,-1.3 3.4,-1.7 5.6,-4.5 7.6,-7.6 0.1,-0.2 0.2,-0.4 0.3,-0.6 1.6,-1.4 2,-3.3 2.6,-5.2 1.2,-3.9 0.9,-7.7 -1.2,-11.1 -1.6,-2.6 -3.8,-4.8 -6.4,-6.6 -1.2,-0.8 -2.5,-1 -3.8,-1.2 -2.8,-0.4 -5.5,0 -8,1.2 -1.4,0.6 -2.3,1.7 -3.3,2.8 -1.2,1.2 -2.4,2.5 -3.1,4.1 -0.6,1.5 -0.9,3 0,4.5 0.8,1.4 2.1,2.3 3.5,2.9 1.5,0.6 3,-0.2 3.2,-1.8 0.3,-1.7 1.1,-3 2.5,-4 1.5,-1.1 3.1,-1.8 4.9,-2 2.4,-0.2 5.3,1.9 6,4.3 0.7,2.2 0.3,4.3 -0.6,6.4 -2.1,4.8 -5.5,8.1 -10.8,9.2 -1.6,0.4 -3.1,0.2 -4.7,-0.1 -4.6,-1 -8.4,-3.4 -11.1,-7.2 -0.6,-0.8 -1,-1.8 -1.5,-2.6 -0.9,-1.7 -1.8,-3.4 -2,-5.4 -0.2,-2 -0.4,-4 0.1,-6 0.1,-0.5 0,-1.1 0.2,-1.6 1.2,-3.6 2.2,-7.4 4.2,-10.7 1.4,-2.2 3.5,-3.8 5.8,-4.9 3.2,-1.6 6.6,-2.6 10.3,-2.5 1.7,0.1 3.5,-0.1 5.2,-0.1 0.7,0 1.5,0.1 2.1,0.3 3.3,1.1 6.5,2.5 9.2,4.9 2.6,2.3 4.6,5.1 6.6,7.9 2.6,3.6 3.9,7.7 4.7,11.9 0.8,3.9 0.6,7.7 -0.1,11.6 -0.5,2.9 -1.5,5.5 -2.8,8 -0.7,1.5 -1.9,2.9 -2.9,4.3 -2.1,2.9 -4.4,5.5 -7.3,7.6 -3.8,2.7 -7.9,4.7 -12.4,5.5 -2.8,0.5 -5.7,0.7 -8.5,0.5 -4.1,-0.4 -8.1,-1.4 -11.8,-3.4 -1.7,-1 -3.6,-1.6 -5.4,-2.4 -0.8,-0.4 -1.4,-0.1 -1.5,0.7 -0.2,1.3 -0.3,2.5 -0.4,3.8 -0.3,3.8 1,7.1 2.5,10.5 0.7,1.6 1.5,3.1 2.2,4.7 0.5,1.1 0.4,2.2 -0.1,3.2 -0.5,0.9 -1.1,1.8 -1.8,2.6 -1.6,2 -3.4,3.9 -5.1,5.8 -0.9,1 -1.6,2.1 -2.6,2.9 -0.8,0.7 -1.5,1.4 -2.2,2.2 -1.5,1.7 -3.1,3.4 -4.7,5 -0.9,1 -2,1.2 -3.3,1 -1.9,-0.2 -3.2,-1.4 -4.7,-2.4 -0.6,-0.4 -1.1,-0.8 -1.7,-1.2 -5.2,2.3 -10.3,4.6 -15.6,6.9 -2.2,-1.7 -4.4,-3.3 -6.5,-5 -3.2,-2.6 -6.9,-3.9 -11.1,-4.3 -3.3,-0.3 -6.4,0.6 -9.5,1.4 -2.1,0.6 -4.3,1.1 -6.5,1.7 -2.5,0.7 -5,1.5 -7.5,2.3 -1.1,0.3 -2,0.3 -3.1,0 -3.9,-1.1 -7.8,-2.1 -11.6,-3.2 -1.6,-0.4 -3.1,-0.8 -4.7,-1.4 -2.1,-0.8 -4.3,-1 -6.6,-1 -2,0 -3.9,0.1 -5.8,0.8 -1.2,0.4 -2.3,1.1 -3.5,1.6 -3.1,1.4 -5.5,4 -8.1,6.1 -0.7,0.6 -1.4,0.8 -2.3,0.4 -3.7,-1.7 -7.4,-3.4 -11.1,-5 -1.1,-0.5 -2.2,-0.9 -3.4,-1.4 -0.9,0.6 -1.9,1.2 -2.9,1.8 -0.5,0.3 -1.1,0.6 -1.6,1 -1.8,1.1 -3.5,0.8 -5.2,0 -0.3,-0.2 -0.6,-0.5 -0.9,-0.8 -0.7,-0.8 -1.4,-1.6 -2.1,-2.4 -2,-2.4 -4.1,-4.8 -6.1,-7.1 -0.2,-0.3 -0.5,-0.6 -0.8,-0.9 -2.5,-1.9 -4.2,-4.5 -6.1,-6.9 -1.1,-1.3 -1.2,-2.7 -0.4,-4.2 1,-2 1.9,-4 2.9,-6 1.2,-2.7 1.8,-5.5 1.9,-8.5 0,-1.3 -0.2,-2.5 -0.4,-3.8 -0.1,-0.5 -0.5,-1 -0.8,-1.6 -1,0.4 -1.9,0.7 -2.7,1.1 -1.7,0.8 -3.3,1.9 -5.1,2.5 -2.4,0.9 -4.9,1.5 -7.4,2.1 -1.9,0.5 -3.9,0.5 -5.8,0.5 -4.5,-0.1 -8.7,-1.1 -12.8,-3 -2.3,-1.1 -4.3,-2.6 -6.3,-4.1 -5.2,-3.8 -8.3,-9 -10.4,-14.8 -1,-2.7 -1.5,-5.5 -1.5,-8.4 0,-0.6 0,-1.1 0,-1.7 -0.2,-4.3 0.8,-8.3 2.3,-12.3 1.5,-4 3.9,-7.5 6.7,-10.7 0.6,-0.7 1.5,-1.2 2.2,-1.8 2,-1.6 4.1,-3.2 6.5,-4.2 2.2,-0.9 4.4,-1.6 6.8,-1.6 1.9,0 3.8,-0.2 5.7,-0.1 4.2,0.3 8.2,1.3 11.3,4.4 0.6,0.6 1.4,1.1 2,1.8 0.8,1 1.5,2 2,3.1 1.4,3.6 2.7,7.2 2.9,11.1 0,0.3 0.2,0.5 0.2,0.8 0.1,1 0.3,2 0.2,3 -0.1,1 -0.4,2 -0.6,2.9 -0.6,3.3 -2,6.2 -4.2,8.6 -1.6,1.7 -3.6,3.1 -5.7,4 -1.1,0.5 -2.2,0.8 -3.3,1.2 -4.8,1.7 -8.8,0.1 -12.4,-3.2 -2.2,-1.9 -3.7,-4.1 -4.5,-6.9 -0.7,-2.4 -0.4,-4.7 1.2,-6.8 0.2,-0.3 0.6,-0.5 0.9,-0.7 1.1,-0.5 2.1,-1.1 3.2,-1.5 3.4,-1.1 6.6,0.4 7.7,3.9 0.4,1.4 1.3,2.3 2.3,3.1 1,0.8 2.5,0.6 3.4,-0.2 0.9,-0.9 1.6,-1.9 1.9,-3.1 0.2,-0.6 0.2,-1.4 0,-2 -0.9,-2.9 -2.4,-5.3 -4.6,-7.3 -1,-0.9 -2.3,-1.5 -3.5,-1.9 -3.2,-1.1 -6.3,-1.2 -9.5,-0.1 -1.5,0.5 -2.8,1.5 -3.8,2.6 -2.3,2.5 -4.4,5.2 -5,8.8 -0.2,1.6 -0.2,3 0.1,4.6 0.4,2 1.1,3.8 2,5.6 1.4,3.1 3.6,5.6 6.2,7.6 3.1,2.4 6.7,4 10.8,4.1 1.6,0 3.1,-0.2 4.7,-0.6 3.3,-0.8 6.4,-2.1 9.1,-4.2 4.4,-3.4 7.2,-7.9 8.6,-13.3 0.4,-1.4 0.7,-2.8 1,-4.2 0.6,-2.6 0.3,-5.2 0.3,-7.9 0,-1.3 0,-2.7 -0.4,-4 -0.5,-1.5 -0.8,-3 -1,-4.5 -0.6,-3.1 -1.1,-6.1 -1.6,-9.2 -0.3,-1.8 -0.8,-3.7 -1.1,-5.5 -0.3,-1.6 -0.5,-3.2 -0.8,-4.7 -0.4,-2.5 -0.8,-5 -1.2,-7.6 -0.4,-2.5 -0.8,-5.1 -1.2,-7.6 -0.4,-2.2 -0.8,-4.5 -1.2,-6.7 -0.1,-0.7 -0.2,-1.4 -0.4,-2.1 -0.6,-3.1 -1.1,-6.3 -1.7,-9.5 -0.1,-0.5 -0.1,-1.1 -0.2,-1.6 -1.2,-4.1 -1.7,-8.4 -2.5,-12.5 -0.4,-2.3 -0.7,-4.7 -1.2,-7.1 -0.7,-4 -1.4,-8 -2.2,-12.1 -0.4,-2.2 -0.8,-4.4 -1.1,-6.6 -0.5,-3.1 -1.9,-5.8 -3.7,-8.4 -0.2,-0.3 -0.5,-0.6 -0.8,-0.8 -1.1,-0.8 -2.3,-1.6 -3.5,-2.4 -2,-1.2 -4.2,-1.8 -6.6,-1.3 -1.8,0.4 -3.5,0.7 -5.1,1.5 -2.4,1.2 -3.9,3.1 -5,5.6 -0.8,2 -1.1,4 -1.5,6 -0.2,1 0.2,2.1 0.6,3.1 0.9,2.3 2.1,4.4 3.8,6.3 1,1.1 2.3,1.7 3.8,2.1 0.9,0.2 1.7,-0.2 2.2,-1.1 0.5,-0.9 0.9,-1.7 0.1,-2.6 -1,-1.1 -2,-2.2 -3,-3.4 -1,-1.1 -1.9,-2.3 -2.2,-3.9 -0.3,-2 0.2,-3.7 1.3,-5.1 1.8,-2.1 4.2,-3.3 6.9,-3.8 1.6,-0.3 3.1,0.2 4.5,1 2.8,1.5 4.6,3.8 5.2,7.1 0.5,2.7 0.7,5.3 0.6,8 -0.1,2.9 -0.6,5.6 -1.8,8.3 -0.3,0.6 -0.9,1.1 -1.3,1.7 -1.3,2.1 -3.2,3.7 -5.4,4.9 -1,0.5 -2.1,0.7 -3.2,0.8 -4.4,0.3 -8.6,-0.6 -12.5,-2.5 -2,-1 -3.8,-2.4 -5.6,-3.6 -2.4,-1.7 -4,-4.2 -5.6,-6.5 -1.2,-1.7 -1.5,-3.7 -1.8,-5.7 -0.3,-2.2 -0.5,-4.4 -0.4,-6.6 0.1,-2.7 0.6,-5.5 1.9,-7.9 1,-1.9 2.3,-3.6 3.7,-5.1 1.8,-1.9 3.7,-3.7 5.8,-5.4 1.6,-1.3 3.3,-2.2 5.1,-3.3 2.2,-1.4 4.4,-2.9 6.7,-4.2 3.1,-1.8 6,-3.9 8.9,-6 3.7,-2.7 7.5,-5.4 10.9,-8.6 2.1,-2 4.5,-3.6 6.7,-5.5 1.9,-1.6 3.6,-3.3 5.4,-5 0.5,-0.4 1,-0.9 1.5,-1.3 1.3,-0.2 2.4,-1 3.7,-2.1 z m 85.7,43.3 c -2.7,0.1 -5.2,0.2 -7.7,0.2 -4.3,0.1 -8.6,-0.1 -12.9,-0.6 -3.6,-0.5 -7,-1.2 -10.5,-2 -9.1,-2 -17.7,-5.5 -26.1,-9.6 -3.7,-1.8 -7.4,-3.8 -10.9,-6 -4,-2.5 -7.9,-5.1 -11.7,-7.8 -2.7,-1.9 -5.5,-2.9 -8.9,-2.2 -4,0.8 -7.3,4.9 -7.2,9.2 0.1,3.1 1.5,5.6 4,7.4 1.2,0.9 2.5,1.7 3.7,2.5 3.8,2.6 7.6,5.4 11.7,7.6 3.5,1.9 6.9,4.1 10.6,5.8 4.1,1.9 8.1,3.9 12.2,5.5 6.9,2.8 14.1,4.9 21.4,6.5 1,0.2 2.1,0 3.1,0.1 2.2,0.2 4.4,0.6 6.6,0.9 4.8,0.7 9.7,0.8 14.6,0.9 1.2,0 2.3,0.3 3.5,0.4 0.8,0.1 1.6,0.1 2.5,0.1 0.7,0 1.3,-0.1 2,-0.1 1.3,-0.1 2.7,-0.1 4,-0.3 1.6,-0.2 3.3,-0.6 4.9,-0.8 1.5,-0.2 3.1,-0.3 4.6,-0.6 1.9,-0.4 3.7,-1.1 5.6,-1.5 3.4,-0.8 6.8,-1.8 10.2,-2.8 3.4,-1 6.6,-2.4 9.8,-3.9 3.1,-1.5 6.2,-2.9 9.3,-4.5 6,-3.1 11.6,-6.9 17.2,-10.6 1.4,-0.9 2.7,-2.2 4.1,-3.2 1.7,-1.3 3.3,-2.7 4.4,-4.6 0.3,-0.6 0.7,-1.2 0.9,-1.8 0.3,-0.8 0.7,-1.6 0.7,-2.4 0.1,-3.6 -1.6,-6.5 -4.4,-8.6 -3.2,-2.3 -7.9,-2.1 -11,0.2 -2.6,1.9 -5.2,3.7 -7.8,5.6 -3.9,2.7 -7.8,5.4 -12.1,7.6 -3.3,1.7 -6.5,3.5 -9.9,5 -4.6,2 -9.3,3.8 -14.2,5.2 -3.8,1.1 -7.7,1.9 -11.6,2.5 -1,0.2 -1.8,0.4 -2.4,1.3 -0.5,0.7 -1.2,1.1 -2.2,0.8 0,-0.5 0,-1 -0.1,-1.4 z m -82.6,53.4 c 0,0.9 0,1.4 0,2 0,9.5 0,18.9 0,28.4 0,19.2 0,38.3 0,57.5 0,1.1 0.3,1.8 1.3,2.3 1.6,0.9 3.1,1.8 4.6,2.8 4,2.5 8,5 12,7.4 3.2,2 6.5,4 9.7,6 4.2,2.6 8.5,5.3 12.7,7.9 3,1.9 6,3.7 9,5.6 3.9,2.4 7.8,4.8 11.7,7.2 3.6,2.2 7.2,4.4 10.7,6.6 0.8,0.5 1.4,0.5 2.1,0 3,-1.9 6,-3.7 9,-5.6 4.9,-3 9.8,-6.1 14.7,-9.2 1.3,-0.8 2.5,-1.6 3.8,-2.4 4.8,-3 9.7,-5.9 14.5,-8.8 4.7,-2.9 9.3,-5.8 13.9,-8.8 4.8,-3 9.5,-6.1 14.3,-9 1,-0.6 1.5,-1.3 1.5,-2.6 0,-28.5 0,-56.9 0,-85.4 0,-0.5 0,-1.1 -0.1,-1.7 -0.5,-0.1 -0.8,-0.3 -1.1,-0.3 -2.8,0 -5.6,-0.5 -8.3,-1.2 -6.6,-1.8 -11.9,-5.3 -15.7,-11 -3.3,-5 -5.9,-10.4 -8.1,-16 -0.1,-0.3 -0.3,-0.6 -0.5,-1 -0.7,0 -1.4,-0.1 -2.1,-0.1 -20.7,0.1 -41.3,0 -62,0.1 -3.6,0 -7.2,0 -10.8,0 -1.8,0 -1.7,0 -2.4,1.7 -2.2,5.8 -4.4,11.5 -8.7,16.2 -3.3,3.7 -6.8,6.9 -11.4,8.9 -3.6,1.5 -7.3,2.5 -11.2,2.5 -1,0 -1.9,0 -3.1,0 z m 137.7,-91.2 c -2.3,2.4 -4.8,4.3 -7.8,5.9 2.7,-0.3 6.7,-3.4 7.8,-5.9 z"
   id="path4" />
	<path
   d="m 129.1,522.2 c 0.7,-1.3 1.2,-2.3 1.7,-3.3 0.5,-0.8 1,-1.6 1.5,-2.4 0.3,-0.5 0.3,-1.1 0.6,-1.8 -0.9,-0.2 -1.6,-0.4 -2.3,-0.5 -4,-0.5 -6.6,-2.7 -8.3,-6.2 -1.5,-3.1 -1.4,-6.4 0.4,-9.3 1.5,-2.4 3.8,-4 6.6,-5 2.4,-0.9 4.9,-1 7.4,-1.2 2.7,-0.1 5.5,-0.2 8.2,-0.3 0.6,0 1.3,0.2 1.9,0.5 2,0.8 4,1.7 6.1,2.3 4.5,1.5 9.1,3 13.8,3.8 3,0.5 5.9,1.1 8.9,1.6 1.3,0.2 2.7,0.3 4,0.4 5.9,0.4 11.7,1 17.6,0.6 1.3,-0.1 2.7,0 4,0 1.3,-0.1 2.5,-0.3 3.8,-0.4 0.2,0 0.4,0 0.7,-0.1 2.9,-0.2 5.7,-0.3 8.5,-0.5 1.9,-0.2 3.9,-0.5 5.8,-0.9 3.2,-0.6 6.4,-1.4 9.7,-1.9 4.8,-0.7 9.4,-2.1 14.1,-3.4 2.1,-0.5 4.2,-1.1 6.2,-1.8 1.4,-0.5 2.7,0 4.1,0.3 0.6,0.1 1.3,0.5 1.9,0.6 0.7,0.1 1.4,0.2 2.1,0.2 1,0 2,-0.2 3,-0.4 1.4,-0.1 2.7,0.1 3.9,0.7 1.6,0.9 3.5,1.3 4.6,3.1 1.9,3.2 2.8,6.5 1.5,10.1 -0.5,1.4 -1.4,2.9 -2.4,4 -1.8,1.9 -3.9,3.4 -6.7,3.4 -0.2,0 -0.4,0.1 -0.7,0.2 -0.3,1 -0.1,1.9 0.2,2.8 0.2,0.7 0.6,1.5 0.7,2.2 0.3,1.7 -0.1,2.5 -1.5,3.1 -4.6,2 -9.3,3.7 -14.1,5.2 -3.4,1.2 -6.9,2.2 -10.4,3.2 -3.1,0.8 -6.2,1.4 -9.3,2.2 -1.7,0.4 -3.4,0.9 -5.2,1.2 -0.9,0.2 -1.9,0.2 -2.8,0.3 -2.6,0.4 -5.2,0.8 -7.8,1.1 -8.7,1.2 -17.4,0.7 -26.1,0.6 -2.5,0 -5,-0.5 -7.5,-0.8 -2.2,-0.3 -4.3,-0.5 -6.5,-0.8 -1.2,-0.2 -2.3,-0.4 -3.4,-0.6 -2.4,-0.5 -4.8,-0.9 -7.2,-1.4 -1.1,-0.2 -2.2,-0.5 -3.3,-0.7 -4.4,-1.2 -8.8,-2.4 -13.1,-3.9 -3.8,-1.3 -7.6,-2.7 -11.2,-4.5 -1.1,-0.5 -2.4,-1 -3.7,-1.6 z m 63.1,11.6 c 3.9,-0.1 7.8,-0.3 11.7,-0.4 1.8,-0.1 3.6,-0.2 5.4,-0.4 3.3,-0.4 6.6,-0.7 9.8,-1.2 4.8,-0.8 9.6,-1.5 14.4,-2.6 4.9,-1.1 9.6,-2.5 14.4,-3.9 3.5,-1 7,-2.3 10.5,-3.5 0.4,-0.1 0.8,-0.3 1.2,-0.6 0.5,-0.4 1,-1 0.6,-1.6 -0.2,-0.5 -0.7,-1 -1.2,-1.2 -0.3,-0.2 -0.9,0 -1.3,0.2 -2.7,0.9 -5.3,1.8 -8,2.7 -2.7,0.9 -5.3,1.8 -8,2.5 -8,2.1 -16.1,4 -24.3,5.1 -5,0.7 -10,1.3 -15,1.4 -6.6,0.2 -13.3,0.4 -20,-0.2 -3.4,-0.3 -6.9,-0.6 -10.3,-1 -8,-1 -15.7,-2.9 -23.3,-5.4 -4,-1.3 -7.9,-2.7 -11.7,-4.7 -0.9,-0.5 -1.8,-1 -2.7,-1.4 -0.7,-0.3 -1.6,-0.1 -1.9,0.5 -0.4,0.5 -0.2,1.5 0.3,2 0.2,0.2 0.5,0.4 0.8,0.6 1.4,0.7 2.8,1.5 4.2,2.1 6.2,2.8 12.7,5 19.3,6.6 6.6,1.6 13.4,2.8 20.2,3.4 5,0.5 9.9,1.1 14.9,1 z m 2.7,-26.9 c 3.7,-0.2 8.5,-0.5 13.2,-0.8 2.8,-0.2 5.6,-0.4 8.4,-0.8 3.7,-0.5 7.4,-1.2 11.1,-1.9 6.8,-1.2 13.6,-3 20.2,-5 0.5,-0.1 1,-0.3 1.4,-0.6 0.3,-0.2 0.5,-0.7 0.4,-1 -0.1,-0.3 -0.5,-0.7 -0.8,-0.7 -0.6,-0.1 -1.2,0 -1.8,0.2 -2.1,0.6 -4.2,1.2 -6.3,1.8 -6.4,1.8 -12.8,3.1 -19.4,4.1 -3.5,0.5 -7.1,1 -10.6,1.3 -3.7,0.4 -7.4,0.7 -11,0.9 -4.7,0.1 -9.4,0 -14.1,0 -0.6,0 -1.1,0 -1.7,-0.1 -2.3,-0.3 -4.7,-0.6 -7,-0.8 -5.5,-0.5 -10.9,-1.4 -16.2,-2.7 -5.3,-1.3 -10.5,-2.7 -15.5,-5 -0.6,-0.3 -1.4,-0.4 -2.1,-0.4 -0.3,0 -0.8,0.5 -0.9,0.8 -0.1,0.3 0.3,0.7 0.6,1 0.2,0.2 0.5,0.2 0.8,0.4 6.6,3 13.5,4.8 20.5,6.2 3.8,0.8 7.7,1.6 11.6,1.8 2.2,0.1 4.3,0.7 6.5,0.8 3.8,0.3 7.7,0.4 12.7,0.5 z m 73.3,-4.9 c 0.1,-0.8 -0.2,-1.8 -0.8,-2.7 -1.9,-3.1 -6.6,-4.3 -9.8,-2.5 -2,1.1 -3.2,2.8 -3.7,5 -0.6,2.6 0.6,5.8 3,7.1 2.5,1.3 5.1,1.4 7.5,0 2.5,-1.5 3.8,-3.7 3.8,-6.9 z m -22.2,4.9 c -0.6,-1.4 -1.4,-2.1 -2.5,-2.4 -2.1,-0.4 -4,0.1 -5.7,1.4 -1.1,0.8 -1.5,2 -1.2,3.3 0.2,1.3 1.1,2.2 2.4,2.6 1,0.3 2.1,0.5 3.1,0.3 0.6,-0.1 1.3,-0.2 2,-0.1 0.6,0 1.3,0.2 1.5,0.9 0.2,0.7 -0.1,1.3 -0.7,1.8 -1.1,0.9 -2.2,1 -3.7,0.1 -1.5,-0.9 -1.9,-0.8 -3.1,0.5 1.1,1.9 2.1,2.5 4.1,2.5 1.8,0.1 3.3,-0.7 4.6,-1.7 1.3,-0.9 1.8,-2.7 1.3,-4.2 -0.4,-1.2 -1.8,-2.6 -3.4,-2.5 -1.2,0 -2.4,0 -3.5,0.1 -0.4,0 -0.8,0.1 -1.2,0 -0.4,-0.1 -0.9,-0.4 -1,-0.8 -0.1,-0.3 0.2,-0.9 0.5,-1.1 0.4,-0.3 1,-0.5 1.5,-0.6 1.1,-0.2 2,0.2 2.8,1 0.8,-0.5 1.4,-0.8 2.2,-1.1 z m -114.5,2.6 c 0,0 0,0 0,0 0.7,0 1.5,0.1 2.2,-0.1 1.4,-0.5 2.8,-1.1 3.6,-2.4 0.8,-1.5 1.4,-3.1 2.1,-4.7 0,-0.1 0,-0.2 0,-0.3 -0.5,-2.5 -1.8,-4.5 -4.1,-5.4 -4.7,-1.7 -9.2,0 -10.4,5.3 -0.5,2 0.2,3.9 1.4,5.5 1.1,1.6 2.6,2 4.3,2.1 0.2,0 0.5,0 0.9,0 z m 26,-1.5 c -1.9,-1.2 -2.4,-1 -2.9,0.9 -0.3,0.9 -0.7,1.8 -0.9,2.7 -0.4,1.6 -0.9,3.1 -1.1,4.7 -0.2,1.6 0.4,2.9 2,3.7 1.3,0.7 2.7,1 4.2,1.1 1.9,0 2.9,-0.9 3.7,-2.4 0.2,-0.3 0.3,-0.7 0.4,-1.1 0.6,-2 1.1,-4 1.6,-6 0.1,-0.6 0.1,-1.2 0.2,-1.9 -0.8,-0.2 -1.4,-0.4 -2.1,-0.7 -0.3,0.8 -0.5,1.4 -0.7,2 -0.6,2 -1.1,4.1 -1.7,6.1 -0.4,1.4 -1.4,1.8 -2.8,1.4 -1.3,-0.3 -1.9,-1.1 -1.7,-2.5 0.1,-1 0.4,-2 0.6,-3 0.3,-1.6 0.8,-3.3 1.2,-5 z m 47.8,17 c 1.2,0.5 2.2,0.4 3,-0.5 0.5,-0.7 0.9,-1.4 1.4,-2.1 0.3,-0.5 0.4,-1.2 1.3,-1.4 0.7,0.8 1.4,1.6 2.1,2.4 1,1.1 2.3,1.2 3.5,0.1 -0.2,-0.3 -0.5,-0.6 -0.7,-0.9 -1.1,-1.3 -2.1,-2.6 -3.2,-3.8 -0.6,-0.7 -0.6,-1.2 -0.2,-2 0.7,-1.3 1.3,-2.6 1.9,-3.9 0.2,-0.3 0.2,-0.7 0.3,-1.1 -1.8,-0.4 -2.5,-0.1 -3.3,1.2 -0.4,0.8 -0.6,1.8 -1.5,2.4 -0.8,-0.7 -1.5,-1.4 -2.2,-2.1 -1.1,-1 -1.9,-1.1 -3.6,-0.3 0.7,0.9 1.5,1.7 2.2,2.5 0.7,0.9 1.5,1.8 2.2,2.7 -1.1,2.5 -2.5,4.5 -3.2,6.8 z m -28.7,-13 c -1.9,-1 -2.7,-0.9 -4,0.4 -0.6,0.6 -1.1,1.4 -2.1,1.7 -0.4,-0.8 -0.7,-1.5 -1,-2.2 -0.7,-1.6 -1.3,-1.9 -3.4,-1.7 0.1,0.4 0.2,0.8 0.3,1.1 0.6,1.3 1.1,2.7 1.7,4 0.4,0.8 0.3,1.5 -0.3,2.1 -1.1,1 -2.1,2 -3.2,3 -0.5,0.5 -1.3,0.9 -1.3,1.8 2.4,0.9 2.7,0.8 4.3,-0.8 0.4,-0.4 0.8,-0.9 1.3,-1.3 0.2,-0.2 0.6,-0.5 0.8,-0.6 0.2,0.1 0.2,0.1 0.3,0.2 0.4,0.9 0.8,1.7 1.1,2.6 0.8,1.7 1.4,2 3.5,1.8 -0.1,-0.4 -0.2,-0.8 -0.4,-1.2 -0.6,-1.5 -1.2,-3 -1.9,-4.5 -0.4,-0.9 -0.3,-1.6 0.4,-2.3 1.2,-1.2 2.4,-2.3 3.6,-3.5 0.2,-0.2 0.2,-0.4 0.3,-0.6 z m 27.2,13.3 c -0.1,-0.3 -0.2,-0.6 -0.3,-0.9 -0.8,-1.9 -1.6,-3.8 -2.4,-5.7 -0.6,-1.5 -1.3,-3.1 -2,-4.6 -0.3,-0.8 -0.8,-1.1 -1.7,-1.1 -1.6,0 -1.9,0.2 -2.5,1.7 -1.3,3.5 -2.6,6.9 -3.9,10.4 -0.1,0.2 -0.1,0.5 -0.1,0.8 0.4,0 0.7,0 0.9,0 1.7,-0.1 1.7,-0.1 2.2,-1.7 0.1,-0.4 0.4,-0.8 0.5,-1.2 1.7,0 3.3,0 5.1,0 0.2,0.4 0.5,0.8 0.7,1.3 1,1.5 1.5,1.7 3.5,1 z m 15.3,-14.5 c 2.6,3.9 5.1,7.6 7.5,11.2 0.5,-0.1 0.8,-0.1 1,-0.2 1.7,-0.4 1.7,-0.5 1.9,-2.2 0.1,-1.3 0.1,-2.6 0.4,-3.8 0.3,-1.7 0.1,-3.4 0.8,-5.1 0.3,-0.6 0.1,-1.5 0.1,-2.2 -2.3,-0.4 -2.8,0 -3,2.1 -0.1,2.2 -0.3,4.3 -0.5,6.5 0,0.2 -0.2,0.5 -0.4,1 -1.8,-2.7 -3.4,-5.2 -5.1,-7.7 -0.9,0 -1.7,0.1 -2.7,0.4 z m -34.5,9.8 c 1.5,0 2.8,0 4.1,0 2,-0.1 3.4,-1.6 3.5,-3.8 0.1,-2 -1.2,-3.7 -3.1,-4 -0.8,-0.1 -1.6,-0.3 -2.3,-0.3 -1.4,0 -2.8,0 -4.4,0 -0.3,4 -0.6,8 -1,12.2 0.8,0.2 1.5,0.3 2.4,0.5 0.3,-1.5 0.5,-2.9 0.8,-4.6 z m -39.8,-6.4 c 0.7,-1.8 1.2,-3.3 1.8,-4.8 0.6,-1.5 1.2,-3.1 1.8,-4.7 -0.8,-0.4 -1.5,-0.6 -2.3,-1 -1.1,1.9 -1.6,3.9 -2.4,5.8 -0.7,1.9 -2.2,3.5 -2.4,5.8 2.7,1.1 5.4,2.1 8.3,3.2 0.3,-0.7 0.6,-1.2 0.9,-1.9 -1.9,-0.7 -3.7,-1.5 -5.7,-2.4 z m 86.8,-6.4 c 0.6,3.5 3,11 3.9,12.1 0.6,-0.3 1.3,-0.5 2.1,-0.9 -1.4,-4 -2.2,-8 -3.8,-11.9 -0.7,0.2 -1.4,0.4 -2.2,0.7 z m -92.4,-2.2 c -0.9,1 -1.5,1.9 -2.2,2.6 -0.7,0.6 -1.6,1.2 -2.5,1.6 -0.9,0.4 -1.9,0.7 -2.9,1 2.4,0.6 4.3,-0.3 6,-1.8 1,-0.8 1.8,-1.8 1.6,-3.4 z m 121.4,5.4 c 3.7,0.7 7.5,-2.1 7.6,-4.4 -1,0.9 -2,2 -3.2,2.8 -1.2,0.7 -2.8,1 -4.4,1.6 z"
   id="path6" />
	<path
   d="m 272.5,175.9 c -1.5,1.6 -2.8,3.1 -4.2,4.6 -0.7,0.8 -1.4,0.9 -2.4,0.6 -2.4,-0.8 -4.1,-2.2 -5,-4.6 -0.2,-0.5 -0.4,-0.9 -0.7,-1.3 0,0 -0.1,0 -0.3,-0.1 -0.5,0.9 -0.8,1.7 -0.4,2.7 0.7,2 1.9,3.6 3.5,4.8 0.5,0.4 1.1,0.8 1.7,1.3 -0.4,0.6 -0.7,1.3 -1.1,1.7 -1,0.8 -1.4,2 -2,3.1 -1.3,2.5 -2.7,5 -3.2,7.9 -0.3,2 -0.5,4 -0.9,5.9 -0.3,1.6 -0.8,3.1 -1.6,4.6 -0.9,1.6 -2.5,2.2 -4.1,2.5 -3.4,0.6 -6.9,0.6 -10.4,0 -4.6,-0.8 -8.9,-2.5 -12.9,-4.9 -3.1,-1.9 -5.7,-4.2 -8.6,-6.4 -2.9,-2.2 -5.2,-4.9 -7.9,-7.3 -0.5,-0.4 -1.1,-0.8 -1.6,-1.3 -0.9,-0.8 -1,-1.5 -0.1,-2.2 2.5,-2.1 3.8,-4.9 5.1,-7.8 1,-2.3 2,-4.6 2.9,-6.9 1.6,-3.6 3.1,-7.3 4.7,-10.9 0.8,-1.8 2,-3.5 3,-5.2 0.2,-0.3 0.4,-0.6 0.5,-0.9 0.7,-2.2 2.3,-3.7 4.1,-5.1 2.3,-1.7 4.6,-3.4 7.2,-4.7 0.3,-0.2 0.8,-0.4 1.1,-0.3 1.3,0.4 2.3,-0.2 3.3,-0.7 0.6,-0.3 1.3,-0.4 1.9,-0.5 0.2,-0.1 0.5,0.1 0.7,-0.1 2.3,-1.2 4.8,-0.7 7.1,-1 2,-0.2 4,-0.7 5.9,-1.1 0.5,-0.1 1,-0.4 1.6,0 0.3,0.2 0.9,0 1.2,-0.1 0.6,-0.2 1.2,-0.6 1.8,-0.9 1.2,-0.5 2.1,0 2.1,1.2 0,1.3 0.3,2.5 0.8,3.7 0.4,1.1 0.4,2.4 0.6,3.6 0.2,1.6 0.4,3.2 0.7,4.8 0.2,1.1 0.5,2 0.1,3.1 -0.2,0.4 0,1 0.1,1.5 1.5,4.4 3,8.9 4.5,13.3 0.5,1.1 0.8,2.2 1.2,3.4 z m -34.7,-14 c 1,1.3 2.8,1.4 4,0.1 0.4,-0.4 0.8,-1 1,-1.5 0.6,-1.1 1.5,-1.8 2.8,-1.9 1.7,-0.1 3.4,-0.1 5,-0.2 1.4,-0.1 2.8,-0.4 4.1,-0.6 0.9,-0.2 1.3,-0.8 1.6,-1.6 0.2,-0.6 0.4,-1.4 -0.3,-1.8 -0.8,-0.5 -1.2,0.3 -1.6,0.8 -0.6,0.9 -1.5,1.3 -2.6,1.3 -2.3,0.1 -4.6,0.2 -6.9,0.3 -1.7,0.1 -3.2,0.7 -4.4,1.9 -1,0.9 -1.8,2 -2.7,3.2 z m 17.9,-0.3 c -1.5,-0.8 -2.9,-0.9 -4.3,-0.5 -1.4,0.4 -2.9,0.5 -4.3,0.8 -0.7,0.1 -1.5,0.2 -1.7,1.1 -0.2,0.9 0.4,2.2 1.2,2.7 1.6,0.8 3.1,0.5 4.3,-1 0.5,-0.7 1,-1.4 1.9,-1.4 1.3,-0.1 2.1,-0.7 2.9,-1.7 z"
   id="path8" />
	<path
   d="m 201.6,173.1 c -0.5,0.3 -1,0.5 -1.4,0.9 -5.4,4.4 -11,8.4 -17.4,11.2 -2.4,1.1 -5.1,1.7 -7.6,2.5 -3.1,1 -6.3,1.2 -9.6,1.2 -1.1,0 -2.1,-0.2 -3.1,-0.7 1.1,-1.9 2.1,-3.6 3.1,-5.4 0.5,-0.9 1.2,-1.3 2.1,-1.4 5.5,-0.8 10.1,-3.5 14.4,-6.8 1.8,-1.4 3.6,-2.7 5.3,-4 1,-0.8 2,-1.7 2.9,-2.5 1.9,-1.7 3.8,-3.5 5.8,-5 2.7,-2 5.6,-3.9 8.4,-5.8 1.8,-1.2 3.6,-2.2 5.4,-3.4 2.9,-2 5.3,-4.6 7.5,-7.4 0.9,-1.1 2.1,-2.1 2.9,-3.2 1.1,-1.6 2.6,-2.9 4.1,-4.2 1.5,-1.4 3,-2.9 4.7,-4.1 2.1,-1.5 4.5,-2.5 7.1,-2.7 2.1,-0.1 4.1,-0.6 6.1,-1 2.5,-0.4 5.1,-0.8 7.6,-1.1 2.8,-0.3 5.4,-1.1 8,-1.9 2.2,-0.7 4.5,-1.4 6.7,-2.1 0.4,-0.1 0.8,-0.2 1.1,-0.2 0.8,0 1.5,0.1 2.4,0.2 0,0.3 0.1,0.7 0.1,1 0,1.8 0.1,3.6 0,5.4 0,1 -0.3,2 -0.6,2.9 -0.3,1 -1,1.6 -2,2.1 -3.4,1.8 -7,2.8 -10.8,2.4 -2.6,-0.3 -5.1,-0.2 -7.7,-0.2 -1.1,0 -2.1,0.1 -3.1,0.4 -4,1.1 -7.6,3.2 -10.8,5.9 -2.1,1.8 -4.2,3.6 -5.8,5.8 -2.1,2.9 -3.9,6 -5.9,9 -1,1.5 -1.6,3.1 -2.8,4.5 -0.9,1 -1.3,2.4 -1.9,3.7 -2,4.2 -4,8.4 -6.1,12.5 -2,4.1 -4.6,7.9 -7.4,11.6 -2.2,3 -4.7,5.7 -7.4,8.1 -2.8,2.5 -5.6,4.9 -8.6,7.2 -2.2,1.7 -4.6,3.1 -7,4.6 -0.5,0.3 -1,0.5 -1.6,0.8 -1.7,-2.2 -2.3,-5 -4.1,-7.3 5.5,-1.4 9.6,-4.5 12.9,-8.9 -0.8,-0.4 -1.3,-0.1 -1.8,0.3 -2.9,2.1 -6.2,3.6 -9.6,4.8 -3,1 -6.1,1.7 -9.3,2.1 -2.7,0.3 -5.3,0.3 -8,0.4 -0.4,0 -0.8,0 -1.2,-0.1 -1.2,-0.2 -2.3,-0.5 -3.6,-0.8 1.1,-1.9 2.1,-3.6 3.1,-5.3 0.6,-1.1 1.3,-2.2 2,-3.3 0.6,-1.1 0.7,-1 1.9,-0.8 0.5,0.1 1,0.2 1.5,0.1 3,-0.4 6,-0.8 8.9,-1.7 5.6,-1.6 11.1,-3.3 16.1,-6.2 2.1,-1.2 4,-2.8 5.9,-4.4 1.6,-1.3 3.1,-2.6 4.4,-4.1 1.6,-1.6 3.2,-3.2 3.8,-5.6 z"
   id="path10" />
	<path
   d="m 238.6,480.2 c 0.8,1.3 0.8,2.8 0.9,4.2 0.1,0.7 -0.6,1 -1.1,1.1 -2.1,0.4 -4.2,0.8 -6.2,1.1 -2.9,0.5 -5.7,0.9 -8.6,1.4 -1,0.1 -2,0.2 -3,0.3 -1.8,0.1 -3.7,0.2 -5.5,0.4 -0.7,0.1 -1.4,0.2 -2.1,0.3 -0.5,0.1 -1,0.2 -1.5,0.2 -8.4,0 -16.7,0 -25,0 -0.2,0 -0.4,0 -0.5,0 -1.5,-0.7 -3.2,-0.5 -4.8,-0.6 -1.6,-0.1 -3.1,-0.5 -4.6,-0.6 -4.3,-0.3 -8.5,-1.2 -12.7,-1.9 -0.8,-0.1 -1.6,-0.3 -2.4,-0.5 -0.6,-0.2 -1.1,-0.5 -1.6,-0.6 -0.3,-2.5 0,-3.5 1.2,-4.8 1.5,0.2 3,0.6 4.5,0.5 3.5,-0.1 6.2,-1.5 7.8,-4.8 0.8,-1.7 1.6,-3.3 1.5,-5.2 -0.1,-2.1 -1,-3.9 -2.1,-5.6 -0.5,-0.8 -2.6,-1 -3.6,-0.6 -0.8,0.4 -1.3,1.4 -1.3,2.4 0.1,0.8 0.5,1.2 1,1.6 0.5,0.4 1.1,0.8 1.6,1.2 0.8,0.7 0.9,1.5 0.6,2.5 -1.3,4.1 -5.2,5.1 -8.3,3.7 -1.9,-0.8 -3.3,-2.1 -3.9,-4.1 -0.3,-1.2 -0.2,-2.5 -0.3,-3.8 -0.1,-1.8 0.7,-3.1 1.9,-4.5 2,-2.3 4.6,-3.5 7.2,-4.8 3.9,-1.9 7.6,-1 11.3,0.7 0.9,0.4 1.7,0.8 2.6,1.1 4.4,1.5 8.9,2.5 13.5,3.2 0.6,0.1 1.1,0.1 1.7,0.1 0.8,0.1 1.6,0.1 2.3,0.3 0.9,0.3 1.8,0.3 2.8,-0.1 0.5,-0.2 1.1,-0.4 1.6,-0.3 2.2,0.4 4.4,-0.3 6.4,-0.7 3.4,-0.7 6.8,-1.8 10.2,-2.8 1.3,-0.4 2.6,-0.9 3.9,-1.5 3.5,-1.6 6.9,-1.3 10.2,0.2 3,1.4 5.2,3.8 6.5,6.9 0.1,0.2 0.1,0.4 0.1,0.6 0,1.7 -0.1,3.4 -0.1,5 0,1 -0.5,1.8 -1.3,2.4 -0.8,0.6 -1.6,1.1 -2.4,1.6 -2.4,1.5 -4.8,0.9 -6.9,-0.5 -1.2,-0.8 -1.8,-2.1 -1.8,-3.6 0,-0.6 0.2,-1.1 0.7,-1.4 0.5,-0.3 1.1,-0.6 1.6,-0.9 1,-0.5 1.5,-1.6 1.3,-2.6 -0.3,-1.4 -1.1,-2.1 -2.3,-2.2 -2.4,-0.2 -4.4,1.3 -4.8,3.9 -0.6,3.6 0.2,7 3,9.5 2.9,2.7 6.4,3.8 10.3,2.4 0.1,0.1 0.2,0.2 0.5,0.2 z"
   id="path12" />
	<path
   d="m 167.5,157.6 c -0.2,-1.1 -0.5,-2.1 -0.6,-3.2 -0.3,-2.4 -0.6,-4.8 -0.8,-7.1 -0.2,-1.7 -0.4,-3.4 -0.3,-5.2 0.1,-1.5 0.5,-2.9 0.7,-4.4 0.3,-1.6 0.9,-3 1.4,-4.4 1.4,-3.9 3.4,-7.4 5.6,-10.9 0.2,-0.4 0.5,-0.8 0.8,-1.1 2.1,-2.2 4.2,-4.5 6.4,-6.7 1.6,-1.5 3.2,-3 4.9,-4.3 3.4,-2.5 7,-4.6 10.7,-6.5 1.3,-0.7 2.8,-1.2 4.2,-1.7 2.6,-0.9 5.1,-1.9 7.8,-2.7 2.7,-0.8 5.4,-1.2 8.1,-1.9 3,-0.8 6,-0.6 9,-0.7 1.6,0 3.1,-0.2 4.7,-0.2 0.9,0 1.9,0.2 2.8,0.3 4.2,0.6 8.2,1.4 12.2,2.9 2.3,0.9 4.3,2.1 6.5,3.2 0.5,0.3 1.1,0.5 1.6,0.8 0.2,0.1 0.4,0.4 0.7,0.8 -1.1,0.3 -2.1,0.6 -3.1,0.6 -6.1,0 -12,1.1 -17.7,3.2 -5.8,2.1 -11.4,4.7 -16.5,8.1 -2.5,1.7 -5,3.4 -7.4,5.1 -3.2,2.3 -6.1,4.8 -9,7.4 -1.6,1.4 -3.3,2.5 -4.8,3.9 -1.9,1.6 -3.6,3.3 -5.4,5 -0.7,0.6 -1.4,1.2 -2.1,1.9 -1.2,1 -2.3,2.1 -3.5,3.1 -2.6,2.4 -5,5.1 -7.8,7.2 -2.8,2.1 -5.1,4.7 -7.6,7 -0.2,0.2 -0.4,0.4 -0.7,0.5 -0.2,0 -0.4,0 -0.8,0 z"
   id="path14" />
	<path
   d="m 167.1,163.3 c 1.8,-0.7 2.9,-2.1 4.3,-3.2 0.6,-0.4 1.1,-1 1.6,-1.4 4.2,-3.4 8.3,-6.9 12.5,-10.3 1.9,-1.5 3.8,-3 5.6,-4.5 5.2,-4.1 10.3,-8.2 15.5,-12.3 1,-0.8 2.2,-1.4 3.2,-2.1 2.7,-1.9 5.4,-3.9 8,-5.8 0.8,-0.6 1.7,-1.1 2.6,-1.6 2.8,-1.7 5.5,-3.4 8.4,-5 2.3,-1.2 4.6,-2.3 7,-3.1 4.2,-1.5 8.4,-2.8 12.6,-4.1 2.1,-0.6 4.3,-0.8 6.4,-1.3 1.5,-0.3 2.9,-0.8 4.4,-0.6 1.3,0.2 2.6,0.2 3.8,0.5 2.1,0.4 3.6,1.7 4.5,3.7 0.9,1.7 1.4,3.5 1.4,5.5 0,1.4 0.3,2.8 0.3,4.2 0,0.6 -0.2,1.2 -0.5,1.7 -0.4,0.8 -1.1,1.2 -2,1.2 -3,0 -5.9,-0.1 -8.9,0 -2.4,0.1 -4.9,0.3 -7.3,0.9 -4.7,1.2 -9.4,2.7 -14.1,4.2 -2.6,0.9 -5,2.1 -7.5,3.2 -3.5,1.4 -6.7,3.3 -9.8,5.5 -0.9,0.6 -1.7,1.3 -2.5,2 -2.5,2.4 -5,4.9 -7.6,7.1 -2.8,2.5 -5.7,4.9 -8.6,7.2 -3.7,2.9 -7.4,6 -11.3,8.7 -3.2,2.2 -6.5,4.4 -10.5,5 -2.9,0.4 -5.8,0.7 -8.5,-0.7 -1.7,-1.1 -2.5,-2.6 -3,-4.6 z"
   id="path16" />
	<path
   d="m 130.3,181 c 1,0.1 2.1,0.2 3.1,0.2 2.2,0 4.4,0.2 6.5,-0.2 1.5,-0.3 2.8,-1.3 4.1,-2.1 0.7,-0.4 0.7,-0.8 0.8,-2.1 -0.3,-0.1 -0.7,-0.3 -1.1,-0.3 -2.7,-0.1 -5.4,-0.4 -7.9,-1.2 -1.7,-0.5 -3.4,-1.1 -5,-1.9 -1.5,-0.8 -2.8,-2 -3.4,-3.7 1.1,-0.3 2.1,-0.6 3.2,-0.8 1,-0.2 1.9,-0.6 2.9,-0.7 1.8,-0.2 3.4,-1 4.9,-2 1.2,-0.7 2.3,-1.5 3.5,-2.3 1.8,-1.2 2,-1.8 1.1,-4.1 -0.4,0.1 -0.8,0.1 -1.2,0.3 -0.7,0.3 -1.4,0.7 -2.1,1 -1.9,0.9 -3.9,1.2 -6,1.1 -1.1,-0.1 -2.1,0 -3.2,0 -1.1,-0.1 -2.1,-0.3 -3.1,-0.4 -0.1,-0.1 -0.3,-0.2 -0.3,-0.3 0,-2.2 0,-4.5 0.1,-6.7 0,-0.4 0.2,-0.8 0.2,-1.1 -0.1,-0.9 0.3,-1.6 0.4,-2.4 0.5,-2.6 2,-4.5 3.5,-6.4 0.7,-0.9 1.7,-1.6 2.7,-2.5 0.3,0.2 0.7,0.5 1.1,0.8 2.5,2.2 5.4,3.4 8.7,4.1 3.5,0.7 7,0.3 10.5,0.2 1.6,-0.1 3.2,-0.7 4.9,-1 0.2,-0.1 0.4,-0.1 0.9,-0.1 0,0.8 0.1,1.5 0,2.2 -0.4,1.9 -0.2,3.9 0,5.8 0.2,2.4 0.4,4.8 1.2,7.1 0.7,2.1 1.6,4.1 2.6,6.1 0.3,0.7 1,1.2 1.5,1.8 1.5,1.9 3.2,3.6 5.2,4.9 0.3,0.2 0.6,0.7 0.6,1.1 0,0.6 -0.6,0.7 -1.1,0.9 -0.9,0.3 -1.9,0.7 -2.7,1.2 -2.8,1.8 -5.4,4 -7.7,6.4 -2.2,2.3 -4.7,4.3 -7.7,5.6 -2.4,1 -4.7,1.4 -7.3,1 -1.8,-0.3 -3.6,-0.5 -5.4,-1.1 -1.9,-0.7 -3.5,-1.8 -5,-3 -1.3,-1.1 -2.4,-2.3 -3.5,-3.5 -0.3,-0.3 -0.5,-0.8 -0.7,-1.3 0,-0.3 0.1,-0.4 0.2,-0.6 z"
   id="path18" />
	<path
   d="m 150,142 c 0.9,-2.5 2.1,-4.8 3.5,-7 1.4,-2.2 2.7,-4.5 4.2,-6.7 2.2,-3.3 4.4,-6.7 6.8,-9.8 2.3,-2.9 4.9,-5.5 7.3,-8.3 3.9,-4.5 8.6,-8.3 13.4,-11.9 2.6,-2 5.6,-3.5 8.4,-5.3 0.5,-0.3 1.1,-0.6 1.6,-0.9 0.5,-0.3 0.9,-0.6 1.5,-0.8 1.9,-0.8 3.9,-1.5 5.8,-2.3 4.1,-1.8 8.5,-2.8 12.9,-3.6 2.9,-0.5 5.9,-0.7 8.8,-1.2 3.8,-0.6 7.6,-0.2 11.4,-0.3 1.5,0 3,-0.1 4.5,0.2 1.4,0.3 2.9,0 4.3,0.3 1.2,0.3 2.4,0.3 3.6,0.5 4.2,0.6 8.3,1.6 12.4,2.8 0.1,0 0.2,0.1 0.5,0.3 -2.6,4 -5.2,8 -8,12 -1.6,-0.6 -3,-1.2 -4.4,-1.7 -2.6,-0.9 -5.1,-2 -7.8,-2.5 -2.1,-0.4 -4.1,-1 -6.2,-1.3 -1.5,-0.3 -3,-0.5 -4.5,-0.6 -2.8,-0.2 -5.7,-0.4 -8.5,-0.3 -3.4,0.1 -6.8,0.5 -10.1,1.2 -3.9,0.8 -7.6,2.1 -11.2,3.8 -0.6,0.3 -1.2,0.4 -1.9,0.7 -3.1,1.2 -5.7,3.2 -8.5,4.9 -1.1,0.6 -2.1,1.3 -3.2,1.9 -0.1,0.1 -0.2,0.1 -0.3,0.2 -2,1.7 -3.9,3.3 -5.9,5 -1.8,1.5 -3.4,3.2 -5.1,4.8 -1.6,1.5 -2.9,3.2 -4.3,4.9 -1.9,2.4 -3.6,5 -5.6,7.4 -3,3.5 -5.1,7.5 -7.2,11.4 -0.2,0.4 -0.4,0.9 -0.7,1.3 -0.3,0.3 -0.6,0.7 -1,0.8 -2,0.6 -4,0.5 -6,0.3 -0.2,0.2 -0.3,0 -0.5,-0.2 z"
   id="path20" />
	<path
   d="m 207.7,248.5 c -3.5,0.1 -6.5,-0.9 -9.3,-2.5 -2,-1.1 -3.7,-2.5 -5.3,-4 -1.5,-1.4 -3.3,-1.6 -5.1,-1 -1.1,0.4 -2.1,1.1 -3.2,1.8 -0.4,0.2 -0.7,0.6 -1.1,0.8 -2.5,1.3 -5.2,0.7 -7,-1.5 -0.3,-0.4 -0.6,-0.7 -0.9,-1 -0.2,-0.2 -0.4,-0.5 -0.4,-0.7 0.1,-1.6 -0.1,-3.4 1.2,-4.7 2.2,-2.3 4.7,-4.2 7.8,-5.4 1.8,-0.7 3.7,-0.8 5.6,-1 1.5,-0.1 3.1,0.3 4.6,0.7 2.8,0.9 5.5,2.2 7.5,4.5 0.8,0.9 1.9,1.5 3,2.1 2.5,1.4 4.9,0.5 7.1,-0.9 1,-0.7 2,-1.5 2.8,-2.4 2,-2 4.3,-2.2 6.8,-1.5 1.2,0.3 2.1,1.3 2.6,2.4 1,2.1 0.4,5.1 -1.3,6.8 -2.9,2.9 -6.3,5 -10.1,6.4 -1.7,0.9 -3.6,1.3 -5.3,1.1 z"
   id="path22" />
	<path
   d="m 198.3,201.3 c 3.8,-3.5 6.9,-7.5 11.2,-10.4 0.7,0.8 1.3,1.5 1.9,2.2 2.1,2.5 4,5.1 6.2,7.5 1.6,1.9 3.4,3.7 5.3,5.3 3,2.7 6.6,4.6 10.3,6.1 0.2,0.1 0.3,0.3 0.6,0.5 -3.8,5.2 -7.6,10.3 -11.5,15.6 -9.4,-7.7 -17.2,-16.6 -24,-26.8 z"
   id="path24" />
	<path
   d="m 246.1,57.9 c 0.7,0 1.2,0 1.8,0 0.9,0.1 1.8,0.3 2.6,0.3 2,0 3.9,0 5.9,0 3,0.1 6,0.2 9,0.3 1.3,0 2.7,0 4.1,0 -0.1,0.3 -0.2,0.7 -0.3,1 -2,4.1 -3.9,8.3 -6,12.4 -1,2 -2.2,4 -3.2,6 -0.8,1.5 -1.5,3.1 -2.2,4.7 -0.3,0.5 -0.6,1.1 -0.9,1.6 -4.5,-0.9 -8.8,-1.7 -13.1,-2.5 0.1,-1.4 -0.1,-2.6 0.2,-3.7 0.6,-2 0.1,-4 0.7,-5.9 0.1,-0.2 0.1,-0.4 0.1,-0.7 0.1,-2.1 0.2,-4.1 0.3,-6.2 0.4,-2.3 0.7,-4.6 1,-7.3 z"
   id="path26" />
	<path
   d="m 226.9,59.1 c 5.6,-0.4 11.2,-0.8 16.9,-1.2 -0.1,-0.1 0,0 0,0 -0.3,1.6 0.2,3.3 -0.4,4.9 -0.1,0.2 -0.1,0.4 -0.1,0.7 -0.2,3.1 -0.4,6.2 -0.7,9.3 -0.1,1.7 -0.5,3.4 -0.7,5.1 -0.1,0.9 0,1.8 -0.1,2.7 -0.1,1.2 -0.5,1.6 -1.7,1.4 -0.6,-0.1 -1.2,-0.1 -1.8,-0.1 -3.1,0 -6.2,0 -9.2,0 -0.5,0 -1.1,-0.1 -1.6,-0.1 0,-0.9 0.1,-1.6 0,-2.3 -0.1,-0.9 -0.2,-1.9 -0.4,-2.8 -0.1,-0.5 -0.1,-1 -0.1,-1.5 0,-3.5 0,-6.9 0,-10.4 0,-1.5 -0.2,-3 -0.2,-4.5 -0.1,-0.4 0,-0.8 0.1,-1.2 z"
   id="path28" />
	<path
   d="m 169.7,81.2 c 3.7,6.2 7.3,12.3 11,18.4 -3.8,3.4 -7.5,6.7 -11.3,10.2 -4.4,-5 -8.8,-10 -12.8,-15.4 3.3,-5.4 7.4,-9.9 13.1,-13.2 z"
   id="path30" />
	<path
   d="m 188.1,70.7 c 2.1,6.9 4.1,13.4 6.1,20.2 -3.5,2.6 -7.3,4.7 -11.2,7 -0.3,-0.3 -0.7,-0.6 -0.9,-1 -1.2,-2.1 -2.3,-4.2 -3.5,-6.3 -0.9,-1.6 -1.7,-3.2 -2.9,-4.6 -1.2,-1.5 -2.1,-3.4 -3,-5.2 -0.1,-0.3 0,-0.8 0.2,-1.2 0.1,-0.3 0.4,-0.5 0.7,-0.7 3.1,-2.2 6.1,-4.7 9.6,-6.3 1.5,-0.7 3.1,-1.2 4.9,-1.9 z"
   id="path32" />
	<path
   d="m 210.1,85.2 c -2.9,1.1 -5.7,2.1 -8.6,3.2 -0.9,0.3 -1.9,0.7 -2.8,1 -1.1,0.4 -1.4,0.2 -1.7,-0.8 -0.9,-2.7 -1.8,-5.3 -2.7,-7.9 -1.2,-3.6 -2.5,-7.3 -3.9,-11.1 2.5,-1.4 4.9,-2.5 7.6,-3.3 2.6,-0.8 5.2,-1.6 8,-2.5 0.2,0.6 0.4,1 0.5,1.5 0.4,2.1 0.7,4.2 1.1,6.2 0.2,1.3 0.5,2.6 0.6,4 0.1,0.6 0.1,1.2 0.6,1.7 0.1,0.1 0.2,0.3 0.2,0.4 0.4,2.2 0.7,4.5 1.1,6.7 0.1,0.2 0.1,0.4 0,0.9 z"
   id="path34" />
	<path
   d="m 208.2,63 c 5.7,-1.4 11,-3.3 16.8,-3.4 0,1.2 0,2.4 0,3.5 0,0.9 -0.2,1.9 -0.2,2.8 0,5 0,10 0,14.9 0,0.6 0,1.2 0,2 -3.9,0.5 -7.6,1.1 -11.4,1.2 -1.8,-7.1 -3.1,-14 -5.2,-21 z"
   id="path36" />
	<path
   d="m 159.4,120.8 c -3,-1.3 -12.6,-7 -13.8,-8.2 2.6,-5.5 4.7,-11.3 9.6,-15.7 1.1,1.5 2,2.9 3,4.2 2,2.8 3.9,5.6 5.9,8.3 0.5,0.7 1.2,1.3 1.7,2 0.5,0.6 0.5,1.2 0,1.8 -0.1,0.1 -0.1,0.2 -0.2,0.2 -2.2,2 -3.7,4.6 -5.6,6.8 -0.2,0.2 -0.4,0.4 -0.6,0.6 z"
   id="path38" />
	<path
   d="m 157.4,123.2 c -1.1,3 -6.7,13.3 -7.7,14.1 -3.4,-1.2 -6.8,-2.4 -10.2,-3.6 -0.1,-0.1 -0.2,-0.2 -0.3,-0.4 0.7,-3.1 1.5,-6.3 2.1,-9.4 0.4,-2.2 1.3,-4.1 2.3,-6.1 0.3,-0.6 0.7,-1.3 1.1,-2.1 0.5,0.2 1.1,0.3 1.5,0.6 3.4,2 6.7,4.1 10,6.1 0.5,0.2 0.8,0.5 1.2,0.8 z"
   id="path40" />
	<path
   d="m 196.2,205.6 c 2,1.6 9.9,10.6 10.4,11.9 -3.4,2.1 -6.8,4.5 -10.5,6.4 -1.3,-1 -2.6,-2 -3.9,-3 -2,-1.5 -4,-3 -6,-4.5 -0.5,-0.4 -0.8,-0.8 -1.4,-1.4 3.6,-3.5 7.6,-6.3 11.4,-9.4 z"
   id="path42" />
	<path
   class="st0"
   d="m 209.8,262.4 c 0,0.4 0.1,0.9 0.1,1.3 1,0.4 1.7,0 2.2,-0.8 0.6,-0.9 1.4,-1.2 2.4,-1.3 3.9,-0.6 7.8,-1.4 11.6,-2.5 4.9,-1.4 9.5,-3.2 14.2,-5.2 3.4,-1.4 6.6,-3.3 9.9,-5 4.3,-2.1 8.2,-4.8 12.1,-7.6 2.6,-1.8 5.2,-3.7 7.8,-5.6 3.1,-2.3 7.8,-2.5 11,-0.2 2.9,2.1 4.5,4.9 4.4,8.6 0,0.8 -0.4,1.6 -0.7,2.4 -0.2,0.6 -0.6,1.2 -0.9,1.8 -1.1,1.9 -2.7,3.2 -4.4,4.6 -1.4,1.1 -2.6,2.3 -4.1,3.2 -5.6,3.7 -11.2,7.5 -17.2,10.6 -3.1,1.6 -6.2,3.1 -9.3,4.5 -3.2,1.5 -6.4,2.9 -9.8,3.9 -3.4,1 -6.7,2 -10.2,2.8 -1.9,0.4 -3.7,1.1 -5.6,1.5 -1.5,0.3 -3.1,0.4 -4.6,0.6 -1.6,0.2 -3.3,0.6 -4.9,0.8 -1.3,0.2 -2.7,0.2 -4,0.3 -0.7,0 -1.3,0.1 -2,0.1 -0.8,0 -1.7,0 -2.5,-0.1 -1.2,-0.1 -2.3,-0.3 -3.5,-0.4 -4.9,-0.1 -9.7,-0.2 -14.6,-0.9 -2.2,-0.3 -4.4,-0.6 -6.6,-0.9 -1,-0.1 -2.1,0.1 -3.1,-0.1 -7.3,-1.6 -14.4,-3.7 -21.4,-6.5 -4.2,-1.7 -8.2,-3.6 -12.2,-5.5 -3.7,-1.7 -7.1,-3.9 -10.6,-5.8 -4.1,-2.2 -7.8,-5 -11.7,-7.6 -1.2,-0.8 -2.5,-1.6 -3.7,-2.5 -2.5,-1.8 -3.9,-4.4 -4,-7.4 -0.1,-4.3 3.2,-8.4 7.2,-9.2 3.4,-0.7 6.2,0.3 8.9,2.2 3.8,2.7 7.7,5.4 11.7,7.8 3.5,2.2 7.1,4.2 10.9,6 8.4,4.1 16.9,7.6 26.1,9.6 3.5,0.8 7,1.5 10.5,2 4.3,0.5 8.6,0.7 12.9,0.6 2.5,0.1 5,0 7.7,-0.1 z"
   id="path44" />
	<path
   class="st0"
   d="m 127.2,315.8 c 1.2,0 2.1,0 3.1,0 3.9,0 7.6,-1 11.2,-2.5 4.6,-2 8.1,-5.2 11.4,-8.9 4.2,-4.7 6.5,-10.4 8.7,-16.2 0.6,-1.7 0.6,-1.7 2.4,-1.7 3.6,0 7.2,0 10.8,0 20.7,-0.1 41.3,0 62,-0.1 0.7,0 1.4,0.1 2.1,0.1 0.2,0.4 0.4,0.7 0.5,1 2.2,5.6 4.8,11 8.1,16 3.8,5.7 9.1,9.2 15.7,11 2.7,0.7 5.5,1.3 8.3,1.2 0.3,0 0.6,0.2 1.1,0.3 0,0.6 0.1,1.1 0.1,1.7 0,28.5 0,56.9 0,85.4 0,1.2 -0.5,2 -1.5,2.6 -4.8,3 -9.6,6 -14.3,9 -4.6,2.9 -9.3,5.9 -13.9,8.8 -4.8,3 -9.6,5.9 -14.5,8.8 -1.3,0.8 -2.6,1.6 -3.8,2.4 -4.9,3.1 -9.8,6.1 -14.7,9.2 -3,1.9 -6,3.7 -9,5.6 -0.8,0.5 -1.4,0.4 -2.1,0 -3.6,-2.2 -7.1,-4.4 -10.7,-6.6 -3.9,-2.4 -7.8,-4.8 -11.7,-7.2 -3,-1.9 -6,-3.7 -9,-5.6 -4.2,-2.6 -8.5,-5.3 -12.7,-7.9 -3.2,-2 -6.5,-4 -9.7,-6 -4,-2.5 -8,-5 -12,-7.4 -1.5,-0.9 -3,-1.9 -4.6,-2.8 -0.9,-0.5 -1.3,-1.2 -1.3,-2.3 0,-19.2 0,-38.3 0,-57.5 0,-9.5 0,-18.9 0,-28.4 0,-0.6 0,-1.2 0,-2 z m 144.2,1.6 c -1.3,-0.2 -2.3,-0.4 -3.4,-0.5 -3.2,-0.3 -6.3,-1 -9.2,-2.3 -4.1,-1.9 -7.9,-4.2 -10.8,-7.8 -3.1,-3.9 -5.2,-8.4 -7.5,-12.7 -0.8,-1.4 -1.2,-3 -1.8,-4.5 -0.6,-1.7 -0.6,-1.7 -2.4,-1.7 -0.3,0 -0.6,0 -0.8,0 -15.4,0 -30.8,0 -46.2,0 -8.1,0 -16.2,0 -24.4,0 -1.7,0 -1.7,0 -2.3,1.6 -0.6,1.6 -1.2,3.1 -1.8,4.7 -2.6,6.6 -6.7,12.1 -12.3,16.5 -0.8,0.6 -1.6,1.2 -2.4,1.8 -4.9,3 -10.1,4.7 -15.9,4.7 -0.5,0 -1.1,0.1 -1.7,0.2 0,0.8 -0.1,1.4 -0.1,2 0,24.7 0,49.3 0,74 0,3.1 0,6.3 0,9.4 0,1.1 0.4,1.9 1.4,2.5 1.2,0.6 2.5,1.3 3.6,2.1 3.7,2.3 7.3,4.5 11,6.8 3.6,2.2 7.1,4.4 10.7,6.6 3.8,2.3 7.5,4.7 11.3,7 3.7,2.3 7.3,4.6 11,6.8 3.9,2.4 7.7,4.8 11.6,7.2 3.3,2 6.6,4 9.8,6.1 0.9,0.6 1.7,0.6 2.6,0 2.8,-1.8 5.6,-3.5 8.4,-5.2 3.9,-2.5 7.9,-4.9 11.8,-7.4 3.3,-2.1 6.6,-4.1 10,-6.2 4,-2.5 8.1,-5 12.1,-7.5 3.2,-2 6.5,-4 9.7,-6 5.5,-3.5 11,-7 16.5,-10.4 1.3,-0.8 1.8,-1.8 1.8,-3.3 -0.1,-7.3 -0.2,-14.5 -0.2,-21.8 0,-7.6 0.1,-15.2 0.2,-22.9 0,-3.9 0,-7.8 0,-11.8 0,-8.7 0,-17.5 0,-26.2 -0.2,-0.5 -0.3,-1.1 -0.3,-1.8 z"
   id="path46" />
	<path
   class="st0"
   d="m 264.9,224.6 c -1.1,2.5 -5.1,5.6 -7.8,5.9 3,-1.6 5.4,-3.4 7.8,-5.9 z"
   id="path48" />
	<path
   class="st0"
   d="m 192.2,533.8 c -5,0.1 -9.9,-0.5 -14.9,-1 -6.8,-0.7 -13.5,-1.8 -20.2,-3.4 -6.6,-1.7 -13.1,-3.8 -19.3,-6.6 -1.4,-0.6 -2.8,-1.4 -4.2,-2.1 -0.3,-0.2 -0.6,-0.3 -0.8,-0.6 -0.5,-0.5 -0.6,-1.5 -0.3,-2 0.3,-0.5 1.2,-0.8 1.9,-0.5 0.9,0.4 1.8,0.9 2.7,1.4 3.7,2 7.7,3.4 11.7,4.7 7.6,2.5 15.4,4.5 23.3,5.4 3.4,0.4 6.9,0.7 10.3,1 6.6,0.7 13.3,0.4 20,0.2 5,-0.2 10,-0.7 15,-1.4 8.2,-1.2 16.3,-3 24.3,-5.1 2.7,-0.7 5.4,-1.6 8,-2.5 2.7,-0.9 5.3,-1.8 8,-2.7 0.4,-0.1 1,-0.3 1.3,-0.2 0.5,0.3 1,0.7 1.2,1.2 0.3,0.6 -0.1,1.2 -0.6,1.6 -0.4,0.2 -0.8,0.4 -1.2,0.6 -3.5,1.2 -7,2.4 -10.5,3.5 -4.8,1.4 -9.6,2.8 -14.4,3.9 -4.7,1.1 -9.6,1.8 -14.4,2.6 -3.2,0.5 -6.5,0.9 -9.8,1.2 -1.8,0.2 -3.6,0.3 -5.4,0.4 -3.8,0.1 -7.8,0.3 -11.7,0.4 z"
   id="path50" />
	<path
   class="st0"
   d="m 194.9,506.9 c -4.9,-0.2 -8.9,-0.3 -12.8,-0.5 -2.2,-0.1 -4.3,-0.7 -6.5,-0.8 -3.9,-0.2 -7.8,-1 -11.6,-1.8 -7,-1.4 -14,-3.2 -20.5,-6.2 -0.2,-0.1 -0.6,-0.2 -0.8,-0.4 -0.3,-0.3 -0.6,-0.7 -0.6,-1 0.1,-0.3 0.6,-0.8 0.9,-0.8 0.7,0 1.5,0.1 2.1,0.4 5,2.3 10.2,3.8 15.5,5 5.3,1.3 10.7,2.2 16.2,2.7 2.3,0.2 4.7,0.5 7,0.8 0.6,0.1 1.1,0.1 1.7,0.1 4.7,0 9.4,0.1 14.1,0 3.7,-0.1 7.4,-0.5 11,-0.9 3.6,-0.4 7.1,-0.8 10.6,-1.3 6.5,-1 13,-2.3 19.4,-4.1 2.1,-0.6 4.2,-1.2 6.3,-1.8 0.6,-0.1 1.2,-0.2 1.8,-0.2 0.3,0 0.7,0.4 0.8,0.7 0.1,0.3 -0.2,0.8 -0.4,1 -0.4,0.3 -0.9,0.4 -1.4,0.6 -6.6,2 -13.4,3.8 -20.2,5 -3.7,0.7 -7.4,1.4 -11.1,1.9 -2.8,0.4 -5.6,0.6 -8.4,0.8 -4.6,0.4 -9.4,0.6 -13.1,0.8 z"
   id="path52" />
	<path
   class="st0"
   d="m 268.2,502 c 0,3.2 -1.3,5.4 -3.8,6.8 -2.4,1.4 -5.1,1.3 -7.5,0 -2.4,-1.2 -3.6,-4.5 -3,-7.1 0.5,-2.2 1.7,-3.9 3.7,-5 3.2,-1.8 7.9,-0.6 9.8,2.5 0.6,1 0.9,2 0.8,2.8 z m -2.4,1 c 0,-2.7 -1.7,-4.3 -4.5,-4.3 -2.7,0 -4.9,2.1 -4.9,4.7 0,2.4 2.1,4.3 4.7,4.3 2.9,0 4.8,-1.8 4.7,-4.7 z"
   id="path54" />
	<path
   class="st0"
   d="m 246,506.9 c -0.8,0.3 -1.4,0.6 -2.1,0.9 -0.8,-0.8 -1.7,-1.2 -2.8,-1 -0.5,0.1 -1.1,0.3 -1.5,0.6 -0.3,0.2 -0.6,0.8 -0.5,1.1 0.1,0.3 0.6,0.6 1,0.8 0.3,0.1 0.8,0 1.2,0 1.2,0 2.4,0 3.5,-0.1 1.7,-0.1 3,1.3 3.4,2.5 0.5,1.5 0,3.3 -1.3,4.2 -1.4,1 -2.9,1.7 -4.6,1.7 -2,-0.1 -3.1,-0.7 -4.1,-2.5 1.1,-1.3 1.6,-1.4 3.1,-0.5 1.5,0.9 2.6,0.9 3.7,-0.1 0.5,-0.5 0.9,-1 0.7,-1.8 -0.2,-0.7 -0.9,-0.9 -1.5,-0.9 -0.7,0 -1.4,0 -2,0.1 -1.1,0.2 -2.1,0 -3.1,-0.3 -1.3,-0.4 -2.1,-1.2 -2.4,-2.6 -0.2,-1.3 0.2,-2.5 1.2,-3.3 1.7,-1.3 3.6,-1.8 5.7,-1.4 1.1,0.4 1.9,1.2 2.4,2.6 z"
   id="path56" />
	<path
   class="st0"
   d="m 131.5,509.5 c -0.3,0 -0.7,0 -1,0 -1.7,-0.1 -3.3,-0.5 -4.3,-2.1 -1.1,-1.7 -1.8,-3.5 -1.4,-5.5 1.2,-5.3 5.7,-7 10.4,-5.3 2.4,0.9 3.6,2.9 4.1,5.4 0,0.1 0.1,0.2 0,0.3 -0.7,1.6 -1.2,3.2 -2.1,4.7 -0.7,1.3 -2.2,1.9 -3.6,2.4 -0.6,0.2 -1.4,0.1 -2.1,0.1 0,0 0,0 0,0 z m 5.2,-6.3 c 0,-0.3 0,-0.6 0,-0.8 -0.1,-2.4 -2,-4 -4.3,-3.7 -0.5,0 -1,-0.1 -1.5,-0.1 -0.4,0 -0.8,0 -1.1,0.1 -2.5,1.1 -3.5,5.2 -1.9,7.4 1.2,1.6 3.9,2.2 6.2,1.4 1.8,-0.6 2.6,-1.9 2.6,-4.3 z"
   id="path58" />
	<path
   class="st0"
   d="m 157.5,508 c -0.4,1.7 -0.9,3.4 -1.3,5.1 -0.2,1 -0.5,2 -0.6,3 -0.2,1.4 0.4,2.2 1.7,2.5 1.4,0.3 2.4,0 2.8,-1.4 0.7,-2 1.2,-4.1 1.7,-6.1 0.2,-0.6 0.4,-1.2 0.7,-2 0.7,0.2 1.4,0.4 2.1,0.7 -0.1,0.7 0,1.3 -0.2,1.9 -0.5,2 -1.1,4 -1.6,6 -0.1,0.4 -0.2,0.8 -0.4,1.1 -0.8,1.5 -1.8,2.5 -3.7,2.4 -1.5,0 -2.9,-0.4 -4.2,-1.1 -1.6,-0.8 -2.3,-2 -2,-3.7 0.2,-1.6 0.7,-3.2 1.1,-4.7 0.2,-0.9 0.7,-1.8 0.9,-2.7 0.6,-2.1 1.1,-2.3 3,-1 z"
   id="path60" />
	<path
   class="st0"
   d="m 205.3,525 c 0.8,-2.3 2.2,-4.3 3.1,-6.7 -0.7,-0.9 -1.4,-1.8 -2.2,-2.7 -0.7,-0.8 -1.4,-1.7 -2.2,-2.5 1.7,-0.9 2.6,-0.8 3.6,0.3 0.7,0.7 1.4,1.4 2.2,2.1 0.9,-0.6 1.1,-1.6 1.5,-2.4 0.8,-1.4 1.5,-1.7 3.3,-1.2 -0.1,0.4 -0.1,0.7 -0.3,1.1 -0.6,1.3 -1.2,2.6 -1.9,3.9 -0.4,0.7 -0.4,1.3 0.2,2 1.1,1.2 2.2,2.6 3.2,3.8 0.2,0.3 0.5,0.6 0.7,0.9 -1.2,1.1 -2.5,1.1 -3.5,-0.1 -0.7,-0.8 -1.4,-1.7 -2.1,-2.4 -1,0.2 -1,0.9 -1.3,1.4 -0.4,0.7 -0.9,1.4 -1.4,2.1 -0.7,0.8 -1.7,0.9 -2.9,0.4 z"
   id="path62" />
	<path
   class="st0"
   d="m 176.6,512 c -0.1,0.2 -0.2,0.4 -0.3,0.5 -1.2,1.2 -2.4,2.3 -3.6,3.5 -0.7,0.7 -0.8,1.4 -0.4,2.3 0.7,1.5 1.3,3 1.9,4.5 0.2,0.4 0.3,0.8 0.4,1.2 -2.2,0.3 -2.8,0 -3.5,-1.8 -0.4,-0.9 -0.8,-1.7 -1.1,-2.6 0,0 -0.1,-0.1 -0.3,-0.2 -0.2,0.2 -0.5,0.4 -0.8,0.6 -0.4,0.4 -0.9,0.9 -1.3,1.3 -1.6,1.6 -2,1.7 -4.3,0.8 0.1,-0.9 0.8,-1.3 1.3,-1.8 1.1,-1 2.1,-2 3.2,-3 0.6,-0.6 0.7,-1.3 0.3,-2.1 -0.6,-1.3 -1.2,-2.7 -1.7,-4 -0.1,-0.4 -0.2,-0.7 -0.3,-1.1 2.1,-0.2 2.7,0.1 3.4,1.7 0.3,0.7 0.7,1.4 1,2.2 1,-0.3 1.5,-1.1 2.1,-1.7 1.3,-1.2 2.1,-1.3 4,-0.3 z"
   id="path64" />
	<path
   class="st0"
   d="m 203.8,525.3 c -2,0.7 -2.5,0.5 -3.2,-1.2 -0.2,-0.5 -0.4,-0.9 -0.7,-1.3 -1.8,0 -3.4,0 -5.1,0 -0.2,0.4 -0.4,0.8 -0.5,1.2 -0.6,1.6 -0.6,1.6 -2.2,1.7 -0.3,0 -0.6,0 -0.9,0 0,-0.3 0,-0.6 0.1,-0.8 1.3,-3.5 2.6,-6.9 3.9,-10.4 0.6,-1.5 0.9,-1.7 2.5,-1.7 0.8,0 1.4,0.4 1.7,1.1 0.6,1.6 1.3,3.1 2,4.6 0.8,1.9 1.6,3.8 2.4,5.7 -0.2,0.5 -0.1,0.8 0,1.1 z m -7.4,-9.1 c -0.2,1.4 -1.5,2.8 -1,4.6 1.4,0.2 2.6,0.3 4,-0.1 -0.1,-0.5 0,-0.9 -0.1,-1.3 -0.2,-0.8 -0.6,-1.5 -0.9,-2.3 -0.3,-0.9 -0.8,-1.3 -2,-0.9 z"
   id="path66" />
	<path
   class="st0"
   d="m 219.1,510.8 c 1,-0.2 1.8,-0.4 2.8,-0.6 1.7,2.5 3.3,5 5.1,7.8 0.2,-0.5 0.4,-0.7 0.4,-1 0.2,-2.2 0.3,-4.3 0.5,-6.5 0.1,-2 0.7,-2.5 3,-2.1 0,0.7 0.2,1.6 -0.1,2.2 -0.8,1.6 -0.5,3.4 -0.8,5.1 -0.2,1.2 -0.3,2.5 -0.4,3.8 -0.2,1.8 -0.2,1.8 -1.9,2.2 -0.3,0.1 -0.5,0.1 -1,0.2 -2.6,-3.6 -5,-7.2 -7.6,-11.1 z"
   id="path68" />
	<path
   class="st0"
   d="m 184.6,520.6 c -0.3,1.6 -0.5,3 -0.8,4.6 -0.9,-0.2 -1.6,-0.3 -2.4,-0.5 0.3,-4.2 0.6,-8.2 1,-12.2 1.6,0 3,0 4.4,0 0.8,0 1.6,0.2 2.3,0.3 1.9,0.3 3.2,1.9 3.1,4 -0.1,2.2 -1.5,3.7 -3.5,3.8 -1.3,0.1 -2.6,0 -4.1,0 z m -0.3,-1.7 c 1.4,0 2.5,0 3.7,0 1.2,0 1.5,-0.3 1.9,-1.5 0.3,-1 0.1,-1.7 -0.6,-2.4 -0.8,-0.7 -3.5,-1.2 -4.3,-0.6 -1,0.7 -0.8,1.9 -0.8,2.9 -0.1,0.5 0,0.9 0.1,1.6 z"
   id="path70" />
	<path
   class="st0"
   d="m 144.8,514.2 c 2,0.9 3.8,1.7 5.8,2.5 -0.3,0.7 -0.6,1.2 -0.9,1.9 -2.9,-1.1 -5.6,-2.2 -8.3,-3.2 0.2,-2.3 1.6,-3.9 2.4,-5.8 0.8,-1.9 1.3,-3.9 2.4,-5.8 0.8,0.4 1.5,0.6 2.3,1 -0.6,1.6 -1.2,3.2 -1.8,4.7 -0.7,1.5 -1.3,3 -1.9,4.7 z"
   id="path72" />
	<path
   class="st0"
   d="m 231.6,507.8 c 0.7,-0.2 1.4,-0.4 2.2,-0.7 1.6,3.9 2.4,7.9 3.8,11.9 -0.8,0.3 -1.5,0.6 -2.1,0.9 -0.8,-1.1 -3.2,-8.6 -3.9,-12.1 z"
   id="path74" />
	<path
   class="st0"
   d="m 139.2,505.6 c 0.1,1.6 -0.6,2.6 -1.6,3.5 -1.7,1.4 -3.6,2.4 -6,1.8 1,-0.3 2,-0.6 2.9,-1 0.9,-0.4 1.8,-1 2.5,-1.6 0.8,-0.8 1.4,-1.7 2.2,-2.7 z"
   id="path76" />
	<path
   class="st0"
   d="m 260.6,511 c 1.6,-0.6 3.1,-0.9 4.4,-1.6 1.2,-0.7 2.2,-1.8 3.2,-2.8 -0.1,2.3 -3.9,5.1 -7.6,4.4 z"
   id="path78" />
	<path
   class="st0"
   d="m 237.8,161.9 c 1,-1.2 1.8,-2.3 2.8,-3.3 1.2,-1.1 2.7,-1.8 4.4,-1.9 2.3,-0.1 4.6,-0.3 6.9,-0.3 1.1,0 1.9,-0.4 2.6,-1.3 0.4,-0.5 0.8,-1.3 1.6,-0.8 0.7,0.4 0.5,1.2 0.3,1.8 -0.2,0.8 -0.7,1.4 -1.6,1.6 -1.4,0.2 -2.7,0.5 -4.1,0.6 -1.7,0.1 -3.4,0.1 -5,0.2 -1.3,0.1 -2.2,0.7 -2.8,1.9 -0.3,0.5 -0.6,1.1 -1,1.5 -1.3,1.4 -3.2,1.3 -4.1,0 z"
   id="path80" />
	<path
   class="st0"
   d="m 255.7,161.6 c -0.8,1 -1.6,1.6 -2.9,1.6 -1,0 -1.4,0.8 -1.9,1.4 -1.2,1.5 -2.7,1.8 -4.3,1 -0.9,-0.4 -1.5,-1.8 -1.2,-2.7 0.2,-0.9 1.1,-0.9 1.7,-1.1 1.4,-0.3 2.9,-0.4 4.3,-0.8 1.5,-0.3 2.8,-0.2 4.3,0.6 z"
   id="path82" />
	<path
   d="m 271.4,317.4 c 0,0.7 0.1,1.3 0.1,1.8 0,8.7 0,17.5 0,26.2 0,3.9 0,7.8 0,11.8 -0.1,7.6 -0.2,15.2 -0.2,22.9 0,7.3 0.1,14.5 0.2,21.8 0,1.5 -0.4,2.5 -1.8,3.3 -5.5,3.4 -11,6.9 -16.5,10.4 -3.2,2 -6.5,4 -9.7,6 -4,2.5 -8.1,5 -12.1,7.5 -3.3,2.1 -6.6,4.1 -10,6.2 -3.9,2.5 -7.9,4.9 -11.8,7.4 -2.8,1.7 -5.6,3.5 -8.4,5.2 -0.9,0.6 -1.6,0.7 -2.6,0 -3.2,-2.1 -6.6,-4.1 -9.8,-6.1 -3.9,-2.4 -7.7,-4.8 -11.6,-7.2 -3.7,-2.3 -7.3,-4.6 -11,-6.8 -3.8,-2.3 -7.5,-4.7 -11.3,-7 -3.6,-2.2 -7.1,-4.4 -10.7,-6.6 -3.7,-2.3 -7.3,-4.6 -11,-6.8 -1.2,-0.7 -2.4,-1.4 -3.6,-2.1 -1,-0.5 -1.4,-1.3 -1.4,-2.5 0.1,-3.1 0,-6.3 0,-9.4 0,-24.7 0,-49.3 0,-74 0,-0.6 0.1,-1.2 0.1,-2 0.6,-0.1 1.2,-0.2 1.7,-0.2 5.8,0 11,-1.8 15.9,-4.7 0.9,-0.5 1.7,-1.1 2.4,-1.8 5.6,-4.4 9.7,-9.9 12.3,-16.5 0.6,-1.6 1.2,-3.1 1.8,-4.7 0.6,-1.6 0.6,-1.6 2.3,-1.6 8.1,0 16.2,0 24.4,0 15.4,0 30.8,0 46.2,0 0.3,0 0.6,0 0.8,0 1.8,0 1.7,0 2.4,1.7 0.6,1.5 1.1,3.1 1.8,4.5 2.3,4.3 4.4,8.8 7.5,12.7 2.9,3.6 6.6,6 10.8,7.8 2.9,1.3 6,2 9.2,2.3 1.3,0.1 2.3,0.3 3.6,0.5 z m -3.7,1.7 c -0.7,0 -1.1,-0.1 -1.6,-0.1 -3.4,0 -6.8,-0.5 -10.1,-1.6 -3.8,-1.4 -7.3,-3.1 -9.7,-6.3 -2.1,-2.8 -4.1,-5.6 -5.7,-8.6 -1.4,-2.6 -2.4,-5.5 -3.4,-8.4 -0.7,-1.8 -0.6,-1.8 -2.4,-1.8 -4.3,0 -8.5,0 -12.8,0 -18.7,0.1 -37.3,0.2 -56,0.3 -0.2,0 -0.3,0 -0.5,0 -1.3,0 -1.5,0.2 -1.9,1.4 -0.5,1.5 -1.1,3.1 -1.6,4.6 -2.3,5.9 -5.5,11.1 -10.6,15 -5.2,4.1 -11,6 -17.7,5.2 -0.6,-0.1 -1.2,0 -1.9,0 0,0.9 0,1.6 0,2.3 0,26.7 0,53.4 0,80 0,1.3 0.4,2.2 1.5,2.9 3.6,2.2 7.1,4.4 10.7,6.6 3.8,2.4 7.6,4.7 11.4,7.1 3.7,2.3 7.4,4.6 11.1,6.9 3.6,2.2 7.1,4.4 10.7,6.6 3.9,2.4 7.7,4.8 11.6,7.2 2.6,1.7 5.3,3.4 7.9,5.1 1,0.6 2.1,1.1 3.2,1.7 3.4,-2.1 6.8,-4.1 10.1,-6.2 3.6,-2.2 7.1,-4.4 10.7,-6.6 3.9,-2.4 7.8,-4.9 11.7,-7.3 3.4,-2.1 6.9,-4.2 10.3,-6.4 3.8,-2.4 7.6,-4.7 11.4,-7.1 4.1,-2.6 8.2,-5.2 12.4,-7.8 1.2,-0.7 1.6,-1.5 1.6,-2.8 0,-26.6 0,-53.2 0,-79.9 -0.3,-0.5 -0.4,-1.2 -0.4,-2 z"
   id="path84" />
	<path
   d="m 265.8,503 c 0,2.8 -1.8,4.6 -4.8,4.7 -2.5,0 -4.7,-1.9 -4.7,-4.3 0,-2.6 2.2,-4.7 4.9,-4.7 2.9,0 4.6,1.6 4.6,4.3 z"
   id="path86" />
	<path
   d="m 136.7,503.2 c 0,2.4 -0.8,3.7 -2.7,4.3 -2.3,0.8 -4.9,0.2 -6.2,-1.4 -1.7,-2.2 -0.7,-6.3 1.9,-7.4 0.3,-0.1 0.8,-0.1 1.1,-0.1 0.5,0 1,0.1 1.5,0.1 2.4,-0.2 4.2,1.4 4.3,3.7 0.1,0.3 0.1,0.5 0.1,0.8 z"
   id="path88" />
	<path
   d="m 196.4,516.2 c 1.1,-0.4 1.7,-0.1 2,0.8 0.3,0.8 0.6,1.5 0.9,2.3 0.1,0.4 0.1,0.8 0.1,1.3 -1.4,0.4 -2.6,0.3 -4,0.1 -0.5,-1.7 0.8,-3 1,-4.5 z"
   id="path90" />
	<path
   d="m 184.3,518.9 c -0.1,-0.7 -0.2,-1.1 -0.2,-1.5 0,-1 -0.2,-2.2 0.8,-2.9 0.8,-0.5 3.5,-0.1 4.3,0.6 0.8,0.7 1,1.4 0.6,2.4 -0.4,1.1 -0.7,1.4 -1.9,1.5 -1.1,-0.1 -2.3,-0.1 -3.6,-0.1 z"
   id="path92" />
	<path
   class="st0"
   d="m 267.7,319.1 c 0.1,0.8 0.1,1.5 0.1,2.1 0,26.6 0,53.2 0,79.9 0,1.3 -0.4,2.1 -1.6,2.8 -4.2,2.5 -8.2,5.2 -12.4,7.8 -3.8,2.4 -7.6,4.7 -11.4,7.1 -3.4,2.1 -6.9,4.2 -10.3,6.4 -3.9,2.4 -7.8,4.9 -11.7,7.3 -3.6,2.2 -7.1,4.5 -10.7,6.6 -3.3,2 -6.7,4.1 -10.1,6.2 -1,-0.5 -2.2,-1.1 -3.2,-1.7 -2.7,-1.7 -5.3,-3.4 -7.9,-5.1 -3.8,-2.4 -7.7,-4.8 -11.6,-7.2 -3.6,-2.2 -7.1,-4.4 -10.7,-6.6 -3.7,-2.3 -7.4,-4.6 -11.1,-6.9 -3.8,-2.4 -7.6,-4.7 -11.4,-7.1 -3.6,-2.2 -7.1,-4.5 -10.7,-6.6 -1.1,-0.7 -1.5,-1.5 -1.5,-2.9 0,-26.7 0,-53.4 0,-80 0,-0.7 0,-1.4 0,-2.3 0.8,0 1.4,-0.1 1.9,0 6.7,0.8 12.4,-1.2 17.7,-5.2 5.1,-3.9 8.3,-9.1 10.6,-15 0.6,-1.5 1.1,-3 1.6,-4.6 0.4,-1.2 0.6,-1.4 1.9,-1.4 0.2,0 0.3,0 0.5,0 18.7,-0.1 37.3,-0.2 56,-0.3 4.3,0 8.5,0 12.8,0 1.9,0 1.8,0 2.4,1.8 1.1,2.8 2,5.7 3.4,8.4 1.6,3 3.6,5.9 5.7,8.6 2.4,3.2 6,5 9.7,6.3 3.3,1.2 6.6,1.6 10.1,1.6 0.7,0 1.2,0 1.9,0 z m -4.9,5 c -1.2,-0.2 -2.1,-0.4 -3.1,-0.5 -3,-0.5 -5.8,-1.4 -8.5,-2.6 -5,-2.3 -8.6,-6.1 -11.6,-10.6 -2.3,-3.4 -4,-7.2 -5.5,-11.1 -0.7,-1.9 -0.8,-1.9 -2.8,-1.9 -18.4,0 -36.9,0 -55.3,0.1 -2.3,0 -4.6,0 -6.9,0 -1,0 -1.7,0.3 -1.9,1.3 -0.8,2.9 -2.4,5.3 -3.8,7.8 -2.8,4.9 -6,9.2 -10.9,12.4 -4.4,2.9 -9.1,4.7 -14.4,5.1 -1.5,0.1 -1.7,0.4 -1.6,1.9 0.1,1.6 0.2,3.1 0.2,4.7 0,21.2 0,42.4 0,63.5 0,1.5 -0.1,2.9 -0.2,4.4 -0.1,1.3 0.2,2.1 1.4,2.8 2.1,1.2 4.1,2.5 6.2,3.7 3.7,2.3 7.4,4.6 11.1,6.9 3.8,2.4 7.6,4.8 11.4,7.1 3.4,2.1 6.8,4.2 10.1,6.3 5.1,3.2 10.1,6.4 15.2,9.5 2.3,1.4 4.6,2.8 6.9,4.2 0.7,0.5 1.3,0.4 2,-0.1 3,-1.9 6.1,-3.8 9.1,-5.7 3.8,-2.4 7.6,-4.7 11.4,-7.1 3.5,-2.1 6.9,-4.3 10.4,-6.5 3.6,-2.2 7.2,-4.5 10.8,-6.8 3.5,-2.2 7.1,-4.3 10.6,-6.5 3,-1.9 6,-3.8 8.9,-5.7 1.4,-0.9 1.8,-1.8 1.2,-3.4 -0.4,-1.2 -0.4,-2.3 -0.4,-3.5 0,-22.5 0,-44.9 0,-67.4 0,-0.7 0,-1.4 0,-2.3 z"
   id="path94" />
	<path
   d="m 262.8,324.1 c 0,0.9 0,1.6 0,2.3 0,22.5 0,44.9 0,67.4 0,1.2 0,2.3 0.4,3.5 0.6,1.6 0.2,2.5 -1.2,3.4 -3,1.9 -5.9,3.8 -8.9,5.7 -3.5,2.2 -7.1,4.3 -10.6,6.5 -3.6,2.2 -7.2,4.5 -10.8,6.8 -3.5,2.2 -6.9,4.3 -10.4,6.5 -3.8,2.4 -7.6,4.7 -11.4,7.1 -3,1.9 -6.1,3.8 -9.1,5.7 -0.7,0.5 -1.3,0.5 -2,0.1 -2.3,-1.4 -4.6,-2.8 -6.9,-4.2 -5.1,-3.2 -10.2,-6.3 -15.2,-9.5 -3.4,-2.1 -6.8,-4.2 -10.1,-6.3 -3.8,-2.4 -7.6,-4.8 -11.4,-7.1 -3.7,-2.3 -7.4,-4.6 -11.1,-6.9 -2.1,-1.3 -4.1,-2.5 -6.2,-3.7 -1.1,-0.6 -1.5,-1.5 -1.4,-2.8 0.1,-1.5 0.2,-2.9 0.2,-4.4 0,-21.2 0,-42.4 0,-63.5 0,-1.6 -0.1,-3.1 -0.2,-4.7 -0.1,-1.5 0.2,-1.8 1.6,-1.9 5.2,-0.5 10,-2.3 14.4,-5.1 4.8,-3.1 8.1,-7.5 10.9,-12.4 1.4,-2.5 3,-5 3.8,-7.8 0.3,-1 1,-1.3 1.9,-1.3 2.3,0 4.6,0 6.9,0 18.4,0 36.9,0 55.3,-0.1 2,0 2.1,0 2.8,1.9 1.5,3.9 3.2,7.7 5.5,11.1 3,4.5 6.6,8.3 11.6,10.6 2.7,1.2 5.6,2.1 8.5,2.6 1,0.1 1.9,0.3 3.1,0.5 z m -95.4,1.7 c 0,0.5 -0.1,1 -0.1,1.4 0.2,17.2 -0.5,34.5 0.3,51.8 0.1,1.3 0.4,2.2 1.6,2.9 2.4,1.4 4.8,2.9 7.2,4.4 4.1,2.5 8.1,5 12.1,7.5 3.6,2.2 7.2,4.4 10.7,6.6 0.7,0.4 1.3,0.4 2,0 2.8,-1.6 5.5,-3.2 8.3,-4.8 3.8,-2.2 7.5,-4.4 11.3,-6.6 3.6,-2.1 7.1,-4.2 10.7,-6.2 1.1,-0.6 1.7,-1.4 1.7,-2.8 -0.1,-6.2 0,-12.3 0,-18.5 0,-11.2 0,-22.4 0,-33.6 0,-0.7 -0.1,-1.4 -0.2,-2 -1.8,-0.5 -64.2,-0.5 -65.6,-0.1 z M 216.6,307 c -0.4,2.2 -0.2,10.5 0.2,11.9 2.6,0 5.3,0.1 8,0 0.3,-0.8 0.5,-1.4 0.7,-2 0.2,-0.6 0.6,-1 1.2,-1 0.4,0 0.9,0 1.3,0 0.8,0 1.3,0.4 1.5,1.3 0.1,0.6 0.4,1.1 0.6,1.8 0.7,0 1.2,-0.1 2,-0.1 -0.1,-0.8 -0.2,-1.4 -0.4,-2 -0.9,-2.9 -1.8,-5.8 -2.6,-8.6 -0.1,-0.4 -0.3,-0.8 -0.4,-1.3 -0.8,0 -1.5,0 -2.3,0 -1.1,3.6 -2.1,7 -3,10.3 -1.7,0 -3.2,0 -4.8,0 -0.1,-0.7 -0.2,-1.3 -0.2,-1.9 0,-2.4 0,-4.8 0,-7.2 -0.1,-1.4 -0.3,-1.5 -1.8,-1.2 z m 32.5,85.9 c 0,0.1 0,0.3 0,0.5 -0.5,0.2 -1,0.4 -1.5,0.5 -1.6,0.5 -3.2,0.9 -4.9,1.3 -0.8,0.2 -1.1,0.7 -1.1,1.4 0,0.5 0.1,1.1 0.1,1.7 3.6,0 7.1,0 10.5,0 0.5,0 1.3,0.1 1.3,-0.7 0,-0.8 -0.7,-0.7 -1.2,-0.7 -0.3,0 -0.7,0 -1,0 -1.8,0 -3.6,0 -5.4,0 -0.3,0 -0.7,-0.1 -1.4,-0.3 0.6,-0.3 0.9,-0.5 1.2,-0.5 1,-0.3 2.1,-0.5 3.1,-0.8 1.4,-0.4 2.7,-0.7 4,-1.1 0.3,-0.1 0.6,-0.4 0.6,-0.7 0,-0.3 -0.3,-0.7 -0.5,-0.9 -0.1,-0.1 -0.4,-0.2 -0.6,-0.2 -2.1,-0.5 -4.2,-1 -6.4,-1.6 -0.5,-0.1 -1,-0.2 -1.5,-0.9 0.8,0 1.4,0 2,0 1.7,0 3.4,0 5,0 0.4,0 0.8,0 1.2,-0.1 0.5,-0.1 0.9,-0.4 0.8,-0.9 -0.1,-0.3 -0.4,-0.6 -0.7,-0.7 -0.2,-0.1 -0.6,-0.1 -0.8,-0.1 -3,0 -5.9,0 -8.9,0 -0.4,0 -0.9,0.1 -1.2,0.2 -0.5,2.1 -0.3,2.4 1.4,3 0.7,0.2 1.5,0.4 2.3,0.6 1.2,0.3 2.4,0.6 3.6,1 z M 190,422 c 2.7,1.1 5.9,0.2 7.7,-2.1 1.1,-1.4 1.2,-5.6 0.2,-7.1 -1.5,-2.3 -4.9,-3.3 -7.8,-2.4 -0.3,1.1 -0.4,9 -0.1,11.6 z m -44.4,-41.8 c 0.5,0.1 0.9,0.2 1.4,0.2 3.1,0 6.3,0 9.4,0 0.2,0 0.4,0 0.7,0 0.5,-0.1 0.9,-0.3 0.8,-0.8 0,-0.5 -0.4,-0.8 -0.9,-0.8 -0.4,0 -0.8,0 -1.2,0 -1.7,0 -3.4,0 -5,0 -0.3,0 -0.7,-0.1 -1.3,-0.3 0.8,-0.4 1.3,-0.6 1.8,-0.8 1.7,-0.7 3.4,-1.4 5.1,-2.1 1.6,-0.7 1.8,-1 1.2,-2.8 -0.1,-0.1 -0.2,-0.2 -0.3,-0.2 -3.7,0 -7.4,-0.1 -11.1,-0.1 -0.5,0 -0.9,0.3 -0.8,0.9 0.1,0.3 0.4,0.6 0.7,0.7 0.3,0.1 0.8,0.1 1.2,0.1 2,0 4,0 6,0 0.4,0 0.8,0.1 1.4,0.2 -3,1.3 -5.6,2.5 -8.3,3.6 -1,0.4 -1,0.5 -0.8,2.2 z m 5.9,-9.7 c 1.3,-0.2 2.7,-0.4 4,-0.8 1.8,-0.6 2.7,-2.1 2.6,-3.8 -0.1,-1.8 -1.1,-3.2 -2.9,-3.7 -2.5,-0.7 -4.9,-0.8 -7.4,0 -1.8,0.6 -2.9,2.1 -2.9,3.9 0,1.8 0.9,3.2 2.8,3.8 1.2,0.3 2.5,0.4 3.8,0.6 z m -1.8,-35.4 c 0,-0.1 0,-0.2 0,-0.4 0.3,-0.1 0.6,-0.3 0.9,-0.4 2,-0.8 4,-1.6 6,-2.5 1.4,-0.6 1.5,-0.9 1,-2.9 -3.9,0 -7.9,0 -11.9,0 -0.2,1.5 0,1.7 1.3,1.6 2.1,-0.1 4.2,-0.1 6.3,-0.2 0.4,0 1,-0.2 1.2,0.4 -2.7,1.2 -5.4,2.3 -8,3.5 -1.2,0.6 -1.3,0.8 -0.8,2.2 0.1,0 0.2,0.1 0.3,0.1 3.6,0 7.3,0.1 10.9,0.1 0.5,0 0.9,-0.1 0.9,-0.7 0,-0.5 -0.3,-0.8 -0.8,-0.9 -0.3,0 -0.6,-0.1 -0.8,0 -1.8,0 -3.7,0.1 -5.5,0.1 -0.4,0.1 -0.7,0 -1,0 z m 53.7,-28.3 c -0.1,0.8 -0.1,1.3 -0.1,1.9 0,1.9 0,3.8 0,5.7 0,0.5 0,0.9 -0.1,1.3 -0.2,1.2 -1,1.9 -2.1,1.8 -1,-0.1 -1.5,-0.7 -1.6,-2 0,-0.5 0,-0.9 0,-1.3 0,-1.8 0,-3.6 0,-5.4 0,-0.6 -0.1,-1.2 -0.2,-2 -0.8,0 -1.5,0.1 -2.4,0.1 -0.1,3.1 -0.4,6.1 0.1,9 0.4,2.4 2.2,3.5 4.7,3.2 2.1,-0.2 3.1,-1.4 3.2,-3.8 0.1,-2.6 0,-5.3 0,-7.9 0,-0.2 -0.1,-0.3 -0.2,-0.6 -0.2,0.1 -0.7,0 -1.3,0 z m 44.8,40.9 c -0.5,-0.4 -0.9,-0.8 -1.4,-1.1 -1.8,-1.2 -4.4,-0.4 -5,1.5 -0.5,1.6 -0.4,3.3 0,4.9 2.1,0.4 10.4,0.3 11.6,-0.1 0.3,-1.4 0.1,-1.7 -1.1,-1.7 -0.8,0 -1.7,0 -2.5,0 -0.4,0 -0.8,-0.1 -1.2,-0.2 -0.4,-1 0.1,-1.5 0.9,-1.8 1,-0.4 2,-0.7 3,-1.1 1.2,-0.4 1.3,-0.8 0.9,-2.2 -1.9,0.1 -3.4,1.2 -5.2,1.8 z m -7.1,-7.5 c 0.1,0.3 0.4,0.6 0.4,0.9 0.6,1.9 2,2.8 3.8,3.1 2.3,0.4 4.6,0.3 6.8,-1 2.2,-1.4 2.4,-4.5 0.2,-6 -2.5,-1.7 -5.3,-1.6 -8,-0.8 -1.3,0.3 -2.2,1.2 -2.6,2.6 -0.2,0.4 -0.5,0.8 -0.6,1.2 z m -55.9,-30.9 c -0.4,-0.6 -0.6,-1.2 -1,-1.6 -1.1,-1.3 -3.3,-1.6 -4.8,-0.8 -1.5,0.9 -2.2,2.7 -1.5,4.3 0.4,1.1 1.3,1.6 2.3,2 0.8,0.4 1.6,0.7 2.4,1.2 0.6,0.4 0.9,1 0.6,1.8 -0.3,0.7 -0.7,1.1 -1.5,1.2 -0.9,0.1 -1.7,-0.1 -2.2,-0.9 -0.2,-0.4 -0.5,-0.7 -0.8,-1.1 -0.5,0.2 -0.9,0.3 -1.4,0.5 0.1,0.4 0,0.6 0.1,0.8 0.8,2 2.3,2.8 4.8,2.5 1.6,-0.2 2.9,-1.3 3.2,-3 0.3,-1.3 -0.3,-2.8 -1.6,-3.6 -0.6,-0.4 -1.3,-0.6 -2,-0.9 -0.6,-0.3 -1.2,-0.6 -1.7,-1.1 -0.5,-0.5 -0.5,-1.1 -0.1,-1.7 0.4,-0.6 1.2,-0.9 1.7,-0.6 0.6,0.3 1,0.8 1.5,1.3 0.2,0.1 0.3,0.3 0.6,0.5 0.4,-0.3 0.8,-0.5 1.4,-0.8 z m 25.2,2.4 c -0.4,-1.6 -0.4,-1.8 0.1,-3.2 0.5,0 1.1,-0.1 1.7,-0.1 0.6,0 1.2,0 1.8,0 0.8,-0.1 0.9,-0.2 0.8,-1.4 -1.5,-0.5 -5.8,-0.5 -7,0.1 -0.4,2 -0.3,10.4 0.2,11.7 2.3,0 4.6,0 7.1,0 0,-0.5 0,-0.9 0,-1.3 -1.6,-0.5 -3.3,0.2 -5,-0.5 -0.1,-1.1 -0.3,-2.2 0.2,-3.4 0.6,0 1.2,-0.1 1.8,-0.1 0.6,0 1.2,-0.1 1.8,-0.2 0,-1.3 -0.1,-1.4 -0.9,-1.5 -0.9,0 -1.8,-0.1 -2.6,-0.1 z m 40,23.4 c 0.8,-0.4 1.4,-0.8 2,-1 1.8,-0.8 1.7,-4.6 0.5,-5.7 -1.3,-1.2 -3.2,-1.6 -4.5,-0.9 -0.9,0.5 -1.4,1.3 -1.8,2.2 -0.3,0.7 -0.6,1.5 -1,2.1 -0.5,0.8 -1.1,1 -1.7,0.7 -0.7,-0.4 -1.1,-1.3 -0.8,-2 0.2,-0.4 0.6,-0.8 0.9,-1.2 0.6,-0.7 0.6,-0.8 -0.1,-1.8 -1.9,0.4 -2.3,2.1 -3,3.5 0.3,0.7 0.6,1.3 0.9,2 1.1,1.9 3.4,2.2 4.9,0.7 0.4,-0.5 0.7,-1.1 1.1,-1.7 0.4,-0.7 0.6,-1.4 1.1,-2.1 0.4,-0.6 0.9,-1 1.7,-0.7 0.7,0.3 1,0.9 1,1.6 0,0.7 -0.2,1.3 -0.7,1.8 -0.4,0.3 -0.8,0.6 -1.2,1 0.2,0.4 0.4,0.8 0.7,1.5 z m -104.7,11.7 c 1,-0.2 1.9,-0.4 2.8,-0.7 2.7,-0.7 5.4,-1.4 8.1,-2.1 1.1,-0.3 1.2,-0.6 1.2,-1.5 0,-0.9 -0.2,-1.2 -1.3,-1.5 -3.4,-1 -6.8,-1.9 -10.2,-2.9 -0.3,-0.1 -0.6,0 -0.9,0 -0.1,1.5 -0.1,1.5 0.9,1.8 0.6,0.2 1.1,0.4 1.8,0.6 0,0.9 0,1.7 0,2.6 0,0.6 -0.3,1 -0.9,1.1 -0.4,0.1 -0.8,0.2 -1.1,0.3 -0.7,0.6 -0.7,0.7 -0.4,2.3 z m 3.7,7.7 c -0.5,-0.2 -0.8,-0.4 -1.2,-0.5 -0.8,-0.3 -1.4,-0.8 -1.4,-1.7 0,-0.9 0.5,-1.6 1.4,-1.9 2.3,-0.9 4.6,-0.6 6.9,0.1 0.8,0.2 1.3,0.9 1.3,1.8 0,0.9 -0.7,1.4 -1.4,1.7 -0.5,0.2 -1,0.3 -1.5,0.5 0.2,1.4 0.6,1.8 1.6,1.5 2.1,-0.5 3.3,-2.4 3,-4.6 -0.3,-1.6 -1.3,-2.6 -2.7,-3.1 -2.4,-0.9 -4.9,-0.9 -7.4,-0.1 -0.6,0.2 -1.1,0.5 -1.6,0.9 -1.2,1 -1.6,3 -1,4.6 0.6,1.5 1.8,2.2 3.7,2.2 0,-0.4 0.1,-0.9 0.3,-1.4 z m 53.5,57.4 c 0.5,0 1.1,-0.1 1.6,-0.1 0.7,0 1.3,0 2,0 0.5,0 1,-0.1 1,-0.8 0,-0.6 -0.5,-0.9 -1,-0.9 -1.8,0 -3.6,0 -5.4,0.1 -0.1,0 -0.3,0.2 -0.6,0.4 0,1.2 0,2.6 0,3.9 0,1.3 -0.1,2.6 0,3.9 0.1,1.3 -0.3,2.7 0.3,3.9 2.1,0.4 5.7,0.3 6.8,-0.2 -0.1,-1.2 -0.1,-1.2 -1.2,-1.3 -1.2,-0.1 -2.4,0.2 -3.8,-0.3 -0.1,-1.1 -0.4,-2.3 0.2,-3.5 0.6,0 1.1,0.1 1.7,0.1 0.4,0 0.9,0 1.3,-0.1 0.3,-0.1 0.5,-0.5 0.6,-0.9 0,-0.2 -0.4,-0.5 -0.6,-0.6 -0.4,-0.1 -0.9,0 -1.3,-0.1 -0.6,0 -1.2,-0.1 -1.7,-0.2 -0.2,-1.3 -0.3,-2.2 0.1,-3.3 z m -45.3,-26.6 c -4,-1.1 -7.9,-2.3 -11.9,-3.3 -0.3,1.5 -0.3,1.7 0.8,2 0.4,0.1 0.8,0.2 1.1,0.4 0.3,0.1 0.6,0.5 0.6,0.7 0,0.9 0.1,1.8 -0.2,2.6 -0.1,0.4 -1,0.6 -1.5,0.8 -1.2,0.4 -1.3,0.5 -0.9,2.1 0.4,0 0.7,0 1.1,-0.1 3.1,-0.8 6.3,-1.6 9.4,-2.4 1.9,-0.4 2,-0.6 1.5,-2.8 z m 84.1,-8.4 c 2,0.5 10.5,0.5 11.9,-0.1 0.1,-1.9 0.1,-3.8 0,-5.8 0,-0.5 -0.4,-0.7 -0.9,-0.7 -0.5,0 -0.9,0.2 -0.9,0.8 -0.1,0.7 0,1.5 -0.1,2.2 0,0.6 -0.1,1.2 -0.2,1.8 -1.2,0.2 -2.2,0.4 -3.3,-0.2 -0.1,-1.1 -0.2,-2.2 -0.3,-3.2 -1.3,-0.1 -1.5,0 -1.4,1 0.1,0.8 0.4,1.7 -0.3,2.5 -0.8,0 -1.8,0.4 -2.8,-0.3 0,-0.5 0,-1.1 0,-1.7 0,-0.6 0,-1.1 0,-1.7 0,-0.5 -0.3,-0.9 -0.9,-0.8 -0.3,0.1 -0.7,0.5 -0.7,0.8 -0.2,1.8 -0.1,3.6 -0.1,5.4 z m 2.3,-14.7 c -1.1,0.4 -2.1,1.1 -2.3,2.3 -0.3,1.4 -0.3,2.8 0.9,3.9 1.2,1.1 2.8,1.2 3.9,0.2 0.6,-0.5 1,-1.3 1.4,-2 0.4,-0.7 0.7,-1.6 1.2,-2.2 0.8,-1 2.1,-0.7 2.5,0.5 0.3,1 0,2.1 -0.8,2.7 -0.3,0.2 -0.6,0.4 -1,0.7 0.2,0.5 0.4,0.9 0.6,1.4 1.1,-0.1 1.8,-0.6 2.5,-1.2 1.6,-1.3 1.2,-4.7 -0.5,-5.8 -2.2,-1.4 -4.4,-0.8 -5.5,1.6 -0.4,0.8 -0.6,1.5 -1.1,2.3 -0.4,0.8 -1,0.9 -1.7,0.6 -0.7,-0.3 -1.1,-1.1 -0.9,-1.8 0.2,-0.5 0.5,-1 0.9,-1.3 0.5,-0.7 0.7,-1.3 -0.1,-1.9 z m -48.7,-51.6 c 0,-2.1 -1.1,-3.6 -2.9,-4 -1.8,-0.4 -3.8,0.6 -4.5,2.4 -1,2.5 -1.1,5 -0.2,7.5 0.9,2.4 2.8,3.3 5.2,2.6 1.6,-0.5 2.4,-1.8 2.4,-3.5 -1.3,-0.4 -1.3,-0.5 -2,0.8 -0.4,0.8 -0.9,1.2 -1.8,1.2 -0.9,0 -1.4,-0.6 -1.8,-1.4 -0.1,-0.3 -0.3,-0.6 -0.3,-1 -0.3,-1.6 -0.3,-3.2 0.1,-4.8 0.1,-0.4 0.3,-0.9 0.5,-1.2 0.9,-1.3 2.2,-1.2 3,0 0.3,0.5 0.5,1.1 0.9,1.7 0.5,-0.1 1,-0.2 1.4,-0.3 z m -24.2,-2 c 0.8,0 1.4,-0.1 2,-0.1 0.7,0 1.5,0 2.2,0 1,-0.1 1,-0.2 0.7,-1.6 -2.3,-0.1 -4.6,-0.3 -6.9,0.1 -0.4,2.2 -0.2,10.7 0.2,12 2.2,0.1 4.5,0 6.9,0.1 0,-0.6 0,-1.1 0,-1.7 -1.7,0 -3.3,0 -4.9,0 -0.4,-1.3 -0.4,-2.4 -0.1,-3.6 0.5,0 0.9,-0.1 1.4,-0.1 0.5,0 1,0 1.5,-0.1 0.3,-0.1 0.7,-0.5 0.7,-0.8 0,-0.3 -0.4,-0.6 -0.7,-0.8 -0.4,-0.1 -0.9,-0.1 -1.3,-0.1 -0.5,0 -1.1,-0.1 -1.7,-0.2 0,-1.1 0,-2 0,-3.1 z m 82.3,69.8 c -0.9,0.2 -1.6,0.2 -2.4,0.4 -2.3,0.6 -4.5,1.2 -6.8,1.9 -0.5,0.1 -1.1,0.3 -1.6,0.5 -0.8,0.3 -1,0.7 -0.9,1.6 0.1,0.8 0.7,1.1 1.4,1.3 2.9,0.9 5.8,1.7 8.7,2.5 0.5,0.1 1.1,0.2 1.6,0.2 0.4,-1.5 0.2,-1.7 -1.4,-2 -1.5,-0.3 -1.6,-0.4 -1.6,-1.9 0,-0.6 0.1,-1.2 0.1,-1.9 0.8,-0.2 1.5,-0.4 2.2,-0.6 1,-0.3 1,-0.4 0.7,-2 z m -9.6,-22 c -0.8,-0.9 0.1,-2.6 -2,-2.4 -0.1,2.1 -0.2,4.2 0,6.3 0,0.2 0.5,0.6 0.8,0.6 0.3,0 0.6,-0.4 0.7,-0.7 0.2,-0.5 0.2,-1.1 0.3,-1.8 0.8,0 1.4,0 2,0 2.3,0 4.6,0 6.9,0 1.2,0 1.4,-0.4 0.9,-1.9 -3.3,-0.1 -6.5,0.2 -9.6,-0.1 z m -98.2,35.8 c -0.3,1.9 -0.2,3.7 -0.1,5.6 0,0.2 0.5,0.6 0.7,0.6 0.3,0 0.7,-0.3 0.8,-0.6 0.1,-0.4 0.1,-0.9 0.1,-1.3 0.1,-0.7 0.1,-1.4 0.2,-2.3 0.8,0 1.4,0 2,0 2.2,0 4.5,0 6.7,0 0.6,0 1.2,-0.1 1.9,-0.2 -0.1,-0.7 -0.1,-1.2 -0.2,-1.8 -4.1,0 -8.1,0 -12.1,0 z m -0.2,-32.7 c 0.4,0.2 0.5,0.3 0.7,0.3 3.5,0 7,0.1 10.5,0 1.2,0 1.3,-0.4 0.9,-1.8 -1.5,-0.4 -10.6,-0.3 -12.1,0.1 0.1,0.4 0.1,0.9 0,1.4 z"
   id="path96" />
	<path
   class="st0"
   d="m 167.4,325.8 c 1.4,-0.4 63.8,-0.5 65.7,-0.1 0.1,0.6 0.2,1.3 0.2,2 0,11.2 0,22.4 0,33.6 0,6.2 -0.1,12.3 0,18.5 0,1.4 -0.6,2.1 -1.7,2.8 -3.6,2 -7.2,4.2 -10.7,6.2 -3.8,2.2 -7.5,4.4 -11.3,6.6 -2.8,1.6 -5.5,3.2 -8.3,4.8 -0.7,0.4 -1.3,0.4 -2,0 -3.6,-2.2 -7.1,-4.4 -10.7,-6.6 -4.1,-2.5 -8.1,-5 -12.1,-7.5 -2.4,-1.5 -4.8,-2.9 -7.2,-4.4 -1.1,-0.7 -1.5,-1.6 -1.6,-2.9 -0.8,-17.2 -0.1,-34.5 -0.3,-51.8 -0.1,-0.2 -0.1,-0.6 0,-1.2 z m 4.7,4.9 c 0,0.7 -0.1,1.4 -0.1,2.1 0,10.1 0,20.3 0,30.4 0,0.7 0,1.3 0,2 -0.1,3.8 -0.1,7.5 -0.2,11.2 0,0.9 0.3,1.5 1.1,1.9 1.3,0.8 2.6,1.5 3.9,2.3 3.7,2.2 7.3,4.5 11,6.8 3.8,2.3 7.5,4.6 11.3,7 0.9,0.6 1.7,0.6 2.6,0 2.6,-1.6 5.3,-3.1 8,-4.7 5.7,-3.4 11.4,-6.7 17.1,-10 1.2,-0.7 1.6,-1.5 1.6,-2.8 -0.1,-14.9 0,-29.7 0,-44.5 0,-0.6 -0.1,-1.2 -0.1,-1.8 -0.4,-0.1 -0.7,-0.3 -0.9,-0.3 -18,0 -36.1,0 -54.1,0 -0.5,0.1 -0.8,0.2 -1.2,0.4 z"
   id="path98" />
	<path
   class="st0"
   d="m 216.6,307 c 1.5,-0.3 1.8,-0.2 1.8,1.1 0.1,2.4 0,4.8 0,7.2 0,0.6 0.1,1.2 0.2,1.9 1.6,0 3.1,0 4.8,0 1,-3.3 2,-6.8 3,-10.3 0.8,0 1.5,0 2.3,0 0.2,0.5 0.3,0.9 0.4,1.3 0.9,2.9 1.8,5.8 2.6,8.6 0.2,0.6 0.2,1.2 0.4,2 -0.8,0 -1.4,0.1 -2,0.1 -0.2,-0.7 -0.5,-1.2 -0.6,-1.8 -0.2,-0.8 -0.7,-1.2 -1.5,-1.3 -0.4,0 -0.9,0 -1.3,0 -0.6,0 -1,0.4 -1.2,1 -0.2,0.6 -0.4,1.3 -0.7,2 -2.7,0.1 -5.4,0.1 -8,0 -0.5,-1.2 -0.6,-9.6 -0.2,-11.8 z m 12.2,7.3 c -0.3,-1.8 -0.7,-3.2 -1.4,-4.6 -0.7,1.5 -0.9,2.9 -1.2,4.6 0.9,0 1.6,0 2.6,0 z"
   id="path100" />
	<path
   class="st0"
   d="m 249.1,392.9 c -1.2,-0.3 -2.3,-0.7 -3.5,-1 -0.8,-0.2 -1.5,-0.4 -2.3,-0.6 -1.8,-0.6 -1.9,-0.9 -1.4,-3 0.4,-0.1 0.8,-0.2 1.2,-0.2 3,0 5.9,0 8.9,0 0.3,0 0.6,-0.1 0.8,0.1 0.3,0.2 0.7,0.4 0.7,0.7 0.1,0.5 -0.2,0.8 -0.8,0.9 -0.4,0 -0.8,0.1 -1.2,0.1 -1.7,0 -3.4,0 -5,0 -0.6,0 -1.2,0 -2,0 0.5,0.7 1,0.8 1.5,0.9 2.1,0.5 4.2,1 6.4,1.6 0.2,0 0.5,0.1 0.6,0.2 0.2,0.3 0.5,0.6 0.5,0.9 0,0.2 -0.4,0.6 -0.6,0.7 -1.3,0.4 -2.7,0.8 -4,1.1 -1,0.3 -2.1,0.5 -3.1,0.8 -0.3,0.1 -0.6,0.3 -1.2,0.5 0.7,0.1 1.1,0.3 1.4,0.3 1.8,0 3.6,0 5.4,0 0.3,0 0.7,0 1,0 0.5,0 1.2,-0.1 1.2,0.7 0,0.8 -0.7,0.7 -1.3,0.7 -3.5,0 -6.9,0 -10.5,0 -0.1,-0.6 -0.1,-1.2 -0.1,-1.7 0,-0.8 0.3,-1.2 1.1,-1.4 1.6,-0.4 3.2,-0.9 4.9,-1.3 0.5,-0.1 1,-0.3 1.5,-0.5 -0.1,-0.2 -0.1,-0.4 -0.1,-0.5 z"
   id="path102" />
	<path
   class="st0"
   d="m 190,422 c -0.3,-2.6 -0.2,-10.4 0.1,-11.6 2.9,-0.9 6.2,0.2 7.8,2.4 1,1.5 0.9,5.7 -0.2,7.1 -1.8,2.3 -5,3.2 -7.7,2.1 z m 1.9,-1.6 c 1.8,0.4 2.8,0 3.4,-1.1 1.1,-2 1.1,-4.1 0,-6.1 -0.7,-1.3 -1.8,-1.6 -3.4,-1.1 0,2.7 0,5.5 0,8.3 z"
   id="path104" />
	<path
   class="st0"
   d="m 145.6,380.2 c -0.2,-1.7 -0.2,-1.8 1,-2.3 2.6,-1.2 5.3,-2.3 8.3,-3.6 -0.7,-0.1 -1.1,-0.2 -1.4,-0.2 -2,0 -4,0 -6,0 -0.4,0 -0.8,0.1 -1.2,-0.1 -0.3,-0.1 -0.7,-0.4 -0.7,-0.7 -0.1,-0.5 0.3,-0.9 0.8,-0.9 3.7,0 7.4,0.1 11.1,0.1 0.1,0 0.2,0.1 0.3,0.2 0.5,1.8 0.4,2.1 -1.2,2.8 -1.7,0.7 -3.4,1.4 -5.1,2.1 -0.5,0.2 -1,0.5 -1.8,0.8 0.7,0.2 1,0.3 1.3,0.3 1.7,0 3.4,0 5,0 0.4,0 0.8,0 1.2,0 0.5,0 0.9,0.2 0.9,0.8 0,0.6 -0.3,0.8 -0.8,0.8 -0.2,0 -0.4,0 -0.7,0 -3.1,0 -6.3,0 -9.4,0 -0.7,0.1 -1.1,0 -1.6,-0.1 z"
   id="path106" />
	<path
   class="st0"
   d="m 151.5,370.5 c -1.3,-0.2 -2.6,-0.3 -3.7,-0.7 -1.8,-0.6 -2.8,-2 -2.8,-3.8 0,-1.8 1,-3.3 2.9,-3.9 2.5,-0.8 4.9,-0.7 7.4,0 1.7,0.5 2.8,2 2.9,3.7 0.1,1.8 -0.8,3.2 -2.6,3.8 -1.4,0.6 -2.8,0.7 -4.1,0.9 z m 0.2,-2.1 c 1.1,-0.2 2.3,-0.4 3.5,-0.7 0.7,-0.2 1.2,-0.8 1.2,-1.6 0,-0.9 -0.5,-1.5 -1.3,-1.8 -0.1,-0.1 -0.3,-0.1 -0.5,-0.2 -2.1,-0.4 -4.1,-0.5 -6.1,0 -1.2,0.3 -1.7,0.9 -1.7,1.8 0,0.9 0.5,1.6 1.6,1.9 1,0.4 2.1,0.4 3.3,0.6 z"
   id="path108" />
	<path
   class="st0"
   d="m 149.7,335.1 c 0.3,0 0.6,0.1 0.9,0.1 1.8,0 3.7,-0.1 5.5,-0.1 0.3,0 0.6,0 0.8,0 0.5,0.1 0.8,0.3 0.8,0.9 0,0.6 -0.5,0.7 -0.9,0.7 -3.6,0 -7.3,0 -10.9,-0.1 -0.1,0 -0.2,-0.1 -0.3,-0.1 -0.5,-1.4 -0.4,-1.6 0.8,-2.2 2.6,-1.2 5.3,-2.3 8,-3.5 -0.2,-0.6 -0.8,-0.4 -1.2,-0.4 -2.1,0 -4.2,0.1 -6.3,0.2 -1.3,0 -1.5,-0.2 -1.3,-1.6 4,0 7.9,0 11.9,0 0.6,1.9 0.5,2.2 -1,2.9 -2,0.9 -4,1.7 -6,2.5 -0.3,0.1 -0.6,0.3 -0.9,0.4 0.1,0 0.1,0.1 0.1,0.3 z"
   id="path110" />
	<path
   class="st0"
   d="m 203.4,306.8 c 0.7,0.1 1.1,0.1 1.5,0.1 0.1,0.3 0.2,0.4 0.2,0.6 0,2.6 0,5.3 0,7.9 -0.1,2.4 -1.1,3.6 -3.2,3.8 -2.5,0.3 -4.3,-0.9 -4.7,-3.2 -0.5,-2.9 -0.2,-5.9 -0.1,-9 0.8,0 1.5,-0.1 2.4,-0.1 0.1,0.8 0.2,1.4 0.2,2 0,1.8 0,3.6 0,5.4 0,0.5 0,0.9 0,1.3 0.1,1.3 0.5,1.9 1.6,2 1.1,0.1 1.8,-0.5 2.1,-1.8 0.1,-0.4 0.1,-0.9 0.1,-1.3 0,-1.9 0,-3.8 0,-5.7 -0.2,-0.7 -0.2,-1.2 -0.1,-2 z"
   id="path112" />
	<path
   class="st0"
   d="m 248.2,347.7 c 1.8,-0.6 3.3,-1.7 5.1,-1.8 0.4,1.5 0.3,1.8 -0.9,2.2 -1,0.4 -2,0.7 -3,1.1 -0.8,0.3 -1.2,0.8 -0.9,1.8 0.4,0.1 0.8,0.2 1.2,0.2 0.8,0 1.7,0 2.5,0 1.2,0.1 1.4,0.3 1.1,1.7 -1.2,0.4 -9.6,0.5 -11.6,0.1 -0.3,-1.6 -0.4,-3.3 0,-4.9 0.6,-2 3.2,-2.7 5,-1.5 0.6,0.3 1,0.6 1.5,1.1 z m -1.6,3.5 c 0.6,-1.4 0.4,-2.1 -0.5,-2.8 -0.7,-0.5 -1.3,-0.6 -2,-0.1 -0.8,0.6 -1,1.4 -0.4,2.9 0.9,0 1.9,0 2.9,0 z"
   id="path114" />
	<path
   class="st0"
   d="m 241.1,340.2 c 0.2,-0.4 0.4,-0.8 0.6,-1.2 0.4,-1.4 1.3,-2.2 2.6,-2.6 2.8,-0.7 5.5,-0.9 8,0.8 2.1,1.4 2,4.6 -0.2,6 -2.1,1.3 -4.5,1.4 -6.8,1 -1.8,-0.3 -3.2,-1.2 -3.8,-3.1 -0.1,-0.3 -0.3,-0.6 -0.4,-0.9 z m 6.3,2.3 c 1.1,-0.2 2.1,-0.4 3.1,-0.7 0.8,-0.3 1.2,-1 1.1,-1.9 0,-0.8 -0.5,-1.2 -1.2,-1.5 -2.1,-0.7 -4.2,-0.7 -6.2,0.1 -0.7,0.3 -1.2,0.9 -1.2,1.7 0,0.8 0.5,1.4 1.2,1.6 1.1,0.3 2.2,0.5 3.2,0.7 z"
   id="path116" />
	<path
   class="st0"
   d="m 185.2,309.3 c -0.6,0.3 -1,0.5 -1.4,0.7 -0.2,-0.2 -0.4,-0.3 -0.6,-0.5 -0.5,-0.4 -0.9,-1 -1.5,-1.3 -0.6,-0.3 -1.4,0 -1.7,0.6 -0.4,0.6 -0.4,1.2 0.1,1.7 0.5,0.4 1.1,0.8 1.7,1.1 0.6,0.4 1.4,0.6 2,0.9 1.3,0.8 1.9,2.3 1.6,3.6 -0.4,1.6 -1.6,2.8 -3.2,3 -2.5,0.3 -4,-0.5 -4.8,-2.5 -0.1,-0.2 -0.1,-0.4 -0.1,-0.8 0.5,-0.2 0.9,-0.3 1.4,-0.5 0.3,0.4 0.6,0.8 0.8,1.1 0.5,0.8 1.3,1 2.2,0.9 0.8,-0.1 1.2,-0.5 1.5,-1.2 0.3,-0.8 0,-1.4 -0.6,-1.8 -0.7,-0.5 -1.6,-0.8 -2.4,-1.2 -1,-0.5 -1.9,-0.9 -2.3,-2 -0.6,-1.7 0,-3.5 1.5,-4.3 1.5,-0.9 3.7,-0.5 4.8,0.8 0.3,0.5 0.6,1 1,1.7 z"
   id="path118" />
	<path
   class="st0"
   d="m 210.4,311.7 c 0.8,0 1.7,0.1 2.6,0.1 0.9,0.1 0.9,0.2 0.9,1.5 -0.6,0 -1.2,0.1 -1.8,0.2 -0.6,0 -1.2,0.1 -1.8,0.1 -0.5,1.2 -0.3,2.3 -0.2,3.4 1.6,0.6 3.3,0 5,0.5 0,0.4 0,0.8 0,1.3 -2.4,0 -4.8,0 -7.1,0 -0.5,-1.3 -0.6,-9.7 -0.2,-11.7 1.2,-0.5 5.5,-0.6 7,-0.1 0.1,1.2 0,1.3 -0.8,1.4 -0.6,0 -1.2,0 -1.8,0 -0.6,0 -1.2,0.1 -1.7,0.1 -0.6,1.4 -0.6,1.6 -0.1,3.2 z"
   id="path120" />
	<path
   class="st0"
   d="m 250.4,335.1 c -0.2,-0.6 -0.4,-1 -0.6,-1.5 0.5,-0.4 0.9,-0.7 1.2,-1 0.6,-0.5 0.8,-1.1 0.7,-1.8 0,-0.7 -0.3,-1.3 -1,-1.6 -0.8,-0.3 -1.3,0.1 -1.7,0.7 -0.4,0.6 -0.7,1.4 -1.1,2.1 -0.3,0.6 -0.6,1.2 -1.1,1.7 -1.5,1.6 -3.9,1.2 -4.9,-0.7 -0.4,-0.6 -0.6,-1.3 -0.9,-2 0.7,-1.5 1.1,-3.1 3,-3.5 0.7,1 0.8,1.1 0.1,1.8 -0.3,0.4 -0.7,0.7 -0.9,1.2 -0.3,0.7 0.1,1.6 0.8,2 0.6,0.3 1.2,0.1 1.7,-0.7 0.4,-0.7 0.7,-1.4 1,-2.1 0.4,-0.9 0.9,-1.7 1.8,-2.2 1.3,-0.8 3.2,-0.3 4.5,0.9 1.1,1 1.3,4.9 -0.5,5.7 -0.8,0.2 -1.4,0.5 -2.1,1 z"
   id="path122" />
	<path
   class="st0"
   d="m 145.7,346.8 c -0.4,-1.6 -0.3,-1.7 0.6,-2.1 0.4,-0.1 0.8,-0.2 1.1,-0.3 0.6,-0.2 0.8,-0.5 0.9,-1.1 0,-0.8 0,-1.7 0,-2.6 -0.7,-0.2 -1.3,-0.4 -1.8,-0.6 -1,-0.4 -1,-0.4 -0.9,-1.8 0.3,0 0.6,-0.1 0.9,0 3.4,0.9 6.8,1.9 10.2,2.9 1.1,0.3 1.2,0.5 1.3,1.5 0,0.9 -0.1,1.2 -1.2,1.5 -2.7,0.7 -5.4,1.4 -8.1,2.1 -1,0.1 -1.9,0.3 -3,0.5 z m 4.4,-3.4 c 1.5,0 3.9,-0.5 4.9,-1.2 -1.7,-0.4 -3.2,-0.8 -4.7,-1.1 -0.5,0.9 -0.5,1.6 -0.2,2.3 z"
   id="path124" />
	<path
   class="st0"
   d="m 149.4,354.5 c -0.1,0.5 -0.2,1 -0.3,1.4 -1.9,0 -3.1,-0.7 -3.7,-2.2 -0.6,-1.7 -0.3,-3.6 1,-4.6 0.5,-0.4 1,-0.7 1.6,-0.9 2.5,-0.8 5,-0.8 7.4,0.1 1.4,0.5 2.5,1.5 2.7,3.1 0.4,2.1 -0.9,4.1 -3,4.6 -1,0.2 -1.4,-0.1 -1.6,-1.5 0.5,-0.2 1.1,-0.3 1.5,-0.5 0.7,-0.4 1.4,-0.9 1.4,-1.7 0,-0.9 -0.5,-1.5 -1.3,-1.8 -2.3,-0.7 -4.6,-1 -6.9,-0.1 -0.9,0.4 -1.4,1 -1.4,1.9 0,0.9 0.6,1.4 1.4,1.7 0.3,0.1 0.7,0.3 1.2,0.5 z"
   id="path126" />
	<path
   class="st0"
   d="m 202.9,411.9 c -0.5,1.1 -0.4,2.1 -0.1,3.2 0.6,0.1 1.1,0.1 1.7,0.2 0.4,0 0.9,0 1.3,0.1 0.3,0.1 0.6,0.4 0.6,0.6 0,0.3 -0.3,0.7 -0.6,0.9 -0.4,0.2 -0.9,0.1 -1.3,0.1 -0.6,0 -1.1,0 -1.7,-0.1 -0.6,1.2 -0.3,2.3 -0.2,3.5 1.3,0.5 2.5,0.2 3.8,0.3 1.1,0.1 1.1,0.1 1.2,1.3 -1.1,0.5 -4.7,0.6 -6.8,0.2 -0.6,-1.2 -0.2,-2.6 -0.3,-3.9 -0.1,-1.3 0,-2.6 0,-3.9 0,-1.3 0,-2.7 0,-3.9 0.3,-0.2 0.5,-0.4 0.6,-0.4 1.8,0 3.6,-0.1 5.4,-0.1 0.5,0 1,0.2 1,0.9 0,0.7 -0.5,0.8 -1,0.8 -0.7,0 -1.3,0 -2,0 -0.5,0.1 -1,0.1 -1.6,0.2 z"
   id="path128" />
	<path
   class="st0"
   d="m 157.6,385.3 c 0.5,2.2 0.4,2.4 -1.4,2.8 -3.1,0.8 -6.3,1.6 -9.4,2.4 -0.4,0.1 -0.7,0 -1.1,0.1 -0.4,-1.5 -0.3,-1.7 0.9,-2.1 0.6,-0.2 1.4,-0.4 1.5,-0.8 0.3,-0.8 0.2,-1.8 0.2,-2.6 0,-0.2 -0.4,-0.5 -0.6,-0.7 -0.3,-0.2 -0.7,-0.2 -1.1,-0.4 -1.1,-0.4 -1.2,-0.5 -0.8,-2 3.9,1.1 7.8,2.2 11.8,3.3 z m -2.6,1.3 c 0,-0.2 0,-0.4 0,-0.5 -1.6,-0.3 -3.2,-0.6 -4.9,-1 0,0.9 0,1.6 0,2.6 1.7,-0.4 3.3,-0.7 4.9,-1.1 z"
   id="path130" />
	<path
   class="st0"
   d="m 241.7,376.9 c 0,-1.9 0,-3.7 0,-5.5 0,-0.3 0.4,-0.7 0.7,-0.8 0.5,-0.1 0.8,0.2 0.9,0.8 0,0.6 0,1.1 0,1.7 0,0.6 0,1.2 0,1.7 1.1,0.7 2,0.4 2.8,0.3 0.7,-0.9 0.4,-1.7 0.3,-2.5 -0.1,-1 0.1,-1.1 1.4,-1 0.1,1.1 0.2,2.2 0.3,3.2 1.1,0.6 2.1,0.4 3.3,0.2 0.1,-0.6 0.2,-1.2 0.2,-1.8 0,-0.7 0,-1.5 0.1,-2.2 0,-0.5 0.4,-0.8 0.9,-0.8 0.5,0 0.9,0.2 0.9,0.7 0.1,2 0.1,3.9 0,5.8 -1.3,0.7 -9.8,0.8 -11.8,0.2 z"
   id="path132" />
	<path
   class="st0"
   d="m 244,362.2 c 0.8,0.7 0.6,1.2 0.1,1.8 -0.4,0.4 -0.7,0.9 -0.9,1.3 -0.3,0.7 0.2,1.5 0.9,1.8 0.7,0.3 1.2,0.1 1.7,-0.6 0.4,-0.7 0.7,-1.5 1.1,-2.3 1.1,-2.4 3.3,-3 5.5,-1.6 1.7,1.1 2.1,4.5 0.5,5.8 -0.7,0.6 -1.4,1.1 -2.5,1.2 -0.2,-0.5 -0.4,-0.9 -0.6,-1.4 0.4,-0.3 0.7,-0.5 1,-0.7 0.9,-0.6 1.2,-1.7 0.8,-2.7 -0.4,-1.2 -1.7,-1.5 -2.5,-0.5 -0.5,0.6 -0.8,1.5 -1.2,2.2 -0.4,0.7 -0.8,1.5 -1.4,2 -1.2,1.1 -2.8,0.9 -3.9,-0.2 -1.2,-1.1 -1.2,-2.5 -0.9,-3.9 0.2,-1.2 1.2,-1.8 2.3,-2.2 z"
   id="path134" />
	<path
   class="st0"
   d="m 195.3,310.6 c -0.4,0.1 -0.9,0.2 -1.4,0.4 -0.3,-0.7 -0.5,-1.2 -0.9,-1.7 -0.8,-1.3 -2.1,-1.3 -3,0 -0.2,0.4 -0.4,0.8 -0.5,1.2 -0.4,1.6 -0.4,3.2 -0.1,4.8 0.1,0.3 0.2,0.6 0.3,1 0.3,0.8 0.9,1.3 1.8,1.4 0.9,0 1.4,-0.4 1.8,-1.2 0.7,-1.3 0.7,-1.2 2,-0.8 0.1,1.8 -0.8,3.1 -2.4,3.5 -2.5,0.7 -4.4,-0.2 -5.2,-2.6 -0.9,-2.5 -0.8,-5.1 0.2,-7.5 0.7,-1.8 2.7,-2.8 4.5,-2.4 1.8,0.2 2.9,1.7 2.9,3.9 z"
   id="path136" />
	<path
   class="st0"
   d="m 171.1,308.6 c 0,1.1 0,2 0,3.1 0.6,0.1 1.1,0.1 1.7,0.2 0.4,0 0.9,0 1.3,0.1 0.3,0.1 0.7,0.5 0.7,0.8 0,0.3 -0.4,0.7 -0.7,0.8 -0.5,0.1 -1,0.1 -1.5,0.1 -0.4,0 -0.9,0.1 -1.4,0.1 -0.4,1.2 -0.4,2.3 0.1,3.6 1.6,0 3.2,0 4.9,0 0,0.6 0,1.1 0,1.7 -2.4,-0.1 -4.7,0 -6.9,-0.1 -0.4,-1.3 -0.6,-9.8 -0.2,-12 2.3,-0.3 4.6,-0.2 6.9,-0.1 0.3,1.4 0.3,1.5 -0.7,1.6 -0.7,0.1 -1.4,0 -2.2,0 -0.7,0 -1.3,0 -2,0.1 z"
   id="path138" />
	<path
   class="st0"
   d="m 253.4,378.4 c 0.3,1.6 0.3,1.6 -0.7,2 -0.7,0.2 -1.4,0.4 -2.2,0.6 0,0.7 -0.1,1.3 -0.1,1.9 0,1.5 0.1,1.5 1.6,1.9 1.6,0.4 1.8,0.5 1.4,2 -0.5,-0.1 -1.1,-0.1 -1.6,-0.2 -2.9,-0.8 -5.8,-1.7 -8.7,-2.5 -0.6,-0.2 -1.3,-0.4 -1.4,-1.3 -0.1,-0.8 0.1,-1.2 0.9,-1.6 0.5,-0.2 1.1,-0.3 1.6,-0.5 2.3,-0.6 4.5,-1.3 6.8,-1.9 0.7,-0.1 1.5,-0.2 2.4,-0.4 z m -4.6,3 c -1.6,0.4 -2.9,0.8 -4.4,1.1 1.5,0.8 3.1,1.2 4.4,1.2 0,-0.6 0,-1.3 0,-2.3 z"
   id="path140" />
	<path
   class="st0"
   d="m 243.8,356.4 c 3.1,0.2 6.4,-0.1 9.5,0.2 0.5,1.5 0.3,1.9 -0.9,1.9 -2.3,0 -4.6,0 -6.9,0 -0.6,0 -1.2,0 -2,0 -0.1,0.7 -0.1,1.3 -0.3,1.8 -0.1,0.3 -0.4,0.7 -0.7,0.7 -0.2,0 -0.8,-0.4 -0.8,-0.6 -0.2,-2.1 -0.2,-4.2 0,-6.3 2.1,-0.3 1.2,1.5 2.1,2.3 z"
   id="path142" />
	<path
   class="st0"
   d="m 145.6,392.2 c 4.1,0 8,0 12.1,0 0.1,0.5 0.1,1.1 0.2,1.8 -0.8,0.1 -1.4,0.2 -1.9,0.2 -2.2,0 -4.5,0 -6.7,0 -0.6,0 -1.2,0 -2,0 -0.1,0.9 -0.1,1.6 -0.2,2.3 0,0.4 0.1,0.9 -0.1,1.3 -0.1,0.3 -0.5,0.6 -0.8,0.6 -0.2,0 -0.6,-0.4 -0.7,-0.6 -0.1,-1.8 -0.2,-3.7 0.1,-5.6 z"
   id="path144" />
	<path
   class="st0"
   d="m 145.4,359.5 c 0,-0.5 0.1,-1 0.1,-1.4 1.4,-0.4 10.6,-0.4 12.1,-0.1 0.4,1.4 0.3,1.8 -0.9,1.8 -3.5,0 -7,0 -10.5,0 -0.2,0 -0.4,-0.1 -0.8,-0.3 z"
   id="path146" />
	<path
   d="m 172.1,330.7 c 0.4,-0.1 0.7,-0.3 0.9,-0.3 18,0 36.1,0 54.1,0 0.3,0 0.5,0.1 0.9,0.3 0,0.6 0.1,1.2 0.1,1.8 0,14.9 0,29.7 0,44.5 0,1.4 -0.4,2.1 -1.6,2.8 -5.7,3.3 -11.4,6.7 -17.1,10 -2.6,1.6 -5.3,3.1 -8,4.7 -0.9,0.6 -1.7,0.5 -2.6,0 -3.7,-2.4 -7.5,-4.7 -11.3,-7 -3.7,-2.3 -7.3,-4.5 -11,-6.8 -1.3,-0.8 -2.6,-1.5 -3.9,-2.3 -0.8,-0.4 -1.1,-1.1 -1.1,-1.9 0.1,-3.8 0.1,-7.5 0.2,-11.2 0,-0.7 0,-1.3 0,-2 0,-10.1 0,-20.3 0,-30.4 0.3,-0.8 0.4,-1.5 0.4,-2.2 z m 18.9,19.7 c 0.3,0.4 0.6,0.6 0.7,0.8 2.3,3.8 4.6,7.5 6.8,11.4 3.1,5.3 6.1,10.6 9.1,15.9 0.5,0.9 1.1,1.3 2.1,1.3 2.1,0 4.1,0 6.2,0 0.4,0 0.7,-0.1 1.2,-0.2 0,-0.7 0.1,-1.4 0.1,-2 0,-13.7 0,-27.5 0,-41.2 0,-0.3 0,-0.7 0,-1 -0.1,-1 -0.3,-1.3 -1.3,-1.3 -1.9,0 -3.7,0 -5.5,0 -0.3,0 -0.6,0.2 -1,0.3 0,0.8 -0.1,1.5 -0.1,2.2 0,8.4 0,16.8 0,25.2 0,0.6 0.2,1.3 -0.3,1.9 -1,-0.1 -1.2,-0.9 -1.6,-1.6 -2.2,-3.9 -4.4,-7.8 -6.7,-11.7 -1.4,-2.4 -2.9,-4.6 -4.3,-7 -1.6,-2.8 -3.2,-5.5 -4.7,-8.3 -0.4,-0.8 -1,-1.1 -1.9,-1.1 -2,0 -4,0 -6.1,0 -0.4,0 -0.9,0.1 -1.3,0.2 0,15.2 0,30.2 0,45.2 1.5,0.5 6.5,0.5 8.1,-0.1 0,-0.6 0,-1.2 0,-1.9 0,-8.3 0,-16.6 0,-24.9 0,-0.6 -0.1,-1.3 0.5,-2.1 z"
   id="path148" />
	<path
   d="m 228.8,314.3 c -0.9,0 -1.7,0 -2.6,0 0.3,-1.7 0.6,-3.2 1.2,-4.6 0.7,1.4 1,2.8 1.4,4.6 z"
   id="path150" />
	<path
   d="m 191.9,420.4 c -0.1,-2.8 -0.1,-5.6 0,-8.3 1.7,-0.5 2.7,-0.2 3.4,1.1 1.1,2 1.1,4.1 0,6.1 -0.6,1.1 -1.5,1.4 -3.4,1.1 z"
   id="path152" />
	<path
   d="m 151.7,368.4 c -1.2,-0.2 -2.3,-0.2 -3.3,-0.5 -1.1,-0.3 -1.6,-1 -1.6,-1.9 0,-0.9 0.5,-1.5 1.7,-1.8 2,-0.5 4.1,-0.4 6.1,0 0.2,0 0.3,0.1 0.5,0.2 0.8,0.3 1.3,0.9 1.3,1.8 0,0.8 -0.5,1.4 -1.2,1.6 -1.2,0.2 -2.4,0.4 -3.5,0.6 z"
   id="path154" />
	<path
   d="m 246.6,351.2 c -1,0 -2,0 -2.9,0 -0.6,-1.5 -0.4,-2.4 0.4,-2.9 0.7,-0.5 1.3,-0.4 2,0.1 0.9,0.6 1,1.4 0.5,2.8 z"
   id="path156" />
	<path
   d="m 247.4,342.5 c -1,-0.2 -2.1,-0.4 -3.1,-0.7 -0.8,-0.2 -1.2,-0.8 -1.2,-1.6 0,-0.8 0.5,-1.4 1.2,-1.7 2.1,-0.8 4.2,-0.8 6.2,-0.1 0.7,0.2 1.1,0.7 1.2,1.5 0,0.9 -0.3,1.6 -1.1,1.9 -1,0.3 -2.1,0.5 -3.2,0.7 z"
   id="path158" />
	<path
   d="m 150.1,343.4 c -0.3,-0.7 -0.4,-1.5 0.2,-2.3 1.5,0.4 3.1,0.7 4.7,1.1 -1,0.7 -3.3,1.3 -4.9,1.2 z"
   id="path160" />
	<path
   d="m 155,386.6 c -1.6,0.4 -3.2,0.7 -4.9,1.1 0,-1 0,-1.7 0,-2.6 1.8,0.4 3.4,0.7 4.9,1 0,0.1 0,0.3 0,0.5 z"
   id="path162" />
	<path
   d="m 248.8,381.4 c 0,1 0,1.6 0,2.3 -1.3,0.1 -2.9,-0.4 -4.4,-1.2 1.4,-0.3 2.7,-0.7 4.4,-1.1 z"
   id="path164" />
	<path
   class="st0"
   d="m 191,350.4 c -0.6,0.8 -0.4,1.5 -0.4,2.1 0,8.3 0,16.6 0,24.9 0,0.7 0,1.3 0,1.9 -1.5,0.5 -6.5,0.6 -8.1,0.1 0,-15 0,-30 0,-45.2 0.5,-0.1 0.9,-0.2 1.3,-0.2 2,0 4,0 6.1,0 0.9,0 1.4,0.4 1.9,1.1 1.5,2.8 3.1,5.6 4.7,8.3 1.4,2.4 2.9,4.6 4.3,7 2.3,3.9 4.4,7.8 6.7,11.7 0.4,0.7 0.6,1.5 1.6,1.6 0.5,-0.6 0.3,-1.3 0.3,-1.9 0,-8.4 0,-16.8 0,-25.2 0,-0.7 0.1,-1.4 0.1,-2.2 0.4,-0.1 0.7,-0.3 1,-0.3 1.9,0 3.7,0 5.5,0 1,0 1.2,0.3 1.3,1.3 0,0.3 0,0.7 0,1 0,13.7 0,27.5 0,41.2 0,0.7 -0.1,1.3 -0.1,2 -0.5,0.1 -0.9,0.2 -1.2,0.2 -2.1,0 -4.1,0 -6.2,0 -1,0 -1.6,-0.4 -2.1,-1.3 -3,-5.3 -6,-10.6 -9.1,-15.9 -2.2,-3.8 -4.5,-7.6 -6.8,-11.4 -0.2,-0.2 -0.5,-0.4 -0.8,-0.8 z"
   id="path166" />
</g>
<g
   id="g192"
   transform="translate(-63.773987,-57.855556)">
	<g
   id="g190">
		<path
   d="m 141.5,263.7 c -1.6,-0.9 -2.3,-1.3 -3.9,-2.2 -0.6,-0.3 -0.9,-0.7 -1,-1 -0.1,-0.4 0,-0.8 0.3,-1.2 2.2,-3.3 3.2,-4.9 5.4,-8.2 0.3,-0.5 0.6,-0.8 1,-0.8 0.4,-0.1 0.8,0 1.3,0.3 1.5,0.9 2.2,1.3 3.7,2.1 0.6,0.3 1,0.6 1.4,0.9 0.4,0.3 0.7,0.6 0.9,0.9 0.2,0.3 0.3,0.6 0.4,1 0.1,0.4 0.1,0.7 0.1,1.1 -0.1,0.4 -0.2,0.7 -0.3,1 -0.6,1.1 -1.7,1.7 -3.2,1.6 1.3,1.3 1.7,2.6 0.9,4 -0.3,0.6 -0.8,1.1 -1.5,1.5 -0.6,0.3 -1.4,0.5 -2.1,0.4 -0.5,0 -1,-0.2 -1.5,-0.4 -0.6,-0.3 -1.3,-0.6 -1.9,-1 z m 3,-10.9 c -0.7,1.1 -1.1,1.7 -1.8,2.8 0.9,0.5 1.3,0.8 2.2,1.3 0.6,0.3 1.1,0.5 1.5,0.6 0.4,0.1 0.8,0 1.1,-0.2 0.2,-0.1 0.5,-0.4 0.6,-0.6 0.3,-0.6 0.3,-1.1 0,-1.5 -0.3,-0.4 -0.9,-0.9 -1.8,-1.3 -0.7,-0.4 -1.1,-0.7 -1.8,-1.1 z m -0.3,5.9 c -1,-0.6 -1.5,-0.9 -2.6,-1.4 -0.8,1.3 -1.2,1.9 -2,3.2 1.1,0.6 1.6,0.9 2.7,1.5 1.7,0.9 2.9,0.8 3.5,-0.3 0.3,-0.6 0.3,-1.1 0.1,-1.6 -0.2,-0.5 -0.8,-0.9 -1.7,-1.4 z"
   id="path170" />
		<path
   d="m 162,261 c -2.3,-0.8 -3.4,-1.2 -5.6,-2.2 -0.6,1.1 -0.8,1.7 -1.4,2.9 2.1,0.9 3.1,1.3 5.3,2.1 0.4,0.1 0.6,0.3 0.8,0.6 0.1,0.2 0.1,0.5 0,0.8 -0.1,0.3 -0.3,0.5 -0.6,0.6 -0.3,0.1 -0.6,0.1 -1,-0.1 -2.2,-0.8 -3.2,-1.2 -5.4,-2.1 -0.6,1.3 -1,2 -1.6,3.3 2.5,1 3.7,1.5 6.2,2.4 0.4,0.1 0.7,0.4 0.9,0.6 0.2,0.2 0.2,0.5 0,0.8 -0.1,0.3 -0.3,0.5 -0.6,0.6 -0.3,0.1 -0.6,0.1 -1.1,-0.1 -3,-1.1 -4.5,-1.6 -7.4,-2.9 -0.6,-0.2 -0.9,-0.6 -1.1,-0.9 -0.2,-0.3 -0.1,-0.8 0.2,-1.3 1.8,-3.5 2.7,-5.2 4.4,-8.7 0.2,-0.3 0.4,-0.6 0.6,-0.8 0.2,-0.2 0.4,-0.2 0.7,-0.2 0.3,0 0.6,0.1 0.9,0.2 2.5,1.1 3.8,1.6 6.4,2.6 0.4,0.1 0.6,0.3 0.8,0.6 0.1,0.2 0.1,0.5 0,0.8 -0.1,0.3 -0.3,0.5 -0.6,0.6 -0.1,0 -0.4,0 -0.8,-0.2 z"
   id="path172" />
		<path
   d="m 168.9,262.6 c 0.9,3.4 1.5,5.1 2.7,8.5 0.9,-2.9 1.3,-4.4 2.2,-7.3 0.1,-0.5 0.4,-0.8 0.6,-1 0.3,-0.2 0.6,-0.2 0.9,-0.2 0.4,0.1 0.6,0.3 0.8,0.5 0.1,0.3 0.1,0.7 0,1.1 -1.1,3.9 -1.6,5.8 -2.7,9.7 -0.3,1.1 -1,1.5 -2,1.3 -0.3,-0.1 -0.5,-0.1 -0.7,-0.2 -0.2,-0.1 -0.3,-0.3 -0.5,-0.4 -0.2,-0.1 -0.2,-0.4 -0.3,-0.6 -0.1,-0.2 -0.2,-0.5 -0.3,-0.7 -1.2,-3.4 -1.7,-5.1 -2.7,-8.5 -1,2.8 -1.5,4.3 -2.6,7.1 -0.2,0.5 -0.4,0.8 -0.8,0.9 -0.4,0.1 -0.7,0.2 -1.1,0.1 -0.4,-0.1 -0.7,-0.3 -0.8,-0.6 -0.1,-0.3 -0.1,-0.7 0.1,-1.1 1.4,-3.7 2.1,-5.6 3.6,-9.3 0.1,-0.4 0.3,-0.7 0.5,-0.9 0.2,-0.2 0.5,-0.4 0.8,-0.4 0.3,-0.1 0.6,-0.1 0.9,0 0.2,0.1 0.4,0.2 0.5,0.3 0.1,0.1 0.2,0.3 0.3,0.4 0.1,0.2 0.1,0.4 0.2,0.6 0.3,0.2 0.4,0.4 0.4,0.7 z"
   id="path174" />
		<path
   d="m 187.5,266.8 c -2.4,-0.2 -3.6,-0.4 -6,-0.8 -0.3,1.2 -0.4,1.8 -0.7,3.1 2.2,0.4 3.4,0.5 5.6,0.8 0.4,0 0.7,0.2 0.9,0.4 0.2,0.2 0.2,0.4 0.2,0.7 0,0.3 -0.2,0.5 -0.4,0.7 -0.2,0.2 -0.6,0.2 -1,0.2 -2.3,-0.2 -3.4,-0.4 -5.7,-0.8 -0.3,1.4 -0.5,2.1 -0.8,3.5 2.6,0.4 4,0.6 6.6,0.9 0.4,0 0.8,0.2 1,0.4 0.2,0.2 0.3,0.5 0.2,0.8 -0.1,0.3 -0.2,0.5 -0.5,0.7 -0.3,0.2 -0.6,0.2 -1.1,0.2 -3.2,-0.3 -4.7,-0.5 -7.9,-1.1 -0.6,-0.1 -1.1,-0.3 -1.3,-0.6 -0.2,-0.3 -0.2,-0.7 -0.1,-1.2 0.9,-3.7 1.4,-5.6 2.4,-9.3 0.1,-0.4 0.2,-0.6 0.4,-0.9 0.2,-0.2 0.4,-0.3 0.6,-0.4 0.3,-0.1 0.6,-0.1 0.9,0 2.7,0.5 4.1,0.6 6.9,0.9 0.4,0 0.7,0.2 0.9,0.4 0.2,0.2 0.2,0.4 0.2,0.7 0,0.3 -0.2,0.5 -0.4,0.7 -0.1,0 -0.5,0.1 -0.9,0 z"
   id="path176" />
		<path
   d="m 194.6,276.1 c -0.6,-3.2 -0.8,-4.9 -1.3,-8.1 -0.4,3.5 -0.6,5.2 -1.1,8.7 -0.1,0.5 -0.2,0.8 -0.5,1.1 -0.3,0.2 -0.6,0.3 -1,0.3 -0.4,0 -0.7,-0.2 -0.9,-0.4 -0.2,-0.2 -0.3,-0.6 -0.2,-1.1 0.6,-4 0.9,-6 1.4,-10 0.1,-0.5 0.3,-0.9 0.6,-1.1 0.3,-0.2 0.7,-0.2 1.2,-0.2 0.3,0 0.5,0 0.8,0 0.5,0 0.8,0.1 1.1,0.2 0.3,0.1 0.4,0.3 0.4,0.5 0.1,0.2 0.2,0.6 0.2,1.1 0.5,2.8 0.7,4.2 1.3,7 1.1,-2.8 1.6,-4.1 2.6,-6.9 0.2,-0.5 0.3,-0.9 0.4,-1.1 0.1,-0.2 0.3,-0.4 0.5,-0.5 0.2,-0.1 0.6,-0.1 1.1,-0.1 0.3,0 0.5,0 0.8,0 0.5,0 0.9,0.1 1.2,0.2 0.3,0.2 0.4,0.5 0.4,1.1 -0.1,4 -0.2,6 -0.3,10 0,0.5 -0.1,0.9 -0.4,1.1 -0.3,0.2 -0.6,0.4 -1,0.4 -0.4,0 -0.7,-0.1 -0.9,-0.3 -0.2,-0.2 -0.3,-0.6 -0.3,-1.1 0.2,-3.5 0.3,-5.2 0.5,-8.7 -1,3.2 -1.6,4.8 -2.7,8 -0.2,0.5 -0.3,0.9 -0.4,1.1 -0.1,0.2 -0.3,0.5 -0.6,0.7 -0.3,0.2 -0.6,0.3 -1.1,0.3 -0.3,0 -0.6,-0.1 -0.9,-0.2 -0.3,-0.1 -0.4,-0.3 -0.5,-0.5 -0.1,-0.2 -0.2,-0.4 -0.2,-0.7 0,-0.2 -0.1,-0.5 -0.2,-0.8 z"
   id="path178" />
		<path
   d="m 215.4,266.4 c -2.4,0.3 -3.6,0.5 -6.1,0.7 0,1.2 0,1.9 0,3.1 2.3,-0.2 3.4,-0.3 5.8,-0.6 0.4,-0.1 0.8,0 1,0.1 0.2,0.1 0.3,0.4 0.4,0.6 0,0.3 -0.1,0.5 -0.3,0.7 -0.2,0.2 -0.5,0.3 -0.9,0.4 -2.3,0.3 -3.5,0.4 -5.9,0.6 0,1.4 0,2.1 0.1,3.6 2.7,-0.2 4.1,-0.4 6.8,-0.8 0.5,-0.1 0.8,0 1.1,0.1 0.2,0.1 0.4,0.4 0.4,0.7 0,0.3 -0.1,0.5 -0.3,0.8 -0.2,0.2 -0.6,0.4 -1,0.4 -3.2,0.5 -4.8,0.6 -8,0.9 -0.6,0 -1.1,0 -1.4,-0.3 -0.3,-0.2 -0.4,-0.6 -0.4,-1.2 0,-3.8 0.1,-5.7 0.1,-9.5 0,-0.4 0.1,-0.7 0.2,-0.9 0.1,-0.2 0.3,-0.4 0.5,-0.5 0.2,-0.1 0.6,-0.2 0.9,-0.2 2.8,-0.2 4.2,-0.4 7,-0.8 0.4,-0.1 0.7,0 1,0.1 0.3,0.1 0.3,0.4 0.4,0.7 0.1,0.3 -0.1,0.5 -0.3,0.8 -0.4,0.3 -0.7,0.4 -1.1,0.5 z"
   id="path180" />
		<path
   d="m 223.3,270.3 c -0.4,0.1 -0.6,0.1 -1,0.2 0.2,1.6 0.3,2.4 0.5,4 0.1,0.5 0,0.9 -0.3,1.2 -0.2,0.3 -0.6,0.5 -1,0.6 -0.5,0.1 -0.9,0 -1.1,-0.2 -0.3,-0.2 -0.4,-0.6 -0.5,-1.1 -0.4,-3.8 -0.6,-5.7 -0.9,-9.6 -0.1,-0.5 0,-1 0.3,-1.2 0.2,-0.3 0.6,-0.5 1.2,-0.6 1.7,-0.3 2.6,-0.5 4.3,-0.9 0.6,-0.1 1.1,-0.2 1.5,-0.3 0.4,-0.1 0.8,0 1.2,0 0.4,0.1 0.8,0.2 1.2,0.4 0.4,0.2 0.7,0.5 0.9,0.9 0.2,0.4 0.4,0.8 0.5,1.2 0.2,0.9 0,1.7 -0.4,2.4 -0.5,0.7 -1.3,1.3 -2.4,1.8 0.5,0.1 1.1,0.4 1.6,0.7 0.5,0.3 1,0.7 1.5,1.1 0.5,0.4 0.8,0.8 1.1,1.2 0.3,0.4 0.4,0.6 0.5,0.8 0,0.2 0,0.3 -0.1,0.5 -0.1,0.2 -0.2,0.4 -0.4,0.5 -0.2,0.1 -0.4,0.3 -0.7,0.3 -0.3,0.1 -0.6,0.1 -0.9,0 -0.2,-0.1 -0.5,-0.2 -0.7,-0.4 -0.2,-0.2 -0.5,-0.4 -0.8,-0.7 -0.6,-0.5 -0.9,-0.8 -1.4,-1.4 -0.5,-0.5 -0.9,-0.9 -1.3,-1.1 -0.4,-0.2 -0.7,-0.4 -1.1,-0.4 -0.4,-0.1 -0.8,0 -1.3,0.1 z m 0.8,-5.6 c -1,0.2 -1.5,0.3 -2.5,0.5 0.2,1.4 0.2,2 0.4,3.4 1,-0.2 1.5,-0.3 2.5,-0.5 0.7,-0.1 1.2,-0.3 1.6,-0.5 0.4,-0.2 0.8,-0.5 0.9,-0.8 0.2,-0.3 0.2,-0.7 0.2,-1.1 -0.1,-0.3 -0.2,-0.6 -0.4,-0.8 -0.2,-0.2 -0.5,-0.4 -0.9,-0.4 -0.2,0 -0.8,0 -1.8,0.2 z"
   id="path182" />
		<path
   d="m 234.4,271.6 c -0.9,-3.8 -1.3,-5.7 -2.1,-9.5 -0.1,-0.5 -0.1,-0.9 0.1,-1.2 0.2,-0.3 0.5,-0.5 0.9,-0.6 0.4,-0.1 0.7,-0.1 1,0.1 0.3,0.2 0.5,0.5 0.6,1 0.9,3.8 1.4,5.7 2.4,9.5 0.1,0.5 0.1,0.9 -0.1,1.2 -0.2,0.3 -0.5,0.6 -1,0.7 -0.4,0.1 -0.8,0.1 -1.1,-0.1 -0.4,-0.3 -0.6,-0.6 -0.7,-1.1 z"
   id="path184" />
		<path
   d="m 246.5,257.8 c -1.1,0.5 -1.7,0.7 -2.8,1.2 1.1,3.4 1.7,5.1 2.9,8.5 0.2,0.5 0.2,0.9 0,1.2 -0.2,0.3 -0.5,0.6 -0.9,0.8 -0.4,0.2 -0.8,0.2 -1.1,0 -0.3,-0.1 -0.6,-0.5 -0.7,-0.9 -1.1,-3.4 -1.6,-5.1 -2.6,-8.5 -1.1,0.4 -1.7,0.6 -2.9,1 -0.4,0.2 -0.8,0.2 -1.1,0.1 -0.3,-0.1 -0.4,-0.3 -0.5,-0.6 -0.1,-0.3 0,-0.6 0.1,-0.9 0.2,-0.2 0.5,-0.5 0.9,-0.6 3.3,-1.1 4.9,-1.8 8.2,-3.2 0.4,-0.2 0.8,-0.2 1.1,-0.2 0.3,0 0.5,0.3 0.6,0.6 0.1,0.3 0.1,0.6 -0.1,0.8 -0.2,0.2 -0.7,0.5 -1.1,0.7 z"
   id="path186" />
		<path
   d="m 260.1,261 c -0.5,-0.4 -0.8,-0.6 -1.3,-1 -2.2,1.1 -3.3,1.7 -5.5,2.7 0,0.7 0,1.1 -0.1,1.8 0,0.7 -0.1,1.2 -0.2,1.5 -0.1,0.3 -0.4,0.5 -0.8,0.7 -0.4,0.2 -0.7,0.2 -1.1,0.1 -0.4,-0.1 -0.6,-0.3 -0.7,-0.5 -0.1,-0.2 -0.1,-0.3 -0.1,-0.5 0,-0.2 0,-0.5 0.1,-0.8 0.3,-3.6 0.4,-5.4 0.4,-9 0,-0.2 0,-0.6 0,-0.9 0,-0.3 0,-0.7 0.1,-0.9 0.1,-0.3 0.2,-0.5 0.4,-0.8 0.2,-0.2 0.4,-0.4 0.8,-0.6 0.4,-0.2 0.7,-0.3 0.9,-0.3 0.3,0 0.6,0.1 0.8,0.2 0.2,0.1 0.4,0.2 0.6,0.4 0.2,0.2 0.5,0.4 0.8,0.7 2.7,2.2 4,3.2 6.9,5.2 0.5,0.4 0.9,0.7 1,0.9 0.1,0.2 0.1,0.6 0,0.9 -0.1,0.4 -0.4,0.6 -0.8,0.9 -0.2,0.1 -0.4,0.2 -0.6,0.2 -0.2,0 -0.4,0 -0.5,0 -0.2,0 -0.4,-0.1 -0.6,-0.3 -0.1,-0.4 -0.3,-0.5 -0.5,-0.6 z m -6.8,-0.4 c 1.6,-0.8 2.4,-1.2 4,-2 -1.6,-1.4 -2.5,-2.1 -4,-3.6 0,2.3 0,3.4 0,5.6 z"
   id="path188" />
	</g>
</g>
</svg>
