<svg xmlns="http://www.w3.org/2000/svg" height="75.102" viewBox="0 0 249.99998 75.102333" width="250"><g transform="matrix(1.25 0 0 -1.25 -409.6 832.75)"><g><path d="m9.5625 0.82617l-8.6816 8.6875-0.00004 11.791 14.176 11.537v16.568h9.812v-8.586l5.942 4.836v5.707h-20.12v-5.75h-9.8101l-0.00004 6.797 8.6816 8.768h5.4945v12.73h6.123v0.016h24.756s7.904-7.889 8.783-8.776c-0.008-0.768 0-41.3 0-41.3l-8.783-8.682h-30.879v5.016l-4.366-3.561v-5.984h20.12v2.58h9.816v-3.7034l-8.779-8.6914-22.286-0.00003zm15.306 24.156h20.039v39.135h-20.039v-2.935h6.979l8.779-8.768v-11.385l-15.758-12.843v-3.204z" transform="matrix(.8 0 0 -.8 327.68 666.2)" fill="#ad0000"/><path d="m187.64 28.809c-2.62 0-4.42 1.856-4.42 4.552 0 2.634 1.83 4.516 4.38 4.516 2.56 0 4.38-1.88 4.38-4.527 0-1.591-0.61-2.87-1.74-3.698-0.74-0.54-1.66-0.843-2.6-0.843zm-49.35 0.002c-1.46 0-2.51 0.921-2.51 2.224 0 0.973 0.45 1.538 1.73 2.236l1.18 0.631c1.25 0.684 1.58 1.038 1.58 1.723 0 0.856-0.7 1.475-1.67 1.475-1.31 0-2.16-0.805-2.53-2.356h-0.31v3.131c0.4-0.369 0.51-0.434 0.71-0.434 0.1 0 0.23 0.026 0.38 0.065 1.01 0.329 1.2 0.369 1.72 0.369 1.63 0 2.82-1.119 2.82-2.631 0-1.051-0.5-1.736-1.79-2.433l-1.42-0.778c-0.9-0.487-1.21-0.854-1.21-1.406 0-0.764 0.56-1.252 1.43-1.252 0.63 0 1.22 0.253 1.61 0.672 0.26 0.303 0.4 0.593 0.57 1.197h0.32v-2.275c-0.33 0.117-0.51 0.158-0.7 0.158-0.18 0-0.21 0-0.81-0.158-0.44-0.106-0.77-0.158-1.1-0.158zm-14.73 0.136v0.315c0.64 0 0.77 0.026 0.87 0.17 0.09 0.133 0.11 0.305 0.11 1.291v5.222c0 0.987-0.02 1.158-0.11 1.287-0.1 0.145-0.23 0.172-0.87 0.172v0.317h3.27v-0.317c-0.63 0-0.77-0.027-0.87-0.172-0.09-0.129-0.11-0.3-0.11-1.287v-1.894h0.48c0.21 0 0.42 0.026 0.5 0.078 0.13 0.066 0.13 0.066 0.77 0.922l2.04 2.67h1.98v-0.317c-0.65-0.053-0.79-0.13-1.31-0.791l-1.48-1.984c-0.49-0.633-0.58-0.737-0.81-0.922 0.65-0.171 0.96-0.315 1.31-0.631 0.51-0.446 0.77-1.064 0.77-1.803 0-0.709-0.26-1.3-0.73-1.695-0.54-0.434-1.25-0.631-2.36-0.631h-3.45zm-57.814 0.008v0.316c0.633 0 0.764 0.027 0.869 0.17 0.093 0.133 0.106 0.306 0.106 1.291v3.659c0 1.472 0.13 2.075 0.564 2.576 0.528 0.605 1.406 0.908 2.631 0.908 1.249 0 2.157-0.302 2.67-0.895 0.461-0.526 0.619-1.183 0.619-2.589v-3.659c0-0.985 0.013-1.158 0.106-1.291 0.104-0.143 0.236-0.17 0.867-0.17v-0.316h-2.524v0.316c0.632 0 0.761 0.027 0.867 0.17 0.092 0.133 0.104 0.306 0.104 1.291v3.659c0 1.129-0.117 1.641-0.459 2.037-0.381 0.434-1.025 0.672-1.789 0.672-0.893 0-1.659-0.33-2-0.883-0.29-0.434-0.342-0.828-0.342-2.342v-3.143c0-0.985 0.013-1.158 0.106-1.291 0.106-0.143 0.238-0.17 0.869-0.17v-0.316h-3.264zm12.649 0v0.316c0.459 0.027 0.552 0.052 0.761 0.276l0.369 0.435v5.971c0 0.987-0.014 1.159-0.105 1.289-0.106 0.147-0.237 0.172-0.869 0.172v0.316h2.527v-0.316c-0.632 0-0.764-0.025-0.869-0.172-0.091-0.13-0.105-0.302-0.105-1.289v-4.078-0.498-0.5-0.316c0.315 0.42 0.393 0.526 0.486 0.658l0.394 0.486 4.987 6.17h0.172v-7.143c0-0.985 0.014-1.156 0.105-1.289 0.106-0.145 0.236-0.172 0.867-0.172v-0.316h-2.527v0.316c0.632 0 0.765 0.027 0.871 0.172 0.091 0.133 0.105 0.304 0.105 1.289v3.221c0 0.132-0.001 0.595 0.012 1.397-0.185-0.237-0.223-0.279-0.342-0.422-0.145-0.184-0.354-0.448-0.63-0.776l-4.17-5.197h-2.039zm13.408 0v0.316c0.631 0 0.763 0.027 0.869 0.17 0.091 0.133 0.103 0.305 0.103 1.289v5.225c0 0.987-0.012 1.159-0.103 1.289-0.106 0.145-0.238 0.17-0.869 0.17v0.316h3.263v-0.316c-0.632 0-0.764-0.025-0.869-0.17-0.091-0.13-0.105-0.302-0.105-1.289v-5.225c0-0.984 0.014-1.156 0.105-1.289 0.105-0.143 0.237-0.17 0.869-0.17v-0.316h-3.263zm7.41 0v0.316c0.354 0.039 0.499 0.092 0.644 0.225 0.153 0.157 0.183 0.222 0.623 1.248l3.04 7.236h0.19l2.94-7.236c0.4-0.935 0.43-1.013 0.55-1.183 0.14-0.209 0.26-0.251 0.74-0.29v-0.316h-2.41v0.316c0.69 0.039 0.84 0.104 0.84 0.395 0 0.118-0.04 0.25-0.16 0.525-0.06 0.159-0.13 0.318-0.2 0.487l-1.67 4.236c-0.22 0.553-0.31 0.802-0.38 0.947-0.08-0.198-0.08-0.224-0.14-0.369-0.07-0.157-0.13-0.355-0.23-0.578l-1.73-4.236c-0.24-0.578-0.36-0.921-0.36-1.039 0-0.237 0.25-0.341 0.9-0.368v-0.316h-3.187zm12.807 0v0.316c0.63 0 0.76 0.027 0.86 0.17 0.1 0.133 0.11 0.304 0.11 1.289v5.225c0 0.987-0.01 1.159-0.11 1.289-0.1 0.145-0.23 0.17-0.86 0.17v0.316h6.33l0.55-2.117-0.29-0.041c-0.48 1.318-0.94 1.617-2.45 1.617h-1.85v-3.775h1.17c1.34 0 1.39 0.054 1.55 1.158h0.29v-2.867h-0.29c-0.11 1.026-0.29 1.172-1.46 1.172h-1.26v-3.381h1.36c1.65 0 1.99 0.208 2.32 1.406l0.31-0.039-0.13-1.908h-6.15zm34.16 0v0.316c0.63 0 0.76 0.027 0.87 0.17 0.09 0.133 0.1 0.305 0.1 1.289v5.225c0 0.987-0.01 1.159-0.1 1.289-0.11 0.145-0.24 0.17-0.87 0.17v0.316h3.26v-0.316c-0.63 0-0.76-0.025-0.87-0.17-0.09-0.13-0.1-0.302-0.1-1.289v-5.225c0-0.984 0.01-1.156 0.1-1.289 0.11-0.143 0.24-0.17 0.87-0.17v-0.316h-3.26zm7.61 0l-0.11 2.25h0.31c0.21-1.448 0.7-1.737 2.78-1.697v6.447c0 0.987-0.01 1.159-0.11 1.289-0.1 0.145-0.23 0.17-0.86 0.17v0.316h3.26v-0.316c-0.63 0-0.76-0.025-0.87-0.17-0.09-0.13-0.1-0.329-0.1-1.289v-6.447h0.31c1.87-0.053 2.13 0.145 2.24 1.697h0.31l0.12-2.25c-0.42 0.013-1.77 0.041-1.96 0.041h-2.75c-1.48-0.013-2.34-0.028-2.57-0.041zm9.67 0v0.316c0.69 0.038 0.82 0.146 1.54 1.223l2.2 3.301v2.158c0 0.987-0.01 1.16-0.1 1.291-0.12 0.145-0.24 0.17-1.02 0.17v0.316h3.55v-0.316c-0.78 0-0.9-0.025-1.01-0.17-0.09-0.131-0.1-0.304-0.1-1.291v-2.381l2.04-3.078c0.78-1.171 0.81-1.197 1.42-1.223v-0.316h-2.55v0.316c0.76 0.026 0.85 0.053 0.85 0.305 0 0.13-0.07 0.286-0.35 0.735l-1.15 1.828c-0.38 0.605-0.41 0.644-0.6 0.959-0.07-0.104-0.24-0.406-0.53-0.877l-1.21-1.91c-0.38-0.606-0.38-0.606-0.38-0.764 0-0.21 0.09-0.238 0.8-0.276v-0.316h-3.4zm32.02 0v0.316c0.64 0 0.77 0.027 0.87 0.17 0.09 0.133 0.11 0.277 0.11 1.289v5.225c0 1.013-0.02 1.159-0.11 1.289-0.1 0.145-0.23 0.17-0.87 0.17v0.316h3.26v-0.316c-0.63 0-0.76-0.025-0.86-0.17-0.09-0.13-0.11-0.302-0.11-1.289v-2.541h1.17c1.35 0 1.41 0.054 1.55 1.158h0.32v-2.867h-0.32c-0.1 1.026-0.27 1.172-1.45 1.172h-1.27v-3.381h1.52c1.48 0 1.8 0.209 2.15 1.459l0.32-0.027-0.08-1.973h-6.2zm-7.95 0.525c0.96 0 1.68 0.383 2.24 1.186 0.52 0.764 0.8 1.748 0.8 2.867 0 2.171-1.17 3.67-2.86 3.67-1.72 0-3.09-1.84-3.09-4.168 0-2.091 1.2-3.555 2.91-3.555zm-61.68 0.006h0.57c1.46 0 2.28 0.749 2.28 2.092 0 1.275-0.86 2.051-2.25 2.051-0.22 0-0.35-0.014-0.6-0.039v-4.104zm51.61 14.125l-5.42 13.557c-0.89 2.298-1.06 2.513-2.12 2.609v0.58h4.08v-0.58c-1.09-0.096-1.38-0.238-1.38-0.652 0-0.289 0.1-0.628 0.49-1.594l1.01-2.656h5.78l1.18 3.043c0.34 0.872 0.36 0.966 0.36 1.232 0 0.483-0.28 0.627-1.23 0.627v0.58h5.37v-0.58c-0.65-0.096-0.87-0.192-1.12-0.457-0.24-0.266-0.43-0.675-1.28-2.634l-5.34-13.075h-0.38zm63.3 0l-5.41 13.557c-0.9 2.298-1.07 2.513-2.13 2.609v0.58h4.08v-0.58c-1.09-0.096-1.37-0.238-1.37-0.652 0-0.289 0.09-0.628 0.48-1.594l1.01-2.656h5.78l1.18 3.043c0.35 0.872 0.37 0.966 0.37 1.232 0 0.483-0.29 0.627-1.24 0.627v0.58h5.37v-0.58c-0.65-0.096-0.87-0.192-1.11-0.457-0.25-0.266-0.44-0.675-1.28-2.634l-5.34-13.075h-0.39zm-153.55 0.364c-4.809 0-8.121 3.407-8.121 8.361 0 4.831 3.36 8.287 8.049 8.287 4.711 0 8.047-3.457 8.047-8.311 0-2.925-1.111-5.269-3.19-6.791-1.352-0.991-3.046-1.546-4.785-1.546zm123.69 0c-4.81 0-8.12 3.407-8.12 8.361 0 4.831 3.36 8.287 8.04 8.287 4.72 0 8.05-3.457 8.05-8.311 0-2.925-1.11-5.269-3.19-6.791-1.35-0.991-3.04-1.546-4.78-1.546zm-139.81 0.002c-2.684 0-4.617 1.69-4.617 4.082 0 1.787 0.821 2.827 3.164 4.107l2.175 1.162c2.296 1.255 2.903 1.907 2.903 3.164 0 1.569-1.283 2.707-3.071 2.707-2.392 0-3.961-1.473-4.638-4.324h-0.58v5.748c0.749-0.677 0.942-0.795 1.304-0.795 0.192 0 0.434 0.047 0.7 0.119 1.861 0.606 2.2 0.676 3.166 0.676 2.997 0 5.171-2.055 5.171-4.832 0-1.933-0.919-3.189-3.287-4.471l-2.609-1.424c-1.644-0.895-2.223-1.575-2.223-2.587 0-1.401 1.04-2.295 2.635-2.295 1.159 0 2.245 0.458 2.947 1.234 0.484 0.553 0.751 1.087 1.065 2.197h0.578v-4.181c-0.603 0.217-0.941 0.291-1.279 0.291-0.339 0-0.388-0.001-1.5-0.291-0.797-0.191-1.401-0.287-2.004-0.287zm26.246 0.263v0.582c1.16 0 1.402 0.045 1.596 0.311 0.169 0.244 0.193 0.556 0.193 2.369v6.717c0 2.707 0.241 3.819 1.041 4.738 0.96 1.111 2.58 1.666 4.83 1.666 2.3 0 3.96-0.556 4.91-1.643 0.84-0.965 1.13-2.173 1.13-4.761v-6.717c0-1.813 0.03-2.125 0.19-2.369 0.2-0.266 0.44-0.311 1.6-0.311v-0.582h-4.64v0.582c1.16 0 1.4 0.045 1.6 0.311 0.17 0.244 0.19 0.556 0.19 2.369v6.717c0 2.081-0.22 3.023-0.85 3.748-0.7 0.798-1.88 1.232-3.28 1.232-1.65 0-3.05-0.605-3.68-1.619-0.53-0.799-0.63-1.521-0.63-4.301v-5.777c0-1.813 0.03-2.125 0.2-2.369 0.19-0.266 0.43-0.311 1.59-0.311v-0.582h-5.99zm16.82 0l-0.19 4.131h0.58c0.38-2.659 1.28-3.189 5.1-3.115v11.84c0 1.813-0.03 2.128-0.2 2.369-0.19 0.264-0.43 0.312-1.59 0.312v0.58h5.99v-0.58c-1.16 0-1.4-0.048-1.59-0.312-0.17-0.241-0.2-0.606-0.2-2.369v-11.84h0.58c3.44-0.1 3.92 0.264 4.11 3.115h0.58l0.22-4.131c-0.77 0.024-3.26 0.072-3.6 0.072h-5.05c-2.73-0.022-4.3-0.048-4.74-0.072zm14.82 0v0.582c1.16 0 1.4 0.044 1.59 0.309 0.17 0.244 0.19 0.558 0.19 2.371v9.594c0 1.813-0.02 2.127-0.19 2.369-0.19 0.263-0.43 0.312-1.59 0.312v0.582h5.99v-0.582c-1.16 0-1.4-0.049-1.59-0.312-0.17-0.242-0.2-0.556-0.2-2.369v-4.518h7.95v4.518c0 1.813-0.02 2.127-0.19 2.369-0.2 0.263-0.44 0.312-1.6 0.312v0.582h6v-0.582c-1.16 0-1.41-0.049-1.6-0.312-0.17-0.242-0.19-0.556-0.19-2.369v-9.594c0-1.813 0.02-2.127 0.19-2.371 0.19-0.265 0.44-0.309 1.6-0.309v-0.582h-6v0.582c1.16 0 1.4 0.044 1.6 0.309 0.17 0.244 0.19 0.558 0.19 2.371v4.086h-7.95v-4.086c0-1.813 0.03-2.127 0.2-2.371 0.19-0.265 0.43-0.309 1.59-0.309v-0.582h-5.99zm24.48 0v0.58c1.16 0 1.4 0.047 1.59 0.313 0.17 0.244 0.2 0.556 0.2 2.369v9.594c0 1.813-0.03 2.129-0.2 2.371-0.19 0.263-0.43 0.31-1.59 0.31v0.582h6.16c3.29 0 5.41-0.7 7.13-2.32 1.59-1.523 2.41-3.578 2.41-6.041 0-2.272-0.69-4.133-2.07-5.51-1.57-1.598-3.68-2.248-7.16-2.248h-6.47zm33.79 0v0.58c1.15 0 1.39 0.046 1.59 0.311 0.17 0.244 0.19 0.558 0.19 2.373v9.592c0 1.813-0.02 2.128-0.19 2.369-0.2 0.264-0.44 0.312-1.59 0.312v0.58h5.99v-0.58c-1.16 0-1.4-0.048-1.6-0.312-0.17-0.241-0.19-0.556-0.19-2.369v-9.592c0-1.815 0.02-2.129 0.19-2.373 0.2-0.265 0.44-0.311 1.6-0.311v-0.58h-5.99zm8.98 0v0.58c1.19 0.023 1.43 0.121 1.43 0.53 0 0.268-0.36 0.725-1.43 1.814l-4.68 4.711 5.56 6.213c0.91 1.017 0.96 1.062 0.96 1.281 0 0.313-0.34 0.384-1.67 0.408v0.58h6.46v-0.58c-0.97 0-1.5-0.336-3-1.955l-6.24-6.863 4.31-4.088c1.86-1.689 2.29-1.93 3.62-2.051v-0.58h-5.32zm24.33 0l-0.19 4.131h0.58c0.38-2.659 1.28-3.189 5.1-3.115v11.84c0 1.813-0.03 2.128-0.2 2.369-0.19 0.264-0.43 0.312-1.59 0.312v0.58h5.99v-0.58c-1.16 0-1.4-0.048-1.59-0.312-0.17-0.241-0.2-0.606-0.2-2.369v-11.84h0.58c3.43-0.1 3.92 0.264 4.11 3.115h0.58l0.22-4.131c-0.77 0.024-3.26 0.072-3.6 0.072h-5.05c-2.73-0.022-4.3-0.048-4.74-0.072zm-61.37 0.795c2.1 0 3.64 0.437 4.85 1.404 1.62 1.283 2.54 3.433 2.54 5.995 0 1.836-0.44 3.432-1.31 4.615-1.16 1.595-2.89 2.346-5.48 2.346-1.31 0-1.86-0.124-1.96-0.438-0.12-0.338-0.12-0.388-0.17-3.115v-10.731c0.68-0.048 1.02-0.076 1.53-0.076zm-72.17 0.174c1.764 0 3.093 0.699 4.107 2.172 0.968 1.401 1.475 3.215 1.475 5.269 0 3.988-2.15 6.743-5.243 6.743-3.165 0-5.679-3.384-5.679-7.661 0-3.845 2.198-6.523 5.34-6.523zm123.69 0c1.76 0 3.09 0.699 4.1 2.172 0.97 1.401 1.48 3.215 1.48 5.269 0 3.988-2.16 6.743-5.25 6.743-3.16 0-5.67-3.384-5.67-7.661 0-3.845 2.19-6.523 5.34-6.523zm-33.71 2.342l2.51 6.33h-5l2.49-6.33zm63.3 0l2.51 6.33h-5l2.49-6.33z" transform="matrix(.8 0 0 -.8 327.68 666.2)"/></g></g></svg>
