<?xml version="1.0" encoding="UTF-8" standalone="no"?>
<!-- Created with Inkscape (http://www.inkscape.org/) -->

<svg
   version="1.1"
   id="svg2"
   xml:space="preserve"
   width="347.37332"
   height="82.26667"
   viewBox="0 0 347.37332 82.26667"
   sodipodi:docname="10_WRIGHTSTATE_2WDMK_H_GRN.eps"
   xmlns:inkscape="http://www.inkscape.org/namespaces/inkscape"
   xmlns:sodipodi="http://sodipodi.sourceforge.net/DTD/sodipodi-0.dtd"
   xmlns="http://www.w3.org/2000/svg"
   xmlns:svg="http://www.w3.org/2000/svg"><defs
     id="defs6" /><sodipodi:namedview
     id="namedview4"
     pagecolor="#ffffff"
     bordercolor="#666666"
     borderopacity="1.0"
     inkscape:pageshadow="2"
     inkscape:pageopacity="0.0"
     inkscape:pagecheckerboard="0" /><g
     id="g8"
     inkscape:groupmode="layer"
     inkscape:label="ink_ext_XXXXXX"
     transform="matrix(1.3333333,0,0,-1.3333333,0,82.266667)"><g
       id="g10"
       transform="scale(0.1)"><path
         d="m 1633.39,29.9844 c 32.88,0 59.64,26.7461 59.64,59.6367 0,16.4809 -5.45,28.9569 -18.24,41.7499 -10.36,10.336 -23.27,18.047 -35.77,25.512 -21.52,12.844 -40.1,23.93 -40.1,44.445 0,14.758 12.22,24.66 30.41,24.66 16.8,0 35.75,-9.449 38.56,-35.953 l 0.43,-3.984 h 14.22 v 54.258 h -13.24 l -0.92,-3.235 c -0.22,-0.75 -0.47,-1.636 -0.65,-2.176 -2.14,-0.085 -4.94,0.907 -8.59,2.141 -6.69,2.242 -15.86,5.309 -29.47,5.309 -34.25,0 -57.26,-21.93 -57.26,-54.559 0,-17.418 5.85,-31.742 17.89,-43.785 7.62,-7.586 18.21,-14.129 29.44,-21.055 21.17,-13.105 43.05,-26.6443 43.05,-46.5349 0,-18.2735 -13.53,-30.0703 -34.48,-30.0703 -11.64,0 -41.92,7.7773 -42.26,43.3125 l -0.03,4.4218 h -14.63 v -9.5 c 0,-32.6289 23.01,-54.5547 57.26,-54.5547 z M 1582.5,13.1641 c -20.11,0.9023 -35.2,28.9687 -51.19,58.6797 -12.54,23.3164 -25.47,47.3402 -42.38,61.1402 29.42,11.383 35.85,32.918 35.85,49.567 0,27.406 -21.32,55.062 -68.96,55.062 h -84.03 v -13.172 h 3.76 c 12.07,0 18.37,-1.195 18.37,-26.804 V 75.2031 c 0,-25.8633 -6.98,-27.1797 -18.37,-27.1797 h -3.76 V 34.832 h 77.86 v 13.1914 h -3.76 c -12.81,0 -18.51,3.9258 -18.51,27.1797 V 222.762 h 16.78 c 27.47,0 45.92,-16.438 45.92,-40.895 0,-20.101 -11.16,-41.586 -42.49,-41.586 h -7.46 v -15.535 c 21.62,-0.484 34.67,-21.449 51.1,-48.0155 8.36,-13.5157 17.01,-27.4883 27.94,-40.5469 30.33,-36.27735 49.4,-36.2343813 59.86,-36.1484437 C 1580.15,0.0585938 1586.02,0 1586.02,0 l 0.18,13.0039 z m 246.6,178.2969 h 14.3 l 0.34,4.07 c 1.47,17.492 10.67,23.688 35.17,23.688 h 23.65 V 75.7344 c 0,-26.3477 -8.14,-26.3477 -17.55,-26.3477 h -4.46 V 34.7188 h 77.63 v 14.6679 h -4.45 c -12.25,0 -16.53,2.0742 -16.53,25.3399 V 219.219 h 24.99 c 28.83,0 33.36,-10.078 36.63,-24.313 l 0.8,-3.445 h 11.72 v 46.152 H 1829.1 Z m -106.68,31.48 h 4.45 c 12.47,0 17.55,-2.382 17.55,-26.347 V 75.7344 c 0,-23.8555 -5.35,-26.3477 -17.55,-26.3477 h -4.45 V 34.7188 h 78.65 v 14.6679 h -4.46 c -10.92,0 -17.55,1.7774 -17.55,26.3477 V 196.594 c 0,24.574 6.63,26.347 17.55,26.347 h 4.46 v 14.672 h -78.65 z m 431.52,14.672 v -14.672 h 4.46 c 3.98,0 6.54,-0.972 7.6,-2.871 2,-3.621 -0.07,-11.363 -5.26,-19.75 l -27.11,-42.879 -34.47,53.094 c -3.94,6.004 -3.49,8.281 -3.12,8.981 0.32,0.574 2.51,3.425 15.3,3.425 h 4.45 v 14.672 h -84.74 v -14.461 l 4.27,-0.211 c 13.57,-0.609 18.21,-4.246 30.98,-24.343 l 40.58,-63.243 V 75.7344 c 0,-26.3477 -8.06,-26.3477 -19.23,-26.3477 h -4.46 V 34.7188 h 79.66 v 14.6679 h -4.45 c -12.66,0 -16.88,3.8125 -16.88,26.3477 v 59.6566 l 42.98,67.589 c 10.3,16.118 14.39,19.09 27.35,19.961 l 4.16,0.278 v 14.394 z M 867.465,222.941 h 4.457 c 12.469,0 17.551,-2.382 17.551,-26.347 V 75.7344 c 0,-23.8555 -5.352,-26.3477 -17.551,-26.3477 h -4.457 V 34.7188 h 78.648 v 14.6679 h -4.453 c -10.918,0 -17.551,1.7774 -17.551,26.3477 V 196.594 c 0,24.574 6.633,26.347 17.551,26.347 h 4.453 v 14.672 h -78.648 z m -98.438,0 h 4.457 c 13.086,0 19.246,-2.695 19.246,-27.375 V 93.9922 L 677.449,237.613 h -56.355 v -14.269 l 4.062,-0.403 c 18.473,-1.617 24.711,-9.554 24.711,-31.429 V 78.1016 c 0,-25.875 -6.273,-28.7149 -19.578,-28.7149 h -4.453 V 34.7188 h 67.816 v 14.6679 h -4.457 c -15.652,0 -20.933,5.6211 -20.933,22.2774 V 196.02 l 129.535,-159.6645 1.34,-1.6367 h 12.32 V 196.926 c 0,20.429 4.43,26.015 20.594,26.015 h 4.457 v 14.672 h -67.481 z m 334.983,0 h 4.45 c 5.93,0 9.83,-1.289 11.59,-3.808 2.2,-3.168 1.79,-9.121 -1.21,-17.246 l -40.88,-109.7581 -43.2,114.1601 c -2.13,5.656 -2.31,10.195 -0.53,12.789 2.33,3.36 8.06,3.863 11.27,3.863 h 4.46 v 14.672 h -79.331 v -14.496 l 4.297,-0.176 c 14.937,-0.539 18.914,-6.679 28.154,-30.664 l 59.93,-157.4176 1.09,-2.8555 h 11.58 l 58.29,155.9061 c 8.91,23.981 18.49,34.684 31.03,34.684 h 4.46 v 15.019 h -65.45 z M 1337.9,77.2305 c -10.64,-23.4571 -15.5,-24.1172 -43,-24.1172 h -33.85 c -8.54,0 -9.76,1.8633 -9.76,8.7344 v 64.9453 h 43.61 c 17.96,0 19.24,-0.852 22.76,-15.207 l 0.83,-3.41 h 13.71 v 55.965 h -14 l -0.61,-3.727 c -2.37,-14.531 -5.87,-15.226 -16.59,-15.226 h -49.71 v 74.031 h 51.4 c 20.79,0 24.39,-1.324 28.13,-19.473 l 0.73,-3.551 h 11.82 v 41.418 h -148.72 v -14.672 h 4.45 c 12.2,0 17.55,-2.488 17.55,-26.347 V 75.3867 c 0,-23.5429 -5.35,-26 -17.55,-26 h -4.45 V 34.7188 h 147.76 l 10.98,45.125 h -14.3 z m -808.435,150.5115 1.683,-0.262 c 8.313,-1.25 14.047,-3.488 17.04,-6.664 2.437,-2.574 5.335,-9.777 5.335,-29.425 v -78.313 c 0,-18.785 -2.296,-32.8202 -6.832,-41.7186 -8.035,-15.668 -24.101,-23.6133 -47.761,-23.6133 -21.828,0 -36.203,7.5273 -43.93,22.9961 -4.164,8.4844 -6.27,20.6055 -6.27,36.0118 v 96.25 c 0,13.004 2.446,17.922 4.497,19.773 2.336,2.114 7.277,3.668 14.687,4.625 l 1.723,0.215 v 9.996 H 393.758 V 227.59 l 1.695,-0.25 c 8.969,-1.266 12.746,-3.254 14.336,-4.688 2.02,-1.851 4.434,-6.769 4.434,-19.648 v -94.043 c 0,-18.8633 3.3,-34.3165 9.793,-45.9297 12.082,-21.7305 35.007,-32.7579 68.152,-32.7579 33.535,0 56.66,11.1797 68.746,33.2188 6.492,11.8906 9.785,28.5781 9.785,49.5858 v 78.313 c 0,18.984 2.676,26.218 4.918,28.949 2.637,3.223 8.289,5.582 16.813,7.015 l 1.648,0.278 v 9.98 H 529.465 Z M 179.477,535.406 138.02,422.125 83.1328,571.473 c -3.1953,8.683 -3.7187,14.574 -1.5937,17.996 2.1054,3.39 7.6211,5.523 16.8554,6.508 l 3.9845,0.425 v 15.965 H 0 v -16.418 h 4.45313 c 18.93747,0 24.65237,0 38.58987,-37.273 L 121.27,346.879 h 13.312 L 190.934,503.91 Z M 638.023,320.801 c -23.843,1.07 -41.742,34.351 -60.699,69.586 -14.871,27.648 -30.203,56.136 -50.258,72.504 34.883,13.496 42.512,39.035 42.512,58.777 0,32.5 -25.285,65.293 -81.781,65.293 H 388.16 v -15.617 h 4.453 c 14.317,0 21.782,-1.418 21.782,-31.785 V 394.371 c 0,-30.672 -8.278,-32.23 -21.782,-32.23 h -4.453 v -15.645 h 92.32 v 15.645 h -4.457 c -15.183,0 -21.953,4.656 -21.953,32.23 v 174.981 h 19.91 c 32.567,0 54.442,-19.493 54.442,-48.493 0,-23.843 -13.234,-49.32 -50.379,-49.32 h -8.848 v -18.422 c 25.633,-0.57 41.114,-25.433 60.602,-56.937 9.91,-16.028 20.16,-32.594 33.125,-48.082 35.961,-43.02 58.586,-42.969 70.984,-42.864 1.332,0.028 8.293,-0.043 8.293,-0.043 l 0.207,15.418 z m 1564.557,41.34 c -17.58,0 -22.15,3.949 -28.85,24.945 l -68.06,202.582 h -30.27 l -64.88,-194.027 c -7.48,-22.145 -12.07,-30.77 -30.71,-33.551 l -3.8,-0.567 v -15.035 h 68.63 v 15.582 l -4.38,0.071 c -6.37,0.105 -10.55,1.496 -12.43,4.148 -3.89,5.5 -0.12,18.109 4.07,30.543 l 14.74,43.637 h 51.65 l -7.44,22.996 h -36.83 l 26.6,81.113 54.4,-165.574 c 1.3,-3.899 2.35,-9.234 0.02,-12.469 -2.62,-3.629 -9.07,-4.394 -14.02,-4.394 h -4.45 v -15.653 h 90.46 v 15.653 z m -1140.85,32.394 v 62.754 h 98.44 v 20.238 h -98.44 v 61.481 c 0,30.027 9.17,32.351 22.11,32.351 h 4.46 v 15.629 h -92.433 v -15.629 h 4.453 c 16.04,0 21.74,-4.89 21.74,-32.351 V 394.535 c 0,-30.211 -8.22,-32.394 -21.74,-32.394 h -4.453 v -15.653 h 92.433 v 15.653 h -4.46 c -15.29,0 -22.11,4.679 -22.11,32.394 z M 395.277,596.238 v 16.129 h -85.793 v -15.98 h 4.454 c 8.839,0 14.855,-2.203 17.882,-6.547 4.629,-6.621 3.594,-19.184 -3.082,-37.352 L 281.309,422.145 226.457,571.02 c -3.551,9.773 -4.141,16.464 -1.73,19.89 2.367,3.395 8.5,5.039 18.734,5.039 h 4.453 v 16.418 H 146.391 v -16.418 h 4.453 c 14.894,0 23.797,-3.844 31.09,-24.875 L 264.16,346.879 h 14.156 l 71.993,200.762 c 13.105,35.386 23.023,47.132 40.808,48.316 z m 2194.713,-197.711 -1.19,-2.609 c -12.87,-28.234 -19.41,-29.133 -52.03,-29.133 h -40.53 c -10.89,0 -12.63,2.664 -12.63,11.227 v 77.953 h 53.16 c 22.71,0 23.92,-1.852 28.1,-18.707 l 0.84,-3.387 h 14.69 v 65.164 h -14.99 l -0.61,-3.738 c -2.97,-18.188 -7.64,-19.109 -20.72,-19.109 h -60.47 v 90.507 h 62.49 c 24.93,0 29.73,-1.773 34.25,-23.953 l 0.73,-3.566 h 12.65 v 47.777 h -175.98 v -15.566 h 4.46 c 14.81,0 21.79,-3.211 21.79,-32.535 V 393.926 c 0,-30.297 -7.87,-31.778 -21.79,-31.778 h -4.46 v -15.589 h 175 l 12.6,51.968 z m -209.92,195.559 c -5.64,-4.418 -13.3,-7.16 -34,-7.16 h -121.14 c -8.44,0 -15.75,0.664 -21.25,1.941 -4.39,0.942 -7.44,2.41 -10.52,5.082 l -1.26,1.086 h -12.8 v -61.48 h 15.24 l 0.34,4.078 c 1.77,21.187 13.36,29.062 42.77,29.062 h 28.96 V 394.484 c 0,-30.16 -8.21,-32.336 -21.75,-32.336 h -4.46 v -15.66 h 90.93 v 15.66 h -4.45 c -14.96,0 -20.62,2.68 -20.62,31.11 v 173.437 h 30.7 c 35.02,0 40.72,-12.859 44.54,-29.668 l 0.79,-3.472 h 12.58 v 61.48 h -13.39 z m -393.78,-60.531 h 12.59 v 61.48 h -13.39 l -1.21,-0.949 c -5.65,-4.418 -13.31,-7.16 -34.03,-7.16 h -121.08 c -8.53,0 -15.65,0.644 -21.25,1.941 -4.38,0.93 -7.45,2.41 -10.59,5.098 l -1.25,1.07 h -12.76 v -61.48 h 15.2 l 0.35,4.078 c 1.8,21.187 13.39,29.062 42.75,29.062 h 29.03 V 394.484 c 0,-30.16 -8.22,-32.336 -21.76,-32.336 h -4.45 v -15.66 h 90.87 v 15.66 h -4.45 c -14.92,0 -20.56,2.68 -20.56,31.11 v 173.437 h 30.7 c 34.99,0 40.69,-12.859 44.51,-29.668 z m -287.26,-27.547 c -28.3,16.984 -52.73,31.644 -52.73,59.121 0,20.406 16.11,33.598 41.04,33.598 10.93,0 46.94,-3.473 51.71,-48.196 l 0.43,-3.988 h 16.16 v 67.93 h -15.07 l -0.94,-3.219 c -0.81,-2.828 -1.37,-3.707 -0.96,-3.531 -0.05,-0.02 -0.35,-0.086 -1.34,-0.086 -2.95,0 -6.72,1.218 -11.49,2.758 -8.65,2.8 -20.49,6.628 -38.02,6.628 -43.79,0 -73.22,-27.964 -73.22,-69.589 0,-22.391 7.45,-40.766 22.77,-56.176 9.73,-9.781 23.48,-18.332 38.05,-27.383 27.83,-17.289 56.6,-35.172 56.6,-61.918 0,-24.703 -18.12,-40.66 -46.17,-40.66 -15.51,0 -55.87,10.414 -56.34,57.976 l -0.04,4.411 h -16.26 v -77.286 h 15.04 l 1.03,3.02 c 2.21,6.512 4.6,6.512 5.5,6.512 2.24,0 7.23,-1.727 12.49,-3.543 11.48,-3.957 27.18,-9.379 45.17,-9.379 41.92,0 76.03,34.195 76.03,76.222 0,21.098 -6.92,37.102 -23.12,53.5 -13.28,13.446 -30.08,23.532 -46.32,33.278 z m -236.77,88.078 c -5.63,-4.418 -13.28,-7.16 -34.02,-7.16 h -121.07 c -8.56,0 -15.68,0.644 -21.24,1.941 -4.43,0.949 -7.48,2.418 -10.54,5.074 l -1.25,1.094 h -12.81 v -61.48 h 15.24 l 0.34,4.09 c 1.76,21.175 13.33,29.05 42.71,29.05 h 29 V 394.484 c 0,-30.16 -8.22,-32.336 -21.76,-32.336 h -4.46 v -15.66 h 90.91 v 15.66 h -4.46 c -14.93,0 -20.57,2.68 -20.57,31.11 v 173.437 h 30.7 c 34.99,0 40.54,-12.3 44.55,-29.687 l 0.8,-3.453 h 12.52 v 61.48 h -13.38 z m -309.55,-22.727 h 4.45 c 15.72,0 21.31,-4.89 21.31,-32.351 V 394.535 c 0,-30.89 -7.7,-32.394 -21.31,-32.394 h -4.45 v -15.653 h 91.63 v 15.653 h -4.46 c -15.06,0 -21.78,4.679 -21.78,32.394 v 144.473 c 0,27.68 6.72,32.351 21.78,32.351 h 4.46 v 15.629 h -91.63 z M 876.227,439.789 h 13.347 c 14.27,0 21.067,-5.07 21.067,-33.891 v -25 c 0,-16.679 -18.719,-20.175 -34.414,-20.175 -52.731,0 -90.997,47.656 -90.997,113.316 0,59.27 32.602,100.672 79.293,100.672 30.915,0 66.731,-18.414 72.305,-58.848 l 0.531,-3.843 h 14.942 v 77.16 h -14.766 l -1.168,-2.672 c -1.504,-3.426 -2.801,-4.934 -8.875,-4.934 -6.906,0 -13.199,1.848 -20.48,3.989 -10.278,3.007 -23.071,6.757 -42.567,6.757 -60.789,0 -123.672,-49.543 -123.672,-132.457 0,-57.359 36.84,-118.648 140.239,-118.648 8.953,0 51.929,1.816 66,5.664 l 3.277,0.894 v 65.418 c 0,19.891 6.109,26.598 24.207,26.598 h 4.453 v 15.664 H 876.227 Z M 622.508,586.988 h 92.109 v -15.629 h -4.453 c -15.078,0 -21.805,-4.671 -21.805,-32.367 V 394.508 c 0,-27.86 6.43,-32.36 21.805,-32.36 h 4.453 v -15.66 h -92.109 v 15.66 h 4.457 c 14.781,0 21.75,3.196 21.75,32.36 v 144.484 c 0,29.305 -6.629,32.367 -21.75,32.367 h -4.457 v 15.629"
         style="fill:#1f6632;fill-opacity:1;fill-rule:nonzero;stroke:none"
         id="path12" /></g></g></svg>
