<svg xmlns="http://www.w3.org/2000/svg" width="427.62095" height="80.71062" viewBox="0 0 427.62095 80.71062">
  <g id="Layer_2" data-name="Layer 2">
    <g id="Layer_1-2" data-name="Layer 1">
      <g>
        <path d="M412.753,41.25013h14.421v-4.586h-8.998v-13.745h7.979v-4.589h-7.979V5.57514h8.998v-4.59H412.753ZM392.1,5.73215h6.259v35.518h5.322V5.73215h6.072V.98514H392.1Zm-13.221,23.47.995-5.161q.7755-4.1715,1.354-7.891c.382-2.473.696-4.925.938-7.337q.75752,7.428,1.956,13.973l1.2,6.416Zm-7.509,12.048h5.218l1.535-7.849h7.979l1.515,7.849h5.37L384.358.98514h-4.227ZM354.5,5.73215h6.257v35.518h5.318V5.73215h6.081V.98514H354.5Zm-9.464-5.288a8.45973,8.45973,0,0,0-6.652,2.784,10.88774,10.88774,0,0,0-2.45,7.486,11.99912,11.99912,0,0,0,1.251,5.79,16.82593,16.82593,0,0,0,2.011,2.736q1.35449,1.5645,3.412,3.598c.883.886,1.627,1.693,2.217,2.415a15.97448,15.97448,0,0,1,1.381,1.918,7.98628,7.98628,0,0,1,.965,3.936,5.971,5.971,0,0,1-1.25,4,4.30435,4.30435,0,0,1-3.466,1.475,9.2435,9.2435,0,0,1-5.27-2.11v5.369a9.3538,9.3538,0,0,0,5.92,1.905,8.667,8.667,0,0,0,6.753-2.945,11.30441,11.30441,0,0,0,2.631-7.694,12.8057,12.8057,0,0,0-1.197-5.814,24.14837,24.14837,0,0,0-4.51-5.817q-1.803-1.8-2.937-3.078a15.71451,15.71451,0,0,1-1.627-2.086,6.57714,6.57714,0,0,1-.966-3.622,5.35315,5.35315,0,0,1,1.356-3.833,4.47053,4.47053,0,0,1,3.495-1.512,7.932,7.932,0,0,1,4.457,1.775v-5.294a11.717,11.717,0,0,0-5.524-1.382m-32.615,23.494v17.312h5.424v-17.312L324.86.98514h-5.661l-2.243,9.106-.312,1.406-.834,3.598q-.31347,1.27955-.783,4.514a62.40368,62.40368,0,0,0-2.035-7.978c-.121-.369-.223-.708-.311-1.019l-.26-.865-2.66-8.762h-5.739Zm-24.592,17.312H302.25v-4.586h-8.994v-13.745h7.978v-4.589h-7.978V5.57514h8.994v-4.59H287.829Zm-17.68,0h14.288v-4.586h-8.862V.98514h-5.426Zm-17.677,0h14.287v-4.586h-8.867V.98514h-5.42Zm-17.291-12.048.992-5.161q.783-4.1715,1.357-7.891c.382-2.473.695-4.925.934-7.337q.7635,7.428,1.96,13.973l1.2,6.416Zm-7.51,12.048h5.215l1.539-7.849h7.979l1.511,7.849h5.373L240.659.98514h-4.226Zm-11.186,0h4.302L228.69.98514h-5.061l-2.606,14.866c-.074.369-.145.786-.224,1.255-.078.468-.161.979-.245,1.536l-.912,6.125-.705,4.671-.107.783c-.036.311-.075.671-.129,1.067l-.263-1.98q-.12754-.9885-.3-2.216c-.111-.82-.236-1.72-.375-2.712l-.861-5.841-.417-2.688L214.06.98514h-5.345Zm-27.25,0h5.421V.98514h-5.421Zm-15.748-35.699h.756a4.59693,4.59693,0,0,1,3.936,1.669q1.25249,1.668,1.252,5.269,0,3.5235-1.303,4.901-1.27954,1.356-4.641,1.357Zm-5.424,35.699h5.424v-17.862a17.2626,17.2626,0,0,0,6.857-1.067q4.71753-2.3535,4.716-10.379,0-5.715-2.343-8.344-2.349-2.60851-7.509-2.613h-7.145Zm-15.751-35.699h.759a4.59942,4.59942,0,0,1,3.936,1.669q1.251,1.668,1.252,5.269,0,3.5235-1.306,4.901-1.275,1.356-4.641,1.357Zm-5.425,35.699h5.425v-17.862a17.27711,17.27711,0,0,0,6.859-1.067q4.716-2.3535,4.72-10.379,0-5.715-2.35-8.344-2.3445-2.60851-7.509-2.613h-7.145Zm-11.63,0h5.421V.98514h-5.421ZM123.24.44413a8.45545,8.45545,0,0,0-6.652,2.784,10.88336,10.88336,0,0,0-2.451,7.486,11.98752,11.98752,0,0,0,1.251,5.79,17.01125,17.01125,0,0,0,2.007,2.736q1.356,1.5645,3.416,3.598,1.329,1.329,2.217,2.415a15.9749,15.9749,0,0,1,1.381,1.918,7.97565,7.97565,0,0,1,.965,3.936,5.97591,5.97591,0,0,1-1.249,4,4.30645,4.30645,0,0,1-3.471,1.475,9.24326,9.24326,0,0,1-5.266-2.11v5.369a9.35579,9.35579,0,0,0,5.92,1.905,8.67137,8.67137,0,0,0,6.753-2.945,11.28968,11.28968,0,0,0,2.631-7.694,12.84617,12.84617,0,0,0-1.194-5.814,24.18358,24.18358,0,0,0-4.517-5.817q-1.79551-1.8-2.933-3.078a15.51939,15.51939,0,0,1-1.626-2.086,6.55167,6.55167,0,0,1-.965-3.622,5.35216,5.35216,0,0,1,1.354-3.833,4.46905,4.46905,0,0,1,3.495-1.512,7.92407,7.92407,0,0,1,4.457,1.775v-5.294a11.716,11.716,0,0,0-5.523-1.382m-19.927,0a8.46332,8.46332,0,0,0-6.649,2.784,10.902,10.902,0,0,0-2.449,7.486,11.99859,11.99859,0,0,0,1.252,5.79,16.5044,16.5044,0,0,0,2.005,2.736q1.356,1.5645,3.419,3.598,1.329,1.329,2.213,2.415a15.71075,15.71075,0,0,1,1.384,1.918,7.97565,7.97565,0,0,1,.965,3.936,5.962,5.962,0,0,1-1.255,4,4.28524,4.28524,0,0,1-3.464,1.475,9.24582,9.24582,0,0,1-5.267-2.11v5.369a9.35111,9.35111,0,0,0,5.917,1.905,8.66036,8.66036,0,0,0,6.754-2.945,11.29754,11.29754,0,0,0,2.636-7.694,12.80481,12.80481,0,0,0-1.2-5.814,24.15749,24.15749,0,0,0-4.511-5.817q-1.8-1.8-2.936-3.078a15.76121,15.76121,0,0,1-1.629-2.086,6.57665,6.57665,0,0,1-.965-3.622,5.35,5.35,0,0,1,1.358-3.833,4.47,4.47,0,0,1,3.492-1.512,7.95284,7.95284,0,0,1,4.462,1.775v-5.294a11.75114,11.75114,0,0,0-5.532-1.382m-19.528,40.806h5.418V.98514H83.785ZM71.764.44413a8.45615,8.45615,0,0,0-6.651,2.784,10.89711,10.89711,0,0,0-2.449,7.486,11.988,11.988,0,0,0,1.249,5.79,16.95027,16.95027,0,0,0,2.007,2.736q1.356,1.5645,3.42,3.598,1.3275,1.329,2.212,2.415a15.24735,15.24735,0,0,1,1.382,1.918,7.98638,7.98638,0,0,1,.965,3.936,5.96021,5.96021,0,0,1-1.249,4,4.303,4.303,0,0,1-3.468,1.475,9.24849,9.24849,0,0,1-5.269-2.11v5.369a9.35682,9.35682,0,0,0,5.919,1.905,8.68176,8.68176,0,0,0,6.758-2.945,11.31371,11.31371,0,0,0,2.63-7.694,12.79242,12.79242,0,0,0-1.198-5.814,24.1058,24.1058,0,0,0-4.514-5.817q-1.7955-1.8-2.935-3.078a15.55722,15.55722,0,0,1-1.624-2.086,6.56071,6.56071,0,0,1-.967-3.622,5.34561,5.34561,0,0,1,1.358-3.833,4.46365,4.46365,0,0,1,3.491-1.512,7.92418,7.92418,0,0,1,4.457,1.775v-5.294a11.71118,11.71118,0,0,0-5.524-1.382m-19.923,0a8.4654,8.4654,0,0,0-6.652,2.784,10.88737,10.88737,0,0,0-2.449,7.486,12.03422,12.03422,0,0,0,1.249,5.79,16.9498,16.9498,0,0,0,2.007,2.736q1.3575,1.5645,3.42,3.598,1.329,1.329,2.213,2.415a15.99224,15.99224,0,0,1,1.387,1.918,8.04066,8.04066,0,0,1,.965,3.936,5.962,5.962,0,0,1-1.255,4,4.29142,4.29142,0,0,1-3.467,1.475,9.25108,9.25108,0,0,1-5.27-2.11v5.369a9.37421,9.37421,0,0,0,5.923,1.905,8.67053,8.67053,0,0,0,6.754-2.945,11.31544,11.31544,0,0,0,2.633-7.694,12.80468,12.80468,0,0,0-1.2-5.814,24.18323,24.18323,0,0,0-4.511-5.817q-1.8-1.8-2.933-3.078a15.83233,15.83233,0,0,1-1.632-2.086,6.57657,6.57657,0,0,1-.965-3.622,5.35,5.35,0,0,1,1.358-3.833,4.47007,4.47007,0,0,1,3.492-1.512,7.9372,7.9372,0,0,1,4.459,1.775v-5.294a11.719,11.719,0,0,0-5.526-1.382M32.31,41.25013h5.421V.98514H32.31Zm-31.866,0H5.556l1.564-27.742q.417,3.38851.925,6.476.507,3.093,1.16,6.089l3.181,15.177h3.652l3.389-17.577.26-1.379.68-3.677c.086-.486.185-1.088.3-1.802q.168-1.065.378-2.503l.13-.804.039.454.012.22.13,4.958.236,5.394c0,.333.015.75.04,1.251.024.506.057,1.107.093,1.799l.91,13.666h5.188L24.12.98514H19.427l-3.156,16.145-.602,2.896-.674,4.381-.755,4.614-.055.353-.076.69q-.444-3.393-.979-6.479-.53552-3.093-1.185-6.168L8.398.98514H3.755Z" style="fill: #00703c"/>
        <path d="M412.753,41.25013v.448h14.421l.447-.448v-4.586l-.447-.448H418.62v-12.852h7.535l.448-.445v-4.589l-.448-.447H418.62V6.02213h8.554l.447-.447v-4.59l-.447-.444H412.753l-.445.444v40.265l.445.448v-.448h.445V1.43314h13.531v3.698h-8.553l-.444.444v12.755l.444.445h7.535v3.697h-7.535l-.444.447v13.745l.444.444h8.553v3.698H412.753v.444h0ZM392.1,5.73215v.445h5.815v35.073l.444.448h5.322l.443-.448V6.17713h5.629l.445-.445V.98514l-.445-.444H392.1l-.444.444v4.747l.444.445v-.445h.445v-4.299h16.764v3.854h-5.628l-.445.445v35.074h-4.432V5.73215l-.445-.445H392.1v.445h0Zm-13.221,23.47.438.084.996-5.16v-.006q.774-4.1775,1.354-7.897.576-3.732.943-7.368l-.444-.042-.445.042q.762,7.45052,1.963,14.013l1.104,5.886h-5.909v.448l.438.084-.438-.084v.444h6.443l.432-.526-1.197-6.415.003.006q-1.19247-6.531-1.95-13.943h-.889c-.238,2.409-.556,4.846-.934,7.316q-.57147,3.70948-1.351,7.873v-.004l-.992,5.167.435.526Zm-7.509,12.048v.448h5.218l.438-.363,1.463-7.489h7.248l1.442,7.489.438.363h5.37l.435-.542L384.793.89414l-.435-.353h-4.227l-.432.353-8.762,40.259.433.545v-.448l.435.097,8.686-39.914h3.508l8.437,39.373H387.98l-1.439-7.489-.439-.36h-7.979l-.438.356-1.467,7.493H371.37v.444l.435.097ZM354.5,5.73215v.445h5.813v35.073l.444.448h5.318l.448-.448V6.17713h5.633l.444-.445V.98514l-.444-.444H354.5l-.445.444v4.747l.445.445v-.445h.445v-4.299h16.763v3.854h-5.633l-.444.445v35.074h-4.429V5.73215l-.445-.445H354.5v.445h0Zm-9.464-5.288v-.444a8.87863,8.87863,0,0,0-6.986,2.933,11.3359,11.3359,0,0,0-2.561,7.781,12.41645,12.41645,0,0,0,1.303,6.002l.003.003a17.11532,17.11532,0,0,0,2.061,2.811q1.36653,1.587,3.438,3.628l-.003-.002a32.177,32.177,0,0,1,2.19,2.382,15.19579,15.19579,0,0,1,1.345,1.859l.38-.226-.389.211a7.61493,7.61493,0,0,1,.909,3.725,5.50692,5.50692,0,0,1-1.146,3.712,3.85546,3.85546,0,0,1-3.125,1.319,8.77484,8.77484,0,0,1-5.006-2.029l-.708.363v5.369l.169.351a9.822,9.822,0,0,0,6.195,1.998,9.11134,9.11134,0,0,0,7.086-3.093l.003-.005a11.71489,11.71489,0,0,0,2.739-7.985,13.25533,13.25533,0,0,0-1.243-6.017l-.398.203.401-.194a24.3357,24.3357,0,0,0-4.595-5.932v-.003q-1.79548-1.79548-2.917-3.059a16.126,16.126,0,0,1-1.587-2.026l-.002-.006a6.13493,6.13493,0,0,1-.893-3.383,4.88159,4.88159,0,0,1,1.234-3.528l.008-.009a4.01472,4.01472,0,0,1,3.162-1.361,7.51554,7.51554,0,0,1,4.2,1.685l.701-.357v-5.294l-.235-.4a12.0874,12.0874,0,0,0-5.733-1.426v.889a11.30841,11.30841,0,0,1,5.318,1.324l.206-.387h-.444v5.294h.444l.261-.366a8.34831,8.34831,0,0,0-4.718-1.853,4.9169,4.9169,0,0,0-3.826,1.659l.331.297-.323-.309a5.80631,5.80631,0,0,0-1.478,4.142,7.04907,7.04907,0,0,0,1.034,3.864l.377-.242-.379.233a16.162,16.162,0,0,0,1.677,2.149c.764.862,1.744,1.896,2.951,3.1l-.003-.004a23.68815,23.68815,0,0,1,4.426,5.696l.003.006a12.33743,12.33743,0,0,1,1.151,5.615,10.80259,10.80259,0,0,1-2.524,7.398l.338.296-.334-.299a8.1999,8.1999,0,0,1-6.419,2.799,8.9135,8.9135,0,0,1-5.646-1.808l-.274.348h.445v-5.369h-.445l-.264.356a9.65967,9.65967,0,0,0,5.534,2.198,4.74022,4.74022,0,0,0,3.803-1.629,6.41272,6.41272,0,0,0,1.357-4.29,8.46908,8.46908,0,0,0-1.018-4.151l-.007-.015a17.27331,17.27331,0,0,0-1.418-1.972c-.607-.734-1.354-1.551-2.246-2.443l-.006-.005q-2.05353-2.0235-3.392-3.574a16.59513,16.59513,0,0,1-1.953-2.658h.004a11.49652,11.49652,0,0,1-1.201-5.575,10.44413,10.44413,0,0,1,2.337-7.189,7.99924,7.99924,0,0,1,6.321-2.636Zm-32.615,23.494h-.447v17.312l.447.448h5.424l.444-.448v-17.251l6.996-22.881-.425-.577h-5.661l-.433.338-2.24,9.107-.002.006-.315,1.409.004-.007-.838,3.604.435.097-.432-.102c-.215.882-.474,2.391-.789,4.549l.438.067.441-.079a63.88864,63.88864,0,0,0-2.05-8.036v-.009c-.123-.356-.226-.689-.308-.994l-.003-.007-.259-.864-2.665-8.761-.422-.318h-5.739l-.417.598,8.398,22.95.418-.151h0l.417-.154-8.178-22.351h4.77l2.562,8.447.262.859.427-.127-.43.117c.087.324.197.665.321,1.04l.42-.138-.423.129a61.94362,61.94362,0,0,1,2.02,7.921l.879-.011c.315-2.147.572-3.647.778-4.466v-.009l.828-3.598v-.003l.317-1.405,2.156-8.756h4.71l-6.839,22.372-.021.133v16.868h-4.531v-16.868l-.028-.154Zm-24.592,17.312v.448H302.25l.445-.448v-4.586l-.445-.448h-8.549v-12.852h7.533l.445-.445v-4.589l-.445-.447h-7.533V6.02213h8.549l.445-.447v-4.59l-.445-.444H287.829l-.447.444v40.265l.447.448v-.448h.445V1.43314h13.531v3.698h-8.549l-.444.444v12.755l.444.445h7.534v3.697h-7.534l-.444.447v13.745l.444.444h8.549v3.698H287.829v.444h0Zm-17.68,0v.448h14.288l.447-.448v-4.586l-.447-.448H276.02V.98514l-.445-.444h-5.426l-.445.444v40.265l.445.448v-.448h.444V1.43314h4.538v35.231l.444.444h8.418v3.698H270.149v.444h0Zm-17.677,0v.448h14.287l.445-.448v-4.586l-.445-.448h-8.422V.98514l-.445-.444h-5.42l-.445.444v40.265l.445.448v-.448h.444V1.43314h4.532v35.231l.444.444h8.42v3.698h-13.84v.444h0Zm-17.291-12.048.435.084.995-5.16v-.006c.517-2.785.976-5.415,1.354-7.897q.582-3.732.944-7.368l-.445-.042-.438.042q.7575,7.45052,1.962,14.013l1.097,5.886h-5.904v.448l.435.084-.435-.084v.444h6.443l.438-.526-1.2-6.415v.006q-1.19847-6.531-1.953-13.943h-.883q-.3675,3.6135-.941,7.316-.56553,3.70948-1.351,7.873v-.004l-.992,5.167.439.526Zm-7.51,12.048v.448h5.215l.439-.363,1.466-7.489h7.247l1.439,7.489.438.363h5.373l.436-.542L241.092.89414l-.433-.353h-4.226l-.432.353-8.763,40.259.433.545v-.448l.436.097,8.686-39.914h3.506l8.438,39.373h-4.453l-1.442-7.489-.438-.36h-7.979l-.436.356-1.472,7.493h-4.846v.444l.436.097Zm-11.186,0v.448h4.302l.435-.363,7.906-40.262-.438-.532h-5.061l-.435.372-2.613,14.862.442.076-.435-.082c-.077.369-.149.789-.227,1.258-.076.478-.161.989-.248,1.548l-.911,6.131v-.003l-.707,4.668v.01l-.106.779v.01c-.036.311-.078.661-.13,1.061l.442.057.441-.057-.263-1.981c-.085-.665-.185-1.402-.3-2.219q-.1665-1.2285-.375-2.715v-.003l-.86-5.838-.418-2.691v-.002L214.498.91614l-.438-.375h-5.345l-.436.532,7.767,40.262.439.363v-.448l.435-.084-7.665-39.733h4.426l2.365,14.49v-.003l.418,2.688v-.006l.858,5.838q.20847,1.488.378,2.712c.112.813.212,1.554.302,2.213l.257,1.98h.883c.054-.401.1-.759.133-1.073l-.445-.051.442.057.103-.777.708-4.664.912-6.132-.003.006c.088-.556.17-1.067.249-1.536q.11253-.699.218-1.239l.003-.003,2.541-14.5h4.146l-7.725,39.373h-3.939v.444l.435-.084Zm-27.25,0v.448h5.425l.444-.448V.98514l-.444-.444h-5.425l-.444.444v40.265l.444.448v-.448h.445V1.43314h4.535v39.373h-4.98v.444h0Zm-15.748-35.699v.447h.756a4.15641,4.15641,0,0,1,3.582,1.49c.744.983,1.164,2.649,1.161,5.001.007,2.298-.441,3.825-1.182,4.598-.707.759-2.129,1.219-4.317,1.213v.447h.445V5.55115h-.445v0h-.447v13.196l.447.445c2.295-.003,3.964-.451,4.964-1.497.998-1.067,1.422-2.811,1.424-5.206,0-2.449-.414-4.293-1.339-5.536a5.05417,5.05417,0,0,0-4.293-1.847h-.756l-.447.445Zm-5.424,35.699v.448h5.424l.445-.448v-17.862h-.445v.444a17.70412,17.70412,0,0,0,7.039-1.106l.015-.006c3.355-1.669,4.978-5.354,4.964-10.778,0-3.864-.786-6.76-2.455-8.641l-.004-.003c-1.677-1.865-4.329-2.757-7.838-2.757h-7.145l-.448.444v40.265l.448.448v-.448h.444V1.43314h6.701c3.373.003,5.731.85,7.174,2.461,1.457,1.629,2.24,4.296,2.234,8.048-.009,5.284-1.53,8.513-4.471,9.98l.199.399-.187-.408a16.90461,16.90461,0,0,1-6.67,1.031l-.447.444v17.418h-4.977v.444h0Zm-15.751-35.699v.447h.759a4.15408,4.15408,0,0,1,3.579,1.49c.744.983,1.165,2.649,1.162,5.001.003,2.298-.442,3.825-1.183,4.598-.705.759-2.131,1.219-4.317,1.213v.447h.444V5.55115h-.444v0h-.445v13.196l.445.445c2.294-.003,3.963-.451,4.964-1.497.998-1.067,1.424-2.811,1.428-5.206-.004-2.449-.418-4.293-1.34-5.536a5.05786,5.05786,0,0,0-4.293-1.847h-.759l-.445.445Zm-5.425,35.699v.448h5.425l.444-.448v-17.862h-.444v.444a17.72487,17.72487,0,0,0,7.041-1.106l.012-.006c3.356-1.669,4.98-5.354,4.97-10.778,0-3.864-.789-6.76-2.461-8.641v-.003c-1.681-1.865-4.332-2.757-7.842-2.757h-7.145l-.444.444v40.265l.444.448v-.448h.446V1.43314h6.699c3.377.003,5.729.85,7.181,2.461,1.456,1.629,2.234,4.296,2.23,8.048-.008,5.284-1.535,8.513-4.471,9.98l.199.399-.184-.408a16.91535,16.91535,0,0,1-6.675,1.031l-.445.444v17.418h-4.98v.444h0Zm-11.63,0v.448h5.423l.445-.448V.98514l-.445-.444h-5.423l-.444.444v40.265l.444.448v-.448h.444V1.43314h4.535v39.373h-4.979v.444h0ZM123.24.44413v-.444a8.85528,8.85528,0,0,0-6.981,2.933,11.29466,11.29466,0,0,0-2.567,7.781,12.42766,12.42766,0,0,0,1.303,6.002l.003.003a17.12921,17.12921,0,0,0,2.062,2.811q1.36351,1.587,3.44,3.628l-.005-.002q1.3185,1.3185,2.189,2.382a15.30408,15.30408,0,0,1,1.345,1.859l.38-.226-.39.211a7.53992,7.53992,0,0,1,.91,3.725,5.52247,5.52247,0,0,1-1.145,3.712,3.86042,3.86042,0,0,1-3.13,1.319,8.77993,8.77993,0,0,1-5.003-2.029l-.707.363v5.369l.169.351a9.8219,9.8219,0,0,0,6.195,1.998,9.10366,9.10366,0,0,0,7.083-3.093l.006-.005a11.74144,11.74144,0,0,0,2.742-7.985,13.25494,13.25494,0,0,0-1.246-6.017l-.395.203.398-.194a24.36161,24.36161,0,0,0-4.592-5.932l-.003-.003q-1.7955-1.79548-2.917-3.059a16.0591,16.0591,0,0,1-1.588-2.026l-.003-.006a6.15156,6.15156,0,0,1-.892-3.383,4.89494,4.89494,0,0,1,1.235-3.528l.008-.009a4.01482,4.01482,0,0,1,3.162-1.361,7.52594,7.52594,0,0,1,4.2,1.685l.701-.357v-5.294l-.236-.4a12.08235,12.08235,0,0,0-5.731-1.426v.889a11.31417,11.31417,0,0,1,5.318,1.324l.205-.387h-.444v5.294h.444l.259-.366a8.33773,8.33773,0,0,0-4.716-1.853,4.90839,4.90839,0,0,0-3.824,1.659l.329.297-.323-.309a5.81963,5.81963,0,0,0-1.478,4.142,7.04941,7.04941,0,0,0,1.034,3.864l.378-.242-.381.233a16.61939,16.61939,0,0,0,1.674,2.149c.769.862,1.748,1.896,2.952,3.1l-.004-.004a23.64629,23.64629,0,0,1,4.43,5.696l.003.006a12.36353,12.36353,0,0,1,1.151,5.615,10.80258,10.80258,0,0,1-2.524,7.398l.338.296-.329-.299a8.21177,8.21177,0,0,1-6.424,2.799,8.90877,8.90877,0,0,1-5.645-1.808l-.275.348h.444v-5.369h-.444l-.264.356a9.65159,9.65159,0,0,0,5.53,2.198,4.74978,4.74978,0,0,0,3.809-1.629,6.42254,6.42254,0,0,0,1.355-4.29,8.42653,8.42653,0,0,0-1.019-4.151l-.006-.015a16.55954,16.55954,0,0,0-1.418-1.972c-.607-.734-1.354-1.551-2.246-2.443v-.005h-.009q-2.0505-2.0235-3.387-3.574a16.73656,16.73656,0,0,1-1.958-2.658h.002a11.54445,11.54445,0,0,1-1.196-5.575,10.41572,10.41572,0,0,1,2.34-7.189,7.99639,7.99639,0,0,1,6.319-2.636Zm-19.927,0v-.444a8.878,8.878,0,0,0-6.981,2.933,11.32247,11.32247,0,0,0-2.564,7.781,12.39227,12.39227,0,0,0,1.309,6.002v.003a17.128,17.128,0,0,0,2.062,2.811q1.36949,1.587,3.437,3.628l-.002-.002q1.3185,1.3185,2.188,2.382a15.04775,15.04775,0,0,1,1.343,1.859l.383-.226-.389.211a7.61567,7.61567,0,0,1,.91,3.725,5.55966,5.55966,0,0,1-1.146,3.712,3.86654,3.86654,0,0,1-3.129,1.319,8.79,8.79,0,0,1-5.007-2.029l-.708.363v5.369l.176.351a9.793,9.793,0,0,0,6.189,1.998,9.104,9.104,0,0,0,7.086-3.093l.003-.005a11.72851,11.72851,0,0,0,2.745-7.985,13.215,13.215,0,0,0-1.251-6.017l-.393.203.396-.194a24.36153,24.36153,0,0,0-4.592-5.932v-.003h-.003c-1.198-1.197-2.165-2.215-2.915-3.059a15.50574,15.50574,0,0,1-1.581-2.026l-.006-.006a6.119,6.119,0,0,1-.895-3.383,4.89878,4.89878,0,0,1,1.234-3.528l.009-.009a4.02185,4.02185,0,0,1,3.162-1.361,7.52865,7.52865,0,0,1,4.2,1.685l.707-.357v-5.294l-.24-.4a12.10575,12.10575,0,0,0-5.737-1.426v.889a11.32606,11.32606,0,0,1,5.324,1.324l.208-.387h-.444v5.294h.444l.257-.366a8.3509,8.3509,0,0,0-4.719-1.853,4.907,4.907,0,0,0-3.824,1.659l.332.297-.324-.309a5.80643,5.80643,0,0,0-1.478,4.142,7.00066,7.00066,0,0,0,1.037,3.864l.372-.242-.381.233a16.61963,16.61963,0,0,0,1.678,2.149q1.1475,1.293,2.95,3.1v-.004a23.85612,23.85612,0,0,1,4.43,5.696v.006a12.32309,12.32309,0,0,1,1.154,5.615,10.84167,10.84167,0,0,1-2.524,7.398l.333.296-.329-.299a8.221,8.221,0,0,1-6.425,2.799,8.92525,8.92525,0,0,1-5.648-1.808l-.269.348h.444v-5.369h-.444l-.263.356a9.634,9.634,0,0,0,5.53,2.198,4.73273,4.73273,0,0,0,3.806-1.629,6.41418,6.41418,0,0,0,1.36-4.29,8.43846,8.43846,0,0,0-1.021-4.151l-.009-.015a16.39763,16.39763,0,0,0-1.421-1.972c-.602-.734-1.352-1.551-2.247-2.443v-.005q-2.049-2.0235-3.392-3.574a16.51742,16.51742,0,0,1-1.956-2.658,11.58,11.58,0,0,1-1.194-5.575A10.40127,10.40127,0,0,1,97,3.52515a7.97528,7.97528,0,0,1,6.313-2.636Zm-19.528,40.806v.448h5.427l.444-.448V.98514l-.444-.444H83.785l-.447.444v40.265l.447.448v-.448h.445V1.43314h4.534v39.373H83.785v.444h0ZM71.764.44413v-.444a8.87718,8.87718,0,0,0-6.984,2.933,11.31093,11.31093,0,0,0-2.56,7.781,12.46269,12.46269,0,0,0,1.3,6.002l.005.003a17.20637,17.20637,0,0,0,2.059,2.811q1.36952,1.587,3.441,3.628l-.003-.002a31.82612,31.82612,0,0,1,2.186,2.382,14.67532,14.67532,0,0,1,1.345,1.859l.381-.226-.387.211a7.57049,7.57049,0,0,1,.907,3.725,5.53789,5.53789,0,0,1-1.143,3.712,3.85971,3.85971,0,0,1-3.129,1.319,8.7774,8.7774,0,0,1-5.006-2.029l-.708.363v5.369l.17.351a9.82111,9.82111,0,0,0,6.194,1.998,9.1105,9.1105,0,0,0,7.087-3.093l.003-.005a11.72651,11.72651,0,0,0,2.742-7.985,13.21555,13.21555,0,0,0-1.246-6.017l-.396.203.396-.194a24.31174,24.31174,0,0,0-4.589-5.932l-.006-.003q-1.791-1.79548-2.914-3.059a15.7,15.7,0,0,1-1.585-2.026l-.002-.006a6.14308,6.14308,0,0,1-.892-3.383,4.89688,4.89688,0,0,1,1.23-3.528l.009-.009a4.01338,4.01338,0,0,1,3.162-1.361,7.54158,7.54158,0,0,1,4.203,1.685l.701-.357v-5.294l-.235-.4a12.10758,12.10758,0,0,0-5.736-1.426v.889a11.29957,11.29957,0,0,1,5.318,1.324l.206-.387h-.445v5.294h.445l.263-.366a8.351,8.351,0,0,0-4.72-1.853,4.90264,4.90264,0,0,0-3.824,1.659l.333.297-.327-.309a5.80027,5.80027,0,0,0-1.475,4.142,7.02211,7.02211,0,0,0,1.03,3.864l.381-.242-.383.233a16.53067,16.53067,0,0,0,1.678,2.149q1.146,1.293,2.95,3.1l-.003-.004a23.72441,23.72441,0,0,1,4.43,5.696l.003.006a12.33859,12.33859,0,0,1,1.148,5.615,10.80088,10.80088,0,0,1-2.521,7.398l.339.296-.333-.299a8.21384,8.21384,0,0,1-6.425,2.799,8.90783,8.90783,0,0,1-5.644-1.808l-.275.348h.447v-5.369h-.447l-.263.356a9.65436,9.65436,0,0,0,5.532,2.198,4.75251,4.75251,0,0,0,3.807-1.629,6.42733,6.42733,0,0,0,1.354-4.29,8.43522,8.43522,0,0,0-1.016-4.151l-.009-.015a16.51,16.51,0,0,0-1.421-1.972c-.604-.734-1.351-1.551-2.246-2.443v-.005h-.003c-1.367-1.349-2.501-2.54-3.389-3.574a16.3353,16.3353,0,0,1-1.956-2.658h.003a11.50975,11.50975,0,0,1-1.197-5.575,10.4147,10.4147,0,0,1,2.337-7.189,7.9957,7.9957,0,0,1,6.318-2.636Zm-19.923,0v-.444a8.86945,8.86945,0,0,0-6.981,2.933,11.29326,11.29326,0,0,0-2.564,7.781,12.39288,12.39288,0,0,0,1.306,6.002v.003a17.12849,17.12849,0,0,0,2.062,2.811q1.3695,1.587,3.437,3.628v-.002a32.26138,32.26138,0,0,1,2.186,2.382,15.777,15.777,0,0,1,1.346,1.859l.383-.226-.392.211a7.66138,7.66138,0,0,1,.913,3.725,5.5815,5.5815,0,0,1-1.149,3.712,3.85834,3.85834,0,0,1-3.129,1.319,8.78748,8.78748,0,0,1-5.004-2.029l-.711.363v5.369l.176.351a9.79563,9.79563,0,0,0,6.192,1.998,9.10219,9.10219,0,0,0,7.083-3.093l.003-.005a11.71442,11.71442,0,0,0,2.746-7.985,13.21518,13.21518,0,0,0-1.249-6.017l-.396.203.399-.194a24.42046,24.42046,0,0,0-4.593-5.932v-.003h-.002q-1.797-1.79548-2.918-3.059a15.50522,15.50522,0,0,1-1.581-2.026l-.006-.006a6.14308,6.14308,0,0,1-.892-3.383,4.90263,4.90263,0,0,1,1.233-3.528l.01-.009a4.01,4.01,0,0,1,3.159-1.361,7.539,7.539,0,0,1,4.202,1.685l.705-.357v-5.294l-.239-.4a12.08934,12.08934,0,0,0-5.735-1.426v.889a11.33089,11.33089,0,0,1,5.323,1.324l.203-.387h-.444v5.294h.444l.263-.366a8.359,8.359,0,0,0-4.722-1.853,4.90863,4.90863,0,0,0-3.822,1.659l.33.297-.324-.309a5.80657,5.80657,0,0,0-1.478,4.142,7.01733,7.01733,0,0,0,1.037,3.864l.372-.242-.378.233a16.20192,16.20192,0,0,0,1.675,2.149q1.1475,1.293,2.95,3.1v-.004a23.75057,23.75057,0,0,1,4.43,5.696v.006a12.32367,12.32367,0,0,1,1.152,5.615,10.84544,10.84544,0,0,1-2.522,7.398l.336.296-.333-.299a8.21132,8.21132,0,0,1-6.421,2.799,8.91736,8.91736,0,0,1-5.648-1.808l-.275.348h.445v-5.369h-.445l-.257.356a9.62367,9.62367,0,0,0,5.527,2.198,4.74088,4.74088,0,0,0,3.806-1.629,6.41418,6.41418,0,0,0,1.36-4.29,8.43846,8.43846,0,0,0-1.021-4.151l-.006-.015a16.738,16.738,0,0,0-1.421-1.972c-.602-.734-1.355-1.551-2.25-2.443v-.005q-2.049-2.0235-3.392-3.574a16.47122,16.47122,0,0,1-1.953-2.658,11.57861,11.57861,0,0,1-1.197-5.575,10.41577,10.41577,0,0,1,2.34-7.189,7.98581,7.98581,0,0,1,6.316-2.636ZM32.31,41.25013v.448h5.424l.447-.448V.98514l-.447-.444H32.31l-.445.444v40.265l.445.448v-.448h.444V1.43314h4.535v39.373H32.31v.444h0Zm-31.866,0v.448H5.556l.442-.421,1.566-27.745-.444-.024-.442.051q.417,3.402.931,6.497.504,3.1035,1.161,6.114v-.004l3.181,15.174.435.358h3.652l.439-.363,3.389-17.575.26-1.388.677-3.676c.088-.493.187-1.095.3-1.811.114-.71.245-1.551.383-2.509l-.441-.064.441.07.127-.805-.438-.069-.445.036.04.451.015.209.127,4.945v.007l.236,5.399.444-.021h-.444c0,.341.012.765.039,1.276q.036.756.091,1.799v.006l.913,13.665.444.418h5.188l.445-.487L24.564.94913l-.444-.408H19.427l-.438.363-3.153,16.138-.599,2.893-.003.022-.68,4.381.003-.003-.759,4.616v.006l-.054.348v.018l-.076.692.441.049.442-.058q-.444-3.396-.983-6.497-.534-3.102-1.191-6.186L8.831.89414l-.433-.353H3.755l-.442.411L0,41.21413l.444.484v-.448l.444.036,3.278-39.853H8.038l3.471,16.078q.64949,3.06148,1.182,6.149.53552,3.07952.977,6.461l.883-.006.075-.683.052-.342.756-4.61v-.003l.674-4.375.599-2.881v-.003l3.086-15.785h3.922l3.618,39.373H23.052l-.885-13.249-.442.027.442-.02c-.033-.693-.067-1.295-.091-1.802-.024-.496-.039-.907-.039-1.228v-.015l-.233-5.397-.133-4.952v-.012l-.012-.224-.003-.009-.04-.459-.883-.033-.126.809-.003.01c-.139.952-.267,1.787-.378,2.494-.112.71-.212,1.309-.297,1.793v-.006l-.68,3.679v-.003l-.26,1.385-3.32,17.212h-2.92l-3.108-14.824q-.654-2.99253-1.158-6.067-.50848-3.084-.922-6.465l-.886.028-1.542,27.328H.444v.444l.444.036Z" style="fill: #00703c"/>
        <path d="M387.22449,70.02562v10.388h3.253v-10.388l4.208-13.768h-3.396l-1.348,5.457-.184.85-.499,2.156c-.127.514-.284,1.414-.471,2.706a37.5356,37.5356,0,0,0-1.225-4.787l-.182-.61-.156-.517-1.597-5.255h-3.443Zm-44.503-10.922h3.754v21.31h3.196v-21.31h3.645v-2.846h-10.595Zm-32.611,21.31h3.253v-24.157h-3.253Zm-34.767-24.485a5.07641,5.07641,0,0,0-3.988,1.671,6.51045,6.51045,0,0,0-1.476,4.493,7.19309,7.19309,0,0,0,.753,3.471,10.24078,10.24078,0,0,0,1.207,1.645c.54.626,1.226,1.345,2.045,2.155.536.536.977,1.016,1.334,1.452a9.71276,9.71276,0,0,1,.829,1.152,4.812,4.812,0,0,1,.58,2.358,3.60633,3.60633,0,0,1-.753,2.404,2.59757,2.59757,0,0,1-2.082.882,5.54028,5.54028,0,0,1-3.16-1.27v3.223a5.62309,5.62309,0,0,0,3.553,1.146,5.1959,5.1959,0,0,0,4.051-1.766,6.80016,6.80016,0,0,0,1.581-4.619,7.68547,7.68547,0,0,0-.72-3.49,14.54852,14.54852,0,0,0-2.706-3.488c-.723-.72-1.306-1.334-1.762-1.844a9.49205,9.49205,0,0,1-.973-1.253,3.906,3.906,0,0,1-.581-2.176,3.21424,3.21424,0,0,1,.809-2.297,2.69631,2.69631,0,0,1,2.099-.908,4.77423,4.77423,0,0,1,2.676,1.061v-3.177a7.10513,7.10513,0,0,0-3.316-.825m-42.548,3.002h.551a3.41861,3.41861,0,0,1,1.321.236,2.104,2.104,0,0,1,.906.734,3.44433,3.44433,0,0,1,.515,1.297,9.65163,9.65163,0,0,1,.162,1.926,4.44021,4.44021,0,0,1-.776,2.957,3.46156,3.46156,0,0,1-2.679.874Zm-3.253,21.483h3.253v-11.83l4.429,11.83h3.301l-4.444-11.751a3.733,3.733,0,0,0,2.483-1.947,8.64115,8.64115,0,0,0,.867-4.172,6.81066,6.81066,0,0,0-1.642-5.016,5.45519,5.45519,0,0,0-3.96-1.27h-4.287Zm-39.194,0h8.649v-2.756h-5.396v-8.245h4.786v-2.752h-4.786v-7.649h5.396v-2.754h-8.649Zm-36.664,0h2.582l4.74-24.156h-3.035l-1.563,8.913-.136.753c-.046.282-.094.589-.145.925l-.548,3.674-.423,2.802-.067.468-.072.644-.157-1.188c-.055-.395-.115-.84-.185-1.333-.066-.49-.139-1.031-.226-1.627l-.518-3.503-.247-1.615-1.458-8.913h-3.208Zm-37.272,0h3.253v-24.157h-3.253Zm-42.547,0h3.226l-.175-10.53-.007-.813-.027-.613-.185-2.988-.169-2.455-.051-.492-.075-.696.163.717.102.535c.249,1.17.524,2.282.82,3.35.296,1.064.611,2.098.946,3.114l3.637,10.871h3.045v-24.156h-3.253v9.013q0,1.9995.187,4.272.186,2.262.581,5.066a86.261,86.261,0,0,0-2.492-8.713l-3.235-9.638h-3.038Zm-42.387-7.089q0,3.95851.922,5.351,1.329,2.0355,4.587,2.035a5.66467,5.66467,0,0,0,4.395-1.581q1.203-1.38751,1.203-5.337v-17.535h-3.189v17.535a6.75845,6.75845,0,0,1-.471,3.115,2.02419,2.02419,0,0,1-1.878.75,2.0062,2.0062,0,0,1-1.911-.856,8.45193,8.45193,0,0,1-.468-3.477v-17.067h-3.19Z" style="fill: #00703c"/>
      </g>
    </g>
  </g>
</svg>
