<?xml version="1.0" encoding="UTF-8" standalone="no"?>
<svg xmlns:rdf="http://www.w3.org/1999/02/22-rdf-syntax-ns#" xmlns="http://www.w3.org/2000/svg" xml:space="preserve" height="86.878" viewBox="0 0 335.77451 86.877502" width="335.77" version="1.1" xmlns:cc="http://creativecommons.org/ns#" xmlns:dc="http://purl.org/dc/elements/1.1/"><g transform="matrix(1.25 0 0 -1.25 -326.44 424.85)"><g style=""><path d="m308.41 271.71v0.44h0.294c0.149 0 0.31-0.032 0.31-0.209 0-0.218-0.164-0.231-0.347-0.231h-0.257zm0-0.184h0.247l0.377-0.619h0.241l-0.405 0.629c0.209 0.026 0.37 0.137 0.37 0.393 0 0.28-0.167 0.406-0.504 0.406h-0.543v-1.428h0.217v0.619zm0.261-1.142c0.674 0 1.249 0.523 1.249 1.24 0 0.711-0.575 1.233-1.249 1.233-0.68 0-1.257-0.522-1.257-1.233 0-0.717 0.577-1.24 1.257-1.24m-1.008 1.24c0 0.585 0.442 1.027 1.008 1.027 0.559 0 1-0.442 1-1.027 0-0.595-0.441-1.033-1-1.033-0.566 0-1.008 0.438-1.008 1.033m12.808 45.558h-8.434l0.012-12.414h-11.295v-14.45h5.616v-19.837h-30.931v19.857h5.625l0.011 14.43h-11.385v12.414h-8.54v22.704h59.321v-22.704zm199.5-28.078v-0.671l-0.932-0.082-0.166-0.18 2.506-4.5 2.753 4.369-0.151 0.231-0.998 0.162v0.671h3.337v-0.671l-0.996-0.196-3.407-5.452v-3.682l0.261-0.231 1.114-0.08v-0.672h-4.24v0.672l1.114 0.08 0.262 0.231v3.47l-3.257 5.713-0.999 0.151v0.667h3.799zm-14.344 0v-2.521h-0.903l-0.225 1.523-0.234 0.249h-2.504v-9.252l0.28-0.23 1.097-0.081v-0.672l-4.276 0.002v0.67l1.099 0.081 0.279 0.23v9.252h-2.505l-0.228-0.249-0.231-1.523h-0.899v2.523l9.25-0.002zm-24.07-10.31 1.049 0.079 0.278 0.23v9.024l-0.278 0.228-1.047 0.082v0.669h4.158v-0.669l-1.049-0.082-0.277-0.228v-9.024l0.277-0.23 1.049-0.079v-0.672h-4.16v0.672zm-18.521 2.535h0.967l0.197-1.877 0.213-0.281c0.556-0.263 1.081-0.377 1.802-0.377 1.587 0 2.503 0.736 2.503 2.012 0 0.676-0.21 1.064-0.786 1.444-0.406 0.276-0.52 0.327-2.045 0.98-2 0.834-2.668 1.572-2.668 2.882 0 1.948 1.473 3.192 3.815 3.192 0.882 0 1.685-0.131 2.75-0.458v-2.538h-0.849l-0.247 1.556-0.247 0.28c-0.491 0.245-0.9 0.343-1.473 0.343-1.343 0-2.225-0.769-2.225-1.949 0-0.672 0.244-1.081 0.866-1.492 0.343-0.209 0.77-0.406 1.982-0.914 1.981-0.803 2.651-1.555 2.651-2.931 0-1.999-1.703-3.275-4.321-3.275-1.082 0-1.967 0.166-2.885 0.524v2.879zm-18.156 2.456c0.558-0.03 0.768-0.03 0.963-0.03 1.953 0 2.835 0.723 2.835 2.311 0 1.603-0.899 2.29-3.012 2.29h-0.783l-0.003-4.571zm1.489 5.325c2.637 0 3.946-0.966 3.946-2.869 0-1.502-0.801-2.341-2.653-2.798 1.376-0.374 1.852-0.934 2.195-2.571 0.393-1.801 0.8-2.127 2.538-2.109v-0.625c-0.656-0.114-0.884-0.147-1.295-0.147-1.539 0-2.094 0.526-2.601 2.475-0.314 1.18-0.491 1.57-0.837 1.945-0.409 0.444-0.983 0.623-1.917 0.623-0.227 0-0.307 0-0.865-0.035v-3.894l0.279-0.227 0.932-0.084v-0.672h-3.899v0.672l0.934 0.084 0.281 0.227 0.001 9.022-0.279 0.229-0.934 0.083v0.671h4.174zm-23.432-10.314 0.937 0.082 0.275 0.227 0.002 9.023-0.277 0.228-0.934 0.083v0.671h7.842v-2.389h-0.919l-0.229 1.387-0.227 0.248h-3.784v-4.138h2.686l0.23 0.224 0.165 1.196h0.767v-3.602h-0.767l-0.165 1.18-0.23 0.244-2.686 0.002v-4.584h4.39l0.228 0.26 0.277 1.656h0.852l-0.002-2.672-8.431 0.006v0.668zm-17.043 10.314v-0.67l-0.949-0.084-0.182-0.228 3.077-8.25 2.966 8.25-0.164 0.228-1.016 0.084v0.67h3.258v-0.67l-1.015-0.181-3.767-10.215h-1.128l-3.845 10.215-1.047 0.181v0.67h3.812zm-17.996-10.314 1.048 0.084 0.276 0.228 0.003 9.02-0.278 0.231-1.047 0.081v0.671h4.157v-0.671l-1.046-0.081-0.28-0.231v-9.02l0.279-0.228 1.047-0.084v-0.668h-4.159v0.668zm-21.595 0.006 0.998 0.127 0.294 0.312v8.89l-0.294 0.23-1.048 0.079v0.671h3.078v-0.405l5.583-8.386v7.695l-0.295 0.297-0.983 0.128v0.671h3.439v-0.671l-0.982-0.128-0.295-0.297-0.001-9.887h-1.081l-6.236 9.297v-8.184l0.292-0.312 0.982-0.133v-0.668h-3.452l0.001 0.674zm-17.243 10.314v-0.672l-1.014-0.083-0.279-0.23v-5.928c0-2.272 0.883-3.257 2.898-3.257 2.047 0 2.931 0.985 2.931 3.257v5.814l-0.312 0.297-0.983 0.13v0.672l3.455-0.005v-0.671l-0.981-0.128-0.298-0.295v-5.959c0-1.493-0.211-2.311-0.735-2.915-0.688-0.769-1.915-1.209-3.39-1.209-1.718 0-3.044 0.589-3.633 1.601-0.328 0.573-0.458 1.308-0.458 2.523v6.073l-0.279 0.23-0.932 0.083v0.672h4.01zm163.97 41.789v-1.325l-2-0.159-0.551-0.454v-7.619h11.106v7.619l-0.549 0.451-2.001 0.162v1.324h7.846v-1.324l-1.843-0.162-0.547-0.451-0.002-17.788 0.549-0.453 1.843-0.16v-1.325h-7.849v1.325l2.004 0.16 0.549 0.453v8.684h-11.106v-8.681l0.549-0.451 2.002-0.165v-1.322h-7.845v1.322l1.842 0.165 0.546 0.451 0.003 17.785-0.549 0.454-1.84 0.159v1.325h7.843zm-10.452-20.92c-2.453-0.805-4.296-1.129-6.489-1.129-3.391 0-5.971 1.068-8.137 3.358-1.937 2.099-2.971 4.877-2.971 8.008 0 6.584 4.555 11.071 11.203 11.069 2 0 3.553-0.225 6.394-1.096v-4.972h-1.81l-0.486 2.939-0.419 0.579c-1.514 0.646-2.356 0.841-3.647 0.841-4.904 0-7.91-3.583-7.91-9.395 0-5.971 3.165-9.621 8.425-9.621 1.001 0 1.745 0.066 2.812 0.419l0.514 0.519 0.776 3.582h1.745v-5.101zm-35.221 0.585 1.841 0.161 0.552 0.452v17.784l-0.551 0.454-1.842 0.163v1.322h15.464v-4.713h-1.806l-0.455 2.744-0.452 0.484h-7.456v-8.165h5.292l0.455 0.448 0.32 2.36h1.522l-0.004-7.102h-1.518l-0.32 2.323-0.455 0.483h-5.292v-9.037h8.653l0.45 0.514 0.55 3.26h1.678v-5.257h-16.626v1.322zm-1.577 20.336-0.002-4.97h-1.775l-0.45 3.001-0.453 0.484h-4.939l-0.002-18.238 0.549-0.452 2.162-0.161v-1.322h-8.424v1.322l2.161 0.161 0.551 0.452 0.001 18.238-4.94 0.001-0.453-0.483-0.45-3.001h-1.776v4.97l18.24-0.002zm-41.934-15.331h1.904l0.386-3.712 0.421-0.548c1.1-0.516 2.13-0.743 3.551-0.743 3.131 0 4.94 1.451 4.94 3.969 0 1.323-0.422 2.097-1.548 2.842-0.811 0.55-1.034 0.646-4.033 1.938-3.944 1.648-5.266 3.099-5.263 5.681 0 3.841 2.904 6.295 7.521 6.294 1.742 0 3.326-0.26 5.423-0.905v-5.005h-1.679l-0.485 3.068-0.484 0.547c-0.969 0.486-1.773 0.681-2.906 0.681-2.649 0-4.388-1.517-4.388-3.841 0-1.324 0.48-2.131 1.71-2.937 0.678-0.421 1.514-0.808 3.905-1.81 3.905-1.581 5.228-3.065 5.228-5.777 0-3.938-3.357-6.456-8.522-6.456-2.13 0-3.875 0.321-5.681 1.032v5.682zm-16.075 3.263h6.522l-3.323 8.941-3.199-8.941zm4.811 12.327 7.746-20.205 1.937-0.388v-1.322h-7.328v1.322l2.004 0.161 0.223 0.454-2.321 6.164h-7.622l-2.29-6.164 0.323-0.454 2.097-0.161v-1.322h-6.324v1.322l1.869 0.388 7.557 20.205h2.129zm-24.145-0.254v-1.323l-1.938-0.162-0.256-0.388 4.226-6.65 4.586 6.52-0.291 0.422-1.872 0.258v1.321h6.587l-0.002-1.321-2.066-0.291-5.908-8.427 6.262-9.91 2.196-0.388v-1.322h-8.167v1.322l2.164 0.23 0.224 0.45-4.55 7.329-5.101-7.233 0.193-0.582 2.163-0.194v-1.322l-6.874 0.003v1.319l2.129 0.422 6.489 9.07-5.843 9.136-2.129 0.388v1.323h7.778zm-26.63-20.334 1.838 0.159 0.551 0.451 0.001 17.79-0.551 0.45-1.839 0.161 0.001 1.323h15.461v-4.712h-1.806l-0.452 2.742-0.453 0.486h-7.458v-8.169h5.294l0.453 0.452 0.322 2.358h1.517v-7.099h-1.517l-0.322 2.322-0.453 0.482h-5.294v-9.037h8.652l0.451 0.518 0.549 3.261h1.678v-5.262h-16.623v1.324zm-1.58 20.334v-4.969h-1.776l-0.45 3.001-0.454 0.484-4.938 0.002v-18.242l0.547-0.451 2.164-0.159v-1.324h-8.427v1.324l2.163 0.159 0.55 0.453v18.24h-4.938l-0.453-0.486-0.452-3.001h-1.774v4.972l18.238-0.003z"/><path d="m309.22 315.89 1.306 1.313v-10.928h-8.362l1.345 1.37h5.711v8.245zm-5.711-5.445-1.345-1.264h-2.784v-20.359h5.637v-16.858h-28.058l1.327 1.312h25.374v14.232 0.034h-5.654v21.639h-2.794v-24.445h0.011l-1.388-1.324h-0.022v27.033h9.696zm-5.509-27.039v0.005h0.007l1.423 1.325h0.006v-8.421h-16.702l1.371 1.392h13.895v5.699zm8.28 41.948-1.275-1.407h-5.625v-6.744h-1.374v8.151h8.274zm11.481 11.548 1.356 1.489v-19.703h-14.112l1.275 1.489h11.481v16.725zm-33.688-11.579-1.354-1.376h-5.789v-5.259h-14.177l1.604 1.489h11.216v5.148l8.5-0.002zm2.789-16.142 1.331 1.264h-9.664v-2.8h-5.742l-1.287-1.37h8.423v2.906h2.758 1.392 2.789zm241.03-9.763c0-0.551-0.447-0.999-0.999-0.999h-183.12c-0.552 0-1 0.448-1 0.999 0 0.553 0.448 1 1 1h183.12c0.552 0 0.999-0.447 0.999-1" fill="#b4b5b9"/><path d="m282.73 284.74h4.127v24.445h-2.789v-21.616h-5.786v-14.289l4.448 4.602v6.858zm1.371-1.346v-5.682l2.704 2.896h4.158v32.53l-2.775-2.689v-27.055h-4.087zm11.124 1.351h4.207l-0.002-0.002h0.004v-1.181l4.222 3.95v0.035h-5.654l-2.794-2.807h0.011l0.006 0.005zm-11.157 40.582v-8.12h7.037v14.189l-7.037-6.069zm27.978 6.069-5.77-6.038v-5.177l5.77 5.467v5.748zm-42.306 0h21.365 0.022 20.919l5.71 5.511h-53.403v-16.726l5.387 5.368v5.847zm36.744-18.258-2.98-2.689v-2.8l2.98 2.799v2.69zm-8.488-29.728v0.005h-4.167l-2.866-2.807h4.341l2.692 2.802zm-22.273 27.038-2.94-2.799v8.245h36.433l-2.732-2.756h-15.521-15.24v-2.69z" fill="#c00"/><path d="m282.73 284.74v-6.858-1.563l1.371 1.393v5.682h4.087v27.055l-1.331-1.264v-24.445h-4.127zm15.266-1.325h0.007l1.423 1.325 0.004 0.003 0.002 0.002h-4.207l-0.006-0.005-1.388-1.323-0.002-0.002h4.167zm5.508 27.034-1.344-1.264v-2.905l1.344 1.369v2.8zm-25.222-22.88h5.786v21.616h-1.391v-20.34h-5.722v-16.876l1.327 1.311v14.289zm12.823 29.638h-7.037v8.12l-1.354-1.376v-6.744h-11.218v-10.927l1.287 1.369v8.245h36.433l1.306 1.313h-11.146-1.374-6.897zm-28.356 1.485 1.604 1.489v16.726h53.403l1.357 1.488h-56.364v-19.703zm43.527 1.489-1.275-1.489v5.259l1.275 1.407v-5.177z" fill="#fff"/><path d="m528.26 279.44v0.44h0.294c0.148 0 0.31-0.032 0.31-0.209 0-0.218-0.164-0.231-0.347-0.231h-0.257zm0-0.184h0.247l0.377-0.619h0.241l-0.405 0.629c0.209 0.026 0.369 0.137 0.369 0.393 0 0.28-0.166 0.406-0.503 0.406h-0.543v-1.428h0.217v0.619zm0.261-1.142c0.674 0 1.25 0.523 1.25 1.24 0 0.711-0.576 1.233-1.25 1.233-0.68 0-1.257-0.522-1.257-1.233 0-0.717 0.577-1.24 1.257-1.24m-1.008 1.24c0 0.585 0.442 1.027 1.008 1.027 0.559 0 1-0.442 1-1.027 0-0.595-0.441-1.033-1-1.033-0.566 0-1.008 0.438-1.008 1.033"/></g></g></svg>
