<?xml version="1.0" encoding="UTF-8"?>
<!-- Created with Inkscape (http://www.inkscape.org/) -->
<svg width="200" height="62.083" version="1.1" viewBox="0 0 200 62.083" xmlns="http://www.w3.org/2000/svg">
 <g transform="matrix(0 1.3333 1.3333 0 -1611.4 -522.98)">
  <g transform="matrix(1.1086 0 0 1.1086 -192.1 -168.23)">
   <g transform="translate(566.75 1282.3)">
    <path d="m0 0c0.875 0.736 1.592 0.402 1.592-0.741v-10.938c0-1.143-0.736-2.658-1.635-3.365l-16.496-12.982c-0.449-0.354-0.349-0.644 0.223-0.644h15.828c1.145 0 2.08-0.936 2.08-2.079v-7.549c0-1.144-0.935-2.079-2.08-2.079h-37.073c-1.144 0-2.079 0.935-2.079 2.079v7.549c0 1.143 0.935 2.079 2.079 2.079h14.75c0.571 0 0.737 0.358 0.369 0.795l-16.528 19.607c-0.369 0.437-0.67 1.263-0.67 1.834v5.315c0 0.572 0.294 0.676 0.654 0.232l14.712-18.164c0.359-0.444 1.013-0.506 1.45-0.139l22.824 19.19" fill="#6c0433"/>
   </g>
   <g transform="translate(530.96 1304)">
    <path d="m0 0v-5.183c0-0.573 0.468-1.04 1.04-1.04h31.451c0.572 0 1.04 0.467 1.04 1.04v5.183c0 9.243-4.057 14.295-17.613 14.295-13.555 0-15.918-7.455-15.918-14.295zm37.382 5.238v-21.151c0-1.143-0.935-2.079-2.08-2.079h-37.073c-1.144 0-2.079 0.936-2.079 2.079v21.151c0 8.194 2.31 12.2 5.083 15.65 3.954 4.93 11.964 5.854 15.713 5.854 9.294 0 20.436-4.313 20.436-21.504" fill="#6c0433"/>
   </g>
   <g transform="translate(550.89 1377.3)">
    <path d="m0 0c2.67 0 8.062-0.8 11.348-3.45 3.081-2.526 6.881-8.01 6.881-18.424 0-11.276-4.416-21.936-18.229-21.936h-21.694c-1.144 0-2.079 0.936-2.079 2.08v7.549c0 1.143 0.935 2.079 2.079 2.079h25.648c4.981 0 10.322 2.218 10.322 10.167 0 6.408-3.493 10.167-10.322 10.167h-25.648c-1.144 0-2.079 0.935-2.079 2.079v7.61c0 1.144 0.935 2.079 2.079 2.079h21.694" fill="#6c0433"/>
   </g>
  </g>
 </g>
</svg>
