<?xml version="1.0" encoding="UTF-8"?><svg id="b" xmlns="http://www.w3.org/2000/svg" width="299.89" height="150" viewBox="0 0 299.89 150"><defs><style>.d{fill:#dd598c;}</style></defs><g id="c"><path class="d" d="m224.94,117.2c23.24,0,42.15-18.91,42.15-42.14V0h-18.69v75.06c0,12.93-10.52,23.45-23.45,23.45-6.27,0-12.15-2.44-16.58-6.87-4.43-4.43-6.87-10.32-6.87-16.58h0V0h-18.69v75.06c0,23.24,18.9,42.14,42.14,42.14"/><path class="d" d="m150,75.06c0,41.32,33.62,74.94,74.94,74.94s74.95-33.62,74.95-74.94V0h-18.69v75.06c0,31.02-25.23,56.25-56.25,56.25s-55.85-24.84-56.24-55.52V0h-18.69v75.06Z"/><line class="d" x1="150.01" y1="18.75" x2="150" y2="32.76"/><path class="d" d="m32.8,75c0,23.24,18.91,42.15,42.14,42.15h75.06v-18.69h-75.06c-12.93,0-23.45-10.52-23.45-23.45,0-6.27,2.44-12.15,6.87-16.58,4.43-4.43,10.31-6.87,16.58-6.87h75.06v-18.69h-75.06c-23.24,0-42.14,18.9-42.14,42.14"/><path class="d" d="m74.94.06C33.62.06,0,33.68,0,75s33.62,74.95,74.94,74.95h75.06v-18.69h-75.06c-31.02,0-56.25-25.23-56.25-56.25s24.84-55.85,55.52-56.25h75.79V.06h-75.06Z"/></g></svg>