<?xml version="1.0" encoding="UTF-8"?>
<svg width="600" height="520" version="1.1" xmlns="http://www.w3.org/2000/svg">
 <path d="m408.14 17.623h3.1958v-3.6503l-2.282-2.4367v3.6551h-218.13c0.81708 0.14021 1.5375 1.5375 2.0741 2.1273h90.169l0.78324 0.9718h26.659c-0.0774 0.1257-0.14988 1.17-0.24175 1.2812-0.10636 0.13054-0.22239 0.25624-0.34327 0.37228-0.15954 0.14504-0.32876 0.27075-0.51249 0.39162-0.0532 0.03384-0.11603 0.06769-0.17405 0.09669v0.0048c-0.13054 0.07253-0.26592 0.14504-0.40612 0.20306-0.0677 0.03384-0.14022 0.05802-0.21273 0.08703-0.14505 0.05318-0.29493 0.09186-0.44964 0.13054-0.0145 0.0048-0.0338 0.0048-0.0484 0.0096-0.27558 0.06285-0.55601 0.10153-0.84609 0.10153h-17.763c0.22241 0.23207 0.46898 0.43513 0.74456 0.60919h-92.765l3.0459 3.0411h92.495v-0.60435h10.951v3.3457h-101.62l2.4367 2.4319h90.667l1.2184 1.2184h8.5189v-1.2183h91.886v-2.4319h2.8622v-2.7413h1.2184c1.5761 0 3.0749-1.0346 3.5874-2.4319 0 0 1.6874-2.4367 3.2877-2.4367zm-15.089 9.7373h-87.747v-2.7365h87.747zm10.501-10.042-0.16921 1.5907c-0.56568 1.257-2.1467 2.6688-3.6406 2.6688h-88.999c0.67688-0.4303 1.2039-1.054 1.4891-1.7937l0.0194 0.0096c0.2224-0.61402 0.60918-2.0548 1.1072-2.4754zm-212.63-2.1273m200.01 137.4-6.3481-6.3481v2.6978h-55.083c1.2087-2.5528 1.9436-5.3328 2.108-8.2433v-12.44l-4.5447-9.718v18.44c-5e-3 -5e-3 -5e-3 -0.01-0.01-0.0144-0.01 0.50282-0.0338 1.0105-0.0822 1.5181-0.30944 3.5874-1.4408 6.8316-3.104 9.4472-4.7574 7.1604-13.499 11.966-23.502 11.966-7.0298 0-13.436-2.3691-18.276-6.2611 0.0532 0.0677 0.1112 0.13054 0.16438 0.19339 0 0.0194 0.01 0.0338 0.01 0.0532 0.58985 2.7558-0.029 5.2216-1.3779 5.5117-0.25625 0.0532-0.52216 0.0194-0.78807-0.087 0.01-0.029 0.0242-0.0628 0.0242-0.0918 0.0966-1.1217-1.0588-2.8622-2.4754-2.9831-1.17-0.10637-2.1225 0.61885-2.7123 1.6632 0.0145-0.01-0.058 0.15954-0.0436 0.14988-1.3054 3.7421 4.4964 10.728 8.2095 12.798 0.34327 0.14988 0.68655 0.29976 1.025 0.44481-3.1475-3.0604-6.1596-7.9242-5.1684-10.757-5e-3 0 0.0918-0.0628 0.22724-0.15955 1.1362 1.465 2.7317 2.2143 4.1531 1.755 1.6583-0.5415 1.9436-3.1474 1.697-5.4005 4.9412 4.3997 11.753 7.1265 19.286 7.1265 5.8211 0 11.217-1.6293 15.645-4.3997l3.2055 2.9251c0.27559-0.59468 0.43997-1.3199 0.43997-2.1031 0-1.1265-0.34327-2.1273-0.8751-2.8042 2.1515-1.755 3.9839-3.8098 5.4198-6.0919h12.309l-3.6503 3.6503v2.4319h-1.2184v1.8276h1.3102-1.6632l-2.079 2.4319h0.029v7.9146h2.4319v-5.4778h-0.029l2.079-2.4368h0.35293v-1.8227h1.2184v-2.4368h1.0637l8.0644-6.0822h28.298l-3.6503 3.6503v2.4319h-1.2184v1.8276h1.3102-1.6632l-2.0838 2.4319h0.0338v7.9146h4.5641l-0.0338-4.2595 1.7792-2.4367h0.65753v-1.8276h1.2184v-2.4319h1.9774l4.2643-3.631h7.1023zm-13.702-8.4029-3.1765-3.1716c1.1168-1.1362 1.8131-2.7075 1.8131-4.4432 0-2.3062-1.2232-4.3175-3.0411-5.4005 0.57534 0.95245 0.90895 2.0693 0.90895 3.2683 0 3.4569-2.7317 6.2562-6.1064 6.2562-1.1217 0-2.166-0.31427-3.0701-0.85576 1.0782 1.7889 2.9976 2.9831 5.2022 2.9831 1.5181 0 2.9057-0.57052 3.9742-1.5133v4.9315h3.4956zm-15.703-9.5729c-2.9976 2.0258-6.8702 3.249-11.11 3.249-4.9218 0-9.3602-1.6535-12.498-4.303 3.0894 3.6986 8.3497 6.1305 14.326 6.1305 3.689 0 7.1023-0.92829 9.9017-2.5093-0.37227-0.77841-0.59468-1.6487-0.61886-2.5673m-75.355 9.5729c-2.8042-3.1571-4.5157-7.3054-4.5157-11.86v-7.668c0-9.8775 8.0113-17.889 17.889-17.889 0.0918 0 0.17889 0.01 0.26591 0.01-9.1813 0.26108-16.545 7.784-16.545 17.028v7.3006c0 6.5898 3.7373 12.3 9.2103 15.133-1.2184-2.3449-1.9098-5.004-1.9098-7.8276v-7.3054c0-9.4085 7.6293-17.038 17.038-17.038 2.8235 0 5.4875 0.69138 7.8324 1.9097-1.3392-2.5818-3.3215-4.7671-5.7244-6.3674-3.1378-2.7123-7.2135-4.3658-11.686-4.3658-9.8824 0-17.894 8.0113-17.894 17.894v7.6632c0 5.3328 2.34 10.105 6.0387 13.383m36.111-21.438v9.4182c0 12.14-9.8388 21.984-21.979 21.984-5.4488 0-10.434-1.9919-14.272-5.2748 4.0322 4.7139 10.018 7.7067 16.704 7.7067 12.14 0 21.984-9.8388 21.984-21.979v-9.423c0-6.6865-2.9927-12.672-7.7067-16.704 3.2828 3.8388 5.2699 8.8235 5.2699 14.272m-57.36-6.2611c1.8227 2.1805 2.8864 4.8058 2.8864 7.6245 0 7.5955-7.7067 13.75-17.212 13.75-4.2353 0-8.1128-1.2232-11.11-3.249-0.0774 3.0072-2.2337 5.4875-5.0572 5.9855v0.0967h5.091c1.0685-1.0975 1.7502-2.5963 1.7937-4.2595 2.9976 2.0306 6.8751 3.2538 11.11 3.2538 9.5052 0 17.212-6.1547 17.212-13.75 0-3.6648-1.7986-6.9863-4.7139-9.452m-41.444 34.888h29.362l-3.6551 3.6503v2.4319h-1.2135v1.8276h1.3102-1.668l-2.079 2.4319h0.0338v7.9146h2.4319v-5.4778h-0.029l2.079-2.4367h0.35294v-1.8227h1.2184v-2.4368h1.0636l8.0645-6.0822h11.41l-2.4367-2.4368h-48.682zm137.33 131.01v-78.986c1.1072 0.52216 1.7357 0.82191 3.0459 0.82191 0.43029 0 0.84608-0.0386 1.2619-0.10153l-0.0338-2.0596c-0.94762 0.22239-1.9774 0.35293-3.0556 0.35293-0.67688 0-1.3296-0.0532-1.9629-0.14988-0.37229-0.0532-0.73974-0.12086-1.0927-0.20305l-0.01 0.62369-1.1942 79.702zm-0.16922-84.89-1.0347-11.56c0.97663 0.14505 2.0451 0.22724 3.162 0.22724 0.88961 0 1.7502-0.0532 2.5576-0.14505l0.17404-1.7985c-1.2522 0.26591-2.7026 0.42062-4.2498 0.42062-0.61402 0-1.2087-0.0242-1.7792-0.0676 0 0-1.7115-0.1934-2.4706-0.35294l1.2039 13.276zm-93.201 110.75v-111.97h75.457v-9.7325h-85.189v121.7zm-12.169 0v-124.14h92.495v-2.4319h-40.873c0.7494-3.9936 6.4496-5.2603 12.488-7.3296 3.0556-1.3682 7.2184-4.6656 8.9154-7.8469v9.2103h41.241v2.9202h2.8235v1.8276l-20.229 0.0242 1.2184 1.8276h1.8662c1.7018 0.61402 4.2594 1.0056 7.141 1.0056 1.8759 0 3.6116-0.16921 5.0669-0.45446l-1.1749 14.635h1.3392l1.9484-8.9009v8.9009h2.8235l1.1894 1.4069v-14.461h2.3159v-2.4367l-1.8082-1.7405v-3.9162h6.8219v-2.7655l-3.6503-3.8098v2.896h-45.892v-7.9098l-2.7752-2.7752c-0.7349-1.5568-2.1998-3.5971-3.3989-4.3175 1.3054 3.7421-4.1096 10.912-7.8227 12.977-5.9371 2.635-11.613 4.3997-11.831 8.5963h-7.9049c-0.93311-1.0443-2.3207-1.9194-3.9645-2.7462 0.71555 0.79774 1.17 1.6922 1.2667 2.7462h-0.0822l0.10153 0.11603c0 0.0242 5e-3 0.0484 0.01 0.0725h0.0532l-0.0532-0.058 1.2716 1.4988-5e-3 0.0822 0.0822 5e-3 0.60918 0.72039h-44.055v126.57zm120.32-107.71-2.0403-1.6342-1.1894 0.54151h-18.89l0.82192 1.0927h15.244v82.153c0.67204 0 1.2184 0.54634 1.2184 1.2184 0 0.67205-0.54634 1.2135-1.2184 1.2135 0 0 0.8751 0.0242 0.85577 0.0338 0.76389 0.12086 1.3344 0.60434 1.3344 1.1845 0 0.11604-0.029 0.22723-0.0774 0.33844h-18.575l1.523 1.5181h17.251v20.253h4.0177v-17.512l-1.1217-1.3392c0.41096-0.39162 0.74939-0.99113 0.81708-1.4021 0.087-0.56568-0.28042-1.6728-1.1507-2.1998l-0.8606-0.50765v-83.125h2.0403zm-149.77-27.868 3.0459 3.0411h16.738v2.9202h2.1902v-2.9202h24.367v-10.951l-3.133-3.0459v10.956zm11.062 109.72v-78.986c1.1023 0.52216 1.7309 0.82191 3.0411 0.82191 0.4303 0 0.84609-0.0386 1.2619-0.10153l-0.0338-2.0596c-0.94762 0.22239-1.9774 0.35293-3.0556 0.35293-0.67687 0-1.3296-0.0532-1.9581-0.14988-0.37711-0.0532-0.74456-0.12086-1.0975-0.20305l-0.01 0.62369-1.1942 79.702zm-5.5987-100.08c1.7018 0.61402 4.2643 1.0056 7.141 1.0056 1.8759 0 3.6116-0.16921 5.0669-0.45446l-1.1749 14.635h1.3392l1.9484-8.9009v8.9009h2.1902v-15.186h2.6156v-1.8276l-1.7309-1.8227v1.8227h-20.48l1.2184 1.8276zm17.942 17.014-1.4311-1.8276v1.8276h-18.348l0.91378 1.2135h15.244v82.153c0.67204 0 1.2184 0.54634 1.2184 1.2184 0 0.67205-0.54633 1.2135-1.2184 1.2135h0.90411c-0.0144 0.01-0.029 0.0242-0.0484 0.0338 0.76389 0.12086 1.3344 0.60434 1.3344 1.1845 0 0.11604-0.029 0.22723-0.0726 0.33844h-18.58l1.523 1.5181h17.251v20.253h2.7994v-18.73l-1.7018-2.0354v-0.01c0.47864-0.1934 0.78808-0.51733 0.78808-0.99598 0-0.6382-0.23691-1.4891-1.0105-1.7164l-0.99597-0.69137v-83.734h1.4311zm-12.517-1.8276-1.0346-11.56c0.98147 0.14505 2.0451 0.22724 3.1668 0.22724 0.8896 0 1.7454-0.0532 2.5528-0.14505l0.17405-1.7985c-1.2522 0.26591-2.7026 0.42062-4.2498 0.42062-0.60919 0-1.2039-0.0242-1.7792-0.0676 0 0-1.7115-0.1934-2.4706-0.35294l1.2087 13.276zm89.458-144.28v5.0669c1.6052-0.12087 3.2296-0.19823 4.8686-0.19823 15.766 0 30.063 5.7341 40.574 15.041-10.709-12.14-27.085-19.91-45.442-19.91m0.30459 16.429c-1.0443 0-2.0161-0.29492-2.8477-0.80258 0.96212 1.5761 2.693 2.6301 4.6753 2.6301 3.0218 0 5.473-2.4512 5.473-5.4778 0-1.9823-1.054-3.7083-2.6301-4.6704 0.50765 0.82675 0.80741 1.8034 0.80741 2.8429 0 3.0266-2.4512 5.4778-5.4778 5.4778m-5.2893-10.704c-6.3723-1.8856-12.967-9.5778-12.967-9.5778 1.7502 4.1096 6.5947 9.5004 12.967 11.386 0.30943 0.09186 0.61403 0.15955 0.91861 0.24174 0.52217-0.83642 1.2716-0.90411 2.166-1.3392-1.0153-0.17405-2.0451-0.40129-3.0846-0.71072m-19.678-24.218c-0.96213 4.3368 0.65753 6.4303 6.0483 9.5004 0.88477 2.4851 3.2006 4.5302 6.2369 6.2466l5e-3 -0.0048c-1.7357-0.98147-1.5181-2.0451-2.4658-4.6946-4.4045-2.5141-9.4327-7.4166-9.8243-11.048m-0.68655 31.591c-15.452 0-29.106 5.8114-37.31 14.693h-9.7566v2.4319h5.0572l2.1418 1.7405c-0.0242 0.02901-0.0532 0.05801-0.0774 0.08703h6.5947c6.0774-6.0725 13.716-10.579 22.259-12.88l0.38195 0.81225c3.8872-0.77357 7.9097-1.1894 12.024-1.1894 4.1096 0 8.1176 0.41096 12 1.1845l0.51249-1.0927c8.9009 2.1805 16.864 6.7397 23.173 12.977-1.4311 0.9718-2.5431 2.4609-2.7268 3.7518l-0.556-0.52216c-8.635-8.9976-20.775-14.606-34.23-14.606-13.455 0-25.595 5.6084-34.23 14.606h-4.7139v1.8276h2.2482l1.0975 1.8227h3.5342c6.6914-7.2957 15.752-12.377 25.963-14.026l0.25141 0.67687c2.4658-0.42063 4.9992-0.64786 7.5858-0.64786 1.8614 0 3.6986 0.13054 5.502 0.35294l-1.3344 3.1475c-0.82193-0.1257-1.6487-0.21757-2.4851-0.29009-0.28041-0.02418-0.55601-0.04835-0.83642-0.06769-0.27558-0.01934-0.55116-0.03868-0.83158-0.04835-0.6092-0.02901-1.2232-0.04835-1.8421-0.04835-12.019 0-22.796 5.2844-30.16 13.653l2.4367 2.4319c6.2708-7.1265 15.027-12.005 24.914-13.301l0.46414 1.0201c1.9581-0.29492 3.9597-0.45931 5.9952-0.45931 0.48348 0 0.96213 0.0096 1.4408 0.02901v6.9815c0.61402 0.10153 1.2232 0.22724 1.8276 0.36261v-7.2329c0.91861 0.07735 1.8276 0.18372 2.7268 0.3191l0.34327-0.65753c7.4504 1.4214 14.161 4.9025 19.537 9.8243-5.5842-6.0628-13.01-10.405-21.389-12.135 0.14021-0.45447 1.6535-2.9444 2.1176-3.8727 5.7969 0.83159 11.188 2.5528 15.94 5.4005 2.9589 1.9484 5.6857 4.216 8.1273 6.7639h0.0338c-1.2764 1.5036-2.05 3.7518-2.05 3.7518h-1.8227v12.88h1.8227v-10.97l1.7695 0.03384c0.43512-1.1942 0.92344-2.8574 2.3304-3.6068 0.37711-1.112 0.48831-1.7212 1.9001-2.0886h0.3046v-1.2184h1.552c0.36261-1.0975 1.4649-2.8187 2.7413-3.6503h1.1217l1.8276-1.8276h5.0475v-3.0411l-2.4319-2.4367v3.0459h-10.559c-8.2047-8.8815-21.848-14.693-37.305-14.693m-1.0346-26.722c-0.58017 3.6068-3.6696 7.1362-8.1998 9.4134-1.7212 4.1193-6.5898 8.0403-13.001 9.9355-1.7695 0.52699-3.5246 0.85092-5.2168 0.99597 0.58985 0.42546 1.083 0.96696 1.4504 1.6003 0.0194 0.03384 0.0386 0.07253 0.0532 0.10636 0.0822 0.14988 0.1547 0.30459 0.22239 0.46414 0.26108 0.63819 0.4158 1.3296 0.4158 2.0596 0 3.0266-2.4512 5.4778-5.4778 5.4778-1.0443 0-2.0161-0.29492-2.8477-0.80258 0.96213 1.5761 2.693 2.6301 4.6753 2.6301 3.0218 0 5.4778-2.4512 5.4778-5.4778 0-1.4166-0.54633-2.6978-1.4311-3.6648 0.17406-0.02418 0.42063-0.07735 0.78808-0.18372 6.411-1.9001 13.17-6.6043 14.891-10.728 5.5407-2.7848 8.9347-7.4456 8.1998-11.826m-24.024 22.574c-0.0242-0.02901-0.0532-0.04835-0.0774-0.07253 0.10636-0.08219 0.21273-0.10637 0.0774 0.07253m-5.7292-3.4907v-0.11604c-0.62369 0.05801-1.199 0.10153-1.6728 0.13538l1.5665-2.3836c0.0338 0 0.0726-0.0096 0.10636-0.0096v-2.9589c-29.599 1.7454-53.197 23.691-54.546 50.959h5.3521c3.5101-23.502 23.652-42.14 49.194-45.626m0-2.3739v2.2579c2.3256-0.21757 5.4198-0.63336 7.2909-1.2909 6.2949-2.2337 10.956-7.6197 12.459-11.826 5.3908-3.0701 8.5334-7.9049 7.5713-12.237-0.39646 3.6261-3.2925 7.3151-7.697 9.8243-1.5036 4.2063-6.1644 9.5923-12.464 11.826-2.3352 0.82675-4.9508 1.2909-7.1604 1.4456m114.56 47.425v3.0411h-50.296v2.4319h-7.8034c-1.7985-2.9927-4.1338-5.6229-6.8848-7.7454-2.7655-2.722-6.087-4.9412-9.776-6.3965l0.39161-1.3682c-2.6011-0.73006-5.3425-1.1217-8.1756-1.1217-2.7655 0-5.444 0.38195-7.9919 1.0733l0.0532 0.18372c-7.8276 1.7019-14.432 6.6769-18.309 13.426-0.0726 0.1257-0.14504 0.25623-0.21756 0.38194-0.28526 0.51732-0.556 1.0346-0.81225 1.5665h-8.6253l1.2135 1.1555v0.0628h8.6301c0.25141-0.53183 0.527-1.054 0.81224-1.5665 0.0677-0.12571 0.14506-0.25625 0.21757-0.38195 1.5326-2.6688 3.7035-4.7816 6.2901-6.4351-2.9541 2.6108-5.3038 5.884-6.8026 9.6019h-7.4698l1.9774 2.4319h7.7889c3.0846-7.668 9.776-13.489 17.976-15.375l0.40613 1.4698c2.1322-0.57534 4.3707-0.89927 6.6865-0.89927 2.3884 0 4.6946 0.34327 6.8896 0.95729l0.19823-0.73005c6.9476 2.4367 12.532 7.7744 15.268 14.577h8.0693v-3.6503h1.2184v-1.2184h51.51v-3.0411zm-52.119 7.9097h-4.6511c0.0194 0.0386 0.0338 0.0822 0.0532 0.12571-0.21273-0.45931-0.44964-0.89928-0.68654-1.3441h5.2844zm-114.61-2.4367h48.285l-2.4367-2.4319h-28.023v-0.0338h-20.292l0.029 0.0338zm166.19 227.04h-187.79l2.1322 3.6503h203.4v4.5012h19.745l-37.697-36.145-0.12088 0.35778c0.70589 0.42546 1.1845 1.1894 1.1845 2.079 0 1.3441-1.0927 2.4319-2.4368 2.4319h-161.86l2.1273 3.6503h154.87v3.0411h17.038c1.3441 0 2.4319 1.0927 2.4319 2.4367s-1.0878 2.4319-2.4319 2.4319h-186.21l2.1273 3.6551h179.36v3.0411h16.888c1.3441 0 2.4319 1.0878 2.4319 2.4319 0 1.3441-1.0878 2.4368-2.4319 2.4368z" fill="#071343"/>
 <path d="m273.28 371.26h3.1181a0.65586 0.65586 0 0 0 0.52793-1.0451l-5.23-7.0935a1.4027 1.4027 0 0 0-1.129-0.57029h-3.8319a0.63617 0.63617 0 0 0-0.48735 1.0451l6.0428 7.2024a1.2914 1.2914 0 0 0 0.98936 0.46126zm-77.124 126.16q0 11.034-15.204 11.034-5.5175 0-8.4922-0.4576-0.91509-0.1269-1.3221-0.5338-0.38013-0.432-0.38013-1.3984v-34.68q0-1.7797 1.6526-1.9322 3.4578-0.40704 8.2887-0.40704 15.255 0 15.255 10.043v0.839q0 2.8984-1.4746 5.0341-1.4491 2.1358-4.0934 3.1527 2.6952 0.94079 4.2208 3.1782 1.5506 2.2374 1.5506 5.2376zm-4.9324-17.492v-0.839q0-1.4747-0.50854-2.5425-0.48305-1.0678-1.3476-1.7289-0.8641-0.68642-2.2372-1.0678-1.3731-0.40652-2.8983-0.53392-1.5001-0.1525-3.5343-0.1525-0.81357 0-5.1614 0.1525v12.916h8.0347q7.6527 0 7.6527-6.2037zm0.20397 17.492v-0.8899q0-1.3729-0.38012-2.4915-0.38014-1.1188-1.2456-2.0849-0.83907-0.96614-2.4407-1.5002-1.5766-0.53383-3.7883-0.53383h-8.0347v14.314q0.61053 0.023 2.4917 0.1269 1.8817 0.1016 2.9242 0.1016 2.5677 0 4.3729-0.305 1.8306-0.3306 3.2543-1.0933 1.4241-0.7881 2.1357-2.1866 0.71204-1.3983 0.71204-3.4578zm33.154 10.043q0 0.229-0.15298 0.4831-0.15298 0.2291-0.38013 0.2541-2.4662 0.254-10.144 0.254-5.5939 0-8.3397-2.2883-2.7458-2.3137-2.7458-7.3987v-20.035q0-5.085 2.7458-7.3732 2.7458-2.3137 8.3397-2.3137 6.8646 0 10.144 0.30509 0.22715 0.0231 0.38013 0.27955 0.15298 0.229 0.15298 0.4575v2.5934q0 0.27946-0.17615 0.45749-0.15299 0.17803-0.40796 0.17803h-10.043q-2.7458 0-4.1444 0.55937-1.3726 0.55936-1.8302 1.6526-0.43113 1.0678-0.43113 3.2035v7.2462h15.992q0.43112 0 0.73755 0.305 0.30596 0.305 0.30596 0.73731v1.9578q0 0.43206-0.30596 0.73731-0.30596 0.305-0.73755 0.305h-15.992v8.7462q0 2.1357 0.43113 3.229 0.45894 1.0678 1.8302 1.6272 1.3986 0.5593 4.1444 0.5593h10.043q0.25497 0 0.40796 0.1781 0.17615 0.178 0.17615 0.4575zm33.662-0.4065q0 0.4065-0.25497 0.7373-0.25497 0.305-0.66106 0.305h-2.9238q-0.38013 0-0.63556-0.305-0.25497-0.3051-0.25497-0.7373v-23.01q0-2.695-0.40794-4.602-0.38013-1.9068-1.0936-3.1273-0.71159-1.2204-1.9322-1.9068-1.2206-0.71194-2.6697-0.96614-1.4236-0.27955-3.4833-0.27955-3.8138 0-7.7037 0.305v33.586q0 0.4066-0.27814 0.7373-0.25498 0.3051-0.66106 0.3051h-2.8477q-0.43113 0-0.68656-0.2795-0.25496-0.305-0.25496-0.7628v-35.62q0-0.94078 0.30595-1.2967 0.32914-0.3815 1.1441-0.50847 1.9067-0.27956 5.3394-0.45759 3.4578-0.17803 5.746-0.17803 3.6358 0 6.1781 0.7374 2.5682 0.73731 4.4239 2.4662 1.8562 1.7289 2.7207 4.6528 0.88959 2.9239 0.88959 7.1953zm12.967 0q0 0.4065-0.27814 0.7373-0.25497 0.305-0.66106 0.305h-2.8728q-0.38013 0-0.66106-0.305-0.27814-0.3051-0.27814-0.7373v-36.663q0-0.40704 0.25496-0.6865 0.25497-0.305 0.68656-0.305h2.8728q0.38014 0 0.66106 0.27946 0.27815 0.27956 0.27815 0.71195zm35.366 0q0 0.4065-0.25497 0.7373-0.25496 0.305-0.66106 0.305h-2.9242q-0.38013 0-0.63556-0.305-0.25497-0.3051-0.25497-0.7373v-23.01q0-2.695-0.40794-4.602-0.38013-1.9068-1.0931-3.1273-0.71205-1.2204-1.9322-1.9068-1.2206-0.71194-2.6697-0.96614-1.4236-0.27955-3.4833-0.27955-3.8138 0-7.7037 0.305v33.586q0 0.4066-0.27815 0.7373-0.25497 0.3051-0.66106 0.3051h-2.8473q-0.43112 0-0.68655-0.2795-0.25497-0.305-0.25497-0.7628v-35.62q0-0.94078 0.30597-1.2967 0.32913-0.3815 1.1441-0.50847 1.9067-0.27956 5.339-0.45759 3.4578-0.17803 5.746-0.17803 3.6358 0 6.1785 0.7374 2.5678 0.73731 4.4239 2.4662 1.8562 1.7289 2.7207 4.6528 0.8896 2.9239 0.8896 7.1953zm30.18-0.3051q0 0.8646-1.0171 1.0425-3.5593 0.6611-8.6443 0.6611-2.0597 0-3.9158-0.4321-1.8307-0.4576-3.6863-1.6017-1.8307-1.1442-3.1783-2.8986-1.3221-1.7543-2.1612-4.6019-0.81356-2.873-0.81356-6.5342v-7.2461q0-3.6867 0.81356-6.5597 0.83908-2.8731 2.1612-4.6274 1.3476-1.7543 3.1783-2.8984 1.8557-1.1441 3.6863-1.5764 1.8562-0.43205 3.9158-0.43205 3.3558 0 8.7462 0.83908 0.81357 0.10153 0.81357 0.66106v2.6696q0 0.55936-0.61052 0.55936h-0.15298q-5.6445-0.45758-8.7462-0.45758-2.0082 0-3.6103 0.63561-1.5762 0.61025-2.8473 1.9578-1.2461 1.322-1.9326 3.6612-0.68656 2.3391-0.68656 5.5681v7.2461q0 3.1781 0.68656 5.5172 0.68655 2.3391 1.9326 3.6866 1.2711 1.3476 2.8728 1.9832 1.6016 0.6102 3.5848 0.6102 3.5853 0 8.5937-0.407h0.20397q0.81358 0 0.81358 0.839zm31.298 0.3051q0 0.3815-0.27814 0.7119-0.27815 0.3305-0.66106 0.3305h-2.8496q-0.38013 0-0.66105-0.3051-0.27815-0.305-0.27815-0.7373v-15.408h-15.942v15.408q0 0.4066-0.27814 0.7373-0.25496 0.3051-0.66106 0.3051h-2.8477q-0.38013 0-0.6606-0.3305-0.27814-0.3306-0.27814-0.7119v-27.23q0-5.8224 2.6952-8.2886 2.7202-2.4916 8.4918-2.4916h3.0258q5.746 0 8.4667 2.4916 2.7202 2.4662 2.7202 8.2886zm-4.7289-19.577v-7.653q0-2.034-0.32914-3.3052-0.32913-1.2968-1.1441-2.0341-0.81358-0.7373-1.9832-0.99158-1.1441-0.27956-3.0002-0.27956h-3.0258q-1.8557 0-3.0253 0.27956-1.1441 0.25402-1.9577 0.99158-0.81404 0.73731-1.1446 2.0341-0.32913 1.2712-0.32913 3.3052v7.653zm34.807 10.577q0 1.6018-0.35695 3.0255-0.32914 1.3984-1.2461 2.7968-0.8896 1.373-2.3137 2.3646-1.3981 0.9916-3.6863 1.6017-2.2882 0.6103-5.263 0.6103-4.0683 0-8.6447-0.712-0.63556-0.1015-0.81357-0.2795-0.17616-0.2035-0.17616-0.6611v-2.0848q0-0.407 0.25497-0.6102 0.25496-0.229 0.63555-0.229h0.15299q3.5848 0.3051 8.5937 0.3051 4.4239 0 6.1526-1.5763 1.7546-1.5764 1.7546-4.5512 0-1.9069-1.2971-3.3307-1.2966-1.4238-4.9324-3.6612l-5.0594-3.0764q-3.7628-2.2883-5.492-4.5003-1.7032-2.2374-1.7032-5.2375 0-4.6529 3.2033-6.9157 3.2038-2.2883 9.2548-2.2883 4.9324 0 9.0513 0.63561 0.89007 0.17803 0.89007 0.86445v2.2374q0 0.38159-0.25497 0.61026-0.25496 0.229-0.63556 0.229h-0.10199q-4.5764-0.30508-8.9498-0.30508-4.1444 0-5.8985 1.0679-1.7542 1.0678-1.7542 3.8646 0 1.7543 1.2456 3.0765 1.2711 1.3221 4.4239 3.229l4.7799 2.8731q4.5004 2.6696 6.331 5.085 1.8561 2.3899 1.8561 5.5427zm32.061 9.0005q0 0.3815-0.27814 0.7119-0.27815 0.3305-0.66106 0.3305h-2.8477q-0.38014 0-0.66106-0.3051-0.27815-0.305-0.27815-0.7373v-15.408h-15.942v15.408q0 0.4066-0.27814 0.7373-0.25497 0.3051-0.66106 0.3051h-2.8477q-0.38013 0-0.66106-0.3305-0.27814-0.3306-0.27814-0.7119v-27.23q0-5.8224 2.6952-8.2886 2.7202-2.4916 8.4918-2.4916h3.0258q5.746 0 8.4662 2.4916 2.7207 2.4662 2.7207 8.2886zm-4.7289-19.577v-7.653q0-2.034-0.32914-3.3052-0.32914-1.2968-1.1441-2.0341-0.81356-0.7373-1.9832-0.99158-1.1441-0.27956-3.0002-0.27956h-3.0257q-1.8562 0-3.0253 0.27956-1.1441 0.25402-1.9581 0.99158-0.81357 0.73731-1.1441 2.0341-0.32914 1.2712-0.32914 3.3052v7.653zm-266.2-37.328q0 1.6018-0.35695 3.0256-0.32914 1.3984-1.2456 2.7967-0.89006 1.3729-2.3137 2.3645-1.3986 0.99159-3.6868 1.6018-2.2882 0.61016-5.263 0.61016-4.0679 0-8.6443-0.71186-0.63556-0.10152-0.81357-0.27955-0.17616-0.20356-0.17616-0.66106v-2.0849q0-0.40704 0.25496-0.61017 0.25498-0.229 0.63556-0.229h0.15298q3.5853 0.30499 8.5938 0.30499 4.4239 0 6.153-1.5763 1.7542-1.5764 1.7542-4.5511 0-1.9069-1.2966-3.3307t-4.9324-3.6612l-5.0594-3.0765q-3.7628-2.2882-5.492-4.5002-1.7036-2.2374-1.7036-5.2376 0-4.6528 3.2038-6.9156 3.2038-2.2883 9.2548-2.2883 4.9324 0 9.0513 0.63566 0.8896 0.17801 0.8896 0.86442v2.2374q0 0.38152-0.25496 0.6102-0.25497 0.22901-0.63556 0.22901h-0.10199q-4.5764-0.30504-8.9493-0.30504-4.1444 0-5.8985 1.0678-1.7546 1.0679-1.7546 3.8646 0 1.7543 1.2461 3.0764 1.2711 1.3221 4.4239 3.229l4.7799 2.8731q4.5004 2.6696 6.3306 5.085 1.8562 2.39 1.8562 5.5427zm33.002 8.1614q0 0.91525-0.30596 1.2458-0.30595 0.30508-1.1441 0.43205-1.9072 0.27955-5.3394 0.43205-3.4068 0.17803-5.7715 0.17803-3.6358 0-6.2036-0.73731-2.5427-0.73739-4.3988-2.4408-1.8557-1.7289-2.7458-4.6528-0.86457-2.9239-0.86457-7.1953v-23.035q0-0.40702 0.25497-0.71192 0.27814-0.33052 0.68655-0.33052h2.9238q0.38014 0 0.63556 0.30503 0.25497 0.30503 0.25497 0.73737v23.035q0 2.695 0.38013 4.6019 0.40795 1.9069 1.1186 3.1274 0.71205 1.2203 1.9326 1.9322 1.2201 0.68659 2.6442 0.96623 1.4491 0.25402 3.5083 0.25402 3.4833 0 7.7041-0.33053v-33.586q0-0.40702 0.25497-0.71192 0.27815-0.33053 0.68655-0.33053h2.8477q0.43112 0 0.68609 0.30504 0.25496 0.27953 0.25496 0.73736zm35.341-14.111q0 4.246-1.0421 7.4241-1.0171 3.1782-2.9242 5.1104-1.9067 1.9323-4.4239 2.8731-2.5167 0.94069-5.6695 0.94069t-5.6955-0.94069q-2.5167-0.94079-4.4239-2.8731-1.9067-1.9323-2.9493-5.1104-1.0426-3.1782-1.0426-7.4241v-6.7122q0-4.246 1.0426-7.4241t2.9493-5.1104q1.9071-1.9323 4.4239-2.873 2.5427-0.94073 5.6955-0.94073t5.6695 0.94073q2.5172 0.94073 4.4239 2.873 1.9072 1.9323 2.9242 5.1104 1.0421 3.1781 1.0421 7.4241zm-4.805 0v-6.7122q0-6.3308-2.3902-9.2038-2.3897-2.873-6.8646-2.873-9.3313 0-9.3313 12.077v6.7122q0 12.077 9.3313 12.077 9.2548 0 9.2548-12.077zm38.519 15.484q0 0.50847-0.66106 0.50847h-3.6613q-0.50855 0-0.68656-0.10152-0.15298-0.10153-0.45894-0.58481l-9.3058-15.509h-1.3726q-1.8307 0-5.721-0.1525v15.306q0 0.40704-0.27814 0.73731-0.25497 0.305-0.66106 0.305h-2.7967q-0.38014 0-0.66106-0.305-0.27815-0.30509-0.27815-0.73731v-36.46q0-0.55935 0.25497-0.81358 0.27814-0.25404 0.99158-0.33053 3.5853-0.40701 9.1533-0.40701 14.594 0 14.594 11.187v0.38153q0 4.1951-2.2372 6.8648-2.2122 2.6442-5.9495 3.6357l9.5853 15.992q0.15298 0.22901 0.15298 0.48303zm-6.2545-26.976v-0.38152q0-3.7884-2.4157-5.3393-2.4152-1.5764-7.4747-1.5764-4.4749 0-5.721 0.15251v14.263q0.53404 0 2.8222 0.0514 2.2882 0.0506 2.8987 0.0506 5.0594 0 7.4747-1.5763 2.4157-1.6018 2.4157-5.6444zm53.698 11.492q0 4.246-1.0426 7.4241-1.0171 3.1782-2.9238 5.1104-1.9067 1.9323-4.4239 2.8731-2.5172 0.94069-5.67 0.94069t-5.695-0.94069q-2.5172-0.94079-4.4239-2.8731-1.9071-1.9323-2.9493-5.1104-1.0426-3.1782-1.0426-7.4241v-6.7122q0-4.246 1.0426-7.4241 1.0421-3.1781 2.9493-5.1104 1.9067-1.9323 4.4239-2.873 2.5422-0.94073 5.695-0.94073t5.67 0.94073 4.4239 2.873q1.9067 1.9323 2.9238 5.1104 1.0426 3.1781 1.0426 7.4241zm-4.8054 0v-6.7122q0-6.3308-2.3897-9.2038-2.3902-2.873-6.8651-2.873-9.3308 0-9.3308 12.077v6.7122q0 12.077 9.3308 12.077 9.2548 0 9.2548-12.077zm38.519 15.484q0 0.50847-0.66105 0.50847h-3.6608q-0.50854 0-0.68655-0.10152-0.15298-0.10153-0.45894-0.58481l-9.3053-15.509h-1.3731q-1.8307 0-5.7205-0.1525v15.306q0 0.40704-0.27814 0.73731-0.25497 0.305-0.66106 0.305h-2.7967q-0.38014 0-0.66106-0.305-0.27815-0.30509-0.27815-0.73731v-36.46q0-0.55935 0.25497-0.81358 0.27814-0.25404 0.99158-0.33053 3.5848-0.40701 9.1528-0.40701 14.594 0 14.594 11.187v0.38153q0 4.1951-2.2377 6.8648-2.2117 2.6442-5.9495 3.6357l9.5853 15.992q0.15298 0.22901 0.15298 0.48303zm-6.2545-26.976v-0.38152q0-3.7884-2.4152-5.3393-2.4152-1.5764-7.4751-1.5764-4.4749 0-5.7205 0.15251v14.263q0.53404 0 2.8222 0.0514 2.2882 0.0506 2.8983 0.0506 5.0599 0 7.4751-1.5763 2.4152-1.6018 2.4152-5.6444zm34.222 17.442q0 1.6018-0.35695 3.0256-0.32914 1.3984-1.2461 2.7967-0.8896 1.3729-2.3137 2.3645-1.3981 0.99159-3.6863 1.6018-2.2882 0.61016-5.263 0.61016-4.0683 0-8.6447-0.71186-0.63555-0.10152-0.81356-0.27955-0.17616-0.20356-0.17616-0.66106v-2.0849q0-0.40704 0.25496-0.61017 0.25497-0.229 0.63556-0.229h0.15298q3.5848 0.30499 8.5937 0.30499 4.4239 0 6.1526-1.5763 1.7546-1.5764 1.7546-4.5511 0-1.9069-1.2971-3.3307-1.2966-1.4238-4.9324-3.6612l-5.0594-3.0765q-3.7628-2.2882-5.492-4.5002-1.7032-2.2374-1.7032-5.2376 0-4.6528 3.2033-6.9156 3.2038-2.2883 9.2548-2.2883 4.9324 0 9.0513 0.63566 0.89005 0.17801 0.89005 0.86442v2.2374q0 0.38152-0.25496 0.6102-0.25497 0.22901-0.63556 0.22901h-0.10199q-4.5764-0.30504-8.9498-0.30504-4.1444 0-5.8985 1.0678-1.7542 1.0679-1.7542 3.8646 0 1.7543 1.2456 3.0764 1.2711 1.3221 4.4239 3.229l4.7799 2.8731q4.5004 2.6696 6.331 5.085 1.8562 2.39 1.8562 5.5427zm33.891-5.9495q0 4.246-1.0426 7.4241-1.0171 3.1782-2.9238 5.1104-1.9067 1.9323-4.4239 2.8731-2.5172 0.94069-5.67 0.94069t-5.695-0.94069q-2.5172-0.94079-4.4239-2.8731-1.9071-1.9323-2.9493-5.1104-1.0426-3.1782-1.0426-7.4241v-6.7122q0-4.246 1.0426-7.4241 1.0421-3.1781 2.9493-5.1104 1.9067-1.9323 4.4239-2.873 2.5422-0.94073 5.695-0.94073t5.67 0.94073 4.4239 2.873q1.9067 1.9323 2.9238 5.1104 1.0426 3.1781 1.0426 7.4241zm-4.8054 0v-6.7122q0-6.3308-2.3897-9.2038-2.3902-2.873-6.8651-2.873-9.3308 0-9.3308 12.077v6.7122q0 12.077 9.3308 12.077 9.2548 0 9.2548-12.077zm33.739 15.153q0 0.229-0.15298 0.48311-0.15298 0.22901-0.38013 0.25402-3.0258 0.4575-10.145 0.4575-1.3221 0-2.3897-0.0762-1.0426-0.0763-2.2377-0.33053-1.1696-0.27955-2.0847-0.6865-0.89007-0.43205-1.7546-1.1696-0.8641-0.73731-1.4236-1.7289-0.53404-1.017-0.86456-2.4408-0.32914-1.4493-0.32914-3.2544v-28.324q0-0.43205 0.30596-0.73736 0.30596-0.30503 0.73709-0.30503h2.6442q0.43113 0 0.73755 0.30503 0.30596 0.30503 0.30596 0.73736v28.324q0 2.1357 0.43112 3.229 0.45894 1.0678 1.8306 1.6272 1.3982 0.55937 4.1444 0.55937h10.043q0.25496 0 0.40794 0.17803 0.17617 0.17794 0.17617 0.45749zm30.383-0.20356q0 0.38159-0.27815 0.71195-0.27814 0.33052-0.66105 0.33052h-2.8477q-0.38013 0-0.66105-0.30499-0.27815-0.30509-0.27815-0.73731v-15.408h-15.942v15.408q0 0.40695-0.27814 0.73731-0.25496 0.30499-0.66106 0.30499h-2.8477q-0.38013 0-0.66106-0.33052-0.27815-0.33053-0.27815-0.71195v-27.23q0-5.8223 2.6952-8.2886 2.7202-2.4917 8.4918-2.4917h3.0257q5.746 0 8.4663 2.4917 2.7207 2.4662 2.7207 8.2886zm-4.7289-19.577v-7.653q0-2.034-0.32913-3.3052-0.32914-1.2967-1.1441-2.034-0.81404-0.73732-1.9832-0.99159-1.1441-0.27953-3.0003-0.27953h-3.0258q-1.8561 0-3.0253 0.27953-1.1446 0.25404-1.9581 0.99159-0.81358 0.73736-1.1441 2.034-0.32914 1.2713-0.32914 3.3052v7.653zm-422.15-29.167q0 0.91529-0.30596 1.2458-0.30596 0.30504-1.1441 0.43206-1.9072 0.27952-5.3394 0.43204-3.4068 0.17801-5.7715 0.17801-3.6358 0-6.2036-0.7373-2.5427-0.73737-4.3984-2.4408-1.8562-1.7289-2.7462-4.6528-0.86457-2.9238-0.86457-7.1953v-23.035q0-0.40702 0.25497-0.71191 0.27814-0.33053 0.68655-0.33053h2.9238q0.38013 0 0.63556 0.30503 0.25497 0.30503 0.25497 0.73732v23.035q0 2.695 0.38013 4.6019 0.40795 1.9069 1.1186 3.1273 0.71205 1.2204 1.9326 1.9323 1.2201 0.68647 2.6442 0.96615 1.4491 0.25403 3.5083 0.25403 3.4833 0 7.7041-0.33052v-33.587q0-0.40701 0.25497-0.71191 0.27814-0.33053 0.68655-0.33053h2.8477q0.43112 0 0.68655 0.30503 0.25497 0.27954 0.25497 0.73732zm34.858 0.83903q0 0.40655-0.25497 0.73731-0.25496 0.30504-0.66106 0.30504h-2.9238q-0.38013 0-0.63556-0.30504-0.25497-0.30503-0.25497-0.73731v-23.01q0-2.695-0.40794-4.6019-0.38013-1.9069-1.0936-3.1273-0.71159-1.2204-1.9322-1.9069-1.2206-0.71191-2.6697-0.96614-1.4236-0.27953-3.4833-0.27953-3.8138 0-7.7037 0.30503v33.587q0 0.40656-0.27814 0.73731-0.25497 0.30503-0.66106 0.30503h-2.8477q-0.43113 0-0.68656-0.27953-0.25496-0.30503-0.25496-0.76277v-35.62q0-0.94073 0.30595-1.2967 0.32915-0.38153 1.1441-0.5085 1.9067-0.27953 5.3394-0.45754 3.4578-0.17802 5.746-0.17802 3.6358 0 6.178 0.73732 2.5682 0.73732 4.4239 2.4662 1.8562 1.7289 2.7207 4.6528 0.8896 2.9239 0.8896 7.1953zm12.967 0q0 0.40655-0.27815 0.73731-0.25496 0.30504-0.66106 0.30504h-2.8728q-0.38013 0-0.66105-0.30504-0.27814-0.30503-0.27814-0.73731v-36.663q0-0.40702 0.25496-0.68646 0.25497-0.30503 0.68656-0.30503h2.8728q0.38013 0 0.66106 0.27953 0.27814 0.27954 0.27814 0.71192zm36.256-36.765q0 0.20351-0.051 0.30503l-9.5853 33.917q-1.1186 3.9409-5.3139 3.9409-4.1694 0-5.288-3.9409l-9.6363-33.917q-0.051-0.10152-0.051-0.30503 0-0.38152 0.25497-0.63561 0.27814-0.2545 0.66106-0.2545h3.0253q0.30596 0 0.58503 0.2545 0.27814 0.22901 0.35695 0.5339l9.0513 33.18q0.15298 0.58476 0.38014 0.83903 0.22715 0.25404 0.66106 0.25404 0.68655 0 0.99158-1.0932l9.1278-33.18q0.0742-0.30504 0.32914-0.5339 0.25496-0.2545 0.55953-0.2545h3.0508q0.38013 0 0.63556 0.2545 0.25496 0.25403 0.25496 0.63561zm27.586 37.171q0 0.22901-0.15298 0.48309-0.15298 0.22901-0.38013 0.25404-2.4667 0.25404-10.145 0.25404-5.5935 0-8.3392-2.2882-2.7462-2.3137-2.7462-7.3987v-20.035q0-5.085 2.7462-7.3733 2.7458-2.3136 8.3392-2.3136 6.8646 0 10.145 0.30503 0.22715 0.0232 0.38013 0.27954 0.15298 0.22901 0.15298 0.45755v2.5934q0 0.27952-0.17616 0.45754-0.15298 0.17801-0.40795 0.17801h-10.043q-2.7462 0-4.1444 0.5594-1.3731 0.55934-1.8306 1.6526-0.43113 1.0678-0.43113 3.2036v7.2461h15.992q0.43112 0 0.73707 0.30503 0.30596 0.30503 0.30596 0.73731v1.9577q0 0.43206-0.30596 0.73732-0.30595 0.30503-0.73707 0.30503h-15.992v8.7462q0 2.1357 0.43113 3.229 0.45893 1.0678 1.8306 1.6272 1.3981 0.55935 4.1444 0.55935h10.043q0.25497 0 0.40795 0.17801 0.17616 0.17802 0.17616 0.45755zm33.459 0.12702q0 0.5085-0.66106 0.5085h-3.6613q-0.50808 0-0.68609-0.10153-0.15298-0.10152-0.45894-0.5848l-9.3053-15.509h-1.3731q-1.8307 0-5.7205-0.1525v15.306q0 0.40656-0.27814 0.73731-0.25497 0.30503-0.66106 0.30503h-2.7967q-0.38014 0-0.66106-0.30503-0.27814-0.30502-0.27814-0.73731v-36.46q0-0.5594 0.25497-0.81362 0.27814-0.25404 0.99157-0.33053 3.5848-0.40702 9.1528-0.40702 14.594 0 14.594 11.187v0.38152q0 4.1951-2.2377 6.8648-2.2117 2.6442-5.9495 3.6358l9.5853 15.992q0.15298 0.22901 0.15298 0.48309zm-6.2546-26.976v-0.38153q0-3.7883-2.4152-5.3393-2.4152-1.5764-7.4751-1.5764-4.4749 0-5.7205 0.15252v14.263q0.53404 0 2.8222 0.051t2.8983 0.051q5.0599 0 7.4751-1.5763 2.4152-1.6018 2.4152-5.6443zm34.222 17.442q0 1.6018-0.35695 3.0256-0.32914 1.3984-1.2461 2.7968-0.8896 1.3729-2.3137 2.3645-1.3981 0.99159-3.6863 1.6018t-5.263 0.61021q-4.0683 0-8.6447-0.71191-0.63556-0.10152-0.81357-0.27954-0.17617-0.2035-0.17617-0.66105v-2.0848q0-0.40702 0.25497-0.6102 0.25496-0.22901 0.63556-0.22901h0.15298q3.5848 0.30503 8.5937 0.30503 4.4239 0 6.1526-1.5763 1.7546-1.5763 1.7546-4.5511 0-1.9069-1.2971-3.3307-1.2966-1.4238-4.9324-3.6612l-5.0594-3.0764q-3.7628-2.2882-5.492-4.5002-1.7032-2.2374-1.7032-5.2376 0-4.6528 3.2033-6.9156 3.2038-2.2882 9.2548-2.2882 4.9324 0 9.0513 0.6356 0.89007 0.17802 0.89007 0.86448v2.2374q0 0.38152-0.25498 0.6102-0.25496 0.22901-0.63555 0.22901h-0.10198q-4.5764-0.30503-8.9498-0.30503-4.1444 0-5.8985 1.0679-1.7542 1.0678-1.7542 3.8646 0 1.7544 1.2456 3.0764 1.2711 1.3221 4.4239 3.229l4.7799 2.873q4.5004 2.6696 6.331 5.085 1.8557 2.3899 1.8557 5.5426zm11.925 9.0005q0 0.40655-0.27815 0.73731-0.25496 0.30503-0.66105 0.30503h-2.8732q-0.38013 0-0.66105-0.30503-0.27814-0.30503-0.27814-0.73731v-36.663q0-0.40702 0.25496-0.68646 0.25497-0.30503 0.68656-0.30503h2.8732q0.38012 0 0.66106 0.27953 0.27814 0.27954 0.27814 0.71191zm33.459-34.426q0 0.38152-0.27814 0.6102-0.27815 0.22901-0.71205 0.22901h-10.17v33.586q0 0.40656-0.25496 0.73732-0.25497 0.30503-0.66106 0.30503h-2.8728q-0.38013 0-0.66106-0.30503-0.27815-0.30504-0.27815-0.73732v-33.586h-10.145q-1.0426 0-1.0426-0.83903v-2.2882q0-0.38152 0.30596-0.66105 0.30596-0.27954 0.73708-0.27954h25.044q0.43113 0 0.71205 0.2545 0.27815 0.25404 0.27815 0.68646zm31.273 34.426q0 0.38152-0.27815 0.71191-0.27814 0.33053-0.66106 0.33053h-2.8477q-0.38013 0-0.66106-0.30504-0.27814-0.30503-0.27814-0.73731v-15.408h-15.941v15.408q0 0.40655-0.27814 0.73731-0.25496 0.30504-0.66106 0.30504h-2.8473q-0.38013 0-0.66106-0.33053-0.27814-0.33053-0.27814-0.71192v-27.23q0-5.8223 2.6952-8.2886 2.7207-2.4916 8.4922-2.4916h3.0253q5.746 0 8.4667 2.4916 2.7202 2.4663 2.7202 8.2886zm-4.7289-19.577v-7.653q0-2.034-0.32913-3.3052-0.32914-1.2967-1.1441-2.034-0.81358-0.73732-1.9832-0.99154-1.1441-0.27954-3.0002-0.27954h-3.0253q-1.8562 0-3.0258 0.27954-1.1441 0.25404-1.9577 0.99154-0.81357 0.73736-1.1441 2.034-0.32914 1.2713-0.32914 3.3052v7.653zm53.393 4.7799q0 8.136-4.1698 12.179-4.1694 4.0172-11.619 4.0172-6.458 0-9.4583-0.50849-1.0931-0.15252-1.0931-1.2967v-35.773q0-1.1696 1.0931-1.3221 3.0003-0.50849 9.4583-0.50849 7.4747 0 11.619 4.0172 4.1698 3.9917 4.1698 12.179zm-4.7289 0v-7.0173q0-2.7713-0.55953-4.8816-0.55954-2.1103-1.5256-3.4578-0.96608-1.373-2.3897-2.2374-1.4241-0.86447-3.0258-1.195-1.6016-0.35603-3.5593-0.35603-3.1783 0-5.7715 0.15252v31.019q2.1102 0.12702 5.7715 0.12702 2.4662 0 4.3729-0.58475 1.9322-0.61021 3.4833-1.9577 1.5511-1.3476 2.3647-3.7629 0.83907-2.4408 0.83907-5.8478zm33.51 15.204q0 0.22899-0.15298 0.48309-0.15298 0.229-0.38012 0.25404-2.4662 0.25404-10.145 0.25404-5.5935 0-8.3392-2.2883-2.7462-2.3137-2.7462-7.3987v-20.035q0-5.085 2.7462-7.3733 2.7458-2.3137 8.3392-2.3137 6.8646 0 10.145 0.30504 0.22714 0.0232 0.38012 0.27953 0.15298 0.22901 0.15298 0.45755v2.5934q0 0.27954-0.17615 0.45755-0.15298 0.17801-0.40795 0.17801h-10.043q-2.7458 0-4.1444 0.5594-1.3731 0.55935-1.8307 1.6526-0.43112 1.0678-0.43112 3.2036v7.2461h15.992q0.43113 0 0.73709 0.30503 0.30595 0.30503 0.30595 0.73731v1.9577q0 0.43205-0.30595 0.73731-0.30596 0.30504-0.73709 0.30504h-15.992v8.7462q0 2.1357 0.43112 3.229 0.45894 1.0678 1.8307 1.6272 1.3986 0.55934 4.1444 0.55934h10.043q0.25497 0 0.40795 0.17802 0.17615 0.17801 0.17615 0.45755zm30.663-0.91529q0 0.43205-0.25496 0.76272-0.25497 0.30503-0.68656 0.38152-4.7544 0.76276-10.373 0.76276-2.0342 0-3.9154-0.50849-1.8561-0.53394-3.6358-1.7544-1.7546-1.2458-3.0512-3.051-1.2966-1.8306-2.0847-4.6274-0.78807-2.7967-0.78807-6.2545v-6.9664q0-3.6612 0.81356-6.5343 0.83907-2.873 2.1612-4.6528 1.3471-1.8052 3.2033-2.9748t3.7628-1.6272q1.9071-0.45755 4.0173-0.45755 5.0849 0 9.8904 0.73732 0.89006 0.10152 0.89006 0.76276v2.6188q0 0.50849-0.68655 0.50849h-0.20397q-4.2969-0.35602-9.8904-0.35602-1.5256 0-2.8222 0.33053t-2.5172 1.195q-1.1946 0.83903-2.0337 2.1865-0.83907 1.3221-1.3476 3.4324t-0.50854 4.8308v6.9664q0 3.1273 0.66106 5.4918 0.68655 2.3391 1.9067 3.7375 1.2206 1.3984 2.7717 2.0848 1.5506 0.66105 3.4068 0.66105 2.8222 0 6.5596-0.30503v-14.899q0-0.45754 0.25497-0.73731 0.25496-0.30503 0.68609-0.30503h2.8222q0.38013 0 0.68655 0.30503 0.30596 0.30503 0.30596 0.73731zm29.875 0.71192q0 0.229-0.15298 0.48304-0.15298 0.22901-0.38013 0.25404-3.0253 0.45754-10.144 0.45754-1.3221 0-2.3902-0.0765-1.0421-0.0765-2.2372-0.33052-1.1696-0.27953-2.0847-0.68651-0.89006-0.43205-1.7546-1.1696-0.86457-0.73731-1.4236-1.7289-0.53404-1.017-0.86457-2.4408-0.32914-1.4492-0.32914-3.2544v-28.323q0-0.43205 0.30596-0.73732 0.30596-0.30503 0.73755-0.30503h2.6442q0.43112 0 0.73708 0.30503 0.30595 0.30504 0.30595 0.73732v28.324q0 2.1357 0.43113 3.229 0.45894 1.0678 1.8307 1.6272 1.3981 0.55934 4.1439 0.55934h10.043q0.25496 0 0.40794 0.17802 0.17615 0.17801 0.17615 0.45754zm10.246-0.20351q0 0.40655-0.27815 0.73731-0.25496 0.30504-0.66105 0.30504h-2.8728q-0.38012 0-0.66105-0.30504-0.27814-0.30503-0.27814-0.73731v-36.663q0-0.40702 0.25496-0.68646 0.25497-0.30504 0.68656-0.30504h2.8728q0.38014 0 0.66106 0.27954 0.27815 0.27954 0.27815 0.71191zm44.799-9.0005q0 1.6018-0.35696 3.0256-0.32913 1.3984-1.2456 2.7967-0.89006 1.3729-2.3137 2.3645-1.3986 0.99158-3.6868 1.6018-2.2882 0.6102-5.263 0.6102-4.0679 0-8.6447-0.7119-0.63556-0.10153-0.81356-0.27954-0.17617-0.20351-0.17617-0.66106v-2.0848q0-0.40701 0.25497-0.61021 0.25496-0.229 0.63556-0.229h0.15298q3.5848 0.30503 8.5937 0.30503 4.4239 0 6.153-1.5763 1.7542-1.5763 1.7542-4.5511 0-1.9069-1.2966-3.3307t-4.9324-3.6612l-5.0599-3.0764q-3.7628-2.2882-5.4915-4.5002-1.7036-2.2374-1.7036-5.2376 0-4.6528 3.2038-6.9156 3.2033-2.2883 9.2548-2.2883 4.9324 0 9.0513 0.63561 0.88959 0.17801 0.88959 0.86447v2.2374q0 0.38152-0.25497 0.6102-0.25496 0.22901-0.63556 0.22901h-0.10198q-4.5764-0.30503-8.9493-0.30503-4.1444 0-5.899 1.0679-1.7542 1.0678-1.7542 3.8646 0 1.7544 1.2456 3.0764 1.2716 1.3221 4.4243 3.229l4.7799 2.873q4.4999 2.6696 6.3306 5.085 1.8562 2.3899 1.8562 5.5426zm31.502-25.425q0 0.38152-0.27815 0.61021-0.27814 0.229-0.71158 0.229h-10.17v33.587q0 0.40655-0.25496 0.73731-0.25497 0.30504-0.66106 0.30504h-2.8732q-0.38013 0-0.66106-0.30504-0.27814-0.30503-0.27814-0.73731v-33.587h-10.144q-1.0426 0-1.0426-0.83902v-2.2882q0-0.38152 0.30596-0.66106 0.30596-0.27953 0.73755-0.27953h25.044q0.43113 0 0.71159 0.2545 0.27814 0.25404 0.27814 0.68646zm32.213 33.587q0 0.91528-0.30596 1.2458-0.30596 0.30504-1.1441 0.43206-1.9067 0.27952-5.3394 0.43204-3.4068 0.17801-5.7715 0.17801-3.6354 0-6.2036-0.73731-2.5422-0.73736-4.3984-2.4408-1.8562-1.7289-2.7462-4.6528-0.86411-2.9238-0.86411-7.1953v-23.035q0-0.40702 0.25497-0.71192 0.27814-0.33053 0.68655-0.33053h2.9238q0.38014 0 0.63556 0.30504 0.25497 0.30503 0.25497 0.73731v23.035q0 2.695 0.38013 4.602 0.40795 1.9069 1.1186 3.1273 0.71158 1.2204 1.9322 1.9323 1.2206 0.68646 2.6442 0.96615 1.4491 0.25403 3.5088 0.25403 3.4833 0 7.7037-0.33053v-33.587q0-0.40702 0.25497-0.71191 0.27814-0.33053 0.68655-0.33053h2.8477q0.43113 0 0.68656 0.30503 0.25496 0.27954 0.25496 0.73732zm34.451-13.958q0 8.136-4.1698 12.179-4.1694 4.0171-11.619 4.0171-6.458 0-9.4583-0.50849-1.0931-0.15251-1.0931-1.2967v-35.773q0-1.1696 1.0931-1.3221 3.0003-0.5085 9.4583-0.5085 7.4751 0 11.619 4.0172 4.1698 3.9917 4.1698 12.179zm-4.7289 0v-7.0173q0-2.7713-0.55953-4.8816-0.55907-2.1103-1.5252-3.4578-0.96654-1.373-2.3902-2.2374-1.4236-0.86448-3.0258-1.195-1.6016-0.35602-3.5593-0.35602-3.1783 0-5.7715 0.15251v31.019q2.1102 0.12701 5.7715 0.12701 2.4662 0 4.3729-0.58475 1.9326-0.6102 3.4833-1.9577 1.5511-1.3476 2.3647-3.7629 0.83907-2.4408 0.83907-5.8478zm17.01 14.797q0 0.40655-0.27818 0.73731-0.25497 0.30504-0.66106 0.30504h-2.8727q-0.38013 0-0.66105-0.30504-0.27819-0.30503-0.27819-0.73731v-36.663q0-0.40702 0.25497-0.68646 0.25496-0.30504 0.68659-0.30504h2.8727q0.38014 0 0.66106 0.27954 0.27818 0.27954 0.27818 0.71191z" fill="#071343"/>
</svg>
