<?xml version="1.0" encoding="utf-8"?>
<!-- Generator: Adobe Illustrator 16.0.0, SVG Export Plug-In . SVG Version: 6.00 Build 0)  -->
<!DOCTYPE svg PUBLIC "-//W3C//DTD SVG 1.1//EN" "http://www.w3.org/Graphics/SVG/1.1/DTD/svg11.dtd">
<svg version="1.1" id="_x30_" xmlns="http://www.w3.org/2000/svg" xmlns:xlink="http://www.w3.org/1999/xlink" x="0px" y="0px"
	 width="1037.48px" height="481.89px" viewBox="0 0 1037.48 481.89" enable-background="new 0 0 1037.48 481.89"
	 xml:space="preserve">
<path fill="#FA070D" d="M1023.307,317.48H615.419L518.74,14.173L422.061,317.48H14.173l384.804,72.421l-24.804,77.815h76.535
	l17.854-64.719l50.178,9.443l50.178-9.443l17.854,64.719h76.535l-24.804-77.815L1023.307,317.48z M492.153,317.48l26.587-96.378
	l26.587,96.378H492.153z"/>
<g>
	<g>
		<path fill="#1E28AB" d="M188.205,198.784h54.416c11.852,0,20.728,2.818,26.63,8.455c5.901,5.637,8.853,13.658,8.853,24.064
			c0,10.695-3.216,19.054-9.647,25.076c-6.432,6.023-16.249,9.033-29.448,9.033h-17.922v39.313h-32.881V198.784z M221.086,243.949
			h8.021c6.311,0,10.743-1.095,13.297-3.288c2.553-2.192,3.83-4.998,3.83-8.419c0-3.324-1.109-6.143-3.324-8.455
			c-2.216-2.313-6.384-3.469-12.502-3.469h-9.322V243.949z"/>
	</g>
	<g>
		<path fill="#1E28AB" d="M427.917,224.799H376.68v79.925h-32.664V198.784h83.9V224.799z"/>
	</g>
	<g>
		<path fill="#1E28AB" d="M616.133,198.784h99.51v26.16h-33.387v79.781H649.52v-79.781h-33.387V198.784z"/>
	</g>
	<g>
		<path fill="#1E28AB" d="M769.335,198.784h35.555l14.633,43.648l14.49-43.648h33.314l-34.786,81.804
			c-2.841,6.602-5.321,11.527-7.44,14.779c-2.117,3.252-5.26,5.926-9.426,8.021s-9.883,3.143-17.154,3.143
			c-3.853,0-10.474-0.554-19.863-1.662v-21.896c5.535,0.578,9.577,0.867,12.129,0.867c7.557,0,12.152-2.818,13.789-8.455
			L769.335,198.784z"/>
	</g>
</g>
</svg>
