<?xml version="1.0" encoding="UTF-8" standalone="no"?>
<!-- Created with Inkscape (http://www.inkscape.org/) -->

<svg
   xmlns:dc="http://purl.org/dc/elements/1.1/"
   xmlns:cc="http://creativecommons.org/ns#"
   xmlns:rdf="http://www.w3.org/1999/02/22-rdf-syntax-ns#"
   xmlns:svg="http://www.w3.org/2000/svg"
   xmlns="http://www.w3.org/2000/svg"
   xmlns:sodipodi="http://sodipodi.sourceforge.net/DTD/sodipodi-0.dtd"
   xmlns:inkscape="http://www.inkscape.org/namespaces/inkscape"
   width="196.10858"
   height="62"
   viewBox="0 0 196.10858 61.999999"
   id="svg3659"
   version="1.1"
   inkscape:version="0.48.1 "
   sodipodi:docname="bridgewater su textlogo.svg">
  <defs
     id="defs3661">
    <clipPath
       id="clipPath3001">
      <path
         id="path3003"
         d="M 0,1053.56 0,0 l 1275.6,0 0,1053.56 -1275.6,0 z"
         inkscape:connector-curvature="0" />
    </clipPath>
  </defs>
  <sodipodi:namedview
     id="base"
     pagecolor="#ffffff"
     bordercolor="#666666"
     borderopacity="1.0"
     inkscape:pageopacity="0.0"
     inkscape:pageshadow="2"
     inkscape:zoom="3.3869634"
     inkscape:cx="97.054287"
     inkscape:cy="21.130142"
     inkscape:document-units="px"
     inkscape:current-layer="layer1"
     showgrid="false"
     fit-margin-top="0"
     fit-margin-left="0"
     fit-margin-right="0"
     fit-margin-bottom="0"
     units="px"
     inkscape:window-width="1366"
     inkscape:window-height="705"
     inkscape:window-x="-8"
     inkscape:window-y="-8"
     inkscape:window-maximized="1" />
  <metadata
     id="metadata3664">
    <rdf:RDF>
      <cc:Work
         rdf:about="">
        <dc:format>image/svg+xml</dc:format>
        <dc:type
           rdf:resource="http://purl.org/dc/dcmitype/StillImage" />
        <dc:title />
      </cc:Work>
    </rdf:RDF>
  </metadata>
  <g
     inkscape:label="Layer 1"
     inkscape:groupmode="layer"
     id="layer1"
     transform="translate(-1177.2314,-896.2368)">
    <g
       id="g3181"
       transform="translate(0.03804,-0.5673955)">
      <g
         transform="translate(1165.2857,-82.785623)"
         id="g3429">
        <path
           style="fill:#ba0f32;fill-opacity:1;fill-rule:nonzero;stroke:none"
           id="path3061"
           d="m 54.827577,1029.9104 c 0.33234,0.2116 1.060476,0.5695 1.96102,0.5695 0.742439,0 1.405294,-0.4114 1.405294,-1.3381 0,-0.6628 -0.384687,-0.954 -1.205494,-1.4046 l -0.861285,-0.4773 c -0.914848,-0.5035 -1.511052,-1.2316 -1.511052,-2.4246 0,-1.6555 1.364816,-2.518 2.914976,-2.518 0.980282,0 1.669766,0.2527 1.934239,0.3323 l -0.07898,1.4172 c -0.411469,-0.1583 -0.954108,-0.3972 -1.736416,-0.3972 -0.84759,0 -1.284471,0.4506 -1.284471,1.0867 0,0.6888 0.463663,0.9534 0.98013,1.2452 l 0.993977,0.5564 c 1.085888,0.6093 1.603115,1.193 1.603115,2.4906 0,1.8819 -1.338643,2.7831 -3.100472,2.7831 -0.927935,0 -1.643593,-0.1326 -2.106647,-0.4108 l 0.09206,-1.5104"
           inkscape:connector-curvature="0" />
        <path
           style="fill:#ba0f32;fill-opacity:1;fill-rule:nonzero;stroke:none"
           id="path3063"
           d="m 63.004454,1023.8015 -2.067387,0 0,-1.3511 5.816866,0 0,1.3511 -2.053692,0 0,7.8975 -1.695787,0 0,-7.8975"
           inkscape:connector-curvature="0" />
        <path
           style="fill:#ba0f32;fill-opacity:1;fill-rule:nonzero;stroke:none"
           id="path3065"
           d="m 72.293392,1028.1741 -1.166842,-4.319 -0.02617,0 -1.271992,4.319 2.465008,0 z m 0.357144,1.2988 -3.179448,0 -0.663311,2.2261 -1.695939,0 3.10108,-9.2486 1.85511,0 2.98041,9.2486 -1.748743,0 -0.649159,-2.2261"
           inkscape:connector-curvature="0" />
        <path
           style="fill:#ba0f32;fill-opacity:1;fill-rule:nonzero;stroke:none"
           id="path3067"
           d="m 77.208649,1023.8015 -2.066779,0 0,-1.3511 5.816866,0 0,1.3511 -2.0543,0 0,7.8975 -1.695787,0 0,-7.8975"
           inkscape:connector-curvature="0" />
        <path
           style="fill:#ba0f32;fill-opacity:1;fill-rule:nonzero;stroke:none"
           id="path3069"
           d="m 82.549982,1022.4504 4.862301,0 0,1.3511 -3.166362,0 0,2.4651 2.994562,0 0,1.3517 -2.994562,0 0,2.729 3.298903,0 0,1.3517 -4.994842,0 0,-9.2486"
           inkscape:connector-curvature="0" />
        <path
           style="fill:#ba0f32;fill-opacity:1;fill-rule:nonzero;stroke:none"
           id="path3071"
           d="m 97.285556,1022.4504 0,5.9888 c 0,1.5372 0.463663,2.0407 1.456271,2.0407 0.967804,0 1.445163,-0.5035 1.445163,-2.0407 l 0,-5.9888 1.69639,0 0,5.9888 c 0,2.4377 -1.40468,3.3924 -3.141553,3.3924 -1.748134,0 -3.152058,-0.9547 -3.152058,-3.3924 l 0,-5.9888 1.695787,0"
           inkscape:connector-curvature="0" />
        <path
           style="fill:#ba0f32;fill-opacity:1;fill-rule:nonzero;stroke:none"
           id="path3073"
           d="m 104.21585,1022.4504 2.01383,0 3.07445,7.2609 0.026,0 0,-7.2609 1.53722,0 0,9.2486 -2.02751,0 -3.06061,-7.2074 -0.0262,0 0,7.2074 -1.53723,0 0,-9.2486"
           inkscape:connector-curvature="0" />
        <path
           style="fill:#ba0f32;fill-opacity:1;fill-rule:nonzero;stroke:none"
           id="path3075"
           d="m 113.29267,1031.699 1.69645,0 0,-9.2485 -1.69645,0 0,9.2485 z"
           inkscape:connector-curvature="0" />
        <path
           style="fill:#ba0f32;fill-opacity:1;fill-rule:nonzero;stroke:none"
           id="path3077"
           d="m 116.81861,1022.4504 1.82726,0 1.8688,7.1289 0.0262,0 1.92176,-7.1289 1.74874,0 -2.82215,9.2486 -1.78861,0 -2.78198,-9.2486"
           inkscape:connector-curvature="0" />
        <path
           style="fill:#ba0f32;fill-opacity:1;fill-rule:nonzero;stroke:none"
           id="path3079"
           d="m 125.76288,1022.4504 4.86352,0 0,1.3511 -3.16652,0 0,2.4651 2.99289,0 0,1.3517 -2.99289,0 0,2.729 3.29723,0 0,1.3517 -4.99423,0 0,-9.2486"
           inkscape:connector-curvature="0" />
        <path
           style="fill:#ba0f32;fill-opacity:1;fill-rule:nonzero;stroke:none"
           id="path3081"
           d="m 135.42205,1026.4782 c 0.90176,0 1.51105,-0.4636 1.51105,-1.4046 0,-1.0598 -0.55634,-1.3243 -1.51105,-1.3243 l -0.68827,0 0,2.7289 0.68827,0 z m -2.3836,-4.0278 2.88774,0 c 1.64359,0 2.75687,0.7418 2.75687,2.4384 0,1.2049 -0.75553,2.0145 -1.78922,2.1726 l 0,0.04 c 0.34421,0.053 0.72874,0.2122 1.02,1.0729 l 1.20671,3.5249 -1.80352,0 -0.91409,-3.0077 c -0.22537,-0.7288 -0.66286,-0.9672 -1.28523,-0.9672 l -0.38393,0 0,3.9749 -1.69533,0 0,-9.2486"
           inkscape:connector-curvature="0" />
        <path
           style="fill:#ba0f32;fill-opacity:1;fill-rule:nonzero;stroke:none"
           id="path3083"
           d="m 141.09405,1029.9104 c 0.33158,0.2116 1.06032,0.5695 1.96147,0.5695 0.74123,0 1.40408,-0.4114 1.40408,-1.3381 0,-0.6628 -0.38453,-0.954 -1.2061,-1.4046 l -0.86007,-0.4773 c -0.91424,-0.5035 -1.51105,-1.2316 -1.51105,-2.4246 0,-1.6555 1.36421,-2.518 2.91437,-2.518 0.97967,0 1.66976,0.2527 1.93484,0.3323 l -0.0796,1.4172 c -0.41071,-0.1583 -0.9535,-0.3972 -1.73566,-0.3972 -0.84713,0 -1.28523,0.4506 -1.28523,1.0867 0,0.6888 0.46427,0.9534 0.98028,1.2452 l 0.99444,0.5564 c 1.08649,0.6093 1.6025,1.193 1.6025,2.4906 0,1.8819 -1.33742,2.7831 -3.10047,2.7831 -0.92611,0 -1.64237,-0.1326 -2.10726,-0.4108 l 0.0934,-1.5104"
           inkscape:connector-curvature="0" />
        <path
           style="fill:#ba0f32;fill-opacity:1;fill-rule:nonzero;stroke:none"
           id="path3085"
           d="m 148.31621,1031.699 1.69645,0 0,-9.2485 -1.69645,0 0,9.2485 z"
           inkscape:connector-curvature="0" />
        <path
           style="fill:#ba0f32;fill-opacity:1;fill-rule:nonzero;stroke:none"
           id="path3087"
           d="m 154.08073,1023.8015 -2.06724,0 0,-1.3511 5.81687,0 0,1.3511 -2.0543,0 0,7.8975 -1.69533,0 0,-7.8975"
           inkscape:connector-curvature="0" />
        <path
           style="fill:#ba0f32;fill-opacity:1;fill-rule:nonzero;stroke:none"
           id="path3089"
           d="m 161.67327,1027.9893 -2.72948,-5.5389 1.82893,0 1.80231,3.6968 1.69518,-3.6968 1.82894,0 -2.72948,5.5781 0,3.6705 -1.6964,0 0,-3.7097"
           inkscape:connector-curvature="0" />
      </g>
      <path
         style="fill:none;stroke:#231f20;stroke-width:0.69744724;stroke-linecap:butt;stroke-linejoin:miter;stroke-miterlimit:4;stroke-opacity:1;stroke-dasharray:none"
         id="path3091"
         d="m 1178.2314,898.72031 194.0325,0"
         inkscape:connector-curvature="0" />
      <g
         transform="translate(1165.2857,-82.785623)"
         id="g3416">
        <path
           style="fill:#231f20;fill-opacity:1;fill-rule:nonzero;stroke:none"
           id="path3093"
           d="m 18.631304,1002.6018 c 0,2.1154 0.834563,2.8675 3.172388,2.8675 3.672906,0 4.730369,-2.2826 4.730369,-4.4528 0,-2.14352 -1.641782,-4.34223 -4.897392,-4.34223 l -3.005365,0 0,5.92753 z m 0,-6.45541 3.033304,0 c 2.671306,0 4.006951,-1.05804 4.006951,-3.2289 0,-1.94778 -1.168623,-3.72939 -4.591864,-3.72939 -0.612242,0 -1.752927,0.0566 -2.448391,0.0838 l 0,6.87445 z m -2.310495,-4.28633 c 0,-1.58592 -0.194382,-2.42103 -2.142276,-2.42103 l -0.974842,0 0,-0.52788 c 0.779873,-0.0291 2.699836,-0.1403 3.506461,-0.16815 1.531215,-0.0559 3.64614,-0.0832 4.174582,-0.0832 2.448985,0 4.591864,0.36262 5.594043,1.08543 1.141278,0.80711 1.697674,1.75407 1.697674,3.08861 0,1.58698 -1.30833,3.06121 -3.173011,3.39583 l 0,0.0552 c 2.616615,0.77987 4.146598,2.47748 4.146598,4.64773 0,2.1981 -1.529983,5.2879 -6.010686,5.2879 l -10.185315,0 0,-0.5289 0.640186,0 c 2.281366,0 2.726586,-0.5285 2.726586,-2.2826 l 0,-11.54894"
           inkscape:connector-curvature="0" />
        <path
           style="fill:#231f20;fill-opacity:1;fill-rule:nonzero;stroke:none"
           id="path3095"
           d="m 35.049076,998.3731 c 0.66818,0.082 1.085431,0.0552 1.726221,0.0552 3.087994,0 5.12023,-1.30836 5.12023,-4.64774 0,-2.58812 -1.169125,-4.5925 -5.455005,-4.5925 -0.528944,0 -0.890349,0 -1.391446,0.0566 l 0,9.1284 z m 0,5.2315 c 0,1.6691 0.66818,2.087 2.226709,2.087 l 0.639573,0 0,0.5289 -7.875428,0 0,-0.5289 0.473098,0 c 1.642375,0 2.226101,-0.4459 2.226101,-2.3106 l 0,-11.71648 c 0,-1.72379 -0.473098,-2.22549 -2.087017,-2.22549 l -0.612182,0 0,-0.52788 c 0.66818,0 2.365185,-0.11231 3.506463,-0.16815 1.141278,-0.0559 1.697613,-0.0832 3.506463,-0.0832 5.148838,0 7.458176,2.11487 7.458176,4.9533 0,2.08747 -1.418989,3.84109 -3.700937,4.50866 1.028977,0.80711 1.864696,1.58637 3.173058,2.89474 l 2.198101,2.1981 c 1.641767,1.6417 3.307881,2.3604 5.450744,2.5001 l 0,0.4999 c -4.869909,0.2229 -6.091533,-0.523 -8.567802,-3 l -1.836849,-1.8367 c -1.224364,-1.2252 -2.198711,-2.03117 -2.86613,-2.47688 -0.69618,0.0278 -1.140822,0.0558 -1.892696,0.0558 -0.612181,0 -0.974195,-0.028 -1.419445,-0.0558 l 0,4.70358"
           inkscape:connector-curvature="0" />
        <path
           style="fill:#231f20;fill-opacity:1;fill-rule:nonzero;stroke:none"
           id="path3097"
           d="m 56.504495,1006.2205 -6.762605,0 0,-0.5289 c 1.72546,-0.084 2.087473,-0.5285 2.087473,-2.3932 l 0,-11.85559 c 0,-1.50208 -0.528335,-1.92055 -2.087473,-2.00378 l 0,-0.52788 6.762605,0 0,0.52788 c -1.753003,0 -2.365185,0.3894 -2.365185,2.25394 l 0,11.80033 c 0,1.6418 0.445251,2.1983 2.365185,2.1983 l 0,0.5289"
           inkscape:connector-curvature="0" />
        <path
           style="fill:#231f20;fill-opacity:1;fill-rule:nonzero;stroke:none"
           id="path3099"
           d="m 63.154798,1004.1603 c 0,1.1413 0.08385,1.5313 2.281948,1.5313 3.729392,0 5.287922,-0.5285 7.012925,-2.2547 1.030194,-1.0016 2.310556,-3.1439 2.310556,-6.01136 0,-2.05902 -0.584943,-4.34097 -2.22671,-5.98273 -1.279753,-1.28098 -3.255686,-2.25471 -7.152009,-2.25471 -1.141278,0 -1.892696,0.0838 -2.22671,0.11245 l 0,14.85975 z m -2.309947,-12.46733 c 0,-1.80809 -0.473097,-2.25394 -2.114864,-2.25394 l -0.555726,0 0,-0.52788 c 1.028824,-0.0565 2.393032,-0.11231 3.923714,-0.16815 1.53053,-0.0559 3.227686,-0.0832 4.674979,-0.0832 7.347092,0 10.603234,3.72939 10.603234,8.32007 0,4.20243 -3.256142,9.24063 -10.297067,9.24063 l -8.90486,0 0,-0.5289 0.472489,0 c 1.502683,0 2.198101,-0.4179 2.198101,-2.0318 l 0,-11.96679"
           inkscape:connector-curvature="0" />
        <path
           style="fill:#231f20;fill-opacity:1;fill-rule:nonzero;stroke:none"
           id="path3101"
           d="m 95.825633,1004.9123 c -2.755045,1.4182 -6.289507,1.7535 -7.458024,1.7535 -6.095186,0 -8.933468,-4.703 -8.933468,-8.76701 0,-4.17465 2.922128,-9.40611 9.712733,-9.40611 2.977366,0 4.953299,0.94635 5.537481,0.94635 0.250929,0 0.47325,-0.0552 0.64079,-0.19433 l 0.389404,0 0,4.50744 -0.556944,0 c -0.750809,-3.478 -3.115993,-4.56404 -5.704716,-4.56404 -4.898518,0 -7.402787,4.06355 -7.402787,8.54421 0,5.70459 4.00756,8.23679 7.207856,8.23679 1.279753,0 2.699199,-0.2775 4.258489,-1.0568 l 0,-3.506 c 0,-1.58697 -0.557552,-2.11546 -2.226101,-2.11546 l -1.030802,0 0,-0.5011 7.514023,0 0,0.5011 c -1.390838,0.0832 -1.947934,0.55634 -1.947934,1.75296 l 0,3.8685"
           inkscape:connector-curvature="0" />
        <path
           style="fill:#231f20;fill-opacity:1;fill-rule:nonzero;stroke:none"
           id="path3103"
           d="m 110.79722,999.95841 -0.52894,0 c -0.22232,-1.97532 -0.75203,-2.1981 -1.89209,-2.1981 l -4.70419,0 0,5.92749 c 0,1.2798 0.4737,1.5299 1.5039,1.5299 l 4.28511,0 c 1.94794,0 2.53212,-0.75 3.22891,-3.1444 l 0.49988,0 -0.44586,4.1472 -14.776052,0 0,-0.5289 0.778808,0 c 2.226554,0 2.615964,-0.6123 2.615964,-2.2826 l 0,-11.74448 c 0,-1.55792 -0.36141,-2.22549 -2.226103,-2.22549 l -0.612182,0 0,-0.52788 13.358275,0 0.22233,3.86665 -0.50171,0 c -0.3614,-2.36458 -1.05682,-2.86568 -2.05841,-2.86568 l -5.87286,0 0,6.84645 4.98175,0 c 1.0022,0 1.47484,-0.4737 1.61453,-2.08686 l 0.52894,0 0,5.2867"
           inkscape:connector-curvature="0" />
        <path
           style="fill:#231f20;fill-opacity:1;fill-rule:nonzero;stroke:none"
           id="path3105"
           d="m 129.16343,990.63554 c 0.30617,-0.75066 0.11124,-1.19651 -0.69542,-1.19651 l -1.16928,0 c -0.72326,0 -1.11206,0.27816 -0.77926,1.03004 l 1.39221,3.22829 1.25175,-3.06182 z m 1.92115,16.03026 -3.64615,-8.60008 -3.50692,8.60008 -1.3636,0 -5.78795,-14.80574 c -0.83451,-2.11487 -1.50314,-2.42103 -3.2846,-2.42103 l -0.16648,0 0,-0.52788 7.20725,0 0,0.52788 -0.47188,0 c -1.30958,0 -1.80946,0.58494 -1.33697,1.75345 l 5.0656,12.74612 3.00537,-7.4308 -2.25395,-5.48225 c -0.55755,-1.3642 -1.3916,-1.58652 -2.86628,-1.58652 l 0,-0.52788 11.40973,0 0,0.52788 c -1.72485,0 -2.30918,0.41664 -2.75504,1.4759 l -1.78085,4.34096 3.64615,8.68271 4.92591,-12.91305 c 0.44403,-1.14067 0.0826,-1.53068 -1.94915,-1.58652 l 0,-0.52788 5.76117,0 0,0.52788 c -1.69822,0 -2.08701,0.3334 -2.92334,2.53272 l -5.59348,14.69405 -1.33454,0"
           inkscape:connector-curvature="0" />
        <path
           style="fill:#231f20;fill-opacity:1;fill-rule:nonzero;stroke:none"
           id="path3107"
           d="m 144.97013,990.83047 -2.36625,6.48398 4.81407,0 -2.44782,-6.48398 z m -2.83828,7.7085 -1.61438,4.37003 c -0.19508,0.5279 -0.55648,1.363 -0.55648,1.7524 0,0.7514 0.72281,1.0302 2.25349,1.0302 l 0.44586,0 0,0.5289 -6.4292,0 0,-0.5289 c 1.8087,-0.028 2.11486,-0.3348 3.00536,-2.7546 l 5.06621,-13.83199 -0.25153,-0.61233 2.42103,0 5.81641,15.44592 c 0.55633,1.4742 1.14188,1.753 2.53287,1.753 l 0,0.5289 -7.6531,0 0,-0.5289 0.72402,0 c 1.58516,0 2.1695,-0.1665 2.1695,-0.947 0,-0.4446 -0.19372,-0.8619 -0.30541,-1.14 l -1.86409,-5.06563 -5.76056,0"
           inkscape:connector-curvature="0" />
        <path
           style="fill:#231f20;fill-opacity:1;fill-rule:nonzero;stroke:none"
           id="path3109"
           d="m 161.63827,1003.6598 c 0,1.5033 0.50155,2.0318 2.1981,2.0318 l 1.03065,0 0,0.5289 -8.76638,0 0,-0.5289 1.02897,0 c 1.69822,0 2.19993,-0.5285 2.19993,-2.0318 l 0,-13.74768 -4.84282,0 c -1.1145,0 -1.61438,0.64018 -2.03163,3.08921 l -0.50049,0 0.44464,-4.50865 0.52834,0 c 0.0274,0.16708 0.1403,0.27817 0.30617,0.33401 0.16708,0.0554 0.36201,0.0845 0.55694,0.0845 l 13.38582,0 c 0.39108,0 0.80803,-0.0845 0.86281,-0.41847 l 0.52955,0 0.44434,4.50865 -0.50064,0 c -0.41695,-2.44903 -0.91759,-3.08921 -2.033,-3.08921 l -4.8413,0 0,13.74764"
           inkscape:connector-curvature="0" />
        <path
           style="fill:#231f20;fill-opacity:1;fill-rule:nonzero;stroke:none"
           id="path3111"
           d="m 181.84117,999.95841 -0.52955,0 c -0.22065,-1.97532 -0.7502,-2.1981 -1.89148,-2.1981 l -4.70358,0 0,5.92749 c 0,1.2798 0.47325,1.5299 1.50344,1.5299 l 4.28664,0 c 1.94778,0 2.53212,-0.75 3.22753,-3.1444 l 0.50065,0 -0.44586,4.1472 -14.77575,0 0,-0.5289 0.77911,0 c 2.22473,0 2.61581,-0.6123 2.61581,-2.2826 l 0,-11.74448 c 0,-1.55792 -0.36216,-2.22549 -2.22625,-2.22549 l -0.61325,0 0,-0.52788 13.35904,0 0.22065,3.86665 -0.50064,0 c -0.36065,-2.36458 -1.05606,-2.86568 -2.05887,-2.86568 l -5.87225,0 0,6.84645 4.98206,0 c 1.0028,0 1.47453,-0.4737 1.613,-2.08686 l 0.52955,0 0,5.2867"
           inkscape:connector-curvature="0" />
        <path
           style="fill:#231f20;fill-opacity:1;fill-rule:nonzero;stroke:none"
           id="path3113"
           d="m 190.44032,998.3731 c 0.66803,0.082 1.08498,0.0552 1.72562,0.0552 3.08906,0 5.12053,-1.30836 5.12053,-4.64774 0,-2.58812 -1.16867,-4.5925 -5.45531,-4.5925 -0.52955,0 -0.89019,0 -1.39084,0.0566 l 0,9.1284 z m 0,5.2315 c 0,1.6691 0.66803,2.087 2.22626,2.087 l 0.64064,0 0,0.5289 -7.87635,0 0,-0.5289 0.47325,0 c 1.64192,0 2.22626,-0.4459 2.22626,-2.3106 l 0,-11.71648 c 0,-1.72379 -0.47325,-2.22549 -2.08778,-2.22549 l -0.61173,0 0,-0.52788 c 0.66803,0 2.36473,-0.11231 3.50601,-0.16815 1.1428,-0.0559 1.69822,-0.0832 3.50753,-0.0832 5.14792,0 7.45787,2.11487 7.45787,4.9533 0,2.08747 -1.41975,3.84109 -3.70231,4.50866 1.0302,0.80711 1.86409,1.58637 3.17276,2.89474 l 2.19886,2.1981 c 1.64192,1.6417 3.33862,2.6719 5.4827,2.8104 l 0,0.5011 c -4.87097,0.2223 -6.12182,-0.8345 -8.59915,-3.3115 l -1.8367,-1.8367 c -1.22497,-1.2252 -2.19886,-2.03117 -2.86689,-2.47688 -0.69542,0.0278 -1.14128,0.0558 -1.89148,0.0558 -0.61476,0 -0.97541,-0.028 -1.41975,-0.0558 l 0,4.70358"
           inkscape:connector-curvature="0" />
      </g>
      <path
         style="fill:none;stroke:#231f20;stroke-width:0.69744724;stroke-linecap:butt;stroke-linejoin:miter;stroke-miterlimit:4;stroke-opacity:1;stroke-dasharray:none"
         id="path3115"
         d="m 1178.2314,931.99448 194.0325,0"
         inkscape:connector-curvature="0" />
      <path
         style="fill:none;stroke:#231f20;stroke-width:0.69744724;stroke-linecap:butt;stroke-linejoin:miter;stroke-miterlimit:4;stroke-opacity:1;stroke-dasharray:none"
         id="path3117"
         d="m 1220.0813,956.88808 110.5016,0"
         inkscape:connector-curvature="0" />
    </g>
  </g>
</svg>
