<?xml version="1.0" encoding="UTF-8" standalone="no"?><!DOCTYPE svg PUBLIC "-//W3C//DTD SVG 1.1//EN" "http://www.w3.org/Graphics/SVG/1.1/DTD/svg11.dtd"><svg width="100%" height="100%" viewBox="0 0 124 31" version="1.1" xmlns="http://www.w3.org/2000/svg" xmlns:xlink="http://www.w3.org/1999/xlink" xml:space="preserve" xmlns:serif="http://www.serif.com/" style="fill-rule:evenodd;clip-rule:evenodd;stroke-linejoin:round;stroke-miterlimit:2;"><rect x="60.824" y="0" width="0.851" height="30.239"/><path d="M14.966,19.007l-0,0.576c-0.247,0 -0.618,0.124 -0.864,0.288c-0.33,0.206 -0.535,0.453 -0.7,0.946c-0.329,1.152 -0.74,2.469 -1.193,3.95c-0.453,1.522 -0.946,3.127 -1.481,4.813l-0.658,0l-2.674,-8.022l-2.757,8.022l-0.617,0c-0.987,-3.414 -2.18,-7.775 -2.551,-9.051c-0.082,-0.288 -0.247,-0.534 -0.535,-0.74c-0.246,-0.165 -0.617,-0.247 -0.864,-0.247l0,-0.535l4.238,0l-0,0.535c-0.37,0.041 -0.699,0.041 -0.946,0.123c-0.247,0.042 -0.412,0.165 -0.412,0.288c0,0.083 0.041,0.288 0.041,0.371c0.124,0.452 0.33,1.152 0.618,2.139c0.288,0.987 0.699,2.468 1.275,4.443l2.592,-7.734l0.74,-0l2.633,7.899c0.7,-2.428 1.194,-4.238 1.564,-5.513c0.123,-0.453 0.205,-0.782 0.205,-0.946c0.042,-0.165 0.042,-0.33 0.042,-0.412c-0,-0.164 -0.124,-0.329 -0.329,-0.411c-0.247,-0.124 -0.618,-0.206 -1.111,-0.247l-0,-0.535l3.744,0Z" style="fill-rule:nonzero;"/><path d="M14.966,19.007l-0,0.576c-0.247,0 -0.618,0.124 -0.864,0.288c-0.33,0.206 -0.535,0.453 -0.7,0.946c-0.329,1.152 -0.74,2.469 -1.193,3.95c-0.453,1.522 -0.946,3.127 -1.481,4.813l-0.658,0l-2.674,-8.022l-2.757,8.022l-0.617,0c-0.987,-3.414 -2.18,-7.775 -2.551,-9.051c-0.082,-0.288 -0.247,-0.534 -0.535,-0.74c-0.246,-0.165 -0.617,-0.247 -0.864,-0.247l0,-0.535l4.238,0l-0,0.535c-0.37,0.041 -0.699,0.041 -0.946,0.123c-0.247,0.042 -0.412,0.165 -0.412,0.288c0,0.083 0.041,0.288 0.041,0.371c0.124,0.452 0.33,1.152 0.618,2.139c0.288,0.987 0.699,2.468 1.275,4.443l2.592,-7.734l0.74,-0l2.633,7.899c0.7,-2.428 1.194,-4.238 1.564,-5.513c0.123,-0.453 0.205,-0.782 0.205,-0.946c0.042,-0.165 0.042,-0.33 0.042,-0.412c-0,-0.164 -0.124,-0.329 -0.329,-0.411c-0.247,-0.124 -0.618,-0.206 -1.111,-0.247l-0,-0.535l3.744,0Z" style="fill-rule:nonzero;"/><path d="M-0,18.935l4.382,-0l0,0.672l-0.064,0.007c-0.111,0.012 -0.221,0.021 -0.324,0.03c-0.069,0.005 -0.135,0.01 -0.196,0.016c-0.159,0.016 -0.296,0.036 -0.411,0.074l-0.006,0.002l-0.005,0.001c-0.116,0.019 -0.207,0.057 -0.268,0.1c-0.063,0.045 -0.083,0.088 -0.083,0.116c-0,0.035 0.009,0.1 0.02,0.175l0,0.006c0.009,0.063 0.019,0.133 0.021,0.179c0.105,0.384 0.268,0.945 0.491,1.707c0.039,0.134 0.08,0.275 0.123,0.423c0.12,0.409 0.26,0.903 0.425,1.481c0.034,0.12 0.069,0.243 0.105,0.37c0.195,0.685 0.42,1.475 0.681,2.37l2.535,-7.565l0.845,0l2.575,7.727c0.355,-1.232 0.655,-2.303 0.913,-3.221c0.226,-0.804 0.419,-1.491 0.586,-2.067c0.062,-0.226 0.113,-0.42 0.148,-0.577c0.036,-0.16 0.055,-0.276 0.055,-0.349l0,-0.009l0.002,-0.009c0.039,-0.155 0.039,-0.311 0.039,-0.394c0,-0.127 -0.097,-0.269 -0.283,-0.344l-0.006,-0.002c-0.234,-0.117 -0.594,-0.199 -1.084,-0.24l-0.067,-0.005l0,-0.674l3.889,-0l-0,0.721l-0.072,-0c-0.23,-0 -0.587,0.117 -0.824,0.275l-0.002,0.002c-0.159,0.099 -0.285,0.206 -0.392,0.347c-0.107,0.141 -0.196,0.318 -0.277,0.559c-0.254,0.889 -0.557,1.877 -0.89,2.962c-0.099,0.321 -0.199,0.65 -0.303,0.987c-0.452,1.522 -0.946,3.127 -1.481,4.814l-0.016,0.051l-0.764,-0l-2.622,-7.869l-2.704,7.869l-0.723,-0l-0.016,-0.052c-0.493,-1.708 -1.039,-3.652 -1.507,-5.329c-0.101,-0.362 -0.198,-0.712 -0.291,-1.044c-0.336,-1.206 -0.607,-2.179 -0.752,-2.678c-0.078,-0.272 -0.233,-0.505 -0.507,-0.702c-0.232,-0.154 -0.587,-0.234 -0.823,-0.234l-0.072,0l-0,-0.679Zm0.145,0.145l-0,0.392c0.253,0.013 0.594,0.098 0.832,0.257l0.002,0.001c0.301,0.215 0.475,0.475 0.562,0.779c0.145,0.501 0.417,1.475 0.753,2.68c0.092,0.333 0.19,0.682 0.291,1.044c0.463,1.66 1.002,3.581 1.491,5.275l0.511,-0l2.81,-8.176l2.725,8.176l0.553,-0c0.528,-1.668 1.017,-3.255 1.465,-4.762l-0,-0c0.103,-0.338 0.204,-0.667 0.303,-0.988c0.333,-1.085 0.636,-2.072 0.889,-2.961l0.001,-0.003c0.084,-0.252 0.18,-0.444 0.299,-0.602c0.12,-0.157 0.26,-0.275 0.43,-0.382c0.234,-0.155 0.573,-0.276 0.831,-0.296l0,-0.434l-3.599,-0l0,0.396c0.463,0.043 0.821,0.124 1.068,0.247c0.224,0.09 0.372,0.276 0.372,0.477l0,0.002c0,0.081 0,0.248 -0.041,0.419c-0.002,0.09 -0.024,0.218 -0.058,0.372c-0.037,0.161 -0.089,0.358 -0.15,0.584l-0.001,0.001c-0.167,0.578 -0.36,1.264 -0.585,2.067c-0.273,0.972 -0.594,2.115 -0.978,3.446l-0.065,0.224l-2.69,-8.071l-0.636,0l-2.649,7.905l-0.065,-0.223c-0.288,-0.987 -0.535,-1.851 -0.745,-2.592c-0.037,-0.127 -0.072,-0.25 -0.106,-0.37c-0.164,-0.579 -0.305,-1.072 -0.424,-1.481c-0.043,-0.147 -0.084,-0.288 -0.123,-0.423c-0.224,-0.767 -0.389,-1.332 -0.494,-1.717l-0.003,-0.01l0,-0.009c0,-0.035 -0.009,-0.1 -0.02,-0.175l-0.001,-0.006c-0.009,-0.068 -0.02,-0.143 -0.02,-0.19c-0,-0.095 0.062,-0.176 0.143,-0.233c0.082,-0.059 0.194,-0.103 0.323,-0.125c0.131,-0.043 0.279,-0.064 0.438,-0.079c0.067,-0.006 0.134,-0.012 0.203,-0.017c0.081,-0.007 0.164,-0.014 0.251,-0.022l-0,-0.397l-4.093,-0Z"/><path d="M18.709,23.78c0,0.452 -0.205,0.863 -0.658,0.863c-0.494,0 -0.74,-0.288 -0.74,-0.617c-0,-0.082 -0,-0.205 0.041,-0.246c-0,-0.083 0.041,-0.165 0.041,-0.247c-0.412,-0 -1.029,0.37 -1.44,0.946l-0,3.744c-0,0.329 0.123,0.493 0.37,0.576c0.206,0.082 0.617,0.123 0.864,0.123l0,0.494l-3.456,-0l0,-0.494l0.329,0c0.206,0 0.453,-0.082 0.576,-0.247c0.042,-0.082 0.083,-0.205 0.083,-0.37l-0,-3.991c-0,-0.288 -0.124,-0.576 -0.371,-0.74c-0.164,-0.124 -0.411,-0.165 -0.658,-0.165l0,-0.493l2.263,-0l-0,0.946l0.041,-0c0.535,-0.7 1.275,-1.111 1.851,-1.111c0.576,0 0.864,0.411 0.864,1.029Z" style="fill-rule:nonzero;"/><path d="M18.709,23.78c0,0.452 -0.205,0.863 -0.658,0.863c-0.494,0 -0.74,-0.288 -0.74,-0.617c-0,-0.082 -0,-0.205 0.041,-0.246c-0,-0.083 0.041,-0.165 0.041,-0.247c-0.412,-0 -1.029,0.37 -1.44,0.946l-0,3.744c-0,0.329 0.123,0.493 0.37,0.576c0.206,0.082 0.617,0.123 0.864,0.123l0,0.494l-3.456,-0l0,-0.494l0.329,0c0.206,0 0.453,-0.082 0.576,-0.247c0.042,-0.082 0.083,-0.205 0.083,-0.37l-0,-3.991c-0,-0.288 -0.124,-0.576 -0.371,-0.74c-0.164,-0.124 -0.411,-0.165 -0.658,-0.165l0,-0.493l2.263,-0l-0,0.946l0.041,-0c0.535,-0.7 1.275,-1.111 1.851,-1.111c0.576,0 0.864,0.411 0.864,1.029Z" style="fill-rule:nonzero;"/><path d="M17.845,22.823c-0.546,0 -1.267,0.395 -1.793,1.083l-0.022,0.028l-0.15,0l0,-0.946l-2.117,0l-0,0.35c0.228,0.008 0.461,0.053 0.627,0.177c0.27,0.18 0.401,0.493 0.401,0.799l0,3.991c0,0.177 -0.044,0.312 -0.09,0.403l-0.003,0.006l-0.004,0.005c-0.142,0.189 -0.415,0.276 -0.634,0.276l-0.256,-0l-0,0.348l3.311,0l-0,-0.349c-0.115,-0.004 -0.252,-0.014 -0.385,-0.031c-0.159,-0.02 -0.32,-0.052 -0.432,-0.096c-0.133,-0.045 -0.24,-0.114 -0.313,-0.223c-0.072,-0.109 -0.105,-0.248 -0.105,-0.421l0,-3.767l0.014,-0.019c0.211,-0.296 0.475,-0.539 0.74,-0.708c0.263,-0.169 0.534,-0.269 0.759,-0.269l0.072,0l0,0.073c0,0.05 -0.012,0.098 -0.022,0.137l-0,0.004c-0.011,0.043 -0.019,0.075 -0.019,0.106l0,0.03l-0.021,0.02c0,0 -0.002,0.004 -0.006,0.015c-0.004,0.013 -0.007,0.03 -0.009,0.051c-0.005,0.041 -0.005,0.088 -0.005,0.13c0,0.146 0.054,0.281 0.162,0.379c0.107,0.098 0.273,0.166 0.506,0.166c0.201,0 0.343,-0.089 0.439,-0.23c0.097,-0.144 0.147,-0.345 0.147,-0.561c-0,-0.299 -0.07,-0.538 -0.2,-0.701c-0.129,-0.16 -0.323,-0.256 -0.592,-0.256Zm-1.82,0.883c0.536,-0.643 1.247,-1.027 1.82,-1.027c0.307,-0 0.545,0.11 0.705,0.31c0.158,0.197 0.232,0.472 0.232,0.791c-0,0.235 -0.054,0.467 -0.172,0.642c-0.121,0.178 -0.307,0.294 -0.559,0.294c-0.261,-0 -0.465,-0.076 -0.604,-0.204c-0.14,-0.128 -0.209,-0.302 -0.209,-0.486l0,-0.001c0,-0.04 0,-0.095 0.006,-0.145c0.003,-0.026 0.007,-0.053 0.015,-0.078c0.004,-0.015 0.011,-0.032 0.021,-0.048c0.003,-0.041 0.013,-0.08 0.021,-0.112l0.001,-0.003c0.002,-0.01 0.005,-0.02 0.007,-0.029c-0.173,0.021 -0.382,0.103 -0.597,0.241c-0.244,0.156 -0.489,0.379 -0.687,0.651l0,3.721c0,0.156 0.03,0.264 0.081,0.34c0.05,0.076 0.127,0.129 0.24,0.167l0.004,0.001c0.094,0.038 0.241,0.068 0.399,0.088c0.157,0.021 0.318,0.031 0.438,0.031l0.073,-0l-0,0.638l-3.601,0l-0,-0.638l0.401,-0c0.191,-0 0.408,-0.077 0.515,-0.213c0.035,-0.074 0.071,-0.184 0.071,-0.332l0,-3.991c0,-0.268 -0.115,-0.531 -0.338,-0.68l-0.003,-0.002c-0.145,-0.109 -0.372,-0.15 -0.615,-0.15l-0.072,-0l-0,-0.639l2.407,0l0,0.863Z"/><path d="M20.149,25.425l3.004,0c-0,-0.494 -0.083,-1.111 -0.247,-1.481c-0.206,-0.411 -0.535,-0.699 -1.111,-0.699c-0.946,-0 -1.605,0.823 -1.646,2.18Zm3.991,2.222l0.453,0.288c-0.535,1.028 -1.481,1.687 -2.675,1.687c-1.069,-0 -1.851,-0.412 -2.345,-1.029c-0.493,-0.617 -0.74,-1.522 -0.74,-2.468c-0,-0.864 0.288,-1.687 0.782,-2.345c0.493,-0.618 1.275,-1.029 2.18,-1.029c0.946,0 1.646,0.329 2.057,0.823c0.411,0.494 0.617,1.193 0.617,1.975l0,0.452l-4.32,0c0,0.864 0.165,1.564 0.494,2.098c0.329,0.494 0.905,0.823 1.687,0.823c0.782,-0.041 1.275,-0.329 1.81,-1.275Z" style="fill-rule:nonzero;"/><path d="M20.149,25.425l3.004,0c-0,-0.494 -0.083,-1.111 -0.247,-1.481c-0.206,-0.411 -0.535,-0.699 -1.111,-0.699c-0.946,-0 -1.605,0.823 -1.646,2.18Zm3.991,2.222l0.453,0.288c-0.535,1.028 -1.481,1.687 -2.675,1.687c-1.069,-0 -1.851,-0.412 -2.345,-1.029c-0.493,-0.617 -0.74,-1.522 -0.74,-2.468c-0,-0.864 0.288,-1.687 0.782,-2.345c0.493,-0.618 1.275,-1.029 2.18,-1.029c0.946,0 1.646,0.329 2.057,0.823c0.411,0.494 0.617,1.193 0.617,1.975l0,0.452l-4.32,0c0,0.864 0.165,1.564 0.494,2.098c0.329,0.494 0.905,0.823 1.687,0.823c0.782,-0.041 1.275,-0.329 1.81,-1.275Z" style="fill-rule:nonzero;"/><path d="M19.672,23.824c-0.484,0.646 -0.767,1.453 -0.767,2.301c0,0.935 0.245,1.822 0.725,2.423c0.479,0.598 1.239,1.001 2.288,1.001c1.141,0 2.05,-0.615 2.579,-1.589l-0.332,-0.211c-0.257,0.441 -0.51,0.74 -0.797,0.935c-0.302,0.205 -0.635,0.29 -1.034,0.311l-0.004,-0c-0.804,-0 -1.403,-0.34 -1.747,-0.855l-0.002,-0.003c-0.338,-0.549 -0.504,-1.263 -0.504,-2.136l-0,-0.072l4.32,-0l-0,-0.38c-0,-0.771 -0.203,-1.452 -0.601,-1.929c-0.395,-0.474 -1.072,-0.797 -2.001,-0.797c-0.882,0 -1.643,0.401 -2.123,1.001Zm-0.114,-0.09c0.507,-0.634 1.309,-1.055 2.237,-1.055c0.963,-0 1.685,0.335 2.113,0.848c0.425,0.511 0.634,1.228 0.634,2.022l-0,0.525l-4.32,-0c0.009,0.821 0.172,1.481 0.482,1.986c0.314,0.471 0.866,0.789 1.624,0.79c0.381,-0.021 0.685,-0.101 0.959,-0.286c0.275,-0.187 0.525,-0.485 0.79,-0.953l0.038,-0.066l0.572,0.364l-0.03,0.059c-0.546,1.05 -1.515,1.726 -2.739,1.726c-1.089,0 -1.893,-0.42 -2.401,-1.056c-0.507,-0.634 -0.757,-1.557 -0.757,-2.513c0,-0.88 0.294,-1.718 0.797,-2.389l0.001,-0.002Zm1.017,0.048c0.301,-0.393 0.723,-0.61 1.22,-0.61c0.301,0 0.542,0.076 0.735,0.208c0.193,0.133 0.334,0.318 0.441,0.532l0.001,0.003c0.171,0.383 0.253,1.012 0.253,1.51l0,0.073l-3.15,-0l0.002,-0.075c0.021,-0.689 0.198,-1.25 0.498,-1.641Zm-0.35,1.571l2.855,-0c-0.008,-0.475 -0.089,-1.038 -0.24,-1.378c-0.099,-0.197 -0.225,-0.361 -0.392,-0.475c-0.166,-0.114 -0.378,-0.183 -0.653,-0.183c-0.45,0 -0.83,0.195 -1.105,0.553c-0.266,0.346 -0.435,0.849 -0.465,1.483Z"/><path d="M28.09,29.622c-1.893,-0 -3.004,-1.358 -3.004,-3.456c0,-0.905 0.288,-1.728 0.823,-2.386c0.535,-0.618 1.317,-1.029 2.263,-1.029c1.275,0 2.18,0.658 2.18,1.728c0,0.452 -0.205,0.823 -0.699,0.823c-0.535,-0 -0.823,-0.329 -0.823,-0.659c0,-0.205 0.041,-0.411 0.082,-0.617c0.042,-0.205 0.083,-0.37 0.083,-0.452c-0.165,-0.288 -0.494,-0.329 -0.864,-0.329c-0.412,-0 -0.782,0.164 -1.152,0.617c-0.329,0.452 -0.535,1.193 -0.535,2.221c-0,1.646 0.782,2.798 1.975,2.798c0.864,0 1.398,-0.411 1.892,-1.234l0.412,0.288c-0.576,1.028 -1.605,1.687 -2.633,1.687Z" style="fill-rule:nonzero;"/><path d="M28.09,29.622c-1.893,-0 -3.004,-1.358 -3.004,-3.456c0,-0.905 0.288,-1.728 0.823,-2.386c0.535,-0.618 1.317,-1.029 2.263,-1.029c1.275,0 2.18,0.658 2.18,1.728c0,0.452 -0.205,0.823 -0.699,0.823c-0.535,-0 -0.823,-0.329 -0.823,-0.659c0,-0.205 0.041,-0.411 0.082,-0.617c0.042,-0.205 0.083,-0.37 0.083,-0.452c-0.165,-0.288 -0.494,-0.329 -0.864,-0.329c-0.412,-0 -0.782,0.164 -1.152,0.617c-0.329,0.452 -0.535,1.193 -0.535,2.221c-0,1.646 0.782,2.798 1.975,2.798c0.864,0 1.398,-0.411 1.892,-1.234l0.412,0.288c-0.576,1.028 -1.605,1.687 -2.633,1.687Z" style="fill-rule:nonzero;"/><path d="M25.965,23.826c-0.524,0.645 -0.806,1.451 -0.806,2.34c-0,1.037 0.274,1.882 0.774,2.467c0.499,0.584 1.229,0.916 2.157,0.916c0.979,0 1.966,-0.616 2.537,-1.593l-0.294,-0.206c-0.238,0.384 -0.49,0.68 -0.789,0.882c-0.316,0.215 -0.681,0.321 -1.125,0.321c-0.623,0 -1.138,-0.301 -1.495,-0.812c-0.355,-0.509 -0.553,-1.224 -0.553,-2.058c0,-1.036 0.207,-1.794 0.549,-2.264l0.003,-0.003c0.381,-0.467 0.771,-0.644 1.208,-0.644c0.366,0 0.739,0.038 0.927,0.366l0.009,0.017l0,0.019c0,0.049 -0.012,0.118 -0.027,0.194c-0.007,0.036 -0.016,0.076 -0.024,0.118l-0.003,0.009c-0.009,0.046 -0.019,0.095 -0.03,0.146c-0.041,0.207 -0.08,0.405 -0.08,0.602c-0,0.282 0.247,0.586 0.75,0.586c0.226,0 0.379,-0.083 0.477,-0.213c0.1,-0.132 0.15,-0.32 0.15,-0.537c-0,-0.512 -0.216,-0.923 -0.584,-1.208c-0.37,-0.286 -0.898,-0.448 -1.524,-0.448c-0.924,0 -1.685,0.401 -2.207,1.003Zm-0.111,-0.094c0.548,-0.632 1.349,-1.053 2.318,-1.053c0.649,-0 1.211,0.167 1.613,0.478c0.403,0.311 0.64,0.764 0.64,1.322c-0,0.236 -0.054,0.459 -0.18,0.625c-0.128,0.169 -0.325,0.27 -0.592,0.27c-0.567,0 -0.895,-0.354 -0.895,-0.731c-0,-0.212 0.042,-0.424 0.083,-0.627l0,-0.004c0.011,-0.052 0.021,-0.101 0.031,-0.147l0.002,-0.009c0.009,-0.042 0.017,-0.081 0.024,-0.116c0.013,-0.065 0.021,-0.114 0.023,-0.148c-0.145,-0.232 -0.425,-0.275 -0.79,-0.275c-0.386,0 -0.737,0.152 -1.095,0.589c-0.316,0.435 -0.52,1.158 -0.52,2.177c0,0.813 0.193,1.496 0.527,1.975c0.333,0.477 0.806,0.751 1.376,0.751c0.419,-0 0.754,-0.1 1.044,-0.296c0.291,-0.198 0.542,-0.497 0.786,-0.903l0.04,-0.067l0.529,0.37l-0.032,0.057c-0.587,1.048 -1.637,1.724 -2.696,1.724c-0.965,0 -1.737,-0.347 -2.267,-0.966c-0.528,-0.619 -0.809,-1.501 -0.809,-2.562c-0,-0.921 0.293,-1.76 0.839,-2.432l0.001,-0.002Z"/><path d="M35.536,26.248c0.37,0.329 0.576,0.699 0.576,1.317c0,1.193 -0.987,2.057 -2.427,2.057c-0.741,-0 -1.481,-0.371 -1.728,-0.576l-0.124,0.411l-0.493,0l-0.083,-2.263l0.453,0c0.082,0.329 0.329,0.864 0.658,1.234c0.329,0.371 0.823,0.7 1.44,0.7c0.864,-0 1.317,-0.412 1.317,-1.111c-0,-0.37 -0.165,-0.617 -0.412,-0.823c-0.288,-0.205 -0.74,-0.37 -1.234,-0.535c-0.411,-0.123 -0.987,-0.329 -1.358,-0.617c-0.37,-0.329 -0.658,-0.74 -0.658,-1.357c0,-1.07 0.864,-1.893 2.181,-1.893c0.493,0 1.11,0.165 1.44,0.329l0.164,-0.329l0.494,0l0.082,2.098l-0.453,0c-0.205,-0.946 -0.822,-1.563 -1.727,-1.563c-0.741,-0 -1.152,0.411 -1.152,0.905c-0,0.411 0.123,0.658 0.411,0.823c0.247,0.164 0.658,0.329 1.234,0.494c0.535,0.164 1.07,0.411 1.399,0.699Z" style="fill-rule:nonzero;"/><path d="M35.536,26.248c0.37,0.329 0.576,0.699 0.576,1.317c0,1.193 -0.987,2.057 -2.427,2.057c-0.741,-0 -1.481,-0.371 -1.728,-0.576l-0.124,0.411l-0.493,0l-0.083,-2.263l0.453,0c0.082,0.329 0.329,0.864 0.658,1.234c0.329,0.371 0.823,0.7 1.44,0.7c0.864,-0 1.317,-0.412 1.317,-1.111c-0,-0.37 -0.165,-0.617 -0.412,-0.823c-0.288,-0.205 -0.74,-0.37 -1.234,-0.535c-0.411,-0.123 -0.987,-0.329 -1.358,-0.617c-0.37,-0.329 -0.658,-0.74 -0.658,-1.357c0,-1.07 0.864,-1.893 2.181,-1.893c0.493,0 1.11,0.165 1.44,0.329l0.164,-0.329l0.494,0l0.082,2.098l-0.453,0c-0.205,-0.946 -0.822,-1.563 -1.727,-1.563c-0.741,-0 -1.152,0.411 -1.152,0.905c-0,0.411 0.123,0.658 0.411,0.823c0.247,0.164 0.658,0.329 1.234,0.494c0.535,0.164 1.07,0.411 1.399,0.699Z" style="fill-rule:nonzero;"/><path d="M33.644,22.865c-1.285,-0 -2.108,0.798 -2.108,1.82c-0,0.588 0.272,0.981 0.632,1.302c0.358,0.278 0.921,0.48 1.332,0.603l0.002,0.001c0.491,0.163 0.955,0.331 1.253,0.544l0.005,0.003c0.258,0.216 0.437,0.482 0.437,0.879c0,0.366 -0.119,0.666 -0.359,0.873c-0.239,0.205 -0.587,0.31 -1.03,0.31c-0.644,0 -1.156,-0.343 -1.494,-0.723c-0.32,-0.36 -0.563,-0.869 -0.66,-1.21l-0.321,-0l0.077,2.118l0.369,-0l0.14,-0.465l0.084,0.07c0.116,0.096 0.355,0.237 0.659,0.353c0.303,0.116 0.664,0.206 1.023,0.206c1.411,0 2.355,-0.842 2.355,-1.984c-0,-0.301 -0.05,-0.537 -0.143,-0.736c-0.092,-0.2 -0.229,-0.367 -0.409,-0.527c-0.318,-0.278 -0.841,-0.521 -1.371,-0.684c-0.576,-0.164 -0.995,-0.331 -1.252,-0.501c-0.153,-0.089 -0.267,-0.201 -0.34,-0.349c-0.074,-0.147 -0.106,-0.323 -0.106,-0.536c0,-0.268 0.112,-0.515 0.324,-0.693c0.211,-0.178 0.517,-0.284 0.901,-0.284c0.47,-0 0.868,0.16 1.175,0.446c0.294,0.273 0.501,0.658 0.61,1.117l0.32,-0l-0.077,-1.953l-0.379,-0l-0.177,0.353l-0.065,-0.032c-0.319,-0.16 -0.925,-0.321 -1.407,-0.321Zm-2.253,1.82c-0,-1.118 0.904,-1.965 2.253,-1.965c0.474,-0 1.057,0.147 1.406,0.305l0.153,-0.305l0.608,-0l0.088,2.243l-0.586,-0l-0.012,-0.057c-0.101,-0.462 -0.3,-0.839 -0.581,-1.099c-0.279,-0.26 -0.641,-0.408 -1.076,-0.408c-0.358,0 -0.628,0.1 -0.807,0.251c-0.179,0.151 -0.273,0.357 -0.273,0.582c0,0.199 0.03,0.351 0.09,0.472c0.06,0.119 0.151,0.212 0.285,0.288l0.004,0.002c0.237,0.159 0.64,0.321 1.214,0.485l0.002,0c0.538,0.166 1.085,0.417 1.425,0.714l0,0.001c0.191,0.169 0.342,0.352 0.445,0.574c0.103,0.222 0.156,0.48 0.156,0.797c-0,1.243 -1.031,2.129 -2.5,2.129c-0.382,0 -0.761,-0.095 -1.075,-0.216c-0.255,-0.097 -0.471,-0.213 -0.614,-0.312l-0.109,0.363l-0.617,0l-0.088,-2.407l0.585,-0l0.013,0.055c0.08,0.319 0.322,0.843 0.642,1.203c0.321,0.361 0.796,0.675 1.386,0.675c0.422,0 0.732,-0.1 0.935,-0.275c0.202,-0.174 0.309,-0.43 0.309,-0.763c0,-0.342 -0.149,-0.57 -0.383,-0.765c-0.278,-0.198 -0.718,-0.359 -1.212,-0.524c-0.411,-0.123 -0.999,-0.332 -1.38,-0.629l-0.004,-0.002c-0.38,-0.338 -0.682,-0.768 -0.682,-1.412Z"/><path d="M40.638,28.14l0.041,-2.262c-0.741,0.205 -1.276,0.411 -1.769,0.74c-0.453,0.288 -0.7,0.7 -0.7,1.276c0,0.74 0.412,1.069 1.029,1.069c0.617,-0.082 1.069,-0.411 1.399,-0.823Zm2.345,0.782l-0,0.412c-0.412,0.164 -0.7,0.246 -1.07,0.246c-0.699,0 -1.111,-0.329 -1.234,-0.946l-0.041,0c-0.535,0.658 -1.152,0.988 -2.099,0.988c-0.987,-0 -1.686,-0.659 -1.686,-1.646c-0,-0.494 0.123,-0.905 0.411,-1.193c0.206,-0.247 0.617,-0.494 0.946,-0.617c0.206,-0.083 0.617,-0.206 1.193,-0.412c0.617,-0.205 1.029,-0.37 1.235,-0.493l-0,-0.659c-0,-0.123 -0.042,-0.493 -0.206,-0.781c-0.165,-0.329 -0.453,-0.617 -1.07,-0.617c-0.411,-0 -0.781,0.164 -0.946,0.329c-0,0.082 -0,0.205 0.082,0.37c0.041,0.165 0.041,0.329 0.041,0.494c0,0.329 -0.288,0.617 -0.781,0.617c-0.453,-0 -0.659,-0.371 -0.659,-0.741c0,-0.411 0.33,-0.781 0.782,-1.069c0.412,-0.247 1.029,-0.453 1.564,-0.453c0.74,0 1.275,0.082 1.727,0.411c0.453,0.33 0.7,0.864 0.7,1.728l-0,3.292c-0,0.329 0.123,0.534 0.37,0.658c0.124,0.082 0.453,0.082 0.741,0.082Z" style="fill-rule:nonzero;"/><path d="M40.638,28.14l0.041,-2.262c-0.741,0.205 -1.276,0.411 -1.769,0.74c-0.453,0.288 -0.7,0.7 -0.7,1.276c0,0.74 0.412,1.069 1.029,1.069c0.617,-0.082 1.069,-0.411 1.399,-0.823Zm2.345,0.782l-0,0.412c-0.412,0.164 -0.7,0.246 -1.07,0.246c-0.699,0 -1.111,-0.329 -1.234,-0.946l-0.041,0c-0.535,0.658 -1.152,0.988 -2.099,0.988c-0.987,-0 -1.686,-0.659 -1.686,-1.646c-0,-0.494 0.123,-0.905 0.411,-1.193c0.206,-0.247 0.617,-0.494 0.946,-0.617c0.206,-0.083 0.617,-0.206 1.193,-0.412c0.617,-0.205 1.029,-0.37 1.235,-0.493l-0,-0.659c-0,-0.123 -0.042,-0.493 -0.206,-0.781c-0.165,-0.329 -0.453,-0.617 -1.07,-0.617c-0.411,-0 -0.781,0.164 -0.946,0.329c-0,0.082 -0,0.205 0.082,0.37c0.041,0.165 0.041,0.329 0.041,0.494c0,0.329 -0.288,0.617 -0.781,0.617c-0.453,-0 -0.659,-0.371 -0.659,-0.741c0,-0.411 0.33,-0.781 0.782,-1.069c0.412,-0.247 1.029,-0.453 1.564,-0.453c0.74,0 1.275,0.082 1.727,0.411c0.453,0.33 0.7,0.864 0.7,1.728l-0,3.292c-0,0.329 0.123,0.534 0.37,0.658c0.124,0.082 0.453,0.082 0.741,0.082Z" style="fill-rule:nonzero;"/><path d="M37.919,23.265c-0.447,0.285 -0.747,0.636 -0.747,1.008c-0,0.173 0.048,0.341 0.144,0.465c0.094,0.121 0.238,0.203 0.442,0.203c0.465,0 0.709,-0.266 0.709,-0.544c-0,-0.164 -0,-0.317 -0.037,-0.469c-0.086,-0.176 -0.086,-0.311 -0.086,-0.395l-0,-0.03l0.021,-0.022c0.18,-0.18 0.57,-0.35 0.997,-0.35c0.321,0 0.561,0.075 0.745,0.197c0.183,0.122 0.303,0.287 0.389,0.458c0.172,0.303 0.214,0.686 0.214,0.816l0,0.7l-0.035,0.021c-0.214,0.128 -0.632,0.294 -1.248,0.5c-0.288,0.103 -0.536,0.185 -0.736,0.252c-0.202,0.067 -0.353,0.118 -0.454,0.158l-0.001,0.001c-0.323,0.121 -0.722,0.362 -0.916,0.595l-0.005,0.005c-0.269,0.27 -0.39,0.659 -0.39,1.142c0,0.476 0.168,0.868 0.451,1.141c0.283,0.273 0.686,0.432 1.163,0.432c0.465,0 0.845,-0.081 1.172,-0.239c0.328,-0.159 0.608,-0.399 0.87,-0.722l0.022,-0.026l0.135,-0l0.012,0.058c0.059,0.295 0.185,0.515 0.374,0.661c0.19,0.147 0.45,0.227 0.789,0.227c0.343,-0 0.614,-0.073 0.997,-0.224l0,-0.289c-0.122,-0.001 -0.251,-0.002 -0.365,-0.011c-0.069,-0.005 -0.134,-0.013 -0.191,-0.026c-0.055,-0.012 -0.107,-0.029 -0.148,-0.055c-0.132,-0.067 -0.235,-0.158 -0.305,-0.279c-0.069,-0.122 -0.102,-0.269 -0.102,-0.442l0,-3.292c0,-0.849 -0.241,-1.358 -0.669,-1.669c-0.433,-0.315 -0.949,-0.398 -1.685,-0.398c-0.52,0 -1.124,0.201 -1.526,0.442Zm-0.075,-0.124c0.42,-0.252 1.05,-0.462 1.601,-0.462c0.744,-0 1.298,0.082 1.77,0.425c0.477,0.347 0.729,0.908 0.729,1.786l0,3.292c0,0.155 0.029,0.276 0.083,0.37c0.054,0.094 0.135,0.167 0.247,0.223l0.005,0.002l0.003,0.003c0.02,0.013 0.054,0.026 0.103,0.037c0.048,0.01 0.106,0.018 0.171,0.023c0.131,0.01 0.282,0.01 0.427,0.01l0.072,-0l0,0.533l-0.045,0.018c-0.416,0.166 -0.713,0.252 -1.097,0.252c-0.361,-0 -0.656,-0.085 -0.878,-0.257c-0.197,-0.153 -0.33,-0.37 -0.403,-0.642c-0.255,0.299 -0.533,0.528 -0.858,0.686c-0.351,0.17 -0.753,0.254 -1.235,0.254c-0.51,0 -0.95,-0.17 -1.264,-0.473c-0.313,-0.303 -0.495,-0.734 -0.495,-1.245c0,-0.504 0.126,-0.936 0.43,-1.242c0.218,-0.259 0.64,-0.51 0.974,-0.636c0.105,-0.042 0.26,-0.094 0.458,-0.159l0.003,-0.001c0.201,-0.067 0.447,-0.149 0.734,-0.252l0.001,-0c0.584,-0.195 0.976,-0.35 1.185,-0.467l0,-0.617c0,-0.116 -0.04,-0.472 -0.196,-0.745l-0.002,-0.004c-0.079,-0.157 -0.184,-0.3 -0.34,-0.404c-0.156,-0.104 -0.368,-0.173 -0.665,-0.173c-0.378,0 -0.714,0.145 -0.873,0.288c0.001,0.075 0.009,0.176 0.074,0.307l0.004,0.007l0.002,0.007c0.043,0.174 0.043,0.346 0.043,0.508l-0,0.004c-0,0.38 -0.332,0.689 -0.854,0.689c-0.249,0 -0.435,-0.103 -0.556,-0.259c-0.12,-0.154 -0.175,-0.356 -0.175,-0.554c-0,-0.451 0.358,-0.84 0.815,-1.131l0.002,-0.001Zm2.909,2.641l-0.043,2.384l-0.016,0.02c-0.338,0.422 -0.806,0.764 -1.446,0.849l-0.004,0.001l-0.005,-0c-0.321,-0 -0.599,-0.086 -0.796,-0.278c-0.198,-0.192 -0.305,-0.481 -0.305,-0.864c-0,-0.602 0.26,-1.036 0.732,-1.336c0.503,-0.335 1.046,-0.544 1.789,-0.75l0.094,-0.026Zm-0.148,0.192c-0.689,0.196 -1.191,0.395 -1.655,0.705l-0.001,0c-0.433,0.276 -0.666,0.664 -0.666,1.215c-0,0.357 0.099,0.603 0.261,0.76c0.161,0.157 0.396,0.236 0.69,0.237c0.583,-0.079 1.014,-0.386 1.332,-0.777l0.039,-2.14Z"/><path d="M54.585,28.963l-0,0.494l-3.168,0l-0,-0.494l0.329,0c0.206,0 0.411,-0.082 0.534,-0.247c0.042,-0.082 0.083,-0.205 0.083,-0.37l-0,-3.332c-0,-0.905 -0.453,-1.44 -1.111,-1.44c-0.411,-0 -0.823,0.123 -1.111,0.37c-0.246,0.206 -0.411,0.453 -0.534,0.576l-0,3.703c-0,0.329 0.082,0.493 0.37,0.617c0.205,0.082 0.329,0.123 0.576,0.123l-0,0.494l-3.127,0l-0,-0.494c0.206,0 0.411,0 0.576,-0.082c0.246,-0.082 0.37,-0.288 0.37,-0.576l0,-3.332c0,-0.905 -0.452,-1.44 -1.111,-1.44c-0.411,-0 -0.823,0.164 -1.111,0.37c-0.246,0.206 -0.452,0.494 -0.534,0.617l-0,3.703c-0,0.288 0.123,0.493 0.37,0.617c0.206,0.082 0.37,0.123 0.617,0.123l0,0.494l-3.168,0l0,-0.494l0.329,0c0.206,0 0.453,-0.082 0.576,-0.247c0.041,-0.082 0.083,-0.205 0.083,-0.37l-0,-4.073c-0,-0.288 -0.124,-0.493 -0.371,-0.658c-0.164,-0.123 -0.411,-0.165 -0.699,-0.206l-0,-0.493l2.263,-0l-0,0.946l0.041,-0c0.205,-0.206 0.576,-0.576 0.864,-0.741c0.329,-0.205 0.781,-0.37 1.316,-0.37c0.864,0 1.481,0.535 1.728,1.152c0.33,-0.329 0.494,-0.535 0.905,-0.782c0.329,-0.247 0.782,-0.37 1.358,-0.37c1.111,0 1.81,0.699 1.81,2.222l-0,3.25c-0,0.329 0.083,0.493 0.371,0.617c0.164,0.082 0.37,0.082 0.576,0.123Z" style="fill-rule:nonzero;"/><path d="M54.585,28.963l-0,0.494l-3.168,0l-0,-0.494l0.329,0c0.206,0 0.411,-0.082 0.534,-0.247c0.042,-0.082 0.083,-0.205 0.083,-0.37l-0,-3.332c-0,-0.905 -0.453,-1.44 -1.111,-1.44c-0.411,-0 -0.823,0.123 -1.111,0.37c-0.246,0.206 -0.411,0.453 -0.534,0.576l-0,3.703c-0,0.329 0.082,0.493 0.37,0.617c0.205,0.082 0.329,0.123 0.576,0.123l-0,0.494l-3.127,0l-0,-0.494c0.206,0 0.411,0 0.576,-0.082c0.246,-0.082 0.37,-0.288 0.37,-0.576l0,-3.332c0,-0.905 -0.452,-1.44 -1.111,-1.44c-0.411,-0 -0.823,0.164 -1.111,0.37c-0.246,0.206 -0.452,0.494 -0.534,0.617l-0,3.703c-0,0.288 0.123,0.493 0.37,0.617c0.206,0.082 0.37,0.123 0.617,0.123l0,0.494l-3.168,0l0,-0.494l0.329,0c0.206,0 0.453,-0.082 0.576,-0.247c0.041,-0.082 0.083,-0.205 0.083,-0.37l-0,-4.073c-0,-0.288 -0.124,-0.493 -0.371,-0.658c-0.164,-0.123 -0.411,-0.165 -0.699,-0.206l-0,-0.493l2.263,-0l-0,0.946l0.041,-0c0.205,-0.206 0.576,-0.576 0.864,-0.741c0.329,-0.205 0.781,-0.37 1.316,-0.37c0.864,0 1.481,0.535 1.728,1.152c0.33,-0.329 0.494,-0.535 0.905,-0.782c0.329,-0.247 0.782,-0.37 1.358,-0.37c1.111,0 1.81,0.699 1.81,2.222l-0,3.25c-0,0.329 0.083,0.493 0.371,0.617c0.164,0.082 0.37,0.082 0.576,0.123Z" style="fill-rule:nonzero;"/><path d="M47.837,22.823c-0.519,0 -0.959,0.16 -1.278,0.36l-0.002,0.001c-0.278,0.159 -0.641,0.521 -0.849,0.729l-0.021,0.021l-0.144,0l0,-0.946l-2.118,0l0,0.359c0.121,0.017 0.237,0.037 0.342,0.064c0.122,0.032 0.235,0.076 0.327,0.145c0.13,0.086 0.231,0.186 0.299,0.306c0.069,0.12 0.102,0.256 0.102,0.411l0,4.073c0,0.177 -0.044,0.312 -0.09,0.403l-0.003,0.006l-0.004,0.005c-0.142,0.189 -0.415,0.276 -0.634,0.276l-0.256,-0l-0,0.349l3.023,-0l-0,-0.35c-0.22,-0.008 -0.38,-0.051 -0.572,-0.128l-0.006,-0.002c-0.133,-0.067 -0.237,-0.158 -0.307,-0.275c-0.07,-0.116 -0.103,-0.253 -0.103,-0.407l0,-3.725l0.012,-0.018c0.084,-0.125 0.294,-0.42 0.549,-0.633l0.004,-0.003c0.298,-0.213 0.724,-0.384 1.153,-0.384c0.351,0 0.65,0.144 0.859,0.408c0.209,0.263 0.325,0.641 0.325,1.105l-0,3.332c-0,0.154 -0.034,0.292 -0.104,0.404c-0.071,0.111 -0.176,0.193 -0.312,0.239c-0.16,0.079 -0.351,0.087 -0.531,0.088l0,0.349l2.982,-0l-0,-0.351c-0.214,-0.007 -0.341,-0.051 -0.53,-0.127l-0.002,-0c-0.152,-0.066 -0.26,-0.146 -0.327,-0.262c-0.066,-0.114 -0.087,-0.253 -0.087,-0.422l-0,-3.733l0.021,-0.021c0.04,-0.04 0.084,-0.093 0.137,-0.157c0.024,-0.029 0.051,-0.062 0.08,-0.096c0.089,-0.104 0.194,-0.221 0.323,-0.327c0.304,-0.261 0.733,-0.388 1.157,-0.388c0.351,0 0.65,0.144 0.859,0.408c0.208,0.264 0.324,0.641 0.324,1.105l0,3.332c0,0.177 -0.044,0.312 -0.09,0.403l-0.003,0.006l-0.004,0.005c-0.139,0.186 -0.369,0.276 -0.592,0.276l-0.257,-0l0,0.349l3.023,-0l-0,-0.361c-0.043,-0.008 -0.086,-0.013 -0.129,-0.019c-0.037,-0.005 -0.075,-0.01 -0.114,-0.016c-0.098,-0.016 -0.199,-0.038 -0.291,-0.083c-0.151,-0.065 -0.259,-0.146 -0.325,-0.261c-0.066,-0.114 -0.087,-0.253 -0.087,-0.422l-0,-3.25c-0,-0.752 -0.173,-1.288 -0.471,-1.635c-0.297,-0.345 -0.728,-0.515 -1.267,-0.515c-0.566,0 -1.002,0.122 -1.314,0.356l-0.003,0.002l-0.004,0.002c-0.33,0.199 -0.495,0.367 -0.728,0.606c-0.05,0.052 -0.104,0.106 -0.162,0.165l-0.078,0.078l-0.041,-0.102c-0.237,-0.593 -0.829,-1.107 -1.661,-1.107Zm-1.353,0.236c0.339,-0.212 0.804,-0.38 1.353,-0.38c0.85,-0 1.471,0.499 1.752,1.097c0.029,-0.029 0.057,-0.058 0.084,-0.085c0.233,-0.24 0.411,-0.422 0.757,-0.63c0.345,-0.258 0.814,-0.382 1.398,-0.382c0.571,-0 1.046,0.18 1.377,0.565c0.328,0.383 0.506,0.958 0.506,1.729l-0,3.25c-0,0.16 0.02,0.268 0.067,0.349c0.046,0.08 0.123,0.143 0.259,0.201l0.004,0.002c0.072,0.036 0.155,0.055 0.251,0.07c0.033,0.006 0.067,0.01 0.103,0.015c0.066,0.009 0.136,0.019 0.204,0.032l0.058,0.012l-0,0.625l-3.313,0l0,-0.638l0.402,-0c0.186,-0 0.365,-0.074 0.473,-0.213c0.035,-0.073 0.071,-0.184 0.071,-0.332l0,-3.332c0,-0.441 -0.11,-0.784 -0.293,-1.015c-0.181,-0.229 -0.437,-0.353 -0.745,-0.353c-0.399,0 -0.792,0.12 -1.064,0.353l-0,0.001c-0.119,0.099 -0.219,0.208 -0.305,0.31c-0.026,0.03 -0.05,0.059 -0.074,0.088c-0.047,0.057 -0.091,0.109 -0.13,0.151l-0,3.674c-0,0.16 0.02,0.268 0.067,0.349c0.046,0.079 0.123,0.143 0.258,0.201c0.201,0.08 0.315,0.118 0.549,0.118l0.072,-0l-0,0.638l-3.272,0l0,-0.638l0.073,-0c0.21,-0 0.397,-0.002 0.544,-0.075l0.004,-0.002l0.005,-0.002c0.109,-0.036 0.187,-0.098 0.239,-0.181c0.053,-0.083 0.082,-0.192 0.082,-0.326l-0,-3.332c-0,-0.442 -0.111,-0.784 -0.293,-1.015c-0.181,-0.229 -0.438,-0.353 -0.746,-0.353c-0.392,0 -0.788,0.157 -1.066,0.355c-0.227,0.19 -0.419,0.453 -0.507,0.582l0,3.681c0,0.133 0.029,0.243 0.082,0.333c0.054,0.088 0.134,0.161 0.246,0.218c0.197,0.078 0.352,0.117 0.587,0.117l0.073,-0l-0,0.638l-3.313,0l-0,-0.638l0.401,-0c0.191,-0 0.408,-0.076 0.514,-0.213c0.036,-0.073 0.072,-0.184 0.072,-0.332l0,-4.073c0,-0.133 -0.028,-0.244 -0.083,-0.339c-0.055,-0.096 -0.138,-0.181 -0.255,-0.259l-0.003,-0.002c-0.072,-0.054 -0.165,-0.092 -0.278,-0.122c-0.114,-0.029 -0.244,-0.049 -0.388,-0.07l-0.063,-0.009l0,-0.629l2.408,0l0,0.885c0.212,-0.21 0.534,-0.519 0.796,-0.669Z"/><path d="M35.865,15.058c-0.164,0.164 -0.37,0.329 -0.576,0.493c-0.247,0.165 -0.535,0.247 -0.864,0.247c-0.329,0 -0.617,-0.082 -0.864,-0.206c-0.247,-0.164 -0.452,-0.37 -0.576,-0.617c-0.164,-0.246 -0.288,-0.576 -0.37,-0.864c-0.082,-0.329 -0.123,-0.658 -0.123,-1.028c-0,-0.494 0.041,-0.905 0.164,-1.317c0.082,-0.37 0.247,-0.699 0.412,-0.987c0.164,-0.247 0.37,-0.453 0.617,-0.576c0.205,-0.123 0.452,-0.206 0.74,-0.206c0.247,0 0.412,0.041 0.617,0.124c0.165,0.082 0.329,0.164 0.453,0.288c0.123,0.123 0.206,0.247 0.288,0.37c0.082,0.123 0.123,0.247 0.164,0.37l0,3.909l-0.082,-0Zm2.469,0.822c-0.124,0 -0.247,-0.041 -0.33,-0.041c-0.082,-0.041 -0.205,-0.041 -0.288,-0.082c-0.123,-0.041 -0.205,-0.123 -0.246,-0.206c-0.041,-0.082 -0.083,-0.205 -0.083,-0.37l0,-9.545l-3.126,0l-0,0.617l0.082,0c0.247,0 0.494,0.042 0.699,0.083c0.206,0.041 0.371,0.082 0.494,0.164c0.082,0.083 0.165,0.165 0.247,0.329c0.041,0.165 0.082,0.33 0.082,0.494l0,2.263c-0.206,-0.124 -0.411,-0.206 -0.699,-0.247c-0.329,-0.082 -0.658,-0.123 -0.988,-0.123c-0.452,-0 -0.864,0.082 -1.316,0.288c-0.412,0.205 -0.782,0.452 -1.07,0.781c-0.329,0.329 -0.576,0.741 -0.74,1.193c-0.165,0.453 -0.247,0.947 -0.247,1.44c-0,0.535 0.082,1.07 0.247,1.523c0.164,0.452 0.37,0.863 0.658,1.193c0.288,0.329 0.617,0.576 0.987,0.781c0.371,0.165 0.782,0.288 1.193,0.288c0.371,0 0.782,-0.082 1.152,-0.288c0.288,-0.164 0.576,-0.329 0.823,-0.576l0,0.659l2.551,-0l-0,-0.659c-0,0.041 -0,0.041 -0.082,0.041Z" style="fill-rule:nonzero;"/><path d="M43.435,5.719c-0.082,0.041 -0.164,0.123 -0.247,0.205l-1.522,1.852l0.453,0.329l1.686,-1.522l1.728,1.481l0.453,-0.329l-1.563,-1.893c-0.083,-0.082 -0.124,-0.165 -0.206,-0.206c-0.082,-0.041 -0.206,-0.082 -0.37,-0.082c-0.206,0.082 -0.33,0.123 -0.412,0.165Z" style="fill-rule:nonzero;"/><path d="M11.757,6.295l0.082,-0c0.123,-0 0.288,0.041 0.535,0.082c0.247,0.041 0.329,0.082 0.411,0.123c0.124,0.083 0.165,0.165 0.247,0.288c0.082,0.124 0.082,0.288 0.082,0.453l0,7.981c0,0.165 -0.041,0.288 -0.082,0.37c-0.041,0.083 -0.123,0.165 -0.247,0.165c-0.082,0 -0.164,0.041 -0.288,0.041l-0.411,0.041l-0,0.659l3.538,-0l-0,-0.659l-0.082,0c-0.124,0 -0.247,-0.041 -0.33,-0.041c-0.082,-0.041 -0.205,-0.041 -0.288,-0.082c-0.123,-0.041 -0.205,-0.124 -0.246,-0.206c-0.042,-0.082 -0.083,-0.206 -0.083,-0.37l0,-9.504l-2.88,0l0.042,0.659Z" style="fill-rule:nonzero;"/><path d="M26.938,9.339c-0.247,0.082 -0.453,0.165 -0.618,0.288c-0.164,0.082 -0.329,0.247 -0.493,0.411l-0.288,0.288l-0,-0.905l-5.184,0l0,0.659l0.082,-0c0.206,0.041 0.371,0.082 0.576,0.164c0.124,0.041 0.247,0.165 0.247,0.247c0,0.082 -0.041,0.206 -0.082,0.37l-0.124,0.371c-0.288,0.74 -0.534,1.357 -0.74,1.892c-0,0 -0.041,0.082 -0.412,0.946l-0.164,0.371c-0.165,-0.453 -0.412,-1.07 -0.741,-1.852c-0.37,-0.864 -0.617,-1.522 -0.822,-1.975l-0.083,-0.082c-0.041,-0.041 -0.041,-0.123 -0.082,-0.206c-0,0 0.041,-0.041 0.247,-0.123c0.206,-0.082 0.329,-0.082 0.452,-0.082l0.083,-0l-0,-0.659l-3.333,0l0,0.618l0.082,-0c0.206,0.041 0.371,0.082 0.576,0.205c0.206,0.124 0.33,0.288 0.412,0.494c-0,-0 -0,0.041 1.111,2.715c0.37,0.864 0.74,1.852 1.193,2.921c-0.165,0.371 -0.37,0.864 -0.7,1.358c-0.288,0.452 -0.534,0.782 -0.74,0.905c-0,0 -0.082,-0.123 -0.124,-0.206c-0.082,-0.123 -0.164,-0.247 -0.246,-0.288c-0.083,-0.082 -0.206,-0.164 -0.33,-0.247c-0.123,-0.082 -0.246,-0.082 -0.411,-0.082c-0.206,0 -0.411,0.082 -0.535,0.247c-0.123,0.165 -0.206,0.37 -0.206,0.617c0,0.247 0.124,0.494 0.33,0.658c0.205,0.206 0.534,0.288 0.905,0.288c0.205,0 0.411,-0.041 0.576,-0.123c0.164,-0.082 0.411,-0.206 0.617,-0.411c0.206,-0.206 0.452,-0.494 0.699,-0.906c0.247,-0.37 0.494,-0.905 0.782,-1.522c0.206,-0.493 0.576,-1.275 0.987,-2.345c0.412,-1.069 0.947,-2.221 1.481,-3.497c0.124,-0.247 0.247,-0.411 0.494,-0.535c0.206,-0.123 0.329,-0.164 0.453,-0.164c0.082,-0 0.288,-0 0.411,0.041c0.165,0.082 0.206,0.082 0.288,0.165c0.123,0.082 0.206,0.205 0.247,0.329c0.041,0.082 0.082,0.247 0.082,0.411l0,4.238c0,0.164 -0.041,0.288 -0.082,0.37c-0.041,0.082 -0.124,0.164 -0.247,0.164c-0.082,0.042 -0.165,0.042 -0.288,0.042l-0.411,0.041l-0,0.617l3.579,-0l-0,-0.658l-0.082,-0c-0.124,-0 -0.247,-0.042 -0.33,-0.042c-0.123,-0.041 -0.205,-0.041 -0.288,-0.082c-0.123,-0.041 -0.205,-0.123 -0.246,-0.206c-0.042,-0.082 -0.083,-0.205 -0.083,-0.329l0,-3.949c0.041,-0.082 0.124,-0.165 0.165,-0.247c0.082,-0.123 0.206,-0.206 0.329,-0.329c0.165,-0.124 0.329,-0.206 0.535,-0.288c0.206,-0.082 0.411,-0.124 0.658,-0.124c0.288,0 0.576,0.124 0.782,0.371c0.205,0.247 0.329,0.617 0.329,1.069l-0,3.538c-0,0.165 -0.041,0.288 -0.082,0.371c-0.042,0.082 -0.124,0.164 -0.247,0.164c-0.082,0.041 -0.165,0.041 -0.288,0.041l-0.453,0.042l0,0.617l3.538,-0l0,-0.659l-0.082,0c-0.123,0 -0.247,-0.041 -0.329,-0.041c-0.082,0 -0.165,-0.041 -0.288,-0.082c-0.123,-0.041 -0.206,-0.123 -0.247,-0.206c-0.041,-0.082 -0.082,-0.205 -0.082,-0.37l-0,-3.579c-0,-0.7 -0.165,-1.276 -0.494,-1.687c-0.329,-0.453 -0.864,-0.658 -1.563,-0.658c-0.124,-0 -0.412,0.041 -0.658,0.082Z" style="fill-rule:nonzero;"/><path d="M52.486,9.586c-0.288,0.164 -0.617,0.411 -0.864,0.74l0,-0.864l-5.307,0l0,0.618l0.082,-0c0.041,-0 0.124,-0 0.206,0.041c0.082,-0 0.206,0.041 0.288,0.082c0.082,0.041 0.165,0.082 0.247,0.165c0.041,0.041 0.082,0.082 0.082,0.164c0,0.082 0,0.165 -0.041,0.288l-0.082,0.329c-0.165,0.494 -0.329,1.07 -0.535,1.646l-0.535,1.563c0,0 -1.563,-4.361 -1.728,-4.854l-0.823,-0l-1.686,4.895c-0,0 -0.042,-0.164 -0.659,-2.098l-0.493,-1.645l-0.042,-0.206l-0.041,-0.082c0,-0 0,-0.083 0.206,-0.165c0.165,-0.041 0.329,-0.082 0.453,-0.082l0.082,-0l-0,-0.617l-3.25,-0l-0,0.658l0.082,-0c0.165,0.041 0.37,0.082 0.576,0.206c0.206,0.123 0.329,0.288 0.37,0.452c0.247,0.741 0.535,1.646 0.864,2.674c0.329,0.988 0.658,2.016 1.029,3.045l-0,0.041l0.74,-0l1.769,-4.855c0,0 1.605,4.361 1.769,4.855l0.782,-0l0.041,-0.082c0.082,-0.247 0.124,-0.494 0.206,-0.741c0.082,-0.288 0.164,-0.535 0.247,-0.782l0.699,-2.057l0.658,-1.933c0.083,-0.288 0.247,-0.453 0.453,-0.617c0.205,-0.124 0.493,-0.206 0.576,-0.206c0.082,-0 0.288,-0.041 0.535,0.041c0.123,0.041 0.205,0.082 0.288,0.123c0.123,0.083 0.205,0.206 0.247,0.33c0.041,0.123 0.082,0.246 0.082,0.37l-0,4.237c-0,0.165 -0.041,0.288 -0.082,0.371c-0.042,0.082 -0.124,0.164 -0.247,0.164c-0.083,0.041 -0.165,0.041 -0.288,0.041l-0.412,0.041l0,0.659l3.826,-0l0,-0.659l-0.082,0c-0.123,0 -0.288,-0.041 -0.494,-0.041c-0.164,-0.041 -0.328,-0.041 -0.411,-0.082c-0.123,-0.041 -0.206,-0.123 -0.247,-0.206c-0.041,-0.082 -0.082,-0.205 -0.082,-0.329l0,-3.991c0.206,-0.287 0.412,-0.534 0.7,-0.699c0.205,-0.123 0.411,-0.206 0.616,-0.247c0,0 0,0.041 -0.041,0.124c0,0.082 -0.041,0.205 -0.041,0.288c0,0.205 0.082,0.37 0.247,0.534c0.165,0.165 0.37,0.247 0.658,0.247c0.288,0 0.494,-0.123 0.618,-0.329c0.123,-0.205 0.205,-0.411 0.205,-0.699c0,-0.329 -0.082,-0.617 -0.288,-0.823c-0.205,-0.206 -0.452,-0.329 -0.782,-0.329c-0.205,-0.041 -0.576,0.082 -0.946,0.288Z" style="fill-rule:nonzero;"/><path d="M9.082,17.115c-0.576,0.452 -1.44,0.617 -2.509,0.617c-0.617,-0 -1.152,-0.041 -1.564,-0.165c-0.411,-0.123 -0.781,-0.288 -1.028,-0.493c-0.288,-0.206 -0.453,-0.412 -0.576,-0.659c-0.124,-0.247 -0.165,-0.493 -0.165,-0.74c0,-0.576 0.165,-1.07 0.494,-1.44c0.329,-0.37 0.864,-0.741 1.646,-0.905c1.275,-0.288 2.838,-0.165 3.373,0.041c0.576,0.206 0.782,0.494 0.946,0.782c0.165,0.288 0.288,0.617 0.288,1.028c0,0.864 -0.329,1.481 -0.905,1.934Zm-4.937,-11.273c0,-0.37 0.041,-0.74 0.083,-1.07c0.082,-0.329 0.164,-0.658 0.329,-0.905c0.164,-0.288 0.329,-0.493 0.576,-0.617c0.247,-0.164 0.535,-0.206 0.864,-0.206c0.617,0 1.11,0.247 1.44,0.782c0.329,0.535 0.534,1.193 0.534,2.098c0,0.782 -0.164,1.44 -0.493,1.975c-0.329,0.535 -0.823,0.782 -1.44,0.782c-0.576,-0 -1.029,-0.247 -1.358,-0.782c-0.37,-0.576 -0.535,-1.234 -0.535,-2.057Zm7.365,7.611c-0.165,-0.37 -0.412,-0.658 -0.7,-0.946c-0.288,-0.247 -0.576,-0.453 -0.905,-0.617c-0.329,-0.165 -0.658,-0.247 -0.987,-0.247c-0.247,-0 -3.045,-0.041 -3.333,-0.082c-0.288,-0 -0.535,-0.083 -0.74,-0.165c-0.247,-0.082 -0.412,-0.206 -0.535,-0.329c-0.165,-0.165 -0.206,-0.37 -0.206,-0.658c0,-0.288 0.082,-0.494 0.288,-0.617c0.165,-0.165 0.37,-0.247 0.535,-0.33l1.234,0c1.029,0 1.893,-0.329 2.674,-0.987c0.782,-0.658 1.152,-1.481 1.152,-2.468c0,-0.371 -0.082,-0.741 -0.205,-1.152c-0.124,-0.371 -0.206,-0.576 -0.576,-1.07c-0,-0 -0.288,-0.411 -0.659,-0.782c0,0 -0.082,-0.082 -0.123,-0.082c0.123,-0.123 0.247,-0.206 0.37,-0.288c0.247,-0.123 0.453,-0.206 0.617,-0.247c0,0 0,0.041 -0.041,0.124c0,0.082 -0.041,0.205 -0.041,0.288c0,0.205 0.082,0.37 0.247,0.493c0.165,0.165 0.37,0.206 0.658,0.206c0.288,-0 0.494,-0.123 0.617,-0.329c0.124,-0.206 0.206,-0.412 0.206,-0.7c0,-0.329 -0.082,-0.617 -0.288,-0.822c-0.206,-0.206 -0.452,-0.329 -0.782,-0.329c-0.288,-0 -0.658,0.082 -1.028,0.288c-0.37,0.205 -0.7,0.493 -0.988,0.863c-0.452,-0.205 -0.658,-0.246 -0.864,-0.288c-0.329,-0.082 -0.699,-0.041 -1.028,-0.041c-1.193,0 -2.139,0.329 -2.88,0.988c-0.74,0.658 -1.111,1.522 -1.111,2.55c0,0.7 0.206,1.317 0.576,1.811c0.371,0.534 0.905,0.946 1.605,1.275l0.205,0.123c-0.534,0.247 -1.11,0.576 -1.398,0.906c-0.288,0.329 -0.412,0.699 -0.412,1.069c0,0.329 0.041,0.576 0.165,0.782c0.123,0.206 0.247,0.411 0.452,0.535c0.165,0.123 0.371,0.247 0.618,0.329c0.246,0.082 0.452,0.206 0.658,0.247c-0,-0 -1.646,0.411 -2.222,0.864c-0.576,0.452 -0.864,1.028 -0.864,1.81c0,0.946 0.412,1.646 1.193,2.139c0.823,0.494 2.016,0.741 3.621,0.741c0.987,-0 1.81,-0.083 2.509,-0.288c0.659,-0.206 1.235,-0.453 1.728,-0.823c0.453,-0.329 0.782,-0.741 1.029,-1.193c0.205,-0.453 0.329,-0.946 0.329,-1.481c-0.124,-0.247 -0.206,-0.7 -0.37,-1.07Z" style="fill-rule:nonzero;"/><path d="M24.058,1.975l-0,0.905l0.617,-0c0.164,-0 0.247,-0.041 0.329,-0.124c0.041,-0.082 0.082,-0.205 0.082,-0.329c0,-0.288 -0.164,-0.452 -0.452,-0.452l-0.576,-0Zm-0.741,2.345l0,-2.839l1.399,0c0.37,0 0.617,0.082 0.823,0.247c0.164,0.165 0.247,0.411 0.247,0.699c-0,0.083 -0,0.165 -0.041,0.247c-0,0.082 -0.042,0.165 -0.124,0.247c-0.041,0.082 -0.123,0.165 -0.206,0.247c-0.041,0.082 -0.164,0.123 -0.329,0.164c-0.164,0.042 -0.329,0.083 -0.493,0.083l-0.576,-0l-0,0.905l-0.7,-0Z" style="fill-rule:nonzero;"/><path d="M27.884,1.975l-0,0.781l0.658,0c0.247,0 0.37,-0.123 0.37,-0.37c0,-0.247 -0.123,-0.37 -0.37,-0.37l-0.658,-0l-0,-0.041Zm-0.741,2.345l0,-2.839l1.44,0c0.329,0 0.576,0.082 0.782,0.247c0.164,0.123 0.247,0.37 0.247,0.658c-0,0.165 -0.041,0.329 -0.165,0.494c-0.123,0.123 -0.247,0.247 -0.411,0.288l0.658,1.152l-0.782,-0l-0.576,-1.029l-0.452,0l-0,1.029l-0.741,-0Z" style="fill-rule:nonzero;"/><rect x="31.052" y="1.481" width="0.699" height="2.839"/><path d="M33.315,4.32l-0,-2.839l2.18,0l0,0.535l-1.44,-0l0,0.617l1.358,0l-0,0.535l-1.358,-0l0,1.152l-0.74,-0Z" style="fill-rule:nonzero;"/><path d="M37.675,4.32l0,-1.317l-1.11,-1.522l0.864,0l0.575,0.987l0.618,-0.987l0.822,0l-1.069,1.522l-0,1.317l-0.7,-0Z" style="fill-rule:nonzero;"/><path d="M40.473,3.826l0.535,-0.37c0.123,0.123 0.247,0.206 0.411,0.288c0.124,0.041 0.288,0.082 0.453,0.082c0.123,0 0.247,-0.041 0.37,-0.082c0.124,-0.041 0.165,-0.124 0.165,-0.247c-0,-0.123 -0.124,-0.206 -0.329,-0.247l-0.576,-0.082c-0.247,-0.041 -0.453,-0.124 -0.618,-0.247c-0.123,-0.123 -0.205,-0.288 -0.205,-0.535c-0,-0.329 0.123,-0.576 0.329,-0.74c0.206,-0.165 0.494,-0.247 0.823,-0.247c0.247,-0 0.452,0.041 0.699,0.123c0.206,0.083 0.412,0.247 0.576,0.412l-0.535,0.37c-0.205,-0.247 -0.452,-0.37 -0.781,-0.37c-0.083,-0 -0.165,0.041 -0.288,0.082c-0.083,0.041 -0.124,0.123 -0.124,0.206c0,0.082 0.041,0.123 0.082,0.164c0.083,0.041 0.165,0.082 0.288,0.082l0.288,0.042c0.165,0.041 0.288,0.041 0.412,0.082c0.123,0.041 0.206,0.082 0.329,0.164c0.082,0.042 0.165,0.124 0.247,0.247c0.041,0.083 0.082,0.206 0.082,0.329c0,0.165 -0.041,0.288 -0.082,0.453c-0.041,0.123 -0.124,0.206 -0.206,0.288c-0.082,0.082 -0.206,0.123 -0.329,0.165c-0.123,0.041 -0.247,0.082 -0.329,0.082c-0.124,-0 -0.206,0.041 -0.329,0.041c-0.576,0.041 -0.988,-0.165 -1.358,-0.535Z" style="fill-rule:nonzero;"/><path d="M47.097,2.098l-0.576,0.247c-0.124,-0.247 -0.371,-0.37 -0.659,-0.37c-0.246,-0 -0.411,0.082 -0.534,0.247c-0.124,0.164 -0.206,0.37 -0.206,0.699c-0,0.288 0.082,0.494 0.206,0.658c0.123,0.165 0.288,0.247 0.534,0.247c0.165,0 0.288,-0.041 0.412,-0.123c0.123,-0.083 0.206,-0.206 0.206,-0.371l-0.618,0l0,-0.617l1.235,0l-0,1.605l-0.535,-0l-0,-0.247c-0.206,0.206 -0.453,0.329 -0.823,0.329c-0.411,0 -0.74,-0.123 -0.946,-0.411c-0.206,-0.288 -0.329,-0.617 -0.329,-1.07c-0,-0.453 0.123,-0.823 0.37,-1.111c0.247,-0.288 0.576,-0.411 1.028,-0.411c0.288,-0 0.535,0.041 0.782,0.164c0.124,0.124 0.329,0.288 0.453,0.535Z" style="fill-rule:nonzero;"/><path d="M50.593,2.88c0,-0.247 -0.04,-0.453 -0.164,-0.658c-0.123,-0.165 -0.288,-0.247 -0.535,-0.247c-0.205,-0 -0.411,0.082 -0.535,0.205c-0.123,0.165 -0.205,0.371 -0.205,0.7c-0,0.123 -0,0.206 0.041,0.329c0.041,0.082 0.082,0.206 0.123,0.288c0.041,0.082 0.124,0.165 0.247,0.206c0.082,0.041 0.206,0.082 0.329,0.082c0.247,-0 0.412,-0.082 0.535,-0.247c0.124,-0.164 0.164,-0.411 0.164,-0.658Zm0.33,-1.07c0.246,0.288 0.411,0.658 0.411,1.07c0,0.411 -0.123,0.782 -0.411,1.07c-0.247,0.288 -0.617,0.452 -1.07,0.452c-0.452,0 -0.782,-0.164 -1.069,-0.452c-0.248,-0.288 -0.412,-0.659 -0.412,-1.07c0,-0.412 0.124,-0.782 0.412,-1.07c0.246,-0.288 0.617,-0.452 1.069,-0.452c0.453,0.041 0.823,0.164 1.07,0.452Z" style="fill-rule:nonzero;"/><path d="M52.733,4.32l0,-2.839l0.741,0l-0,2.222l1.111,-0l-0,0.617l-1.852,-0Z" style="fill-rule:nonzero;"/><path d="M82.56,0.699l0,0.535c-0.246,0 -0.576,0.124 -0.864,0.288c-0.329,0.206 -0.535,0.453 -0.658,0.946c-0.329,1.111 -0.741,2.428 -1.193,3.909c-0.453,1.481 -0.946,3.085 -1.481,4.772l-0.658,0l-2.592,-7.899l-2.715,7.817l-0.618,-0c-0.946,-3.374 -2.139,-7.652 -2.509,-8.887c-0.082,-0.288 -0.247,-0.534 -0.535,-0.699c-0.247,-0.164 -0.617,-0.247 -0.864,-0.247l-0,-0.535l4.196,0l0,0.535c-0.37,0.041 -0.699,0.041 -0.946,0.124c-0.247,0.041 -0.37,0.164 -0.37,0.288c-0,0.082 0.041,0.288 0.041,0.37c0.123,0.411 0.329,1.111 0.576,2.098c0.288,0.987 0.699,2.427 1.234,4.402l2.551,-7.611l0.699,0l2.592,7.776c0.7,-2.386 1.193,-4.155 1.523,-5.431c0.123,-0.452 0.205,-0.74 0.205,-0.905c0.041,-0.165 0.041,-0.288 0.041,-0.411c0,-0.165 -0.123,-0.288 -0.329,-0.412c-0.205,-0.123 -0.576,-0.205 -1.111,-0.205l0,-0.618l3.785,0Z" style="fill-rule:nonzero;"/><path d="M82.56,0.699l0,0.535c-0.246,0 -0.576,0.124 -0.864,0.288c-0.329,0.206 -0.535,0.453 -0.658,0.946c-0.329,1.111 -0.741,2.428 -1.193,3.909c-0.453,1.481 -0.946,3.085 -1.481,4.772l-0.658,0l-2.592,-7.899l-2.715,7.817l-0.618,-0c-0.946,-3.374 -2.139,-7.652 -2.509,-8.887c-0.082,-0.288 -0.247,-0.534 -0.535,-0.699c-0.247,-0.164 -0.617,-0.247 -0.864,-0.247l-0,-0.535l4.196,0l0,0.535c-0.37,0.041 -0.699,0.041 -0.946,0.124c-0.247,0.041 -0.37,0.164 -0.37,0.288c-0,0.082 0.041,0.288 0.041,0.37c0.123,0.411 0.329,1.111 0.576,2.098c0.288,0.987 0.699,2.427 1.234,4.402l2.551,-7.611l0.699,0l2.592,7.776c0.7,-2.386 1.193,-4.155 1.523,-5.431c0.123,-0.452 0.205,-0.74 0.205,-0.905c0.041,-0.165 0.041,-0.288 0.041,-0.411c0,-0.165 -0.123,-0.288 -0.329,-0.412c-0.205,-0.123 -0.576,-0.205 -1.111,-0.205l0,-0.618l3.785,0Z" style="fill-rule:nonzero;"/><path d="M67.801,0.627l4.341,-0l-0,0.672l-0.065,0.007c-0.11,0.013 -0.22,0.021 -0.324,0.03c-0.069,0.005 -0.135,0.011 -0.196,0.017c-0.159,0.015 -0.296,0.035 -0.411,0.073l-0.005,0.002l-0.006,0.001c-0.236,0.039 -0.31,0.148 -0.31,0.217c0,0.034 0.009,0.1 0.02,0.175l0.001,0.005c0.009,0.063 0.019,0.132 0.02,0.179c0.124,0.413 0.329,1.11 0.574,2.09c0.277,0.949 0.667,2.315 1.171,4.171l2.492,-7.433l0.804,-0l2.535,7.605c0.665,-2.274 1.138,-3.972 1.456,-5.206l0,-0.001c0.01,-0.033 0.018,-0.066 0.027,-0.097c0.05,-0.183 0.092,-0.335 0.122,-0.461c0.036,-0.15 0.055,-0.255 0.055,-0.328l-0,-0.009l0.002,-0.009c0.039,-0.155 0.039,-0.271 0.039,-0.393c-0,-0.122 -0.09,-0.227 -0.294,-0.35c-0.189,-0.113 -0.543,-0.195 -1.074,-0.195l-0.072,-0l-0,-0.762l3.93,-0l-0,0.68l-0.073,-0c-0.227,-0 -0.542,0.115 -0.827,0.277c-0.158,0.1 -0.283,0.207 -0.384,0.346c-0.102,0.14 -0.181,0.316 -0.24,0.556l-0.001,0.003c-0.22,0.741 -0.476,1.574 -0.757,2.485c-0.14,0.456 -0.286,0.931 -0.437,1.424c-0.452,1.481 -0.946,3.086 -1.481,4.773l-0.016,0.051l-0.764,-0l-2.541,-7.745l-2.662,7.662l-0.723,0l-0.016,-0.053c-0.172,-0.615 -0.353,-1.261 -0.536,-1.913c-0.818,-2.92 -1.67,-5.963 -1.973,-6.972l-0,-0.001c-0.078,-0.272 -0.232,-0.502 -0.501,-0.656l-0.005,-0.002c-0.231,-0.155 -0.587,-0.235 -0.823,-0.235l-0.072,-0l-0,-0.68Zm0.145,0.145l-0,0.392c0.252,0.014 0.591,0.098 0.829,0.255c0.305,0.176 0.48,0.439 0.566,0.741c0.303,1.01 1.156,4.055 1.974,6.975c0.177,0.633 0.353,1.26 0.521,1.859l0.511,0l2.769,-7.97l2.642,8.053l0.553,-0c0.529,-1.668 1.017,-3.255 1.465,-4.721c0.151,-0.494 0.297,-0.97 0.437,-1.425c0.28,-0.911 0.536,-1.742 0.755,-2.482c0.064,-0.252 0.149,-0.446 0.263,-0.604c0.115,-0.159 0.257,-0.278 0.427,-0.384l0.002,-0.002c0.266,-0.152 0.574,-0.274 0.828,-0.294l-0,-0.393l-3.64,-0l-0,0.473c0.501,0.007 0.863,0.088 1.075,0.215c0.207,0.124 0.365,0.266 0.365,0.474l-0,0.001c-0,0.122 -0,0.25 -0.041,0.419c-0.002,0.091 -0.024,0.208 -0.059,0.353c-0.031,0.128 -0.074,0.283 -0.123,0.465c-0.009,0.032 -0.018,0.064 -0.027,0.097c-0.329,1.276 -0.823,3.046 -1.523,5.432l-0.065,0.222l-2.648,-7.945l-0.595,-0l-2.61,7.788l-0.063,-0.231c-0.535,-1.974 -0.946,-3.414 -1.234,-4.401l-0.001,-0.002c-0.246,-0.986 -0.451,-1.685 -0.575,-2.095l-0.002,-0.01l-0,-0.011c-0,-0.035 -0.01,-0.1 -0.02,-0.175l-0.001,-0.006c-0.01,-0.067 -0.021,-0.143 -0.021,-0.189c0,-0.178 0.17,-0.315 0.426,-0.359c0.13,-0.043 0.279,-0.063 0.437,-0.079c0.067,-0.006 0.135,-0.012 0.204,-0.017c0.08,-0.007 0.163,-0.013 0.25,-0.022l-0,-0.397l-4.051,-0Z"/><path d="M86.222,5.389c-0,0.453 -0.206,0.864 -0.659,0.864c-0.493,0 -0.74,-0.288 -0.74,-0.617c0,-0.082 0,-0.164 0.041,-0.247c0,-0.082 0.041,-0.164 0.041,-0.246c-0.411,-0 -1.028,0.329 -1.399,0.946l0,3.661c0,0.288 0.124,0.494 0.371,0.576c0.206,0.083 0.617,0.124 0.864,0.124l-0,0.494l-3.374,-0l0,-0.494l0.329,-0c0.206,-0 0.412,-0.082 0.535,-0.247c0.041,-0.082 0.083,-0.206 0.083,-0.37l-0,-3.909c-0,-0.247 -0.124,-0.535 -0.371,-0.699c-0.164,-0.124 -0.411,-0.124 -0.658,-0.165l-0,-0.493l2.221,-0l0,0.905l0.042,-0c0.535,-0.7 1.234,-1.07 1.81,-1.07c0.493,0 0.864,0.37 0.864,0.987Z" style="fill-rule:nonzero;"/><path d="M86.222,5.389c-0,0.453 -0.206,0.864 -0.659,0.864c-0.493,0 -0.74,-0.288 -0.74,-0.617c0,-0.082 0,-0.164 0.041,-0.247c0,-0.082 0.041,-0.164 0.041,-0.246c-0.411,-0 -1.028,0.329 -1.399,0.946l0,3.661c0,0.288 0.124,0.494 0.371,0.576c0.206,0.083 0.617,0.124 0.864,0.124l-0,0.494l-3.374,-0l0,-0.494l0.329,-0c0.206,-0 0.412,-0.082 0.535,-0.247c0.041,-0.082 0.083,-0.206 0.083,-0.37l-0,-3.909c-0,-0.247 -0.124,-0.535 -0.371,-0.699c-0.164,-0.124 -0.411,-0.124 -0.658,-0.165l-0,-0.493l2.221,-0l0,0.905l0.042,-0c0.535,-0.7 1.234,-1.07 1.81,-1.07c0.493,0 0.864,0.37 0.864,0.987Z" style="fill-rule:nonzero;"/><path d="M85.358,4.475c-0.547,-0 -1.227,0.354 -1.753,1.041l-0.022,0.028l-0.149,0l0,-0.905l-2.076,0l-0,0.359c0.036,0.005 0.073,0.01 0.109,0.015c0.004,0 0.007,0.001 0.011,0.001c0.06,0.008 0.121,0.016 0.18,0.026c0.116,0.022 0.231,0.055 0.327,0.126c0.268,0.18 0.401,0.491 0.401,0.758l-0,3.909c-0,0.177 -0.044,0.311 -0.09,0.402l-0.003,0.006l-0.004,0.005c-0.14,0.187 -0.369,0.276 -0.593,0.276l-0.256,0l-0,0.349l3.228,0l0,-0.35c-0.114,-0.003 -0.251,-0.013 -0.384,-0.03c-0.16,-0.021 -0.321,-0.052 -0.432,-0.097c-0.137,-0.046 -0.243,-0.127 -0.314,-0.24c-0.071,-0.112 -0.104,-0.25 -0.104,-0.404l0,-3.681l0.011,-0.017c0.191,-0.319 0.446,-0.564 0.707,-0.729c0.26,-0.164 0.53,-0.253 0.753,-0.253l0.073,0l-0,0.073c-0,0.05 -0.012,0.098 -0.022,0.137l-0.001,0.004c-0.011,0.042 -0.018,0.075 -0.018,0.105l-0,0.018l-0.008,0.015c-0.032,0.065 -0.034,0.13 -0.034,0.214c0,0.146 0.055,0.281 0.162,0.379c0.108,0.098 0.274,0.166 0.506,0.166c0.201,-0 0.344,-0.09 0.439,-0.23c0.098,-0.144 0.147,-0.345 0.147,-0.562c0,-0.294 -0.088,-0.522 -0.228,-0.676c-0.139,-0.153 -0.335,-0.238 -0.563,-0.238Zm-1.779,0.841c0.532,-0.64 1.206,-0.986 1.779,-0.986c0.266,-0 0.501,0.1 0.671,0.286c0.168,0.185 0.265,0.45 0.265,0.773c0,0.236 -0.053,0.468 -0.172,0.643c-0.12,0.178 -0.306,0.294 -0.559,0.294c-0.261,-0 -0.464,-0.076 -0.604,-0.204c-0.139,-0.128 -0.209,-0.303 -0.209,-0.486l0,-0.005c0,-0.075 0,-0.166 0.042,-0.259c0.003,-0.044 0.013,-0.086 0.022,-0.12l0,-0.004c0.003,-0.01 0.005,-0.019 0.008,-0.028c-0.175,0.018 -0.383,0.093 -0.593,0.226c-0.238,0.15 -0.472,0.373 -0.65,0.663l0,3.641c0,0.134 0.029,0.243 0.081,0.327c0.053,0.082 0.131,0.144 0.24,0.181l0.004,0.001c0.094,0.038 0.24,0.068 0.399,0.088c0.156,0.02 0.318,0.03 0.438,0.03l0.072,0l0,0.639l-3.518,-0l-0,-0.639l0.401,0c0.186,0 0.366,-0.073 0.473,-0.212c0.036,-0.074 0.072,-0.184 0.072,-0.332l-0,-3.909c-0,-0.225 -0.114,-0.489 -0.338,-0.639l-0.003,-0.002c-0.069,-0.052 -0.159,-0.08 -0.268,-0.1c-0.054,-0.01 -0.112,-0.017 -0.172,-0.025c-0.004,-0.001 -0.008,-0.001 -0.012,-0.001c-0.056,-0.008 -0.116,-0.015 -0.175,-0.025l-0.06,-0.01l-0,-0.628l2.366,0l0,0.822Z"/><path d="M87.58,6.994l2.962,-0c-0,-0.494 -0.082,-1.111 -0.247,-1.481c-0.206,-0.412 -0.535,-0.658 -1.07,-0.658c-0.905,-0 -1.563,0.822 -1.645,2.139Zm3.949,2.18l0.453,0.288c-0.535,1.029 -1.44,1.687 -2.633,1.687c-1.029,0 -1.81,-0.37 -2.304,-1.028c-0.494,-0.617 -0.741,-1.481 -0.741,-2.428c0,-0.822 0.247,-1.645 0.782,-2.304c0.494,-0.617 1.234,-1.028 2.139,-1.028c0.947,-0 1.605,0.329 2.016,0.823c0.412,0.493 0.576,1.152 0.576,1.933l0,0.412l-4.237,-0c-0,0.823 0.164,1.522 0.493,2.057c0.33,0.494 0.864,0.823 1.646,0.823c0.781,-0 1.317,-0.288 1.81,-1.235Z" style="fill-rule:nonzero;"/><path d="M87.58,6.994l2.962,-0c-0,-0.494 -0.082,-1.111 -0.247,-1.481c-0.206,-0.412 -0.535,-0.658 -1.07,-0.658c-0.905,-0 -1.563,0.822 -1.645,2.139Zm3.949,2.18l0.453,0.288c-0.535,1.029 -1.44,1.687 -2.633,1.687c-1.029,0 -1.81,-0.37 -2.304,-1.028c-0.494,-0.617 -0.741,-1.481 -0.741,-2.428c0,-0.822 0.247,-1.645 0.782,-2.304c0.494,-0.617 1.234,-1.028 2.139,-1.028c0.947,-0 1.605,0.329 2.016,0.823c0.412,0.493 0.576,1.152 0.576,1.933l0,0.412l-4.237,-0c-0,0.823 0.164,1.522 0.493,2.057c0.33,0.494 0.864,0.823 1.646,0.823c0.781,-0 1.317,-0.288 1.81,-1.235Z" style="fill-rule:nonzero;"/><path d="M89.225,4.433c-0.881,0 -1.602,0.4 -2.083,1.002l-0,0c-0.523,0.644 -0.765,1.45 -0.765,2.258c-0,0.935 0.244,1.782 0.725,2.382l0.001,0.002c0.477,0.637 1.236,1 2.246,1c1.139,-0 2.009,-0.615 2.537,-1.589l-0.33,-0.21c-0.239,0.441 -0.492,0.739 -0.785,0.929c-0.308,0.2 -0.652,0.274 -1.052,0.274c-0.806,0 -1.363,-0.341 -1.706,-0.855l-0.002,-0.002c-0.338,-0.55 -0.504,-1.263 -0.504,-2.095l0,-0.073l4.237,0l0,-0.339c0,-0.772 -0.162,-1.411 -0.558,-1.887c-0.396,-0.475 -1.032,-0.797 -1.961,-0.797Zm-2.196,0.911c0.507,-0.633 1.268,-1.056 2.196,-1.056c0.965,0 1.645,0.337 2.072,0.849c0.426,0.512 0.592,1.19 0.592,1.98l0,0.484l-4.237,0c0.01,0.782 0.172,1.441 0.482,1.946c0.316,0.472 0.827,0.789 1.585,0.789c0.381,0 0.695,-0.07 0.973,-0.25c0.279,-0.181 0.529,-0.478 0.773,-0.945l0.036,-0.07l0.576,0.366l-0.031,0.059c-0.545,1.048 -1.473,1.726 -2.697,1.726c-1.047,-0 -1.852,-0.378 -2.362,-1.057c-0.506,-0.633 -0.755,-1.514 -0.755,-2.472c-0,-0.837 0.251,-1.676 0.797,-2.349Zm1.008,0.042c0.3,-0.386 0.711,-0.604 1.188,-0.604c0.279,0 0.509,0.065 0.698,0.187c0.188,0.121 0.329,0.297 0.437,0.511l0.001,0.003c0.171,0.384 0.253,1.013 0.253,1.511l0,0.072l-3.111,0l0.004,-0.077c0.042,-0.668 0.23,-1.218 0.53,-1.603Zm-0.38,1.536l2.812,-0c-0.008,-0.475 -0.089,-1.039 -0.24,-1.378c-0.098,-0.196 -0.224,-0.349 -0.385,-0.454c-0.161,-0.104 -0.363,-0.163 -0.619,-0.163c-0.428,0 -0.798,0.194 -1.074,0.548c-0.265,0.342 -0.444,0.834 -0.494,1.447Z"/><path d="M98.646,10.491l0,0.494l-2.92,-0l-0,-0.494c0.205,-0 0.37,-0.041 0.493,-0.041c0.123,-0 0.206,-0.082 0.206,-0.124c-0,-0.082 -0.124,-0.288 -0.206,-0.411c-0.206,-0.329 -0.576,-0.905 -1.152,-1.687c-0.452,0.576 -0.823,1.07 -1.234,1.687c-0.041,0.082 -0.124,0.247 -0.124,0.329c0,0.165 0.412,0.288 0.741,0.329l0,0.453l-2.386,-0l-0,-0.453c0.576,-0.164 0.905,-0.37 1.193,-0.74c0.124,-0.165 0.329,-0.412 0.576,-0.7c0.247,-0.288 0.535,-0.699 0.946,-1.234c-0.452,-0.617 -1.152,-1.728 -1.604,-2.304c-0.247,-0.288 -0.494,-0.494 -0.988,-0.494l0,-0.493l2.798,-0l-0,0.493c-0.123,0 -0.288,0 -0.411,0.042c-0.124,-0 -0.206,0.041 -0.206,0.123c-0,0.082 0.041,0.165 0.123,0.288c0.206,0.288 0.617,0.905 1.111,1.605c0.288,-0.412 0.74,-1.029 1.07,-1.523c0.041,-0.041 0.082,-0.123 0.082,-0.205c-0,-0.165 -0.37,-0.288 -0.658,-0.33l-0,-0.452l2.345,-0l-0,0.452c-0.658,0.165 -0.988,0.412 -1.234,0.659c-0.165,0.164 -0.33,0.411 -0.494,0.658c-0.206,0.247 -0.494,0.617 -0.823,1.07c0.782,1.11 1.193,1.686 1.687,2.468c0.246,0.329 0.534,0.494 1.069,0.535Z" style="fill-rule:nonzero;"/><path d="M105.681,10.491l0,0.494l-3.126,-0l-0,-0.494c0.411,-0 0.781,-0.082 0.905,-0.288c0.041,-0.082 0.082,-0.206 0.082,-0.37l0,-3.25c0,-0.906 -0.493,-1.44 -1.111,-1.44c-0.452,-0 -0.822,0.164 -1.152,0.37c-0.288,0.206 -0.452,0.452 -0.534,0.617l-0,3.62c-0,0.288 0.123,0.494 0.37,0.576c0.206,0.083 0.37,0.124 0.617,0.124l0,0.494l-3.126,-0l-0,-0.494c0.205,-0 0.452,-0.041 0.576,-0.082c0.246,-0.083 0.37,-0.288 0.37,-0.576l-0,-7.406c-0,-0.288 -0.165,-0.617 -0.37,-0.781c-0.165,-0.124 -0.659,-0.165 -0.906,-0.165l0,-0.535l2.469,0l-0,4.567l0.041,-0c0.288,-0.288 0.453,-0.494 0.864,-0.741c0.329,-0.205 0.781,-0.37 1.316,-0.37c1.152,-0 1.769,0.74 1.769,2.098l0,3.291c0,0.288 0.083,0.494 0.371,0.576c0.164,0.083 0.288,0.165 0.575,0.165Z" style="fill-rule:nonzero;"/><path d="M105.681,10.491l0,0.494l-3.126,-0l-0,-0.494c0.411,-0 0.781,-0.082 0.905,-0.288c0.041,-0.082 0.082,-0.206 0.082,-0.37l0,-3.25c0,-0.906 -0.493,-1.44 -1.111,-1.44c-0.452,-0 -0.822,0.164 -1.152,0.37c-0.288,0.206 -0.452,0.452 -0.534,0.617l-0,3.62c-0,0.288 0.123,0.494 0.37,0.576c0.206,0.083 0.37,0.124 0.617,0.124l-0,0.494l-3.127,-0l0,-0.494c0.206,-0 0.453,-0.041 0.576,-0.082c0.247,-0.083 0.371,-0.288 0.371,-0.576l-0,-7.406c-0,-0.288 -0.165,-0.617 -0.371,-0.781c-0.164,-0.124 -0.658,-0.165 -0.905,-0.165l0,-0.535l2.469,0l-0,4.567l0.041,-0c0.288,-0.288 0.453,-0.494 0.864,-0.741c0.329,-0.205 0.781,-0.37 1.316,-0.37c1.152,-0 1.769,0.74 1.769,2.098l0,3.291c0,0.288 0.083,0.494 0.371,0.576c0.164,0.083 0.288,0.165 0.575,0.165Zm-7.035,-0l0,0.494l-2.92,-0l-0,-0.494c0.205,-0 0.37,-0.041 0.493,-0.041c0.123,-0 0.206,-0.082 0.206,-0.124c-0,-0.082 -0.124,-0.288 -0.206,-0.411c-0.206,-0.329 -0.576,-0.905 -1.152,-1.687c-0.452,0.576 -0.823,1.07 -1.234,1.687c-0.041,0.082 -0.124,0.247 -0.124,0.329c0,0.165 0.412,0.288 0.741,0.329l0,0.453l-2.386,-0l-0,-0.453c0.576,-0.164 0.905,-0.37 1.193,-0.74c0.124,-0.165 0.329,-0.412 0.576,-0.7c0.247,-0.288 0.535,-0.699 0.946,-1.234c-0.452,-0.617 -1.152,-1.728 -1.604,-2.304c-0.247,-0.288 -0.494,-0.494 -0.988,-0.494l0,-0.493l2.798,-0l-0,0.493c-0.123,0 -0.288,0 -0.411,0.042c-0.124,-0 -0.206,0.041 -0.206,0.123c-0,0.082 0.041,0.165 0.123,0.288c0.206,0.288 0.617,0.905 1.111,1.605c0.288,-0.412 0.74,-1.029 1.07,-1.523c0.041,-0.041 0.082,-0.123 0.082,-0.205c-0,-0.165 -0.37,-0.288 -0.658,-0.33l-0,-0.452l2.345,-0l-0,0.452c-0.658,0.165 -0.988,0.412 -1.234,0.659c-0.165,0.164 -0.33,0.411 -0.494,0.658c-0.206,0.247 -0.494,0.617 -0.823,1.07c0.782,1.11 1.193,1.686 1.687,2.468c0.246,0.329 0.534,0.494 1.069,0.535Z" style="fill-rule:nonzero;"/><path d="M98.204,0.833l2.613,-0l0,4.504c0.019,-0.019 0.038,-0.039 0.056,-0.057c0.213,-0.219 0.39,-0.401 0.739,-0.611c0.339,-0.212 0.805,-0.381 1.354,-0.381c0.592,0 1.057,0.192 1.372,0.566c0.313,0.373 0.47,0.917 0.47,1.605l-0,3.291c-0,0.139 0.02,0.248 0.067,0.329c0.046,0.079 0.121,0.141 0.251,0.178l0.006,0.002l0.006,0.003c0.019,0.009 0.037,0.019 0.055,0.028c0.138,0.071 0.251,0.128 0.488,0.128l0.073,0l0,0.639l-3.271,0l-0,-0.639l0.072,0c0.201,0 0.389,-0.02 0.54,-0.063c0.151,-0.044 0.253,-0.108 0.301,-0.187c0.037,-0.073 0.074,-0.185 0.074,-0.335l-0,-3.25c-0,-0.44 -0.12,-0.783 -0.308,-1.014c-0.187,-0.231 -0.445,-0.354 -0.731,-0.354c-0.433,0 -0.789,0.157 -1.111,0.358c-0.267,0.191 -0.423,0.418 -0.503,0.574l0,3.603c0,0.134 0.029,0.243 0.081,0.327c0.053,0.082 0.131,0.144 0.24,0.181l0.004,0.001c0.199,0.08 0.354,0.118 0.59,0.118l0.072,0l0,0.639l-3.085,-0l-0,0.041l-3.066,0l-0,-0.639l0.073,0c0.097,0 0.186,-0.009 0.268,-0.02c0.01,-0.001 0.02,-0.002 0.03,-0.003c0.069,-0.009 0.136,-0.018 0.195,-0.018c0.045,0 0.082,-0.015 0.107,-0.032c0.013,-0.009 0.021,-0.018 0.025,-0.024c0,-0 0,-0.001 0.001,-0.001c-0.002,-0.009 -0.006,-0.025 -0.015,-0.049c-0.012,-0.029 -0.028,-0.064 -0.048,-0.101c-0.04,-0.074 -0.09,-0.154 -0.13,-0.215l-0.002,-0.002c-0.198,-0.317 -0.549,-0.864 -1.091,-1.605c-0.425,0.542 -0.779,1.017 -1.17,1.603c-0.021,0.042 -0.049,0.099 -0.073,0.156c-0.012,0.03 -0.023,0.058 -0.03,0.083c-0.008,0.026 -0.011,0.044 -0.011,0.054c0,0.009 0.006,0.029 0.042,0.059c0.036,0.029 0.09,0.058 0.159,0.085c0.136,0.053 0.316,0.093 0.476,0.113l0.063,0.008l0,0.589l-2.53,0l-0,-0.579l0.052,-0.015c0.565,-0.162 0.879,-0.36 1.155,-0.715c0.125,-0.167 0.333,-0.415 0.579,-0.703c0.152,-0.177 0.318,-0.4 0.522,-0.672c0.116,-0.156 0.244,-0.327 0.389,-0.516c-0.19,-0.262 -0.419,-0.601 -0.652,-0.948c-0.04,-0.059 -0.08,-0.118 -0.12,-0.178c-0.288,-0.427 -0.574,-0.845 -0.798,-1.131c-0.121,-0.141 -0.238,-0.257 -0.381,-0.338c-0.142,-0.08 -0.315,-0.129 -0.551,-0.129l-0.072,-0l-0,-0.639l2.942,0l0,0.639l-0.072,-0c-0.127,-0 -0.279,0.001 -0.388,0.037l-0.012,0.004l-0.011,0c-0.056,0 -0.093,0.01 -0.114,0.021c-0.017,0.01 -0.02,0.018 -0.02,0.03c0,0.058 0.029,0.123 0.111,0.247c0.088,0.123 0.215,0.309 0.371,0.536c0.191,0.279 0.424,0.62 0.68,0.984c0.083,-0.118 0.176,-0.249 0.274,-0.386c0.244,-0.341 0.517,-0.723 0.735,-1.051l0.005,-0.006l0.004,-0.005c0.029,-0.028 0.062,-0.093 0.062,-0.154c-0,-0.013 -0.007,-0.033 -0.039,-0.062c-0.031,-0.028 -0.079,-0.056 -0.14,-0.083c-0.12,-0.053 -0.278,-0.093 -0.418,-0.113l-0.062,-0.009l-0,-0.588l2.49,0l0,0.582l-0.055,0.014c-0.644,0.161 -0.962,0.401 -1.2,0.639c-0.159,0.158 -0.319,0.398 -0.485,0.647l-0.002,0.003l-0.002,0.003c-0.199,0.238 -0.474,0.592 -0.79,1.024c0.062,0.088 0.121,0.172 0.178,0.253c0.65,0.923 1.031,1.464 1.48,2.174c0.118,0.157 0.243,0.271 0.4,0.352c0.133,0.069 0.293,0.115 0.496,0.14l-0,-0.03l0.072,0c0.199,0 0.438,-0.04 0.553,-0.078c0.109,-0.036 0.187,-0.098 0.24,-0.181c0.052,-0.083 0.081,-0.193 0.081,-0.326l-0,-7.406c-0,-0.265 -0.154,-0.573 -0.342,-0.724c-0.031,-0.023 -0.082,-0.045 -0.152,-0.066c-0.069,-0.02 -0.15,-0.036 -0.236,-0.048c-0.171,-0.026 -0.352,-0.036 -0.473,-0.036l-0.072,0l-0,-0.679Zm0.329,9.72c-0.223,-0.026 -0.406,-0.076 -0.563,-0.157c-0.181,-0.094 -0.323,-0.225 -0.451,-0.396l-0.003,-0.005c-0.448,-0.708 -0.827,-1.246 -1.478,-2.171c-0.066,-0.094 -0.135,-0.192 -0.207,-0.295l-0.03,-0.042l0.03,-0.042c0.329,-0.452 0.617,-0.822 0.824,-1.07l0,-0.002c0.163,-0.243 0.331,-0.495 0.5,-0.664c0.249,-0.249 0.578,-0.496 1.213,-0.664l0,-0.324l-2.2,0l-0,0.319c0.133,0.023 0.276,0.062 0.394,0.113c0.068,0.03 0.131,0.066 0.178,0.109c0.047,0.042 0.087,0.098 0.087,0.169c-0,0.099 -0.047,0.196 -0.099,0.251c-0.219,0.329 -0.493,0.712 -0.736,1.052c-0.122,0.171 -0.236,0.33 -0.331,0.466l-0.059,0.085l-0.059,-0.085c-0.283,-0.4 -0.536,-0.77 -0.74,-1.068c-0.155,-0.226 -0.281,-0.411 -0.371,-0.536l-0.001,-0.002c-0.082,-0.123 -0.136,-0.221 -0.136,-0.328c0,-0.071 0.038,-0.124 0.093,-0.155c0.049,-0.028 0.11,-0.04 0.174,-0.041c0.109,-0.034 0.242,-0.04 0.35,-0.041l0,-0.349l-2.652,0l-0,0.35c0.222,0.01 0.399,0.062 0.549,0.147c0.166,0.094 0.295,0.225 0.421,0.371l0.002,0.002c0.228,0.291 0.517,0.715 0.805,1.141c0.04,0.06 0.081,0.119 0.12,0.179c0.247,0.366 0.487,0.722 0.68,0.986l0.033,0.044l-0.034,0.043c-0.153,0.201 -0.291,0.385 -0.416,0.552c-0.206,0.275 -0.378,0.505 -0.532,0.685c-0.247,0.289 -0.451,0.534 -0.573,0.696l-0.001,0.001c-0.29,0.374 -0.622,0.585 -1.177,0.751l-0,0.325l2.24,0l0,-0.317c-0.151,-0.023 -0.315,-0.062 -0.447,-0.114c-0.075,-0.029 -0.145,-0.064 -0.196,-0.106c-0.051,-0.041 -0.097,-0.099 -0.097,-0.172c0,-0.031 0.007,-0.064 0.017,-0.095c0.009,-0.032 0.022,-0.065 0.035,-0.097c0.027,-0.064 0.058,-0.128 0.079,-0.169l0.002,-0.004l0.003,-0.004c0.412,-0.619 0.784,-1.115 1.237,-1.692l0.059,-0.074l0.056,0.076c0.577,0.783 0.948,1.36 1.155,1.691c0.042,0.063 0.094,0.146 0.137,0.226c0.021,0.04 0.04,0.08 0.055,0.116c0.013,0.035 0.025,0.073 0.025,0.108c0,0.032 -0.015,0.06 -0.028,0.079c-0.015,0.021 -0.035,0.041 -0.059,0.057c-0.047,0.034 -0.113,0.06 -0.191,0.06c-0.049,0 -0.105,0.007 -0.176,0.016c-0.01,0.002 -0.02,0.003 -0.031,0.004c-0.064,0.008 -0.135,0.016 -0.214,0.02l-0,0.35l2.735,0l-0,-0.359Zm0.186,0.318l-0,-0.352c0.184,-0.011 0.376,-0.046 0.485,-0.083c0.138,-0.046 0.245,-0.128 0.316,-0.241c0.071,-0.112 0.104,-0.249 0.104,-0.403l-0,-7.406c-0,-0.31 -0.174,-0.66 -0.397,-0.838l-0.002,-0.001c-0.052,-0.039 -0.124,-0.068 -0.2,-0.09c-0.077,-0.022 -0.166,-0.04 -0.255,-0.053c-0.147,-0.021 -0.301,-0.032 -0.421,-0.036l-0,-0.39l2.323,-0l0,4.566l0.144,0l0.021,-0.021c0.051,-0.051 0.097,-0.099 0.142,-0.145c0.212,-0.216 0.376,-0.386 0.708,-0.585l0.001,-0c0.319,-0.2 0.758,-0.36 1.278,-0.36c0.56,0 0.98,0.18 1.261,0.515c0.284,0.337 0.436,0.842 0.436,1.511l-0,3.291c-0,0.15 0.021,0.288 0.087,0.402c0.066,0.115 0.174,0.196 0.329,0.242c0.016,0.008 0.032,0.016 0.047,0.024c0.13,0.067 0.256,0.132 0.483,0.144l0,0.35l-2.981,0l-0,-0.349c0.183,-0.005 0.359,-0.026 0.507,-0.069c0.167,-0.049 0.311,-0.128 0.387,-0.254l0.003,-0.005c0.045,-0.091 0.089,-0.225 0.089,-0.402l0,-3.25c0,-0.466 -0.126,-0.843 -0.339,-1.106c-0.215,-0.263 -0.513,-0.407 -0.844,-0.407c-0.471,0 -0.855,0.172 -1.19,0.381l-0.004,0.003c-0.299,0.214 -0.471,0.471 -0.557,0.644l-0.008,0.015l0,3.637c0,0.154 0.033,0.292 0.104,0.404c0.071,0.113 0.177,0.194 0.314,0.24c0.191,0.077 0.351,0.12 0.57,0.127l-0,0.35l-2.941,0Zm-2.365,-0.555c0,0 -0,0 -0,0.001l-0,-0.001Z"/><path d="M109.549,9.668l0.041,-2.221c-0.74,0.205 -1.276,0.411 -1.728,0.699c-0.453,0.288 -0.699,0.699 -0.699,1.234c-0,0.741 0.411,1.029 0.987,1.029c0.617,-0 1.111,-0.329 1.399,-0.741Zm2.304,0.741l-0,0.411c-0.412,0.165 -0.658,0.247 -1.07,0.247c-0.658,-0 -1.07,-0.329 -1.193,-0.946l-0.041,-0c-0.576,0.617 -1.152,0.946 -2.057,0.946c-0.947,-0 -1.646,-0.658 -1.646,-1.605c-0,-0.493 0.123,-0.864 0.411,-1.193c0.206,-0.247 0.618,-0.452 0.947,-0.576c0.205,-0.082 0.576,-0.205 1.193,-0.411c0.576,-0.206 0.987,-0.37 1.193,-0.453l-0,-0.658c-0,-0.123 -0.041,-0.494 -0.206,-0.782c-0.164,-0.329 -0.452,-0.617 -1.028,-0.617c-0.412,0 -0.782,0.165 -0.905,0.329c-0,0.083 -0,0.206 0.082,0.371c0.041,0.164 0.041,0.329 0.041,0.452c0,0.288 -0.288,0.617 -0.782,0.617c-0.452,0 -0.617,-0.37 -0.617,-0.74c0,-0.412 0.329,-0.782 0.741,-1.07c0.37,-0.247 0.987,-0.452 1.522,-0.452c0.74,-0 1.234,0.082 1.687,0.411c0.452,0.329 0.658,0.864 0.658,1.728l0,3.209c0,0.329 0.124,0.535 0.37,0.658c0.124,0.165 0.412,0.124 0.7,0.124Z" style="fill-rule:nonzero;"/><path d="M109.549,9.668l0.041,-2.221c-0.74,0.205 -1.276,0.411 -1.728,0.699c-0.453,0.288 -0.699,0.699 -0.699,1.234c-0,0.741 0.411,1.029 0.987,1.029c0.617,-0 1.111,-0.329 1.399,-0.741Zm2.304,0.741l-0,0.411c-0.412,0.165 -0.658,0.247 -1.07,0.247c-0.658,-0 -1.07,-0.329 -1.193,-0.946l-0.041,-0c-0.576,0.617 -1.152,0.946 -2.057,0.946c-0.947,-0 -1.646,-0.658 -1.646,-1.605c-0,-0.493 0.123,-0.864 0.411,-1.193c0.206,-0.247 0.618,-0.452 0.947,-0.576c0.205,-0.082 0.576,-0.205 1.193,-0.411c0.576,-0.206 0.987,-0.37 1.193,-0.453l-0,-0.658c-0,-0.123 -0.041,-0.494 -0.206,-0.782c-0.164,-0.329 -0.452,-0.617 -1.028,-0.617c-0.412,0 -0.782,0.165 -0.905,0.329c-0,0.083 -0,0.206 0.082,0.371c0.041,0.164 0.041,0.329 0.041,0.452c0,0.288 -0.288,0.617 -0.782,0.617c-0.452,0 -0.617,-0.37 -0.617,-0.74c0,-0.412 0.329,-0.782 0.741,-1.07c0.37,-0.247 0.987,-0.452 1.522,-0.452c0.74,-0 1.234,0.082 1.687,0.411c0.452,0.329 0.658,0.864 0.658,1.728l0,3.209c0,0.329 0.124,0.535 0.37,0.658c0.124,0.165 0.412,0.124 0.7,0.124Z" style="fill-rule:nonzero;"/><path d="M106.956,4.791c-0.407,0.286 -0.708,0.637 -0.708,1.01c-0,0.176 0.039,0.345 0.125,0.467c0.084,0.119 0.216,0.201 0.419,0.201c0.463,-0 0.709,-0.305 0.709,-0.545c0,-0.122 0,-0.275 -0.037,-0.427c-0.086,-0.176 -0.086,-0.311 -0.086,-0.396l0,-0.024l0.015,-0.019c0.073,-0.098 0.211,-0.186 0.376,-0.25c0.167,-0.065 0.372,-0.108 0.587,-0.108c0.301,-0 0.531,0.075 0.709,0.198c0.177,0.121 0.297,0.286 0.383,0.457c0.172,0.303 0.215,0.686 0.215,0.816l-0,0.707l-0.046,0.019c-0.206,0.082 -0.619,0.247 -1.196,0.453l-0.001,0.001c-0.619,0.206 -0.986,0.328 -1.189,0.41l-0.002,0c-0.161,0.061 -0.343,0.142 -0.508,0.237c-0.167,0.096 -0.313,0.204 -0.408,0.318l-0.001,0.001c-0.275,0.314 -0.393,0.666 -0.393,1.145c-0,0.904 0.664,1.532 1.573,1.532c0.443,0 0.802,-0.08 1.12,-0.234c0.319,-0.154 0.6,-0.384 0.884,-0.689l0.021,-0.023l0.132,0l0.012,0.058c0.059,0.296 0.185,0.516 0.37,0.663c0.185,0.146 0.435,0.225 0.752,0.225c0.383,0 0.616,-0.072 0.997,-0.223l0,-0.289c-0.021,0 -0.043,0.001 -0.066,0.001c-0.096,0.003 -0.194,0.005 -0.279,-0.002c-0.123,-0.01 -0.247,-0.041 -0.329,-0.138c-0.127,-0.067 -0.226,-0.156 -0.294,-0.274c-0.069,-0.122 -0.102,-0.269 -0.102,-0.442l0,-3.209c0,-0.853 -0.203,-1.36 -0.628,-1.669c-0.434,-0.316 -0.908,-0.398 -1.644,-0.398c-0.52,0 -1.122,0.201 -1.482,0.44Zm-0.08,-0.12c0.381,-0.255 1.012,-0.465 1.562,-0.465c0.745,0 1.258,0.083 1.729,0.425c0.48,0.349 0.688,0.913 0.688,1.787l0,3.209c0,0.156 0.03,0.276 0.083,0.37c0.054,0.094 0.135,0.167 0.247,0.223l0.016,0.008l0.01,0.014c0.042,0.056 0.118,0.085 0.236,0.094c0.078,0.007 0.162,0.005 0.253,0.003c0.049,-0.002 0.099,-0.003 0.153,-0.003l0.072,0l0,0.533l-0.045,0.018c-0.415,0.166 -0.672,0.252 -1.097,0.252c-0.341,0 -0.626,-0.085 -0.842,-0.257c-0.194,-0.154 -0.327,-0.373 -0.4,-0.648c-0.272,0.282 -0.549,0.503 -0.866,0.656c-0.34,0.165 -0.721,0.249 -1.183,0.249c-0.984,0 -1.718,-0.688 -1.718,-1.677c-0,-0.507 0.127,-0.895 0.428,-1.24c0.111,-0.132 0.274,-0.25 0.446,-0.35c0.174,-0.1 0.363,-0.183 0.529,-0.246c0.208,-0.083 0.58,-0.207 1.192,-0.411l0.004,-0.002c0.535,-0.19 0.927,-0.346 1.145,-0.433l-0,-0.609c-0,-0.116 -0.041,-0.472 -0.197,-0.746l-0.002,-0.003c-0.078,-0.157 -0.184,-0.301 -0.336,-0.405c-0.151,-0.104 -0.352,-0.172 -0.627,-0.172c-0.197,-0 -0.383,0.039 -0.535,0.098c-0.14,0.054 -0.243,0.122 -0.298,0.184c0.001,0.076 0.008,0.179 0.075,0.312l0.003,0.007l0.002,0.008c0.043,0.173 0.043,0.345 0.043,0.468l0,0.002c0,0.336 -0.328,0.69 -0.854,0.69c-0.249,-0 -0.426,-0.104 -0.537,-0.262c-0.109,-0.155 -0.152,-0.357 -0.152,-0.551c-0,-0.45 0.357,-0.839 0.771,-1.129l0.002,-0.001Zm2.788,2.68l-0.043,2.341l-0.013,0.018c-0.299,0.427 -0.814,0.771 -1.458,0.771c-0.299,0 -0.566,-0.075 -0.759,-0.256c-0.194,-0.182 -0.301,-0.461 -0.301,-0.845c-0,-0.562 0.262,-0.995 0.733,-1.295c0.462,-0.294 1.004,-0.502 1.747,-0.708l0.094,-0.026Zm-0.148,0.192c-0.689,0.196 -1.19,0.394 -1.615,0.664c-0.434,0.276 -0.666,0.665 -0.666,1.173c-0,0.357 0.099,0.592 0.255,0.739c0.157,0.148 0.383,0.217 0.66,0.217c0.581,0 1.048,-0.305 1.327,-0.692l0.039,-2.101Z"/><path d="M123.249,10.491l-0,0.494l-3.127,-0l0,-0.494l0.288,-0c0.206,-0 0.412,-0.082 0.535,-0.247c0.041,-0.082 0.082,-0.206 0.082,-0.37l-0,-3.291c-0,-0.906 -0.452,-1.399 -1.07,-1.399c-0.411,-0 -0.781,0.123 -1.11,0.37c-0.247,0.206 -0.412,0.453 -0.494,0.576l0,3.62c0,0.288 0.082,0.494 0.329,0.618c0.206,0.082 0.329,0.123 0.576,0.123l0,0.494l-3.044,-0l-0,-0.494c0.205,-0 0.37,-0 0.534,-0.082c0.247,-0.083 0.371,-0.288 0.371,-0.576l-0,-3.25c-0,-0.906 -0.453,-1.399 -1.07,-1.399c-0.412,-0 -0.782,0.123 -1.111,0.37c-0.247,0.206 -0.411,0.453 -0.493,0.576l-0,3.62c-0,0.288 0.123,0.494 0.37,0.618c0.164,0.082 0.37,0.123 0.617,0.123l0,0.494l-3.127,-0l0,-0.494l0.329,-0c0.206,-0 0.412,-0.082 0.535,-0.247c0.041,-0.082 0.083,-0.206 0.083,-0.37l-0,-3.909c-0,-0.288 -0.124,-0.493 -0.371,-0.658c-0.164,-0.123 -0.411,-0.164 -0.699,-0.206l-0,-0.493l2.221,-0l0,0.946l0.042,0c0.205,-0.206 0.576,-0.576 0.822,-0.74c0.288,-0.206 0.782,-0.371 1.317,-0.371c0.823,0 1.44,0.494 1.728,1.152c0.329,-0.288 0.493,-0.494 0.864,-0.781c0.329,-0.247 0.781,-0.371 1.316,-0.371c1.07,0 1.769,0.7 1.769,2.181l0,3.209c0,0.288 0.083,0.493 0.33,0.617c0.246,-0.041 0.452,-0 0.658,0.041Z" style="fill-rule:nonzero;"/><path d="M123.249,10.491l-0,0.494l-3.127,-0l0,-0.494l0.288,-0c0.206,-0 0.412,-0.082 0.535,-0.247c0.041,-0.082 0.082,-0.206 0.082,-0.37l-0,-3.291c-0,-0.906 -0.452,-1.399 -1.07,-1.399c-0.411,-0 -0.781,0.123 -1.11,0.37c-0.247,0.206 -0.412,0.453 -0.494,0.576l0,3.62c0,0.288 0.082,0.494 0.329,0.618c0.206,0.082 0.329,0.123 0.576,0.123l0,0.494l-3.044,-0l-0,-0.494c0.205,-0 0.37,-0 0.534,-0.082c0.247,-0.083 0.371,-0.288 0.371,-0.576l-0,-3.25c-0,-0.906 -0.453,-1.399 -1.07,-1.399c-0.412,-0 -0.782,0.123 -1.111,0.37c-0.247,0.206 -0.411,0.453 -0.493,0.576l-0,3.62c-0,0.288 0.123,0.494 0.37,0.618c0.164,0.082 0.37,0.123 0.617,0.123l0,0.494l-3.127,-0l0,-0.494l0.329,-0c0.206,-0 0.412,-0.082 0.535,-0.247c0.041,-0.082 0.083,-0.206 0.083,-0.37l-0,-3.909c-0,-0.288 -0.124,-0.493 -0.371,-0.658c-0.164,-0.123 -0.411,-0.164 -0.699,-0.206l-0,-0.493l2.221,-0l0,0.946l0.042,0c0.205,-0.206 0.576,-0.576 0.822,-0.74c0.288,-0.206 0.782,-0.371 1.317,-0.371c0.823,0 1.44,0.494 1.728,1.152c0.329,-0.288 0.493,-0.494 0.864,-0.781c0.329,-0.247 0.781,-0.371 1.316,-0.371c1.07,0 1.769,0.7 1.769,2.181l0,3.209c0,0.288 0.083,0.493 0.33,0.617c0.246,-0.041 0.452,-0 0.658,0.041Z" style="fill-rule:nonzero;"/><path d="M116.584,4.516c-0.522,-0 -1.001,0.161 -1.274,0.356l-0.002,0.002c-0.24,0.159 -0.604,0.523 -0.812,0.731l-0.021,0.022l-0.144,-0l0,-0.947l-2.077,0l0,0.359c0.121,0.018 0.237,0.037 0.342,0.064c0.122,0.032 0.235,0.076 0.327,0.145c0.129,0.087 0.231,0.187 0.299,0.306c0.069,0.12 0.102,0.257 0.102,0.411l-0,3.909c-0,0.177 -0.044,0.311 -0.09,0.403l-0.003,0.005l-0.004,0.006c-0.14,0.186 -0.369,0.275 -0.593,0.275l-0.256,0l-0,0.349l2.981,0l0,-0.35c-0.223,-0.007 -0.416,-0.049 -0.576,-0.13c-0.134,-0.067 -0.238,-0.158 -0.308,-0.274c-0.07,-0.116 -0.103,-0.253 -0.103,-0.408l0,-3.642l0.013,-0.019c0.083,-0.124 0.252,-0.378 0.507,-0.591l0.003,-0.002c0.341,-0.256 0.727,-0.385 1.154,-0.385c0.33,0 0.618,0.133 0.823,0.387c0.203,0.253 0.319,0.621 0.319,1.085l0,3.25c0,0.154 -0.033,0.291 -0.104,0.404c-0.07,0.111 -0.175,0.192 -0.311,0.239c-0.159,0.078 -0.317,0.086 -0.49,0.087l0,0.349l2.9,0l-0,-0.35c-0.214,-0.008 -0.341,-0.051 -0.531,-0.127l-0.005,-0.002c-0.136,-0.068 -0.231,-0.162 -0.29,-0.28c-0.058,-0.117 -0.08,-0.252 -0.08,-0.403l0,-3.642l0.013,-0.019c0.083,-0.124 0.253,-0.378 0.507,-0.591l0.003,-0.002c0.342,-0.256 0.728,-0.385 1.154,-0.385c0.33,0 0.618,0.133 0.823,0.387c0.204,0.253 0.32,0.621 0.32,1.085l-0,3.291c-0,0.177 -0.045,0.311 -0.09,0.403l-0.003,0.005l-0.004,0.006c-0.14,0.186 -0.37,0.275 -0.593,0.275l-0.215,0l-0.001,0.349l2.982,0l0,-0.362c-0.185,-0.036 -0.363,-0.064 -0.573,-0.029l-0.024,0.004l-0.021,-0.01c-0.136,-0.068 -0.231,-0.161 -0.289,-0.28c-0.059,-0.116 -0.08,-0.252 -0.08,-0.402l-0,-3.209c-0,-0.73 -0.173,-1.256 -0.466,-1.599c-0.292,-0.341 -0.712,-0.509 -1.231,-0.509c-0.524,-0 -0.96,0.121 -1.272,0.355c-0.182,0.142 -0.314,0.263 -0.442,0.386c-0.025,0.025 -0.051,0.05 -0.078,0.075c-0.102,0.099 -0.208,0.202 -0.34,0.318l-0.075,0.065l-0.04,-0.091c-0.278,-0.635 -0.871,-1.108 -1.661,-1.108Zm-1.358,0.238c0.303,-0.216 0.811,-0.383 1.358,-0.383c0.817,-0 1.439,0.469 1.752,1.105c0.097,-0.087 0.181,-0.167 0.262,-0.247c0.027,-0.026 0.053,-0.051 0.08,-0.077c0.13,-0.124 0.265,-0.25 0.453,-0.396l0.001,-0.001c0.346,-0.259 0.815,-0.384 1.36,-0.384c0.552,-0 1.016,0.181 1.341,0.56c0.323,0.378 0.501,0.942 0.501,1.693l-0,3.209c-0,0.138 0.02,0.248 0.064,0.338c0.041,0.082 0.105,0.15 0.205,0.204c0.249,-0.037 0.459,0.005 0.656,0.044l0.062,0.013l0,0.625l-3.272,0l0,-0.639l0.361,0c0.186,0 0.366,-0.073 0.473,-0.212c0.036,-0.074 0.072,-0.184 0.072,-0.332l-0,-3.291c-0,-0.442 -0.111,-0.774 -0.288,-0.994c-0.176,-0.219 -0.422,-0.333 -0.71,-0.333c-0.395,0 -0.749,0.118 -1.066,0.355c-0.225,0.189 -0.381,0.414 -0.466,0.541l0,3.598c0,0.138 0.02,0.249 0.065,0.338c0.043,0.087 0.113,0.158 0.222,0.213c0.199,0.08 0.313,0.117 0.546,0.117l0.073,0l-0,0.639l-3.19,0l0,-0.639l0.073,0c0.208,0 0.355,-0.001 0.502,-0.074l0.005,-0.002l0.005,-0.002c0.108,-0.036 0.187,-0.098 0.239,-0.181c0.052,-0.083 0.081,-0.192 0.081,-0.326l0,-3.25c0,-0.442 -0.11,-0.774 -0.287,-0.994c-0.176,-0.219 -0.422,-0.333 -0.71,-0.333c-0.395,0 -0.749,0.118 -1.066,0.355c-0.226,0.189 -0.381,0.414 -0.466,0.541l-0,3.598c-0,0.134 0.028,0.244 0.082,0.333c0.054,0.09 0.135,0.163 0.248,0.22c0.152,0.076 0.346,0.115 0.585,0.115l0.072,0l0,0.639l-3.271,0l-0,-0.639l0.401,0c0.186,0 0.366,-0.073 0.473,-0.212c0.036,-0.074 0.072,-0.184 0.072,-0.332l-0,-3.909c-0,-0.133 -0.028,-0.243 -0.083,-0.339c-0.055,-0.096 -0.139,-0.181 -0.255,-0.259l-0.003,-0.002c-0.072,-0.054 -0.165,-0.092 -0.278,-0.121c-0.114,-0.03 -0.244,-0.05 -0.389,-0.071l-0.062,-0.009l0,-0.629l2.367,0l0,0.885c0.212,-0.21 0.528,-0.517 0.75,-0.666Z"/><path d="M104.818,22.463c-0.165,0.165 -0.371,0.329 -0.576,0.494c-0.247,0.164 -0.535,0.247 -0.864,0.247c-0.329,-0 -0.617,-0.083 -0.864,-0.206c-0.247,-0.165 -0.453,-0.37 -0.576,-0.617c-0.165,-0.247 -0.288,-0.576 -0.371,-0.864c-0.082,-0.329 -0.123,-0.658 -0.123,-1.029c-0,-0.493 0.041,-0.905 0.165,-1.316c0.082,-0.371 0.246,-0.7 0.411,-0.988c0.165,-0.247 0.37,-0.452 0.617,-0.576c0.206,-0.123 0.453,-0.205 0.741,-0.205c0.246,-0 0.411,0.041 0.617,0.123c0.164,0.082 0.329,0.165 0.452,0.288c0.124,0.123 0.206,0.247 0.288,0.37c0.083,0.124 0.124,0.247 0.165,0.371l-0,3.908l-0.082,-0Zm2.427,0.823c-0.123,-0 -0.247,-0.041 -0.329,-0.041c-0.083,-0.041 -0.206,-0.041 -0.288,-0.083c-0.124,-0.041 -0.206,-0.123 -0.247,-0.205c-0.041,-0.083 -0.082,-0.206 -0.082,-0.371l-0,-9.544l-3.127,-0l0,0.617l0.082,-0c0.247,-0 0.494,0.041 0.7,0.082c0.205,0.041 0.37,0.082 0.493,0.165c0.083,0.082 0.165,0.164 0.247,0.329c0.041,0.164 0.082,0.329 0.082,0.494l0,2.262c-0.205,-0.123 -0.411,-0.205 -0.699,-0.247c-0.329,-0.082 -0.658,-0.123 -0.987,-0.123c-0.453,0 -0.864,0.082 -1.317,0.288c-0.411,0.206 -0.782,0.453 -1.069,0.782c-0.33,0.329 -0.576,0.74 -0.741,1.193c-0.165,0.452 -0.247,0.946 -0.247,1.44c0,0.535 0.082,1.069 0.247,1.522c0.165,0.452 0.37,0.864 0.658,1.193c0.288,0.329 0.618,0.576 0.988,0.782c0.37,0.164 0.781,0.288 1.193,0.288c0.37,-0 0.782,-0.083 1.152,-0.288c0.288,-0.165 0.576,-0.329 0.822,-0.576l0,0.658l2.551,-0l0,-0.658c0.041,0.041 0.041,0.041 -0.082,0.041Z" style="fill-rule:nonzero;"/><path d="M112.388,13.124c-0.083,0.041 -0.165,0.123 -0.247,0.206l-1.522,1.851l0.452,0.329l1.687,-1.522l1.728,1.481l0.452,-0.329l-1.563,-1.893c-0.082,-0.082 -0.123,-0.164 -0.206,-0.205c-0.082,-0.041 -0.205,-0.083 -0.37,-0.083c-0.206,0.083 -0.329,0.124 -0.411,0.165Z" style="fill-rule:nonzero;"/><path d="M80.668,13.7l0.082,-0c0.123,-0 0.288,0.041 0.535,0.082c0.247,0.041 0.329,0.083 0.411,0.124c0.124,0.082 0.165,0.164 0.247,0.288c0.083,0.123 0.083,0.288 0.083,0.452l-0,7.982c-0,0.164 -0.042,0.288 -0.083,0.37c-0.041,0.082 -0.123,0.164 -0.247,0.164c-0.082,0 -0.164,0.042 -0.288,0.042l-0.411,0.041l-0,0.658l3.538,-0l0,-0.658l-0.082,-0c-0.124,-0 -0.247,-0.041 -0.329,-0.041c-0.083,-0.042 -0.206,-0.042 -0.288,-0.083c-0.124,-0.041 -0.206,-0.123 -0.247,-0.205c-0.041,-0.083 -0.083,-0.206 -0.083,-0.371l0,-9.503l-2.879,-0l0.041,0.658Z" style="fill-rule:nonzero;"/><path d="M95.849,16.786c-0.247,0.082 -0.453,0.164 -0.659,0.288c-0.164,0.082 -0.328,0.246 -0.493,0.411l-0.288,0.288l-0,-0.905l-5.184,-0l0,0.658l0.082,0c0.206,0.041 0.371,0.082 0.576,0.165c0.124,0.082 0.247,0.164 0.247,0.246c0,0.083 -0.041,0.206 -0.082,0.371l-0.123,0.37c-0.288,0.741 -0.535,1.358 -0.741,1.893c0,-0 -0.041,0.082 -0.411,0.946l-0.165,0.37c-0.165,-0.453 -0.411,-1.07 -0.741,-1.851c-0.37,-0.864 -0.617,-1.523 -0.823,-1.975l-0.04,-0.082c-0.042,-0.042 -0.042,-0.124 -0.083,-0.206c0,-0 0.041,-0.041 0.247,-0.123c0.206,-0.083 0.329,-0.083 0.453,-0.083l0.082,0l0,-0.658l-3.332,-0l-0,0.617l0.082,0c0.206,0.041 0.37,0.082 0.576,0.206c0.206,0.123 0.329,0.288 0.411,0.493c0,0 0,0.042 1.111,2.716c0.37,0.864 0.741,1.851 1.193,2.921c-0.164,0.37 -0.37,0.864 -0.7,1.357c-0.287,0.453 -0.534,0.782 -0.74,0.906c0,-0 -0.082,-0.124 -0.123,-0.206c-0.083,-0.124 -0.165,-0.247 -0.247,-0.288c-0.082,-0.082 -0.206,-0.165 -0.329,-0.247c-0.124,-0.082 -0.247,-0.082 -0.412,-0.082c-0.206,-0 -0.411,0.082 -0.534,0.247c-0.124,0.164 -0.206,0.37 -0.206,0.617c-0,0.247 0.123,0.493 0.329,0.658c0.205,0.206 0.535,0.288 0.905,0.288c0.206,-0 0.411,-0.041 0.576,-0.123c0.165,-0.083 0.411,-0.206 0.617,-0.412c0.206,-0.206 0.453,-0.494 0.7,-0.905c0.246,-0.37 0.493,-0.905 0.781,-1.522c0.206,-0.494 0.576,-1.276 0.988,-2.345c0.411,-1.07 0.946,-2.222 1.481,-3.497c0.123,-0.247 0.246,-0.412 0.493,-0.535c0.206,-0.123 0.329,-0.165 0.453,-0.165c0.082,0 0.288,0 0.411,0.042c0.165,0.082 0.206,0.082 0.288,0.164c0.124,0.082 0.165,0.206 0.247,0.329c0.041,0.082 0.083,0.247 0.083,0.412l-0,4.237c-0,0.165 -0.042,0.288 -0.083,0.37c-0.041,0.083 -0.123,0.165 -0.247,0.165c-0.082,0.041 -0.164,0.041 -0.288,0.041l-0.411,0.041l-0,0.617l3.579,0l0,-0.658l-0.082,0c-0.123,0 -0.247,-0.041 -0.329,-0.041c-0.124,-0.041 -0.206,-0.041 -0.288,-0.082c-0.124,-0.041 -0.206,-0.124 -0.247,-0.206c-0.041,-0.082 -0.082,-0.206 -0.082,-0.329l-0,-3.95c0.041,-0.082 0.123,-0.164 0.164,-0.247c0.083,-0.123 0.206,-0.205 0.329,-0.329c0.165,-0.123 0.33,-0.205 0.535,-0.288c0.206,-0.082 0.411,-0.123 0.658,-0.123c0.288,-0 0.576,0.123 0.782,0.37c0.206,0.247 0.329,0.617 0.329,1.07l0,3.538c0,0.165 -0.041,0.288 -0.082,0.37c-0.041,0.083 -0.123,0.165 -0.247,0.165c-0.082,0.041 -0.164,0.041 -0.288,0.041l-0.453,0.041l0,0.617l3.539,0l-0,-0.658l-0.083,-0c-0.123,-0 -0.246,-0.041 -0.328,-0.041c-0.083,-0 -0.165,-0.041 -0.289,-0.082c-0.123,-0.042 -0.205,-0.124 -0.247,-0.206c-0.041,-0.082 -0.082,-0.206 -0.082,-0.37l0,-3.58c0,-0.699 -0.164,-1.275 -0.493,-1.686c-0.33,-0.453 -0.864,-0.659 -1.564,-0.659c-0.123,-0.041 -0.411,0 -0.658,0.083Z" style="fill-rule:nonzero;"/><path d="M121.438,16.991c-0.288,0.165 -0.616,0.412 -0.863,0.741l-0,-0.864l-5.308,-0l0,0.617l0.082,-0c0.042,-0 0.124,-0 0.206,0.041c0.083,0 0.206,0.041 0.288,0.082c0.083,0.041 0.165,0.083 0.247,0.165c0.041,0.041 0.082,0.082 0.082,0.164c0,0.083 0,0.165 -0.041,0.288l-0.082,0.33c-0.164,0.493 -0.329,1.069 -0.535,1.645l-0.535,1.564c0,-0 -1.563,-4.361 -1.727,-4.855l-0.823,-0l-1.687,4.896c0,-0 -0.041,-0.165 -0.658,-2.098l-0.494,-1.646l-0.041,-0.206l-0.041,-0.082c-0,-0 -0,-0.082 0.205,-0.165c0.165,-0.041 0.33,-0.082 0.453,-0.082l0.082,0l0,-0.617l-3.25,-0l0,0.658l0.082,0c0.165,0.041 0.371,0.082 0.576,0.206c0.206,0.123 0.33,0.288 0.37,0.452c0.248,0.741 0.536,1.646 0.864,2.675c0.33,0.987 0.659,2.016 1.029,3.044l0,0.041l0.74,0l1.77,-4.854c-0,-0 1.604,4.361 1.769,4.854l0.781,0l0.042,-0.082c0.082,-0.247 0.123,-0.494 0.205,-0.741c0.083,-0.288 0.165,-0.534 0.247,-0.781l0.699,-2.057l0.659,-1.934c0.082,-0.288 0.247,-0.453 0.452,-0.617c0.206,-0.124 0.494,-0.206 0.576,-0.206c0.083,0 0.288,-0.041 0.535,0.041c0.123,0.041 0.206,0.083 0.288,0.124c0.123,0.082 0.206,0.205 0.247,0.329c0.041,0.123 0.082,0.247 0.082,0.37l0,4.238c0,0.164 -0.041,0.288 -0.082,0.37c-0.041,0.082 -0.124,0.165 -0.247,0.165c-0.082,0.041 -0.165,0.041 -0.288,0.041l-0.411,0.041l-0,0.658l3.826,0l0,-0.658l-0.083,-0c-0.123,-0 -0.288,-0.041 -0.493,-0.041c-0.165,-0.041 -0.329,-0.041 -0.411,-0.083c-0.124,-0.041 -0.206,-0.123 -0.247,-0.205c-0.041,-0.083 -0.083,-0.206 -0.083,-0.329l0,-3.991c0.206,-0.288 0.412,-0.535 0.7,-0.7c0.206,-0.123 0.411,-0.205 0.617,-0.246c0,-0 0,0.041 -0.041,0.123c-0,0.082 -0.042,0.206 -0.042,0.288c0,0.206 0.083,0.37 0.247,0.535c0.165,0.164 0.371,0.247 0.659,0.247c0.288,-0 0.493,-0.124 0.617,-0.329c0.123,-0.206 0.206,-0.412 0.206,-0.7c-0,-0.329 -0.083,-0.617 -0.288,-0.823c-0.206,-0.205 -0.453,-0.329 -0.782,-0.329c-0.247,-0.041 -0.576,0.083 -0.947,0.288Z" style="fill-rule:nonzero;"/><path d="M77.994,27.852c-0.576,0.453 -1.441,0.618 -2.51,0.618c-0.617,-0 -1.152,-0.083 -1.563,-0.165c-0.412,-0.123 -0.782,-0.288 -1.029,-0.494c-0.288,-0.205 -0.453,-0.411 -0.576,-0.658c-0.123,-0.247 -0.165,-0.494 -0.165,-0.74c0,-0.576 0.165,-1.07 0.494,-1.44c0.329,-0.371 0.864,-0.741 1.646,-0.906c1.275,-0.287 2.838,-0.164 3.373,0.042c0.576,0.205 0.782,0.493 0.947,0.781c0.164,0.288 0.287,0.617 0.287,1.029c0.042,0.864 -0.287,1.481 -0.904,1.933Zm-4.896,-11.272c-0,-0.37 0.041,-0.741 0.082,-1.07c0.082,-0.329 0.165,-0.658 0.329,-0.905c0.165,-0.288 0.329,-0.494 0.576,-0.617c0.247,-0.165 0.535,-0.206 0.864,-0.206c0.617,0 1.111,0.247 1.44,0.782c0.329,0.535 0.535,1.193 0.535,2.098c0,0.782 -0.165,1.44 -0.494,1.975c-0.329,0.535 -0.823,0.782 -1.44,0.782c-0.576,-0 -1.028,-0.247 -1.357,-0.782c-0.371,-0.576 -0.535,-1.234 -0.535,-2.057Zm7.364,7.611c-0.165,-0.37 -0.411,-0.658 -0.699,-0.946c-0.288,-0.247 -0.577,-0.453 -0.905,-0.617c-0.33,-0.165 -0.658,-0.247 -0.988,-0.247c-0.247,-0 -3.044,-0.041 -3.332,-0.083c-0.288,0 -0.535,-0.082 -0.741,-0.164c-0.247,-0.082 -0.411,-0.206 -0.535,-0.329c-0.164,-0.165 -0.205,-0.371 -0.205,-0.659c-0,-0.287 0.082,-0.493 0.288,-0.617c0.164,-0.164 0.37,-0.246 0.535,-0.329l1.316,0c1.029,0 1.893,-0.329 2.674,-0.987c0.782,-0.658 1.152,-1.481 1.152,-2.469c0,-0.37 -0.082,-0.74 -0.206,-1.152c-0.123,-0.37 -0.205,-0.576 -0.576,-1.069c0,-0 -0.288,-0.412 -0.658,-0.782c0,0 -0.082,-0.082 -0.123,-0.082c0.123,-0.124 0.247,-0.206 0.37,-0.288c0.247,-0.124 0.453,-0.206 0.617,-0.247c0,-0 0,0.041 -0.041,0.123c-0,0.083 -0.041,0.206 -0.041,0.288c-0,0.206 0.082,0.371 0.247,0.494c0.164,0.165 0.37,0.247 0.658,0.247c0.288,-0 0.494,-0.124 0.617,-0.329c0.123,-0.206 0.206,-0.412 0.206,-0.7c-0,-0.329 -0.083,-0.617 -0.288,-0.822c-0.206,-0.206 -0.453,-0.33 -0.782,-0.33c-0.288,0 -0.658,0.083 -1.028,0.288c-0.371,0.206 -0.7,0.494 -0.988,0.864c-0.453,-0.205 -0.658,-0.246 -0.864,-0.288c-0.329,-0.082 -0.699,-0.041 -1.028,-0.041c-1.193,0 -2.14,0.329 -2.88,0.988c-0.741,0.658 -1.111,1.522 -1.111,2.55c0,0.7 0.206,1.317 0.576,1.811c0.37,0.534 0.905,0.946 1.605,1.275l0.205,0.123c-0.535,0.247 -1.11,0.576 -1.398,0.906c-0.288,0.329 -0.412,0.699 -0.412,1.069c0,0.329 0.041,0.576 0.164,0.782c0.124,0.206 0.248,0.411 0.453,0.535c0.165,0.123 0.37,0.247 0.617,0.329c0.247,0.082 0.453,0.206 0.659,0.247c-0,-0 -1.646,0.411 -2.222,0.864c-0.576,0.452 -0.864,1.028 -0.864,1.81c-0,0.946 0.411,1.645 1.193,2.139c0.823,0.494 2.016,0.741 3.62,0.741c0.988,-0 1.81,-0.083 2.51,-0.288c0.658,-0.206 1.234,-0.453 1.728,-0.823c0.452,-0.329 0.782,-0.741 1.028,-1.193c0.206,-0.453 0.33,-0.946 0.33,-1.481c-0.206,-0.329 -0.288,-0.741 -0.453,-1.111Z" style="fill-rule:nonzero;"/><path d="M91.118,27.318l-0,1.851c-0,0.206 -0.042,0.37 -0.124,0.494c-0.082,0.123 -0.164,0.247 -0.288,0.329c-0.123,0.082 -0.247,0.123 -0.37,0.164c-0.123,0.042 -0.288,0.042 -0.411,0.042c-0.165,-0 -0.288,-0 -0.412,-0.042c-0.124,-0.041 -0.247,-0.082 -0.37,-0.164c-0.124,-0.082 -0.206,-0.206 -0.288,-0.329c-0.082,-0.124 -0.124,-0.288 -0.124,-0.494l0,-1.851l0.7,-0l-0,1.81c-0,0.37 0.164,0.576 0.494,0.576c0.329,-0 0.493,-0.206 0.493,-0.576l0,-1.81l0.7,-0Z" style="fill-rule:nonzero;"/><path d="M92.681,30.156l0,-2.838l0.74,-0l1.029,1.81l0,-1.81l0.658,-0l0,2.838l-0.74,0l-1.029,-1.769l0,1.769l-0.658,0Z" style="fill-rule:nonzero;"/><rect x="96.672" y="27.318" width="0.699" height="2.839"/><path d="M99.634,30.156l-0.947,-2.838l0.741,-0l0.576,2.057l0.617,-2.057l0.741,-0l-0.988,2.838l-0.74,0Z" style="fill-rule:nonzero;"/><path d="M104.9,30.156l-2.222,0l0,-2.838l2.098,-0l0,0.534l-1.398,0l-0,0.535l1.316,0l0,0.576l-1.316,0l-0,0.659l1.522,-0l-0,0.534Z" style="fill-rule:nonzero;"/><path d="M106.998,27.852l0,0.782l0.658,0c0.247,0 0.37,-0.123 0.37,-0.37c0,-0.247 -0.123,-0.37 -0.37,-0.37l-0.658,-0l0,-0.042Zm-0.699,2.346l-0,-2.88l1.44,-0c0.329,-0 0.575,0.082 0.781,0.247c0.165,0.164 0.288,0.411 0.288,0.699c0,0.164 -0.041,0.329 -0.164,0.494c-0.124,0.123 -0.247,0.246 -0.412,0.288l0.658,1.152l-0.781,-0l-0.576,-1.029l-0.453,0l0,1.029l-0.781,-0Z" style="fill-rule:nonzero;"/><path d="M109.919,29.663l0.535,-0.371c0.123,0.124 0.247,0.206 0.411,0.288c0.124,0.042 0.288,0.083 0.453,0.083c0.123,-0 0.247,-0.041 0.37,-0.083c0.123,-0.041 0.165,-0.123 0.165,-0.246c-0,-0.124 -0.124,-0.206 -0.33,-0.247l-0.576,-0.083c-0.246,-0.041 -0.452,-0.123 -0.616,-0.246c-0.124,-0.124 -0.206,-0.288 -0.206,-0.535c-0,-0.329 0.123,-0.576 0.329,-0.741c0.205,-0.164 0.493,-0.247 0.823,-0.247c0.246,0 0.452,0.042 0.699,0.124c0.206,0.082 0.412,0.247 0.576,0.411l-0.535,0.37c-0.206,-0.246 -0.452,-0.37 -0.782,-0.37c-0.082,0 -0.164,0.041 -0.288,0.082c-0.082,0.042 -0.123,0.124 -0.123,0.206c0,0.082 0.041,0.124 0.083,0.165c0.082,0.041 0.164,0.082 0.288,0.082l0.287,0.041c0.165,0.041 0.288,0.041 0.412,0.082c0.123,0.042 0.206,0.083 0.329,0.165c0.082,0.041 0.165,0.123 0.247,0.247c0.041,0.082 0.082,0.206 0.082,0.329c0,0.165 -0.041,0.288 -0.082,0.453c-0.041,0.123 -0.124,0.205 -0.206,0.288c-0.082,0.082 -0.206,0.123 -0.329,0.164c-0.124,0.041 -0.247,0.082 -0.329,0.082c-0.124,0 -0.206,0.042 -0.329,0.042c-0.576,0.041 -1.029,-0.124 -1.358,-0.535Z" style="fill-rule:nonzero;"/><rect x="113.951" y="27.318" width="0.699" height="2.839"/><path d="M115.967,27.852l-0,-0.534l2.221,-0l0,0.534l-0.74,0l-0,2.304l-0.74,0l-0,-2.304l-0.741,0Z" style="fill-rule:nonzero;"/><path d="M120.328,30.156l-0,-1.316l-1.07,-1.522l0.823,-0l0.617,0.987l0.576,-0.987l0.864,-0l-1.111,1.522l0,1.316l-0.699,0Z" style="fill-rule:nonzero;"/></svg>