<?xml version="1.0" encoding="UTF-8" standalone="no"?>
<svg
   xmlns:dc="http://purl.org/dc/elements/1.1/"
   xmlns:cc="http://creativecommons.org/ns#"
   xmlns:rdf="http://www.w3.org/1999/02/22-rdf-syntax-ns#"
   xmlns:svg="http://www.w3.org/2000/svg"
   xmlns="http://www.w3.org/2000/svg"
   xmlns:sodipodi="http://sodipodi.sourceforge.net/DTD/sodipodi-0.dtd"
   xmlns:inkscape="http://www.inkscape.org/namespaces/inkscape"
   width="98.241615"
   height="61.732159"
   viewBox="0 0 78.593292 49.385727"
   version="1.1"
   id="svg2"
   inkscape:version="0.48.1 "
   sodipodi:docname="Central Michigan University wordmark.svg">
  <metadata
     id="metadata78">
    <rdf:RDF>
      <cc:Work
         rdf:about="">
        <dc:format>image/svg+xml</dc:format>
        <dc:type
           rdf:resource="http://purl.org/dc/dcmitype/StillImage" />
      </cc:Work>
    </rdf:RDF>
  </metadata>
  <defs
     id="defs76" />
  <sodipodi:namedview
     pagecolor="#ffffff"
     bordercolor="#666666"
     borderopacity="1"
     objecttolerance="10"
     gridtolerance="10"
     guidetolerance="10"
     inkscape:pageopacity="0"
     inkscape:pageshadow="2"
     inkscape:window-width="1680"
     inkscape:window-height="994"
     id="namedview74"
     showgrid="false"
     fit-margin-top="0"
     fit-margin-left="0"
     fit-margin-right="0"
     fit-margin-bottom="0"
     inkscape:zoom="12.586633"
     inkscape:cx="49.120808"
     inkscape:cy="30.866079"
     inkscape:window-x="-4"
     inkscape:window-y="-4"
     inkscape:window-maximized="1"
     inkscape:current-layer="svg2" />
  <path
     style="fill:#6A0032;stroke:#6A0032;stroke-opacity:1"
     inkscape:connector-curvature="0"
     d="m 5.0542862,3.8238029 c 1.731455,-1.5199564 4.0225212,-2.2758868 6.2973958,-2.4216084 3.29695,-0.2135225 6.629317,0.63146 9.502258,2.2424923 -0.280312,1.3003622 -0.569731,2.5997124 -0.856114,3.8990626 -0.302575,-0.00202 -0.605149,-0.00202 -0.907724,0.00101 C 18.809791,6.6754921 18.36959,5.8335455 17.670329,5.2283964 16.58349,4.2640033 15.104011,3.9007114 13.687274,3.797492 11.866767,3.6214119 9.9470887,3.8582093 8.3350444,4.765933 6.7877652,5.6321664 5.6574114,7.1248001 5.0552982,8.7763106 4.3115113,10.812364 4.1708495,13.036641 4.4258622,15.176926 c 0.2620963,2.152428 1.0868397,4.338251 2.74341,5.803562 1.4369761,1.283159 3.3930848,1.84783 5.2935368,1.84783 1.495669,0.01316 3.073307,-0.141674 4.375693,-0.94213 1.072673,-0.656759 1.783065,-1.75979 2.213146,-2.918479 0.329897,0.001 0.660806,0.002 0.991716,0.001 0.258048,1.324649 0.546455,2.643227 0.80754,3.967876 -1.997599,1.357032 -4.389861,2.019862 -6.777063,2.212134 -1.583709,0.08096 -3.192718,0.117386 -4.7450568,-0.265133 C 7.0660528,24.383693 4.9591625,23.100534 3.5960591,21.210202 2.4565978,19.657863 1.8241259,17.786758 1.5468502,15.894402 1.2938615,14.085027 1.3009451,12.235173 1.5944121,10.430857 2.001218,7.9414478 3.1082968,5.4834091 5.0542862,3.8238029 z"
     id="path16" />
  <path
     style="fill:#6A0032;stroke:#6A0032;stroke-opacity:1"
     inkscape:connector-curvature="0"
     d="m 25.301482,2.0478218 c 1.302386,-0.033394 2.604772,-0.057681 3.90817,-0.063753 2.835498,5.172102 5.645697,10.3593833 8.472087,15.5365453 2.907347,-5.162995 5.749929,-10.3634314 8.645132,-15.5335095 1.381318,0.018215 2.764661,0.00202 4.14598,0.063753 0.136613,0.5140731 0.272215,1.0281463 0.420973,1.5391836 -0.45032,0.017203 -0.973501,-0.00607 -1.321613,0.3309092 -0.293467,0.3359691 -0.302575,0.8136119 -0.31573,1.2366091 0.002,5.4341984 0.001,10.8673844 0.001,16.3015834 0.01113,0.418949 0.03036,0.89558 0.334957,1.218393 0.345076,0.329898 0.856114,0.322814 1.302386,0.334958 -0.153817,0.518121 -0.290431,1.040289 -0.429069,1.562458 -1.717288,-0.0071 -3.433563,-0.002 -5.150851,-0.003 -0.133578,-0.521157 -0.273228,-1.041301 -0.424009,-1.55841 0.4402,-0.0172 0.943142,-0.001 1.297326,-0.309659 0.318766,-0.327873 0.323826,-0.819683 0.335969,-1.248752 -0.002,-3.538807 -0.001,-7.078625 -0.001,-10.618444 0.02125,-1.5007293 -0.05971,-3.0055063 0.07792,-4.5021878 -1.202203,2.0137905 -2.337616,4.0660348 -3.495293,6.1061368 -1.655558,2.931633 -3.317188,5.860231 -4.968699,8.794901 -0.384543,0 -0.769086,0 -1.153629,-0.001 -2.687752,-4.837145 -5.358301,-9.685422 -8.082484,-14.5023275 0.05566,0.9279628 0.03339,1.8589614 0.03744,2.7879361 0,3.9122184 0,7.8244364 -0.001,11.7366544 0.0253,0.43514 0.02327,0.902664 0.235786,1.296314 0.298526,0.451332 0.904687,0.45032 1.38739,0.459428 -0.153817,0.518121 -0.289419,1.041301 -0.429069,1.562458 -1.607996,-0.0081 -3.217005,-0.001 -4.825001,-0.003 -0.131554,-0.520145 -0.278288,-1.036242 -0.412878,-1.555375 0.527229,-0.01518 1.243693,-0.03137 1.474418,-0.612232 0.222631,-0.660807 0.175069,-1.373223 0.180128,-2.060341 -0.01012,-4.114609 0,-8.23023 0.001,-12.3458508 0.02429,-0.6759859 -0.06881,-1.3509599 -0.0051,-2.0249219 0.0091,-0.6193165 0.01821,-1.2669677 -0.201379,-1.8539016 C 26.07158,3.5991489 25.410773,3.6011728 24.90176,3.5870054 25.019146,3.0698964 25.173976,2.5629069 25.301482,2.0478218 z"
     id="path18" />
  <path
     style="fill:#6A0032;stroke:#6A0032;stroke-opacity:1"
     inkscape:connector-curvature="0"
     d="m 54.999325,2.043774 c 1.735503,0.00708 3.472018,0.00101 5.207521,0.00304 0.12447,0.5181209 0.262096,1.0321941 0.410853,1.5442433 -0.454367,0.017203 -0.985644,-0.012143 -1.334768,0.3309093 -0.267156,0.314718 -0.286383,0.7539065 -0.301563,1.146545 -0.001,3.845429 0,7.6898465 0,11.5352755 0.0081,1.582697 0.63652,3.197777 1.868069,4.224912 1.358044,1.158688 3.194742,1.552339 4.939352,1.564482 1.760802,-0.01012 3.610656,-0.434129 4.964652,-1.621152 1.203214,-1.02511 1.83771,-2.606796 1.84783,-4.171278 0.001,-3.811023 -0.001,-7.6220454 0.001,-11.4330679 -0.0091,-0.4219852 -0.02935,-0.8955802 -0.312694,-1.2355971 -0.34204,-0.3521603 -0.874329,-0.3238256 -1.325661,-0.3410288 0.145722,-0.5130612 0.286384,-1.0271343 0.412878,-1.5452553 1.675797,0.00202 3.352607,0.00101 5.028404,0.00101 0.125483,0.517109 0.270192,1.0301702 0.411866,1.5432314 -0.430081,0.020239 -0.925939,-0.014167 -1.264944,0.3025745 -0.304598,0.3015626 -0.307634,0.7680738 -0.322813,1.1677961 -0.003,3.3404634 0,6.6809271 -0.001,10.0213901 0.002,1.183988 0.02833,2.384166 -0.236798,3.544879 -0.323825,1.496681 -1.084816,2.907346 -2.216181,3.946624 -1.508825,1.391438 -3.543867,2.076532 -5.559681,2.264755 -2.074508,0.138638 -4.219852,0.02429 -6.161794,-0.783253 -1.481502,-0.599077 -2.802103,-1.637343 -3.642026,-3.006518 -0.839923,-1.355008 -1.196131,-2.965028 -1.195119,-4.547726 -0.002,-3.812034 0.001,-7.6240688 -0.001,-11.4371153 C 56.198492,4.6495581 56.171169,4.1688795 55.84532,3.8683289 55.489111,3.5859934 55.009445,3.6062325 54.579364,3.5900413 54.729133,3.0769801 54.864735,2.560883 54.999325,2.043774 z"
     id="path20" />
  <path
     style="fill:#6A0032"
     inkscape:connector-curvature="0"
     d="M 3.7488643,3.43926 C 6.0095718,1.1603373 9.2994375,0.12510734 12.463821,0.22225502 15.886253,0.1979681 19.269218,1.279748 22.172517,3.0628127 21.78595,4.9420131 21.337654,6.8080582 20.953111,8.6882705 20.040328,8.6872586 19.126532,8.6923184 18.213749,8.6862466 17.96582,7.891862 17.759381,7.0468795 17.19471,6.407324 16.420565,5.5087079 15.215326,5.148452 14.076877,5.0098141 12.337326,4.7993275 10.473305,4.9025469 8.9169185,5.7799119 7.6975127,6.4538739 6.7988967,7.6034548 6.2716681,8.8785181 5.6867581,10.262873 5.509666,11.776757 5.4600802,13.266355 c 0.049586,1.973312 0.3622799,4.035677 1.4946575,5.701354 0.7781934,1.181964 2.0056948,2.043138 3.3718343,2.406429 1.088863,0.292455 2.235408,0.36228 3.354631,0.241858 1.209286,-0.085 2.50054,-0.433117 3.322248,-1.383343 0.632472,-0.692177 0.899628,-1.60496 1.267979,-2.444883 0.901652,0.02024 1.803304,-0.01316 2.703944,0.01518 0.425021,1.878189 0.78123,3.772568 1.17994,5.657841 -0.468535,0.304598 -0.920879,0.635507 -1.405606,0.914807 -1.722347,1.011955 -3.676432,1.580674 -5.648733,1.838722 C 12.40108,26.5513 9.5635577,26.454153 7.0336702,25.363265 5.3103109,24.63061 3.777199,23.444598 2.6741681,21.927678 1.192666,19.924007 0.47013009,17.450789 0.26672714,14.989714 0.2272609,14.112349 0.14124472,13.231949 0.22827285,12.353572 0.34059986,9.1102558 1.4061885,5.7657445 3.7488643,3.43926 M 10.945888,0.582511 C 8.6113081,0.78996178 6.2908953,1.6197649 4.5098545,3.1721038 2.3473066,5.01285 1.1279008,7.7542361 0.72109494,10.525981 0.35780309,12.908123 0.45596273,15.36515 1.0499803,17.702766 c 0.5980654,2.32952 1.8751526,4.52951 3.7988791,6.007977 2.1979662,1.723359 5.0567391,2.41756 7.8143166,2.350771 3.219029,-0.02125 6.528122,-0.803492 9.140989,-2.757577 -0.384542,-1.733479 -0.701284,-3.481126 -1.094935,-5.211569 -0.737715,0.01012 -1.476442,0.01012 -2.214157,0 -0.357221,0.843971 -0.662831,1.744611 -1.31453,2.416549 -0.929987,1.029158 -2.367975,1.381318 -3.704767,1.435964 C 11.618838,22.09971 9.625287,21.800171 8.1083664,20.649579 6.5368003,19.483806 5.6908059,17.585379 5.3629325,15.701119 5.0401189,13.755129 5.0846449,11.731219 5.6058017,9.8226721 6.0591576,8.1630659 7.0184909,6.5823922 8.4989811,5.6564534 10.082691,4.6475342 12.043859,4.4775258 13.87145,4.6647375 c 1.246729,0.1214346 2.56227,0.4746069 3.453803,1.4076294 0.612232,0.6304479 0.887484,1.483526 1.130353,2.3062454 0.743787,-0.027323 1.488586,0.061729 2.231361,0.00304 0.370376,-1.7182996 0.749859,-3.4345753 1.132378,-5.150851 C 18.585137,1.2645687 14.728576,0.2495778 10.945888,0.582511 z"
     id="path4" />
  <path
     style="fill:#6A0032"
     inkscape:connector-curvature="0"
     d="m 10.945888,0.582511 c 3.782688,-0.3329332 7.639249,0.6820577 10.873457,2.6482862 -0.382519,1.7162757 -0.762002,3.4325514 -1.132378,5.150851 -0.742775,0.058693 -1.487574,-0.030359 -2.231361,-0.00304 C 18.212737,7.5558929 17.937485,6.7028148 17.325253,6.0723669 16.43372,5.1393444 15.118179,4.7861721 13.87145,4.6647375 12.043859,4.4775258 10.082691,4.6475342 8.4989811,5.6564534 7.0184909,6.5823922 6.0591576,8.1630659 5.6058017,9.8226721 5.0846449,11.731219 5.0401189,13.755129 5.3629325,15.701119 c 0.3278734,1.88426 1.1738678,3.782687 2.7454339,4.94846 1.5169206,1.150592 3.5104716,1.450131 5.3674096,1.295302 1.336792,-0.05465 2.77478,-0.406806 3.704767,-1.435964 0.651699,-0.671938 0.957309,-1.572578 1.31453,-2.416549 0.737715,0.01012 1.476442,0.01012 2.214157,0 0.393651,1.730443 0.710393,3.47809 1.094935,5.211569 -2.612867,1.954085 -5.92196,2.736326 -9.140989,2.757577 C 9.9055985,26.128303 7.0468256,25.434102 4.8488594,23.710743 2.9251329,22.232276 1.6480457,20.032286 1.0499803,17.702766 0.45596273,15.36515 0.35780309,12.908123 0.72109493,10.525981 1.1279008,7.7542361 2.3473066,5.01285 4.5098545,3.1721038 6.2908953,1.6197649 8.6113081,0.78996177 10.945888,0.582511 M 5.0542862,3.8238029 C 3.1082968,5.4834091 2.001218,7.9414478 1.5944121,10.430857 c -0.2934669,1.804316 -0.3005506,3.65417 -0.047562,5.463545 0.2772757,1.892356 0.9097476,3.763461 2.0492089,5.3158 1.3631034,1.890332 3.4699937,3.173491 5.7327251,3.673396 1.5523388,0.382519 3.1613478,0.346089 4.7450568,0.265133 2.387202,-0.192272 4.779464,-0.855102 6.777063,-2.212134 -0.261085,-1.324649 -0.549492,-2.643227 -0.80754,-3.967876 -0.33091,0.001 -0.661819,0 -0.991716,-0.001 -0.430081,1.158689 -1.140473,2.26172 -2.213146,2.918479 -1.302386,0.800456 -2.880024,0.955285 -4.375693,0.94213 -1.900452,0 -3.8565607,-0.564671 -5.2935368,-1.84783 C 5.5127019,19.515177 4.6879585,17.329354 4.4258622,15.176926 4.1708495,13.036641 4.3115113,10.812364 5.0552982,8.7763106 5.6574114,7.1248001 6.7877652,5.6321664 8.3350444,4.765933 9.9470887,3.8582093 11.866767,3.6214119 13.687274,3.797492 c 1.416737,0.1032194 2.896216,0.4665113 3.983055,1.4309044 0.699261,0.6051491 1.139462,1.4470957 1.419773,2.316365 0.302575,-0.00304 0.605149,-0.00304 0.907724,-0.00101 C 20.284209,6.2443992 20.573628,4.945049 20.85394,3.6446868 17.980999,2.0336545 14.648632,1.188672 11.351682,1.4021945 9.0768074,1.5479161 6.7857412,2.3038465 5.0542862,3.8238029 z"
     id="path6" />
  <path
     style="fill:#6A0032"
     inkscape:connector-curvature="0"
     d="m 24.410961,0.86181058 c 1.839735,-0.008096 3.678457,-0.0333945 5.518191,-0.0293467 2.571378,4.76327221 5.182222,9.50630511 7.759671,14.26654111 2.668525,-4.742021 5.290501,-9.5113646 7.932715,-14.26856503 1.912595,0.001012 3.826202,0.023275 5.738797,0.0293467 0.35216,1.29226653 0.689141,2.58858093 1.056481,3.87578763 -0.657771,0.021251 -1.317565,-0.029347 -1.9723,0.04655 -0.02429,5.3562778 -0.003,10.7135678 -0.01113,16.0708578 -0.001,0.322813 0.001,0.645627 0.01417,0.969452 0.656758,0.001 1.310481,0.03947 1.966228,0.06173 -0.372399,1.282147 -0.702297,2.577449 -1.056481,3.865668 -2.311305,-0.004 -4.62261,-0.001 -6.933915,-0.002 -0.349125,-1.288219 -0.679022,-2.581497 -1.053446,-3.86162 0.652711,-0.04048 1.306434,-0.05869 1.961169,-0.06072 0.06881,-0.593005 0.02732,-1.190059 0.03744,-1.785088 -0.004,-3.062176 0.0091,-6.125364 -0.0061,-9.18754 -2.212134,3.844417 -4.370634,7.720205 -6.561516,11.576765 -0.82778,-0.002 -1.655559,-0.002 -2.483338,0 -1.776993,-3.192718 -3.551962,-6.386448 -5.327943,-9.579166 -0.282336,-0.498893 -0.54342,-1.008919 -0.850042,-1.493645 -0.02024,3.488209 -0.01619,6.97743 -0.002,10.465638 0.646639,0.003 1.292266,0.03542 1.937894,0.05971 -0.365316,1.285183 -0.698249,2.579473 -1.052434,3.86668 -2.204038,-0.003 -4.408076,0 -6.612114,-0.001 -0.334957,-1.290243 -0.684081,-2.578461 -1.044337,-3.86162 0.657771,-0.04554 1.316553,-0.05161 1.975336,-0.06578 0.02429,-5.552597 0.002,-11.104183 0.01113,-16.6557678 -0.0253,-0.1396497 0.05262,-0.3471005 -0.120423,-0.4108537 -0.622352,-0.030359 -1.246729,-0.00101 -1.869081,-0.018215 0.355196,-1.2892306 0.707357,-2.5804852 1.047373,-3.87376372 m 0.254001,0.31471802 c -0.292455,1.079756 -0.595029,2.1585 -0.871293,3.2423038 0.599077,0.00911 1.200179,0 1.797232,0.070837 0.118399,0.5191329 0.07387,1.0544571 0.07893,1.5816856 0.001,5.1275761 -0.001,10.2561641 0.002,15.3837401 0.001,0.225666 -0.04351,0.447284 -0.09715,0.665866 -0.591994,0.03947 -1.185,0.02024 -1.778005,0.03036 0.258048,1.102019 0.57985,2.186835 0.872305,3.280758 2.038077,-0.0091 4.077167,-0.001 6.116256,-0.004 0.275252,-1.098983 0.601101,-2.184811 0.869269,-3.285818 -0.585922,0.0061 -1.172855,0.01417 -1.758777,-0.01619 -0.04959,-0.221618 -0.08703,-0.446272 -0.08804,-0.67295 0,-3.801915 0.0061,-7.604842 -0.003,-11.406757 2.227313,4.028593 4.466769,8.051114 6.711285,12.070599 0.698249,-0.01417 1.39751,-0.0081 2.095759,-0.004 2.356843,-4.164195 4.705591,-8.33345 7.067494,-12.4946088 0.01012,3.8788238 -0.001,7.7566348 0.0061,11.6354588 0.002,0.287395 -0.03643,0.573778 -0.07792,0.858138 -0.607173,0.05465 -1.21637,0.03339 -1.824555,0.03137 0.282335,1.095947 0.622352,2.177727 0.863198,3.283794 2.157488,0.003 4.315988,0.001 6.474488,0 0.277275,-1.082792 0.572766,-2.162548 0.875341,-3.239268 -0.598066,-0.102207 -1.213334,0.03238 -1.80634,-0.101195 -0.09614,-0.334957 -0.05869,-0.689142 -0.06477,-1.033206 0.003,-3.911206 0.001,-7.8214 0.002,-11.7326066 0.02024,-1.6049606 -0.0425,-3.2129571 0.03339,-4.8169058 0.609197,-0.065777 1.22143,-0.085004 1.834675,-0.083992 -0.295491,-1.0787441 -0.597054,-2.1554642 -0.871293,-3.239268 -1.771934,-0.012144 -3.543867,-0.028335 -5.3158,-0.030359 -2.6918,4.8867307 -5.420031,9.7522102 -8.111831,14.6379292 -2.643227,-4.885719 -5.314788,-9.7562583 -7.96611,-14.6389412 -1.687941,0.00101 -3.376894,0.024287 -5.064835,0.027323 z"
     id="path8" />
  <path
     style="fill:#6A0032"
     inkscape:connector-curvature="0"
     d="m 54.113865,0.85371494 c 2.323448,0.002024 4.646897,0.003036 6.970346,0 0.35216,1.29429046 0.693189,2.59262876 1.055469,3.88388326 -0.657771,0.019227 -1.318578,-0.033394 -1.973313,0.045538 -0.02024,3.5013643 -0.003,7.0037408 -0.0091,10.5051048 0.01315,0.945166 -0.07995,1.921703 0.240845,2.83145 0.333945,1.067613 1.144521,1.954085 2.150405,2.43274 1.376258,0.66789 2.967052,0.76605 4.466769,0.581874 1.403582,-0.179116 2.829426,-0.806528 3.650122,-2.003671 0.52824,-0.765038 0.771109,-1.702108 0.759978,-2.627035 -0.0061,-3.905134 0.01214,-7.8112806 -0.0091,-11.7174269 -0.654735,-0.083992 -1.316553,-0.028335 -1.974324,-0.048574 0.361268,-1.2922665 0.703309,-2.5895928 1.056481,-3.88489522 2.261719,0.003036 4.523439,0.006072 6.78617,-0.002024 0.354185,1.29530243 0.695213,2.59364063 1.054457,3.88691913 -0.576814,0.00708 -1.152616,-0.00101 -1.728419,0.00607 -0.200367,-0.044526 -0.243881,0.1720323 -0.22263,0.3177538 -0.003,3.8120345 0.001,7.6250812 -0.001,11.4381272 0.004,1.752706 -0.395674,3.531723 -1.296314,5.04662 -0.876353,1.486562 -2.228325,2.672573 -3.787748,3.401181 -2.084627,0.989692 -4.448554,1.239644 -6.7295,1.077732 -1.976349,-0.142686 -3.96484,-0.664855 -5.629506,-1.767886 -1.466323,-0.961357 -2.61894,-2.390237 -3.237244,-4.030617 -0.452344,-1.153628 -0.632472,-2.393273 -0.664855,-3.626846 -0.01012,-3.937517 0.01316,-7.876046 -0.01214,-11.8135629 -0.654735,-0.080956 -1.31453,-0.030359 -1.9723,-0.048574 0.366327,-1.2902426 0.702296,-2.5895928 1.056481,-3.88388326 m 0.237809,0.32281366 c -0.277276,1.0838038 -0.577826,2.1625478 -0.871293,3.2423038 0.612233,0.015179 1.228513,-0.016191 1.834674,0.08804 0.06477,0.7245598 0.02631,1.4521554 0.03643,2.1787391 -0.001,3.1006301 0.001,6.2012604 -0.001,9.3018904 -0.01822,0.71444 0.04351,1.427868 0.137626,2.135225 0.261084,1.817471 1.067612,3.580297 2.396309,4.864468 1.467335,1.456203 3.465946,2.262731 5.484796,2.578461 2.067424,0.313706 4.212769,0.256025 6.231619,-0.31573 1.845806,-0.526217 3.575237,-1.583709 4.72583,-3.139084 1.208274,-1.598889 1.74967,-3.628871 1.740562,-5.616351 0.002,-3.776616 0.001,-7.5532317 0,-11.3298478 0.002,-0.2276898 0.03441,-0.4543678 0.07286,-0.6780098 0.588958,-0.065777 1.182976,-0.059705 1.774969,-0.066789 C 77.629675,3.3370525 77.3271,2.2583085 77.043753,1.1745047 c -2.101831,0 -4.203661,0.00101 -6.30448,0 -0.283347,1.0838038 -0.583898,2.1625478 -0.874329,3.2443277 0.612233,0.013155 1.228514,-0.012144 1.834675,0.091076 0.0678,0.6213403 0.04149,1.2467285 0.04453,1.8700928 0.001,3.3030211 -0.002,6.6060418 0.002,9.9090638 0.05161,1.270003 -0.328886,2.596676 -1.225478,3.523627 -1.046361,1.132378 -2.612868,1.617104 -4.114609,1.705144 -1.627224,0.08905 -3.365762,-0.138638 -4.72077,-1.111127 -1.184999,-0.829803 -1.840746,-2.278922 -1.84277,-3.707803 -0.004,-2.42768 0,-4.85536 -0.001,-7.2820279 0.02226,-1.6373431 -0.04655,-3.2767102 0.03744,-4.9120295 0.608185,-0.097148 1.224466,-0.071849 1.837711,-0.085004 -0.290432,-1.0817799 -0.593006,-2.160524 -0.872306,-3.2453397 -2.164571,0.00101 -4.329143,-0.00202 -6.492703,0.00202 z"
     id="path10" />
  <path
     style="fill:#6A0032"
     inkscape:connector-curvature="0"
     d="m 24.664962,1.1765286 c 1.687941,-0.00304 3.376894,-0.026311 5.064835,-0.027323 2.651322,4.8826829 5.322883,9.7532222 7.96611,14.6389412 2.6918,-4.885719 5.420031,-9.7511986 8.111831,-14.6379292 1.771933,0.00202 3.543866,0.018215 5.3158,0.030359 0.274239,1.0838038 0.575802,2.1605239 0.871293,3.239268 -0.613245,-0.00101 -1.225478,0.018215 -1.834675,0.083992 -0.0759,1.6039487 -0.01315,3.2119452 -0.03339,4.8169058 -0.001,3.9112066 0.001,7.8214006 -0.002,11.7326066 0.0061,0.344064 -0.03137,0.698249 0.06477,1.033206 0.593006,0.133578 1.208274,-0.001 1.80634,0.101195 -0.302575,1.07672 -0.598066,2.156476 -0.875341,3.239268 -2.1585,0.001 -4.317,0.003 -6.474488,0 -0.240846,-1.106067 -0.580863,-2.187847 -0.863198,-3.283794 0.608185,0.002 1.217382,0.02328 1.824555,-0.03137 0.04149,-0.28436 0.07994,-0.570743 0.07792,-0.858138 -0.0071,-3.878824 0.004,-7.756635 -0.0061,-11.6354588 -2.361903,4.1611588 -4.710651,8.3304138 -7.067494,12.4946088 -0.698249,-0.004 -1.39751,-0.01012 -2.095759,0.004 -2.244516,-4.019485 -4.483972,-8.042006 -6.711285,-12.070599 0.0091,3.801915 0.003,7.604842 0.003,11.406757 0.001,0.226678 0.03845,0.451332 0.08804,0.67295 0.585922,0.03036 1.172855,0.02226 1.758777,0.01619 -0.268168,1.101007 -0.594017,2.186835 -0.869269,3.285818 -2.039089,0.003 -4.078179,-0.0051 -6.116256,0.004 -0.292455,-1.093923 -0.614257,-2.178739 -0.872305,-3.280758 0.593005,-0.01012 1.186011,0.0091 1.778005,-0.03036 0.05363,-0.218582 0.09816,-0.4402 0.09715,-0.665866 -0.003,-5.127576 -0.001,-10.256164 -0.002,-15.3837401 -0.0051,-0.5272285 0.03947,-1.0625527 -0.07893,-1.5816856 -0.597053,-0.070837 -1.198155,-0.061729 -1.797232,-0.070837 0.276264,-1.0838038 0.578838,-2.1625478 0.871293,-3.2423038 m 0.63652,0.8712932 c -0.127506,0.5150851 -0.282336,1.0220746 -0.399722,1.5391836 0.509013,0.014167 1.16982,0.012144 1.441024,0.5322883 0.219594,0.5869339 0.210486,1.2345851 0.201379,1.8539016 -0.06375,0.673962 0.02935,1.348936 0.0051,2.0249219 -0.001,4.1156208 -0.01113,8.2312418 -0.001,12.3458508 -0.0051,0.687118 0.0425,1.399534 -0.180128,2.060341 -0.230725,0.580862 -0.947189,0.597053 -1.474418,0.612232 0.13459,0.519133 0.281324,1.03523 0.412878,1.555375 1.607996,0.002 3.217005,-0.0051 4.825001,0.003 0.13965,-0.521157 0.275252,-1.044337 0.429069,-1.562458 -0.482703,-0.0091 -1.088864,-0.0081 -1.38739,-0.459428 -0.212511,-0.39365 -0.210487,-0.861174 -0.235786,-1.296314 0.001,-3.912218 0.001,-7.824436 0.001,-11.7366544 -0.004,-0.9289747 0.01821,-1.8599733 -0.03744,-2.7879361 2.724183,4.8169055 5.394732,9.6651825 8.082484,14.5023275 0.384543,0.001 0.769086,0.001 1.153629,0.001 1.651511,-2.93467 3.313141,-5.863268 4.968699,-8.794901 1.157677,-2.040102 2.29309,-4.0923463 3.495293,-6.1061368 -0.137626,1.4966815 -0.05667,3.0014586 -0.07792,4.5021878 0,3.539819 -0.001,7.079637 0.001,10.618444 -0.01214,0.429069 -0.0172,0.920879 -0.335969,1.248752 -0.354184,0.308647 -0.857126,0.292455 -1.297326,0.309659 0.150781,0.517109 0.290431,1.037253 0.424009,1.55841 1.717288,0.001 3.433563,-0.004 5.150851,0.003 0.138638,-0.522169 0.275252,-1.044337 0.429069,-1.562458 -0.446272,-0.01214 -0.95731,-0.0051 -1.302386,-0.334958 -0.304599,-0.322813 -0.323826,-0.799444 -0.334957,-1.218393 0,-5.434199 0.001,-10.867385 -0.001,-16.3015834 0.01315,-0.4229972 0.02226,-0.90064 0.31573,-1.2366091 0.348112,-0.336981 0.871293,-0.313706 1.321613,-0.3309092 C 50.745066,3.079004 50.609464,2.5649308 50.472851,2.0508577 49.091532,1.9891285 47.708189,2.0053197 46.326871,1.9871045 43.431668,7.1571826 40.589086,12.357619 37.681739,17.520614 34.855349,12.343452 32.04515,7.1561707 29.209652,1.9840687 c -1.303398,0.00607 -2.605784,0.030359 -3.90817,0.063753 z"
     id="path12" />
  <path
     style="fill:#6A0032"
     inkscape:connector-curvature="0"
     d="m 54.351674,1.1765286 c 2.16356,-0.00405 4.328132,-0.00101 6.492703,-0.00202 0.2793,1.0848157 0.581874,2.1635598 0.872306,3.2453397 -0.613245,0.013155 -1.229526,-0.012143 -1.837711,0.085004 -0.08399,1.6353193 -0.01518,3.2746864 -0.03744,4.9120296 0.001,2.4266678 -0.003,4.8543478 0.001,7.2820278 0.002,1.428881 0.657771,2.878 1.84277,3.707803 1.355008,0.972489 3.093546,1.200179 4.72077,1.111127 1.501741,-0.08804 3.068248,-0.572766 4.114609,-1.705144 0.896592,-0.926951 1.277087,-2.253624 1.225478,-3.523627 -0.004,-3.303022 -0.001,-6.6060427 -0.002,-9.9090638 -0.003,-0.6233643 0.02327,-1.2487525 -0.04453,-1.8700928 -0.606161,-0.1032195 -1.222442,-0.077921 -1.834675,-0.091076 0.290431,-1.0817799 0.590982,-2.1605239 0.874329,-3.2443277 2.100819,0.00101 4.202649,0 6.30448,0 0.283347,1.0838038 0.585922,2.1625478 0.871293,3.2453397 -0.591993,0.00708 -1.186011,0.00101 -1.774969,0.066789 -0.03845,0.223642 -0.07084,0.45032 -0.07286,0.6780098 0.001,3.7766161 0.002,7.5532318 0,11.3298478 0.0091,1.98748 -0.532288,4.017462 -1.740562,5.616351 -1.150593,1.555375 -2.880024,2.612867 -4.72583,3.139084 -2.01885,0.571755 -4.164195,0.629436 -6.231619,0.31573 -2.01885,-0.31573 -4.017461,-1.122258 -5.484796,-2.578461 -1.328697,-1.284171 -2.135225,-3.046997 -2.396309,-4.864468 -0.09411,-0.707357 -0.155842,-1.420785 -0.137626,-2.135225 0.002,-3.10063 0,-6.2012603 0.001,-9.3018904 -0.01012,-0.7265837 0.02833,-1.4541793 -0.03643,-2.1787391 -0.606161,-0.1042314 -1.222441,-0.072861 -1.834674,-0.08804 0.293467,-1.079756 0.594017,-2.1585 0.871293,-3.2423038 m 0.647651,0.8672454 c -0.13459,0.517109 -0.270192,1.0332061 -0.419961,1.5462673 0.430081,0.016191 0.909747,-0.00405 1.265956,0.2782876 0.325849,0.3005506 0.353172,0.7812292 0.370375,1.1951188 0.002,3.8130465 -0.001,7.6250813 0.001,11.4371153 -0.001,1.582698 0.355196,3.192718 1.195119,4.547726 0.839923,1.369175 2.160524,2.407441 3.642026,3.006518 1.941942,0.80754 4.087286,0.921891 6.161794,0.783253 2.015814,-0.188223 4.050856,-0.873317 5.559681,-2.264755 1.131365,-1.039278 1.892356,-2.449943 2.216181,-3.946624 0.265132,-1.160713 0.238822,-2.360891 0.236798,-3.544879 0.001,-3.340463 -0.002,-6.6809267 0.001,-10.0213901 0.01518,-0.3997223 0.01821,-0.8662335 0.322813,-1.1677961 0.339005,-0.3167419 0.834863,-0.2823354 1.264944,-0.3025745 -0.141674,-0.5130612 -0.286383,-1.0261224 -0.411866,-1.5432314 -1.675797,0 -3.352607,0.00101 -5.028404,-0.00101 -0.126494,0.518121 -0.267156,1.0321941 -0.412878,1.5452553 0.451332,0.017203 0.983621,-0.011132 1.325661,0.3410288 0.283348,0.3400169 0.303587,0.8136119 0.312694,1.2355971 -0.002,3.8110225 0,7.6220449 -0.001,11.4330679 -0.01012,1.564482 -0.644616,3.146168 -1.84783,4.171278 -1.353996,1.187023 -3.20385,1.611033 -4.964652,1.621152 -1.74461,-0.01214 -3.581308,-0.405794 -4.939352,-1.564482 -1.231549,-1.027135 -1.859973,-2.642215 -1.868069,-4.224912 0,-3.845429 -0.001,-7.6898465 0,-11.5352755 0.01518,-0.3926385 0.03441,-0.831827 0.301563,-1.146545 0.349124,-0.3430527 0.880401,-0.3137061 1.334768,-0.3309093 -0.148757,-0.5120492 -0.286383,-1.0261224 -0.410853,-1.5442433 -1.735503,-0.00202 -3.472018,0.00405 -5.207521,-0.00304 z"
     id="path14" />
  <path
     style="fill:#6A0032"
     inkscape:connector-curvature="0"
     d="m 1.3920211,29.973732 c 24.9214159,0.001 49.8438439,0.003 74.7662709,0 -0.0061,0.41389 -0.0051,0.828791 -0.002,1.242681 -24.920403,-0.001 -49.841819,-0.001 -74.762223,0 0.00304,-0.41389 0.00405,-0.827779 -0.00202,-1.242681 z"
     id="path22" />
  <path
     style="fill:#6A0032"
     inkscape:connector-curvature="0"
     d="m 1.9809789,36.166897 c 0.3309093,-0.594018 1.0068952,-0.961358 1.6838931,-0.933023 0.5788383,-0.03947 1.1263059,0.188224 1.6140683,0.477643 -0.031371,0.36734 -0.1163749,0.725572 -0.1912595,1.085828 C 4.7395682,36.843895 4.74564,36.440124 4.5665239,36.246841 4.2700211,35.908848 3.7529121,35.897717 3.3531899,36.026235 c -0.5717546,0.214534 -0.7781934,0.867245 -0.832839,1.421797 -0.052622,0.659794 -0.049586,1.373223 0.2843594,1.965216 0.3177539,0.585922 1.2102982,0.731644 1.7031202,0.295491 0.2246541,-0.194295 0.202391,-0.66283 0.5869339,-0.611221 0.079944,0.370376 0.1598889,0.740751 0.1750683,1.121246 -0.6658664,0.45032 -1.530076,0.578839 -2.2991618,0.350137 C 2.1955134,40.320972 1.7482293,39.534683 1.6328664,38.768633 1.507384,37.89734 1.5347068,36.949138 1.9809789,36.166897 z"
     id="path24" />
  <path
     style="fill:#6A0032"
     inkscape:connector-curvature="0"
     d="m 47.889329,36.236722 c 0.302575,-0.590982 0.938083,-0.994752 1.603949,-0.999812 0.613245,-0.04756 1.235597,0.135602 1.733479,0.492822 0.01012,0.350136 -0.14471,0.712416 -0.193283,1.068625 -0.351149,0.03845 -0.341029,-0.370376 -0.527229,-0.562647 -0.300551,-0.32585 -0.809564,-0.336981 -1.205238,-0.208463 -0.571755,0.214534 -0.777182,0.866233 -0.832839,1.420785 -0.05363,0.682057 -0.05262,1.42888 0.324837,2.025934 0.393651,0.645627 1.590794,0.684081 1.864021,-0.08804 0.05667,-0.186199 0.173045,-0.311682 0.385555,-0.289419 0.07084,0.361268 0.14471,0.723548 0.221618,1.084816 -0.670926,0.482703 -1.560434,0.622352 -2.348747,0.386567 -0.740751,-0.238821 -1.193095,-0.976537 -1.315542,-1.71324 -0.151793,-0.870281 -0.126494,-1.819495 0.289419,-2.617927 z"
     id="path26" />
  <path
     style="fill:#6A0032"
     inkscape:connector-curvature="0"
     d="m 62.466541,35.445373 c 0.875341,-0.405794 1.911583,-0.195308 2.695848,0.316742 -0.0678,0.349124 -0.140661,0.697237 -0.21757,1.044337 -0.09006,-0.0071 -0.178104,-0.01417 -0.265132,-0.02024 -0.110303,-0.289419 -0.261085,-0.593006 -0.561635,-0.722536 -0.572767,-0.257036 -1.355008,-0.106255 -1.686929,0.459428 -0.382519,0.634496 -0.387579,1.419773 -0.285372,2.132189 0.08501,0.562647 0.427045,1.161724 1.027135,1.280123 0.382519,0.138638 0.769086,-0.02732 1.126306,-0.160901 0.002,-0.391626 -0.0051,-0.783253 0.01214,-1.173868 -0.121434,-0.123458 -0.281323,-0.185187 -0.44526,-0.224654 0.03137,-0.156853 0.05667,-0.314718 0.111315,-0.464487 0.489786,-0.02327 0.981596,0.003 1.473407,-0.01214 0.04149,0.159888 0.08298,0.320789 0.12447,0.482702 -0.143698,0.04554 -0.287395,0.09006 -0.431093,0.131554 -0.01923,0.392639 -0.01822,0.786289 -0.001,1.17994 0.04756,0.03441 0.142686,0.103219 0.190248,0.137626 -0.03441,0.13459 -0.06578,0.270192 -0.09411,0.406806 -0.521157,0.1609 -1.016003,0.452343 -1.577638,0.43008 -0.694201,0.05161 -1.437988,-0.16596 -1.892356,-0.716464 -0.583898,-0.686105 -0.657771,-1.650498 -0.577826,-2.51066 0.07893,-0.811588 0.500918,-1.651511 1.275063,-1.995575 z"
     id="path28" />
  <path
     style="fill:#6A0032"
     inkscape:connector-curvature="0"
     d="m 6.4558439,35.756043 c 0.037442,-0.152805 0.072861,-0.306622 0.1092912,-0.459428 1.0028474,0.0051 2.0056948,0.0051 3.0075302,0 0.00506,0.361268 0.00506,0.722536 0.00506,1.084816 -0.1264944,0.01518 -0.2519768,0.03036 -0.3784712,0.04655 -0.015179,-0.113339 -0.029347,-0.225666 -0.044526,-0.337993 -0.4533558,-0.235785 -0.9805844,-0.117387 -1.4683467,-0.135602 0.00405,0.525205 0.00607,1.049397 -0.00304,1.574602 0.3643038,0.02328 0.7458109,0.09512 1.103031,-0.01417 0.1558411,-0.03845 0.1619128,-0.224654 0.2216181,-0.342041 0.1082792,0.04857 0.2155464,0.101195 0.3207898,0.156853 -0.017203,0.356208 -0.024287,0.713428 0.024287,1.068624 -0.1163748,0.04351 -0.2337616,0.08804 -0.3501364,0.132567 -0.037442,-0.111316 -0.089052,-0.215547 -0.1538172,-0.311683 -0.383531,-0.07286 -0.7761695,-0.02935 -1.1637483,-0.02935 0.00607,0.58491 0.00607,1.16982 0,1.75473 0.4756189,0.004 0.9542736,0.03339 1.4288805,-0.01214 0.2418573,0.003 0.2863833,-0.284359 0.3734114,-0.452344 0.1103031,0.0051 0.2206062,0.01113 0.3309093,0.0172 0,0.374423 -0.020239,0.749858 -0.1001836,1.117198 -1.0514212,-0.01417 -2.1038544,-0.004 -3.1552756,-0.0051 -0.039466,-0.162925 -0.080956,-0.324837 -0.1224466,-0.485738 0.059705,-0.0081 0.179116,-0.02327 0.2388214,-0.03137 0.035418,-0.04857 0.1052433,-0.146733 0.1406617,-0.195307 0,-1.258872 0.00911,-2.518756 -0.00304,-3.776616 0.030359,-0.219595 -0.1953074,-0.309659 -0.361268,-0.364304 z"
     id="path30" />
  <path
     style="fill:#6A0032"
     inkscape:connector-curvature="0"
     d="m 11.037976,35.77021 c 0.05262,-0.154829 0.04655,-0.344064 0.173044,-0.462463 0.327874,-0.02125 0.657771,-0.0051 0.986657,-0.01012 0.598065,0.954274 1.160712,1.929798 1.74967,2.889132 0.17608,0.275252 0.297515,0.580862 0.396686,0.891532 -0.01923,-1.059517 0.01417,-2.120046 -0.02631,-3.178551 -0.11941,-0.04453 -0.237809,-0.08905 -0.356208,-0.132566 0.05161,-0.157865 0.101196,-0.314718 0.150781,-0.472583 0.397699,0.01214 0.795397,-0.0091 1.193095,0.01518 0.05768,0.143697 0.09917,0.293467 0.14977,0.441212 -0.175068,0.05869 -0.406806,0.137626 -0.380495,0.369364 -0.01113,1.506801 -0.004,3.013602 -0.002,4.520403 -0.206439,-0.003 -0.411866,-0.004 -0.617293,-0.004 -0.648663,-1.07672 -1.291254,-2.156476 -1.938906,-3.234208 -0.1609,-0.265133 -0.284359,-0.549492 -0.400734,-0.834863 0.05363,1.073684 0.0061,2.149392 0.03238,3.223076 -0.01316,0.221619 0.18114,0.307635 0.360256,0.36228 -0.0425,0.150782 -0.08298,0.303587 -0.122447,0.456392 -0.404782,-0.003 -0.809564,-0.003 -1.214346,0.004 -0.04554,-0.157865 -0.08703,-0.316742 -0.12953,-0.474607 0.115363,-0.04453 0.231738,-0.08905 0.347101,-0.132566 0.03036,-1.369175 0.03137,-2.741386 -0.001,-4.110561 -0.116375,-0.0425 -0.233762,-0.08399 -0.350137,-0.125483 z"
     id="path32" />
  <path
     style="fill:#6A0032"
     inkscape:connector-curvature="0"
     d="m 16.373003,35.320902 c 0.752894,-0.04453 1.507813,-0.01214 2.261719,-0.01923 0.498894,0 0.997788,-0.001 1.496682,-0.0081 0.09614,0.36228 0.112327,0.737716 0.110303,1.111127 -0.107267,0.0051 -0.213523,0.01214 -0.319778,0.01822 -0.07387,-0.143697 -0.105243,-0.325849 -0.248941,-0.420973 -0.312694,-0.08602 -0.641579,-0.04655 -0.961357,-0.05566 0.0081,1.2781 -0.0071,2.557211 0.0061,3.83531 -0.02833,0.22769 0.198343,0.312694 0.370375,0.373411 -0.04048,0.150782 -0.07893,0.302575 -0.116375,0.45538 -0.463475,-0.003 -0.92695,-0.003 -1.390426,0 -0.04149,-0.154829 -0.08399,-0.308646 -0.126494,-0.46044 0.188223,-0.04857 0.380495,-0.143697 0.377459,-0.366327 0.03137,-1.266968 -0.002,-2.535959 0.01518,-3.802927 -0.05363,-0.0172 -0.159889,-0.05161 -0.213522,-0.06881 -0.249953,0.02935 -0.503954,0.02833 -0.747835,0.08905 -0.155841,0.08399 -0.175068,0.2793 -0.250965,0.421985 -0.126494,-0.01113 -0.252988,-0.02226 -0.378471,-0.03238 0.04857,-0.356208 0.09209,-0.711405 0.116375,-1.069637 z"
     id="path34" />
  <path
     style="fill:#6A0032"
     inkscape:connector-curvature="0"
     d="m 21.166634,35.773246 c 0.04453,-0.159889 0.08804,-0.32079 0.135602,-0.479667 0.915819,0.07286 1.877176,-0.140661 2.758589,0.185188 0.976537,0.378471 1.124282,1.915631 0.265132,2.492445 -0.06679,0.0759 -0.232749,0.110303 -0.199355,0.238822 0.160901,0.184176 0.361268,0.3471 0.441213,0.586934 0.200367,0.441212 0.185187,1.008919 0.610208,1.318577 0.08197,-0.001 0.244893,-0.003 0.32585,-0.004 -0.04453,0.165961 -0.08905,0.331921 -0.133578,0.497882 -0.344065,-0.02732 -0.720512,0.05971 -1.04535,-0.04959 -0.513061,-0.516097 -0.409841,-1.344888 -0.806528,-1.929798 -0.243881,-0.353172 -0.725572,-0.21251 -1.086839,-0.243881 0.0051,0.53836 -0.01012,1.077732 0.01822,1.616092 0.118398,0.04655 0.236797,0.0931 0.355196,0.13965 -0.04857,0.156853 -0.09411,0.314718 -0.142686,0.471571 -0.454368,-0.0081 -0.908735,-0.0091 -1.363103,0.001 -0.04351,-0.154829 -0.08602,-0.309658 -0.127506,-0.464488 0.112327,-0.04554 0.221618,-0.09816 0.328885,-0.156853 0.06983,-0.408829 0.0253,-0.825755 0.03643,-1.23762 -0.01214,-0.954274 0.02631,-1.908548 -0.02328,-2.861809 -0.116375,-0.04048 -0.231737,-0.08096 -0.3471,-0.120423 m 1.266967,0.131554 c -0.001,0.610209 0,1.219406 -0.001,1.829615 0.357221,-0.0071 0.723548,0.03238 1.071661,-0.06983 0.645627,-0.261084 0.679022,-1.306434 0.07387,-1.628236 -0.358233,-0.1609 -0.763015,-0.121434 -1.144522,-0.131554 z"
     id="path36" />
  <path
     style="fill:#6A0032"
     inkscape:connector-curvature="0"
     d="m 27.482245,35.338105 c 0.633484,-0.07387 1.274051,-0.01417 1.910571,-0.04453 0.04453,0.158877 0.08905,0.316742 0.13459,0.475619 -0.111315,0.03643 -0.22263,0.07286 -0.333945,0.111315 0.3471,1.199167 0.739739,2.384166 1.095947,3.580297 0.06375,0.221618 0.156853,0.433117 0.262096,0.638544 0.07286,0.0051 0.218583,0.01518 0.291443,0.01923 -0.0425,0.162925 -0.08298,0.326861 -0.123458,0.490798 -0.459428,-0.002 -0.918855,-0.002 -1.378283,0 -0.04048,-0.157865 -0.08096,-0.31573 -0.123458,-0.471571 0.06881,-0.01518 0.206439,-0.04554 0.275251,-0.05971 0.05262,-0.360256 -0.151793,-0.692178 -0.229713,-1.034218 -0.594018,-0.003 -1.187024,0.003 -1.780029,-0.0051 -0.112327,0.31573 -0.229714,0.633484 -0.284359,0.966417 0.101195,0.06274 0.210486,0.108279 0.327873,0.137626 -0.0425,0.155841 -0.08298,0.312694 -0.125482,0.468535 -0.407818,-0.0051 -0.814624,-0.0051 -1.22143,0 -0.04351,-0.156853 -0.08703,-0.312694 -0.130542,-0.467523 0.188223,-0.03036 0.385554,-0.109291 0.425021,-0.318766 0.415913,-1.310482 0.825755,-2.623999 1.224465,-3.940553 -0.110303,-0.03845 -0.219594,-0.07488 -0.328885,-0.110303 0.03744,-0.145721 0.07489,-0.291443 0.112327,-0.436153 m 0.863198,0.438177 c -0.06072,0.902664 -0.467524,1.733479 -0.692178,2.602748 0.484727,-0.003 0.970465,-0.0051 1.456204,0.001 -0.261085,-0.862185 -0.561635,-1.716275 -0.717477,-2.606796 l -0.04655,0.003 z"
     id="path38" />
  <path
     style="fill:#6A0032"
     inkscape:connector-curvature="0"
     d="m 31.684894,35.771222 c 0.04756,-0.159889 0.0931,-0.319778 0.138638,-0.479666 0.438176,0.02226 0.878377,-0.0091 1.316553,0.0172 0.129531,0.113339 0.127507,0.307634 0.187212,0.459427 -0.119411,0.0425 -0.238821,0.08501 -0.356208,0.128519 -0.03947,1.344888 -0.0051,2.690788 -0.01923,4.036688 0.49687,-0.0172 0.997787,0.03542 1.491621,-0.03643 0.189236,-0.09209 0.208463,-0.322814 0.280312,-0.494846 0.128518,0.03542 0.258048,0.07084 0.387579,0.108279 -0.04048,0.366328 -0.08905,0.732655 -0.13459,1.099995 -1.052434,-0.001 -2.104867,-0.0081 -3.1573,0.004 -0.04351,-0.153817 -0.085,-0.308646 -0.127506,-0.461452 0.111315,-0.04959 0.220606,-0.104231 0.327873,-0.163936 0.06679,-0.371388 0.02631,-0.750871 0.03542,-1.126306 -0.01113,-0.98868 0.02327,-1.978372 -0.02024,-2.967052 -0.117386,-0.0425 -0.233761,-0.08399 -0.350136,-0.124471 z"
     id="path40" />
  <path
     style="fill:#6A0032"
     inkscape:connector-curvature="0"
     d="m 38.010625,35.302687 c 0.332933,-0.001 0.66789,-0.01821 1.001835,0.0061 0.115363,0.04048 0.141674,0.180128 0.205427,0.272216 0.420973,0.872305 0.878377,1.726395 1.285183,2.605784 l 0.08197,-0.0061 c 0.474607,-0.970465 0.956298,-1.936882 1.472395,-2.885084 0.367339,-0.002 0.735691,-0.001 1.101007,0.03845 0.02429,0.139649 0.0506,0.279299 0.07792,0.419961 -0.158877,0.07691 -0.39871,0.137626 -0.349124,0.369364 -0.01316,1.216369 -0.01113,2.434763 -0.001,3.651133 -0.04756,0.233762 0.196319,0.308646 0.36228,0.384543 -0.03947,0.142686 -0.0678,0.290431 -0.121435,0.429069 -0.448296,0.04857 -0.901652,0.0071 -1.351972,0.02024 -0.02125,-0.151793 -0.0425,-0.302574 -0.06173,-0.452344 0.111315,-0.07488 0.223642,-0.147745 0.336981,-0.219594 -0.01012,-1.105055 -0.01923,-2.21011 0.01113,-3.315165 -0.402758,0.936059 -0.918856,1.817472 -1.372211,2.729243 -0.122447,-0.001 -0.243882,-0.002 -0.365316,-0.002 -0.417938,-0.897604 -0.941118,-1.745622 -1.302386,-2.669537 0.02125,1.053445 -0.0081,2.107902 0.01923,3.161347 -0.0051,0.195308 0.208463,0.245905 0.348112,0.31573 -0.04554,0.151793 -0.08602,0.304599 -0.126494,0.458416 -0.416925,-0.0081 -0.833851,-0.0081 -1.249764,-0.0051 -0.03947,-0.154829 -0.07792,-0.308646 -0.117387,-0.461451 0.239833,-0.03441 0.405794,-0.214535 0.385555,-0.461452 0.0071,-1.153629 0.0071,-2.308269 0.001,-3.461898 0.02024,-0.247929 -0.14471,-0.432105 -0.386567,-0.463475 0.03845,-0.152806 0.07691,-0.305611 0.115363,-0.458416 z"
     id="path42" />
  <path
     style="fill:#6A0032"
     inkscape:connector-curvature="0"
     d="m 44.709767,35.317866 c 0.467523,-0.02935 0.936058,-0.01822 1.404593,-0.0172 0.03845,0.152805 0.07792,0.305611 0.118399,0.459428 -0.241857,0.03643 -0.399722,0.20745 -0.384543,0.454368 -0.01417,1.158688 -0.01417,2.317376 0,3.476065 -0.01518,0.247929 0.142686,0.419961 0.384543,0.458416 -0.04149,0.152805 -0.08197,0.307634 -0.121434,0.462463 -0.463476,-0.0051 -0.927963,-0.003 -1.391439,-0.003 -0.04149,-0.161913 -0.08399,-0.324837 -0.127506,-0.484726 0.06072,-0.0081 0.182152,-0.02429 0.242869,-0.03339 0.03441,-0.04756 0.101196,-0.142685 0.13459,-0.191259 0.001,-1.259884 0.01012,-2.52078 -0.002,-3.781676 0.03137,-0.226678 -0.199355,-0.303587 -0.366327,-0.36228 0.03643,-0.145722 0.07286,-0.291443 0.108279,-0.437165 z"
     id="path44" />
  <path
     style="fill:#6A0032"
     inkscape:connector-curvature="0"
     d="m 52.496761,35.325962 c 0.468535,-0.0425 0.938082,-0.0253 1.408641,-0.0253 0.03845,0.153817 0.08096,0.307634 0.122446,0.461452 -0.11435,0.03845 -0.22263,0.08703 -0.324837,0.146733 -0.07488,0.522169 -0.02024,1.051421 -0.03542,1.576626 0.654735,-0.001 1.308458,-0.003 1.963193,0.001 -0.004,-0.531276 0.01113,-1.062553 -0.01923,-1.591805 -0.117387,-0.0425 -0.234774,-0.08399 -0.351148,-0.124471 0.04655,-0.158877 0.09209,-0.317754 0.141673,-0.475619 0.453356,0.0091 0.906712,0.0091 1.360068,-0.002 0.0425,0.158877 0.08602,0.317754 0.135602,0.476631 -0.118399,0.0425 -0.234774,0.08602 -0.351149,0.130542 -0.03036,1.368164 -0.03137,2.738351 0,4.106514 0.115363,0.04351 0.231738,0.08804 0.349125,0.132566 -0.04554,0.157865 -0.08804,0.316742 -0.12953,0.475619 -0.456392,-0.0091 -0.911772,-0.01012 -1.367152,-0.001 -0.04655,-0.157865 -0.09108,-0.316742 -0.13459,-0.474607 0.115363,-0.04351 0.231738,-0.08804 0.349125,-0.131554 0.03036,-0.604137 0.01113,-1.208274 0.01821,-1.812412 -0.668902,0.004 -1.336792,-0.0051 -2.003671,0.0071 0.02833,0.598066 -0.05869,1.209286 0.08602,1.797232 0.09614,0.06173 0.201379,0.111315 0.312695,0.147746 -0.04048,0.152805 -0.08096,0.306622 -0.119411,0.460439 -0.470559,0.001 -0.940106,0 -1.410665,0.002 -0.02125,-0.150781 -0.04048,-0.300551 -0.05971,-0.45032 0.110303,-0.07792 0.224654,-0.151793 0.339005,-0.225666 -0.02024,-1.273039 0.0071,-2.545067 -0.01214,-3.817094 0.03441,-0.221618 -0.198344,-0.303587 -0.360256,-0.359244 0.03137,-0.14471 0.06274,-0.288407 0.0931,-0.431093 z"
     id="path46" />
  <path
     style="fill:#6A0032"
     inkscape:connector-curvature="0"
     d="m 58.240617,35.755031 c 0.04351,-0.152805 0.08804,-0.30561 0.132566,-0.457404 0.46044,0.003 0.921891,0.003 1.384355,0 0.03845,0.151794 0.07792,0.303587 0.120422,0.456392 -0.170008,0.06173 -0.377459,0.125482 -0.368351,0.347101 -0.01619,1.231549 -0.01518,2.465122 -0.001,3.696671 -0.01113,0.223642 0.192271,0.296503 0.368351,0.355196 -0.04048,0.151794 -0.07994,0.303587 -0.117386,0.456392 -0.464488,-0.002 -0.927963,-0.002 -1.391439,0 -0.0425,-0.152805 -0.08399,-0.30561 -0.125482,-0.457404 0.178104,-0.05566 0.377459,-0.12953 0.373411,-0.35216 0.01619,-1.230537 0.01619,-2.463098 0,-3.692624 0.0051,-0.223642 -0.198343,-0.297514 -0.375435,-0.35216 z"
     id="path48" />
  <path
     style="fill:#6A0032"
     inkscape:connector-curvature="0"
     d="m 67.509113,35.776282 c 0.04453,-0.160901 0.09006,-0.321802 0.135602,-0.481691 0.609197,0.01822 1.219406,-0.01214 1.828603,0.01316 0.163936,0.100183 0.116374,0.330909 0.174056,0.49181 -0.07185,0.001 -0.215547,0.003 -0.287395,0.004 0.02429,0.283347 0.09917,0.558599 0.190247,0.826767 0.348113,1.070648 0.653723,2.155464 1.010943,3.222065 0.03845,0.192271 0.238822,0.237809 0.396687,0.299538 -0.05363,0.146734 -0.01113,0.354185 -0.158877,0.45032 -0.437165,0.02024 -0.875341,-0.002 -1.313518,0.0091 -0.04351,-0.155841 -0.08602,-0.309658 -0.12953,-0.464487 0.111315,-0.03441 0.216558,-0.08096 0.317754,-0.13965 -0.05971,-0.332933 -0.177092,-0.650687 -0.286384,-0.968441 -0.594017,0.0081 -1.187023,0.003 -1.78104,0.004 -0.109291,0.344064 -0.23781,0.688129 -0.255013,1.053445 0.07994,0.0051 0.240845,0.01619 0.32079,0.02125 -0.04554,0.162925 -0.08804,0.327873 -0.129531,0.49181 -0.409841,-0.002 -0.818671,-0.003 -1.226489,0.003 -0.0425,-0.154829 -0.08096,-0.309658 -0.119411,-0.463475 0.158877,-0.05566 0.365316,-0.09614 0.401746,-0.294479 0.401747,-1.223454 0.768074,-2.459051 1.156665,-3.687564 0.085,-0.206439 0.02226,-0.438177 -0.245905,-0.390615 m 0.26412,2.607808 c 0.486751,-0.01214 0.973501,-0.0061 1.461263,-0.0071 -0.237809,-0.892544 -0.58997,-1.757765 -0.699261,-2.680668 -0.146733,0.921891 -0.475618,1.802291 -0.762002,2.687752 z"
     id="path50" />
  <path
     style="fill:#6A0032"
     inkscape:connector-curvature="0"
     d="m 71.922249,35.334058 c 0.35216,-0.03441 0.708368,-0.06072 1.061541,-0.01923 0.379483,0.543419 0.686105,1.136425 1.041301,1.69806 0.387579,0.674974 0.84903,1.312506 1.127318,2.045161 -0.04857,-0.979572 -0.0081,-1.961169 -0.02935,-2.940741 0.02631,-0.224654 -0.200367,-0.301563 -0.366327,-0.36228 0.03542,-0.143698 0.07084,-0.286383 0.106255,-0.429069 0.406806,-0.03441 0.815636,-0.02833 1.224466,-0.03137 0.04554,0.152806 0.0931,0.304599 0.144709,0.457404 -0.175068,0.05363 -0.39871,0.147745 -0.364304,0.374423 -0.01417,1.503766 -0.0051,3.008543 -0.004,4.512308 -0.210486,-0.002 -0.420973,-0.003 -0.629436,-0.002 -0.645627,-1.099995 -1.309469,-2.188859 -1.961168,-3.284806 -0.143698,-0.246917 -0.257037,-0.508001 -0.363292,-0.77111 0.05262,1.139462 -0.003,2.281959 0.03845,3.42142 0.115363,0.04655 0.231738,0.09209 0.349125,0.138638 -0.04959,0.156853 -0.09512,0.31573 -0.142686,0.473595 -0.410854,-0.0081 -0.819684,-0.0081 -1.229525,-0.0051 -0.01923,-0.151793 -0.03744,-0.303586 -0.05465,-0.454368 0.109291,-0.07691 0.22263,-0.150781 0.335969,-0.223642 -0.02024,-1.270003 0.0061,-2.542031 -0.01214,-3.812034 0.03441,-0.22263 -0.195308,-0.308647 -0.360256,-0.363292 0.02935,-0.140662 0.05869,-0.282336 0.08804,-0.421985 z"
     id="path52" />
  <path
     style="fill:#6A0032"
     inkscape:connector-curvature="0"
     d="m 46.252998,44.114791 c 0.741763,-0.464487 1.678834,-0.228702 2.416549,0.122447 -0.06274,0.323825 -0.131554,0.645627 -0.204415,0.967429 -0.09108,-0.0091 -0.182152,-0.0172 -0.271204,-0.02429 -0.19126,-0.560623 -0.85915,-0.871293 -1.401558,-0.617293 -0.49181,0.198343 -0.566695,0.9988 -0.09006,1.255836 0.475619,0.273228 1.068625,0.266145 1.518945,0.601102 0.907723,0.595029 0.79742,2.142308 -0.142686,2.654358 -0.81766,0.468535 -1.827591,0.195307 -2.586557,-0.261085 0.07792,-0.341029 0.149769,-0.683069 0.225666,-1.024098 0.383531,-0.03036 0.369364,0.432105 0.613245,0.61628 0.358232,0.28942 0.905699,0.395675 1.30947,0.13459 0.4402,-0.268168 0.495857,-1.006895 0.05869,-1.303398 -0.482703,-0.311682 -1.116186,-0.282335 -1.569542,-0.654735 -0.81766,-0.571754 -0.733668,-1.9723 0.123458,-2.467146 z"
     id="path54" />
  <path
     style="fill:#6A0032"
     inkscape:connector-curvature="0"
     d="m 16.543011,43.942759 c 0.473595,0.0071 0.94719,0.0061 1.420785,0.003 0.03643,0.146733 0.0759,0.293467 0.117387,0.439188 -0.106255,0.03744 -0.212511,0.0759 -0.318766,0.114351 -0.125482,0.676998 -0.03542,1.369175 -0.06173,2.053257 0.02631,0.547467 -0.106255,1.156664 0.203403,1.648474 0.175068,0.28942 0.535324,0.333946 0.833851,0.409842 0.484726,-0.07185 0.927962,-0.425021 0.943142,-0.945166 0.02328,-1.049397 0.02935,-2.102842 -0.0081,-3.15224 -0.108279,-0.02935 -0.215546,-0.05768 -0.323825,-0.08602 0.0253,-0.160901 0.05262,-0.320789 0.07994,-0.480678 0.452344,0.001 0.906712,0 1.360068,0.001 0.02024,0.149769 0.04048,0.30055 0.05971,0.451332 -0.131554,0.07286 -0.360256,0.122446 -0.323826,0.326861 -0.02429,0.949214 0.0071,1.89944 -0.01214,2.848653 -0.01923,0.651699 -0.36734,1.333757 -0.997788,1.581686 -0.76099,0.308646 -1.768897,0.203403 -2.312317,-0.459428 -0.382519,-0.454367 -0.409842,-1.078744 -0.409842,-1.644426 0.01113,-0.60515 -0.01518,-1.211311 0.02631,-1.815448 -0.02024,-0.247929 -0.03744,-0.494846 -0.06173,-0.740751 -0.108279,-0.02328 -0.216559,-0.04453 -0.323826,-0.06679 0.03542,-0.162925 0.07185,-0.324837 0.109291,-0.48675 z"
     id="path56" />
  <path
     style="fill:#6A0032"
     inkscape:connector-curvature="0"
     d="m 22.234246,43.946807 c 0.358232,0.001 0.716464,-0.001 1.074696,0.0051 0.579851,0.98868 1.17994,1.966229 1.768898,2.950861 0.150781,0.254001 0.263108,0.528241 0.374423,0.802481 -0.07286,-1.067613 0.06881,-2.146357 -0.08703,-3.204862 -0.106255,-0.03339 -0.211499,-0.06679 -0.316742,-0.100184 0.04048,-0.151793 0.08096,-0.302574 0.120423,-0.453355 0.418949,0.002 0.837899,0 1.256848,0.001 0.03036,0.159889 0.06072,0.320789 0.09209,0.480678 -0.109291,0.0253 -0.217571,0.0506 -0.32585,0.07691 -0.06375,1.585733 -0.01619,3.175515 -0.0253,4.763272 -0.213522,-0.002 -0.426033,-0.002 -0.638543,-0.002 -0.481691,-0.825755 -0.980585,-1.641391 -1.468347,-2.463098 -0.302574,-0.519133 -0.661818,-1.014991 -0.834863,-1.597877 0.02024,1.087851 -0.0061,2.175703 0.01822,3.262543 -0.03339,0.205426 0.195308,0.247929 0.336981,0.31067 -0.03238,0.152805 -0.06375,0.306622 -0.09614,0.460439 -0.415914,-0.002 -0.832839,-0.002 -1.248753,0.001 -0.03744,-0.163936 -0.07691,-0.326861 -0.115363,-0.488774 0.0759,-0.01113 0.228702,-0.03238 0.304599,-0.0425 0.138638,-0.574791 0.05363,-1.16982 0.0759,-1.75473 -0.03238,-0.81766 0.07185,-1.646451 -0.06578,-2.456015 -0.105243,-0.03542 -0.210486,-0.06983 -0.314718,-0.104231 0.03845,-0.14977 0.07691,-0.298527 0.114351,-0.447284 z"
     id="path58" />
  <path
     style="fill:#6A0032"
     inkscape:connector-curvature="0"
     d="m 27.912326,43.948831 c 0.479666,-0.002 0.960345,-0.002 1.441024,-0.001 0.02833,0.1609 0.05869,0.321801 0.08804,0.483714 -0.108279,0.02125 -0.216559,0.04351 -0.323826,0.06679 -0.07084,0.851054 -0.01822,1.706156 -0.03441,2.559234 0.0081,0.547468 -0.03036,1.09696 0.0425,1.642403 0.107267,0.01619 0.215546,0.03339 0.322813,0.0506 -0.03845,0.163937 -0.07691,0.328885 -0.116374,0.493834 -0.472583,-0.01012 -0.945166,-0.0051 -1.416737,-0.0061 -0.02327,-0.164948 -0.04655,-0.330909 -0.0678,-0.494846 0.06375,-0.0071 0.192271,-0.02024 0.257036,-0.02631 0.05566,-0.210487 0.09411,-0.427045 0.085,-0.644616 -0.01316,-1.116186 0.01113,-2.233384 -0.01113,-3.348559 0.03339,-0.201379 -0.19126,-0.251977 -0.322814,-0.323825 0.0172,-0.151794 0.03643,-0.301563 0.05667,-0.451332 z"
     id="path60" />
  <path
     style="fill:#6A0032"
     inkscape:connector-curvature="0"
     d="m 30.379472,43.948831 c 0.481691,-0.002 0.963381,0 1.44406,-0.002 0.03947,0.144709 0.08096,0.289419 0.125482,0.43514 -0.109291,0.0425 -0.218582,0.08501 -0.326861,0.128519 0.30055,1.302386 0.84903,2.540007 1.070648,3.862632 0.185188,-1.340841 0.855102,-2.559234 1.108091,-3.88186 -0.07084,-0.01518 -0.212511,-0.04351 -0.283347,-0.05869 0.01822,-0.161913 0.03947,-0.323826 0.06072,-0.484726 0.437164,-0.001 0.875341,0.002 1.313517,-0.004 0.03845,0.162925 0.07893,0.326861 0.117387,0.490798 -0.106255,0.01315 -0.211498,0.02631 -0.316742,0.03947 -0.226678,0.482703 -0.360256,1.000824 -0.5333,1.503765 -0.356208,1.09696 -0.726584,2.188859 -1.07166,3.288854 -0.309659,0.001 -0.618305,0.001 -0.926951,0.002 -0.518121,-1.594841 -0.982608,-3.207897 -1.554363,-4.784523 -0.107267,-0.0172 -0.214534,-0.03542 -0.32079,-0.05161 0.03036,-0.161913 0.06274,-0.322814 0.09411,-0.483714 z"
     id="path62" />
  <path
     style="fill:#6A0032"
     inkscape:connector-curvature="0"
     d="m 35.909806,43.946807 c 1.007907,0.001 2.015815,0.003 3.023722,-0.001 -0.0071,0.349124 -0.0071,0.699261 0.001,1.049397 -0.126495,0.03542 -0.251977,0.07185 -0.376448,0.109291 -0.02125,-0.13459 -0.0425,-0.26918 -0.06375,-0.402758 -0.451332,-0.194295 -0.948202,-0.107267 -1.42382,-0.123458 0.001,0.537348 0.001,1.073684 0,1.611032 0.421985,-0.07185 1.136425,0.22769 1.285182,-0.348113 0.112327,0.04554 0.280312,0.03137 0.329898,0.170009 0.02226,0.339005 0.0051,0.679022 0.01315,1.019039 -0.115363,0.04453 -0.231738,0.08703 -0.3471,0.12953 -0.05363,-0.127507 -0.08905,-0.308646 -0.256025,-0.326862 -0.340017,-0.04351 -0.685094,-0.01417 -1.027134,-0.02327 0.03036,0.597054 -0.0506,1.196131 0.002,1.792173 0.539372,-0.02024 1.091899,0.06274 1.618116,-0.0931 0.04959,-0.14977 0.101195,-0.299539 0.151793,-0.448296 0.126494,0.04048 0.252989,0.08298 0.380495,0.125482 -0.05465,0.349125 -0.09614,0.699261 -0.119411,1.052433 -1.069636,0 -2.139273,0 -3.208909,0 -0.0172,-0.166972 -0.03339,-0.333945 -0.04756,-0.498893 0.06173,-0.0061 0.185188,-0.01822 0.246917,-0.02327 0.05262,-0.210487 0.09411,-0.425022 0.085,-0.642592 -0.01316,-1.115174 0.01113,-2.231361 -0.01113,-3.346535 0.0172,-0.211499 -0.22769,-0.270192 -0.363292,-0.36734 0.03744,-0.137626 0.07387,-0.275251 0.107267,-0.412877 z"
     id="path64" />
  <path
     style="fill:#6A0032"
     inkscape:connector-curvature="0"
     d="m 40.488903,43.947819 c 0.643603,0.002 1.287206,-0.004 1.93081,0.001 0.45032,0 0.922903,0.112327 1.263931,0.422997 0.705333,0.66789 0.525205,2.066412 -0.43008,2.411489 0.56973,0.356208 0.646639,1.050409 0.856114,1.626211 0.085,0.261085 0.365315,0.335969 0.608184,0.363292 -0.04048,0.155841 -0.07994,0.312694 -0.11941,0.469547 -0.351149,-0.0061 -0.703309,-0.0051 -1.054457,-0.003 -0.464488,-0.555563 -0.425021,-1.331732 -0.779206,-1.936882 -0.234773,-0.384542 -0.732655,-0.268168 -1.109102,-0.288407 0.01012,0.487763 -0.0172,0.975525 0.01315,1.463287 -0.03845,0.203403 0.208463,0.230726 0.333945,0.303587 -0.02732,0.152805 -0.05566,0.30561 -0.08399,0.458415 -0.474607,-0.002 -0.949214,-0.002 -1.423821,0 -0.03036,-0.153817 -0.06072,-0.307634 -0.08905,-0.461451 0.147746,-0.05869 0.377459,-0.105243 0.344065,-0.31573 0.0071,-1.317566 0.04048,-2.638167 -0.02024,-3.95472 -0.109291,-0.02732 -0.217571,-0.05262 -0.32585,-0.07893 0.02732,-0.160901 0.05667,-0.320789 0.08501,-0.480678 m 1.166784,0.615268 c 0.002,0.607173 0.002,1.214346 0,1.821519 0.430081,-0.01821 0.922903,0.07185 1.287206,-0.215546 0.397699,-0.359244 0.388591,-1.08684 -0.02935,-1.426857 -0.364304,-0.262096 -0.839923,-0.155841 -1.25786,-0.179116 z"
     id="path66" />
  <path
     style="fill:#6A0032"
     inkscape:connector-curvature="0"
     d="m 50.220874,43.948831 c 0.480678,-0.002 0.961357,-0.003 1.442036,0.001 0.0172,0.149769 0.03441,0.299538 0.0506,0.450319 -0.132566,0.07286 -0.361268,0.121435 -0.323825,0.32585 -0.01214,1.2528 -0.02125,2.506613 0.004,3.758401 -0.02226,0.188224 0.202391,0.219594 0.321801,0.295491 -0.01923,0.152805 -0.03845,0.30561 -0.05667,0.458415 -0.472583,0 -0.944154,-0.004 -1.415725,0.0061 -0.04351,-0.164949 -0.085,-0.327873 -0.125483,-0.49181 0.10828,-0.01923 0.217571,-0.03744 0.326862,-0.05465 0.07488,-0.680033 0.02429,-1.364115 0.03947,-2.046173 -0.01315,-0.717476 0.02935,-1.436976 -0.03137,-2.15344 -0.110303,-0.02327 -0.218582,-0.04554 -0.326861,-0.0678 0.03137,-0.160901 0.06274,-0.321802 0.09512,-0.48169 z"
     id="path68" />
  <path
     style="fill:#6A0032"
     inkscape:connector-curvature="0"
     d="m 52.792251,43.945795 c 1.263932,0.0051 2.528876,0 3.79382,0.002 0.03542,0.358232 0.07084,0.716464 0.09108,1.07672 -0.08804,0.02226 -0.263109,0.06679 -0.351149,0.08905 -0.04149,-0.13965 -0.08298,-0.278288 -0.123458,-0.416926 -0.340017,-0.152805 -0.71444,-0.11941 -1.07672,-0.121434 0.0051,1.199166 0.003,2.399345 0,3.598512 -0.0071,0.186199 0.0425,0.366327 0.09006,0.545443 0.06274,0.0061 0.188223,0.0172 0.250964,0.02226 -0.02024,0.164949 -0.04048,0.33091 -0.06072,0.49687 -0.472583,0 -0.944154,-0.003 -1.415725,0.0051 -0.0425,-0.164949 -0.08399,-0.328885 -0.12447,-0.492822 0.107267,-0.0172 0.215546,-0.03441 0.324837,-0.0506 0.09006,-1.372211 0.0172,-2.750493 0.03947,-4.12574 -0.296502,0.0081 -0.597053,-0.01821 -0.888496,0.04351 -0.198343,0.08096 -0.235786,0.304598 -0.296503,0.483714 -0.0931,-0.01821 -0.277276,-0.05363 -0.369363,-0.07084 0.03238,-0.362279 0.08399,-0.722535 0.116374,-1.084815 z"
     id="path70" />
  <path
     style="fill:#6A0032"
     inkscape:connector-curvature="0"
     d="m 57.344025,43.946807 c 0.489786,0.002 0.980584,0.001 1.471383,0 0.03036,0.160901 0.05971,0.321801 0.09006,0.484726 -0.07489,0.01417 -0.225666,0.04351 -0.300551,0.05869 0.173044,0.689142 0.650687,1.250777 0.920879,1.902476 0.02834,0.0091 0.08298,0.02833 0.110303,0.03845 0.316742,-0.642591 0.748847,-1.229525 0.985644,-1.908547 -0.118398,-0.04756 -0.234773,-0.09512 -0.351148,-0.142686 0.0425,-0.143697 0.085,-0.288407 0.125482,-0.433116 0.427045,0.001 0.85409,0.001 1.282147,0 0.03643,0.138637 0.07489,0.277275 0.116375,0.415913 -0.175068,0.09209 -0.361268,0.19126 -0.449308,0.379483 -0.449308,0.798433 -0.906712,1.592817 -1.344888,2.39631 -0.08197,0.433116 -0.03238,0.887484 -0.02732,1.327685 -0.03441,0.208462 0.196319,0.249953 0.342041,0.311682 -0.03238,0.153817 -0.06274,0.306622 -0.09411,0.460439 -0.478655,0 -0.956297,0.002 -1.434952,-0.0051 -0.02226,-0.151794 -0.04351,-0.302575 -0.06375,-0.452344 0.118398,-0.07792 0.36228,-0.09917 0.329897,-0.296503 0.02935,-0.439189 0.0091,-0.880401 0.0061,-1.319589 -0.535324,-0.876353 -0.992728,-1.798244 -1.53716,-2.667514 -0.09917,-0.03137 -0.197331,-0.06173 -0.294479,-0.09209 0.03845,-0.153817 0.07792,-0.306622 0.117387,-0.458415 z"
     id="path72" />
</svg>