<svg width="172" height="43" viewBox="0 0 172 43" fill="none" xmlns="http://www.w3.org/2000/svg">
<g clip-path="url(#clip0_649_1004)">
<path d="M63.7104 0.687012V11.8252C63.7104 14.2738 62.9952 16.2447 61.5648 17.7377C60.1345 19.2308 58.1379 19.9474 55.5454 19.9474C52.9529 19.9474 50.9564 19.2009 49.526 17.7377C48.0957 16.2745 47.3805 14.3037 47.3805 11.8252V0.687012H51.1352V11.7655C51.1352 13.1988 51.5226 14.3634 52.2675 15.2294C53.0423 16.0953 54.1151 16.5433 55.5156 16.5433C56.9162 16.5433 58.0485 16.0953 58.8233 15.2294C59.5981 14.3634 59.9557 13.1988 59.9557 11.7655V0.687012H63.7104Z" fill="#003946"/>
<path d="M77.9543 7.16678C78.878 8.24178 79.325 9.73483 79.325 11.5862V19.5591H75.7789V12.2432C75.7789 11.1682 75.5406 10.3619 75.034 9.73483C74.5274 9.10775 73.8122 8.839 72.8586 8.839C71.9051 8.839 71.0707 9.19733 70.4747 9.914C69.8787 10.6307 69.5808 11.5862 69.5808 12.8105V19.5591H66.0347V5.91261H69.5808V7.64455C70.6833 6.24108 72.1435 5.52441 73.9612 5.52441C75.7789 5.52441 77.0305 6.06191 77.9543 7.16678Z" fill="#003946"/>
<path d="M81.8878 5.9126H85.4636V19.5591H81.8878V5.9126Z" fill="#003946"/>
<path d="M102.121 5.9126L96.4893 19.5591H92.4664L86.8344 5.9126H90.7381L94.4928 15.6175L98.2176 5.9126H102.121Z" fill="#003946"/>
<path d="M103.939 17.9467C102.568 16.6328 101.883 14.9009 101.883 12.721C101.883 10.5412 102.539 8.92866 103.85 7.55505C105.161 6.18143 106.889 5.49463 109.005 5.49463C111.121 5.49463 112.879 6.15157 114.16 7.49532C115.412 8.83907 116.037 10.5113 116.037 12.512C116.037 13.0495 116.008 13.4974 115.948 13.7662H105.369C105.489 14.6919 105.876 15.4384 106.561 16.0057C107.217 16.5731 108.141 16.8419 109.333 16.8419C110.912 16.8419 112.015 16.2446 112.64 15.0502L115.859 16.0057C115.412 17.021 114.607 17.9467 113.475 18.7231C112.342 19.4995 110.942 19.8877 109.303 19.8877C107.098 19.9474 105.31 19.2905 103.939 17.9467ZM112.581 11.5863C112.491 10.7203 112.134 10.0037 111.478 9.4363C110.823 8.86893 110.018 8.57032 108.975 8.57032C107.932 8.57032 107.157 8.86893 106.502 9.46616C105.846 10.0634 105.459 10.78 105.369 11.6162L112.581 11.5863Z" fill="#003946"/>
<path d="M126.288 5.70326V9.0477C124.798 8.80881 123.666 9.07756 122.921 9.79423C122.176 10.5109 121.789 11.7949 121.789 13.5866V19.529H118.243V5.91229H121.789V7.91298C122.683 6.15118 124.173 5.43451 126.288 5.70326Z" fill="#003946"/>
<path d="M129.477 18.6931C128.255 17.857 127.45 16.8716 127.093 15.7368L130.311 14.8111C130.55 15.4681 130.967 16.0354 131.593 16.4535C132.218 16.8716 132.963 17.0806 133.857 17.0806C134.513 17.0806 135.079 16.9313 135.496 16.6625C135.913 16.3938 136.122 16.0653 136.122 15.6771C136.122 15.0799 135.615 14.632 134.602 14.3334L131.116 13.2882C128.881 12.6313 127.748 11.4368 127.748 9.64517C127.748 8.51045 128.285 7.55489 129.358 6.74864C130.43 5.94239 131.712 5.5542 133.231 5.5542C134.751 5.5542 135.913 5.85281 136.986 6.50975C138.059 7.13684 138.804 7.97295 139.251 9.01809L136.092 9.94378C135.496 8.86878 134.543 8.36114 133.172 8.36114C132.636 8.36114 132.189 8.48059 131.801 8.74934C131.414 8.98823 131.235 9.28684 131.235 9.61531C131.235 10.1229 131.622 10.4813 132.367 10.6903L135.764 11.6757C136.986 12.0341 137.91 12.482 138.595 13.0493C139.281 13.6167 139.608 14.4528 139.608 15.5577C139.608 16.8417 139.042 17.9167 137.97 18.7528C136.867 19.5889 135.466 20.007 133.738 20.007C132.099 19.9473 130.669 19.5292 129.477 18.6931Z" fill="#003946"/>
<path d="M141.516 5.9126H145.092V19.5591H141.516V5.9126Z" fill="#003946"/>
<path d="M157.041 19.1113C155.968 19.5294 154.895 19.7683 153.852 19.7683C152.333 19.7683 151.2 19.3502 150.455 18.4842C149.681 17.6183 149.323 16.4238 149.323 14.9009V9.04812H147.028V5.91271H149.323V0.687012H152.899V5.91271H156.892V9.01826H152.869V14.871C152.869 16.0058 153.435 16.603 154.538 16.603C155.104 16.603 155.67 16.4835 156.147 16.2148L157.041 19.1113Z" fill="#003946"/>
<path d="M159.902 17.9465C158.531 16.6326 157.845 14.9007 157.845 12.7208C157.845 10.541 158.501 8.92847 159.812 7.55486C161.123 6.18125 162.852 5.49444 164.967 5.49444C167.083 5.49444 168.841 6.15139 170.123 7.49514C171.374 8.83889 172 10.5111 172 12.5118C172 13.0493 171.97 13.4972 171.911 13.766H161.332C161.451 14.6917 161.839 15.4382 162.524 16.0056C163.179 16.5729 164.103 16.8417 165.295 16.8417C166.875 16.8417 167.977 16.2444 168.603 15.05L171.821 16.0056C171.374 17.0208 170.57 17.9465 169.437 18.7229C168.305 19.4993 166.904 19.8875 165.265 19.8875C163.06 19.9472 161.272 19.2903 159.902 17.9465ZM168.543 11.5861C168.454 10.7201 168.096 10.0035 167.441 9.43611C166.785 8.86875 165.981 8.57014 164.938 8.57014C163.895 8.57014 163.12 8.86875 162.464 9.46597C161.809 10.0632 161.421 10.7799 161.332 11.616L168.543 11.5861ZM165.265 0H169.169L166.249 3.79236H163.179L165.265 0Z" fill="#003946"/>
<path d="M61.3264 23.7397V42.612H57.7505V40.9397C56.6778 42.3134 55.2474 43.0002 53.3701 43.0002C51.4927 43.0002 49.8836 42.3134 48.5724 40.9397C47.2911 39.5661 46.6355 37.8342 46.6355 35.8036C46.6355 33.7731 47.2911 32.0113 48.5724 30.6377C49.8538 29.2641 51.4629 28.5772 53.3701 28.5772C55.2772 28.5772 56.7076 29.2641 57.7505 30.6078V23.7397H61.3264ZM56.7374 38.6703C57.4823 37.8939 57.8697 36.9384 57.8697 35.7738C57.8697 34.6092 57.5121 33.6835 56.7374 32.9071C55.9924 32.1606 55.0686 31.7724 53.9661 31.7724C52.8635 31.7724 51.9397 32.1307 51.2245 32.9071C50.5094 33.6835 50.1518 34.6092 50.1518 35.7738C50.1518 36.9384 50.5094 37.9238 51.2245 38.7002C51.9397 39.4467 52.8635 39.8349 53.9661 39.8349C55.0686 39.8349 55.9924 39.4467 56.7374 38.6703Z" fill="#003946"/>
<path d="M65.2599 41.0292C63.8891 39.7153 63.2037 37.9834 63.2037 35.8035C63.2037 33.6237 63.8593 32.0112 65.1705 30.6376C66.4816 29.264 68.21 28.5771 70.3257 28.5771C72.4414 28.5771 74.1996 29.2341 75.4809 30.5778C76.7325 31.9216 77.3583 33.5938 77.3583 35.5945C77.3583 36.1619 77.3285 36.5799 77.2689 36.8487H66.6902C66.8094 37.7744 67.1968 38.5209 67.8822 39.0883C68.5378 39.6556 69.4615 39.9244 70.6535 39.9244C72.2328 39.9244 73.3354 39.3271 73.9612 38.1327L77.1795 39.1181C76.7325 40.1334 75.9279 41.0591 74.7956 41.8355C73.6632 42.6119 72.2626 43.0001 70.6237 43.0001C68.4186 43.0001 66.6306 42.3431 65.2599 41.0292ZM73.9016 34.639C73.8122 33.773 73.4546 33.0563 72.799 32.489C72.1434 31.9216 71.3389 31.623 70.2959 31.623C69.2529 31.623 68.4782 31.9216 67.8226 32.5188C67.167 33.116 66.7796 33.8327 66.6902 34.639H73.9016Z" fill="#003946"/>
<path d="M104.326 23.7397V42.612H100.602V34.6689H91.9896V42.612H88.2946V23.7397H91.9896V31.3543H100.602V23.7397H104.326Z" fill="#003946"/>
<path d="M108.26 41.0292C106.889 39.7153 106.204 37.9834 106.204 35.8035C106.204 33.6237 106.859 32.0112 108.17 30.6376C109.482 29.264 111.21 28.5771 113.326 28.5771C115.441 28.5771 117.2 29.2341 118.481 30.5778C119.732 31.9216 120.358 33.5938 120.358 35.5945C120.358 36.1619 120.328 36.5799 120.269 36.8487H109.69C109.809 37.7744 110.197 38.5209 110.882 39.0883C111.538 39.6556 112.462 39.9244 113.653 39.9244C115.233 39.9244 116.335 39.3271 116.961 38.1327L120.179 39.0883C119.732 40.1035 118.928 41.0292 117.796 41.8056C116.663 42.582 115.263 42.9702 113.624 42.9702C111.419 43.0001 109.631 42.3431 108.26 41.0292ZM116.902 34.639C116.812 33.773 116.455 33.0563 115.799 32.489C115.143 31.9216 114.339 31.623 113.296 31.623C112.253 31.623 111.478 31.9216 110.823 32.5188C110.167 33.116 109.78 33.8327 109.69 34.639H116.902Z" fill="#003946"/>
<path d="M124.083 40.9397C122.802 39.566 122.146 37.8341 122.146 35.8035C122.146 33.773 122.802 32.0112 124.083 30.6376C125.365 29.264 126.974 28.5771 128.881 28.5771C130.788 28.5771 132.218 29.264 133.261 30.6077V28.9653H136.837V42.6119H133.261V40.9397C132.218 42.3133 130.758 43.0001 128.881 43.0001C127.003 43.0001 125.365 42.3133 124.083 40.9397ZM132.248 38.6702C132.993 37.8938 133.38 36.9383 133.38 35.7737C133.38 34.6091 133.023 33.6834 132.248 32.907C131.503 32.1605 130.579 31.7723 129.477 31.7723C128.374 31.7723 127.45 32.1306 126.735 32.907C126.02 33.6834 125.663 34.6091 125.663 35.7737C125.663 36.9383 126.02 37.9237 126.735 38.7001C127.45 39.4765 128.374 39.8348 129.477 39.8348C130.579 39.8348 131.503 39.4466 132.248 38.6702Z" fill="#003946"/>
<path d="M147.446 28.7862V32.1307C145.956 31.8918 144.823 32.1605 144.078 32.8772C143.333 33.6237 142.946 34.8779 142.946 36.6696V42.6119H139.4V28.9654H142.946V30.996C143.84 29.2342 145.33 28.4876 147.446 28.7862Z" fill="#003946"/>
<path d="M150.634 41.7458C149.412 40.9097 148.608 39.9243 148.25 38.7896L151.468 37.8639C151.707 38.5208 152.124 39.0882 152.75 39.5062C153.376 39.9243 154.121 40.1333 155.015 40.1333C155.67 40.1333 156.236 39.984 156.654 39.7153C157.071 39.4465 157.279 39.118 157.279 38.7C157.279 38.1028 156.773 37.6548 155.76 37.3562L152.303 36.341C150.068 35.684 148.936 34.4896 148.936 32.6979C148.936 31.5632 149.472 30.6076 150.545 29.8014C151.617 28.9951 152.899 28.6069 154.419 28.6069C155.938 28.6069 157.1 28.9354 158.173 29.5326C159.246 30.1597 159.991 30.9958 160.438 32.041L157.279 32.9667C156.683 31.8917 155.73 31.384 154.359 31.384C153.823 31.384 153.376 31.5035 152.988 31.7722C152.601 32.0111 152.422 32.3097 152.422 32.6382C152.422 33.1458 152.809 33.5042 153.554 33.7132L156.952 34.6986C158.173 35.0569 159.097 35.5048 159.782 36.0722C160.468 36.6396 160.766 37.4757 160.766 38.5805C160.766 39.8646 160.229 40.9396 159.127 41.7757C158.024 42.6118 156.624 43.0299 154.895 43.0299C153.256 43 151.826 42.5819 150.634 41.7458Z" fill="#003946"/>
<path d="M171.493 42.1939C170.421 42.612 169.348 42.8509 168.305 42.8509C166.785 42.8509 165.653 42.4328 164.908 41.5668C164.163 40.7009 163.775 39.5064 163.775 37.9835V32.1307H161.481V28.9654H163.775V23.7397H167.351V28.9654H171.344V32.071H167.351V37.9238C167.351 39.0884 167.918 39.6557 169.02 39.6557C169.586 39.6557 170.152 39.5363 170.629 39.2675L171.493 42.1939Z" fill="#003946"/>
<path d="M85.4636 0.687012H81.8878V4.03146H85.4636V0.687012Z" fill="#003946"/>
<path d="M145.092 0.687012H141.516V4.03146H145.092V0.687012Z" fill="#003946"/>
<path d="M35.9376 0.656738H23.9584V12.6609H35.9376V0.656738Z" fill="#4375FF"/>
<path d="M11.9792 18.7524V30.7865H23.9584V42.7309H35.9376V18.7524H11.9792Z" fill="#00AD88"/>
<path d="M11.9792 0.656738H0V42.6713H11.9792V0.656738Z" fill="#FFB652"/>
</g>
<defs>
<clipPath id="clip0_649_1004">
<rect width="172" height="43" fill="white"/>
</clipPath>
</defs>
</svg>
