<svg xmlns="http://www.w3.org/2000/svg" height="62.775" viewBox="0 0 250 62.77512" width="250"><g transform="matrix(1.25 0 0 -1.25 -381.24 427.05)"><path d="m14.504 0.82617l3.062 18.656-16.685 8.655 18.068 2.654 4.781 30.811-0.013-34.616-8.438-1.267 7.239-3.754-1.334-8.129 5.816 5.809 7.299-3.969-3.738 7.494 5.773 5.84-7.795-1.035 20.975 7.988-13.508-13.664 8.668-17.364-16.875 9.17-13.295-13.279zm71.603 7.9258l-6.171 0.3222v0.7539l1.128 0.1602c0.966 0.1297 1.127 0.5107 1.127 1.4767 0 0 0.026 1.659 0.026 3.832v8.103c0 2.763-0.026 4.424-0.026 4.424 0 0.967-0.161 1.344-1.127 1.477l-1.128 0.162v0.75h8.451v-0.75l-1.129-0.162c-0.964-0.133-1.151-0.51-1.151-1.477 0 0-0.052-2.276-0.052-4.424v-0.429l3.779 5.017c1.179 1.583-0.239 1.391-0.775 1.475v0.75h8.23v-0.75c-1.958-0.274-2.358-0.62-3.105-1.586l-4.858-6.273 1.393-1.184c2.146-1.823 3.276-2.332 5.205-2.332v-0.75h-6.707v0.75c1.986 0 1.69 0.778-0.133 2.279l-3.029 2.524v-7.594c0-2.762 0.052-6.545 0.052-6.545zm18.103 0l-6.167 0.3222v0.7539l1.127 0.1602c0.97 0.1327 1.13 0.5107 1.13 1.4767 0 0 0.02 1.659 0.02 3.832v8.103c0 2.763-0.02 4.477-0.02 4.477 0 0.966-0.16 1.206-1.13 1.396l-1.127 0.19v0.75h8.447v-0.75l-1.12-0.19c-0.97-0.19-1.16-0.43-1.16-1.396 0 0-0.05-2.33-0.05-4.479v-8.101c0-2.762 0.05-6.545 0.05-6.545zm23.26 0l-6.17 0.3222v0.7539l1.13 0.1602c0.96 0.1327 1.12 0.5097 1.12 1.4767 0 0 0.03 1.659 0.03 3.832v9.9c0 1.231-0.05 2.627-0.05 2.627-0.03 0.967-0.16 1.342-1.13 1.477l-1.13 0.162v0.75h8.18v-0.75l-1.12-0.162c-0.75-0.111-0.89-0.51-0.89-1.477 0 0-0.02-1.017-0.02-2.439v-4.643c0.61-1.419 1.69-2.01 2.54-2.01 2.02 0 2.07 1.983 2.07 3.569v2.172c0 1.34-0.03 2.519-0.03 3.351 0 0.967-0.27 1.397-0.88 1.477l-1.13 0.162v0.75h8.18v-0.75l-1.13-0.162c-0.96-0.135-1.09-0.51-1.12-1.477 0 0-0.05-1.289-0.05-3.351v-2.573c0-3.167-1.08-5.314-4.16-5.314-1.69 0-3.22 0.753-4.29 2.924h-0.01v-4.213c0-2.762 0.06-6.545 0.06-6.545zm80.15 0.2695c-6.6 0-11.3 4.5605-11.3 10.864 0 5.711 3.92 10.703 11.14 10.702 2.76 0 6.03-0.775 7.64-2.225l0.7-4.613h-0.78c-1.39 3.997-4.18 5.416-7.27 5.416-3.24 0-7-3.085-7-9.227 0-6.463 3.54-9.548 7.11-9.548 2.84 0 5.39 1.447 6.89 4.775h0.7l-0.4-4.721c-2.58-0.7207-4.43-1.4235-7.43-1.4235zm-139.11 0.0019c-6.007 0-10.971 4.4526-10.971 10.7 0 6.306 4.964 10.863 10.971 10.863 5.952 0 10.996-4.425 10.996-10.701s-5.044-10.862-10.996-10.862zm152.3 0.6973c-1.36 0-2.46 1.0993-2.46 2.4683 0 1.366 1.1 2.467 2.46 2.467 1.37 0 2.47-1.101 2.47-2.467 0-1.369-1.1-2.4683-2.47-2.4683zm-152.3 0.6423c3.432 0 6.517 2.871 6.517 9.469 0 6.57-3.057 9.357-6.517 9.357s-6.547-2.787-6.547-9.357c0-6.598 3.087-9.469 6.547-9.469zm161.34 3.518l-2.63 3.486h-2.28v0.848l2.02 0.16v8.91c0 2.36 1.84 3.352 3.69 3.352 1.45 0 2.82-0.376 4.42-1.742l-0.45-0.725c-0.59 0.296-1.55 0.672-2.39 0.672-0.77 0-1.42-0.322-1.42-2.092l-0.02-8.322h2.91c0.65 0.059 1.35 0.291 1.75 1.211l4.88 11.131-1.12 2.789c-1.02 2.519-2.04 3.484-2.87 3.484-1 0-0.62-2.385-2.63-2.385-0.75 0-1.58 0.481-1.58 1.553 0 1.285 1.39 2.225 3.51 2.225 1.9 0 3.64-1.098 4.96-4.395l5.09-12.652c1.15-2.868 1.75-2.971 3.18-2.971l0.01-1.045h-6.03v1.045c0.67 0 2.41-0.407 1.37 2.408l-2.09 5.629-2.53-6.682c-0.46-1.18 0.04-1.369 1.19-1.369v-1.033h-6.31v-0.004h-3.69v-3.486h-0.94zm-84.23 2.705c-4.1 0-7.08 2.789-7.08 6.762 0 3.752 2.12 7.24 7 7.24 4.64 0 7.16-3.003 7.16-6.813 0-3.916-2.33-7.189-7.08-7.189zm17.98 0c-1.7 0-3.3 0.753-4.38 3.086l-0.08-2.817-5.98 0.35v0.752l1.13 0.16c0.96 0.134 1.1 0.508 1.12 1.477 0 0 0.06 1.606 0.06 2.086v3.517c0 1.238-0.06 2.627-0.06 2.627-0.02 0.967-0.16 1.342-1.12 1.477l-1.13 0.162v0.754h8.18v-0.754l-1.13-0.162c-0.74-0.105-0.88-0.51-0.88-1.477 0 0-0.03-1.017-0.03-2.439v-4.641c0.62-1.421 1.69-2.012 2.55-2.012 2.01 0 2.07 1.988 2.07 3.569v2.172c0 1.34-0.03 2.519-0.03 3.351 0 0.967-0.27 1.397-0.88 1.477l-1.13 0.162v0.754h7.91v-0.754l-1.12-0.162c-0.7-0.105-0.84-0.51-0.86-1.477 0 0-0.06-1.288-0.06-3.351v-2.573c0-0.378-0.02-0.753-0.05-1.103 0.48-1.451 1.82-2.065 2.6-2.065 2.01 0 2.07 1.988 2.07 3.569v2.172c0 1.34-0.03 2.519-0.03 3.351 0 0.967-0.27 1.397-0.89 1.477l-1.12 0.162v0.754h8.18v-0.754l-1.13-0.162c-0.96-0.135-1.1-0.51-1.12-1.477 0 0-0.06-1.904-0.06-3.351v-2.573c0-3.166-1.07-5.314-4.16-5.314-1.77 0-3.62 1.02-4.5 3.246-0.43-1.987-1.61-3.246-3.94-3.246zm-50.25 0.027c-1.96 0-4.86 0.886-4.86 2.977 0 0.994 0.67 1.666 1.48 1.666 1.71 0 1.71-1.45 1.71-2.524 0-0.644 0.22-1.209 1.37-1.209 0.99 0 1.5 0.589 1.5 2.389v3.137c-4.42 0-7.21 1.448-7.21 4.08 0 2.038 1.36 3.459 3.64 3.459 1.4 0 2.56-0.507 3.71-2.039 0.48 1.584 1.64 1.957 2.9 1.957 1.18 0 2.57-0.535 3.51-2.09l-0.4-0.377c-0.59 0.376-1.13 0.619-1.61 0.619-0.62 0-0.94-0.431-0.94-1.851l0.05-6.223c0.03-3.138-2.25-3.971-4.85-3.971zm71.59 0.002c-1.96 0-4.86 0.884-4.86 2.979 0 0.99 0.68 1.662 1.48 1.662 1.72 0 1.72-1.451 1.72-2.524 0-0.645 0.21-1.209 1.37-1.209 0.99 0 1.5 0.593 1.5 2.393v3.133c-4.43 0-7.22 1.451-7.22 4.08 0 2.036 1.37 3.459 3.65 3.459 1.39 0 2.55-0.511 3.7-2.037 0.49 1.58 1.64 1.955 2.9 1.955 1.18 0 2.57-0.535 3.51-2.088l-0.4-0.377c-0.59 0.376-1.12 0.617-1.61 0.617-0.62 0-0.94-0.431-0.94-1.851l0.05-6.223c0.03-3.138-2.25-3.969-4.85-3.969zm38 0.078l-6.12 0.514v0.75l1.13 0.158c0.96 0.135 1.12 0.51 1.12 1.479 0 0 0.03 3.11 0.03 4.342 0 1.289-0.06 3.194-0.06 3.89-0.02 0.965-0.16 1.34-1.12 1.477l-1.13 0.158v0.752h8.45v-0.752l-1.13-0.158c-0.96-0.137-1.15-0.512-1.15-1.477 0 0-0.02-1.742-0.02-3.89v-7.243zm-77.26 1.049c2.2 0 2.92 2.735 2.92 5.901 0 3.376-0.83 5.793-3.09 5.793-2.17 0-2.84-2.9-2.84-5.875 0-3.357 0.75-5.819 3.01-5.819zm-31.05 6.086v3.891c-0.51 0.642-1.15 0.967-2.11 0.967-0.84 0-1.64-0.563-1.64-1.852 0-1.157 0.51-2.737 3.75-3.006zm71.6 0v3.891c-0.51 0.642-1.16 0.967-2.12 0.967-0.83 0-1.64-0.563-1.64-1.852 0-1.157 0.51-2.738 3.76-3.006zm-41.57 19.832c-1.01 0-1.81 0.236-2.35 0.631-0.62 0.439-0.95 1.095-0.95 1.83 0 0.985 0.4 1.529 0.95 1.945 0.63 0.456 1.47 0.644 2.11 0.848 0.59 0.189 1.03 0.393 1.03 0.826 0 0.123-0.04 0.335-0.25 0.483-0.15 0.108-0.39 0.181-0.76 0.181-0.88 0-1.59-0.379-2.16-0.736-0.13-0.076-0.23-0.025-0.28 0.084l-0.7 1.465c-0.06 0.125-0.02 0.223 0.09 0.285 0.65 0.379 1.68 0.775 3.07 0.775 0.95 0 1.8-0.262 2.41-0.74 0.59-0.467 0.96-1.133 0.96-1.969 0-0.924-0.37-1.515-0.92-1.918-0.65-0.505-1.57-0.69-2.26-0.9-0.58-0.173-1-0.346-1-0.725 0-0.151 0.09-0.28 0.27-0.38 0.14-0.066 0.34-0.112 0.62-0.112 0.82 0 1.5 0.318 2.04 0.612 0.11 0.066 0.21 0.026 0.27-0.083l0.7-1.462c0.05-0.115 0.03-0.223-0.08-0.288-0.53-0.267-1.38-0.652-2.81-0.652zm-45.908 0.11c-0.197 0-0.247 0.135-0.172 0.31l2.95 7.887c0.06 0.16 0.16 0.221 0.35 0.221h1.82c0.18 0 0.28-0.061 0.34-0.221l3.05-7.887c0.07-0.184-0.01-0.31-0.17-0.31h-1.83c-0.2 0-0.31 0.076-0.37 0.25l-1.91 5.449h-0.02l-1.83-5.449c-0.07-0.174-0.18-0.25-0.37-0.25h-1.838zm-38.783 0.003c-0.123 0-0.221 0.096-0.221 0.223v4.848c0 0.92 0.257 1.695 0.752 2.271 0.623 0.745 1.634 1.162 2.928 1.162 1.3 0 2.308-0.417 2.937-1.162 0.494-0.576 0.754-1.352 0.754-2.275v-4.844c0-0.127-0.101-0.223-0.223-0.223h-1.726c-0.12 0-0.219 0.096-0.219 0.223v4.627c0 0.541-0.096 0.919-0.308 1.189-0.293 0.382-0.7 0.506-1.229 0.506-0.492 0-0.898-0.124-1.195-0.506-0.208-0.27-0.307-0.648-0.307-1.189v-4.627c0-0.127-0.096-0.223-0.221-0.223h-1.722zm14.842 0c-0.119 0-0.219 0.096-0.219 0.223v7.936c0 0.123 0.1 0.22 0.219 0.22h1.625c0.124 0 0.222-0.097 0.222-0.22v-4.541l3.397 4.541c0.123 0.188 0.218 0.22 0.394 0.22h1.498c0.126 0 0.225-0.097 0.225-0.22v-7.936c0-0.127-0.099-0.223-0.225-0.223h-1.625c-0.119 0-0.217 0.096-0.217 0.223v4.539l-3.386-4.539c-0.136-0.177-0.221-0.223-0.393-0.223h-1.515zm15.068 0c-0.125 0-0.223 0.096-0.223 0.223v7.936c0 0.123 0.098 0.22 0.223 0.22h1.721c0.123 0 0.22-0.097 0.22-0.22v-7.936c0-0.127-0.097-0.223-0.22-0.223h-1.721zm24.181 0c-0.12 0-0.22 0.096-0.22 0.223v7.936c0 0.123 0.1 0.22 0.22 0.22h6.03c0.13 0 0.22-0.097 0.22-0.22v-1.479c0-0.123-0.09-0.223-0.22-0.223h-4.08v-1.339h3.43c0.12 0 0.22-0.096 0.22-0.223v-1.475c0-0.122-0.1-0.222-0.22-0.222h-3.43v-1.278h4.08c0.13 0 0.22-0.098 0.22-0.222v-1.475c0-0.127-0.09-0.223-0.22-0.223h-6.03zm13.65 0c-0.12 0-0.22 0.096-0.22 0.223v7.936c0 0.123 0.1 0.222 0.22 0.222h1.73c0.12 0 0.22-0.099 0.22-0.222v-2.514h1.31l1.32 2.514c0.1 0.188 0.22 0.222 0.42 0.222h1.9c0.24 0 0.21-0.21 0.12-0.383l-1.61-2.755c0.18-0.102 0.35-0.22 0.52-0.371 0.67-0.591 0.93-1.327 0.93-2.067 0-0.884-0.34-1.707-0.97-2.201-0.56-0.432-1.33-0.604-2.16-0.604h-3.73zm27.42 0c-0.12 0-0.22 0.096-0.22 0.223v7.936c0 0.123 0.1 0.22 0.22 0.22h1.73c0.12 0 0.22-0.097 0.22-0.22v-7.936c0-0.127-0.1-0.223-0.22-0.223h-1.73zm8.99 0c-0.12 0-0.22 0.096-0.22 0.223v1.475c0 0.124 0.1 0.222 0.22 0.222h2.37v6.239c0 0.123 0.09 0.22 0.22 0.22h1.72c0.12 0 0.22-0.097 0.22-0.22v-6.239h2.36c0.13 0 0.22-0.101 0.22-0.222v-1.475c0-0.127-0.09-0.223-0.22-0.223h-6.89zm13.91 0c-0.23 0-0.27 0.171-0.15 0.354l3.04 4.629v3.176c0 0.123 0.1 0.22 0.22 0.22h1.73c0.12 0 0.22-0.097 0.22-0.22v-3.164l3.06-4.641c0.12-0.183 0.09-0.354-0.15-0.354h-1.99c-0.19 0-0.28 0.07-0.37 0.223l-1.63 2.617-1.63-2.617c-0.09-0.164-0.17-0.223-0.37-0.223h-1.98zm-48.37 1.831h1.63c0.26 0 0.53 0.062 0.73 0.212 0.22 0.162 0.35 0.417 0.35 0.788 0 0.38-0.15 0.663-0.39 0.812-0.19 0.133-0.49 0.186-0.87 0.186h-1.45v-1.998z" transform="matrix(.8 0 0 -.8 304.99 341.64)" fill="#00669b"/></g></svg>
