<?xml version="1.0" encoding="utf-8"?>
<!-- Generator: Adobe Illustrator 15.1.0, SVG Export Plug-In . SVG Version: 6.00 Build 0)  -->
<!DOCTYPE svg PUBLIC "-//W3C//DTD SVG 1.1//EN" "http://www.w3.org/Graphics/SVG/1.1/DTD/svg11.dtd">
<svg version="1.1" id="Layer_1" xmlns="http://www.w3.org/2000/svg" xmlns:xlink="http://www.w3.org/1999/xlink" x="0px" y="0px"
	 width="300.14px" height="98.48px" viewBox="0 0 300.14 98.48" enable-background="new 0 0 300.14 98.48" xml:space="preserve">
<g>
	<g>
		<path fill="#48176D" d="M9.4,82.36c5.45,5.99,12.86,10.11,21.24,11.37c1.99,0.2,4.18,0.33,6.54,0.39
			c6.8-0.22,13.12-2.3,18.47-5.78c5.06-8.81-7.3-24.49-7.3-24.49H16.6C16.6,63.86,10.36,73.24,9.4,82.36z"/>
		<path fill="#48176D" d="M69.82,70.56c1.42-3.87,2.24-8.04,2.24-12.41V0H38.9L69.82,70.56z"/>
		<polygon fill="#48176D" points="32.6,23.63 17.92,56.72 47.11,56.72 32.6,23.6 		"/>
		<path fill="#48176D" d="M36.29,0H0v58.16c0,5.59,1.31,10.87,3.59,15.59L36.29,0z"/>
	</g>
	<g>
		<path fill="#48176D" d="M100.08,40.16V39.5c2.04-0.18,2.88-0.42,3.72-0.96c1.08-0.72,1.74-1.86,1.74-3c0-1.14-0.18-1.8-1.32-4.56
			l-2.82-6.9H88.5L87,28.1c-1.62,3.96-2.04,5.4-2.04,6.9c0,2.58,1.74,4.26,4.68,4.5v0.66H76.5V39.5c3.9-0.3,5.82-2.76,9.24-11.7
			L96.48,0.14h1.62l12.72,30.84c2.94,7.08,3.9,8.04,8.46,8.52v0.66H100.08z M94.8,7.7l-5.82,15.18h11.94L94.8,7.7z"/>
		<path fill="#48176D" d="M129.54,0.14V0.8c-1.68,0.18-2.58,0.36-3.3,0.72c-1.14,0.6-1.92,1.92-1.92,3.24
			c0,1.14,0.06,1.26,1.08,4.02l8.64,23.58l8.46-20.7c1.26-3.12,1.74-4.92,1.74-6.42c0-2.94-1.44-4.44-4.38-4.44V0.14h13.02V0.8
			c-4.02,0.48-5.58,2.34-8.82,10.38l-12,28.98h-1.26l-11.64-29.94c-3.18-8.16-4.26-9.3-8.94-9.42V0.14H129.54z"/>
		<path fill="#48176D" d="M164.7,30.98c0,3.54,0.36,5.22,1.26,6.42c1.08,1.38,2.46,1.98,4.92,2.1v0.66H152.1V39.5
			c2.46-0.12,3.84-0.72,4.92-2.1c0.96-1.2,1.26-2.76,1.26-6.42V9.32c0-3.66-0.3-5.22-1.26-6.42c-1.08-1.38-2.46-1.98-4.92-2.1V0.14
			h18.78V0.8c-2.46,0.12-3.84,0.72-4.92,2.1c-0.9,1.14-1.26,2.88-1.26,6.42V30.98z"/>
		<path fill="#48176D" d="M207.84,28.1l-0.42,12.06h-34.98v-0.72c2.4-0.06,3.84-0.66,4.92-2.04c0.96-1.2,1.26-2.76,1.26-6.42V9.32
			c0-4.14-0.42-5.76-1.8-7.02c-1.08-0.96-2.28-1.38-4.38-1.5V0.14h18.78V0.8c-2.28,0.12-3.66,0.66-4.68,1.8
			c-1.14,1.26-1.5,2.88-1.5,6.72v16.92c0,5.46,0.24,7.56,1.14,9.18c1.38,2.64,3.96,3.84,8.34,3.84c7.62,0,10.92-2.94,12.66-11.16
			H207.84z"/>
		<path fill="#48176D" d="M232.26,40.16V39.5c2.04-0.18,2.88-0.42,3.72-0.96c1.08-0.72,1.74-1.86,1.74-3c0-1.14-0.18-1.8-1.32-4.56
			l-2.82-6.9h-12.9l-1.5,4.02c-1.62,3.96-2.04,5.4-2.04,6.9c0,2.58,1.74,4.26,4.68,4.5v0.66h-13.14V39.5
			c3.9-0.3,5.82-2.76,9.24-11.7l10.74-27.66h1.62l12.72,30.84c2.94,7.08,3.9,8.04,8.46,8.52v0.66H232.26z M226.98,7.7l-5.82,15.18
			h11.94L226.98,7.7z"/>
	</g>
	<g>
		<path fill="#48176D" d="M84.94,61.12c0,3.35,0.19,4.39,1.06,5.65c1.21,1.8,2.8,2.52,5.49,2.52c2.69,0,5.38-0.97,6.85-2.45
			c0.76-0.79,1.1-1.73,1.17-3.38c0.04-0.43,0.04-0.83,0.04-2.88v-9.83c0-2.2-0.19-3.13-0.8-3.85c-0.68-0.83-1.55-1.19-3.1-1.26v-0.4
			h8.56v0.4c-1.55,0.07-2.42,0.43-3.1,1.26c-0.61,0.72-0.79,1.69-0.79,3.85v11.12c0,3.02-0.34,4.21-1.55,5.36
			c-1.78,1.73-4.54,2.63-8.1,2.63c-3.98,0-6.85-0.97-8.4-2.74c-1.1-1.33-1.36-2.38-1.36-5.69V50.75c0-2.2-0.19-3.13-0.79-3.85
			c-0.68-0.83-1.55-1.19-3.1-1.26v-0.4h11.85v0.4c-1.55,0.07-2.42,0.43-3.1,1.26c-0.64,0.76-0.79,1.62-0.79,4.28V61.12z"/>
		<path fill="#48176D" d="M109.63,63.74c0,2.2,0.19,3.13,0.79,3.85c0.68,0.83,1.55,1.19,3.1,1.26v0.4h-8.56v-0.4
			c1.55-0.07,2.42-0.43,3.1-1.26c0.61-0.72,0.79-1.69,0.79-3.85v-13c0-2.16-0.19-3.13-0.79-3.85c-0.68-0.83-1.55-1.19-3.1-1.26v-0.4
			h7.12l14.99,18.21V50.75c0-2.2-0.19-3.13-0.79-3.85c-0.68-0.83-1.55-1.19-3.1-1.26v-0.4h8.56v0.4c-1.51,0.07-2.42,0.43-3.1,1.26
			c-0.61,0.72-0.79,1.69-0.79,3.85v18.5H127l-17.38-20.81V63.74z"/>
		<path fill="#48176D" d="M140.71,63.74c0,2.12,0.23,3.13,0.79,3.85c0.68,0.83,1.55,1.19,3.1,1.26v0.4h-11.85v-0.4
			c1.55-0.07,2.42-0.43,3.1-1.26c0.61-0.72,0.79-1.66,0.79-3.85v-13c0-2.2-0.19-3.13-0.79-3.85c-0.68-0.83-1.55-1.19-3.1-1.26v-0.4
			h11.85v0.4c-1.55,0.07-2.42,0.43-3.1,1.26c-0.57,0.68-0.79,1.73-0.79,3.85V63.74z"/>
		<path fill="#48176D" d="M156.23,45.24v0.4c-1.06,0.11-1.63,0.22-2.08,0.43c-0.72,0.36-1.21,1.15-1.21,1.94
			c0,0.68,0.04,0.76,0.68,2.41l5.45,14.15l5.34-12.42c0.79-1.87,1.1-2.95,1.1-3.85c0-1.76-0.91-2.66-2.76-2.66v-0.4h8.21v0.4
			c-2.54,0.29-3.52,1.4-5.56,6.23l-7.57,17.39h-0.79l-7.34-17.96c-2.01-4.9-2.69-5.58-5.64-5.65v-0.4H156.23z"/>
		<path fill="#48176D" d="M190.68,51.07h-0.45c-0.26-1.84-0.87-2.95-2.08-3.92c-1.25-1.01-2.69-1.37-5.49-1.37h-4.24v10.58h1.1
			c3.79,0,4.66-0.72,5.11-4.21h0.45l-0.08,9.43h-0.45c-0.42-3.53-1.7-4.68-5.07-4.68h-1.06v4.03c0,3.31,0.15,4.46,0.72,5.47
			c0.87,1.58,2.5,2.3,5.26,2.3c4.81,0,6.85-1.69,7.95-6.48h0.45l-0.26,7.02h-22.07v-0.4c1.55-0.07,2.42-0.43,3.1-1.26
			c0.61-0.72,0.79-1.69,0.79-3.85v-13c0-2.16-0.19-3.13-0.79-3.85c-0.68-0.83-1.55-1.19-3.1-1.26v-0.4h19.91L190.68,51.07z"/>
		<path fill="#48176D" d="M201.21,63.74c0,2.16,0.19,3.13,0.79,3.85c0.68,0.83,1.55,1.19,3.1,1.26v0.4h-11.85v-0.4
			c1.55-0.07,2.42-0.43,3.1-1.26c0.61-0.72,0.79-1.66,0.79-3.85v-13c0-2.2-0.19-3.13-0.79-3.85c-0.68-0.83-1.55-1.19-3.1-1.26v-0.4
			h8.93c4.54,0,5.94,0.14,7.61,0.83c2.31,0.97,3.63,2.88,3.63,5.29c0,1.98-0.95,3.67-2.65,4.71c-0.79,0.47-1.63,0.76-3.14,1.08
			c1.74,0.68,2.16,1.12,3.48,3.82c3.6,7.09,4.13,7.74,5.98,7.88v0.4h-6.13c-0.45-0.97-0.53-1.15-1.86-4.03
			c-1.63-3.42-3.1-5.83-4.28-6.84c-0.72-0.61-1.48-0.86-2.73-0.86h-0.91V63.74z M201.93,57.12c3.1,0,4.05-0.25,5.22-1.37
			c1.21-1.15,1.82-2.59,1.82-4.28c0-2.05-1.02-4-2.57-4.93c-0.91-0.54-2.16-0.76-4.43-0.76h-0.76v11.34H201.93z"/>
		<path fill="#48176D" d="M217.94,61.94h0.42c1.36,4.93,3.6,7.34,6.89,7.34c2.88,0,4.92-1.98,4.92-4.75c0-1.4-0.57-2.92-1.48-3.82
			c-0.76-0.79-1.78-1.4-4.13-2.56c-2.46-1.19-3.56-1.91-4.35-2.77c-0.95-1.04-1.44-2.34-1.44-3.85c0-3.82,3.1-6.88,6.97-6.88
			c1.17,0,2.01,0.18,3.6,0.83c1.33,0.47,1.51,0.54,1.89,0.54s0.68-0.32,0.83-0.9h0.42l0.15,6.98h-0.45c-0.68-2.3-1.1-3.28-1.78-4.32
			c-1.21-1.76-2.61-2.56-4.43-2.56c-2.5,0-4.35,1.73-4.35,4.07c0,1.3,0.64,2.56,1.78,3.42c0.98,0.79,0.98,0.79,4.81,2.52
			c4.05,1.84,5.87,4.07,5.87,7.27c0,4.28-3.37,7.34-8.06,7.34c-2.01,0-3.07-0.25-5.87-1.4c-0.19-0.07-0.42-0.11-0.64-0.11
			c-0.57,0-0.98,0.29-1.21,0.86h-0.42L217.94,61.94z"/>
		<path fill="#48176D" d="M243.69,63.74c0,2.12,0.23,3.13,0.79,3.85c0.68,0.83,1.55,1.19,3.1,1.26v0.4h-11.85v-0.4
			c1.55-0.07,2.42-0.43,3.1-1.26c0.61-0.72,0.79-1.66,0.79-3.85v-13c0-2.2-0.19-3.13-0.79-3.85c-0.68-0.83-1.55-1.19-3.1-1.26v-0.4
			h11.85v0.4c-1.55,0.07-2.42,0.43-3.1,1.26c-0.57,0.68-0.79,1.73-0.79,3.85V63.74z"/>
		<path fill="#48176D" d="M258.53,45.78c-7.38,0.04-9.2,1.08-10.3,5.98h-0.42l0.34-6.51h25.02l0.3,6.51h-0.42
			c-1.02-4.75-3.18-6.01-10.49-5.98v17.96c0,2.16,0.19,3.13,0.79,3.85c0.68,0.83,1.55,1.19,3.1,1.26v0.4h-11.85v-0.4
			c1.55-0.07,2.42-0.43,3.1-1.26c0.61-0.72,0.79-1.66,0.79-3.85V45.78z"/>
		<path fill="#48176D" d="M274.02,45.24h12.08v0.4c-1.33,0.11-1.63,0.14-2.01,0.29c-0.64,0.29-0.98,0.83-0.98,1.51
			c0,0.54,0.26,1.19,0.98,2.2l5,7.45l4.24-6.34c1.02-1.51,1.17-1.87,1.17-2.74c0-1.55-0.91-2.27-2.88-2.38v-0.4h8.52v0.4
			c-1.93,0.14-2.8,0.83-5.34,4.36l-4.2,6.08c-0.95,1.44-1.06,1.73-1.06,3.35v4.32c0,2.3,0.15,3.09,0.79,3.85
			c0.64,0.83,1.55,1.19,3.1,1.26v0.4h-11.85v-0.4c1.55-0.07,2.42-0.43,3.1-1.26c0.61-0.72,0.79-1.69,0.79-3.85v-3.46
			c0-1.15-0.57-2.56-1.74-4.25l-4.81-6.8c-1.97-2.99-2.69-3.49-4.92-3.6V45.24z"/>
	</g>
	<g>
		<path fill="#48176D" d="M95.53,77.63h-0.4c-1.06,0-1.86,0.34-2.8,1.24l-4.41,4.16l2.85,7.27c0.4,1.08,0.66,1.24,1.79,1.24h0.64
			l-0.21,0.71H86.6l0.21-0.71h0.31c1.13,0,1.51-0.12,1.51-0.48c0-0.14-0.02-0.18-0.19-0.71l-2.14-5.82l-2.33,2.16L83,89.77
			c-0.14,0.41-0.21,0.78-0.21,1.01c0,0.53,0.38,0.76,1.25,0.76h0.71l-0.21,0.71h-6.48l0.24-0.71h0.71c1.08,0,1.3-0.18,1.65-1.36
			c0.05-0.14,0.09-0.3,0.14-0.46l3.23-10.33c0.12-0.37,0.19-0.78,0.19-1.01c0-0.53-0.38-0.76-1.25-0.76h-0.71l0.21-0.71h6.31
			l-0.21,0.71h-0.28c-1.37,0-1.51,0.14-2.05,1.82l-1.79,5.68l6.64-6.32c0.35-0.34,0.47-0.51,0.47-0.71c0-0.34-0.26-0.46-1.11-0.46
			h-0.45l0.19-0.71h5.51L95.53,77.63z"/>
		<path fill="#48176D" d="M103.68,89.84c-0.97,1.72-2.14,2.71-3.27,2.71c-0.78,0-1.39-0.67-1.39-1.52v-0.12v-0.14
			c-1.25,1.29-2.07,1.77-3.11,1.77c-1.32,0-2.14-0.99-2.14-2.55c0-1.82,1.04-4.12,2.66-5.89c1.2-1.31,2.45-1.98,3.7-1.98
			c0.61,0,0.92,0.16,1.2,0.67l0.14-0.37h1.81l-2.62,8.35c-0.07,0.16-0.09,0.32-0.09,0.44c0,0.18,0.17,0.35,0.35,0.35
			c0.59,0,1.41-0.78,2.12-2.02L103.68,89.84z M97.18,85.7c-1.01,1.68-1.6,3.43-1.6,4.67c0,0.76,0.31,1.22,0.8,1.22
			c1.06,0,2.21-1.29,3.13-3.54c0.94-2.25,1.46-3.84,1.46-4.39c0-0.46-0.35-0.76-0.9-0.76C99.28,82.89,98.29,83.83,97.18,85.7z"/>
		<path fill="#48176D" d="M104.3,92.25l2.14-6.65c0.33-0.99,0.47-1.56,0.47-1.84c0-0.23-0.12-0.39-0.31-0.39
			c-0.45,0-1.11,0.78-1.72,2.02l-0.71-0.18c0.94-2.07,1.93-3.08,2.97-3.08c0.73,0,1.18,0.44,1.18,1.17c0,0.53-0.07,0.92-0.26,1.59
			c1.3-1.89,2.45-2.76,3.6-2.76c1.04,0,1.81,0.69,1.81,1.66c0,0.46-0.12,0.94-0.4,1.82l-1.63,4.67c-0.17,0.48-0.17,0.53-0.17,0.74
			c0,0.21,0.14,0.35,0.38,0.35c0.57,0,1.18-0.62,1.84-1.96l0.75,0.34c-0.85,1.72-2.17,2.81-3.44,2.81c-0.82,0-1.41-0.51-1.41-1.22
			c0-0.46,0.12-0.94,0.45-1.93l1.44-4.09c0.31-0.9,0.42-1.33,0.42-1.63c0-0.32-0.24-0.55-0.59-0.55c-0.64,0-1.51,0.74-2.33,2.02
			c-0.47,0.74-0.8,1.5-1.3,3.01l-1.32,4.09H104.3z"/>
		<path fill="#48176D" d="M121.28,83.58c0,0.48-0.35,0.83-0.85,0.83c-0.5,0-0.61-0.16-0.71-0.83c-0.05-0.41-0.42-0.69-0.92-0.69
			c-0.73,0-1.25,0.46-1.25,1.1c0,0.46,0.24,1.06,0.87,2.16c0.97,1.75,1.3,2.58,1.3,3.36c0,1.7-1.48,3.04-3.37,3.04
			c-1.46,0-2.62-0.94-2.62-2.14c0-0.46,0.33-0.8,0.78-0.8c0.54,0,0.9,0.51,0.92,1.33c0.02,0.62,0.28,0.83,0.99,0.83
			c0.9,0,1.67-0.62,1.67-1.33c0-0.53,0-0.53-1.37-3.24c-0.71-1.38-0.85-1.82-0.85-2.46c0-1.49,1.3-2.6,3.09-2.6
			C120.36,82.13,121.28,82.71,121.28,83.58z"/>
		<path fill="#48176D" d="M130.92,89.84c-0.97,1.72-2.14,2.71-3.27,2.71c-0.78,0-1.39-0.67-1.39-1.52v-0.12v-0.14
			c-1.25,1.29-2.07,1.77-3.11,1.77c-1.32,0-2.14-0.99-2.14-2.55c0-1.82,1.04-4.12,2.66-5.89c1.2-1.31,2.45-1.98,3.7-1.98
			c0.61,0,0.92,0.16,1.2,0.67l0.14-0.37h1.81l-2.62,8.35c-0.07,0.16-0.09,0.32-0.09,0.44c0,0.18,0.17,0.35,0.35,0.35
			c0.59,0,1.41-0.78,2.12-2.02L130.92,89.84z M124.42,85.7c-1.01,1.68-1.6,3.43-1.6,4.67c0,0.76,0.31,1.22,0.8,1.22
			c1.06,0,2.21-1.29,3.13-3.54c0.94-2.25,1.46-3.84,1.46-4.39c0-0.46-0.35-0.76-0.9-0.76C126.51,82.89,125.52,83.83,124.42,85.7z"/>
		<path fill="#48176D" d="M137.94,83.58c0,0.48-0.35,0.83-0.85,0.83c-0.49,0-0.61-0.16-0.71-0.83c-0.05-0.41-0.42-0.69-0.92-0.69
			c-0.73,0-1.25,0.46-1.25,1.1c0,0.46,0.24,1.06,0.87,2.16c0.97,1.75,1.3,2.58,1.3,3.36c0,1.7-1.48,3.04-3.37,3.04
			c-1.46,0-2.61-0.94-2.61-2.14c0-0.46,0.33-0.8,0.78-0.8c0.54,0,0.9,0.51,0.92,1.33c0.02,0.62,0.28,0.83,0.99,0.83
			c0.9,0,1.67-0.62,1.67-1.33c0-0.53,0-0.53-1.37-3.24c-0.71-1.38-0.85-1.82-0.85-2.46c0-1.49,1.3-2.6,3.09-2.6
			C137.02,82.13,137.94,82.71,137.94,83.58z"/>
		<path fill="#48176D" d="M156.86,81.86h-0.75c0.09-0.41,0.12-0.62,0.12-0.94c0-2.21-1.23-3.61-3.16-3.61
			c-1.86,0-3.49,1.29-4.92,3.93c-1.06,1.98-1.67,4.21-1.67,6.21c0,2.71,1.32,4.35,3.53,4.35c2.17,0,3.67-1.29,4.9-4.16h0.9
			l-1.81,4.94h-0.64l-0.26-0.78c-1.32,0.64-2.36,0.92-3.49,0.92c-3.27,0-5.54-2.53-5.54-6.19c0-5.04,4.43-10.07,8.86-10.07
			c1.41,0,2.88,0.58,3.58,1.43l0.97-0.97h0.64L156.86,81.86z"/>
		<path fill="#48176D" d="M161.59,89.84c-0.94,1.79-2,2.71-3.13,2.71c-0.85,0-1.51-0.53-1.51-1.2c0-0.3,0.09-0.74,0.24-1.17
			l1.93-5.77c0.19-0.62,0.19-0.64,0.19-0.81c0-0.16-0.09-0.25-0.26-0.25c-0.47,0-0.82,0.46-1.44,1.96l-0.82-0.21
			c0.45-0.9,0.61-1.22,0.94-1.68c0.57-0.8,1.37-1.29,2.17-1.29c0.82,0,1.39,0.46,1.39,1.13c0,0.3-0.05,0.55-0.26,1.15l-2,6.05
			c-0.09,0.3-0.14,0.46-0.14,0.6c0,0.21,0.14,0.37,0.33,0.37c0.52,0,0.9-0.46,1.67-1.95L161.59,89.84z M162.75,78.73
			c0,0.69-0.57,1.24-1.25,1.24c-0.71,0-1.27-0.55-1.27-1.24c0-0.69,0.57-1.22,1.27-1.22C162.18,77.51,162.75,78.06,162.75,78.73z"/>
		<path fill="#48176D" d="M168.26,83.42h-1.6l-2.24,6.9c-0.12,0.37-0.14,0.51-0.14,0.67c0,0.32,0.14,0.48,0.45,0.48
			c0.68,0,1.44-0.9,2.17-2.6l0.78,0.37c-0.97,2.16-2.21,3.31-3.63,3.31c-0.97,0-1.6-0.55-1.6-1.4c0-0.39,0.07-0.76,0.33-1.52l2-6.21
			h-1.55l0.26-0.8h1.55l1.06-3.29h1.88l-1.08,3.31h1.63L168.26,83.42z"/>
		<path fill="#48176D" d="M168.33,85.4c0.38-2.09,1.13-3.27,2.12-3.27c1.37,0,2,2.23,2,7.13c0,0.51-0.02,0.8-0.05,1.33
			c1.22-1.77,2.43-4.71,2.43-5.96c0-0.37,0-0.37-0.59-1.08c-0.17-0.18-0.26-0.48-0.26-0.71c0-0.46,0.31-0.8,0.73-0.8
			c0.73,0,1.23,0.76,1.23,1.93c0,1.29-0.52,2.83-1.77,5.36c-1.84,3.66-3.39,6-4.85,7.31c-1.3,1.15-2.71,1.84-3.79,1.84
			c-0.75,0-1.32-0.39-1.32-0.9c0-0.46,0.42-0.83,0.94-0.83c0.33,0,0.33,0,1.11,0.3c0.17,0.07,0.31,0.09,0.45,0.09
			c0.71,0,1.81-0.74,2.62-1.7c1.13-1.38,1.55-2.94,1.55-5.61c0-1.66-0.14-3.33-0.45-5.29c-0.14-0.9-0.24-1.15-0.47-1.15
			c-0.35,0-0.75,0.97-0.97,2.37L168.33,85.4z"/>
		<path fill="#48176D" d="M178.79,91.49c0,1.1-0.54,2.25-1.39,2.97c-0.64,0.55-1.7,1.08-2.17,1.08c-0.21,0-0.42-0.16-0.42-0.34
			c0-0.14,0.14-0.23,0.61-0.41c0.97-0.32,1.86-1.4,1.86-2.23c0-0.3,0-0.3-0.59-0.48c-0.4-0.12-0.73-0.62-0.73-1.13
			c0-0.71,0.59-1.31,1.34-1.31C178.13,89.63,178.79,90.43,178.79,91.49z"/>
		<path fill="#48176D" d="M206.69,77.63h-0.19c-1.48,0-1.67,0.14-2.03,1.54l-2.8,10.92c-0.07,0.21-0.09,0.41-0.09,0.57
			c0,0.51,0.5,0.87,1.2,0.87h0.78l-0.21,0.71h-6.53l0.17-0.71h0.61c1.18,0,1.58-0.3,1.84-1.33l0.17-0.71l2.62-10.32l-8.65,13.08
			h-0.73l-0.71-11.61l-3.49,9.17c-0.28,0.8-0.31,0.9-0.31,1.15c0,0.44,0.35,0.58,1.48,0.58h0.33l-0.17,0.71h-4.88l0.17-0.71h0.59
			c0.92,0,1.15-0.21,1.6-1.47l4.43-11.31c0.07-0.16,0.09-0.3,0.09-0.44c0-0.28-0.19-0.55-0.47-0.62c-0.24-0.07-0.38-0.07-1.25-0.07
			h-0.54l0.09-0.71h4.26l0.71,11.93l7.89-11.93h4.19L206.69,77.63z"/>
		<path fill="#48176D" d="M210.48,89.84c-0.94,1.79-2,2.71-3.13,2.71c-0.85,0-1.51-0.53-1.51-1.2c0-0.3,0.09-0.74,0.24-1.17
			l1.93-5.77c0.19-0.62,0.19-0.64,0.19-0.81c0-0.16-0.09-0.25-0.26-0.25c-0.47,0-0.82,0.46-1.44,1.96l-0.82-0.21
			c0.45-0.9,0.61-1.22,0.94-1.68c0.57-0.8,1.37-1.29,2.17-1.29c0.83,0,1.39,0.46,1.39,1.13c0,0.3-0.05,0.55-0.26,1.15l-2,6.05
			c-0.09,0.3-0.14,0.46-0.14,0.6c0,0.21,0.14,0.37,0.33,0.37c0.52,0,0.9-0.46,1.67-1.95L210.48,89.84z M211.64,78.73
			c0,0.69-0.57,1.24-1.25,1.24c-0.71,0-1.27-0.55-1.27-1.24c0-0.69,0.57-1.22,1.27-1.22C211.07,77.51,211.64,78.06,211.64,78.73z"/>
		<path fill="#48176D" d="M217.81,83.58c0,0.48-0.35,0.83-0.85,0.83c-0.49,0-0.61-0.16-0.71-0.83c-0.05-0.41-0.42-0.69-0.92-0.69
			c-0.73,0-1.25,0.46-1.25,1.1c0,0.46,0.24,1.06,0.87,2.16c0.97,1.75,1.29,2.58,1.29,3.36c0,1.7-1.48,3.04-3.37,3.04
			c-1.46,0-2.62-0.94-2.62-2.14c0-0.46,0.33-0.8,0.78-0.8c0.54,0,0.9,0.51,0.92,1.33c0.02,0.62,0.28,0.83,0.99,0.83
			c0.9,0,1.67-0.62,1.67-1.33c0-0.53,0-0.53-1.37-3.24c-0.71-1.38-0.85-1.82-0.85-2.46c0-1.49,1.3-2.6,3.09-2.6
			C216.89,82.13,217.81,82.71,217.81,83.58z"/>
		<path fill="#48176D" d="M224.17,83.58c0,0.48-0.35,0.83-0.85,0.83c-0.49,0-0.61-0.16-0.71-0.83c-0.05-0.41-0.42-0.69-0.92-0.69
			c-0.73,0-1.25,0.46-1.25,1.1c0,0.46,0.24,1.06,0.87,2.16c0.97,1.75,1.3,2.58,1.3,3.36c0,1.7-1.48,3.04-3.37,3.04
			c-1.46,0-2.62-0.94-2.62-2.14c0-0.46,0.33-0.8,0.78-0.8c0.54,0,0.9,0.51,0.92,1.33c0.02,0.62,0.28,0.83,0.99,0.83
			c0.9,0,1.67-0.62,1.67-1.33c0-0.53,0-0.53-1.37-3.24c-0.71-1.38-0.85-1.82-0.85-2.46c0-1.49,1.3-2.6,3.09-2.6
			C223.25,82.13,224.17,82.71,224.17,83.58z"/>
		<path fill="#48176D" d="M231.92,85.4c0,3.73-2.5,7.15-5.21,7.15c-1.6,0-2.59-1.36-2.59-3.54c0-3.59,2.47-6.88,5.18-6.88
			C230.86,82.13,231.92,83.47,231.92,85.4z M226.83,85.79c-0.71,1.72-1.11,3.36-1.11,4.44c0,0.94,0.35,1.47,1.01,1.47
			c0.94,0,1.72-0.92,2.57-2.97c0.57-1.38,1.04-3.43,1.04-4.55c0-0.71-0.42-1.17-1.08-1.17C228.34,83.01,227.61,83.86,226.83,85.79z"
			/>
		<path fill="#48176D" d="M239.93,90.41c-0.09,0.3-0.17,0.62-0.17,0.78c0,0.18,0.14,0.34,0.33,0.34c0.42,0,1.04-0.74,1.72-2.09
			l0.68,0.32c-0.97,1.84-1.98,2.78-2.95,2.78c-0.8,0-1.27-0.6-1.27-1.56c0-0.34,0.02-0.58,0.12-1.04c-1.27,1.79-2.38,2.6-3.58,2.6
			c-0.92,0-1.55-0.64-1.55-1.54c0-0.37,0.07-0.78,0.21-1.24l1.86-5.7c0.12-0.39,0.12-0.39,0.12-0.53c0-0.18-0.09-0.28-0.24-0.28
			c-0.47,0-0.99,0.67-1.48,1.89l-0.78-0.18c0.75-1.82,1.84-2.83,3.02-2.83c0.8,0,1.25,0.46,1.25,1.29c0,0.44-0.09,0.92-0.35,1.72
			l-1.6,4.97c-0.19,0.53-0.21,0.67-0.21,0.9c0,0.28,0.19,0.48,0.47,0.48c1.25,0,2.95-2.44,4.05-5.93l1.01-3.13h1.86L239.93,90.41z"
			/>
		<path fill="#48176D" d="M243.56,92.25l1.41-5.04c0.47-1.7,0.75-3.04,0.75-3.56c0-0.28-0.12-0.46-0.31-0.46
			c-0.42,0-1.01,0.87-1.48,2.23h-0.8c0.68-2.16,1.53-3.29,2.52-3.29c0.85,0,1.3,0.64,1.3,1.86c0,0.53-0.05,0.9-0.17,1.54
			c0.9-2.18,2.03-3.56,2.95-3.56c0.64,0,1.08,0.51,1.08,1.26c0,0.6-0.38,1.15-0.78,1.15c-0.26,0-0.28,0-0.66-0.55
			c-0.09-0.14-0.26-0.23-0.4-0.23c-0.54,0-1.41,1.72-2.36,4.67l-1.3,3.98H243.56z"/>
		<path fill="#48176D" d="M255.5,89.84c-0.94,1.79-2,2.71-3.13,2.71c-0.85,0-1.51-0.53-1.51-1.2c0-0.3,0.09-0.74,0.24-1.17
			l1.93-5.77c0.19-0.62,0.19-0.64,0.19-0.81c0-0.16-0.09-0.25-0.26-0.25c-0.47,0-0.82,0.46-1.44,1.96l-0.82-0.21
			c0.45-0.9,0.61-1.22,0.94-1.68c0.57-0.8,1.37-1.29,2.17-1.29c0.82,0,1.39,0.46,1.39,1.13c0,0.3-0.05,0.55-0.26,1.15l-2,6.05
			c-0.09,0.3-0.14,0.46-0.14,0.6c0,0.21,0.14,0.37,0.33,0.37c0.52,0,0.9-0.46,1.67-1.95L255.5,89.84z M256.66,78.73
			c0,0.69-0.57,1.24-1.25,1.24c-0.71,0-1.27-0.55-1.27-1.24c0-0.69,0.57-1.22,1.27-1.22C256.09,77.51,256.66,78.06,256.66,78.73z"/>
	</g>
</g>
</svg>