<?xml version="1.0" encoding="UTF-8" standalone="no"?>
<svg xmlns:rdf="http://www.w3.org/1999/02/22-rdf-syntax-ns#" xmlns="http://www.w3.org/2000/svg" xml:space="preserve" height="49.235" viewBox="0 0 204.91335 49.235352" width="204.91" version="1.1" xmlns:cc="http://creativecommons.org/ns#" xmlns:dc="http://purl.org/dc/elements/1.1/"><g transform="matrix(1.25 0 0 -1.25 -101.46 82.714)"><path d="m99.848 65.395-0.09297-0.03828-14.949-6.0953-0.16641-0.06797 0.01563-0.17891c1.09-12.256 5.8625-22.186 15.018-31.25l0.15938-0.15781 0.16953 0.14609c5.789 4.977 14.458 18.357 14.685 31.269l0.002 0.16641-0.15156 0.0625-14.596 6.1062-0.09375 0.03828zm-0.0016-0.52656 14.348-6.0008c-0.291-12.589-8.6436-25.584-14.339-30.594-8.918 8.8895-13.593 18.626-14.696 30.607l14.688 5.9875zm4.6164-3.4312 7.0414-4.4828c-0.1515-8.55-7.5205-20.657-11.55-24.057-6.1575 5.986-11.309 15.914-12.116 24.12l7.3188 4.4148-8.0336-3.9797c0.9665-10.692 4.9568-19.059 12.794-26.68 5.1295 4.3305 12.109 15.768 12.302 26.653l-7.7562 4.0125zm33.651-1.65c-3.171 0-5.9477-2.3082-5.9477-5.6797 0-3.2805 2.6308-5.4984 6.0024-5.4984 2.165 0 3.7869 0.59522 3.9844 1.1367 0.181 0.5045 0.30775 1.2799 0.34375 1.7484 0.0185 0.251-0.0186 0.30688-0.28906 0.35938-0.396 0.091-0.50525-0.01756-0.59375-0.25156-0.5785-1.569-1.4249-2.2906-3.1914-2.2906-2.5965 0-4.5438 1.9486-4.5438 4.9961 0 3.153 1.8918 4.7766 4.1828 4.7766 1.928 0 2.7404-0.64909 3.3164-2.4711 0.037-0.1255 0.14437-0.23391 0.39687-0.21641 0.2165 0.0195 0.41485 0.09137 0.41485 0.27188 0 0.6125-0.0181 1.5322-0.0906 2.0188-0.036 0.27-0.35996 0.43266-1.0805 0.68516-0.6495 0.234-1.4797 0.41484-2.9047 0.41484zm101.37-1.7c-0.0129 0.0014-0.0265-0.000375-0.0398-0.0063-0.2405-0.0735-0.49825-0.22497-0.54375-0.39297-0.6055-2.1155-1.9359-4.9275-3.0539-7.3625-0.3175-0.6945-0.54537-0.84681-0.84687-0.98281-0.347-0.1515-0.48441-0.19613-0.45391-0.37813 0.0305-0.227 0.10675-0.25672 0.31875-0.21172 0.6035 0.12 1.4499 0.18241 2.2664 0.09141 0.35-0.045 0.4235-0.01603 0.4375 0.18047 0.0165 0.136-0.0428 0.16644-0.63282 0.42344-0.4695 0.1955-0.50018 0.57494-0.31718 0.99844 0.1795 0.4535 0.43618 1.0583 0.67968 1.6328 0.527-0.047 1.1647-0.06094 1.8297-0.06094 0.619 0 1.2101-0.00025 1.7086 0.03125 0.257-0.5895 0.55769-1.3011 0.82969-1.9516 0.168-0.3935 0.15462-0.51409-0.64688-0.84609-0.2735-0.106-0.25941-0.15134-0.22891-0.30234 0.0305-0.136 0.061-0.16644 0.39453-0.13594 1.194 0.091 2.328 0.05941 2.8555-0.04609 0.1975-0.045 0.22822-0.03084 0.27422 0.21016 0.03 0.138-0.0617 0.19738-0.27422 0.25938-0.5885 0.1795-0.82987 0.48331-0.99687 0.84531-1.0425 2.3295-2.2976 5.172-3.2961 7.6055-0.0936 0.21262-0.17319 0.38977-0.26328 0.39922zm-87.28-0.06641c-2.736 0-4.9602-2.0101-4.9602-4.7156 0-2.83 2.1936-4.6578 4.9602-4.6578 2.662 0 4.9141 2.0411 4.9141 4.7016 0 2.7515-2.1306 4.6719-4.9141 4.6719zm28.141 0c-2.6605 0-4.9891-1.9337-4.9891-4.7617 0-2.7525 2.2066-4.6117 5.0336-4.6117 1.815 0 3.1752 0.49856 3.3422 0.95156 0.1515 0.424 0.258 1.0745 0.2875 1.468 0.0165 0.2125-0.0155 0.25706-0.24297 0.30156-0.332 0.0755-0.42094-0.0155-0.49844-0.2125-0.4835-1.3145-1.1943-1.9188-2.6758-1.9188-2.1785 0-3.8094 1.6318-3.8094 4.1883 0 2.646 1.5881 4.007 3.5086 4.007 1.616 0 2.2975-0.54466 2.7805-2.0727 0.0305-0.1055 0.12109-0.19575 0.33359-0.18125 0.18 0.016 0.34687 0.07634 0.34687 0.22734 0 0.514-0.0133 1.2855-0.0758 1.693-0.029 0.227-0.30046 0.36222-0.90546 0.57422-0.5445 0.1965-1.2399 0.34766-2.4359 0.34766zm12.757 0c-2.737 0-4.9586-2.0101-4.9586-4.7156 0-2.83 2.1911-4.6578 4.9586-4.6578 2.6605 0 4.9141 2.0411 4.9141 4.7016 0 2.7515-2.1311 4.6719-4.9141 4.6719zm-21.844-0.07422c-0.0566 0.0015-0.12891-0.0045-0.21953-0.01562-0.921-0.107-1.9648-0.09191-2.4938-0.02891-0.242 0.029-0.30391-0.03238-0.30391-0.25938 0-0.136 0.062-0.14981 0.31797-0.19531 0.5595-0.092 0.92266-0.43928 0.92266-1.0133v-4.9453c0-0.2555-0.0749-0.22538-0.21094-0.05937-0.9385 1.0725-3.796 4.0526-5.732 6.1086-0.1805 0.197-0.27141 0.28597-0.60391 0.25547-0.4535-0.044-1.0885-0.01291-1.543 0.04609-0.2405 0.0305-0.28656 0.01628-0.30156-0.13672-0.016-0.135 0.0439-0.19591 0.31641-0.31641 0.591-0.271 0.77187-0.469 0.77187-1.0125v-6.0484c0-0.605-0.10584-0.87697-0.87734-1.043-0.242-0.0605-0.30157-0.107-0.30157-0.2125 0-0.1965 0.0451-0.25669 0.30157-0.24219 0.6965 0.061 1.8453 0.0305 2.5258 0 0.3625-0.0145 0.42265 0.06169 0.42265 0.24219 0 0.152-0.0601 0.19781-0.37812 0.25781-0.589 0.1055-0.90625 0.43778-0.90625 1.0883v5.5945c0 0.182 0.12087 0.19831 0.19687 0.12031 1.9805-1.98 5.9561-6.2129 6.4711-7.1664 0.1805-0.3325 0.28606-0.37819 0.51406-0.31719 0.165 0.0445 0.18184 0.10581 0.16484 0.40781-0.029 0.6495-0.0445 1.6787-0.0445 2.5102v4.9141c0 0.606 0.46953 0.84662 0.83203 0.95312 0.318 0.09 0.36172 0.18131 0.36172 0.27031 0 0.171-0.0335 0.23932-0.20312 0.24375zm59.445-0.0086c-0.0567-0.0021-0.12865-0.0105-0.21953-0.02188-1.24-0.151-2.2223-0.09197-2.7508-0.03047-0.2435 0.0305-0.30313 0.01675-0.30313-0.25625 0-0.136 0.0602-0.15138 0.31719-0.19688 0.393-0.06 0.77188-0.21322 0.77188-0.71172v-6.6977c0-0.5445-0.10685-0.57462-0.87735-0.74062-0.2415-0.0605-0.30312-0.107-0.30312-0.2125 0-0.2255 0.0466-0.25669 0.30312-0.24219 0.697 0.061 2.1018 0.0305 2.7828 0 0.362-0.0145 0.42266 0.00068 0.42266 0.24219 0 0.1675-0.0298 0.19781-0.37734 0.25781-0.422 0.076-0.75625 0.27116-0.75625 0.78516v6.6523c0 0.4395 0.58925 0.57656 0.83125 0.65156 0.3625 0.1055 0.3625 0.15109 0.3625 0.27109 0 0.20512-0.0337 0.25638-0.20391 0.25zm-12.784-0.08203c-1.5735 0-3.2384-0.04512-3.9024-0.09062-0.393-0.0305-0.454-0.04547-0.4375-0.24297 0.013-0.2125 0.0447-0.22597 0.51172-0.31797 0.59-0.1195 0.68281-0.22653 0.68281-0.69453v-6.5477c0-0.6195-0.36384-0.6945-0.66484-0.725-0.2435-0.0315-0.30312-0.0765-0.30312-0.2125 0-0.211 0.0596-0.25691 0.30312-0.24141 1.512 0.136 2.7052-0.03047 3.4312-0.03047 3.341 0 5.6562 1.4672 5.6562 4.7477 0 2.798-2.2083 4.3555-5.2773 4.3555zm-15.627-0.04687c-0.16988-0.0049-0.20469-0.07591-0.20469-0.25703 0-0.151 0.0609-0.17969 0.3789-0.24219 0.44-0.091 0.75703-0.287 0.75703-0.8v-6.5477c0-0.6195-0.36184-0.6945-0.66484-0.725-0.2415-0.0315-0.30469-0.0765-0.30469-0.2125 0-0.211 0.0632-0.25691 0.30469-0.24141 0.6975 0.061 1.4366 0.12144 2.6906 0.06094 0.363-0.016 0.40938-0.000094 0.40938 0.24141 0 0.182-0.0464 0.21103-0.3789 0.25703-0.6955 0.1055-0.84688 0.18253-0.84688 0.61953v2.8727c0.4085 0.0155 0.78616 0.05997 1.1352 0.10547 1.088-2.6445 2.5855-4.2641 4.4-4.2641 0.211 0 0.25703 0.03156 0.25703 0.15156 0 0.2125-0.046 0.24166-0.2125 0.27266-1.2095 0.196-2.5111 2.0861-3.2516 4.0961 1.361 0.4105 2.057 1.196 2.057 2.4055 0 1.5585-1.3444 2.1914-3.0539 2.1914-1.845 0-2.5081-0.1055-3.2531 0-0.0905 0.01138-0.16212 0.01726-0.21874 0.01562zm-50.406-0.43671c2.2375 0 3.8406-1.5423 3.8406-4.2633 0-2.285-1.3469-3.8125-3.2359-3.8125-2.3145 0-3.8547 1.5578-3.8547 4.2953 0 2.2525 1.3755 3.7805 3.25 3.7805zm40.897 0c2.237 0 3.8406-1.5423 3.8406-4.2633 0-2.285-1.3452-3.8125-3.2352-3.8125-2.3135 0-3.8562 1.5578-3.8562 4.2953 0 2.2525 1.3763 3.7805 3.2508 3.7805zm12.512-0.01641c1.543 0 2.193-0.49825 2.193-1.9188 0-1.347-0.86247-1.9671-3.0555-2.1031v3.2805c0 0.5295 0.0905 0.74141 0.8625 0.74141zm12.395-0.075c2.662 0 4.0695-1.331 4.0695-3.9625 0-2.7055-1.4966-3.9148-4.0086-3.9148-1.4205 0-1.7672 0.23997-1.7672 1.118v6.6227c0 0.075 0.16475 0.13672 1.7062 0.13672zm21.319-1.2617c0.0412 0.0076 0.0865-0.02306 0.13203-0.11406 0.4985-1.119 1.0595-2.4663 1.468-3.3273-0.379-0.016-0.86312-0.03047-1.3156-0.03047-0.607 0-1.2107 0.01472-1.7547 0.06172 0.347 0.845 1.0424 2.5096 1.3609 3.2961 0.0305 0.06075 0.0681 0.1065 0.10938 0.11406zm-139.38-0.256c-2.0315 0.01-3.4529-0.86903-3.8219-2.5445-0.058-0.3365-0.08359-0.74556-0.08359-1.0766v-4.9523c0-0.3325 0.02559-0.74134 0.08359-1.0773 0.369-1.676 1.7904-2.554 3.8219-2.5445 1.4985 0.006 2.4092 0.53975 2.9922 1.2938 0.19 0.2705 0.32791 0.52609 0.41641 0.74609 0.234 0.524 0.2855 1.1109 0.2875 1.5664 0.00048 0.197-0.008 0.37062-0.0156 0.50312-0.0195 0.379-0.2274 0.28831-0.3164 0.27031-0.0915-0.0185-1.2301-0.31134-1.5656-0.40234-0.2035-0.055-0.25331-0.08169-0.27031-0.16719-0.006-0.0355-0.004-0.08941-0.004-0.11641 0-0.2355-0.0247-0.45541-0.0852-0.65391-0.0275-0.0925-0.063-0.18022-0.10547-0.26172-0.0205-0.058-0.41309-0.71047-1.3336-0.71797-1.02-0.009-1.5836 0.80272-1.5836 1.5617v4.9445c0 0.0195 0.000281 0.03725 0.0008 0.05625v0.0086c0.00048 0.0145 0.00084 0.02903 0.0024 0.04453 0.016 0.2425 0.08891 0.48847 0.21641 0.70547 0.143 0.241 0.34416 0.42603 0.56016 0.54453 0.372 0.207 0.80391 0.20391 0.80391 0.20391 0.0835 0 0.16334-0.004 0.23984-0.0125 0.7495-0.105 1.0737-0.64872 1.0937-0.69922 0.0425-0.084 0.078-0.17022 0.10547-0.26172 0.003-0.0105 0.004-0.01328 0.004-0.01328 0.0555-0.22 0.0932-0.41966 0.0992-0.63516 0.00048-0.0405 0.00076-0.07278 0.006-0.10078 0.00048-0.005 0.00056-0.0093 0.002-0.01328 0.00048-0.006 0.003-0.01041 0.005-0.01641 0.00048-0.004 0.00034-0.0067 0.002-0.01016 0.003-0.009 0.009-0.01728 0.0141-0.02578 0.0265-0.0445 0.0628-0.04878 0.0758-0.05078 0.004-0.001 0.008 0.000282 0.0148 0.0008 0.008 0.001 0.0171 0.0035 0.0266 0.0055 0.038 0.0105 1.7177 0.61078 1.8047 0.63828 0.0865 0.026 0.18003 0.05569 0.15703 0.30469v0.0008c-0.003 0.019-0.004 0.04028-0.008 0.06328-0.003 0.0165-0.005 0.03491-0.009 0.05391-0.002 0.0085-0.004 0.02003-0.006 0.03203-0.042 0.2555-0.10875 0.51712-0.21875 0.76562-0.0885 0.219-0.2264 0.47538-0.4164 0.74688-0.583 0.754-1.4937 1.286-2.9922 1.293zm82.586-12.528c-1.013 0-1.7055-0.63112-1.7055-1.3781 0-0.767 0.41087-1.1422 1.6219-1.7422 0.94-0.464 1.243-0.79472 1.243-1.2867 0-0.52-0.3205-0.86641-1.1125-0.86641-0.595 0-0.98566 0.255-1.4602 0.9375-0.093 0.129-0.12059 0.14728-0.28359 0.07578-0.146-0.0645-0.14622-0.10075-0.0992-0.25625 0.0635-0.2195 0.14413-0.46403 0.25313-0.69453 0.1375-0.279 0.58631-0.44531 1.4328-0.44531 1.26 0 1.9625 0.63778 1.9625 1.5508 0 0.7835-0.6025 1.215-1.7875 1.807-0.822 0.409-1.0774 0.68328-1.0774 1.1758 0 0.456 0.32832 0.7375 0.89532 0.7375 0.572 0 0.96456-0.20781 1.3391-0.92031 0.066-0.109 0.0994-0.12809 0.23594-0.10859 0.1385 0.018 0.14856 0.05363 0.13906 0.19063-0.0175 0.2645-0.0651 0.58453-0.13906 0.83203-0.036 0.1095-0.19957 0.19878-0.42657 0.26328-0.311 0.082-0.57675 0.12812-1.0312 0.12812zm-23.899-0.01172c-0.0342-0.0012-0.0781-0.007-0.13281-0.01641-0.7475-0.109-1.4779-0.10897-1.8164-0.08047-0.127 0.018-0.17265-0.01919-0.17265-0.16719 0-0.0805 0.056-0.08963 0.2-0.11562 0.2655-0.066 0.43944-0.20091 0.58594-0.46641 0.8395-1.4885 1.9429-3.9031 2.1234-4.5891 0.0475-0.1815 0.12797-0.266 0.19297-0.2375 0.155 0.047 0.25729 0.1285 0.30079 0.2375 0.6025 1.469 1.3955 3.2196 2.043 4.4406 0.219 0.4135 0.33832 0.52175 0.48282 0.56875 0.2485 0.072 0.26484 0.09847 0.26484 0.21797 0 0.1355-0.045 0.14491-0.18047 0.12891-0.329-0.0375-0.68469-0.07438-1.4422 0.01562-0.219 0.0285-0.26465 0.0114-0.27265-0.10859-0.01-0.0985 0.008-0.12891 0.18047-0.19141 0.439-0.1465 0.58503-0.33631 0.45703-0.62031-0.3385-0.7475-1.066-2.3812-1.5055-3.3742-0.0545-0.139-0.10941-0.1285-0.15391 0-0.557 1.257-1.0145 2.398-1.607 3.557-0.1095 0.22-0.0531 0.32809 0.36641 0.48359 0.209 0.0725 0.20859 0.09944 0.20859 0.17344 0 0.10988-0.02 0.1475-0.12266 0.14375zm44.092 0c-0.0342-0.0012-0.0769-0.007-0.13125-0.01641-0.749-0.109-1.4793-0.11947-1.8148-0.08047-0.147 0.018-0.17344-0.01919-0.17344-0.16719 0-0.0805 0.0346-0.08063 0.20156-0.11562 0.254-0.0555 0.48172-0.24741 0.67422-0.46641 1.0305-1.2225 1.5323-1.9171 1.8953-2.6281v-1.1211c0-0.4485-0.0823-0.56488-0.53829-0.68438-0.127-0.036-0.16253-0.08081-0.14453-0.18281 0.018-0.1 0.0464-0.1365 0.27188-0.1 0.311 0.027 0.9699 0.04541 1.6164-0.0086 0.209-0.0195 0.24685-0.0195 0.26485 0.1 0.0195 0.111-0.027 0.155-0.21953 0.2-0.4745 0.1105-0.52813 0.19325-0.52813 0.55625v1.4609c0.474 0.7755 0.88466 1.3584 1.5852 2.2594 0.2835 0.375 0.51969 0.52175 0.66719 0.56875 0.219 0.063 0.26484 0.09847 0.26484 0.21797 0 0.1355-0.0461 0.14491-0.1836 0.12891-0.328-0.0375-0.68434-0.07437-1.4398 0.01562-0.2205 0.0285-0.26644 0.0114-0.27344-0.10859-0.011-0.0985 0.00025-0.12891 0.18125-0.19141 0.4395-0.1465 0.44644-0.36431 0.27344-0.62031-0.417-0.6295-0.86556-1.2764-1.2391-1.8344-0.066-0.1-0.0937-0.1-0.15625 0-0.519 0.804-0.8925 1.3322-1.4125 2.0172-0.138 0.1815-0.15713 0.32809 0.27187 0.48359 0.182 0.0725 0.21094 0.12794 0.21094 0.17344 0 0.10988-0.0218 0.1475-0.12422 0.14375zm-54.51-0.034c-0.0342 0.00088-0.0773-0.0026-0.13203-0.0094-0.5555-0.064-1.1854-0.05353-1.5039-0.01953-0.146 0.0195-0.18437-0.01569-0.18437-0.15469 0-0.0825 0.038-0.09047 0.19297-0.11797 0.337-0.054 0.55547-0.26572 0.55547-0.61172v-2.9828c0-0.1555-0.0436-0.13744-0.12657-0.03594-0.565 0.6475-2.2898 2.4442-3.4578 3.6852-0.109 0.1175-0.16284 0.17347-0.36484 0.15547-0.2735-0.0275-0.65569-0.0101-0.92969 0.02891-0.1465 0.018-0.17431 0.0061-0.18281-0.08438-0.01-0.0835 0.0279-0.11919 0.19141-0.19219 0.355-0.163 0.46484-0.28116 0.46484-0.61016v-3.6477c0-0.366-0.0647-0.52897-0.52969-0.63047-0.146-0.036-0.18125-0.06312-0.18125-0.12812 0-0.118 0.0262-0.15431 0.18125-0.14531 0.42 0.037 1.1135 0.018 1.525 0 0.218-0.009 0.25469 0.03681 0.25469 0.14531 0 0.092-0.0371 0.11897-0.22813 0.15547-0.357 0.065-0.54687 0.26547-0.54687 0.65547v3.3758c0 0.1095 0.0723 0.12072 0.11875 0.07422 1.1945-1.1955 3.5931-3.7489 3.9031-4.3234 0.11-0.201 0.17438-0.22969 0.30938-0.19219 0.101 0.0275 0.11078 0.06231 0.10078 0.24531-0.017 0.3925-0.0266 1.0126-0.0266 1.5141v2.9664c0 0.3645 0.28234 0.51094 0.50234 0.57344 0.1905 0.0535 0.21719 0.11056 0.21719 0.16406 0 0.10312-0.0202 0.14423-0.12266 0.14688zm5.2352-0.0047c-0.0344-0.0012-0.0785-0.0059-0.1336-0.0125-0.747-0.092-1.3408-0.05581-1.6578-0.02031-0.1465 0.02-0.18359 0.0093-0.18359-0.15469 0-0.0815 0.0371-0.09125 0.19062-0.11875 0.2395-0.035 0.46641-0.12784 0.46641-0.42734v-4.043c0-0.326-0.0637-0.34459-0.52969-0.44609-0.1445-0.036-0.18125-0.06313-0.18125-0.12813 0-0.1365 0.0258-0.15431 0.18125-0.14531 0.4205 0.037 1.2682 0.018 1.6797 0 0.2185-0.009 0.25547-0.000188 0.25547 0.14531 0 0.101-0.0201 0.11897-0.22813 0.15547-0.255 0.047-0.45625 0.16422-0.45625 0.47422v4.0148c0 0.2625 0.35478 0.34491 0.50078 0.39141 0.219 0.0625 0.21954 0.08984 0.21954 0.16484 0 0.123-0.0203 0.15349-0.12344 0.15zm36.238 0c-0.0341-0.0012-0.0771-0.0059-0.13125-0.0125-0.7495-0.092-1.3414-0.05581-1.6609-0.02031-0.147 0.02-0.18203 0.0093-0.18203-0.15469 0-0.0815 0.0355-0.09125 0.19453-0.11875 0.233-0.035 0.46094-0.12784 0.46094-0.42734v-4.043c0-0.326-0.0624-0.34459-0.52735-0.44609-0.148-0.036-0.18281-0.06313-0.18281-0.12813 0-0.1365 0.0258-0.15431 0.18281-0.14531 0.4185 0.037 1.2664 0.018 1.6774 0 0.219-0.009 0.25391-0.000188 0.25391 0.14531 0 0.101-0.0156 0.11897-0.22657 0.15547-0.254 0.047-0.45469 0.16422-0.45469 0.47422v4.0148c0 0.2625 0.35494 0.34491 0.49844 0.39141 0.222 0.0625 0.22188 0.08984 0.22188 0.16484 0 0.123-0.0219 0.15349-0.12422 0.15zm8.2602-0.02266c-0.032 0.000336-0.0718-0.003-0.12188-0.01016-0.472-0.064-1.823-0.08125-2.6445-0.08125-0.747 0-1.1596 0.00025-1.9711 0.05625-0.1995 0.0065-0.25547-0.0105-0.25547-0.075 0-0.3445-0.0721-1.0398-0.1461-1.2578-0.027-0.092-0.009-0.12797 0.1-0.15547 0.1015-0.0375 0.14685-0.02791 0.20235 0.10859 0.2555 0.6305 0.51872 1.0203 1.6492 1.0203 0.3675 0 0.39296-0.02681 0.39296-0.14531v-3.9938c0-0.4485-0.17153-0.56488-0.61953-0.68438-0.1465-0.036-0.16737-0.08081-0.14687-0.18281 0.0165-0.1 0.0374-0.1285 0.27344-0.1 0.3115 0.036 1.1489 0.04541 1.7984-0.0086 0.2105-0.0195 0.24629-0.0195 0.26329 0.1 0.018 0.1375 0.00031 0.146-0.21719 0.2-0.476 0.1105-0.6211 0.19325-0.6211 0.55625v4.1133c0 0.1185 0.0551 0.14531 0.39063 0.14531 1.224 0 1.405-0.34481 1.607-0.98281 0.0355-0.101 0.073-0.14625 0.2-0.11875 0.1095 0.0265 0.1 0.07153 0.1 0.14453 0.009 0.319-0.034 0.97803-0.1 1.2695-0.0135 0.04875-0.0376 0.08102-0.13359 0.08203zm-32.196-0.01797c-0.04-0.0083-0.0537-0.03334-0.0672-0.08359-0.0275-0.101-0.0172-0.1545 0.12734-0.2 0.42-0.1285 0.45547-0.17316 0.45547-0.68516v-3.8031c0-0.3735-0.0903-0.402-0.40079-0.4375-0.146-0.018-0.18202-0.04456-0.18202-0.12656 0-0.1285 0.036-0.15588 0.18202-0.14688 0.913 0.0545 2.5725 0.07131 3.5305 0.0078 0.202-0.008 0.25546 0.01056 0.25546 0.07656 0.0195 0.291 0.0828 0.70075 0.14532 0.98125 0.0215 0.0735 0.0106 0.12997-0.0984 0.15547-0.1 0.04-0.16484-0.01681-0.20234-0.10781-0.172-0.4755-0.51094-0.72031-1.2859-0.72031-0.975 0-1.2133 0.04469-1.2133 0.49219v1.7984c0 0.0345 0.0179 0.05391 0.0734 0.05391 0.2105 0 0.85738-0.01978 1.0219-0.03828 0.2375-0.028 0.29309-0.11738 0.34609-0.54688 0.01-0.0895 0.0646-0.13641 0.1461-0.12891 0.11 0.0105 0.13515 0.04803 0.13515 0.11953-0.016 0.3015 0.0118 1.1409 0.0758 1.4594 0.018 0.082-0.0278 0.10941-0.11875 0.12891-0.111 0.0255-0.16546-0.0094-0.19296-0.12891-0.0635-0.3185-0.0981-0.43756-0.2836-0.46406-0.327-0.036-0.75603-0.04691-1.082-0.05391-0.112 0-0.12109 0.007-0.12109 0.1v1.7234c0 0.1105-0.008 0.17188 0.19296 0.17188 0.354 0 1.1665-0.000094 1.3945-0.03359 0.3645-0.0645 0.45787-0.27653 0.58437-0.59453 0.0345-0.0925 0.0995-0.10938 0.15547-0.10938 0.0915 0 0.11875 0.03606 0.11875 0.12656-0.01 0.311 0.0265 0.69347 0.0805 0.93047 0.0285 0.1115-0.0628 0.08416-0.26328 0.07266-0.8855-0.0535-2.9017-0.07275-3.2852-0.0063-0.118 0.017-0.18422 0.0255-0.22422 0.01719zm-26.755-0.0055c-0.0242 0.0014-0.0553-0.00084-0.0938-0.0055-0.421-0.035-1.1398-0.017-1.5523 0-0.246 0.0115-0.25469-0.0063-0.25469-0.14375 0-0.0925 0.0178-0.11947 0.22735-0.15547 0.348-0.066 0.54765-0.17512 0.54765-0.56562v-2.4188c0-1.2215-0.59209-1.8695-1.6961-1.8695-1.3045 0-1.8422 0.63788-1.8422 2.0344v2.3812c0 0.328 0.0624 0.34544 0.52735 0.44844 0.1455 0.035 0.18281 0.06228 0.18281 0.12578 0 0.1465-0.009 0.16309-0.18281 0.14609-0.419-0.0365-1.2866-0.018-1.6961 0-0.238 0.0105-0.2539 0.0004-0.2539-0.14609 0-0.091 0.009-0.11991 0.22812-0.15391 0.254-0.0485 0.45469-0.16422 0.45469-0.47422v-2.4742c0-1.6325 0.89415-2.2883 2.4352-2.2883 1.552 0 2.3445 0.89491 2.3445 2.3789v2.3641c0 0.3475 0.064 0.43828 0.53046 0.53828 0.145 0.036 0.18047 0.04591 0.18047 0.12891 0 0.108-0.0143 0.14507-0.0867 0.14922zm34.132-0.03047c-0.10216-0.0028-0.12265-0.04594-0.12265-0.15469 0-0.0925 0.0358-0.11 0.22734-0.15 0.263-0.053 0.45625-0.17125 0.45625-0.48125v-3.95c0-0.3735-0.22022-0.4195-0.39922-0.4375-0.148-0.018-0.18593-0.04456-0.18593-0.12656 0-0.1285 0.0379-0.15588 0.18593-0.14688 0.4175 0.036 0.86432 0.07144 1.6203 0.03594 0.22-0.009 0.24687-0.000187 0.24687 0.14531 0 0.11-0.0269 0.12747-0.22891 0.15547-0.42 0.065-0.50937 0.11072-0.50937 0.37422v1.7336c0.245 0.0095 0.47487 0.03706 0.68437 0.06406 0.6575-1.5955 1.5599-2.5719 2.6539-2.5719 0.127 0 0.15547 0.01812 0.15547 0.09062 0 0.127-0.0291 0.14528-0.12812 0.16328-0.7305 0.1185-1.5142 1.2609-1.9617 2.4719 0.822 0.248 1.2422 0.72178 1.2422 1.4508 0 0.9395-0.81318 1.3234-1.8422 1.3234-1.114 0-1.5158-0.064-1.9633 0-0.0546 0.0071-0.0972 0.01108-0.13126 0.01016zm1.8117-0.27422c0.9295 0 1.3211-0.30209 1.3211-1.1586 0-0.8135-0.51969-1.188-1.8422-1.2695v1.9805c0 0.321 0.0546 0.44766 0.52109 0.44766zm-56.63-1.964c-0.1195 0-0.16909-0.036-0.24609-0.1125l-0.003-0.0024-0.002-0.0031c-0.0375-0.0435-0.11997-0.06059-0.36797-0.07109-0.317-0.02-0.55072-0.02694-0.92422-0.03594-0.2 0-0.24278-0.11078-0.25078-0.17578 0 0.00048-0.0195-0.15391-0.0195-0.15391-0.025-0.2-0.0575-0.44791-0.0875-0.64141-0.012-0.0765 0.0143-0.11988 0.0898-0.14688 0.7755-0.2605 1.0914-0.55619 1.0914-1.0172 0-0.5055-0.37063-0.91884-0.99063-1.1023-0.1105-0.031-0.14259-0.09781-0.10859-0.22031 0.031-0.0905 0.0675-0.16434 0.18203-0.12734 0.7985 0.224 1.6164 0.57562 1.6164 1.4906 0 0.663-0.64075 0.97728-1.2188 1.1758 0.017 0.081 0.0411 0.20347 0.0641 0.31797l0.0399 0.20313c0.007 0.032 0.007 0.03516 0.0492 0.03516 0.285 0 0.59325-0.03644 0.71875-0.08594 0.0675-0.0255 0.15504-0.05022 0.23204-0.01172 0.066 0.0345 0.11109 0.102 0.14609 0.225 0.0275 0.099 0.0714 0.23334 0.0984 0.28984 0.008 0.0185 0.0318 0.07772 0.0008 0.12422-0.0305 0.046-0.0897 0.04609-0.11016 0.04609zm-32.423-0.118c-0.6965 0-1.2211-0.54306-1.2211-1.2641 0-0.769 0.54372-1.1195 1.0492-1.1195 0.189 0 0.34981 0.03953 0.49531 0.11953-0.2205-0.3915-0.63128-0.82491-1.0133-1.0539-0.1665-0.101-0.23544-0.142-0.21094-0.2375l0.00078-0.0047 0.0016-0.0047c0.0035-0.0075 0.0069-0.01819 0.01094-0.02969 0.014-0.0405 0.031-0.09194 0.075-0.11094 0.016-0.0085 0.04222-0.014 0.07422 0 0.962 0.3505 1.9359 1.2311 1.9359 2.4086 0 0.7875-0.46966 1.2969-1.1977 1.2969zm28.323-0.04609c-0.6485 0-1.3055-0.45888-1.3055-1.3344 0-0.7205 0.54412-1.2641 1.2656-1.2641 0.764 0 1.2984 0.55281 1.2984 1.3453 0 0.738-0.51709 1.2531-1.2586 1.2531zm-30.651-0.0023c-0.0325 0.0031-0.07119 0.0011-0.11719-0.0031-0.24-0.027-0.59203-0.03284-0.85703-0.01484-0.166 0.0145-0.23547 0.01484-0.26797-0.13516-0.009-0.036-0.01447-0.07728 0.007-0.11328 0.03-0.0485 0.09553-0.06469 0.20703-0.09219 0.178-0.04 0.19453-0.09947 0.19453-0.35547v-1.2078c0-0.233-0.07109-0.25541-0.14609-0.27891-0.1345-0.0445-0.19375-0.07381-0.19375-0.17031 0-0.0555 0.0026-0.1045 0.03906-0.1375 0.04-0.036 0.10019-0.03244 0.19219-0.02344 0.254 0.0255 0.61544 0.0325 0.86094 0.0125 0.1565-0.0115 0.24356-0.01816 0.26406 0.13984 0.0215 0.1325-0.04337 0.16206-0.20938 0.20156-0.1895 0.0445-0.23281 0.11084-0.23281 0.35234v1.2117c0 0.219 0.09366 0.24756 0.18516 0.27656 0.13 0.0405 0.19062 0.06894 0.19062 0.17344 0 0.0535-0.0022 0.10009-0.03672 0.13359-0.0205 0.01874-0.04719 0.02734-0.07969 0.03046zm2.3078-0.34062c0.4085 0 0.62422-0.262 0.62422-0.7625 0-0.5165-0.25275-0.85-0.64375-0.85-0.363 0-0.54766 0.286-0.54766 0.85 0 0.485 0.20669 0.7625 0.56719 0.7625zm28.33-0.03281c0.39 0 0.63203-0.35597 0.63203-0.93047 0-0.5845-0.22503-0.90781-0.63203-0.90781-0.421 0-0.65235 0.33569-0.65235 0.94219 0 0.5615 0.24435 0.89609 0.65235 0.89609z" fill="#003e7e"/></g></svg>
