<?xml version="1.0" encoding="UTF-8" standalone="no"?>
<svg
   xmlns:dc="http://purl.org/dc/elements/1.1/"
   xmlns:cc="http://creativecommons.org/ns#"
   xmlns:rdf="http://www.w3.org/1999/02/22-rdf-syntax-ns#"
   xmlns:svg="http://www.w3.org/2000/svg"
   xmlns="http://www.w3.org/2000/svg"
   xmlns:sodipodi="http://sodipodi.sourceforge.net/DTD/sodipodi-0.dtd"
   xmlns:inkscape="http://www.inkscape.org/namespaces/inkscape"
   id="Layer_1"
   version="1.1"
   viewBox="0 0 170.93 39"
   inkscape:version="0.48.1 "
   width="100%"
   height="100%"
   sodipodi:docname="claflin univ simplelogo.svg">
  <metadata
     id="metadata3149">
    <rdf:RDF>
      <cc:Work
         rdf:about="">
        <dc:format>image/svg+xml</dc:format>
        <dc:type
           rdf:resource="http://purl.org/dc/dcmitype/StillImage" />
      </cc:Work>
    </rdf:RDF>
  </metadata>
  <sodipodi:namedview
     pagecolor="#ffffff"
     bordercolor="#666666"
     borderopacity="1"
     objecttolerance="10"
     gridtolerance="10"
     guidetolerance="10"
     inkscape:pageopacity="0"
     inkscape:pageshadow="2"
     inkscape:window-width="1366"
     inkscape:window-height="705"
     id="namedview3147"
     showgrid="false"
     inkscape:zoom="6.3785169"
     inkscape:cx="89.243986"
     inkscape:cy="16.357388"
     inkscape:window-x="0"
     inkscape:window-y="0"
     inkscape:window-maximized="1"
     inkscape:current-layer="Layer_1" />
  <defs
     id="defs3069">
    <style
       id="style3071">
      .cls-1 {
        fill: #f58021;
      }

      .cls-1, .cls-2 {
        stroke-width: 0px;
      }

      .cls-2 {
        fill: #742541;
      }
    </style>
  </defs>
  <g
     id="g3171"
     transform="matrix(1.0227638,0,0,1.0227638,-1.9148216,-101.6208)">
    <path
       class="cls-2"
       d="m 19.8,132.8 v -4.92 h 1.93 v 4.86 c 0,1.49 0.74,2.29 2.08,2.29 1.34,0 2.05,-0.78 2.05,-2.29 v -4.86 h 1.9 v 4.92 c 0,2.39 -1.46,3.83 -3.97,3.83 -2.51,0 -4,-1.44 -4,-3.83"
       id="path3097"
       inkscape:connector-curvature="0"
       style="fill:#742541;stroke-width:0px" />
    <polygon
       id="polygon3099"
       points="42.27,136.49 43.87,136.49 43.87,127.89 41.95,127.89 41.95,127.89 41.95,133.31 37.4,127.89 35.79,127.89 35.79,136.49 37.72,136.49 37.72,131.07 "
       class="cls-2"
       style="fill:#742541;stroke-width:0px" />
    <rect
       id="rect3101"
       height="8.6000004"
       width="1.9299999"
       y="127.89"
       x="51.970001"
       class="cls-2"
       style="fill:#742541;stroke-width:0px" />
    <polygon
       id="polygon3103"
       points="62.77,127.89 60.7,127.89 64.56,136.49 66.47,136.49 70.32,127.89 68.37,127.89 68.37,127.89 65.56,134.26 "
       class="cls-2"
       style="fill:#742541;stroke-width:0px" />
    <polygon
       id="polygon3105"
       points="79.05,132.86 83.23,132.86 83.23,131.39 79.05,131.39 79.05,129.42 83.75,129.42 83.75,127.89 77.12,127.89 77.12,127.89 77.12,136.49 83.92,136.49 83.92,134.97 79.05,134.97 "
       class="cls-2"
       style="fill:#742541;stroke-width:0px" />
    <g
       id="g3107">
      <path
         id="path3109"
         d="m 95,129.42 h -1.72 v 3.14 H 95 c 1.33,0 2.02,-0.57 2.02,-1.58 0,-1.01 -0.69,-1.56 -2.02,-1.56 m 2.05,7.07 -1.76,-2.44 h -2.01 v 2.44 h -1.93 v -8.6 h 3.78 c 2.34,0 3.83,1.14 3.83,3.1 0,1.29 -0.67,2.24 -1.84,2.72 l 2.01,2.78 h -2.08 z"
         class="cls-2"
         inkscape:connector-curvature="0"
         style="fill:#742541;stroke-width:0px" />
      <path
         id="path3111"
         d="m 105.67,135.66 0.72,-1.47 c 0.74,0.54 1.85,0.89 2.97,0.89 1.29,0 1.75,-0.44 1.75,-0.96 0,-1.71 -5.19,-0.44 -5.19,-3.7 0,-1.59 1.44,-2.66 3.72,-2.66 1.09,0 2.25,0.23 3.06,0.74 l -0.66,1.47 c -0.78,-0.5 -1.65,-0.66 -2.47,-0.66 -1.22,0 -1.73,0.44 -1.73,1.01 0,1.68 5.18,0.47 5.18,3.64 0,1.62 -1.39,2.69 -3.75,2.69 -1.38,0 -2.82,-0.39 -3.6,-0.98"
         class="cls-2"
         inkscape:connector-curvature="0"
         style="fill:#742541;stroke-width:0px" />
    </g>
    <rect
       id="rect3113"
       height="8.6000004"
       width="1.9299999"
       y="127.89"
       x="120.27"
       class="cls-2"
       style="fill:#742541;stroke-width:0px" />
    <polygon
       id="polygon3115"
       points="129.03,127.89 129.03,129.44 131.91,129.44 131.91,136.49 133.84,136.49 133.84,129.44 136.72,129.44 136.72,127.89 129.03,127.89 "
       class="cls-2"
       style="fill:#742541;stroke-width:0px" />
    <polygon
       id="polygon3117"
       points="151.08,127.89 149.11,127.89 149.11,127.89 146.59,131.93 144.06,127.89 142.01,127.89 145.56,133.63 145.56,136.49 147.51,136.49 147.51,133.66 "
       class="cls-2"
       style="fill:#742541;stroke-width:0px" />
    <g
       id="g3119">
      <path
         id="path3121"
         d="m 15.29,105.04 c 1.98,0 3.71,0.76 5.16,2.37 0.11,0.12 0.29,0.13 0.41,0.03 l 3.48,-3.11 c 0.12,-0.1 0.13,-0.29 0.03,-0.41 -2.24,-2.62 -5.28,-3.72 -9.3,-3.72 -7.04,0 -12.28,4.73 -12.28,11.22 0,6.49 5.24,11.19 12.28,11.19 3.98,0 7.06,-1.1 9.3,-3.72 0.1,-0.12 0.09,-0.3 -0.03,-0.41 l -3.48,-3.11 c -0.12,-0.11 -0.3,-0.09 -0.41,0.03 -1.45,1.61 -3.18,2.37 -5.16,2.37 -3.71,0 -6.43,-2.55 -6.43,-6.34 0,-3.79 2.72,-6.38 6.43,-6.38"
         class="cls-2"
         inkscape:connector-curvature="0"
         style="fill:#742541;stroke-width:0px" />
      <path
         id="path3123"
         d="m 62.35,113.34 3,-7.04 c 0.07,-0.17 0.33,-0.17 0.4,0 l 2.97,7.04 c 0.06,0.14 -0.05,0.29 -0.2,0.29 h -5.97 c -0.15,0 -0.26,-0.15 -0.2,-0.29 m 2,-12.73 c 0,0 -0.02,0 -0.03,0 h -3.18 c 0,0 0.65,1.54 0.65,1.54 0.02,0.05 0.01,0.11 0,0.16 l -8.96,19.59 c -0.06,0.14 0.04,0.3 0.2,0.3 h 5.37 c 0.09,0 0.17,-0.05 0.2,-0.13 l 1.72,-4.02 c 0.03,-0.08 0.11,-0.13 0.2,-0.13 h 10 c 0.09,0 0.17,0.05 0.2,0.13 l 1.69,4.02 c 0.03,0.08 0.11,0.13 0.2,0.13 h 5.49 c 0.16,0 0.26,-0.16 0.2,-0.3 l -9.71,-21.16 c -0.04,-0.08 -0.11,-0.12 -0.2,-0.12 h -4.04 z"
         class="cls-2"
         inkscape:connector-curvature="0"
         style="fill:#742541;stroke-width:0px" />
      <path
         id="path3125"
         d="m 85.7,122.19 h 5.39 c 0.18,0 0.33,-0.14 0.33,-0.32 v -6.83 c 0,-0.18 0.15,-0.32 0.33,-0.32 h 9.29 c 0.18,0 0.33,-0.14 0.33,-0.32 v -3.9 c 0,-0.18 -0.15,-0.32 -0.33,-0.32 h -9.29 c -0.18,0 -0.33,-0.14 -0.33,-0.32 v -4.39 c 0,-0.18 0.15,-0.32 0.33,-0.32 h 10.59 c 0.18,0 0.33,-0.14 0.33,-0.32 v -3.9 c 0,-0.18 -0.15,-0.32 -0.33,-0.32 H 85.71 c -0.18,0 -0.33,0.14 -0.33,0.32 v 20.94 c 0,0.18 0.15,0.32 0.33,0.32"
         class="cls-2"
         inkscape:connector-curvature="0"
         style="fill:#742541;stroke-width:0px" />
    </g>
    <rect
       id="rect3127"
       height="21.58"
       width="6.04"
       y="100.61"
       x="133.55"
       class="cls-2"
       style="fill:#742541;stroke-width:0px" />
    <path
       class="cls-2"
       d="m 162.16,100.8 v 11.23 c 0,0.18 -0.23,0.26 -0.34,0.12 l -8.38,-9.87 c -0.9,-1.06 -2.23,-1.67 -3.63,-1.67 h -2.56 c -0.11,0 -0.19,0.08 -0.19,0.19 v 21.21 c 0,0.11 0.08,0.19 0.19,0.19 h 5.54 c 0.11,0 0.19,-0.08 0.19,-0.19 v -11.19 c 0,-0.18 0.22,-0.26 0.34,-0.12 l 8.76,10.28 c 0.66,0.77 1.63,1.21 2.65,1.21 h 3.16 c 0.11,0 0.19,-0.08 0.19,-0.19 v -21.21 c 0,-0.1 -0.09,-0.19 -0.19,-0.19 h -5.54 c -0.11,0 -0.19,0.08 -0.19,0.19"
       id="path3131"
       inkscape:connector-curvature="0"
       style="fill:#742541;stroke-width:0px" />
    <path
       class="cls-2"
       d="m 36.95,117.58 h -0.67 l 0.67,-1.28 v -15.13 c 0,-0.31 -0.25,-0.56 -0.57,-0.56 h -4.9 c -0.32,0 -0.57,0.25 -0.57,0.56 v 19.38 c 0,0.09 -0.02,0.18 -0.06,0.26 l -0.72,1.38 h 17.01 c 0.32,0 0.57,-0.25 0.57,-0.56 v -3.5 c 0,-0.31 -0.26,-0.56 -0.57,-0.56 H 36.96 z"
       id="path3133"
       inkscape:connector-curvature="0"
       style="fill:#742541;stroke-width:0px" />
    <path
       class="cls-2"
       d="m 115.33,117.58 h -0.64 l 0.64,-1.23 v -15.48 c 0,-0.14 -0.11,-0.25 -0.25,-0.25 h -5.53 c -0.14,0 -0.25,0.11 -0.25,0.25 v 19.81 c 0,0 0,0.08 -0.03,0.11 l -0.74,1.41 h 17.3 c 0.14,0 0.25,-0.11 0.25,-0.25 v -4.12 c 0,-0.14 -0.11,-0.25 -0.25,-0.25 h -10.49 z"
       id="path3135"
       inkscape:connector-curvature="0"
       style="fill:#742541;stroke-width:0px" />
  </g>
</svg>
