<svg id="Layer_1" data-name="Layer 1" xmlns="http://www.w3.org/2000/svg" xmlns:xlink="http://www.w3.org/1999/xlink" viewBox="0 0 329.06 108.19"><defs><style>.cls-1{fill:none;}.cls-2{clip-path:url(#clip-path);}.cls-3{fill:#a78231;}.cls-4{fill:#003d77;}</style><clipPath id="clip-path" transform="translate(-51.47 -90.7)"><rect class="cls-1" width="432" height="288"/></clipPath></defs><title>PennWest Lockup Clarion FINAL SM</title><g class="cls-2"><path class="cls-3" d="M145.83,191.13a51.92,51.92,0,0,1-2.37,6.66,40,40,0,0,1-7.85,1.1c-10.92,0-15.61-7.3-15.61-14,0-8.77,6.71-14.72,16.59-14.72a31.63,31.63,0,0,1,7.59,1.14c.34,2.32.63,4.21.93,6.7l-1.48.3c-1.26-4.81-4.26-6.41-8-6.41-6.46,0-10,5.82-10,12.15,0,7.76,4.3,13,10.29,13,3.84,0,6.29-2.28,8.44-6.5Z" transform="translate(-51.47 -90.7)"/><path class="cls-3" d="M170.22,191.29c-.34,1.65-1.19,5.79-1.57,7h-20v-1.35c3.59-.3,4-.59,4-4.18V176.31c0-3.58-.38-3.84-3.67-4.09v-1.39h12.2v1.39c-3.25.25-3.63.51-3.63,4.09V192.9c0,2.07.17,2.87,1,3.25a9.65,9.65,0,0,0,3.46.42c2,0,3.5-.25,4.47-1.39a12.07,12.07,0,0,0,2.28-4.22Z" transform="translate(-51.47 -90.7)"/><path class="cls-3" d="M189.5,198.26v-1.35c2.53-.38,2.78-.85,2.19-2.62-.46-1.39-1.18-3.38-1.94-5.4h-8.39c-.55,1.56-1.14,3.16-1.65,4.85-.72,2.28-.51,2.79,2.57,3.17v1.35H173v-1.35c2.74-.38,3.29-.76,4.72-4.39l8.65-21.82,1.86-.5c2.7,7.34,5.36,14.93,8.1,22.19,1.4,3.71,1.94,4.18,4.64,4.52v1.35Zm-3.8-21.14h-.12c-1.23,3.25-2.37,6.54-3.55,9.7h7Z" transform="translate(-51.47 -90.7)"/><path class="cls-3" d="M230.56,198.64c-.34,0-.85,0-1.31,0-4.56-.21-6.25-1.3-8-4-1.22-1.86-2.53-4.27-3.76-6.42a3,3,0,0,0-3.08-1.77h-1v6.37c0,3.46.38,3.84,3.63,4.14v1.35H204.9v-1.35c3.25-.3,3.71-.64,3.71-4.14v-16.5c0-3.46-.38-3.8-3.54-4.05v-1.39h11.35c3.46,0,5.57.42,7.26,1.52a6.43,6.43,0,0,1,2.83,5.61c0,3.67-2.41,5.74-5.32,7,.67,1.31,2.28,4.14,3.54,6a28.66,28.66,0,0,0,3.34,4.51,5.63,5.63,0,0,0,2.74,1.9Zm-15.74-13.8a6.55,6.55,0,0,0,4.3-1.14,6.16,6.16,0,0,0,2.11-5.11c0-4.51-2.7-6.2-5.4-6.2a3.69,3.69,0,0,0-2,.42c-.29.26-.38.72-.38,1.69v10.34Z" transform="translate(-51.47 -90.7)"/><path class="cls-3" d="M234.78,198.26v-1.35c3.25-.3,3.63-.55,3.63-4.14V176.36c0-3.59-.38-3.89-3.63-4.14v-1.39h12.11v1.39c-3.25.25-3.59.55-3.59,4.14v16.41c0,3.55.34,3.84,3.59,4.14v1.35Z" transform="translate(-51.47 -90.7)"/><path class="cls-3" d="M279.14,184.25c0,9.07-6.5,14.64-14.39,14.64-8.14,0-14.05-6.12-14.05-14.22,0-7.34,5.23-14.47,14.56-14.47a13.66,13.66,0,0,1,13.88,14.05m-22.74-.51c0,7.47,3.58,13.46,9.19,13.46,4.27,0,7.85-3.92,7.85-11.81,0-8.57-3.84-13.51-9-13.51-4.39,0-8.06,4.35-8.06,11.86" transform="translate(-51.47 -90.7)"/><path class="cls-3" d="M312,172.18c-2.28.13-3.21.72-3.42,2.62a52.73,52.73,0,0,0-.34,7v16.84h-1.77l-17.72-21.44h-.09v9.92a62.62,62.62,0,0,0,.3,6.92c.21,2,1,2.66,4.05,2.83v1.35H282.8v-1.35c2.36-.17,3.37-.8,3.58-2.7a64.15,64.15,0,0,0,.34-7.05v-9c0-2.87,0-3.46-.84-4.43s-1.73-1.39-3.63-1.56v-1.35h7.26l16.66,19.45h.13v-8.44c0-3.79-.21-5.78-.29-7-.26-1.82-1.14-2.49-4.18-2.66v-1.35H312Z" transform="translate(-51.47 -90.7)"/><path class="cls-4" d="M369,121c.25.67.45,1.3.62,1.93.12.42.22.85.32,1.28a.31.31,0,0,0,.26.25l2.12.29h0a.29.29,0,0,0,.22-.09.32.32,0,0,0,.1-.26,28.72,28.72,0,0,0-7.7-16.88l2.67-3.51a.31.31,0,0,0,0-.43h0a.31.31,0,0,0-.43,0l-3.53,2.67a28.76,28.76,0,0,0-17.38-7.62h-.06l-1-.06-.9-7.56a.33.33,0,0,0-.34-.28.32.32,0,0,0-.29.32v12.06a.29.29,0,0,0,.1.23.33.33,0,0,0,.23.09q.8-.06,1.59-.06A24.39,24.39,0,0,1,369,121" transform="translate(-51.47 -90.7)"/><path class="cls-4" d="M343.86,151.18c-.52,0-1.05,0-1.59,0a24.39,24.39,0,0,1-23.38-17.69c-.25-.67-.45-1.3-.62-1.93-.11-.42-.22-.84-.31-1.28a.32.32,0,0,0-.27-.24l-2.12-.29a.29.29,0,0,0-.26.08.31.31,0,0,0-.09.26A28.67,28.67,0,0,0,322.89,147l-2.67,3.52a.31.31,0,0,0,0,.43h0a.33.33,0,0,0,.44,0l3.52-2.68A28.76,28.76,0,0,0,341.64,156h.06c.32,0,.64.05,1,.06l.9,7.57a.31.31,0,0,0,.31.27h0a.32.32,0,0,0,.3-.31V151.49a.33.33,0,0,0-.1-.23.3.3,0,0,0-.24-.08" transform="translate(-51.47 -90.7)"/><path class="cls-4" d="M319.67,127.44a.36.36,0,0,0,.22-.09.31.31,0,0,0,.08-.24c0-.52-.06-1-.06-1.59a24.41,24.41,0,0,1,17.69-23.38c.66-.24,1.31-.45,1.93-.62.42-.11.85-.22,1.28-.31a.33.33,0,0,0,.25-.27h0l.29-2.12a.31.31,0,0,0-.09-.26.3.3,0,0,0-.25-.09,28.56,28.56,0,0,0-16.86,7.71l-3.45-2.62a.33.33,0,0,0-.44,0h0a.31.31,0,0,0,0,.43l2.62,3.46a28.6,28.6,0,0,0-6.7,12,1.06,1.06,0,0,0-.06.19c-.15.54-.25,1.09-.37,1.64-.06.3-.14.59-.19.89s-.09.73-.14,1.09-.09.67-.13,1c0,.12,0,.25-.05.38l-23.5,2.12a.31.31,0,0,0-.28.33.3.3,0,0,0,.31.3h27.94" transform="translate(-51.47 -90.7)"/><path class="cls-4" d="M380.22,127H368.15a.29.29,0,0,0-.23.1.29.29,0,0,0-.08.23c0,.53.05,1.06.05,1.59a24.38,24.38,0,0,1-17.69,23.38c-.65.24-1.3.45-1.93.62-.42.12-.84.22-1.28.32a.3.3,0,0,0-.24.26l-.29,2.13a.29.29,0,0,0,.09.25.3.3,0,0,0,.22.1h0a28.69,28.69,0,0,0,16.86-7.69l3.51,2.66a.31.31,0,0,0,.43-.05h0a.31.31,0,0,0,0-.43L365,147a28.7,28.7,0,0,0,7.64-17.41.13.13,0,0,0,0-.06q0-.48.06-1l7.57-.91a.31.31,0,0,0,0-.62" transform="translate(-51.47 -90.7)"/><path class="cls-4" d="M299.43,119q0-5-4.88-5a11.5,11.5,0,0,0-1.31.07v10.8l6.19-.56Z" transform="translate(-51.47 -90.7)"/><path class="cls-4" d="M293.24,129.71v18.52a19.83,19.83,0,0,0,.73,6.27q2,5.46,9.25,5.46a15.44,15.44,0,0,0,4.34-.58A10,10,0,0,0,311,157.7a2.91,2.91,0,0,0,1.38-2.11q0-1.46-2.11-4.08a7.56,7.56,0,0,1-1.39,1.31,9.54,9.54,0,0,1-2.22,1.31,6.21,6.21,0,0,1-2.44.51q-4.74,0-4.74-6v-18.4Z" transform="translate(-51.47 -90.7)"/><path class="cls-4" d="M51.47,110.29A113.24,113.24,0,0,1,63,109.63q9.75,0,14.52,3.49t4.76,10.7q0,8.07-4.91,12.18T63,140.11H57.8v18.7H51.47Zm9.16,24.51a30.43,30.43,0,0,0,8.84-1,8.51,8.51,0,0,0,4.7-3.35,11.35,11.35,0,0,0,1.52-6.26c0-3.1-1-5.42-3-7s-5.08-2.29-9.2-2.29a44.1,44.1,0,0,0-5.75.29V134.8Z" transform="translate(-51.47 -90.7)"/><path class="cls-4" d="M88.28,142.88c.14,3.78,1.13,6.69,2.94,8.73s4.43,3,7.82,3a12,12,0,0,0,9.61-4.14,13,13,0,0,1,1.45,2.22,4.19,4.19,0,0,1,.58,1.78,3.32,3.32,0,0,1-1.6,2.47q-3.93,2.91-10.62,2.91-8,0-12.29-4.73t-4.29-13.75a20.54,20.54,0,0,1,2-9.45,14.37,14.37,0,0,1,5.6-6,15.57,15.57,0,0,1,8-2.11,14.63,14.63,0,0,1,7.56,1.85,12,12,0,0,1,4.77,5.28,18,18,0,0,1,1.64,7.85,27.16,27.16,0,0,1-.22,4.08Zm17-4.66q0-9.3-8.07-9.31A8.27,8.27,0,0,0,91,131.42a10.49,10.49,0,0,0-2.69,6.8Z" transform="translate(-51.47 -90.7)"/><path class="cls-4" d="M115.05,124.47c.44,0,.85-.07,1.24-.07a5.14,5.14,0,0,1,3.2.95,3.87,3.87,0,0,1,1.45,2.76,14,14,0,0,1,5-3.16,17.65,17.65,0,0,1,6.36-1.13,12.32,12.32,0,0,1,7.24,2,9.5,9.5,0,0,1,3.75,5.68,30.15,30.15,0,0,1,.51,6.69v20.66H137.6V138.37a19.89,19.89,0,0,0-.43-5,4.75,4.75,0,0,0-2.26-3,9.32,9.32,0,0,0-4.58-1,14,14,0,0,0-4.69.73,8.14,8.14,0,0,0-3.24,1.93,3.56,3.56,0,0,0-1.16,2.51v24.22h-6.19Z" transform="translate(-51.47 -90.7)"/><path class="cls-4" d="M147.6,124.47c.44,0,.85-.07,1.24-.07a5.12,5.12,0,0,1,3.2.95,3.88,3.88,0,0,1,1.46,2.76,14,14,0,0,1,5-3.16,17.74,17.74,0,0,1,6.37-1.13,12.36,12.36,0,0,1,7.24,2,9.53,9.53,0,0,1,3.74,5.68,30.15,30.15,0,0,1,.51,6.69v20.66h-6.18V138.37a19.76,19.76,0,0,0-.44-5,4.75,4.75,0,0,0-2.26-3,9.32,9.32,0,0,0-4.58-1,14,14,0,0,0-4.69.73,8.22,8.22,0,0,0-3.24,1.93,3.6,3.6,0,0,0-1.16,2.51v24.22H147.6Z" transform="translate(-51.47 -90.7)"/><path class="cls-4" d="M174.64,110.16a10.24,10.24,0,0,1,3.2-.43,4.44,4.44,0,0,1,2.95.94,6.3,6.3,0,0,1,1.78,3.06l11.71,37.75,8.95-30-3.13-11.35a13.66,13.66,0,0,1,3-.36c2.23,0,3.75,1.35,4.58,4.07l10.62,37.39,11.13-37.32a6.81,6.81,0,0,1,1.75-3.16,4,4,0,0,1,2.83-1,13.27,13.27,0,0,1,2.91.36L221.42,159h-6.33l-9-29.47L197.12,159h-6.33Z" transform="translate(-51.47 -90.7)"/><path class="cls-4" d="M238.66,142.9c.14,3.79,1.13,6.7,3,8.73s4.42,3.06,7.82,3.06a12,12,0,0,0,9.6-4.15,13.81,13.81,0,0,1,1.45,2.22,4.23,4.23,0,0,1,.58,1.78,3.33,3.33,0,0,1-1.6,2.48c-2.62,1.93-6.15,2.91-10.62,2.91q-8,0-12.29-4.73t-4.29-13.75a20.55,20.55,0,0,1,2-9.46,14.37,14.37,0,0,1,5.6-6,15.67,15.67,0,0,1,8-2.11,14.54,14.54,0,0,1,7.56,1.86,11.92,11.92,0,0,1,4.77,5.27,18,18,0,0,1,1.64,7.86,27,27,0,0,1-.22,4.07Zm17-4.65q0-9.31-8.07-9.32a8.27,8.27,0,0,0-6.26,2.51,10.53,10.53,0,0,0-2.69,6.81Z" transform="translate(-51.47 -90.7)"/><path class="cls-4" d="M286,132.65a9.93,9.93,0,0,0-3.78-2.73,11.93,11.93,0,0,0-4.88-1.06,8.63,8.63,0,0,0-4.72,1.13,3.84,3.84,0,0,0-1.13,5.31,5,5,0,0,0,2.07,1.6,24.31,24.31,0,0,0,4.51,1.42,25,25,0,0,1,6.59,2.4,9,9,0,0,1,3.49,3.46,10.12,10.12,0,0,1,1.13,4.91,9.5,9.5,0,0,1-3.71,7.82,15,15,0,0,1-9.61,2.94,20,20,0,0,1-8-1.38q-3.27-1.31-3.27-3.05a4.52,4.52,0,0,1,.36-1.64,18.58,18.58,0,0,1,1.46-2.66,15.26,15.26,0,0,0,4.58,2.73,13.94,13.94,0,0,0,5.09,1,8.58,8.58,0,0,0,5.17-1.34,4.55,4.55,0,0,0,1.81-3.89,4.47,4.47,0,0,0-1.6-3.61c-1.06-.89-3.05-1.66-6-2.29-3.83-.82-6.58-2-8.26-3.67a8.59,8.59,0,0,1-2.51-6.44,8.46,8.46,0,0,1,3.5-7.09,14.22,14.22,0,0,1,8.87-2.66,21.33,21.33,0,0,1,5,.55,13,13,0,0,1,3.78,1.42c1.65.92,2.47,1.86,2.47,2.83a8.49,8.49,0,0,1-1.38,3.93Z" transform="translate(-51.47 -90.7)"/><path class="cls-3" d="M338.7,131.92a.14.14,0,0,0-.07,0l0,0a1.57,1.57,0,0,0-.32,1.38,1.89,1.89,0,0,1-.77-1.89,4.65,4.65,0,0,1,.73-1.28.82.82,0,0,1,.07-.56,3.93,3.93,0,0,1,1.78-1.58,6.28,6.28,0,0,1,4.18,0c0-.1-.12-2.26-3.56-3.2s-8.91-2.84-10.8-6.61c0,0-1,.57,1.12,3.58a7.79,7.79,0,0,1-4.74-4.9s-1.52,1.37,1.8,5.54a7.5,7.5,0,0,1-3.62-3.18s-1.14,1.89,2.81,5c0,0-2.44-.51-3-1.15,0,0-.54,2.12,3.93,3a15.55,15.55,0,0,1-2.51.5s.73,1.77,3.78.63a6.78,6.78,0,0,1-1.12,1s.2.62,1.93.15c0,0-.78,1.1,1.38,1.84,0,0-.64,1,1.38,1.65,0,0-.39,1.16,2.29,1.47,0,0-.08,1.38,3.74.72,0,0,3.14-.78,3.49,1.34,0,0,0-3.15-3.89-3.53" transform="translate(-51.47 -90.7)"/><path class="cls-3" d="M363.59,122.3c-.42.61-2.57,1.26-2.57,1.26,3.29-3.06,2.1-4.64,2.1-4.64a6.67,6.67,0,0,1-3,3.1c2.64-3.94,1.15-5,1.15-5a6.89,6.89,0,0,1-3.85,4.7c1.68-2.82.7-3.24.7-3.24-1.38,3.47-6.14,5.35-9.16,6.7-6.89,3.09-5.45,12.32-5.45,12.32a8,8,0,0,1,7.67-4.29c3.49.27,3.3-.94,3.3-.94,2.39-.5,1.94-1.48,1.94-1.48,1.77-.72,1.11-1.57,1.11-1.57,1.88-.83,1.08-1.73,1.08-1.73,1.59.27,1.73-.29,1.73-.29a6.79,6.79,0,0,1-1.1-.82c2.84.75,3.35-.86,3.35-.86a14.22,14.22,0,0,1-2.3-.24c3.94-1.12,3.28-3,3.28-3" transform="translate(-51.47 -90.7)"/><path class="cls-3" d="M316.92,197.08c0-.43-.4-.59-1.17-.8s-1.63-.55-1.63-1.58.71-1.56,1.88-1.56a3.62,3.62,0,0,1,1.81.46l-.25.87A3.18,3.18,0,0,0,316,194c-.61,0-.88.26-.88.62s.47.6,1.19.79,1.61.58,1.61,1.58-.77,1.64-2,1.64a3.76,3.76,0,0,1-1.89-.49l.23-.88a3.24,3.24,0,0,0,1.67.5c.57,0,1-.28,1-.7" transform="translate(-51.47 -90.7)"/><polygon class="cls-3" points="272.1 103.61 270.73 107.74 269.66 107.74 268.28 103.61 268.23 107.82 267.26 107.82 267.44 102.57 268.86 102.57 270.21 106.7 271.57 102.57 272.97 102.57 273.14 107.82 272.14 107.82 272.1 103.61"/></g></svg>