<?xml version="1.0" encoding="UTF-8" standalone="no"?>
<svg
   xmlns:dc="http://purl.org/dc/elements/1.1/"
   xmlns:cc="http://creativecommons.org/ns#"
   xmlns:rdf="http://www.w3.org/1999/02/22-rdf-syntax-ns#"
   xmlns:svg="http://www.w3.org/2000/svg"
   xmlns="http://www.w3.org/2000/svg"
   xmlns:sodipodi="http://sodipodi.sourceforge.net/DTD/sodipodi-0.dtd"
   xmlns:inkscape="http://www.inkscape.org/namespaces/inkscape"
   version="1.1"
   class="logo-positive"
   x="0px"
   y="0px"
   viewBox="0 0 193 52.3"
   xml:space="preserve"
   id="svg5217"
   inkscape:version="0.48.1 "
   width="100%"
   height="100%"
   sodipodi:docname="central state univ textlogo.svg"><metadata
   id="metadata5231"><rdf:RDF><cc:Work
       rdf:about=""><dc:format>image/svg+xml</dc:format><dc:type
         rdf:resource="http://purl.org/dc/dcmitype/StillImage" /></cc:Work></rdf:RDF></metadata><defs
   id="defs5229" /><sodipodi:namedview
   pagecolor="#ffffff"
   bordercolor="#666666"
   borderopacity="1"
   objecttolerance="10"
   gridtolerance="10"
   guidetolerance="10"
   inkscape:pageopacity="0"
   inkscape:pageshadow="2"
   inkscape:window-width="1366"
   inkscape:window-height="705"
   id="namedview5227"
   showgrid="false"
   inkscape:zoom="4.644714"
   inkscape:cx="123.00338"
   inkscape:cy="25.875"
   inkscape:window-x="0"
   inkscape:window-y="0"
   inkscape:window-maximized="1"
   inkscape:current-layer="svg5217" />
<path
   d="m 170.77109,29.63437 c 0,0 3.78444,-0.118263 5.91319,-0.118263 l 13.48206,0 1.77396,-7.687142 -1.41917,0 c -2.12875,4.730549 -2.83833,6.03145 -6.38624,6.03145 l -6.97756,0 c 0.11827,-0.827846 0.23653,-1.537428 0.23653,-2.365274 l 0,-18.9221944 C 177.2756,4.7989909 177.74865,3.0250352 178.81302,1.487607 L 178.5765,1.3693432 c -1.53743,0.1182638 -3.19312,0.2365275 -4.73055,0.1182638 l -3.31139,0 0,1.0643734 c 3.07486,0.5913185 3.07486,1.0643734 3.07486,3.0748565 l 0,20.1048311 c 0,1.537428 -0.94611,2.365274 -2.83833,2.601802 z m -15.72907,-21.0509403 3.66617,9.5793603 -9.1063,0 4.73055,-12.181162 c 0.11826,0.827846 0.35479,1.655692 0.70958,2.6018017 m -13.60033,20.9326773 7.80541,0 0.11826,-1.182637 -3.54791,-0.473055 2.83833,-7.568878 0.59132,-0.473055 10.05241,0 2.48354,6.741032 c 0.47305,1.300901 -0.59132,1.655692 -1.77396,1.655692 l 0,1.419164 c 0,0 4.84882,-0.118263 6.38624,-0.118263 l 1.77396,0 0.11826,-1.182637 c -1.3009,-0.236528 -2.01048,-0.473055 -3.19312,-3.311384 l -9.34283,-23.8892702 -1.77396,0.3547912 -9.93415,24.83538 c -0.47305,1.182637 -1.53743,1.892219 -2.83833,1.892219 l 0,1.300901 z m -19.75004,-14.073382 0,-11.8263712 0.47306,-0.3547912 1.53742,0 c 5.20361,0 6.97756,3.0748566 6.97756,6.2679768 0,4.0209666 -2.83833,6.1497126 -5.44013,6.1497126 l -3.54791,0 z m -6.74103,14.191645 10.17068,-0.236527 0.11826,-1.182637 -3.78444,-0.354791 c 0.11827,-0.709582 0.23653,-1.419165 0.23653,-2.128747 l 0,-8.160196 0.47306,-0.473055 3.07485,0 5.20361,7.687141 c 1.06437,1.419165 1.89221,2.956593 2.6018,4.612285 l 0.11826,0.118264 6.03145,0 0.11826,-1.300901 -0.47305,0 c -1.06437,-0.118264 -1.89222,-0.118264 -3.78444,-2.838329 l -6.03145,-8.869779 0,-0.591318 c 2.01048,-1.064374 5.5584,-3.784439 5.5584,-7.6871414 0,-3.6661751 -2.83833,-6.7410316 -10.40721,-6.7410316 l -9.69762,0 0,1.0643734 c 3.19312,0.5913185 3.42965,1.0643734 3.42965,3.0748565 l 0,20.1048311 c 0,1.419165 -1.18264,2.365274 -3.07486,2.601802 z m -22.115313,0 10.525473,-0.236527 0.11826,-1.182637 -4.257493,-0.354791 c 0.118264,-0.709582 0.236528,-1.537428 0.236528,-2.247011 l 0,-21.9970502 0.473055,-0.3547912 4.13923,0 c 3.31138,0 4.61229,0.827846 4.49402,5.2036034 l 1.41917,0 1.3009,-7.0958228 c -0.94611,0.1182638 -2.01049,0.2365275 -3.07486,0.2365275 l -19.631777,0 c -0.946109,0 -1.892219,-0.1182637 -2.838329,-0.2365275 l -1.300901,7.0958228 1.419165,0 C 87.395176,4.0894086 88.696077,3.2615626 91.65267,3.2615626 l 4.13923,0 0,22.4701054 c 0,1.537428 -1.182637,2.483538 -3.074857,2.720065 z m -38.55397,0 8.278459,-0.236527 0.236528,-1.182637 -3.784439,-0.236527 c 0.118264,-0.709583 0.236527,-1.537429 0.236527,-2.247011 l 0,-19.1587214 c 0.473055,0.5913186 1.064374,1.4191646 1.537429,2.0104831 l 17.85782,21.0509403 1.064374,0 0,-23.2979508 C 79.589771,4.4441998 80.772408,2.6702441 82.664628,2.0789255 L 82.4281,1.487607 l -8.041932,0 0,1.1826371 c 3.429647,0.3547911 3.429647,1.3009008 3.429647,3.1931202 l 0,17.5030297 C 77.342761,22.656811 76.633178,21.828965 76.160123,21.119383 L 60.904104,3.4980901 C 60.312786,2.7885078 59.839731,2.0789255 59.366676,1.3693432 c 0,0 -2.128747,0.1182638 -4.257493,0.1182638 l -1.300901,0 0,1.0643734 c 2.720065,0.4730548 3.429647,1.3009008 3.429647,4.2574936 l 0,18.922194 c 0,1.537428 -1.182637,2.365274 -3.074856,2.601802 z m -24.480589,0 c 0,0 4.020966,-0.118263 6.149713,-0.118263 l 13.127272,0 1.537428,-6.859296 -1.419164,0 c -2.128747,4.375758 -2.601802,5.203604 -6.267977,5.203604 l -6.622768,0 c 0.118264,-0.827846 0.236528,-1.537428 0.236528,-2.365274 l 0,-8.988043 0.473054,-0.473054 7.332351,0 0,3.074856 2.010483,0 0,-7.450614 -1.537428,0.236528 -0.354792,2.365274 -7.805405,0 0,-10.6437342 0.354791,-0.4730549 5.558395,0 c 3.311384,0 4.730548,0.827846 4.494021,5.2036034 l 1.419165,0 1.3009,-6.9775591 C 48.841206,1.487607 47.776832,1.487607 46.712459,1.487607 l -17.266502,0 0,1.0643734 c 3.19312,0.5913185 3.429648,1.0643734 3.429648,3.0748565 l 0,20.1048311 c 0,1.537428 -1.182638,2.365274 -3.074857,2.601802 z M 0.94440177,15.797516 c 0,9.106306 7.09582283,14.191646 14.66470023,14.191646 4.020967,0.118263 8.041933,-1.655692 10.525471,-4.848813 l -0.591319,-0.827846 c -2.365274,2.010484 -5.321867,2.956593 -8.514987,2.956593 -6.859296,0 -12.1811627,-5.085339 -12.1811627,-12.654217 0,-6.8592953 4.2574937,-12.0628986 10.7619977,-12.0628986 3.429648,0 7.095823,1.4191645 7.095823,5.7949219 l 1.419165,0 1.300901,-6.3862405 C 22.468398,1.487607 19.393541,1.1328158 16.318685,1.0145521 7.3306423,1.0145521 0.94440177,7.2825289 0.94440177,15.797516 M 183.07052,51.27663 l 5.2036,-0.118264 0.11826,-0.591318 -1.65569,-0.118264 c 0.11827,-0.354791 0.11827,-0.709582 0.11827,-1.064373 l 0,-3.902703 3.31138,-5.321867 c 0.23653,-0.473055 0.70958,-0.827846 1.18264,-1.064373 l -0.11827,-0.354792 -3.19312,0 0,0.591319 c 0.94611,0.118264 1.06438,0.709582 0.70959,1.182637 l -2.48354,4.13923 c -0.11827,-0.354791 -0.35479,-0.709582 -0.47306,-1.064373 l -2.12874,-3.547912 c -0.23653,-0.473055 -0.23653,-0.946109 0,-1.419164 l -0.11827,-0.118264 c 0,0 -1.06437,0.118264 -2.72006,0.118264 l -1.06438,0 0,0.591318 c 0.47306,0.118264 0.82785,0.473055 1.06438,0.827846 l 3.42964,5.676658 0,3.666176 c 0,0.709582 -0.47305,1.182637 -1.3009,1.182637 z m -13.48207,0 5.44014,-0.118264 0.11826,-0.591318 -1.89222,-0.118264 c 0.11826,-0.354791 0.11826,-0.709582 0.11826,-1.064373 l 0,-9.461097 0.23653,-0.236528 1.41917,0 c 1.41916,0 2.01048,0.354791 2.01048,2.247011 l 0.70958,0 0.59132,-3.311384 c -0.47306,0.118263 -0.94611,0.118263 -1.3009,0.118263 l -9.34284,0 c -0.47305,0 -0.82784,0 -1.3009,-0.118263 l -0.47305,3.311384 0.70958,0 c 0.70958,-1.89222 1.3009,-2.247011 2.48354,-2.247011 l 1.65569,0 0,9.697625 c 0,0.709582 -0.47305,1.182637 -1.3009,1.182637 z m -10.64373,0 5.2036,-0.118264 0.11827,-0.591318 -1.65569,-0.118264 c 0.11826,-0.354791 0.11826,-0.709582 0.11826,-1.064373 l 0,-8.27846 c 0,-0.827846 0.11826,-1.655692 0.59132,-2.365275 l -0.11827,-0.118263 c 0,0 -0.59131,0.118263 -2.95659,0.118263 l -1.41916,0 0,0.591319 c 1.3009,0.236527 1.3009,0.473055 1.3009,1.419165 l 0,8.751514 c 0,0.709583 -0.47306,1.182637 -1.3009,1.182637 z m -11.11679,-1.773956 c 0.11826,1.419165 2.24701,1.89222 3.9027,1.89222 2.36528,0 4.37576,-1.182637 4.37576,-3.666175 0,-4.13923 -5.79492,-3.902703 -5.79492,-6.859296 0,-0.946109 0.82785,-1.655692 2.01048,-1.655692 1.65569,0 2.24701,1.064374 2.12875,2.601802 l 0.70958,0 0.59132,-3.19312 c -1.06437,-0.236528 -2.24701,-0.354791 -3.42965,-0.354791 -2.95659,0 -4.49402,1.537428 -4.49402,3.547911 0,4.020966 5.79492,3.902702 5.79492,6.859295 0,1.182637 -1.06437,1.655692 -2.01048,1.655692 -0.94611,0 -2.72007,-0.591318 -2.72007,-3.074856 l -0.70958,0 c -0.11826,0.827846 -0.23653,1.537428 -0.35479,2.24701 m -9.69762,-4.612285 0,-5.085339 0.23652,-0.236528 0.47306,0 c 1.3009,-0.118263 2.48354,0.94611 2.48354,2.247011 0,0.118264 0,0.236527 0,0.473055 0,1.773955 -0.94611,2.601801 -1.77396,2.601801 z m -3.78444,6.386241 5.32186,-0.118264 0.11827,-0.591318 -1.65569,-0.118264 c 0.11826,-0.354791 0.11826,-0.591319 0.11826,-0.94611 l 0,-3.311384 0.23653,-0.236527 0.82784,0 2.12875,3.19312 c 0.47306,0.591319 0.82785,1.300901 1.06437,2.010483 l 0.11827,0.118264 3.66617,0 0.11827,-0.709582 -0.23653,0 c -0.35479,0 -0.70958,0 -1.41917,-1.182637 l -2.72006,-4.13923 0,-0.354792 c 1.3009,-0.591318 2.12875,-1.773955 2.36527,-3.19312 0,-1.537428 -1.3009,-3.074856 -4.61228,-3.074856 l -5.44013,0 0,0.591318 c 1.3009,0.236528 1.41916,0.473055 1.41916,1.419165 l 0,8.869778 c 0,0.591319 -0.47305,1.064374 -1.3009,1.182637 z m -12.53596,0 c 0,0 2.01049,0 3.19312,0 l 5.91319,0 0.70958,-3.19312 -0.70958,0 c -0.94611,2.010483 -1.18264,2.24701 -2.83833,2.24701 l -2.6018,0 c 0.11826,-0.354791 0.11826,-0.709582 0.11826,-1.064373 l 0,-3.784439 0.23653,-0.236527 2.83833,0 0,1.419164 0.94611,0 0,-3.547911 -0.82785,0.118263 -0.11826,1.064374 -3.19312,0 0,-4.494021 0.23653,-0.236528 2.12874,0 c 1.53743,0 2.12875,0.354792 2.01049,2.247011 l 0.70958,0 0.59132,-3.311384 c 0,0 -0.70958,0.118264 -1.41917,0.118264 l -8.16019,0 0,0.591318 c 1.3009,0.236528 1.41916,0.473055 1.41916,1.419165 l 0,8.869778 c 0,0.709583 -0.47305,1.064374 -1.3009,1.182637 z m -8.39672,-0.118264 0.94611,0.236528 4.25749,-10.407207 c 0.23653,-0.709582 0.59132,-1.419165 1.18264,-1.892219 l -0.11826,-0.354792 -3.07486,0 0,0.591319 c 1.06438,0.236527 1.18264,0.827846 0.82785,1.655692 l -2.95659,7.214086 c -0.11827,-0.354791 -0.23653,-0.827846 -0.35479,-1.182637 l -2.48354,-6.504504 c -0.23653,-0.591318 -0.11827,-1.182637 0.11826,-1.773956 l -0.11826,-0.118263 c 0,0 -1.3009,0.118263 -2.72007,0.118263 l -0.94611,0 0,0.591319 c 0.47306,0.118264 0.82785,0.591319 1.06438,1.064373 z m -12.29942,0.118264 5.2036,-0.118264 0.11827,-0.591318 -1.6557,-0.118264 c 0,-0.354791 0.11827,-0.709582 0.11827,-1.064373 l 0,-8.27846 c 0,-0.827846 0.23652,-1.655692 0.59132,-2.365275 l -0.11827,-0.118263 c 0,0 -0.59132,0.118263 -2.95659,0.118263 l -1.41917,0 0,0.591319 c 1.30091,0.236527 1.30091,0.473055 1.30091,1.419165 l 0,8.751514 c 0,0.709583 -0.47306,1.182637 -1.30091,1.182637 z m -15.610813,0 3.902702,-0.118264 0.118264,-0.591318 -1.655692,-0.118264 c 0.118264,-0.354791 0.118264,-0.709582 0.118264,-1.064373 l 0,-7.568878 c 0.236527,0.354791 0.473055,0.591318 0.827846,0.94611 l 8.041932,8.633251 0.827846,0 0,-10.407207 c 0,-0.827846 0.473055,-1.655692 1.300901,-1.892219 l -0.118264,-0.354792 -3.902702,0 0,0.591319 c 1.537428,0.118264 1.537428,0.591319 1.537428,1.419165 l 0,6.741031 C 96.264955,47.255664 96.028427,46.900873 95.7919,46.546081 l -6.741032,-6.977559 c -0.236527,-0.236527 -0.591318,-0.591318 -0.709582,-0.946109 0,0 -1.537428,0.118263 -2.483538,0.118263 l -0.591319,0 0,0.591319 c 1.182637,0.354791 1.537429,0.94611 1.537429,2.128747 l 0,8.160196 c 0,0.709582 -0.473055,1.064373 -1.300901,1.182637 z M 71.429575,46.782609 c 0,3.429648 2.838329,4.612285 5.440131,4.612285 2.956593,0 5.203603,-1.537429 5.203603,-4.730549 l 0,-5.676658 c 0,-0.94611 0.591319,-1.655692 1.419165,-2.010483 l -0.118264,-0.354791 -3.902703,0 0,0.591318 c 1.419165,0.118264 1.419165,0.591319 1.419165,1.419165 l 0,6.149713 c 0,1.892219 -1.655692,3.429648 -3.547911,3.429648 -1.89222,0 -3.429648,-1.655692 -3.429648,-3.547912 l 0,-5.676658 c 0,-0.827846 0.118264,-1.655692 0.591318,-2.365274 l -0.118263,-0.118264 c 0,0 -0.591319,0.118264 -2.956593,0.118264 l -1.300901,0 0,0.591318 c 1.300901,0.236528 1.300901,0.473055 1.300901,1.419165 z M 50.615161,51.27663 c 0,0 2.010484,0 3.193121,0 l 5.913185,0 0.709583,-3.19312 -0.709583,0 c -0.946109,2.010483 -1.182637,2.24701 -2.838329,2.24701 l -2.601801,0 C 54.3996,49.975729 54.3996,49.620938 54.3996,49.266147 l 0,-3.784439 0.236528,-0.236527 2.838329,0 0,1.419164 0.946109,0 0,-3.547911 -0.827845,0.118263 -0.118264,1.064374 -3.19312,0 0,-4.494021 0.236527,-0.236528 2.128747,0 c 1.537428,0 2.128747,0.354792 2.010483,2.247011 l 0.709582,0 0.591319,-3.311384 c 0,0 -0.709583,0.118264 -1.419165,0.118264 l -8.160196,0 0,0.591318 c 1.419165,0.236528 1.419165,0.473055 1.419165,1.419165 l 0,8.869778 c 0,0.709583 -0.473055,1.064374 -1.300901,1.182637 z m -10.880261,0 5.558394,-0.118264 0.118264,-0.591318 -1.892219,-0.118264 c 0.118263,-0.354791 0.118263,-0.709582 0.118263,-1.064373 l 0,-9.461097 0.236528,-0.236528 1.419164,0 c 1.419165,0 2.010483,0.354791 2.010483,2.247011 l 0.709583,0 0.591318,-3.311384 c -0.473055,0.118263 -0.946109,0.118263 -1.419164,0.118263 l -9.342834,0 c -0.473054,0 -0.827846,0 -1.3009,-0.118263 l -0.354792,3.311384 0.709583,0 c 0.709582,-2.010483 1.300901,-2.365275 2.483538,-2.365275 l 1.655692,0 0,9.697625 c 0,0.709582 -0.473055,1.182637 -1.300901,1.182637 z m -9.461097,-8.27846 1.182637,3.311384 -3.547911,0 1.892219,-4.730549 c 0.118264,0.354792 0.354791,1.064374 0.473055,1.419165 m -6.03145,8.27846 3.666176,0 0.118263,-0.591319 -1.655692,-0.354791 1.064374,-2.720065 0.354791,-0.236528 4.020966,0 0.827846,2.483538 c 0.236528,0.591319 -0.236527,0.709583 -0.709582,0.709583 l 0,0.709582 c 0,0 2.838329,-0.118264 3.666175,-0.118264 l 0.827846,0 0.118264,-0.591318 c -0.709583,-0.118264 -0.94611,-0.591319 -1.300901,-1.419165 l -4.13923,-10.643734 -1.182637,0.236527 -4.375758,10.998526 c -0.236527,0.473055 -0.709582,0.827846 -1.300901,0.946109 z m -8.633251,0 5.558395,-0.118264 0.118264,-0.591318 -2.010483,-0.236528 c 0.118263,-0.354791 0.118263,-0.709582 0.118263,-1.064373 l 0,-9.461097 0.236528,-0.236528 1.537428,0 c 1.419164,0 2.010483,0.354792 2.010483,2.247011 l 0.827846,0 0.591319,-3.311384 c -0.473055,0.118264 -0.94611,0.118264 -1.419165,0.118264 l -9.342833,0 c -0.473055,0 -0.827846,0 -1.300901,-0.118264 l -0.473055,3.429648 0.709582,0 c 0.709583,-1.89222 1.300901,-2.247011 2.483538,-2.247011 l 1.655692,0 0,9.697625 c 0,0.709582 -0.473055,1.182637 -1.300901,1.182637 z M 2.2453026,49.502674 c 0,1.419165 2.2470106,1.89222 3.9027026,1.89222 2.3652742,0 4.3757578,-1.182637 4.3757578,-3.666175 0,-4.13923 -5.7949224,-3.902703 -5.7949224,-6.859296 0,-0.946109 0.827846,-1.655692 2.0104831,-1.655692 1.655692,0 2.2470106,1.064374 2.1287469,2.601802 l 0.7095822,0 0.5913182,-3.19312 C 9.104598,38.385885 7.9219609,38.267622 6.8575874,38.267622 c -2.9565928,0 -4.494021,1.537428 -4.494021,3.547911 0,4.020966 5.7949219,3.902702 5.7949219,6.859295 0,1.182637 -1.0643734,1.655692 -2.0104831,1.655692 -0.9461097,0 -2.7200654,-0.591318 -2.7200654,-3.074856 l -0.7095823,0 c -0.2365274,0.827846 -0.3547911,1.537428 -0.4730549,2.24701"
   id="path5219"
   inkscape:connector-curvature="0"
   style="fill:#851740"
   sodipodi:nodetypes="cscccscsccccccsscccccccccccccccccscccccsccccccsssccccccsccccccccccccssccssccccccsccscccsscccscsccccccscccccccccsccccsccsscccscccscscccccccccccscccsccssccccccssscccccccccsccccccccccccsccccsccccccsccscccsscccscsccccccssccsccsscccsssscccsssscccccccssscccccsccccccccsccccsccsscccscccscscccccccccccscccsccsscccccccccccccccsccccccccssccsccssccccccsccccsccccsccccsccssccssssccccsssssccsccsscscccscscccccccccccscccsccssccccccsccscccsscccscscccccccccccccccccsccccccccccccsccscccsscccscscccsssscccssssccc" />



</svg>