<?xml version="1.0" encoding="UTF-8" standalone="no"?>
<!DOCTYPE svg PUBLIC "-//W3C//DTD SVG 1.1//EN" "http://www.w3.org/Graphics/SVG/1.1/DTD/svg11.dtd">
<!-- Created with Vectornator (http://vectornator.io/) -->
<svg height="100%" stroke-miterlimit="10" style="fill-rule:nonzero;clip-rule:evenodd;stroke-linecap:round;stroke-linejoin:round;" version="1.1" viewBox="0 0 1091 1268" width="100%" xml:space="preserve" xmlns="http://www.w3.org/2000/svg" xmlns:xlink="http://www.w3.org/1999/xlink">
<defs/>
<g id="アートボード1">
<path d="M68.1444 240.846C67.8771 397.119 68.1444 477.529 68.9472 482.079C69.7499 486.628 71.6228 491.578 74.5666 496.93C77.5103 502.282 80.9887 506.83 85.0026 510.577C89.0165 514.324 118.184 527.569 172.505 550.314C226.826 573.059 253.986 591.256 253.986 604.903C253.986 618.55 254.388 629.925 255.19 639.021C255.993 648.116 257.063 656.545 258.401 664.308C259.74 672.071 262.281 682.37 266.028 695.215C269.774 708.059 274.724 721.168 280.879 734.55C287.034 747.933 292.787 758.898 298.139 767.464C303.491 776.03 309.779 784.86 317.004 793.956C324.229 803.051 330.785 810.412 336.672 816.032C342.558 821.651 345.502 829.944 345.502 840.918L345.502 857.375C345.101 857.238 344.699 857.11 344.298 856.973C343.495 856.708 337.207 850.816 325.433 839.312C313.659 827.809 303.223 816.032 294.125 803.99C285.027 791.949 276.999 779.642 270.042 767.063C263.084 754.483 256.529 739.768 250.374 722.91C244.219 706.052 239.67 689.86 236.727 674.343C233.783 658.825 232.044 641.429 231.509 622.162C230.973 602.896 224.284 590.589 211.439 585.235C205.017 582.562 198.595 579.883 192.173 577.207L192.173 605.304C192.173 624.033 192.841 639.823 194.18 652.668C195.518 665.512 197.792 679.023 201.003 693.208C204.214 707.393 208.63 722.107 214.249 737.36C219.868 752.613 226.826 767.865 235.121 783.118C243.416 798.371 252.113 812.154 261.211 824.461C270.309 836.767 280.879 849.082 292.921 861.388C304.962 873.695 315.666 883.601 325.032 891.091C334.397 898.581 340.15 902.868 342.291 903.935C344.432 905.003 345.368 910.622 345.101 920.794C344.967 925.875 344.834 930.965 344.699 936.046C337.073 930.427 329.447 924.807 321.82 919.188C306.568 907.949 293.456 896.975 282.485 886.274C271.513 875.573 263.619 867.409 258.803 861.79C253.986 856.17 247.965 848.408 240.74 838.509C233.515 828.611 226.826 818.44 220.671 808.004C214.516 797.568 208.764 786.594 203.412 775.09C198.059 763.587 193.511 752.476 189.764 741.775C186.018 731.074 182.539 719.033 179.328 705.651C176.117 692.268 173.709 679.561 172.103 667.519C170.498 655.477 169.561 635.673 169.294 608.114C169.026 580.552 162.47 564.229 149.626 559.145C143.204 556.602 136.781 554.061 130.359 551.518C130.493 568.243 130.627 584.97 130.761 601.692C131.028 635.143 131.831 657.348 133.169 668.322C134.507 679.296 136.514 691.064 139.19 703.644C141.865 716.223 145.076 728.53 148.823 740.571C152.57 752.613 156.449 763.587 160.463 773.485C164.477 783.383 169.428 794.092 175.314 805.596C181.201 817.099 189.096 830.345 198.996 845.333C208.897 860.321 217.594 872.362 225.086 881.458C232.579 890.553 242.346 900.989 254.388 912.766C266.429 924.543 278.471 935.107 290.512 944.475C302.554 953.844 313.659 961.735 323.827 968.157C333.996 974.579 344.834 980.737 356.34 986.621C367.846 992.505 381.761 998.526 398.084 1004.68C414.407 1010.84 428.188 1015.38 439.427 1018.33C450.665 1021.28 462.707 1023.81 475.551 1025.96C488.396 1028.1 499.367 1029.57 508.465 1030.37C517.563 1031.17 531.478 1031.44 550.209 1031.17C568.94 1030.91 583.792 1030.11 594.763 1028.77C605.734 1027.43 618.043 1025.29 631.691 1022.34C645.338 1019.4 658.447 1015.92 671.026 1011.91C683.606 1007.89 697.919 1002.27 713.975 995.05C730.03 987.825 742.875 981.403 752.508 975.783C762.141 970.164 773.115 962.939 785.421 954.109C797.728 945.278 810.845 934.441 824.757 921.596C838.669 908.752 851.112 895.771 862.086 882.662C873.06 869.553 883.496 855.231 893.394 839.714C903.292 824.196 911.995 808.405 919.484 792.35C926.974 776.295 933.268 760.376 938.35 744.585C943.431 728.795 947.581 712.474 950.793 695.616C954.004 678.758 956.147 663.505 957.215 649.858C958.282 636.211 958.82 616.406 958.82 590.453L958.82 551.518C952.398 554.061 945.976 556.602 939.554 559.145C926.709 564.229 920.022 581.357 919.484 610.522C918.947 639.687 917.614 661.233 915.471 675.145C913.327 689.057 910.79 701.637 907.844 712.876C904.898 724.114 901.021 736.156 896.204 749C891.387 761.845 885.631 774.826 878.944 787.935C872.257 801.044 865.562 812.684 858.875 822.855C852.188 833.027 843.759 844.265 833.588 856.572C823.417 868.878 814.056 879.186 805.491 887.479C796.925 895.771 786.626 904.602 774.584 913.97C762.542 923.338 751.039 931.366 740.065 938.053C729.091 944.74 718.39 950.633 707.954 955.714C697.518 960.796 686.945 965.347 676.244 969.361C665.543 973.375 652.964 977.252 638.514 981.001C624.064 984.75 609.879 987.56 595.967 989.431C582.053 991.301 566.933 992.377 550.611 992.642C534.288 992.907 519.436 992.377 506.057 991.036C492.677 989.695 478.628 987.424 463.911 984.213C449.194 981.001 436.617 977.654 426.181 974.178C415.745 970.702 406.112 966.953 397.281 962.939C388.451 958.925 384.035 889.221 384.035 753.817C384.035 618.413 396.478 550.18 421.364 549.11C446.25 548.04 466.587 546.434 482.375 544.293C498.163 542.152 512.212 539.744 524.52 537.068C536.829 534.393 549.005 531.182 561.047 527.435C573.088 523.689 582.989 520.21 590.749 516.999C598.51 513.788 608.948 508.837 622.057 502.148C635.167 495.458 644.535 490.24 650.154 486.494C655.774 482.747 661.393 483.015 667.013 487.297C672.632 491.578 675.442 493.986 675.442 494.522C675.442 495.057 672.897 497.064 667.815 500.542C662.734 504.021 656.039 508.169 647.746 512.985C639.453 517.802 630.623 522.485 621.254 527.034C611.886 531.583 602.657 535.597 593.559 539.075C584.461 542.554 569.877 546.702 549.808 551.518C529.738 556.335 511.676 559.947 495.621 562.356C479.565 564.764 464.848 566.504 451.468 567.574C438.088 568.644 429.793 569.715 426.582 570.785C423.371 571.855 420.026 573.862 416.548 576.806C413.069 579.749 410.661 582.69 409.323 585.636C407.984 588.582 407.316 646.912 407.316 760.641C407.316 874.369 408.253 932.972 410.125 936.448C411.998 939.924 414.273 942.468 416.949 944.074C419.625 945.68 424.977 947.823 433.004 950.496C441.032 953.169 454.278 956.38 472.742 960.129C491.205 963.878 509.535 966.15 527.732 966.953C545.928 967.756 562.251 967.491 576.701 966.15C591.151 964.81 606.136 962.401 621.656 958.925C637.173 955.449 652.161 951.034 666.611 945.68C681.061 940.325 695.776 933.638 710.764 925.61C725.751 917.582 739.126 909.29 750.902 900.724C762.679 892.159 772.978 883.866 781.809 875.838C790.639 867.811 800.939 856.837 812.716 842.925C824.492 829.013 834.254 815.895 842.017 803.589C849.78 791.282 856.202 779.907 861.283 769.471C866.365 759.035 871.583 746.054 876.937 730.537C882.292 715.019 886.306 700.834 888.979 687.99C891.652 675.145 893.659 660.158 895 643.034C896.341 625.911 896.87 610.659 896.605 597.276C896.469 590.589 896.341 583.894 896.204 577.207C890.183 579.615 884.162 582.024 878.142 584.432C866.1 589.249 859.678 592.058 858.875 592.861C858.072 593.664 857.671 601.154 857.671 615.339C857.671 629.524 857.27 640.626 856.467 648.654C855.664 656.682 854.058 666.58 851.65 678.356C849.242 690.133 846.569 700.697 843.622 710.066C840.676 719.434 837.465 728.265 833.989 736.557C830.513 744.85 826.098 753.953 820.743 763.852C815.389 773.75 810.709 781.777 806.695 787.935C802.681 794.092 796.925 801.847 789.435 811.215C781.945 820.584 774.183 829.278 766.155 837.305C758.127 845.333 750.902 852.02 744.48 857.375C738.058 862.729 729.894 868.75 719.995 875.437C710.097 882.124 699.79 888.281 689.089 893.901C678.388 899.52 668.217 904.2 658.583 907.949C648.95 911.698 639.983 914.773 631.691 917.181C623.398 919.589 610.682 922.134 593.559 924.807C576.433 927.481 562.919 928.958 553.019 929.223C543.118 929.488 532.548 929.223 521.309 928.42C510.071 927.617 498.698 926.148 487.192 924.005C475.685 921.861 465.651 919.453 457.088 916.78C448.524 914.107 444.243 861.653 444.243 759.436C444.243 657.219 456.419 604.638 480.769 601.692C505.12 598.745 528.936 594.603 552.216 589.249C575.496 583.894 592.89 579.08 604.396 574.799C615.9 570.518 627.677 565.433 639.718 559.546C651.76 553.659 662.059 548.173 670.625 543.089C679.191 538.005 686.68 533.055 693.103 528.238C699.525 523.421 703.137 521.013 703.94 521.013C704.743 521.013 707.288 523.421 711.566 528.238C715.845 533.055 717.852 535.864 717.587 536.667C717.322 537.47 715.042 539.477 710.764 542.688C706.485 545.899 698.457 551.251 686.68 558.743C674.904 566.236 660.992 573.862 644.936 581.622C628.881 589.385 611.356 596.072 592.355 601.692C573.355 607.311 551.815 612.666 527.732 617.747C503.648 622.829 489.6 626.176 485.586 627.782C481.572 629.387 478.495 631.129 476.354 633C474.213 634.87 472.34 637.552 470.735 641.027C469.129 644.503 468.326 685.846 468.326 765.056C468.326 844.265 469.396 885.736 471.537 889.485C473.678 893.234 476.621 895.771 480.368 897.112C484.114 898.452 489.6 899.657 496.825 900.724C504.05 901.792 516.76 902.595 534.956 903.133C553.153 903.67 567.87 903.269 579.109 901.928C590.348 900.588 601.051 898.717 611.22 896.309C621.391 893.901 632.63 890.425 644.936 885.873C657.243 881.321 668.08 876.641 677.449 871.824C686.817 867.008 697.783 860.184 710.362 851.354C722.942 842.523 733.907 833.693 743.276 824.862C752.644 816.032 760.672 807.603 767.359 799.575C774.046 791.547 780.34 783.118 786.224 774.288C792.108 765.457 797.6 756.089 802.681 746.191C807.763 736.292 811.913 727.189 815.124 718.896C818.335 710.604 821.281 701.637 823.955 692.004C826.628 682.37 828.771 673.002 830.377 663.906C831.982 654.811 833.05 639.285 833.588 617.346C834.126 595.406 861.147 573.327 914.668 551.117C968.189 528.907 997.618 515.394 1002.97 510.577C1008.33 505.76 1012.34 500.676 1015.01 495.324C1017.69 489.972 1019.29 486.092 1019.83 483.684C1020.37 481.276 1020.63 401.133 1020.63 243.254L1020.63 6.43611C1018.49 6.97156 1016.35 7.50622 1014.21 8.04166C1009.93 9.11176 1005.65 10.7173 1001.37 12.8583C997.088 14.9993 993.604 17.5409 990.931 20.4846C988.258 23.4284 986.115 26.9068 984.509 30.9207C982.903 34.9345 982.101 111.465 982.101 260.513C982.101 409.562 978.223 485.557 970.46 488.501C966.583 489.972 962.698 491.445 958.82 492.916L958.82 86.7133C956.147 87.382 953.466 88.0515 950.793 88.7203C945.438 90.0585 941.296 91.53 938.35 93.1355C935.403 94.741 932.329 97.2834 929.118 100.762C925.907 104.24 923.635 107.719 922.294 111.198C920.953 114.676 920.287 181.976 920.287 313.095C920.287 444.214 916.41 511.38 908.647 514.591C904.77 516.196 900.884 517.802 897.007 519.408L897.007 343.6C897.007 226.396 896.87 167.526 896.605 166.991C896.341 166.455 895.136 166.455 892.993 166.991C890.849 167.526 887.911 168.462 884.162 169.8C880.413 171.138 877.074 172.744 874.128 174.617C871.182 176.49 868.243 179.299 865.297 183.046C862.351 186.793 860.344 190.538 859.276 194.285C858.209 198.031 857.671 255.964 857.671 368.085C857.671 480.206 851.385 538.808 838.806 543.892C826.226 548.976 817.934 553.258 813.92 556.736C809.906 560.215 806.96 563.293 805.089 565.968C803.219 568.644 801.212 573.059 799.069 579.214C796.925 585.371 795.857 595.406 795.857 609.318C795.857 623.23 795.456 633.939 794.653 641.429C793.851 648.919 791.579 660.158 787.83 675.145C784.081 690.133 780.741 701.235 777.795 708.46C774.849 715.685 770.835 723.978 765.754 733.346C760.672 742.715 753.447 753.552 744.079 765.859C734.71 778.165 727.485 786.867 722.404 791.949C717.322 797.03 710.627 802.923 702.335 809.61C694.042 816.297 683.204 823.522 669.822 831.284C656.44 839.047 641.99 845.598 626.473 850.952C610.955 856.307 595.833 860.048 581.116 862.191C566.399 864.335 554.223 865.402 544.59 865.402C534.956 865.402 525.859 864.864 517.295 863.797C508.732 862.729 504.451 828.611 504.451 761.443C504.451 694.275 517.563 657.749 543.787 651.865C570.011 645.981 591.552 640.49 608.41 635.408C625.268 630.327 640.12 624.836 652.964 618.951C665.808 613.067 677.312 607.175 687.483 601.29C697.654 595.406 708.219 588.711 719.193 581.221C730.167 573.729 737.119 568.377 740.065 565.166C743.011 561.954 744.881 559.011 745.684 556.335C746.487 553.659 746.888 548.173 746.888 539.878C746.888 531.583 746.35 525.294 745.283 521.013C744.215 516.732 741.935 511.647 738.459 505.76C734.983 499.874 731.772 495.19 728.826 491.712C725.88 488.233 718.125 480.874 705.546 469.636C692.966 458.397 679.319 447.827 664.604 437.926C649.889 428.026 633.834 418.794 616.438 410.23C599.044 401.667 583.123 394.978 568.673 390.161C554.223 385.345 539.907 381.331 525.725 378.12C511.542 374.909 495.085 372.099 476.354 369.691C457.623 367.282 438.222 365.543 418.153 364.472C408.118 363.937 398.084 363.402 388.049 362.867C391.394 359.656 394.739 356.445 398.084 353.234C404.773 346.811 411.33 343.734 417.752 344.002C424.174 344.269 440.229 345.875 465.918 348.818C491.607 351.762 512.212 354.973 527.732 358.452C543.252 361.93 555.829 365.141 565.462 368.085C575.095 371.029 588.608 376.247 606.002 383.739C623.398 391.231 638.779 398.992 652.161 407.019C665.543 415.047 678.388 423.878 690.694 433.511C703.001 443.144 715.042 453.982 726.819 466.023C738.596 478.065 744.881 484.086 745.684 484.086L746.888 484.086C746.752 477.529 746.623 470.974 746.487 464.418C746.222 451.306 745.018 442.074 742.875 436.722C740.731 431.37 738.323 426.955 735.65 423.476C732.976 419.998 729.227 415.984 724.411 411.435C719.594 406.885 710.764 400.062 697.919 390.964C685.075 381.866 670.087 372.768 652.964 363.67C635.841 354.572 618.581 346.811 601.185 340.389C583.792 333.967 565.863 328.482 547.399 323.932C528.936 319.383 508.866 315.503 487.192 312.292C476.354 310.687 465.517 309.081 454.679 307.476C458.158 305.335 461.637 303.194 465.115 301.053C472.073 296.772 476.621 294.096 478.762 293.026C480.903 291.956 482.776 291.42 484.382 291.42C485.987 291.42 496.156 293.16 514.887 296.638C533.618 300.117 553.956 305.067 575.898 311.49C597.84 317.912 613.09 322.862 621.656 326.341C630.222 329.819 642.528 335.84 658.583 344.403C674.639 352.966 687.218 360.325 696.314 366.479C705.409 372.634 715.717 380.662 727.22 390.563C738.724 400.463 744.881 405.414 745.684 405.414L746.888 405.414L746.888 392.57C746.888 384.006 746.35 377.183 745.283 372.099C744.215 367.015 742.208 362.064 739.262 357.248C736.316 352.431 731.901 347.347 726.016 341.995C720.132 336.643 710.764 330.087 697.919 322.327C685.075 314.567 672.231 307.61 659.386 301.455C646.542 295.3 633.834 289.949 621.254 285.399C608.675 280.85 593.693 276.168 576.299 271.351C567.603 268.943 558.906 266.534 550.209 264.126C553.822 263.056 557.434 261.985 561.047 260.915C568.272 258.774 579.109 256.366 593.559 253.69C608.009 251.014 621.656 249.007 634.5 247.669C647.345 246.331 663.938 245.395 684.272 244.859C704.606 244.324 716.118 243.789 718.791 243.254C721.465 242.718 724.949 241.514 729.227 239.641C733.506 237.769 737.52 235.226 741.269 232.015C745.018 228.804 747.691 225.86 749.297 223.185C750.902 220.509 752.106 217.03 752.909 212.749C753.311 210.608 753.712 208.467 754.113 206.326L713.573 206.326C686.544 206.326 664.339 206.995 646.943 208.333C629.547 209.672 611.485 211.946 592.756 215.157C574.025 218.368 556.364 222.382 539.773 227.198C523.182 232.015 505.521 238.705 486.79 247.268C468.059 255.831 454.011 262.922 444.645 268.541C435.279 274.161 422.97 282.857 407.717 294.631C392.464 306.406 379.887 317.644 369.987 328.348C360.086 339.051 354.333 345.741 352.727 348.417C351.122 351.093 349.65 354.705 348.312 359.254C346.974 363.804 346.305 370.493 346.305 379.324C346.305 388.154 346.706 393.372 347.509 394.978C348.312 396.583 349.917 398.189 352.326 399.794C354.734 401.4 368.515 402.337 393.669 402.604C418.822 402.871 438.356 403.674 452.271 405.012C466.185 406.351 479.967 408.224 493.614 410.632C507.261 413.04 523.985 417.188 543.787 423.075C563.589 428.962 579.778 434.849 592.355 440.736C604.932 446.623 613.09 450.636 616.839 452.777C620.588 454.918 622.595 456.39 622.86 457.193C623.125 457.995 618.445 460.939 608.812 466.023C599.178 471.107 589.679 475.656 580.313 479.67C570.947 483.684 558.906 487.832 544.188 492.113C529.471 496.394 516.493 499.606 505.254 501.747C494.015 503.888 481.706 505.76 468.326 507.366C454.947 508.971 441.969 510.176 429.392 510.978C416.815 511.781 403.837 512.183 390.457 512.183C377.078 512.183 368.917 512.718 365.973 513.788C363.029 514.858 359.952 516.732 356.741 519.408C353.53 522.083 351.122 524.76 349.516 527.435C347.911 530.111 346.84 532.653 346.305 535.062C345.77 537.47 345.368 576.806 345.101 653.069C344.967 691.201 344.834 729.332 344.699 767.464C340.953 761.708 337.207 755.96 333.461 750.204C325.968 738.701 320.884 730.272 318.208 724.917C315.532 719.563 312.321 711.808 308.575 701.637C304.828 691.466 301.484 679.296 298.54 665.111C295.596 650.926 293.857 634.204 293.322 614.937C292.787 595.671 292.118 584.569 291.315 581.622C290.512 578.679 288.907 575.066 286.498 570.785C284.09 566.504 281.146 562.623 277.668 559.145C274.19 555.666 265.492 550.983 251.578 545.096C237.663 539.209 230.706 479.804 230.706 366.881C230.706 253.957 229.636 195.088 227.495 190.271C225.354 185.454 222.678 181.574 219.467 178.631C216.256 175.687 210.904 172.877 203.412 170.202C199.665 168.863 195.919 167.526 192.173 166.188L192.173 519.408C188.293 517.802 184.412 516.196 180.533 514.591C172.772 511.38 168.892 444.482 168.892 313.898C168.892 183.313 168.491 116.683 167.688 114.008C166.885 111.332 165.547 108.522 163.674 105.578C161.801 102.635 158.992 99.6917 155.245 96.748C151.499 93.8042 146.415 91.3959 139.993 89.523C136.781 88.5862 133.57 87.6502 130.359 86.7133L130.359 492.916C126.479 491.445 122.599 489.972 118.719 488.501C110.959 485.557 107.079 410.096 107.079 262.119C107.079 114.142 106.276 37.7442 104.671 32.9276C103.065 28.111 100.657 23.963 97.4456 20.4846C94.2345 17.0062 91.4248 14.5979 89.0165 13.2597C86.6082 11.9215 82.5943 10.45 76.9749 8.84443C74.1652 8.04166 71.3555 7.23889 68.5458 6.43611C68.4117 84.5723 68.2784 162.709 68.1444 240.846ZM646.542 87.9175C622.459 89.7904 600.918 92.3327 581.919 95.5438C562.919 98.7549 542.047 103.437 519.302 109.592C496.557 115.747 477.023 122.035 460.7 128.457C444.377 134.88 428.322 142.372 412.534 150.935C396.746 159.498 385.374 166.188 378.416 171.004C371.458 175.821 366.24 179.969 362.762 183.447C359.283 186.926 356.206 190.94 353.53 195.489C350.854 200.038 349.115 203.651 348.312 206.326C347.509 209.002 346.974 215.96 346.706 227.198C346.572 232.818 346.439 238.437 346.305 244.057C352.727 238.839 359.149 233.621 365.572 228.403C378.416 217.967 391.26 208.601 404.105 200.306C416.949 192.011 429.793 184.652 442.638 178.229C455.482 171.807 468.326 166.188 481.171 161.371C494.015 156.555 508.064 152.005 523.316 147.724C538.569 143.443 555.16 139.562 573.088 136.084C591.016 132.605 610.281 129.796 630.888 127.655C651.495 125.514 670.087 124.31 686.68 124.042C703.274 123.775 714.24 122.972 719.594 121.634C724.949 120.296 729.492 118.557 733.241 116.416C736.99 114.275 740.33 111.733 743.276 108.79C746.222 105.846 748.494 102.903 750.099 99.9591C751.705 97.0153 752.773 93.8042 753.311 90.3258C753.575 88.5862 753.848 86.8474 754.113 85.1078L718.39 85.1078C694.572 85.1078 670.625 86.0446 646.542 87.9175ZM653.767 147.724C630.751 149.33 608.948 151.872 588.341 155.35C567.736 158.829 545.928 163.914 522.915 170.603C499.902 177.293 479.431 184.786 461.503 193.081C443.574 201.376 429.927 208.333 420.561 213.953C411.195 219.572 401.83 225.727 392.464 232.416C383.098 239.106 374.669 246.198 367.177 253.69C359.685 261.182 354.868 266.802 352.727 270.548C350.586 274.295 348.981 278.309 347.911 282.59C346.84 286.871 346.305 294.899 346.305 306.673L346.305 324.334C353.263 317.644 360.219 310.954 367.177 304.265C381.092 290.885 393.267 280.181 403.703 272.154C414.139 264.126 424.977 256.634 436.215 249.676C447.454 242.718 461.101 235.493 477.157 228.001C493.212 220.509 509 214.354 524.52 209.537C540.04 204.721 554.49 200.841 567.87 197.897C581.25 194.954 597.037 192.278 615.234 189.87C633.433 187.461 654.305 185.856 677.85 185.053C701.395 184.25 715.315 183.313 719.594 182.243C723.873 181.173 727.622 179.835 730.833 178.229C734.044 176.624 737.793 173.814 742.072 169.8C746.35 165.786 749.297 162.04 750.902 158.561C752.508 155.083 753.447 152.005 753.712 149.33C753.848 147.991 753.977 146.654 754.113 145.316L721.2 145.316C699.26 145.316 676.782 146.118 653.767 147.724Z" fill="#06539d" fill-rule="evenodd" opacity="1" stroke="none"/>
<g opacity="1">
<path d="M163.312 1113.07C166.595 1113.07 168.419 1111.07 168.419 1107.56C168.419 1104.22 166.595 1102.22 163.312 1102.22L120.454 1102.22C121.183 1099.05 121.73 1095.54 121.913 1091.87L121.913 1091.37C121.913 1088.7 119.359 1087.03 115.529 1087.03L114.8 1087.03C110.97 1087.03 108.782 1088.53 108.599 1091.54C108.417 1095.38 107.869 1099.05 107.14 1102.22L71.212 1102.22C67.9288 1102.22 66.105 1104.22 66.105 1107.73C66.105 1111.07 67.9288 1113.07 71.212 1113.07L103.31 1113.07C97.1096 1124.93 85.802 1130.77 69.7526 1135.27C67.0172 1136.11 65.5579 1137.95 65.5579 1140.29C65.5579 1141.12 65.7405 1141.95 66.105 1142.79C67.1998 1145.13 69.3882 1146.46 71.9417 1146.46C72.8533 1146.46 73.7648 1146.3 74.6771 1145.96C92.7322 1140.95 106.593 1132.27 114.435 1118.42C125.195 1133.61 140.88 1142.62 160.212 1146.13C160.759 1146.3 161.306 1146.3 161.854 1146.3C164.772 1146.3 168.054 1144.79 168.784 1141.62C168.966 1140.95 168.966 1140.45 168.966 1139.78C168.966 1137.11 167.142 1135.11 164.042 1134.61C147.264 1131.77 133.767 1124.93 124.831 1113.07L163.312 1113.07ZM40.937 1130.43L40.937 1093.2C40.937 1090.03 38.5661 1088.36 34.3713 1088.36C30.3592 1088.36 27.8057 1090.03 27.8057 1093.2L27.8057 1130.43L11.757 1130.43C8.47378 1130.43 6.83251 1132.77 6.83251 1136.27C6.83251 1139.62 8.47378 1142.12 11.757 1142.12L27.8057 1142.12L27.8057 1198.88C21.4226 1200.88 15.2221 1202.89 9.38606 1204.39C6.64995 1205.06 5.37388 1207.23 5.37388 1209.73C5.37388 1210.57 5.55575 1211.57 5.92096 1212.4C6.83251 1215.08 8.83899 1216.58 11.5744 1216.58C12.304 1216.58 13.2156 1216.41 14.3098 1216.08C28.5353 1211.73 47.1383 1204.73 59.7218 1198.38C62.2754 1197.04 63.9166 1194.88 63.9166 1192.37C63.9166 1191.7 63.734 1190.87 63.3695 1190.03C62.458 1187.86 60.6341 1186.86 58.4451 1186.86C57.1691 1186.86 55.7097 1187.2 54.4329 1187.86C50.6034 1189.86 45.8615 1191.87 40.937 1193.87L40.937 1142.12L55.5271 1142.12C58.8103 1142.12 60.6341 1139.62 60.6341 1136.27C60.6341 1132.77 58.8103 1130.43 55.5271 1130.43L40.937 1130.43ZM146.351 1160.99L146.351 1222.42C146.351 1227.93 144.71 1229.1 138.691 1229.1C133.767 1229.1 128.478 1228.6 124.831 1227.76C124.101 1227.59 123.554 1227.59 123.007 1227.59C120.271 1227.59 117.9 1229.1 117.171 1232.27C116.989 1232.77 116.989 1233.44 116.989 1233.94C116.989 1236.78 119.177 1238.95 121.913 1239.45C127.019 1240.62 133.585 1240.95 140.698 1240.95C154.011 1240.95 159.847 1235.78 159.847 1225.43L159.847 1160.99L171.884 1160.99C175.167 1160.99 177.173 1158.81 177.173 1155.14C177.173 1151.64 175.167 1149.47 171.884 1149.47L60.816 1149.47C57.5335 1149.47 55.5271 1151.64 55.5271 1155.14C55.5271 1158.81 57.5335 1160.99 60.816 1160.99L146.351 1160.99ZM129.937 1184.52C129.937 1176.34 125.195 1172.67 114.982 1172.67L85.9846 1172.67C75.9539 1172.67 71.212 1176.34 71.212 1184.52L71.212 1206.06C71.212 1214.24 75.9539 1217.91 85.9846 1217.91L114.982 1217.91C125.195 1217.91 129.937 1214.24 129.937 1206.06L129.937 1184.52ZM89.0846 1207.39C85.802 1207.39 83.9782 1206.39 83.9782 1203.56L83.9782 1186.86C83.9782 1183.85 85.802 1183.02 89.0846 1183.02L111.882 1183.02C115.347 1183.02 117.171 1183.85 117.171 1186.86L117.171 1203.56C117.171 1206.39 115.347 1207.39 111.882 1207.39L89.0846 1207.39Z" fill="#000000" fill-rule="evenodd" opacity="1" stroke="none"/>
<path d="M263.437 1110.9L263.437 1151.97L214.013 1151.97C210.548 1151.97 208.907 1154.98 208.907 1158.31C208.907 1161.49 210.548 1164.66 214.013 1164.66L263.437 1164.66L263.437 1219.08L196.323 1219.08C192.857 1219.08 191.034 1222.42 191.034 1225.59C191.034 1228.93 192.857 1231.94 196.323 1231.94L351.345 1231.94C354.807 1231.94 356.633 1228.93 356.633 1225.59C356.633 1222.42 354.807 1219.08 351.345 1219.08L278.393 1219.08L278.393 1164.66L333.837 1164.66C337.299 1164.66 338.943 1161.49 338.943 1158.31C338.943 1154.98 337.299 1151.97 333.837 1151.97L278.393 1151.97L278.393 1110.9L344.048 1110.9C347.693 1110.9 349.336 1107.56 349.336 1104.22C349.336 1101.05 347.693 1098.04 344.048 1098.04L203.071 1098.04C199.606 1098.04 197.782 1101.05 197.782 1104.39C197.782 1107.56 199.606 1110.9 203.071 1110.9L263.437 1110.9ZM301.188 1174.67C299.366 1176.01 298.454 1177.68 298.454 1179.18C298.454 1180.35 299.001 1181.69 299.913 1182.86C307.024 1189.54 315.781 1199.38 321.8 1207.73C323.078 1209.57 325.262 1210.57 327.453 1210.57C329.096 1210.57 330.733 1210.07 332.194 1209.07C334.202 1207.9 335.291 1205.89 335.291 1204.06C335.291 1202.72 334.932 1201.55 334.02 1200.38C327.453 1191.53 318.33 1181.52 311.041 1175.01C309.58 1173.67 307.754 1173.01 305.935 1173.01C304.292 1173.01 302.648 1173.5 301.188 1174.67Z" fill="#000000" fill-rule="evenodd" opacity="1" stroke="none"/>
<path d="M448.366 1195.54L448.366 1238.44C448.366 1241.45 451.288 1243.45 455.48 1243.45C459.673 1243.45 462.777 1241.45 462.777 1238.44L462.777 1195.54L532.261 1195.54C535.548 1195.54 537.367 1193.04 537.367 1189.86C537.367 1186.53 535.548 1184.19 532.261 1184.19L402.591 1184.19C398.581 1184.19 396.755 1183.02 396.755 1179.35L396.755 1109.23C396.755 1106.06 393.84 1104.22 389.458 1104.22C385.083 1104.22 382.344 1106.06 382.344 1109.23L382.344 1181.85C382.344 1191.7 387.457 1195.54 397.85 1195.54L448.366 1195.54ZM432.501 1092.04C422.108 1092.04 417.367 1096.04 417.367 1105.39L417.367 1160.32C417.367 1169.33 422.108 1173.17 432.501 1173.17L502.351 1173.17C512.745 1173.17 517.492 1169.33 517.492 1160.32L517.492 1105.39C517.492 1096.04 512.745 1092.04 502.351 1092.04L432.501 1092.04ZM504.36 1116.08L430.493 1116.08L430.493 1106.9C430.493 1103.72 432.136 1102.56 435.416 1102.56L499.436 1102.56C502.716 1102.56 504.36 1103.72 504.36 1106.9L504.36 1116.08ZM504.36 1139.28L430.493 1139.28L430.493 1125.76L504.36 1125.76L504.36 1139.28ZM504.36 1148.96L504.36 1159.15C504.36 1161.99 502.716 1163.15 499.436 1163.15L435.416 1163.15C432.136 1163.15 430.493 1161.99 430.493 1159.15L430.493 1148.96L504.36 1148.96ZM422.473 1203.22C421.012 1202.39 419.734 1202.05 418.273 1202.05C416.454 1202.05 414.811 1202.89 413.167 1204.56C405.147 1214.07 394.206 1222.08 381.438 1228.09C379.064 1229.26 377.786 1231.27 377.786 1233.44C377.786 1234.61 378.151 1235.78 378.882 1236.95C380.342 1239.11 382.527 1240.12 384.9 1240.12C386.361 1240.12 388.004 1239.78 389.641 1238.95C402.226 1232.77 415.359 1222.58 424.657 1211.9C425.57 1210.74 426.118 1209.57 426.118 1208.4C426.118 1206.39 424.839 1204.39 422.473 1203.22ZM498.889 1204.22C497.428 1202.72 495.785 1202.05 493.783 1202.05C492.505 1202.05 491.044 1202.39 489.583 1203.22C487.582 1204.56 486.304 1206.22 486.304 1208.06C486.304 1209.4 487.034 1210.9 488.312 1212.23C497.611 1222.25 512.021 1232.27 525.695 1238.78C527.156 1239.45 528.434 1239.78 529.705 1239.78C532.079 1239.78 533.905 1238.61 535.548 1236.45C536.272 1235.44 536.637 1234.11 536.637 1232.94C536.637 1230.43 535.183 1228.09 532.444 1226.92C520.042 1221.58 507.639 1213.24 498.889 1204.22Z" fill="#000000" fill-rule="evenodd" opacity="1" stroke="none"/>
<path d="M644.059 1116.58L644.059 1094.87C644.059 1091.7 641.144 1089.87 636.762 1089.87C632.569 1089.87 629.29 1091.7 629.29 1094.87L629.29 1116.58L566.365 1116.58C563.085 1116.58 561.259 1119.58 561.259 1122.92C561.259 1126.43 563.085 1129.27 566.365 1129.27L709.716 1129.27C712.995 1129.27 714.821 1126.26 714.821 1122.92C714.821 1119.58 712.995 1116.58 709.716 1116.58L644.059 1116.58ZM659.2 1220.75C671.237 1198.05 681.814 1171 688.738 1147.63C688.921 1147.13 689.103 1146.46 689.103 1145.8C689.103 1142.95 686.919 1140.61 683.085 1139.78C682.179 1139.62 681.266 1139.45 680.353 1139.45C677.073 1139.45 674.334 1140.95 673.421 1143.96C667.585 1167.67 657.009 1196.21 643.876 1220.75L560.529 1220.75C557.249 1220.75 555.24 1223.75 555.24 1227.26C555.24 1230.77 557.249 1233.6 560.529 1233.6L715.917 1233.6C719.379 1233.6 721.205 1230.77 721.205 1227.26C721.205 1223.75 719.379 1220.75 715.917 1220.75L659.2 1220.75ZM592.448 1140.12C589.343 1140.95 587.525 1142.95 587.525 1145.46C587.525 1146.3 587.707 1147.13 588.072 1147.96C594.814 1164.32 600.65 1184.52 604.667 1203.89C605.398 1207.39 607.947 1208.9 611.051 1208.9C611.781 1208.9 612.687 1208.9 613.418 1208.73C617.252 1207.9 619.619 1205.56 619.619 1202.39C619.619 1201.88 619.619 1201.22 619.436 1200.71C615.426 1181.02 609.773 1160.82 602.111 1143.29C601.015 1140.78 598.831 1139.45 596.092 1139.45C594.997 1139.45 593.726 1139.62 592.448 1140.12Z" fill="#000000" fill-rule="evenodd" opacity="1" stroke="none"/>
<path d="M897.564 1140.29C901.209 1140.29 903.217 1137.28 903.217 1133.61C903.217 1130.1 901.209 1127.26 897.564 1127.26L825.34 1127.26C826.253 1117.25 826.619 1106.56 826.619 1094.87C826.619 1091.2 823.887 1089.2 819.322 1089.2C814.946 1089.2 811.849 1090.87 811.849 1094.87C811.849 1107.23 811.484 1117.91 810.754 1127.26L744.732 1127.26C741.087 1127.26 739.078 1130.1 739.078 1133.61C739.078 1137.28 741.087 1140.29 744.732 1140.29L809.293 1140.29C806.919 1156.31 802.727 1168.83 795.247 1181.35C783.575 1201.22 766.432 1214.74 741.087 1225.26C738.531 1226.43 737.07 1228.43 737.07 1230.77C737.07 1231.94 737.435 1233.27 738.165 1234.44C739.809 1237.45 742.358 1238.61 744.914 1238.61C746.01 1238.61 747.288 1238.28 748.559 1237.78C773.181 1227.59 794.341 1210.24 807.284 1188.53C813.121 1178.84 817.32 1168.83 820.235 1157.64C825.523 1173.84 833.915 1188.2 844.309 1200.38C857.259 1215.58 875.315 1229.1 892.823 1236.95C894.284 1237.62 895.92 1237.95 897.381 1237.95C899.937 1237.95 902.487 1236.78 903.947 1234.44C904.86 1233.1 905.408 1231.44 905.408 1229.93C905.408 1227.59 904.13 1225.43 901.209 1224.26C885.344 1217.58 868.749 1206.39 855.251 1191.7C842.666 1178.02 832.272 1160.82 826.801 1140.29L897.564 1140.29Z" fill="#000000" fill-rule="evenodd" opacity="1" stroke="none"/>
<path d="M1010.46 1177.01C1026.14 1170.83 1039.45 1164.16 1050.58 1156.48C1053.86 1154.14 1055.5 1150.97 1055.5 1148.13C1055.5 1143.79 1052.04 1140.12 1046.02 1140.12L957.567 1140.12C954.098 1140.12 952.279 1142.45 952.279 1145.96C952.279 1149.13 954.098 1151.81 957.567 1151.81L1033.98 1151.81C1035.44 1151.81 1036.35 1152.13 1036.35 1152.64C1036.35 1152.97 1035.81 1153.47 1034.9 1153.97C1026.87 1158.81 1016.66 1163.82 1005.72 1167.83C1005.17 1167.67 1004.26 1167.67 1003.52 1167.67C999.515 1167.67 996.593 1169.16 996.593 1172.34L996.593 1182.19L926.379 1182.19C922.916 1182.19 921.09 1184.35 921.09 1187.86C921.09 1191.37 922.916 1193.87 926.379 1193.87L996.593 1193.87L996.593 1223.59C996.593 1227.93 994.409 1229.43 985.652 1229.43C980.911 1229.43 975.44 1228.43 971.058 1227.43C970.517 1227.26 970.152 1227.26 969.604 1227.26C966.866 1227.26 964.864 1228.93 963.951 1231.77C963.768 1232.44 963.768 1233.1 963.768 1233.6C963.768 1236.61 965.412 1238.78 968.144 1239.45C973.615 1240.78 980.911 1241.45 987.112 1241.45C1004.26 1241.45 1010.46 1236.95 1010.46 1226.26L1010.46 1193.87L1080.12 1193.87C1083.59 1193.87 1085.41 1191.37 1085.41 1187.86C1085.41 1184.35 1083.59 1182.19 1080.12 1182.19L1010.46 1182.19L1010.46 1177.01ZM1047.48 1113.9C1052.59 1108.4 1057.33 1102.22 1060.79 1096.88C1061.34 1096.04 1061.7 1095.04 1061.7 1094.21C1061.7 1092.2 1060.24 1090.53 1057.33 1089.53C1056.05 1089.03 1054.59 1088.86 1053.49 1088.86C1051.13 1088.86 1049.12 1089.87 1048.02 1092.04C1044.74 1098.21 1039.27 1106.56 1032.52 1113.9L1012.47 1113.9C1008.27 1103.55 1004.99 1096.55 1001.52 1091.37C999.88 1089.03 998.054 1088.03 995.498 1088.03C994.585 1088.03 993.679 1088.19 992.583 1088.36C989.662 1089.2 988.025 1090.87 988.025 1093.04C988.025 1093.87 988.208 1094.87 988.938 1095.71C991.853 1100.05 995.68 1106.9 998.784 1113.9L972.884 1113.9C967.596 1105.06 962.308 1097.88 957.202 1092.04C955.741 1090.37 953.915 1089.36 951.731 1089.36C950.636 1089.36 949.54 1089.53 948.444 1090.03C945.713 1090.87 944.252 1092.87 944.252 1094.71C944.252 1095.71 944.617 1096.55 945.347 1097.38C948.992 1101.72 954.28 1107.9 958.115 1113.9L940.242 1113.9C929.665 1113.9 924.187 1118.25 924.187 1127.43L924.187 1148.46C924.187 1151.64 926.926 1153.47 931.119 1153.47C935.319 1153.47 938.051 1151.64 938.051 1148.46L938.051 1129.6C938.051 1126.09 939.877 1125.09 943.521 1125.09L1062.43 1125.09C1066.08 1125.09 1068.09 1126.09 1068.09 1129.6L1068.09 1148.46C1068.09 1151.64 1070.83 1153.47 1074.84 1153.47C1079.21 1153.47 1081.77 1151.64 1081.77 1148.46L1081.77 1127.43C1081.77 1118.25 1076.3 1113.9 1065.54 1113.9L1047.48 1113.9Z" fill="#000000" fill-rule="evenodd" opacity="1" stroke="none"/>
</g>
</g>
</svg>
