<?xml version="1.0" encoding="UTF-8" standalone="no"?><!DOCTYPE svg PUBLIC "-//W3C//DTD SVG 1.1//EN" "http://www.w3.org/Graphics/SVG/1.1/DTD/svg11.dtd"><svg width="100%" height="100%" viewBox="0 0 219 67" version="1.1" xmlns="http://www.w3.org/2000/svg" xmlns:xlink="http://www.w3.org/1999/xlink" xml:space="preserve" xmlns:serif="http://www.serif.com/" style="fill-rule:evenodd;clip-rule:evenodd;stroke-linejoin:round;stroke-miterlimit:1.41421;"><path d="M8.522,41.175c0,7.762 0,14.428 -0.422,17.972c-0.338,2.447 -0.759,4.303 -2.447,4.64c-0.759,0.169 -1.772,0.338 -3.037,0.338c-1.013,0 -1.35,0.253 -1.35,0.675c0,0.591 0.59,0.844 1.687,0.844c3.375,0 8.691,-0.253 10.631,-0.253c2.194,0 7.51,0.253 13.079,0.253c0.928,0 1.603,-0.253 1.603,-0.844c0,-0.422 -0.422,-0.675 -1.35,-0.675c-1.266,0 -3.122,-0.169 -4.304,-0.338c-2.531,-0.337 -3.037,-2.193 -3.29,-4.556c-0.422,-3.628 -0.422,-10.294 -0.422,-18.056l0,-33.75c0,-0.928 0.253,-1.434 0.675,-1.603c0.759,-0.253 2.025,-0.338 3.291,-0.338c1.94,0 5.4,0.507 8.437,3.291c4.725,4.219 4.978,9.872 4.978,12.656c0,8.607 -6.581,13.922 -11.306,13.922c-1.772,0 -2.363,0.253 -2.363,0.928c0,0.591 0.591,0.675 1.013,0.76c0.422,0.084 1.35,0.084 1.772,0.084c11.981,0 20.756,-8.437 20.756,-20.419c0,-4.472 -2.362,-8.268 -4.219,-10.04c-1.35,-1.266 -5.147,-4.81 -15.693,-4.81c-3.882,0 -8.775,0.253 -12.235,0.253c-2.362,0 -7.678,-0.253 -12.15,-0.253c-1.265,0 -1.856,0.169 -1.856,0.76c0,0.59 0.506,0.759 1.434,0.759c1.182,0 2.616,0.084 3.291,0.253c2.784,0.591 3.459,1.941 3.628,4.81c0.169,2.7 0.169,5.062 0.169,17.887l0,14.85Z" style="fill:#b02937;fill-rule:nonzero;"/><path d="M63.787,41.175c0,8.184 0,14.85 -0.421,18.394c-0.254,2.447 -0.76,3.881 -2.447,4.219c-0.76,0.168 -1.772,0.337 -3.038,0.337c-1.012,0 -1.35,0.253 -1.35,0.675c0,0.591 0.591,0.844 1.688,0.844c3.375,0 8.69,-0.253 10.631,-0.253c2.278,0 7.594,0.253 13.162,0.253c0.929,0 1.604,-0.253 1.604,-0.844c0,-0.422 -0.422,-0.675 -1.35,-0.675c-1.266,0 -3.122,-0.169 -4.304,-0.337c-2.531,-0.338 -3.121,-1.857 -3.374,-4.135c-0.338,-3.628 -0.338,-10.294 -0.338,-18.478l0,-14.85c0,-12.825 0,-15.187 0.169,-17.887c0.168,-2.954 0.843,-4.388 3.122,-4.81c1.012,-0.169 1.687,-0.253 2.531,-0.253c0.844,0 1.35,-0.169 1.35,-0.844c0,-0.506 -0.675,-0.675 -1.772,-0.675c-3.206,0 -8.184,0.253 -10.294,0.253c-2.447,0 -7.762,-0.253 -10.969,-0.253c-1.35,0 -2.025,0.169 -2.025,0.675c0,0.675 0.507,0.844 1.35,0.844c1.013,0 2.11,0.084 3.038,0.338c1.856,0.421 2.7,1.856 2.869,4.725c0.168,2.7 0.168,5.062 0.168,17.887l0,14.85Z" style="fill:#b02937;fill-rule:nonzero;"/><path d="M96.694,57.206c-0.422,2.869 -1.097,6.16 -3.46,6.666c-1.265,0.253 -1.856,0.253 -2.531,0.253c-0.844,0 -1.35,0.169 -1.35,0.591c0,0.759 0.675,0.928 1.519,0.928c2.7,0 6.75,-0.253 8.353,-0.253c1.519,0 5.316,0.253 8.859,0.253c1.266,0 2.025,-0.169 2.025,-0.928c0,-0.422 -0.59,-0.591 -1.265,-0.591c-0.844,0 -2.025,-0.084 -3.544,-0.422c-1.434,-0.337 -2.531,-1.097 -2.531,-2.7c0,-1.35 0.084,-2.447 0.253,-3.966l4.387,-33.581l0.338,0c2.953,6.328 8.016,16.96 8.775,18.731c1.012,2.363 7.678,15.272 9.703,19.154c1.35,2.531 2.194,4.218 2.953,4.218c0.76,0 1.181,-0.759 3.122,-4.725l18.394,-38.306l0.337,0l5.063,37.125c0.337,2.363 0.084,3.459 -0.422,3.628c-0.591,0.253 -0.928,0.506 -0.928,0.928c0,0.507 0.506,0.76 2.447,0.928c3.375,0.254 15.018,0.507 17.128,0.507c1.181,0 2.194,-0.253 2.194,-0.928c0,-0.507 -0.591,-0.591 -1.35,-0.591c-1.097,0 -2.785,-0.084 -5.232,-0.844c-2.531,-0.759 -3.375,-3.206 -4.134,-8.522l-7.678,-52.143c-0.253,-1.772 -0.76,-2.616 -1.519,-2.616c-0.759,0 -1.181,0.675 -1.856,2.025l-22.95,48.178l-23.035,-47.587c-1.097,-2.194 -1.603,-2.616 -2.278,-2.616c-0.675,0 -1.181,0.759 -1.434,2.194l-8.353,55.012Z" style="fill:#b02937;fill-rule:nonzero;"/><path d="M197.606,66.825c4.472,0 9.197,-0.759 13.416,-3.459c6.075,-3.966 7.931,-9.788 7.931,-14.682c0,-8.015 -3.628,-13.837 -13.837,-21.515l-2.363,-1.772c-7.003,-5.316 -8.944,-8.269 -8.944,-12.15c0,-5.063 3.797,-8.691 10.041,-8.691c5.484,0 7.931,2.532 9.197,4.135c1.772,2.193 2.194,4.809 2.194,5.568c0,1.013 0.253,1.519 0.843,1.519c0.675,0 0.928,-0.675 0.928,-2.531c0,-6.581 0.338,-9.028 0.338,-10.125c0,-0.591 -0.422,-0.844 -1.181,-1.013c-2.194,-0.59 -5.738,-1.434 -11.222,-1.434c-11.728,0 -19.491,6.666 -19.491,15.947c0,6.834 3.207,12.741 12.488,19.997l3.881,3.037c7.003,5.485 8.269,9.366 8.269,13.5c0,4.472 -3.713,9.619 -11.306,9.619c-5.232,0 -10.21,-2.278 -12.066,-8.522c-0.422,-1.434 -0.759,-3.206 -0.759,-4.303c0,-0.675 -0.085,-1.434 -0.844,-1.434c-0.675,0 -0.928,0.928 -1.013,2.193c-0.084,1.35 -0.422,6.413 -0.422,11.053c0,1.857 0.254,2.279 1.604,2.869c3.628,1.603 7.425,2.194 12.318,2.194Z" style="fill:#b02937;fill-rule:nonzero;"/></svg>