<?xml version="1.0" encoding="UTF-8" standalone="no"?>
<!-- Created with Inkscape (http://www.inkscape.org/) -->
<svg
   xmlns:svg="http://www.w3.org/2000/svg"
   xmlns="http://www.w3.org/2000/svg"
   version="1.0"
   width="730.9892"
   height="315.74524"
   id="svg2698">
  <defs
     id="defs2700">
    <clipPath
       id="clipPath209">
      <path
         d="M 717.809,17.008 L 824.881,17.008 L 824.881,63.256 L 717.809,63.256 L 717.809,17.008 z"
         id="path211" />
    </clipPath>
  </defs>
  <g
     transform="translate(-283.08021,-245.5233)"
     id="layer1">
    <path
       d="M 321.96022,409.6215 L 321.96022,445.06068 C 321.96022,445.9755 322.41763,446.43974 323.33246,446.43974 L 329.98882,446.43974 C 330.90365,446.43974 331.36788,445.9755 331.36788,445.06068 L 331.36788,369.24637 C 331.36788,368.33155 330.90365,367.87414 329.98882,367.87414 L 323.33246,367.87414 C 322.41763,367.87414 321.96022,368.33155 321.96022,369.24637 L 321.96022,401.5929 L 292.48105,401.5929 L 292.48105,369.24637 C 292.48105,368.33155 292.02364,367.87414 291.10882,367.87414 L 284.45245,367.87414 C 283.53763,367.87414 283.08021,368.33155 283.08021,369.24637 L 283.08021,445.06068 C 283.08021,445.9755 283.53763,446.43974 284.45245,446.43974 L 291.10882,446.43974 C 292.02364,446.43974 292.48105,445.9755 292.48105,445.06068 L 292.48105,409.6215 L 321.96022,409.6215 z"
       id="path215"
       style="fill:#000000;fill-opacity:1;fill-rule:evenodd;stroke:none" />
    <path
       d="M 374.37483,440.36026 C 361.41028,440.36026 358.77504,427.17041 358.77504,407.09891 C 358.77504,387.14346 361.6424,373.95362 374.37483,373.95362 C 387.2165,373.95362 389.97462,387.14346 389.97462,407.09891 C 389.97462,427.17041 387.33938,440.36026 374.37483,440.36026 M 400.29711,407.09891 C 400.29711,382.67175 392.60986,366.26637 374.37483,366.26637 C 356.02374,366.26637 348.45255,382.55569 348.45255,407.09891 C 348.45255,431.52607 355.90768,448.04068 374.37483,448.04068 C 392.72592,448.04068 400.29711,431.52607 400.29711,407.09891"
       id="path219"
       style="fill:#000000;fill-opacity:1;fill-rule:evenodd;stroke:none" />
    <path
       d="M 456.15188,434.51017 C 455.81053,434.16882 455.35312,433.59535 455.00494,433.59535 C 454.19935,433.59535 447.78193,440.36095 441.13239,440.36095 C 429.43084,440.36095 424.84306,426.48157 424.84306,405.26312 C 424.84306,385.76509 427.94254,373.94748 440.3268,373.94748 C 446.97634,373.94748 453.40058,380.7199 454.19935,380.7199 C 454.66358,380.7199 455.00494,380.25566 455.35312,379.80508 L 457.75623,376.7056 C 458.22047,376.13213 458.44577,375.66789 458.44577,375.10125 C 458.44577,373.26477 450.19187,366.26705 440.09468,366.26705 C 420.13923,366.26705 414.52058,384.61814 414.52058,406.41006 C 414.52058,430.15452 421.40223,448.04137 440.90027,448.04137 C 450.99064,448.04137 459.25136,441.05048 459.25136,439.214 C 459.25136,438.64053 459.01924,438.18312 458.56183,437.60965 L 456.15188,434.51017 z"
       id="path223"
       style="fill:#000000;fill-opacity:1;fill-rule:evenodd;stroke:none" />
    <path
       d="M 513.73115,409.6215 L 513.73115,445.06068 C 513.73115,445.9755 514.18856,446.43974 515.10339,446.43974 L 521.75975,446.43974 C 522.67458,446.43974 523.13881,445.9755 523.13881,445.06068 L 523.13881,369.24637 C 523.13881,368.33155 522.67458,367.87414 521.75975,367.87414 L 515.10339,367.87414 C 514.18856,367.87414 513.73115,368.33155 513.73115,369.24637 L 513.73115,401.5929 L 484.25198,401.5929 L 484.25198,369.24637 C 484.25198,368.33155 483.79457,367.87414 482.87292,367.87414 L 476.22338,367.87414 C 475.30856,367.87414 474.85114,368.33155 474.85114,369.24637 L 474.85114,445.06068 C 474.85114,445.9755 475.30856,446.43974 476.22338,446.43974 L 482.87292,446.43974 C 483.79457,446.43974 484.25198,445.9755 484.25198,445.06068 L 484.25198,409.6215 L 513.73115,409.6215 z"
       id="path227"
       style="fill:#000000;fill-opacity:1;fill-rule:evenodd;stroke:none" />
    <path
       d="M 580.71263,373.83756 C 580.82869,373.38015 581.17004,372.80668 581.17004,372.4585 C 581.17004,372.11715 580.82869,371.54367 580.25522,371.19549 C 578.64404,370.39673 571.30497,366.26637 562.12942,366.26637 C 550.20258,366.26637 539.30662,373.60544 539.30662,386.79529 C 539.30662,410.53974 572.80009,407.67238 572.80009,426.713 C 572.80009,434.39343 567.7549,439.78679 559.15283,439.78679 C 551.12423,439.78679 544.12651,435.99778 541.83262,434.9669 C 541.25915,434.62555 540.68568,434.39343 540.22144,434.39343 C 539.53874,434.39343 539.30662,434.9669 538.96527,435.88855 L 537.47697,439.67073 C 537.35408,440.12814 537.01273,440.70161 537.01273,441.04979 C 537.01273,441.62326 537.35408,442.08068 537.93438,442.3128 C 539.64797,443.11156 548.14081,448.04751 558.80465,448.04751 C 572.80009,448.04751 583.12258,439.55467 583.12258,425.56606 C 583.12258,417.99487 580.0231,412.60833 573.83097,407.55632 C 564.65543,399.98513 549.62911,397.80731 549.62911,385.7644 C 549.62911,378.08398 554.90641,374.52709 561.78807,374.52709 C 568.32155,374.52709 574.17232,377.39445 576.35698,378.54139 C 576.92362,378.88274 577.50392,379.11486 577.96133,379.11486 C 578.7601,379.11486 578.7601,378.54139 579.22433,377.61974 L 580.71263,373.83756 z"
       id="path231"
       style="fill:#000000;fill-opacity:1;fill-rule:evenodd;stroke:none" />
    <path
       d="M 637.25693,434.51017 C 636.90875,434.16882 636.45817,433.59535 636.10999,433.59535 C 635.3044,433.59535 628.88015,440.36095 622.23061,440.36095 C 610.53589,440.36095 605.94129,426.48157 605.94129,405.26312 C 605.94129,385.76509 609.04759,373.94748 621.42502,373.94748 C 628.08139,373.94748 634.50563,380.7199 635.3044,380.7199 C 635.76863,380.7199 636.10999,380.25566 636.45817,379.80508 L 638.86128,376.7056 C 639.32552,376.13213 639.55082,375.66789 639.55082,375.10125 C 639.55082,373.26477 631.29692,366.26705 621.19973,366.26705 C 601.24428,366.26705 595.62563,384.61814 595.62563,406.41006 C 595.62563,430.15452 602.50728,448.04137 621.99849,448.04137 C 632.09569,448.04137 640.35641,441.05048 640.35641,439.214 C 640.35641,438.64053 640.12429,438.18312 639.66688,437.60965 L 637.25693,434.51017 z"
       id="path235"
       style="fill:#000000;fill-opacity:1;fill-rule:evenodd;stroke:none" />
    <path
       d="M 694.83416,409.6215 L 694.83416,445.06068 C 694.83416,445.9755 695.29157,446.43974 696.21322,446.43974 L 702.86276,446.43974 C 703.77759,446.43974 704.24182,445.9755 704.24182,445.06068 L 704.24182,369.24637 C 704.24182,368.33155 703.77759,367.87414 702.86276,367.87414 L 696.21322,367.87414 C 695.29157,367.87414 694.83416,368.33155 694.83416,369.24637 L 694.83416,401.5929 L 665.35499,401.5929 L 665.35499,369.24637 C 665.35499,368.33155 664.89758,367.87414 663.98276,367.87414 L 657.32639,367.87414 C 656.41157,367.87414 655.95415,368.33155 655.95415,369.24637 L 655.95415,445.06068 C 655.95415,445.9755 656.41157,446.43974 657.32639,446.43974 L 663.98276,446.43974 C 664.89758,446.43974 665.35499,445.9755 665.35499,445.06068 L 665.35499,409.6215 L 694.83416,409.6215 z"
       id="path239"
       style="fill:#000000;fill-opacity:1;fill-rule:evenodd;stroke:none" />
    <path
       d="M 775.92167,369.24842 C 775.92167,368.3336 775.46426,367.87618 774.54261,367.87618 L 767.89307,367.87618 C 766.97824,367.87618 766.51401,368.3336 766.51401,369.24842 L 766.51401,425.10728 C 766.51401,435.54583 761.35276,440.35889 750.80498,440.35889 C 740.02508,440.35889 736.35213,434.50812 736.35213,425.10728 L 736.35213,369.24842 C 736.35213,368.3336 735.89472,367.87618 734.9799,367.87618 L 728.32353,367.87618 C 727.40871,367.87618 726.94447,368.3336 726.94447,369.24842 L 726.94447,425.33257 C 726.94447,439.21195 733.37554,448.04614 750.68892,448.04614 C 768.23442,448.04614 775.92167,439.09589 775.92167,425.33257 L 775.92167,369.24842 z"
       id="path243"
       style="fill:#000000;fill-opacity:1;fill-rule:evenodd;stroke:none" />
    <path
       d="M 807.80669,438.40909 L 807.80669,369.24432 C 807.80669,368.3295 807.34928,367.87209 806.42763,367.87209 L 799.77809,367.87209 C 798.86326,367.87209 798.39903,368.3295 798.39903,369.24432 L 798.39903,445.05863 C 798.39903,445.98028 798.86326,446.43769 799.77809,446.43769 L 834.41167,446.43769 C 835.21727,446.43769 835.9068,446.08951 836.24815,445.17469 L 837.85933,440.81904 C 837.96856,440.24556 838.31674,439.78815 838.31674,439.32391 C 838.31674,438.64121 837.74327,438.40909 836.93768,438.40909 L 807.80669,438.40909 z"
       id="path247"
       style="fill:#000000;fill-opacity:1;fill-rule:evenodd;stroke:none" />
    <path
       d="M 890.15584,439.67005 C 890.15584,438.87129 889.69843,438.40705 888.7836,438.40705 L 861.25014,438.40705 L 861.25014,409.39212 L 883.73842,409.39212 C 884.9946,409.39212 885.22672,409.16 885.22672,407.90382 L 885.22672,402.85181 C 885.22672,401.58881 884.9946,401.36352 883.73842,401.36352 L 861.25014,401.36352 L 861.25014,375.89865 L 886.71501,375.89865 C 887.74589,375.89865 888.08725,375.89865 888.43543,374.86776 L 890.03978,370.0547 C 890.15584,369.59046 890.38796,368.90776 890.38796,368.55958 C 890.38796,368.21822 890.15584,367.87687 888.89284,367.87687 L 853.22154,367.87687 C 852.30672,367.87687 851.84931,368.32746 851.84931,369.24911 L 851.84931,445.06341 C 851.84931,445.97824 852.30672,446.43565 853.22154,446.43565 L 888.55149,446.43565 C 889.81449,446.43565 890.15584,446.21036 890.15584,444.83129 L 890.15584,439.67005 z"
       id="path251"
       style="fill:#000000;fill-opacity:1;fill-rule:evenodd;stroke:none" />
    <path
       d="M 494.98614,482.35613 C 494.52873,481.09313 494.18055,481.09313 493.26573,481.09313 L 486.50013,481.09313 C 485.23712,481.09313 485.12106,481.20919 484.77971,482.35613 L 461.84085,557.02349 C 461.4995,557.82226 461.37661,558.39573 461.26738,558.9692 C 461.26738,559.54267 461.72479,559.65873 462.87173,559.65873 L 469.98551,559.65873 C 471.35775,559.65873 471.81516,559.20132 472.04728,558.39573 L 477.89805,536.26246 L 501.41039,536.26246 L 507.82781,558.39573 C 508.05993,559.20132 508.51734,559.65873 509.8964,559.65873 L 517.01018,559.65873 C 518.15029,559.65873 518.61453,559.54267 518.61453,558.9692 C 518.49847,558.39573 518.26635,557.82226 518.04106,557.02349 L 494.98614,482.35613 z M 499.23256,528.23385 L 480.07588,528.23385 L 487.0736,502.88505 C 487.87236,499.7924 489.0193,494.74721 489.47672,491.98909 L 489.70884,491.98909 C 490.28231,495.1978 491.42925,499.32816 492.34407,502.88505 L 499.23256,528.23385 z"
       id="path255"
       style="fill:#000000;fill-opacity:1;fill-rule:evenodd;stroke:none" />
    <path
       d="M 580.55015,482.47014 C 580.55015,481.55532 580.09274,481.09108 579.17109,481.09108 L 573.21108,481.09108 C 572.28943,481.09108 571.83202,481.55532 571.83202,482.47014 L 571.83202,537.18206 C 571.83202,539.24382 572.52155,541.763 572.8629,544.17978 L 572.63761,544.40507 C 571.5999,540.96424 571.25855,538.44506 569.87948,535.57088 L 544.5375,482.12196 C 544.18932,481.43926 543.73191,481.09108 542.81709,481.09108 L 535.01378,481.09108 C 534.09895,481.09108 533.64154,481.67138 533.64154,482.47014 L 533.64154,558.28445 C 533.64154,559.19927 534.09895,559.66351 535.01378,559.66351 L 540.98061,559.66351 C 541.89544,559.66351 542.35285,559.19927 542.35285,558.28445 L 542.35285,502.30953 C 542.35285,499.79035 542.12756,496.46558 541.21273,492.1031 L 541.43802,491.8778 C 542.0115,495.08651 543.15844,498.8687 544.5375,501.85211 L 570.91719,558.51657 C 571.37461,559.31533 571.83202,559.66351 572.74684,559.66351 L 579.17109,559.66351 C 580.09274,559.66351 580.55015,559.08321 580.55015,558.28445 L 580.55015,482.47014 z"
       id="path259"
       style="fill:#000000;fill-opacity:1;fill-rule:evenodd;stroke:none" />
    <path
       d="M 638.69812,487.05791 C 638.81418,486.6005 639.15553,486.02703 639.15553,485.67885 C 639.15553,485.3375 638.81418,484.76402 638.24071,484.41584 C 636.62953,483.61708 629.29046,479.48672 620.11491,479.48672 C 608.18807,479.48672 597.29211,486.83262 597.29211,500.01564 C 597.29211,523.76009 630.78558,520.89273 630.78558,539.93335 C 630.78558,547.6206 625.74039,553.00714 617.13832,553.00714 C 609.10972,553.00714 602.112,549.22496 599.81811,548.18725 C 599.24464,547.8459 598.67117,547.6206 598.21376,547.6206 C 597.52423,547.6206 597.29211,548.18725 596.95076,549.1089 L 595.45563,552.89108 C 595.3464,553.35532 594.99822,553.92196 594.99822,554.27014 C 594.99822,554.84361 595.3464,555.30103 595.91987,555.53315 C 597.63346,556.33191 606.1263,561.26786 616.79014,561.26786 C 630.78558,561.26786 641.10807,552.77502 641.10807,538.78641 C 641.10807,531.21522 638.00859,525.82868 631.81646,520.77667 C 622.64092,513.21231 607.6146,511.02766 607.6146,498.98475 C 607.6146,491.30433 612.8919,487.74744 619.77356,487.74744 C 626.30704,487.74744 632.16464,490.6148 634.34247,491.76174 C 634.91594,492.10309 635.48941,492.33521 635.94682,492.33521 C 636.74559,492.33521 636.74559,491.76174 637.20982,490.84009 L 638.69812,487.05791 z"
       id="path263"
       style="fill:#000000;fill-opacity:1;fill-rule:evenodd;stroke:none" />
    <path
       d="M 668.06054,551.6315 L 668.06054,523.41533 L 678.61515,523.41533 C 686.52769,523.41533 694.09888,526.51481 694.09888,537.63606 C 694.09888,548.98943 686.64375,551.6315 679.18179,551.6315 L 668.06054,551.6315 z M 668.06054,515.73491 L 668.06054,489.1231 L 678.61515,489.1231 C 685.38075,489.1231 691.34075,490.6114 691.34075,500.82465 C 691.34075,514.23979 682.85474,515.73491 676.2052,515.73491 L 668.06054,515.73491 z M 660.03194,481.0945 C 659.11711,481.0945 658.65288,481.55191 658.65288,482.46673 L 658.65288,558.28104 C 658.65288,559.20269 659.11711,559.6601 660.03194,559.6601 L 676.77867,559.6601 C 685.95422,559.6601 692.37847,559.08663 696.85018,555.30445 C 699.60148,552.8945 704.41454,547.50114 704.41454,537.98424 C 704.41454,523.98881 696.16065,520.20662 690.30987,518.48621 C 694.09888,516.53368 701.67007,511.82984 701.67007,499.79377 C 701.67007,482.00932 687.44251,481.0945 678.84044,481.0945 L 660.03194,481.0945 z"
       id="path267"
       style="fill:#000000;fill-opacity:1;fill-rule:evenodd;stroke:none" />
    <path
       d="M 748.578,482.35613 C 748.11376,481.09313 747.77241,481.09313 746.85759,481.09313 L 740.09199,481.09313 C 738.82898,481.09313 738.71292,481.20919 738.37157,482.35613 L 715.43271,557.02349 C 715.09136,557.82226 714.96847,558.39573 714.85924,558.9692 C 714.85924,559.54267 715.31665,559.65873 716.46359,559.65873 L 723.57737,559.65873 C 724.94961,559.65873 725.40702,559.20132 725.63914,558.39573 L 731.48991,536.26246 L 755.00225,536.26246 L 761.41967,558.39573 C 761.65179,559.20132 762.1092,559.65873 763.48826,559.65873 L 770.60204,559.65873 C 771.74215,559.65873 772.20639,559.54267 772.20639,558.9692 C 772.09033,558.39573 771.85821,557.82226 771.63292,557.02349 L 748.578,482.35613 z M 752.82442,528.23385 L 733.66774,528.23385 L 740.66546,502.88505 C 741.46422,499.7924 742.61116,494.74721 743.06858,491.98909 L 743.3007,491.98909 C 743.87417,495.1978 745.02111,499.32816 745.93593,502.88505 L 752.82442,528.23385 z"
       id="path271"
       style="fill:#000000;fill-opacity:1;fill-rule:evenodd;stroke:none" />
    <path
       d="M 823.24331,547.73052 C 822.90196,547.38917 822.44455,546.8157 822.09637,546.8157 C 821.29078,546.8157 814.87336,553.5813 808.21699,553.5813 C 796.52227,553.5813 791.93449,539.70192 791.93449,518.48347 C 791.93449,498.98544 795.03397,487.17465 807.41823,487.17465 C 814.06777,487.17465 820.49201,493.94025 821.29078,493.94025 C 821.75501,493.94025 822.09637,493.48284 822.44455,493.02543 L 824.84766,489.92595 C 825.3119,489.35248 825.5372,488.88824 825.5372,488.3216 C 825.5372,486.48512 817.2833,479.4874 807.18611,479.4874 C 787.23066,479.4874 781.61201,497.83849 781.61201,519.63041 C 781.61201,543.37487 788.49366,561.26855 807.9917,561.26855 C 818.08207,561.26855 826.34279,554.27083 826.34279,552.43435 C 826.34279,551.86088 826.11067,551.40347 825.65326,550.83 L 823.24331,547.73052 z"
       id="path275"
       style="fill:#000000;fill-opacity:1;fill-rule:evenodd;stroke:none" />
    <path
       d="M 880.82259,522.84254 L 880.82259,558.28172 C 880.82259,559.20337 881.28,559.66078 882.19483,559.66078 L 888.85119,559.66078 C 889.76602,559.66078 890.23025,559.20337 890.23025,558.28172 L 890.23025,482.46741 C 890.23025,481.55259 889.76602,481.09518 888.85119,481.09518 L 882.19483,481.09518 C 881.28,481.09518 880.82259,481.55259 880.82259,482.46741 L 880.82259,514.81394 L 851.34342,514.81394 L 851.34342,482.46741 C 851.34342,481.55259 850.88601,481.09518 849.97119,481.09518 L 843.31482,481.09518 C 842.4,481.09518 841.94258,481.55259 841.94258,482.46741 L 841.94258,558.28172 C 841.94258,559.20337 842.4,559.66078 843.31482,559.66078 L 849.97119,559.66078 C 850.88601,559.66078 851.34342,559.20337 851.34342,558.28172 L 851.34342,522.84254 L 880.82259,522.84254 z"
       id="path279"
       style="fill:#000000;fill-opacity:1;fill-rule:evenodd;stroke:none" />
    <path
       d="M 924.17772,290.47255 L 969.12697,290.47255 L 969.12697,245.5233 L 924.17772,245.5233 L 924.17772,290.47255 z"
       id="path281"
       style="fill:#007cbf;fill-opacity:1;fill-rule:nonzero;stroke:none" />
    <path
       d="M 969.12014,335.41497 L 1014.0694,335.41497 L 1014.0694,290.46572 L 969.12014,290.46572 L 969.12014,335.41497 z"
       id="path283"
       style="fill:#007cbf;fill-opacity:1;fill-rule:nonzero;stroke:none" />
    <path
       d="M 924.17772,380.36421 L 969.12697,380.36421 L 969.12697,335.41497 L 924.17772,335.41497 L 924.17772,380.36421 z"
       id="path285"
       style="fill:#007cbf;fill-opacity:1;fill-rule:nonzero;stroke:none" />
    <path
       d="M 879.22847,335.41497 L 924.17772,335.41497 L 924.17772,290.46572 L 879.22847,290.46572 L 879.22847,335.41497 z"
       id="path287"
       style="fill:#b1c900;fill-opacity:1;fill-rule:nonzero;stroke:none" />
  </g>
</svg>
