<?xml version="1.0" encoding="UTF-8" standalone="no"?>
<svg xmlns:rdf="http://www.w3.org/1999/02/22-rdf-syntax-ns#" xmlns="http://www.w3.org/2000/svg" xml:space="preserve" height="59.32" viewBox="0 0 216.79883 59.320309" width="216.8" version="1.1" xmlns:cc="http://creativecommons.org/ns#" xmlns:dc="http://purl.org/dc/elements/1.1/"><g transform="matrix(1.25 0 0 -1.25 -100.95 448.22)"><g transform="translate(.80676 .60507)"><path d="m26.598 0-6.4492 11.439v-3.9023h-20.148v9.2012h4.0586s-0.00281 11.233-0.00781 17.941h-3.8555v9.0781h4.043c0.39875 2.5238 1.53 5.2669 4.625 7.5469 4.9 3.6112 10.796 6.0156 23.652 6.0156 12.858-0.0012 18.757-2.4044 23.654-6.0156 2.5888-1.9062 3.7854-5.0094 4.3379-7.5469h4.3516v-9.0781h-3.8789v-17.941h4.0527v-9.2012h-20.146v3.8672l-6.432-11.403h-11.857zm6.2148 13.99 4.002 7.0371h-8.0605l4.0586-7.0371zm-17.18 2.7539h1.4121l-1.4121 2.8359v-2.8359zm32.465 0h1.4141v2.8359l-1.4141-2.8359zm-24.51 13.609h18.508l2.3945 4.3262h-5.9883v9.0781h8.7363c-0.205 0.13625-0.42492 0.27391-0.66992 0.41016-2.95 1.6388-5.6852 2.7988-14.053 2.7988-8.3662 0-11.1-1.1601-14.051-2.7988-0.245-0.13625-0.46242-0.27391-0.66992-0.41016h8.7578v-9.2012h-5.3281l2.3633-4.2031zm52.963 4.8301v0.99023h137.86v-0.99023h-137.86z" transform="matrix(.8 0 0 -.8 80.758 356.97)" fill="#ff6307"/><path d="m27.67 1.834-19.555 34.68h-6.0859v5.4102h22.689v-5.5332h-6.6309l4.4297-7.8711h20.656l4.4297 7.9941h-7.2676v5.4102h22.688v-5.4102h-6.0859l-19.555-34.68h-9.7129zm58.875 5.6445c-0.525 0.62625-1.1492 1.0753-1.8242 1.3516 0.275 0.475-0.05039 1.0739-0.27539 1.7227l-1.502 4.0762-2.8223 7.375c-0.775 1.9512-1.0016 2.4527-3.2266 3.0527v0.375h6.8516v-0.375c-1.125-0.17625-2.8516-0.17617-2.8516-1.7012 0-1.2 1.1004-3.8001 1.5254-5.0488h5.7012c0.65125 1.7488 1.5996 4.0991 1.5996 5.1504 0 1.1238-1.0495 1.3984-1.9258 1.5996v0.375h7.3516v-0.375c-2-0.3775-2.4253-1.1015-3.1016-2.9277l-5.5-14.65zm45.305 0.88672c-0.40344-0.00563-0.78656 0.00117-1.1367 0.013672l-5.0762 0.20117v0.37305c2.85 0.37625 2.8755 1.1262 2.9492 3.7012v8.6758c-0.0737 2.575-0.0989 3.3266-3.0977 3.7266v0.375l6.875 0.05078c1.25 0.025 7.2266 0.1243 7.2266-4.502 0-2.95-3.2765-4.0016-5.5527-4.5254v-0.04883c1.975-0.5 4.4277-1.4504 4.4277-3.9004 0-3.4584-3.7912-4.1012-6.6152-4.1406zm47.395 0.013672-6.0996 0.19922v0.35156c2.8012 0.24875 2.9219 0.82414 2.9219 4.6504v7.75c-0.0737 2.5762-0.0989 3.3266-3.0977 3.7266v0.375h8.7754v-0.375c-3.425-0.47625-3.4746-0.97656-3.4746-3.7266v-4.0254c1.7488 0.30125 2.6484-0.29961 3.6484 1.7754 0.52625 1.0738 1.8266 3.2762 3.4766 5 1.4488 1.5012 3.4008 1.4258 6.0508 1.5508l0.0762-0.37305c-4.1262-0.85125-6.5281-5.1511-8.4531-8.5273l-0.12305-0.17383c1.8-0.8 3.0996-2.0003 3.0996-4.1016 0-1.2012-0.50078-4.2762-6.8008-4.0762zm15.877 0.048828v0.37695c3.175 0.7 3.5762 1.6745 3.5762 4.1758v3.75c0 5.6762 0.12304 7.9749-3.252 8.3262v0.375h7.4766v-0.375c-3.6263-0.72625-3.4746-2.0012-3.4746-8.2012v-4.6016c4.225 4.55 8.6758 8.9273 12.676 13.652l0.32422-0.07422c-0.12375-5.4512-0.24914-11.477 0.0996-14.227 0.20125-1.6263 0.5257-2.5758 2.252-2.8008v-0.37695h-6.8262v0.37695c2.825 0.5 3.475 1.1992 3.5 3.5742l0.125 9.125-12.352-13.076h-4.125zm-95.662 0.00195v0.375c3 0.4 3.0253 1.1496 3.1016 3.7246v5.6016c0 1.9988-0.80078 7.6016 6.9492 7.6016 5.5512 0 6.9257-3.277 7.002-6.502l0.14844-5.4746c0.1-3.3012 0.25039-4.7012 2.5254-4.9512v-0.375h-7.25v0.375c3.5 0.325 3.75 1.7749 3.75 4.9512v2.623c0 3.0512 0.525 8.2012-4.875 8.2012-6.8512 0-6.0527-6.4483-6.0527-6.9258v-5.125c0-2.75 0.0519-3.2496 3.3281-3.7246v-0.375h-8.627zm47.506 0v0.375c3 0.4 3.0246 1.1496 3.0996 3.7246v5.6016c0 1.9988-0.79758 7.6016 6.9512 7.6016 5.5513 0 6.925-3.277 7-6.502l0.15235-5.4746c0.1-3.3012 0.24914-4.7012 2.5254-4.9512v-0.375h-7.25v0.375c3.4988 0.325 3.75 1.7749 3.75 4.9512v2.623c0 3.0512 0.52305 8.2012-4.877 8.2012-6.85 0-6.0508-6.4483-6.0508-6.9258v-5.125c0-2.75 0.0512-3.2496 3.3262-3.7246v-0.375h-8.627zm31.305 0.47461c2.6238-0.025 5.1992 1.1499 5.1992 4.0762 0 2.7762-2.798 3.8747-5.1992 3.8984v-7.9746zm-47.482 0.048828c2.55 0 5.2012 0.92578 5.2012 3.9258 0 2.9-2.8762 3.5258-5.2012 3.5508v-7.4766zm-128.95 0.4161v5.5352h4.0586v19.773h1.1523l6.7188-11.916v-8.1035h4.5488v-5.2891h-16.479zm44.887 0v5.2891h4.5508v8.0703l6.7363 11.951h1.1328v-19.775h4.0586v-5.5352h-16.479zm-13.896 0.92969 7.1406 12.564h-14.387l7.2461-12.564zm52.371 0.35547 2.5996 6.5h-4.9512l2.3516-6.5zm46.568 6.25c3.7262-0.17375 5.1504 2.852 5.1504 4.377 0 2.2-1.5249 3.625-3.7012 3.625-2.55 0-2.4258-1.8508-2.4258-3.8008v-4.1504l0.97656-0.05078zm-125.66 26.854c0.38625 2.0888 1.3777 4.2535 3.8477 6.0723 4.6738 3.4425 10.146 5.6562 22.566 5.6562s17.893-2.2138 22.564-5.6562c2.47-1.8188 3.4621-3.9835 3.8496-6.0723h-8.9453c-0.5675 0.7-1.3755 1.3717-2.5293 2.0117-3.3212 1.845-6.4532 3.0293-14.939 3.0293-8.485 0-11.622-1.1843-14.943-3.0293-1.1538-0.64-1.9593-1.3117-2.5293-2.0117h-8.9414zm175.44 1.8652-0.25391 2.4844 0.30859 0.05664c0.4525-1.5675 1.2465-1.7227 2.7715-1.7227v4.5938c0 1.9988-0.14375 1.9213-1.6562 2.1426v0.30859h4.7715v-0.30859c-1.5138-0.22125-1.6562-0.14383-1.6562-2.1426v-4.5938c1.525 0 2.3407 0.15516 2.7832 1.7227l0.31054-0.05664-0.25586-2.4844h-0.23242c-0.22 0.40875-0.59664 0.35352-0.99414 0.35352h-4.6699c-0.19875 0-0.38695 0.01227-0.56446-0.02148-0.16625-0.0325-0.31968-0.13328-0.42968-0.33203h-0.23242zm-15.926 0.16602c-1.3475 0-2.75 0.81836-2.75 2.2871 0 2.1875 3.6328 2.0322 3.6328 3.8984 0 0.71875-0.54149 1.1914-1.2715 1.1914-1.3025 0-2.1089-1.2241-2.4726-2.3066l-0.34375 0.06641 0.36523 2.1855c0.685 0.35375 1.4591 0.56445 2.2441 0.56445 1.4138 0 2.9375-0.66266 2.9375-2.2539 0-2.3088-3.6348-2.1859-3.6348-3.9746 0-0.6525 0.4532-1.1504 1.127-1.1504 1.1388 0 1.4013 1.0039 1.6113 1.9102h0.33203l0.0996-1.9199c-0.56375-0.33125-1.2145-0.49805-1.877-0.49805zm-75.943 0.1875v0.31055c1.315 0.22 1.459 0.14383 1.459 2.1426v1.7441c0 0.9275-0.10969 1.9991 0.66406 2.6953 0.65125 0.585 1.6883 0.80664 2.5508 0.80664 0.91625 0 1.9217-0.23297 2.5742-0.91797 0.64-0.6625 0.66086-1.6568 0.69336-2.5293l0.07813-1.6562c0.08875-1.845 0.08844-2.0089 1.1484-2.2852v-0.31055h-3.4453v0.31055c1.0388 0.20875 1.5691 0.14297 1.6016 1.3242l0.07617 2.6719c0.045 1.37-0.23024 2.6953-2.0527 2.6953-0.77375 0-1.6688-0.26375-2.1113-0.9375-0.35375-0.5525-0.31836-1.4264-0.31836-2.0664v-1.5449c0-1.5025-0.06672-2.0101 1.457-2.1426v-0.31055h-4.375zm13.596 0v0.31055c1.4025 0.24125 1.4375 1.0363 1.4375 2.1738v3.1152c0 1.4912-0.55313 1.4478-1.3594 1.6016v0.31055h3.623v-0.31055c-1.3038-0.27625-1.5461-0.36516-1.5898-1.7227-0.045-1.205-0.10016-2.3641-0.0664-3.6016 1.8225 1.9662 4.4494 4.6184 5.5332 5.9434l0.4961-0.24414v-4.9141c0-1.8012 0.0548-2.2641 1.0273-2.3516v-0.31055h-3.3574v0.31055c1.3025 0.17625 1.6344 0.3425 1.6582 1.6562l0.0645 3.5117-0.0215 0.02148c-1.59-1.855-3.5111-3.6887-4.9023-5.5h-2.543zm13.607 0v0.31055c1.315 0.22 1.459 0.14258 1.459 2.1426v2.6055c0 1.9988-0.14398 1.9213-1.459 2.1426v0.31055h4.373v-0.31055c-1.3138-0.22125-1.457-0.14383-1.457-2.1426v-2.6055c0-2 0.14328-1.9226 1.457-2.1426v-0.31055h-4.373zm8.4375 0v0.30859c0.8625 0.2875 0.8943 0.22102 1.4356 1.4473l2.6289 5.9766 0.45313 0.08789 2.0996-4.8945c0.76125-1.7775 1.0272-2.4847 2.0547-2.6172v-0.30859h-3.457v0.30859c1.4138 0.22125 1.755 0.17742 0.5625 3.1699l-0.96093 2.4102-1.5371-3.6465c-0.695-1.635-0.62743-1.6348 0.64258-1.9336v-0.30859h-3.9219zm12.734 0v0.30859c1.315 0.22125 1.459 0.14383 1.459 2.1426v2.6074c0 1.9988-0.14399 1.9213-1.459 2.1426v0.30859h6.6934c0.26375-0.8275 0.42094-1.6778 0.39844-2.5391h-0.33203c-0.30875 1.27-0.92828 2.0762-2.3633 2.0762-1.4688 0-1.4805-0.52024-1.4805-1.6465v-1.457h0.89649c0.96 0 1.478-0.0232 1.6992 1.0605h0.31055c-0.055-0.94-0.012-1.8679 0.043-2.8066h-0.28516c-0.27625 1.005-0.77461 1.084-1.7246 1.084h-0.93945v-2.8164h0.80664c1.2038 0 2.1874 0.0225 2.2637 1.4688h0.34375l0.20899-1.9336h-6.5391zm11.707 0v0.31055c1.3812 0.11 1.459 0.3193 1.459 1.8105v2.9375c0 1.9988-0.14398 1.9213-1.459 2.1426v0.31055h4.6289v-0.31055c-1.7788-0.1325-1.7129-0.64133-1.7129-2.1426v-1.1055c1.0488 0.155 0.97344 0.08898 1.4922 1.084 0.33125 0.6175 0.97141 1.6559 1.5352 2.0547 0.86125 0.59625 1.9987 0.49578 2.9824 0.55078l0.043-0.30859c-1.8225-0.43-2.9598-2.1531-3.7774-3.7656 0.7725-0.2975 1.4375-0.94 1.4375-1.8125 0-1.7562-1.8346-1.7559-3.1934-1.7559h-3.4355zm22.785 0v0.31055c1.315 0.22 1.459 0.14258 1.459 2.1426v2.6055c0 1.9988-0.14399 1.9213-1.459 2.1426v0.31055h4.375v-0.31055c-1.315-0.22125-1.459-0.14383-1.459-2.1426v-2.6055c0-2 0.14398-1.9226 1.459-2.1426v-0.31055h-4.375zm20.365 0v0.31055c1.2262 0.25375 1.3709 0.72742 1.8672 1.7324l1.2363 2.5078v0.50781c0 1.9988-0.14211 1.9213-1.5996 2.1426v0.31055h4.6602v-0.31055c-1.6675-0.1325-1.6016-0.64008-1.6016-2.1426v-0.74023l0.19726-0.41992 1.2598-2.3301c0.45375-0.82875 0.90695-1.0591 1.8457-1.2578v-0.31055h-3.2148v0.31055c0.9825 0.25375 1.1809 0.35242 0.24219 2.2637l-0.59571 1.2148-0.95898-2.0215c-0.64125-1.3475-0.27641-1.2583 0.49609-1.457v-0.31055h-3.834zm-40.234 0.4082c0.99375 0 2.0547 0.30976 2.0547 1.4473 0 1.1938-1.0272 1.6354-2.0547 1.7129v-3.1602z" transform="matrix(.8 0 0 -.8 80.758 356.97)" fill="#03244d"/></g></g></svg>
