<?xml version="1.0" encoding="utf-8"?>
<!-- Generator: Adobe Illustrator 16.0.0, SVG Export Plug-In . SVG Version: 6.00 Build 0)  -->
<!DOCTYPE svg PUBLIC "-//W3C//DTD SVG 1.1//EN" "http://www.w3.org/Graphics/SVG/1.1/DTD/svg11.dtd">
<svg version="1.1" id="Layer_1" xmlns="http://www.w3.org/2000/svg" xmlns:xlink="http://www.w3.org/1999/xlink" x="0px" y="0px"
	 width="850px" height="299.965px" viewBox="0 0 850 299.965" enable-background="new 0 0 850 299.965" xml:space="preserve">
<g>
	<defs>
		<rect id="SVGID_1_" y="0" width="850" height="299.93"/>
	</defs>
	<clipPath id="SVGID_2_">
		<use xlink:href="#SVGID_1_"  overflow="visible"/>
	</clipPath>
	<rect clip-path="url(#SVGID_2_)" fill="#9CAA39" width="850" height="299.93"/>
	<g clip-path="url(#SVGID_2_)">
		<g>
			<path fill="#FFFFFF" d="M249.944,204.076v25.583c0,8.717,2.445,13.489,9.292,13.489c6.542,0,9.171-5.789,9.171-12.981v-26.091
				h7.702v27.683c0,11.264-6.969,17.626-17.117,17.626c-11.616,0-17.668-5.917-17.668-18.071v-27.237H249.944z"/>
			<path fill="#FFFFFF" d="M325.933,248.621h-6.235c-8.193-10.245-16.385-20.428-24.455-31.944h-0.122v31.944h-6.908v-44.545h6.296
				c8.192,10.183,16.323,20.301,24.392,31.755h0.124v-31.755h6.908V248.621z"/>
			<path fill="#FFFFFF" d="M338.527,248.621v-44.545h8.619v44.545H338.527z"/>
			<path fill="#FFFFFF" d="M370.682,248.621l-15.895-43.909l9.17-1.273c3.791,11.328,7.52,22.655,11.25,35.512h0.122
				c3.913-12.856,7.886-24.184,11.86-35.512l7.398,1.273l-16.874,43.909H370.682z"/>
			<path fill="#FFFFFF" d="M425.336,210.055H410.97v12.218h14.061v5.984H410.97v14.384h16.996v5.979H402.35v-44.545h22.986V210.055z
				"/>
			<path fill="#FFFFFF" d="M437.93,204.076h14.855c8.194,0,13.695,4.072,13.695,11.645c0,6.619-3.179,10.438-7.213,12.918
				l10.147,19.03l-9.049,1.716l-8.681-18.582h-5.136v17.818h-8.62V204.076z M446.55,224.822h3.484c5.931,0,7.824-4.774,7.824-8.019
				c0-5.027-3.421-6.748-6.847-6.748h-4.462V224.822z"/>
			<path fill="#FFFFFF" d="M499.003,211.84c-1.894-1.34-4.4-2.549-6.91-2.549c-3.605,0-5.562,2.102-5.562,4.71
				c0,2.928,2.995,5.158,8.007,9.293c5.749,4.772,8.807,8.526,8.807,13.998c0,5.604-5.137,12.092-14.796,12.092
				c-4.463,0-9.415-1.399-12.594-4.453l3.118-5.092c2.261,1.719,4.889,3.565,8.742,3.565c3.544,0,6.662-1.973,6.662-6.174
				c0-4.901-5.747-8.147-9.17-10.947c-4.155-3.499-7.639-6.236-7.639-12.155c0-5.98,5.807-10.817,13.569-10.817
				c4.892,0,8.805,1.846,10.821,3.881L499.003,211.84z"/>
			<path fill="#FFFFFF" d="M514.164,248.621v-44.545h8.621v44.545H514.164z"/>
			<path fill="#FFFFFF" d="M544.12,248.621v-38.565h-13.205v-5.979h35.029v5.979h-13.205v38.565H544.12z"/>
			<path fill="#FFFFFF" d="M583.489,248.621v-18.645l-13.144-25.265l9.659-1.273c2.995,6.429,5.93,12.855,8.927,20.556
				c3.3-7.7,6.663-14.127,9.963-20.556l7.093,1.273l-13.877,25.265v18.645H583.489z"/>
		</g>
		<g>
			<path fill="#FFFFFF" d="M293.397,71.925c0-12.473,9.048-22.401,21.336-22.401c12.289,0,21.336,9.928,21.336,22.401
				c0,13.3-8.192,23.674-21.336,23.674C301.59,95.599,293.397,85.226,293.397,71.925z M326.9,71.925
				c0-8.209-3.607-16.037-12.167-16.037c-8.559,0-12.166,7.828-12.166,16.037c0,8.528,3.179,17.31,12.166,17.31
				C323.721,89.235,326.9,80.453,326.9,71.925z"/>
			<path fill="#FFFFFF" d="M371.771,95.472l-10.515-18.518l-10.148,18.518l-7.765-1.401L357.1,70.652l-11.799-19.728l8.987-1.272
				l7.886,14.254l7.825-14.254l7.519,1.272l-11.431,18.901l14.917,24.246L371.771,95.472z"/>
			<path fill="#FFFFFF" d="M413.526,56.27h-14.305v14.638h14.06v5.981h-14.06v17.947h-8.621V50.288h22.926V56.27z"/>
			<path fill="#FFFFFF" d="M421.779,71.925c0-12.473,9.049-22.401,21.335-22.401c12.291,0,21.337,9.928,21.337,22.401
				c0,13.3-8.19,23.674-21.337,23.674C429.972,95.599,421.779,85.226,421.779,71.925z M455.279,71.925
				c0-8.209-3.605-16.037-12.165-16.037c-8.559,0-12.165,7.828-12.165,16.037c0,8.528,3.179,17.31,12.165,17.31
				S455.279,80.453,455.279,71.925z"/>
			<path fill="#FFFFFF" d="M474.721,50.288h14.855c8.193,0,13.696,4.073,13.696,11.646c0,6.619-3.179,10.437-7.217,12.919
				l10.152,19.028l-9.051,1.718l-8.681-18.583h-5.136v17.819h-8.62V50.288z M483.341,71.034h3.483c5.931,0,7.826-4.773,7.826-8.019
				c0-5.027-3.422-6.746-6.848-6.746h-4.462V71.034z"/>
			<path fill="#FFFFFF" d="M529.314,50.288c17.422,0,23.415,10.247,23.415,21.001c0,14.702-9.049,23.547-24.209,23.547h-14V50.288
				H529.314z M523.141,88.854h5.255c9.845,0,15.163-5.219,15.163-17.628c0-9.228-5.137-14.955-14.182-14.955h-6.236V88.854z"/>
		</g>
		<g>
			<g>
				<path fill="#FFFFFF" d="M181.548,187.379v-3.431c4.785-0.333,8.399-0.885,8.825-2.878c0.425-2.102,0.425-3.764,0.425-6.75
					v-51.348c0-2.988,0-4.647-0.425-6.75c-0.426-1.991-4.04-2.545-8.825-2.876v-3.431h33.807c14.883,0,24.45,4.537,24.45,16.82
					c0,9.85-6.909,16.268-16.583,18.371v0.22c12.543,0.666,21.581,8.3,21.581,19.921c0,15.05-11.375,22.132-27.641,22.132H181.548z
					 M205.787,144.774h7.335c5.635,0,11.801-3.983,11.801-16.268c0-10.624-4.359-14.94-13.289-14.94h-5.847V144.774z M205.787,171
					c0,10.624,1.914,12.728,9.462,12.728c8.078,0,12.757-6.309,12.757-17.264c0-13.281-7.548-18.038-16.053-18.038h-6.166V171z"/>
				<path fill="#FFFFFF" d="M247.059,109.915h37.42c12.12,0,22.75,6.087,22.75,19.587c0,10.07-6.484,18.37-15.733,21.579
					l10.843,17.372c4.89,7.748,10.312,14.941,13.289,16.933v1.993H300.32c-6.273,0-12.757-18.813-21.156-34.084h-7.867v21.025
					c0,2.986,0,4.648,0.426,6.75c0.425,1.993,4.146,2.545,8.823,2.878v3.431h-33.487v-3.431c4.678-0.333,8.399-0.885,8.824-2.878
					c0.426-2.102,0.426-3.764,0.426-6.75v-51.348c0-2.988,0-4.647-0.426-6.75c-0.425-1.991-4.146-2.545-8.824-2.876V109.915z
					 M271.298,148.979h7.442c9.355,0,12.544-8.3,12.544-18.703c0-11.952-5.209-16.046-12.544-16.046h-7.442V148.979z"/>
				<path fill="#FFFFFF" d="M313.502,149.201c0-22.465,17.541-40.613,40.397-40.613c21.899,0,36.89,18.591,36.89,38.068
					c0,25.562-19.456,42.052-40.717,42.052C332.85,188.708,313.502,175.097,313.502,149.201z M374.31,149.753
					c0-25.896-11.907-37.182-23.281-37.182c-13.82,0-21.049,13.279-21.049,31.98c0,26.12,10.844,40.17,22.856,40.17
					C367.506,184.722,374.31,170.336,374.31,149.753z"/>
				<path fill="#FFFFFF" d="M397.67,149.201c0-22.465,17.541-40.613,40.397-40.613c21.9,0,36.89,18.591,36.89,38.068
					c0,25.562-19.455,42.052-40.718,42.052C417.019,188.708,397.67,175.097,397.67,149.201z M458.48,149.753
					c0-25.896-11.908-37.182-23.285-37.182c-13.819,0-21.047,13.279-21.047,31.98c0,26.12,10.842,40.17,22.857,40.17
					C451.676,184.722,458.48,170.336,458.48,149.753z"/>
				<path fill="#FFFFFF" d="M484.84,122.973c0-2.988,0-4.647-0.424-6.75c-0.426-1.991-4.038-2.545-8.822-2.876v-3.431h33.486v3.431
					c-4.784,0.332-8.397,0.885-8.823,2.876c-0.426,2.103-0.426,3.763-0.426,6.75v22.687c1.17,0,3.614-0.996,6.91-4.538
					l18.497-19.587c4.786-4.979,0.852-8.299-4.039-8.188v-3.431h21.792v3.431c-4.146,0.774-8.183,5.422-12.013,9.518l-19.029,20.692
					c10.421,13.833,23.707,31.873,34.127,42.164v1.66h-14.248c-4.677,0-7.014-4.207-10.629-9.296l-19.667-28.661h-1.701v24.898
					c0,2.986,0,4.648,0.426,6.75c0.426,1.993,4.039,2.545,8.823,2.878v3.431h-33.486v-3.431c4.784-0.333,8.396-0.885,8.822-2.878
					c0.424-2.102,0.424-3.764,0.424-6.75V122.973z"/>
				<path fill="#FFFFFF" d="M551.375,183.949c4.677-0.333,8.398-0.885,8.822-2.878c0.427-2.102,0.427-3.764,0.427-6.75v-51.348
					c0-2.988,0-4.647-0.427-6.75c-0.424-1.991-4.146-2.545-8.822-2.876v-3.431h52.197v17.816h-2.87
					c-1.593-7.857-4.146-13.722-11.588-13.722h-13.5v30.986h8.823c6.698,0,9.567-4.316,9.567-10.625h2.871v25.785h-2.871
					c-0.213-6.086-2.443-11.066-9.567-11.066h-8.823v25.119c0,8.415,3.934,9.076,12.649,9.076c13.503,0,15.521-6.086,19.987-15.934
					h2.871l-3.191,20.028h-56.556V183.949z"/>
				<path fill="#FFFFFF" d="M656.181,127.068c-1.913-6.972-5.846-14.497-14.245-14.497c-4.783,0-10.313,3.098-10.313,11.287
					c0,7.747,7.123,11.62,18.712,20.806c10.843,8.52,14.245,14.719,14.245,23.129c0,13.609-12.971,20.915-28.171,20.915
					c-8.823,0-14.672-1.328-20.2-3.542c-0.426-0.223-0.743-0.663-0.743-1.55v-16.82h2.87c1.807,10.072,7.867,17.927,16.903,17.927
					c6.908,0,13.076-5.863,13.076-13.942c0-7.303-3.085-12.284-17.967-22.354c-7.974-5.313-14.565-11.399-14.565-21.137
					c0-10.956,10.102-18.702,24.771-18.702c6.909,0,12.119,0.221,17.434,1.77c0.744,0.333,1.064,0.996,1.064,1.549v15.162H656.181z"
					/>
			</g>
		</g>
	</g>
</g>
</svg>
