<svg xmlns="http://www.w3.org/2000/svg" height="138.99" viewBox="0 0 182 138.99219" width="182"><g transform="matrix(1.25 0 0 -1.25 0 138.99)"><g transform="translate(.80868 1.0109)"><path d="m74.816 15.016c-5.7338 0-10.547 3.5966-10.547 9.7266 0 5.7912 4.5448 9.6719 10.121 9.6719 2.6462 0 4.8922-0.65609 6.7422-1.7148v-8.6719h-7.4297v2.7754h4.3887v4.2012c-1.0312 0.42125-2.1373 0.61328-3.541 0.61328-4.0725 0-6.9004-2.8586-6.9004-6.9023 0-3.8862 2.4785-6.7949 7.166-6.7949 1.5875 0 3.3829 0.24031 4.9941 0.85156v-3.0371c-1.5338-0.50625-3.1204-0.71875-4.9941-0.71875zm37.949 0c-5.3712 0-9.5176 4.148-9.5176 9.6992 0 5.55 3.9616 9.6992 9.3516 9.6992 5.3712 0 9.5176-4.1492 9.5176-9.6992 0-5.5512-3.9616-9.6992-9.3516-9.6992zm42.498 0c-5.74 0-10.547 3.5966-10.547 9.7266 0 5.7912 4.5429 9.6719 10.119 9.6719 2.6438 0 4.8859-0.65609 6.7422-1.7148v-8.6719h-7.4277v2.7754h4.3867v4.2012c-1.0275 0.42125-2.1412 0.61328-3.5449 0.61328-4.0675 0-6.8984-2.8586-6.8984-6.9023 0-3.8862 2.4824-6.7949 7.1699-6.7949 1.5775 0 3.3745 0.24031 4.9883 0.85156v-3.0371c-1.5262-0.50625-3.1158-0.71875-4.9883-0.71875zm-154.63 0.45117v2.8828h6.0801v15.619h3.1719v-15.619h6.0801v-2.8828h-15.332zm19.508 0v18.502h3.1465v-7.9609h8.9336v7.9609h3.1719v-18.502h-3.1719v7.7148h-8.9336v-7.7148h-3.1465zm21.539 0v18.502h12.344v-2.8867h-9.168v-5.1211h8.6387v-2.7793h-8.6387v-4.832h9.168v-2.8828h-12.344zm44.898 0v18.502h12.34v-2.8867h-9.1738v-5.1211h8.6445v-2.7793h-8.6445v-4.832h9.1738v-2.8828h-12.34zm40.852 0v18.502h3.1719v-6.3652h3.334l4.0078 6.3652h3.707l-4.6758-7.0645c2.4288-0.97375 3.6934-2.9817 3.6934-5.418 0-3.4575-2.5247-6.0195-7.3984-6.0195h-5.8398zm39.59 0v18.502h12.34v-2.8867h-9.1641v-5.1211h8.6406v-2.7793h-8.6406v-4.832h9.1641v-2.8828h-12.34zm-54.361 2.3496c3.5962 0 6.0762 2.9884 6.0762 6.8984 0 3.9112-2.4798 6.9023-6.0274 6.9023-3.5938 0-6.0703-2.9911-6.0703-6.9023 0-3.91 2.4765-6.8984 6.0215-6.8984zm17.943 0.50195h2.8613c2.6112 0 3.8789 1.2471 3.8789 3.2559 0 2.005-1.2677 3.2266-3.8789 3.2266h-2.8613v-6.4824zm-83.557 26.79c-3.7475 0-6.0195 2.3261-6.0195 5.4961-0.000001 3.1462 2.3266 4.3374 4.4941 5.2637 2.375 1.0288 3.6191 1.5034 3.6191 3.1934 0 1.3488-0.76203 2.6426-2.8008 2.6426-1.5862 0-3.2016-0.41945-4.7129-1.1895h-0.02344v3.0664c1.3775 0.5775 2.9376 0.91992 4.7363 0.91992 3.99 0 6.0273-2.8212 6.0273-5.7812 0-3.4362-2.5174-4.5976-4.7324-5.5488-2.0888-0.90125-3.3887-1.4064-3.3887-2.9102 0-1.3475 0.87703-2.3516 2.8008-2.3516 1.3012 0 2.8602 0.46891 3.9414 1.0039h0.02734v-3.0625c-1.2162-0.455-2.59-0.74219-3.9688-0.74219zm68.928 0c-5.6275 0-10.328 3.5959-10.328 9.7246 0 5.7888 4.4668 9.668 9.9355 9.668 2.5975 0 4.7823-0.65398 6.6035-1.709v-8.6699h-7.2637v2.7754h4.2266v4.2012c-0.9975 0.42-2.0861 0.60547-3.4336 0.60547-3.94 0-6.6875-2.8504-6.6875-6.9004 0-3.88 2.4337-6.7871 6.9824-6.7871 1.5275 0 3.2684 0.23461 4.8359 0.81836h0.0254v-3.0137c-1.5062-0.49875-3.0752-0.71289-4.8965-0.71289zm34.547 0c-5.285 0-9.3574 4.1541-9.3574 9.6953 0 5.5538 3.8906 9.6973 9.2031 9.6973 5.2838 0 9.3496-4.1435 9.3496-9.6973 0-5.5413-3.8803-9.6953-9.1953-9.6953zm-120.4 0.317l-8.1953 18.633h3.2734l1.5293-3.6719h7.459l1.5586 3.6719h3.3809l-8.1934-18.633h-0.8125zm55.811 0v18.633h3.0195v-11.918l10.834 12.049h1.0781v-18.631h-3.0078v11.971l-10.84-12.104h-1.084zm78.553 0v18.633h3.0137v-11.918l10.838 12.049h1.0781v-18.631h-3.0117v11.971l-10.836-12.104h-1.082zm-164.35 0.133 5.7305 18.63h0.82227l4.5176-10.172 4.7051 10.172h0.82227l5.6855-18.631h-3.0469l-3.4609 11.73-4.3027-9.3242h-0.53516l-4.2539 9.3535-3.4336-11.76h-3.25zm56.463 0v18.5h3.1465v-7.9551h8.3555v7.9551h3.168v-18.5h-3.168v7.7168h-8.3555v-7.7168h-3.1465zm20.422 0v18.5h3.166v-18.5h-3.166zm47.504 0v2.8809h5.8926v15.619h3.168v-15.619h5.8984v-2.8809h-14.959zm25.887 2.3516c3.4888 0 5.9199 2.9908 5.9199 6.8945 0 3.9162-2.4311 6.9004-5.8711 6.9004-3.4862 0-5.9141-2.9841-5.9141-6.9004 0-3.9038 2.4277-6.8945 5.8652-6.8945zm-119.96 3.6465 2.627 6.1836h-5.2344l2.6074-6.1836zm93.021 23.645c-4.0375 0-6.5274 2.3234-6.5274 5.5234 0 3.1462 2.5081 4.3112 4.8594 5.2324 2.805 1.1125 4.0195 1.5578 4.0195 3.1953 0 1.3525-0.81703 2.6445-3.1445 2.6445-1.7988 0-3.6484-0.41945-5.3672-1.1895h-0.0508v3.0684c1.505 0.58375 3.2817 0.92188 5.2305 0.92188 4.3925 0 6.5566-2.8296 6.5566-5.8184 0-3.405-2.5922-4.5647-4.9922-5.4922-2.7788-1.055-3.8867-1.4805-3.8867-2.9355 0-1.3438 0.97344-2.3516 3.1172-2.3516 1.46 0 3.1451 0.47906 4.3613 1.0078h0.0527v-3.0664c-1.3238-0.4525-2.7485-0.74023-4.2285-0.74023zm-99.668 0.31836v18.631h3.0137v-12.133l11.553 12.264h1.084v-18.625h-3.0156v12.18l-11.555-12.316h-1.0801zm-23.148 0.13672v11.145c-1e-8 4.8912 3.1702 7.6641 7.7715 7.6641 4.5475 0 7.8457-2.8516 7.8457-7.6641v-11.145h-3.1699v10.986c0 3.225-1.7473 4.998-4.6211 4.998-2.9362 0-4.6562-1.743-4.6562-4.998v-10.986h-3.1699zm46.584 0v18.494h3.1758v-18.494h-3.1758zm8.0566 0 8.6719 18.625h0.81445l8.6738-18.625h-3.3555l-5.6855 12.545-5.6484-12.545h-3.4707zm23.043 0v18.494h12.662v-2.8809h-9.4863v-5.123h8.957v-2.7754h-8.957v-4.8418h9.4863v-2.873h-12.662zm19.738 0v18.494h3.1719v-6.3711h3.5644l4.1524 6.3711h3.6953l-4.8086-7.0566c2.51-0.9475 3.8086-2.9887 3.8086-5.4199 0-3.4588-2.585-6.0176-7.5312-6.0176h-6.0527zm37.578 0v18.494h3.1641v-18.494h-3.1641zm8.7715 0v2.873h6.1582v15.621h3.166v-15.621h6.1602v-2.873h-15.484zm18.301 0 6.9277 10.914v7.5801h3.1484v-7.5605l6.9277-10.934h-3.5762l-4.8574 8.1602-4.916-8.1602h-3.6543zm-61.479 2.8496h3.0625c2.695 0 4.0234 1.2436 4.0234 3.2461 0 2.0112-1.3284 3.2246-4.0234 3.2246h-3.0625v-6.4707zm-65.559 42.682c-2.6075 0-4.2051 1.4758-4.2051 3.6758 0 2.2288 1.7346 2.9996 3.4121 3.7246 2.0775 0.8925 3.1367 1.3213 3.1367 2.9551 0 1.46-1.0112 2.3574-2.7324 2.3574-1.265 0-2.4703-0.29118-3.6016-0.85742h-0.01953v1.5195c1.0125 0.45 2.3173 0.71875 3.6211 0.71875 2.6125 0 4.2891-1.6167 4.2891-3.8867 0-2.555-2.0648-3.3573-3.8711-4.1348-1.5675-0.66125-2.6777-1.1863-2.6777-2.5488 0-1.3688 0.99469-2.1406 2.6484-2.1406 0.95375 0 1.9311 0.21547 2.8711 0.54297h0.0078v-1.4453c-0.94875-0.3225-1.8789-0.48047-2.8789-0.48047zm52.797 0c-3.6062 0-7.3203 2.5883-7.3203 7.0508 0 4.2612 3.5012 7.043 7.2812 7.043 2.0238 0 3.6199-0.555 4.9824-1.5938v-5.4922h-5.0801v1.4023h3.6016v3.4062c-1.0925 0.6475-2.1406 0.91407-3.4844 0.91407-3.1762 0-5.6953-2.4697-5.6953-5.6797-0.000001-3.1962 2.1081-5.668 5.7344-5.668 1.3425 0 2.9554 0.32844 4.2441 0.99219h0.01367v-1.4785c-1.2775-0.625-2.8223-0.89648-4.2773-0.89648zm26.424 0c-3.685 0-6.875 2.9595-6.875 7.0508 0 4.0825 3.0545 7.0312 6.7383 7.0312 3.675 0 6.8555-2.9488 6.8555-7.0312 0-4.0912-3.04-7.0508-6.7188-7.0508zm60.809 0c-4.1862 0-7.3223 3.0395-7.3223 7.0508 0 4.0825 3.0573 7.043 7.3223 7.043 1.4575 0 2.6285-0.25157 3.6973-0.69532v-1.4219h-0.0195c-1.1262 0.5-2.3915 0.73633-3.6777 0.73633-3.4862 0-5.709-2.4521-5.709-5.6621 0-3.22 2.0907-5.668 5.6894-5.668 1.305 0 2.571 0.23758 3.6973 0.73633h0.0195v-1.4238c-1.0688-0.4475-2.2398-0.69531-3.6973-0.69531zm-152.59 0.14062-6.002 13.719h1.543l1.5977-3.7734h6.1562l1.5898 3.7734h1.6172l-6.0117-13.719h-0.49023zm42.979 0.0488v13.67h1.4023v-10.395l8.5273 10.439h0.59961v-13.674h-1.4004v10.398l-8.5312-10.439h-0.59766zm60.041 0v13.67h1.3926v-10.395l8.5293 10.439h0.60352v-13.674h-1.4004v10.398l-8.5312-10.439h-0.59375zm-125.94 0.041 4.1699 13.732h0.48047l3.5273-8.7227 3.541 8.7227h0.49414l4.1484-13.732h-1.4453l-3.0781 10.303-3.3848-8.3125h-0.49023l-3.3828 8.3887-3.1016-10.379h-1.4785zm43.639 0v13.629h1.498v-6.2461h7.2832v6.2461h1.5v-13.629h-1.5v6.041h-7.2832v-6.041h-1.498zm15.52 0v13.629h1.4941v-13.629h-1.4941zm36.475 0v1.3496h4.5586v12.279h1.4785v-12.279h4.5527v-1.3496h-10.59zm57.395 0v13.629h3.5898c5.0588 0 7.7637-3.1698 7.7637-6.8086 0-3.67-2.6862-6.8203-7.7637-6.8203h-3.5898zm-38.391 1.1152c3.02 0 5.1582 2.4851 5.1582 5.7051 0 3.21-2.1382 5.7031-5.1582 5.7031-3.0375 0-5.1992-2.4931-5.1992-5.7031 0-3.22 2.1617-5.7051 5.1992-5.7051zm39.873 0.2168h2.1074c4.1262 0 6.1543 2.3095 6.1543 5.4883 0 3.1862-2.0093 5.4902-6.1543 5.4902h-2.1074v-10.979zm-131.37 1.2793 2.5527 5.9941h-5.0996l2.5469-5.9941zm117.91 9.1348-0.4707 4.332h0.89844l1.2676-3.8086v-0.52344h-1.6953z" transform="matrix(.8 0 0 -.8 0 110)" fill="#004065"/><path d="m0 0.50781v2.8965h180v-2.8965h-180zm0 105.87v2.9004h180v-2.9004h-180z" transform="matrix(.8 0 0 -.8 0 110)" fill="#c8b18b"/></g></g></svg>